  0
SECTION
  2
HEADER
  9
$EXTMIN
 10
-0.0127
 20
-3.287
 30
0.00
  9
$EXTMAX
 10
85.0127
 20
55.5127
 30
0.00
  0
ENDSEC
  0
SECTION
  2
TABLES
  0
TABLE
  2
LTYPE
 70
3
  0
LTYPE
  2
BYBLOCK
 70
0
  3

 72
65
 73
0
 40
0.00
  0
LTYPE
  2
BYLAYER
 70
0
  3

 72
65
 73
0
 40
0.00
  0
LTYPE
  2
CONTINUOUS
 70
0
  3
Solid line
 72
65
 73
0
 40
0.00
  0
ENDTAB
  0
TABLE
  2
LAYER
 70
5
  0
LAYER
  2
0
 70
0
 62
7
  6
CONTINUOUS
  0
LAYER
  2
BOARD_ART
 70
0
 62
7
  6
CONTINUOUS
  0
LAYER
  2
PASTETOP_ART
 70
0
 62
5
  6
CONTINUOUS
  0
LAYER
  2
SILK_TOP_ART
 70
0
 62
9
  6
CONTINUOUS
  0
LAYER
  2
DS2206-1-2_DRL
 70
0
 62
6
  6
CONTINUOUS
  0
LAYER
  2
DS2206IV_ROU
 70
0
 62
1
  6
CONTINUOUS
  0
ENDTAB
  0
TABLE
  2
STYLE
 70
0
  0
ENDTAB
  0
ENDSEC
  0
SECTION
  2
BLOCKS
  0
BLOCK
  2
ROUND_1
  3
ROUND_1
 70
64
 10
0.00
 20
0.00
 30
0.00
  0
CIRCLE
  8
0
 10
0.00
 20
0.00
 30
0.00
 40
0.0127
  0
ENDBLK
  0
BLOCK
  2
ROUND_7
  3
ROUND_7
 70
64
 10
0.00
 20
0.00
 30
0.00
  0
CIRCLE
  8
0
 10
0.00
 20
0.00
 30
0.00
 40
1.375
  0
ENDBLK
  0
BLOCK
  2
ROUND_18
  3
ROUND_18
 70
64
 10
0.00
 20
0.00
 30
0.00
  0
CIRCLE
  8
0
 10
0.00
 20
0.00
 30
0.00
 40
0.25
  0
ENDBLK
  0
BLOCK
  2
RECTANGLE_35
  3
RECTANGLE_35
 70
64
 10
0.00
 20
0.00
 30
0.00
  0
SOLID
  8
0
 10
0.635
 20
0.508
 30
0.00
 11
0.635
 21
-0.508
 31
0.00
 12
-0.635
 22
0.508
 32
0.00
 13
-0.635
 23
-0.508
 33
0.00
  0
ENDBLK
  0
BLOCK
  2
RECTANGLE_36
  3
RECTANGLE_36
 70
64
 10
0.00
 20
0.00
 30
0.00
  0
SOLID
  8
0
 10
1.143
 20
0.5715
 30
0.00
 11
1.143
 21
-0.5715
 31
0.00
 12
-1.143
 22
0.5715
 32
0.00
 13
-1.143
 23
-0.5715
 33
0.00
  0
ENDBLK
  0
BLOCK
  2
RECTANGLE_37
  3
RECTANGLE_37
 70
64
 10
0.00
 20
0.00
 30
0.00
  0
SOLID
  8
0
 10
0.4826
 20
0.3556
 30
0.00
 11
0.4826
 21
-0.3556
 31
0.00
 12
-0.4826
 22
0.3556
 32
0.00
 13
-0.4826
 23
-0.3556
 33
0.00
  0
ENDBLK
  0
BLOCK
  2
ROUND_38
  3
ROUND_38
 70
64
 10
0.00
 20
0.00
 30
0.00
  0
CIRCLE
  8
0
 10
0.00
 20
0.00
 30
0.00
 40
0.15
  0
ENDBLK
  0
BLOCK
  2
ROUND_39
  3
ROUND_39
 70
64
 10
0.00
 20
0.00
 30
0.00
  0
CIRCLE
  8
0
 10
0.00
 20
0.00
 30
0.00
 40
0.1016
  0
ENDBLK
  0
BLOCK
  2
ROUND_41
  3
ROUND_41
 70
64
 10
0.00
 20
0.00
 30
0.00
  0
CIRCLE
  8
0
 10
0.00
 20
0.00
 30
0.00
 40
0.127
  0
ENDBLK
  0
BLOCK
  2
ROUND_42
  3
ROUND_42
 70
64
 10
0.00
 20
0.00
 30
0.00
  0
CIRCLE
  8
0
 10
0.00
 20
0.00
 30
0.00
 40
0.254
  0
ENDBLK
  0
BLOCK
  2
ROUND_43
  3
ROUND_43
 70
64
 10
0.00
 20
0.00
 30
0.00
  0
CIRCLE
  8
0
 10
0.00
 20
0.00
 30
0.00
 40
0.10
  0
ENDBLK
  0
BLOCK
  2
ROUND_44
  3
ROUND_44
 70
64
 10
0.00
 20
0.00
 30
0.00
  0
CIRCLE
  8
0
 10
0.00
 20
0.00
 30
0.00
 40
0.0762
  0
ENDBLK
  0
BLOCK
  2
ROUND_47
  3
ROUND_47
 70
64
 10
0.00
 20
0.00
 30
0.00
  0
CIRCLE
  8
0
 10
0.00
 20
0.00
 30
0.00
 40
0.6985
  0
ENDBLK
  0
BLOCK
  2
ROUND_48
  3
ROUND_48
 70
64
 10
0.00
 20
0.00
 30
0.00
  0
CIRCLE
  8
0
 10
0.00
 20
0.00
 30
0.00
 40
0.4953
  0
ENDBLK
  0
BLOCK
  2
ROUND_49
  3
ROUND_49
 70
64
 10
0.00
 20
0.00
 30
0.00
  0
CIRCLE
  8
0
 10
0.00
 20
0.00
 30
0.00
 40
0.5461
  0
ENDBLK
  0
BLOCK
  2
ROUND_50
  3
ROUND_50
 70
64
 10
0.00
 20
0.00
 30
0.00
  0
CIRCLE
  8
0
 10
0.00
 20
0.00
 30
0.00
 40
0.5842
  0
ENDBLK
  0
BLOCK
  2
ROUND_51
  3
ROUND_51
 70
64
 10
0.00
 20
0.00
 30
0.00
  0
CIRCLE
  8
0
 10
0.00
 20
0.00
 30
0.00
 40
0.8001
  0
ENDBLK
  0
BLOCK
  2
ROUND_52
  3
ROUND_52
 70
64
 10
0.00
 20
0.00
 30
0.00
  0
CIRCLE
  8
0
 10
0.00
 20
0.00
 30
0.00
 40
0.8255
  0
ENDBLK
  0
BLOCK
  2
ROUND_53
  3
ROUND_53
 70
64
 10
0.00
 20
0.00
 30
0.00
  0
CIRCLE
  8
0
 10
0.00
 20
0.00
 30
0.00
 40
0.8636
  0
ENDBLK
  0
BLOCK
  2
ROUND_54
  3
ROUND_54
 70
64
 10
0.00
 20
0.00
 30
0.00
  0
CIRCLE
  8
0
 10
0.00
 20
0.00
 30
0.00
 40
0.0375
  0
ENDBLK
  0
ENDSEC
  0
SECTION
  2
ENTITIES
  0
POLYLINE
  8
BOARD_ART
 66
1
 10
0.00
 20
0.00
 30
0.00
 40
0.0254
 41
0.0254
  0
VERTEX
  8
BOARD_ART
 10
0.00
 20
2.00
 30
0.00
 42
0.4142136
  0
VERTEX
  8
BOARD_ART
 10
2.00
 20
0.00
 30
0.00
 42
0.00
  0
SEQEND
  0
POLYLINE
  8
BOARD_ART
 66
1
 10
0.00
 20
0.00
 30
0.00
 40
0.0254
 41
0.0254
  0
VERTEX
  8
BOARD_ART
 10
2.00
 20
0.00
 30
0.00
  0
VERTEX
  8
BOARD_ART
 10
25.00
 20
0.00
 30
0.00
  0
VERTEX
  8
BOARD_ART
 10
26.00
 20
1.00
 30
0.00
  0
VERTEX
  8
BOARD_ART
 10
26.00
 20
6.50
 30
0.00
  0
VERTEX
  8
BOARD_ART
 10
27.00
 20
7.50
 30
0.00
  0
VERTEX
  8
BOARD_ART
 10
78.00
 20
7.50
 30
0.00
  0
VERTEX
  8
BOARD_ART
 10
79.00
 20
6.50
 30
0.00
  0
VERTEX
  8
BOARD_ART
 10
79.00
 20
1.00
 30
0.00
  0
VERTEX
  8
BOARD_ART
 10
80.00
 20
0.00
 30
0.00
  0
VERTEX
  8
BOARD_ART
 10
83.00
 20
0.00
 30
0.00
  0
SEQEND
  0
POLYLINE
  8
BOARD_ART
 66
1
 10
0.00
 20
0.00
 30
0.00
 40
0.0254
 41
0.0254
  0
VERTEX
  8
BOARD_ART
 10
83.00
 20
0.00
 30
0.00
 42
0.4142136
  0
VERTEX
  8
BOARD_ART
 10
85.00
 20
2.00
 30
0.00
 42
0.00
  0
SEQEND
  0
POLYLINE
  8
BOARD_ART
 66
1
 10
0.00
 20
0.00
 30
0.00
 40
0.0254
 41
0.0254
  0
VERTEX
  8
BOARD_ART
 10
85.00
 20
52.50
 30
0.00
 42
0.4142136
  0
VERTEX
  8
BOARD_ART
 10
82.00
 20
55.50
 30
0.00
 42
0.00
  0
SEQEND
  0
POLYLINE
  8
BOARD_ART
 66
1
 10
0.00
 20
0.00
 30
0.00
 40
0.0254
 41
0.0254
  0
VERTEX
  8
BOARD_ART
 10
82.00
 20
55.50
 30
0.00
  0
VERTEX
  8
BOARD_ART
 10
3.00
 20
55.50
 30
0.00
  0
SEQEND
  0
POLYLINE
  8
BOARD_ART
 66
1
 10
0.00
 20
0.00
 30
0.00
 40
0.0254
 41
0.0254
  0
VERTEX
  8
BOARD_ART
 10
3.00
 20
55.50
 30
0.00
 42
0.4142136
  0
VERTEX
  8
BOARD_ART
 10
0.00
 20
52.50
 30
0.00
 42
0.00
  0
SEQEND
  0
POLYLINE
  8
BOARD_ART
 66
1
 10
0.00
 20
0.00
 30
0.00
 40
0.0254
 41
0.0254
  0
VERTEX
  8
BOARD_ART
 10
0.00
 20
52.50
 30
0.00
  0
VERTEX
  8
BOARD_ART
 10
0.00
 20
46.25
 30
0.00
  0
VERTEX
  8
BOARD_ART
 10
0.00
 20
38.75
 30
0.00
  0
SEQEND
  0
POLYLINE
  8
BOARD_ART
 66
1
 10
0.00
 20
0.00
 30
0.00
 40
0.0254
 41
0.0254
  0
VERTEX
  8
BOARD_ART
 10
0.00
 20
11.00
 30
0.00
  0
VERTEX
  8
BOARD_ART
 10
0.00
 20
15.25
 30
0.00
  0
SEQEND
  0
POLYLINE
  8
BOARD_ART
 66
1
 10
0.00
 20
0.00
 30
0.00
 40
0.0254
 41
0.0254
  0
VERTEX
  8
BOARD_ART
 10
0.00
 20
15.25
 30
0.00
  0
VERTEX
  8
BOARD_ART
 10
0.00
 20
38.75
 30
0.00
  0
VERTEX
  8
BOARD_ART
 10
0.00
 20
39.00
 30
0.00
  0
SEQEND
  0
POLYLINE
  8
BOARD_ART
 66
1
 10
0.00
 20
0.00
 30
0.00
 40
0.0254
 41
0.0254
  0
VERTEX
  8
BOARD_ART
 10
0.00
 20
11.00
 30
0.00
  0
VERTEX
  8
BOARD_ART
 10
0.00
 20
7.75
 30
0.00
  0
VERTEX
  8
BOARD_ART
 10
0.00
 20
2.00
 30
0.00
  0
SEQEND
  0
POLYLINE
  8
BOARD_ART
 66
1
 10
0.00
 20
0.00
 30
0.00
 40
0.0254
 41
0.0254
  0
VERTEX
  8
BOARD_ART
 10
85.00
 20
42.00
 30
0.00
  0
VERTEX
  8
BOARD_ART
 10
85.00
 20
46.25
 30
0.00
  0
VERTEX
  8
BOARD_ART
 10
85.00
 20
52.50
 30
0.00
  0
SEQEND
  0
POLYLINE
  8
BOARD_ART
 66
1
 10
0.00
 20
0.00
 30
0.00
 40
0.0254
 41
0.0254
  0
VERTEX
  8
BOARD_ART
 10
85.00
 20
42.25
 30
0.00
  0
VERTEX
  8
BOARD_ART
 10
85.00
 20
38.75
 30
0.00
  0
VERTEX
  8
BOARD_ART
 10
85.00
 20
15.25
 30
0.00
  0
VERTEX
  8
BOARD_ART
 10
85.00
 20
11.75
 30
0.00
  0
SEQEND
  0
POLYLINE
  8
BOARD_ART
 66
1
 10
0.00
 20
0.00
 30
0.00
 40
0.0254
 41
0.0254
  0
VERTEX
  8
BOARD_ART
 10
85.00
 20
2.00
 30
0.00
  0
VERTEX
  8
BOARD_ART
 10
85.00
 20
7.75
 30
0.00
  0
VERTEX
  8
BOARD_ART
 10
85.00
 20
11.75
 30
0.00
  0
SEQEND
  0
INSERT
  2
RECTANGLE_36
  8
PASTETOP_ART
 10
30.706
 20
19.73
 30
0.00
 41
1.00
 42
1.00
 50
0.00
  0
INSERT
  2
RECTANGLE_36
  8
PASTETOP_ART
 10
30.706
 20
22.27
 30
0.00
 41
1.00
 42
1.00
 50
0.00
  0
INSERT
  2
RECTANGLE_36
  8
PASTETOP_ART
 10
36.294
 20
19.73
 30
0.00
 41
1.00
 42
1.00
 50
0.00
  0
INSERT
  2
RECTANGLE_36
  8
PASTETOP_ART
 10
36.294
 20
22.27
 30
0.00
 41
1.00
 42
1.00
 50
0.00
  0
INSERT
  2
RECTANGLE_35
  8
PASTETOP_ART
 10
49.00
 20
21.111
 30
0.00
 41
1.00
 42
1.00
 50
0.00
  0
INSERT
  2
RECTANGLE_35
  8
PASTETOP_ART
 10
49.00
 20
22.889
 30
0.00
 41
1.00
 42
1.00
 50
0.00
  0
INSERT
  2
RECTANGLE_35
  8
PASTETOP_ART
 10
45.00
 20
21.111
 30
0.00
 41
1.00
 42
1.00
 50
0.00
  0
INSERT
  2
RECTANGLE_35
  8
PASTETOP_ART
 10
45.00
 20
22.889
 30
0.00
 41
1.00
 42
1.00
 50
0.00
  0
INSERT
  2
RECTANGLE_35
  8
PASTETOP_ART
 10
56.00
 20
21.111
 30
0.00
 41
1.00
 42
1.00
 50
0.00
  0
INSERT
  2
RECTANGLE_35
  8
PASTETOP_ART
 10
56.00
 20
22.889
 30
0.00
 41
1.00
 42
1.00
 50
0.00
  0
INSERT
  2
RECTANGLE_35
  8
PASTETOP_ART
 10
60.00
 20
21.111
 30
0.00
 41
1.00
 42
1.00
 50
0.00
  0
INSERT
  2
RECTANGLE_35
  8
PASTETOP_ART
 10
60.00
 20
22.889
 30
0.00
 41
1.00
 42
1.00
 50
0.00
  0
INSERT
  2
RECTANGLE_37
  8
PASTETOP_ART
 10
83.75
 20
25.7366
 30
0.00
 41
1.00
 42
1.00
 50
0.00
  0
INSERT
  2
RECTANGLE_37
  8
PASTETOP_ART
 10
83.75
 20
24.2634
 30
0.00
 41
1.00
 42
1.00
 50
0.00
  0
POLYLINE
  8
SILK_TOP_ART
 66
1
 10
0.00
 20
0.00
 30
0.00
 70
1
 40
0.20
 41
0.20
  0
VERTEX
  8
SILK_TOP_ART
 10
32.50
 20
38.75
 30
0.00
 42
1
  0
VERTEX
  8
SILK_TOP_ART
 10
33.00
 20
38.75
 30
0.00
 42
1
  0
SEQEND
  0
POLYLINE
  8
SILK_TOP_ART
 66
1
 10
0.00
 20
0.00
 30
0.00
 40
0.20
 41
0.20
  0
VERTEX
  8
SILK_TOP_ART
 10
34.00
 20
38.00
 30
0.00
  0
VERTEX
  8
SILK_TOP_ART
 10
33.00
 20
38.00
 30
0.00
  0
VERTEX
  8
SILK_TOP_ART
 10
33.00
 20
37.00
 30
0.00
  0
SEQEND
  0
POLYLINE
  8
SILK_TOP_ART
 66
1
 10
0.00
 20
0.00
 30
0.00
 40
0.20
 41
0.20
  0
VERTEX
  8
SILK_TOP_ART
 10
35.00
 20
38.00
 30
0.00
 42
1.00
  0
VERTEX
  8
SILK_TOP_ART
 10
34.00
 20
38.00
 30
0.00
 42
0.00
  0
SEQEND
  0
POLYLINE
  8
SILK_TOP_ART
 66
1
 10
0.00
 20
0.00
 30
0.00
 40
0.20
 41
0.20
  0
VERTEX
  8
SILK_TOP_ART
 10
34.00
 20
44.00
 30
0.00
  0
VERTEX
  8
SILK_TOP_ART
 10
33.00
 20
44.00
 30
0.00
  0
VERTEX
  8
SILK_TOP_ART
 10
33.00
 20
45.00
 30
0.00
  0
SEQEND
  0
POLYLINE
  8
SILK_TOP_ART
 66
1
 10
0.00
 20
0.00
 30
0.00
 40
0.20
 41
0.20
  0
VERTEX
  8
SILK_TOP_ART
 10
34.00
 20
44.00
 30
0.00
 42
1.00
  0
VERTEX
  8
SILK_TOP_ART
 10
35.00
 20
44.00
 30
0.00
 42
0.00
  0
SEQEND
  0
POLYLINE
  8
SILK_TOP_ART
 66
1
 10
0.00
 20
0.00
 30
0.00
 40
0.20
 41
0.20
  0
VERTEX
  8
SILK_TOP_ART
 10
37.00
 20
38.00
 30
0.00
  0
VERTEX
  8
SILK_TOP_ART
 10
39.00
 20
38.00
 30
0.00
  0
SEQEND
  0
POLYLINE
  8
SILK_TOP_ART
 66
1
 10
0.00
 20
0.00
 30
0.00
 40
0.20
 41
0.20
  0
VERTEX
  8
SILK_TOP_ART
 10
42.00
 20
38.00
 30
0.00
  0
VERTEX
  8
SILK_TOP_ART
 10
43.00
 20
38.00
 30
0.00
  0
VERTEX
  8
SILK_TOP_ART
 10
43.00
 20
37.00
 30
0.00
  0
SEQEND
  0
POLYLINE
  8
SILK_TOP_ART
 66
1
 10
0.00
 20
0.00
 30
0.00
 40
0.20
 41
0.20
  0
VERTEX
  8
SILK_TOP_ART
 10
42.00
 20
38.00
 30
0.00
 42
1.00
  0
VERTEX
  8
SILK_TOP_ART
 10
41.00
 20
38.00
 30
0.00
 42
0.00
  0
SEQEND
  0
POLYLINE
  8
SILK_TOP_ART
 66
1
 10
0.00
 20
0.00
 30
0.00
 40
0.20
 41
0.20
  0
VERTEX
  8
SILK_TOP_ART
 10
41.00
 20
38.00
 30
0.00
 42
1.00
  0
VERTEX
  8
SILK_TOP_ART
 10
40.00
 20
38.00
 30
0.00
 42
0.00
  0
SEQEND
  0
POLYLINE
  8
SILK_TOP_ART
 66
1
 10
0.00
 20
0.00
 30
0.00
 40
0.20
 41
0.20
  0
VERTEX
  8
SILK_TOP_ART
 10
40.00
 20
38.00
 30
0.00
 42
1.00
  0
VERTEX
  8
SILK_TOP_ART
 10
39.00
 20
38.00
 30
0.00
 42
0.00
  0
SEQEND
  0
POLYLINE
  8
SILK_TOP_ART
 66
1
 10
0.00
 20
0.00
 30
0.00
 40
0.20
 41
0.20
  0
VERTEX
  8
SILK_TOP_ART
 10
37.00
 20
38.00
 30
0.00
 42
1.00
  0
VERTEX
  8
SILK_TOP_ART
 10
36.00
 20
38.00
 30
0.00
 42
0.00
  0
SEQEND
  0
POLYLINE
  8
SILK_TOP_ART
 66
1
 10
0.00
 20
0.00
 30
0.00
 40
0.20
 41
0.20
  0
VERTEX
  8
SILK_TOP_ART
 10
36.00
 20
38.00
 30
0.00
 42
1.00
  0
VERTEX
  8
SILK_TOP_ART
 10
35.00
 20
38.00
 30
0.00
 42
0.00
  0
SEQEND
  0
POLYLINE
  8
SILK_TOP_ART
 66
1
 10
0.00
 20
0.00
 30
0.00
 40
0.20
 41
0.20
  0
VERTEX
  8
SILK_TOP_ART
 10
36.1769
 20
39.5291
 30
0.00
  0
VERTEX
  8
SILK_TOP_ART
 10
36.2896
 20
39.6773
 30
0.00
  0
VERTEX
  8
SILK_TOP_ART
 10
36.3861
 20
39.762
 30
0.00
  0
VERTEX
  8
SILK_TOP_ART
 10
36.5148
 20
39.8043
 30
0.00
  0
VERTEX
  8
SILK_TOP_ART
 10
36.6274
 20
39.762
 30
0.00
  0
VERTEX
  8
SILK_TOP_ART
 10
36.7078
 20
39.6773
 30
0.00
  0
VERTEX
  8
SILK_TOP_ART
 10
36.7722
 20
39.5503
 30
0.00
  0
VERTEX
  8
SILK_TOP_ART
 10
36.7883
 20
39.4022
 30
0.00
  0
VERTEX
  8
SILK_TOP_ART
 10
36.7722
 20
39.2751
 30
0.00
  0
VERTEX
  8
SILK_TOP_ART
 10
36.7078
 20
39.1481
 30
0.00
  0
VERTEX
  8
SILK_TOP_ART
 10
36.6113
 20
39.0423
 30
0.00
  0
VERTEX
  8
SILK_TOP_ART
 10
36.4987
 20
39.00
 30
0.00
  0
VERTEX
  8
SILK_TOP_ART
 10
36.37
 20
39.0423
 30
0.00
  0
VERTEX
  8
SILK_TOP_ART
 10
36.2574
 20
39.1693
 30
0.00
  0
VERTEX
  8
SILK_TOP_ART
 10
36.193
 20
39.3598
 30
0.00
  0
VERTEX
  8
SILK_TOP_ART
 10
36.1769
 20
39.5715
 30
0.00
  0
VERTEX
  8
SILK_TOP_ART
 10
36.2091
 20
39.8466
 30
0.00
  0
VERTEX
  8
SILK_TOP_ART
 10
36.2574
 20
39.9949
 30
0.00
  0
VERTEX
  8
SILK_TOP_ART
 10
36.3378
 20
40.143
 30
0.00
  0
VERTEX
  8
SILK_TOP_ART
 10
36.4504
 20
40.2488
 30
0.00
  0
VERTEX
  8
SILK_TOP_ART
 10
36.563
 20
40.27
 30
0.00
  0
VERTEX
  8
SILK_TOP_ART
 10
36.6756
 20
40.2277
 30
0.00
  0
VERTEX
  8
SILK_TOP_ART
 10
36.7561
 20
40.1218
 30
0.00
  0
SEQEND
  0
POLYLINE
  8
SILK_TOP_ART
 66
1
 10
0.00
 20
0.00
 30
0.00
 40
0.20
 41
0.20
  0
VERTEX
  8
SILK_TOP_ART
 10
37.778
 20
40.27
 30
0.00
  0
VERTEX
  8
SILK_TOP_ART
 10
37.6493
 20
40.2277
 30
0.00
  0
VERTEX
  8
SILK_TOP_ART
 10
37.5528
 20
40.1218
 30
0.00
  0
VERTEX
  8
SILK_TOP_ART
 10
37.4884
 20
39.9949
 30
0.00
  0
VERTEX
  8
SILK_TOP_ART
 10
37.4402
 20
39.8255
 30
0.00
  0
VERTEX
  8
SILK_TOP_ART
 10
37.4241
 20
39.635
 30
0.00
  0
VERTEX
  8
SILK_TOP_ART
 10
37.4402
 20
39.4445
 30
0.00
  0
VERTEX
  8
SILK_TOP_ART
 10
37.4884
 20
39.2751
 30
0.00
  0
VERTEX
  8
SILK_TOP_ART
 10
37.5528
 20
39.1481
 30
0.00
  0
VERTEX
  8
SILK_TOP_ART
 10
37.6493
 20
39.0423
 30
0.00
  0
VERTEX
  8
SILK_TOP_ART
 10
37.778
 20
39.00
 30
0.00
  0
VERTEX
  8
SILK_TOP_ART
 10
37.9067
 20
39.0423
 30
0.00
  0
VERTEX
  8
SILK_TOP_ART
 10
38.0032
 20
39.1481
 30
0.00
  0
VERTEX
  8
SILK_TOP_ART
 10
38.0676
 20
39.2751
 30
0.00
  0
VERTEX
  8
SILK_TOP_ART
 10
38.1158
 20
39.4445
 30
0.00
  0
VERTEX
  8
SILK_TOP_ART
 10
38.1319
 20
39.635
 30
0.00
  0
VERTEX
  8
SILK_TOP_ART
 10
38.1158
 20
39.8255
 30
0.00
  0
VERTEX
  8
SILK_TOP_ART
 10
38.0676
 20
39.9949
 30
0.00
  0
VERTEX
  8
SILK_TOP_ART
 10
38.0032
 20
40.1218
 30
0.00
  0
VERTEX
  8
SILK_TOP_ART
 10
37.9067
 20
40.2277
 30
0.00
  0
VERTEX
  8
SILK_TOP_ART
 10
37.778
 20
40.27
 30
0.00
  0
SEQEND
  0
POLYLINE
  8
SILK_TOP_ART
 66
1
 10
0.00
 20
0.00
 30
0.00
 40
0.20
 41
0.20
  0
VERTEX
  8
SILK_TOP_ART
 10
39.0734
 20
40.27
 30
0.00
  0
VERTEX
  8
SILK_TOP_ART
 10
38.9447
 20
40.2277
 30
0.00
  0
VERTEX
  8
SILK_TOP_ART
 10
38.8482
 20
40.1218
 30
0.00
  0
VERTEX
  8
SILK_TOP_ART
 10
38.7838
 20
39.9949
 30
0.00
  0
VERTEX
  8
SILK_TOP_ART
 10
38.7356
 20
39.8255
 30
0.00
  0
VERTEX
  8
SILK_TOP_ART
 10
38.7195
 20
39.635
 30
0.00
  0
VERTEX
  8
SILK_TOP_ART
 10
38.7356
 20
39.4445
 30
0.00
  0
VERTEX
  8
SILK_TOP_ART
 10
38.7838
 20
39.2751
 30
0.00
  0
VERTEX
  8
SILK_TOP_ART
 10
38.8482
 20
39.1481
 30
0.00
  0
VERTEX
  8
SILK_TOP_ART
 10
38.9447
 20
39.0423
 30
0.00
  0
VERTEX
  8
SILK_TOP_ART
 10
39.0734
 20
39.00
 30
0.00
  0
VERTEX
  8
SILK_TOP_ART
 10
39.2021
 20
39.0423
 30
0.00
  0
VERTEX
  8
SILK_TOP_ART
 10
39.2986
 20
39.1481
 30
0.00
  0
VERTEX
  8
SILK_TOP_ART
 10
39.363
 20
39.2751
 30
0.00
  0
VERTEX
  8
SILK_TOP_ART
 10
39.4112
 20
39.4445
 30
0.00
  0
VERTEX
  8
SILK_TOP_ART
 10
39.4273
 20
39.635
 30
0.00
  0
VERTEX
  8
SILK_TOP_ART
 10
39.4112
 20
39.8255
 30
0.00
  0
VERTEX
  8
SILK_TOP_ART
 10
39.363
 20
39.9949
 30
0.00
  0
VERTEX
  8
SILK_TOP_ART
 10
39.2986
 20
40.1218
 30
0.00
  0
VERTEX
  8
SILK_TOP_ART
 10
39.2021
 20
40.2277
 30
0.00
  0
VERTEX
  8
SILK_TOP_ART
 10
39.0734
 20
40.27
 30
0.00
  0
SEQEND
  0
POLYLINE
  8
SILK_TOP_ART
 66
1
 10
0.00
 20
0.00
 30
0.00
 40
0.20
 41
0.20
  0
VERTEX
  8
SILK_TOP_ART
 10
38.00
 20
44.00
 30
0.00
  0
VERTEX
  8
SILK_TOP_ART
 10
38.00
 20
45.00
 30
0.00
  0
SEQEND
  0
POLYLINE
  8
SILK_TOP_ART
 66
1
 10
0.00
 20
0.00
 30
0.00
 40
0.20
 41
0.20
  0
VERTEX
  8
SILK_TOP_ART
 10
42.00
 20
44.00
 30
0.00
  0
VERTEX
  8
SILK_TOP_ART
 10
43.00
 20
44.00
 30
0.00
  0
VERTEX
  8
SILK_TOP_ART
 10
43.00
 20
45.00
 30
0.00
  0
SEQEND
  0
POLYLINE
  8
SILK_TOP_ART
 66
1
 10
0.00
 20
0.00
 30
0.00
 40
0.20
 41
0.20
  0
VERTEX
  8
SILK_TOP_ART
 10
37.00
 20
44.00
 30
0.00
  0
VERTEX
  8
SILK_TOP_ART
 10
39.00
 20
44.00
 30
0.00
  0
SEQEND
  0
POLYLINE
  8
SILK_TOP_ART
 66
1
 10
0.00
 20
0.00
 30
0.00
 40
0.20
 41
0.20
  0
VERTEX
  8
SILK_TOP_ART
 10
41.00
 20
44.00
 30
0.00
 42
1.00
  0
VERTEX
  8
SILK_TOP_ART
 10
42.00
 20
44.00
 30
0.00
 42
0.00
  0
SEQEND
  0
POLYLINE
  8
SILK_TOP_ART
 66
1
 10
0.00
 20
0.00
 30
0.00
 40
0.20
 41
0.20
  0
VERTEX
  8
SILK_TOP_ART
 10
40.00
 20
44.00
 30
0.00
 42
1.00
  0
VERTEX
  8
SILK_TOP_ART
 10
41.00
 20
44.00
 30
0.00
 42
0.00
  0
SEQEND
  0
POLYLINE
  8
SILK_TOP_ART
 66
1
 10
0.00
 20
0.00
 30
0.00
 40
0.20
 41
0.20
  0
VERTEX
  8
SILK_TOP_ART
 10
39.00
 20
44.00
 30
0.00
 42
1.00
  0
VERTEX
  8
SILK_TOP_ART
 10
40.00
 20
44.00
 30
0.00
 42
0.00
  0
SEQEND
  0
POLYLINE
  8
SILK_TOP_ART
 66
1
 10
0.00
 20
0.00
 30
0.00
 40
0.20
 41
0.20
  0
VERTEX
  8
SILK_TOP_ART
 10
36.00
 20
44.00
 30
0.00
 42
1.00
  0
VERTEX
  8
SILK_TOP_ART
 10
37.00
 20
44.00
 30
0.00
 42
0.00
  0
SEQEND
  0
POLYLINE
  8
SILK_TOP_ART
 66
1
 10
0.00
 20
0.00
 30
0.00
 40
0.20
 41
0.20
  0
VERTEX
  8
SILK_TOP_ART
 10
35.00
 20
44.00
 30
0.00
 42
1.00
  0
VERTEX
  8
SILK_TOP_ART
 10
36.00
 20
44.00
 30
0.00
 42
0.00
  0
SEQEND
  0
POLYLINE
  8
SILK_TOP_ART
 66
1
 10
0.00
 20
0.00
 30
0.00
 40
0.20
 41
0.20
  0
VERTEX
  8
SILK_TOP_ART
 10
36.4826
 20
41.00
 30
0.00
  0
VERTEX
  8
SILK_TOP_ART
 10
36.4826
 20
42.27
 30
0.00
  0
VERTEX
  8
SILK_TOP_ART
 10
36.2896
 20
42.016
 30
0.00
  0
SEQEND
  0
POLYLINE
  8
SILK_TOP_ART
 66
1
 10
0.00
 20
0.00
 30
0.00
 40
0.20
 41
0.20
  0
VERTEX
  8
SILK_TOP_ART
 10
36.2896
 20
41.00
 30
0.00
  0
VERTEX
  8
SILK_TOP_ART
 10
36.6756
 20
41.00
 30
0.00
  0
SEQEND
  0
POLYLINE
  8
SILK_TOP_ART
 66
1
 10
0.00
 20
0.00
 30
0.00
 40
0.20
 41
0.20
  0
VERTEX
  8
SILK_TOP_ART
 10
37.778
 20
42.27
 30
0.00
  0
VERTEX
  8
SILK_TOP_ART
 10
37.6493
 20
42.2277
 30
0.00
  0
VERTEX
  8
SILK_TOP_ART
 10
37.5528
 20
42.1218
 30
0.00
  0
VERTEX
  8
SILK_TOP_ART
 10
37.4884
 20
41.9949
 30
0.00
  0
VERTEX
  8
SILK_TOP_ART
 10
37.4402
 20
41.8255
 30
0.00
  0
VERTEX
  8
SILK_TOP_ART
 10
37.4241
 20
41.635
 30
0.00
  0
VERTEX
  8
SILK_TOP_ART
 10
37.4402
 20
41.4445
 30
0.00
  0
VERTEX
  8
SILK_TOP_ART
 10
37.4884
 20
41.2751
 30
0.00
  0
VERTEX
  8
SILK_TOP_ART
 10
37.5528
 20
41.1481
 30
0.00
  0
VERTEX
  8
SILK_TOP_ART
 10
37.6493
 20
41.0423
 30
0.00
  0
VERTEX
  8
SILK_TOP_ART
 10
37.778
 20
41.00
 30
0.00
  0
VERTEX
  8
SILK_TOP_ART
 10
37.9067
 20
41.0423
 30
0.00
  0
VERTEX
  8
SILK_TOP_ART
 10
38.0032
 20
41.1481
 30
0.00
  0
VERTEX
  8
SILK_TOP_ART
 10
38.0676
 20
41.2751
 30
0.00
  0
VERTEX
  8
SILK_TOP_ART
 10
38.1158
 20
41.4445
 30
0.00
  0
VERTEX
  8
SILK_TOP_ART
 10
38.1319
 20
41.635
 30
0.00
  0
VERTEX
  8
SILK_TOP_ART
 10
38.1158
 20
41.8255
 30
0.00
  0
VERTEX
  8
SILK_TOP_ART
 10
38.0676
 20
41.9949
 30
0.00
  0
VERTEX
  8
SILK_TOP_ART
 10
38.0032
 20
42.1218
 30
0.00
  0
VERTEX
  8
SILK_TOP_ART
 10
37.9067
 20
42.2277
 30
0.00
  0
VERTEX
  8
SILK_TOP_ART
 10
37.778
 20
42.27
 30
0.00
  0
SEQEND
  0
POLYLINE
  8
SILK_TOP_ART
 66
1
 10
0.00
 20
0.00
 30
0.00
 40
0.20
 41
0.20
  0
VERTEX
  8
SILK_TOP_ART
 10
38.7195
 20
41.00
 30
0.00
  0
VERTEX
  8
SILK_TOP_ART
 10
38.7195
 20
42.27
 30
0.00
  0
SEQEND
  0
POLYLINE
  8
SILK_TOP_ART
 66
1
 10
0.00
 20
0.00
 30
0.00
 40
0.20
 41
0.20
  0
VERTEX
  8
SILK_TOP_ART
 10
39.3308
 20
42.27
 30
0.00
  0
VERTEX
  8
SILK_TOP_ART
 10
38.7195
 20
41.4868
 30
0.00
  0
SEQEND
  0
POLYLINE
  8
SILK_TOP_ART
 66
1
 10
0.00
 20
0.00
 30
0.00
 40
0.20
 41
0.20
  0
VERTEX
  8
SILK_TOP_ART
 10
39.4273
 20
41.00
 30
0.00
  0
VERTEX
  8
SILK_TOP_ART
 10
38.993
 20
41.8466
 30
0.00
  0
SEQEND
  0
POLYLINE
  8
SILK_TOP_ART
 66
1
 10
0.00
 20
0.00
 30
0.00
 70
1
 40
0.20
 41
0.20
  0
VERTEX
  8
SILK_TOP_ART
 10
42.75
 20
43.25
 30
0.00
 42
1
  0
VERTEX
  8
SILK_TOP_ART
 10
43.25
 20
43.25
 30
0.00
 42
1
  0
SEQEND
  0
POLYLINE
  8
SILK_TOP_ART
 66
1
 10
0.00
 20
0.00
 30
0.00
 70
1
 40
0.20
 41
0.20
  0
VERTEX
  8
SILK_TOP_ART
 10
60.50
 20
38.75
 30
0.00
 42
1
  0
VERTEX
  8
SILK_TOP_ART
 10
61.00
 20
38.75
 30
0.00
 42
1
  0
SEQEND
  0
POLYLINE
  8
SILK_TOP_ART
 66
1
 10
0.00
 20
0.00
 30
0.00
 40
0.20
 41
0.20
  0
VERTEX
  8
SILK_TOP_ART
 10
65.00
 20
38.00
 30
0.00
  0
VERTEX
  8
SILK_TOP_ART
 10
67.00
 20
38.00
 30
0.00
  0
SEQEND
  0
POLYLINE
  8
SILK_TOP_ART
 66
1
 10
0.00
 20
0.00
 30
0.00
 40
0.20
 41
0.20
  0
VERTEX
  8
SILK_TOP_ART
 10
62.00
 20
38.00
 30
0.00
  0
VERTEX
  8
SILK_TOP_ART
 10
61.00
 20
38.00
 30
0.00
  0
VERTEX
  8
SILK_TOP_ART
 10
61.00
 20
37.00
 30
0.00
  0
SEQEND
  0
POLYLINE
  8
SILK_TOP_ART
 66
1
 10
0.00
 20
0.00
 30
0.00
 40
0.20
 41
0.20
  0
VERTEX
  8
SILK_TOP_ART
 10
65.00
 20
38.00
 30
0.00
 42
1.00
  0
VERTEX
  8
SILK_TOP_ART
 10
64.00
 20
38.00
 30
0.00
 42
0.00
  0
SEQEND
  0
POLYLINE
  8
SILK_TOP_ART
 66
1
 10
0.00
 20
0.00
 30
0.00
 40
0.20
 41
0.20
  0
VERTEX
  8
SILK_TOP_ART
 10
64.00
 20
38.00
 30
0.00
 42
1.00
  0
VERTEX
  8
SILK_TOP_ART
 10
63.00
 20
38.00
 30
0.00
 42
0.00
  0
SEQEND
  0
POLYLINE
  8
SILK_TOP_ART
 66
1
 10
0.00
 20
0.00
 30
0.00
 40
0.20
 41
0.20
  0
VERTEX
  8
SILK_TOP_ART
 10
63.00
 20
38.00
 30
0.00
 42
1.00
  0
VERTEX
  8
SILK_TOP_ART
 10
62.00
 20
38.00
 30
0.00
 42
0.00
  0
SEQEND
  0
POLYLINE
  8
SILK_TOP_ART
 66
1
 10
0.00
 20
0.00
 30
0.00
 40
0.20
 41
0.20
  0
VERTEX
  8
SILK_TOP_ART
 10
64.1769
 20
39.5291
 30
0.00
  0
VERTEX
  8
SILK_TOP_ART
 10
64.2896
 20
39.6773
 30
0.00
  0
VERTEX
  8
SILK_TOP_ART
 10
64.3861
 20
39.762
 30
0.00
  0
VERTEX
  8
SILK_TOP_ART
 10
64.5148
 20
39.8043
 30
0.00
  0
VERTEX
  8
SILK_TOP_ART
 10
64.6274
 20
39.762
 30
0.00
  0
VERTEX
  8
SILK_TOP_ART
 10
64.7078
 20
39.6773
 30
0.00
  0
VERTEX
  8
SILK_TOP_ART
 10
64.7722
 20
39.5503
 30
0.00
  0
VERTEX
  8
SILK_TOP_ART
 10
64.7883
 20
39.4022
 30
0.00
  0
VERTEX
  8
SILK_TOP_ART
 10
64.7722
 20
39.2751
 30
0.00
  0
VERTEX
  8
SILK_TOP_ART
 10
64.7078
 20
39.1481
 30
0.00
  0
VERTEX
  8
SILK_TOP_ART
 10
64.6113
 20
39.0423
 30
0.00
  0
VERTEX
  8
SILK_TOP_ART
 10
64.4987
 20
39.00
 30
0.00
  0
VERTEX
  8
SILK_TOP_ART
 10
64.37
 20
39.0423
 30
0.00
  0
VERTEX
  8
SILK_TOP_ART
 10
64.2574
 20
39.1693
 30
0.00
  0
VERTEX
  8
SILK_TOP_ART
 10
64.193
 20
39.3598
 30
0.00
  0
VERTEX
  8
SILK_TOP_ART
 10
64.1769
 20
39.5715
 30
0.00
  0
VERTEX
  8
SILK_TOP_ART
 10
64.2091
 20
39.8466
 30
0.00
  0
VERTEX
  8
SILK_TOP_ART
 10
64.2574
 20
39.9949
 30
0.00
  0
VERTEX
  8
SILK_TOP_ART
 10
64.3378
 20
40.143
 30
0.00
  0
VERTEX
  8
SILK_TOP_ART
 10
64.4504
 20
40.2488
 30
0.00
  0
VERTEX
  8
SILK_TOP_ART
 10
64.563
 20
40.27
 30
0.00
  0
VERTEX
  8
SILK_TOP_ART
 10
64.6756
 20
40.2277
 30
0.00
  0
VERTEX
  8
SILK_TOP_ART
 10
64.7561
 20
40.1218
 30
0.00
  0
SEQEND
  0
POLYLINE
  8
SILK_TOP_ART
 66
1
 10
0.00
 20
0.00
 30
0.00
 40
0.20
 41
0.20
  0
VERTEX
  8
SILK_TOP_ART
 10
65.778
 20
40.27
 30
0.00
  0
VERTEX
  8
SILK_TOP_ART
 10
65.6493
 20
40.2277
 30
0.00
  0
VERTEX
  8
SILK_TOP_ART
 10
65.5528
 20
40.1218
 30
0.00
  0
VERTEX
  8
SILK_TOP_ART
 10
65.4884
 20
39.9949
 30
0.00
  0
VERTEX
  8
SILK_TOP_ART
 10
65.4402
 20
39.8255
 30
0.00
  0
VERTEX
  8
SILK_TOP_ART
 10
65.4241
 20
39.635
 30
0.00
  0
VERTEX
  8
SILK_TOP_ART
 10
65.4402
 20
39.4445
 30
0.00
  0
VERTEX
  8
SILK_TOP_ART
 10
65.4884
 20
39.2751
 30
0.00
  0
VERTEX
  8
SILK_TOP_ART
 10
65.5528
 20
39.1481
 30
0.00
  0
VERTEX
  8
SILK_TOP_ART
 10
65.6493
 20
39.0423
 30
0.00
  0
VERTEX
  8
SILK_TOP_ART
 10
65.778
 20
39.00
 30
0.00
  0
VERTEX
  8
SILK_TOP_ART
 10
65.9067
 20
39.0423
 30
0.00
  0
VERTEX
  8
SILK_TOP_ART
 10
66.0032
 20
39.1481
 30
0.00
  0
VERTEX
  8
SILK_TOP_ART
 10
66.0676
 20
39.2751
 30
0.00
  0
VERTEX
  8
SILK_TOP_ART
 10
66.1158
 20
39.4445
 30
0.00
  0
VERTEX
  8
SILK_TOP_ART
 10
66.1319
 20
39.635
 30
0.00
  0
VERTEX
  8
SILK_TOP_ART
 10
66.1158
 20
39.8255
 30
0.00
  0
VERTEX
  8
SILK_TOP_ART
 10
66.0676
 20
39.9949
 30
0.00
  0
VERTEX
  8
SILK_TOP_ART
 10
66.0032
 20
40.1218
 30
0.00
  0
VERTEX
  8
SILK_TOP_ART
 10
65.9067
 20
40.2277
 30
0.00
  0
VERTEX
  8
SILK_TOP_ART
 10
65.778
 20
40.27
 30
0.00
  0
SEQEND
  0
POLYLINE
  8
SILK_TOP_ART
 66
1
 10
0.00
 20
0.00
 30
0.00
 40
0.20
 41
0.20
  0
VERTEX
  8
SILK_TOP_ART
 10
67.0734
 20
40.27
 30
0.00
  0
VERTEX
  8
SILK_TOP_ART
 10
66.9447
 20
40.2277
 30
0.00
  0
VERTEX
  8
SILK_TOP_ART
 10
66.8482
 20
40.1218
 30
0.00
  0
VERTEX
  8
SILK_TOP_ART
 10
66.7838
 20
39.9949
 30
0.00
  0
VERTEX
  8
SILK_TOP_ART
 10
66.7356
 20
39.8255
 30
0.00
  0
VERTEX
  8
SILK_TOP_ART
 10
66.7195
 20
39.635
 30
0.00
  0
VERTEX
  8
SILK_TOP_ART
 10
66.7356
 20
39.4445
 30
0.00
  0
VERTEX
  8
SILK_TOP_ART
 10
66.7838
 20
39.2751
 30
0.00
  0
VERTEX
  8
SILK_TOP_ART
 10
66.8482
 20
39.1481
 30
0.00
  0
VERTEX
  8
SILK_TOP_ART
 10
66.9447
 20
39.0423
 30
0.00
  0
VERTEX
  8
SILK_TOP_ART
 10
67.0734
 20
39.00
 30
0.00
  0
VERTEX
  8
SILK_TOP_ART
 10
67.2021
 20
39.0423
 30
0.00
  0
VERTEX
  8
SILK_TOP_ART
 10
67.2986
 20
39.1481
 30
0.00
  0
VERTEX
  8
SILK_TOP_ART
 10
67.363
 20
39.2751
 30
0.00
  0
VERTEX
  8
SILK_TOP_ART
 10
67.4112
 20
39.4445
 30
0.00
  0
VERTEX
  8
SILK_TOP_ART
 10
67.4273
 20
39.635
 30
0.00
  0
VERTEX
  8
SILK_TOP_ART
 10
67.4112
 20
39.8255
 30
0.00
  0
VERTEX
  8
SILK_TOP_ART
 10
67.363
 20
39.9949
 30
0.00
  0
VERTEX
  8
SILK_TOP_ART
 10
67.2986
 20
40.1218
 30
0.00
  0
VERTEX
  8
SILK_TOP_ART
 10
67.2021
 20
40.2277
 30
0.00
  0
VERTEX
  8
SILK_TOP_ART
 10
67.0734
 20
40.27
 30
0.00
  0
SEQEND
  0
POLYLINE
  8
SILK_TOP_ART
 66
1
 10
0.00
 20
0.00
 30
0.00
 40
0.20
 41
0.20
  0
VERTEX
  8
SILK_TOP_ART
 10
65.00
 20
44.00
 30
0.00
  0
VERTEX
  8
SILK_TOP_ART
 10
67.00
 20
44.00
 30
0.00
  0
SEQEND
  0
POLYLINE
  8
SILK_TOP_ART
 66
1
 10
0.00
 20
0.00
 30
0.00
 40
0.20
 41
0.20
  0
VERTEX
  8
SILK_TOP_ART
 10
62.00
 20
44.00
 30
0.00
  0
VERTEX
  8
SILK_TOP_ART
 10
61.00
 20
44.00
 30
0.00
  0
VERTEX
  8
SILK_TOP_ART
 10
61.00
 20
45.00
 30
0.00
  0
SEQEND
  0
POLYLINE
  8
SILK_TOP_ART
 66
1
 10
0.00
 20
0.00
 30
0.00
 40
0.20
 41
0.20
  0
VERTEX
  8
SILK_TOP_ART
 10
64.00
 20
44.00
 30
0.00
 42
1.00
  0
VERTEX
  8
SILK_TOP_ART
 10
65.00
 20
44.00
 30
0.00
 42
0.00
  0
SEQEND
  0
POLYLINE
  8
SILK_TOP_ART
 66
1
 10
0.00
 20
0.00
 30
0.00
 40
0.20
 41
0.20
  0
VERTEX
  8
SILK_TOP_ART
 10
63.00
 20
44.00
 30
0.00
 42
1.00
  0
VERTEX
  8
SILK_TOP_ART
 10
64.00
 20
44.00
 30
0.00
 42
0.00
  0
SEQEND
  0
POLYLINE
  8
SILK_TOP_ART
 66
1
 10
0.00
 20
0.00
 30
0.00
 40
0.20
 41
0.20
  0
VERTEX
  8
SILK_TOP_ART
 10
62.00
 20
44.00
 30
0.00
 42
1.00
  0
VERTEX
  8
SILK_TOP_ART
 10
63.00
 20
44.00
 30
0.00
 42
0.00
  0
SEQEND
  0
POLYLINE
  8
SILK_TOP_ART
 66
1
 10
0.00
 20
0.00
 30
0.00
 40
0.20
 41
0.20
  0
VERTEX
  8
SILK_TOP_ART
 10
64.4826
 20
41.00
 30
0.00
  0
VERTEX
  8
SILK_TOP_ART
 10
64.4826
 20
42.27
 30
0.00
  0
VERTEX
  8
SILK_TOP_ART
 10
64.2896
 20
42.016
 30
0.00
  0
SEQEND
  0
POLYLINE
  8
SILK_TOP_ART
 66
1
 10
0.00
 20
0.00
 30
0.00
 40
0.20
 41
0.20
  0
VERTEX
  8
SILK_TOP_ART
 10
64.2896
 20
41.00
 30
0.00
  0
VERTEX
  8
SILK_TOP_ART
 10
64.6756
 20
41.00
 30
0.00
  0
SEQEND
  0
POLYLINE
  8
SILK_TOP_ART
 66
1
 10
0.00
 20
0.00
 30
0.00
 40
0.20
 41
0.20
  0
VERTEX
  8
SILK_TOP_ART
 10
65.778
 20
42.27
 30
0.00
  0
VERTEX
  8
SILK_TOP_ART
 10
65.6493
 20
42.2277
 30
0.00
  0
VERTEX
  8
SILK_TOP_ART
 10
65.5528
 20
42.1218
 30
0.00
  0
VERTEX
  8
SILK_TOP_ART
 10
65.4884
 20
41.9949
 30
0.00
  0
VERTEX
  8
SILK_TOP_ART
 10
65.4402
 20
41.8255
 30
0.00
  0
VERTEX
  8
SILK_TOP_ART
 10
65.4241
 20
41.635
 30
0.00
  0
VERTEX
  8
SILK_TOP_ART
 10
65.4402
 20
41.4445
 30
0.00
  0
VERTEX
  8
SILK_TOP_ART
 10
65.4884
 20
41.2751
 30
0.00
  0
VERTEX
  8
SILK_TOP_ART
 10
65.5528
 20
41.1481
 30
0.00
  0
VERTEX
  8
SILK_TOP_ART
 10
65.6493
 20
41.0423
 30
0.00
  0
VERTEX
  8
SILK_TOP_ART
 10
65.778
 20
41.00
 30
0.00
  0
VERTEX
  8
SILK_TOP_ART
 10
65.9067
 20
41.0423
 30
0.00
  0
VERTEX
  8
SILK_TOP_ART
 10
66.0032
 20
41.1481
 30
0.00
  0
VERTEX
  8
SILK_TOP_ART
 10
66.0676
 20
41.2751
 30
0.00
  0
VERTEX
  8
SILK_TOP_ART
 10
66.1158
 20
41.4445
 30
0.00
  0
VERTEX
  8
SILK_TOP_ART
 10
66.1319
 20
41.635
 30
0.00
  0
VERTEX
  8
SILK_TOP_ART
 10
66.1158
 20
41.8255
 30
0.00
  0
VERTEX
  8
SILK_TOP_ART
 10
66.0676
 20
41.9949
 30
0.00
  0
VERTEX
  8
SILK_TOP_ART
 10
66.0032
 20
42.1218
 30
0.00
  0
VERTEX
  8
SILK_TOP_ART
 10
65.9067
 20
42.2277
 30
0.00
  0
VERTEX
  8
SILK_TOP_ART
 10
65.778
 20
42.27
 30
0.00
  0
SEQEND
  0
POLYLINE
  8
SILK_TOP_ART
 66
1
 10
0.00
 20
0.00
 30
0.00
 40
0.20
 41
0.20
  0
VERTEX
  8
SILK_TOP_ART
 10
66.7195
 20
41.00
 30
0.00
  0
VERTEX
  8
SILK_TOP_ART
 10
66.7195
 20
42.27
 30
0.00
  0
SEQEND
  0
POLYLINE
  8
SILK_TOP_ART
 66
1
 10
0.00
 20
0.00
 30
0.00
 40
0.20
 41
0.20
  0
VERTEX
  8
SILK_TOP_ART
 10
67.3308
 20
42.27
 30
0.00
  0
VERTEX
  8
SILK_TOP_ART
 10
66.7195
 20
41.4868
 30
0.00
  0
SEQEND
  0
POLYLINE
  8
SILK_TOP_ART
 66
1
 10
0.00
 20
0.00
 30
0.00
 40
0.20
 41
0.20
  0
VERTEX
  8
SILK_TOP_ART
 10
67.4273
 20
41.00
 30
0.00
  0
VERTEX
  8
SILK_TOP_ART
 10
66.993
 20
41.8466
 30
0.00
  0
SEQEND
  0
POLYLINE
  8
SILK_TOP_ART
 66
1
 10
0.00
 20
0.00
 30
0.00
 40
0.20
 41
0.20
  0
VERTEX
  8
SILK_TOP_ART
 10
70.00
 20
38.00
 30
0.00
  0
VERTEX
  8
SILK_TOP_ART
 10
71.00
 20
38.00
 30
0.00
  0
VERTEX
  8
SILK_TOP_ART
 10
71.00
 20
37.00
 30
0.00
  0
SEQEND
  0
POLYLINE
  8
SILK_TOP_ART
 66
1
 10
0.00
 20
0.00
 30
0.00
 40
0.20
 41
0.20
  0
VERTEX
  8
SILK_TOP_ART
 10
70.00
 20
38.00
 30
0.00
 42
1.00
  0
VERTEX
  8
SILK_TOP_ART
 10
69.00
 20
38.00
 30
0.00
 42
0.00
  0
SEQEND
  0
POLYLINE
  8
SILK_TOP_ART
 66
1
 10
0.00
 20
0.00
 30
0.00
 40
0.20
 41
0.20
  0
VERTEX
  8
SILK_TOP_ART
 10
69.00
 20
38.00
 30
0.00
 42
1.00
  0
VERTEX
  8
SILK_TOP_ART
 10
68.00
 20
38.00
 30
0.00
 42
0.00
  0
SEQEND
  0
POLYLINE
  8
SILK_TOP_ART
 66
1
 10
0.00
 20
0.00
 30
0.00
 40
0.20
 41
0.20
  0
VERTEX
  8
SILK_TOP_ART
 10
68.00
 20
38.00
 30
0.00
 42
1.00
  0
VERTEX
  8
SILK_TOP_ART
 10
67.00
 20
38.00
 30
0.00
 42
0.00
  0
SEQEND
  0
POLYLINE
  8
SILK_TOP_ART
 66
1
 10
0.00
 20
0.00
 30
0.00
 70
1
 40
0.20
 41
0.20
  0
VERTEX
  8
SILK_TOP_ART
 10
70.75
 20
43.25
 30
0.00
 42
1
  0
VERTEX
  8
SILK_TOP_ART
 10
71.25
 20
43.25
 30
0.00
 42
1
  0
SEQEND
  0
POLYLINE
  8
SILK_TOP_ART
 66
1
 10
0.00
 20
0.00
 30
0.00
 40
0.20
 41
0.20
  0
VERTEX
  8
SILK_TOP_ART
 10
66.00
 20
44.00
 30
0.00
  0
VERTEX
  8
SILK_TOP_ART
 10
66.00
 20
45.00
 30
0.00
  0
SEQEND
  0
POLYLINE
  8
SILK_TOP_ART
 66
1
 10
0.00
 20
0.00
 30
0.00
 40
0.20
 41
0.20
  0
VERTEX
  8
SILK_TOP_ART
 10
70.00
 20
44.00
 30
0.00
  0
VERTEX
  8
SILK_TOP_ART
 10
71.00
 20
44.00
 30
0.00
  0
VERTEX
  8
SILK_TOP_ART
 10
71.00
 20
45.00
 30
0.00
  0
SEQEND
  0
POLYLINE
  8
SILK_TOP_ART
 66
1
 10
0.00
 20
0.00
 30
0.00
 40
0.20
 41
0.20
  0
VERTEX
  8
SILK_TOP_ART
 10
69.00
 20
44.00
 30
0.00
 42
1.00
  0
VERTEX
  8
SILK_TOP_ART
 10
70.00
 20
44.00
 30
0.00
 42
0.00
  0
SEQEND
  0
POLYLINE
  8
SILK_TOP_ART
 66
1
 10
0.00
 20
0.00
 30
0.00
 40
0.20
 41
0.20
  0
VERTEX
  8
SILK_TOP_ART
 10
68.00
 20
44.00
 30
0.00
 42
1.00
  0
VERTEX
  8
SILK_TOP_ART
 10
69.00
 20
44.00
 30
0.00
 42
0.00
  0
SEQEND
  0
POLYLINE
  8
SILK_TOP_ART
 66
1
 10
0.00
 20
0.00
 30
0.00
 40
0.20
 41
0.20
  0
VERTEX
  8
SILK_TOP_ART
 10
67.00
 20
44.00
 30
0.00
 42
1.00
  0
VERTEX
  8
SILK_TOP_ART
 10
68.00
 20
44.00
 30
0.00
 42
0.00
  0
SEQEND
  0
POLYLINE
  8
SILK_TOP_ART
 66
1
 10
0.00
 20
0.00
 30
0.00
 40
0.30
 41
0.30
  0
VERTEX
  8
SILK_TOP_ART
 10
15.20
 20
18.00
 30
0.00
  0
VERTEX
  8
SILK_TOP_ART
 10
15.20
 20
16.00
 30
0.00
  0
VERTEX
  8
SILK_TOP_ART
 10
16.00
 20
16.00
 30
0.00
  0
SEQEND
  0
POLYLINE
  8
SILK_TOP_ART
 66
1
 10
0.00
 20
0.00
 30
0.00
 40
0.30
 41
0.30
  0
VERTEX
  8
SILK_TOP_ART
 10
17.40
 20
16.00
 30
0.00
  0
VERTEX
  8
SILK_TOP_ART
 10
16.60
 20
16.00
 30
0.00
  0
VERTEX
  8
SILK_TOP_ART
 10
16.60
 20
18.00
 30
0.00
  0
VERTEX
  8
SILK_TOP_ART
 10
17.40
 20
18.00
 30
0.00
  0
SEQEND
  0
POLYLINE
  8
SILK_TOP_ART
 66
1
 10
0.00
 20
0.00
 30
0.00
 40
0.30
 41
0.30
  0
VERTEX
  8
SILK_TOP_ART
 10
17.08
 20
17.0334
 30
0.00
  0
VERTEX
  8
SILK_TOP_ART
 10
16.60
 20
17.0334
 30
0.00
  0
SEQEND
  0
POLYLINE
  8
SILK_TOP_ART
 66
1
 10
0.00
 20
0.00
 30
0.00
 40
0.30
 41
0.30
  0
VERTEX
  8
SILK_TOP_ART
 10
18.02
 20
16.00
 30
0.00
  0
VERTEX
  8
SILK_TOP_ART
 10
18.02
 20
18.00
 30
0.00
  0
VERTEX
  8
SILK_TOP_ART
 10
18.78
 20
18.00
 30
0.00
  0
SEQEND
  0
POLYLINE
  8
SILK_TOP_ART
 66
1
 10
0.00
 20
0.00
 30
0.00
 40
0.30
 41
0.30
  0
VERTEX
  8
SILK_TOP_ART
 10
18.50
 20
17.0334
 30
0.00
  0
VERTEX
  8
SILK_TOP_ART
 10
18.02
 20
17.0334
 30
0.00
  0
SEQEND
  0
POLYLINE
  8
SILK_TOP_ART
 66
1
 10
0.00
 20
0.00
 30
0.00
 40
0.30
 41
0.30
  0
VERTEX
  8
SILK_TOP_ART
 10
19.80
 20
18.00
 30
0.00
  0
VERTEX
  8
SILK_TOP_ART
 10
19.80
 20
16.00
 30
0.00
  0
SEQEND
  0
POLYLINE
  8
SILK_TOP_ART
 66
1
 10
0.00
 20
0.00
 30
0.00
 40
0.30
 41
0.30
  0
VERTEX
  8
SILK_TOP_ART
 10
19.34
 20
18.00
 30
0.00
  0
VERTEX
  8
SILK_TOP_ART
 10
20.26
 20
18.00
 30
0.00
  0
SEQEND
  0
POLYLINE
  8
SILK_TOP_ART
 66
1
 10
0.00
 20
0.00
 30
0.00
 40
0.30
 41
0.30
  0
VERTEX
  8
SILK_TOP_ART
 10
13.70
 20
50.00
 30
0.00
  0
VERTEX
  8
SILK_TOP_ART
 10
13.70
 20
52.00
 30
0.00
  0
VERTEX
  8
SILK_TOP_ART
 10
14.20
 20
52.00
 30
0.00
  0
VERTEX
  8
SILK_TOP_ART
 10
14.36
 20
51.90
 30
0.00
  0
VERTEX
  8
SILK_TOP_ART
 10
14.46
 20
51.7667
 30
0.00
  0
VERTEX
  8
SILK_TOP_ART
 10
14.50
 20
51.50
 30
0.00
  0
VERTEX
  8
SILK_TOP_ART
 10
14.46
 20
51.2333
 30
0.00
  0
VERTEX
  8
SILK_TOP_ART
 10
14.34
 20
51.0667
 30
0.00
  0
VERTEX
  8
SILK_TOP_ART
 10
14.20
 20
50.9666
 30
0.00
  0
VERTEX
  8
SILK_TOP_ART
 10
13.70
 20
50.9666
 30
0.00
  0
SEQEND
  0
POLYLINE
  8
SILK_TOP_ART
 66
1
 10
0.00
 20
0.00
 30
0.00
 40
0.30
 41
0.30
  0
VERTEX
  8
SILK_TOP_ART
 10
14.20
 20
50.9666
 30
0.00
  0
VERTEX
  8
SILK_TOP_ART
 10
14.50
 20
50.00
 30
0.00
  0
SEQEND
  0
POLYLINE
  8
SILK_TOP_ART
 66
1
 10
0.00
 20
0.00
 30
0.00
 40
0.30
 41
0.30
  0
VERTEX
  8
SILK_TOP_ART
 10
15.26
 20
52.00
 30
0.00
  0
VERTEX
  8
SILK_TOP_ART
 10
15.74
 20
52.00
 30
0.00
  0
SEQEND
  0
POLYLINE
  8
SILK_TOP_ART
 66
1
 10
0.00
 20
0.00
 30
0.00
 40
0.30
 41
0.30
  0
VERTEX
  8
SILK_TOP_ART
 10
15.50
 20
52.00
 30
0.00
  0
VERTEX
  8
SILK_TOP_ART
 10
15.50
 20
50.00
 30
0.00
  0
SEQEND
  0
POLYLINE
  8
SILK_TOP_ART
 66
1
 10
0.00
 20
0.00
 30
0.00
 40
0.30
 41
0.30
  0
VERTEX
  8
SILK_TOP_ART
 10
15.26
 20
50.00
 30
0.00
  0
VERTEX
  8
SILK_TOP_ART
 10
15.74
 20
50.00
 30
0.00
  0
SEQEND
  0
POLYLINE
  8
SILK_TOP_ART
 66
1
 10
0.00
 20
0.00
 30
0.00
 40
0.30
 41
0.30
  0
VERTEX
  8
SILK_TOP_ART
 10
17.02
 20
51.00
 30
0.00
  0
VERTEX
  8
SILK_TOP_ART
 10
17.42
 20
51.00
 30
0.00
  0
VERTEX
  8
SILK_TOP_ART
 10
17.42
 20
50.40
 30
0.00
  0
VERTEX
  8
SILK_TOP_ART
 10
17.30
 20
50.20
 30
0.00
  0
VERTEX
  8
SILK_TOP_ART
 10
17.16
 20
50.0667
 30
0.00
  0
VERTEX
  8
SILK_TOP_ART
 10
16.96
 20
50.00
 30
0.00
  0
VERTEX
  8
SILK_TOP_ART
 10
16.76
 20
50.0667
 30
0.00
  0
VERTEX
  8
SILK_TOP_ART
 10
16.62
 20
50.20
 30
0.00
  0
VERTEX
  8
SILK_TOP_ART
 10
16.50
 20
50.40
 30
0.00
  0
VERTEX
  8
SILK_TOP_ART
 10
16.42
 20
50.6333
 30
0.00
  0
VERTEX
  8
SILK_TOP_ART
 10
16.38
 20
50.90
 30
0.00
  0
VERTEX
  8
SILK_TOP_ART
 10
16.38
 20
51.1333
 30
0.00
  0
VERTEX
  8
SILK_TOP_ART
 10
16.42
 20
51.3333
 30
0.00
  0
VERTEX
  8
SILK_TOP_ART
 10
16.50
 20
51.5667
 30
0.00
  0
VERTEX
  8
SILK_TOP_ART
 10
16.62
 20
51.7667
 30
0.00
  0
VERTEX
  8
SILK_TOP_ART
 10
16.74
 20
51.90
 30
0.00
  0
VERTEX
  8
SILK_TOP_ART
 10
16.90
 20
52.00
 30
0.00
  0
VERTEX
  8
SILK_TOP_ART
 10
17.04
 20
52.00
 30
0.00
  0
VERTEX
  8
SILK_TOP_ART
 10
17.20
 20
51.9333
 30
0.00
  0
VERTEX
  8
SILK_TOP_ART
 10
17.32
 20
51.80
 30
0.00
  0
SEQEND
  0
POLYLINE
  8
SILK_TOP_ART
 66
1
 10
0.00
 20
0.00
 30
0.00
 40
0.30
 41
0.30
  0
VERTEX
  8
SILK_TOP_ART
 10
17.88
 20
50.00
 30
0.00
  0
VERTEX
  8
SILK_TOP_ART
 10
17.88
 20
52.00
 30
0.00
  0
SEQEND
  0
POLYLINE
  8
SILK_TOP_ART
 66
1
 10
0.00
 20
0.00
 30
0.00
 40
0.30
 41
0.30
  0
VERTEX
  8
SILK_TOP_ART
 10
18.72
 20
52.00
 30
0.00
  0
VERTEX
  8
SILK_TOP_ART
 10
18.72
 20
50.00
 30
0.00
  0
SEQEND
  0
POLYLINE
  8
SILK_TOP_ART
 66
1
 10
0.00
 20
0.00
 30
0.00
 40
0.30
 41
0.30
  0
VERTEX
  8
SILK_TOP_ART
 10
18.72
 20
51.00
 30
0.00
  0
VERTEX
  8
SILK_TOP_ART
 10
17.88
 20
51.00
 30
0.00
  0
SEQEND
  0
POLYLINE
  8
SILK_TOP_ART
 66
1
 10
0.00
 20
0.00
 30
0.00
 40
0.30
 41
0.30
  0
VERTEX
  8
SILK_TOP_ART
 10
19.70
 20
52.00
 30
0.00
  0
VERTEX
  8
SILK_TOP_ART
 10
19.70
 20
50.00
 30
0.00
  0
SEQEND
  0
POLYLINE
  8
SILK_TOP_ART
 66
1
 10
0.00
 20
0.00
 30
0.00
 40
0.30
 41
0.30
  0
VERTEX
  8
SILK_TOP_ART
 10
19.24
 20
52.00
 30
0.00
  0
VERTEX
  8
SILK_TOP_ART
 10
20.16
 20
52.00
 30
0.00
  0
SEQEND
  0
POLYLINE
  8
SILK_TOP_ART
 66
1
 10
0.00
 20
0.00
 30
0.00
 40
0.30
 41
0.30
  0
VERTEX
  8
SILK_TOP_ART
 10
27.50
 20
16.10
 30
0.00
  0
VERTEX
  8
SILK_TOP_ART
 10
25.50
 20
16.60
 30
0.00
  0
VERTEX
  8
SILK_TOP_ART
 10
27.50
 20
17.10
 30
0.00
  0
SEQEND
  0
POLYLINE
  8
SILK_TOP_ART
 66
1
 10
0.00
 20
0.00
 30
0.00
 40
0.30
 41
0.30
  0
VERTEX
  8
SILK_TOP_ART
 10
26.80
 20
16.92
 30
0.00
  0
VERTEX
  8
SILK_TOP_ART
 10
26.80
 20
16.28
 30
0.00
  0
SEQEND
  0
POLYLINE
  8
SILK_TOP_ART
 66
1
 10
0.00
 20
0.00
 30
0.00
 40
0.30
 41
0.30
  0
VERTEX
  8
SILK_TOP_ART
 10
27.50
 20
17.48
 30
0.00
  0
VERTEX
  8
SILK_TOP_ART
 10
25.50
 20
17.48
 30
0.00
  0
VERTEX
  8
SILK_TOP_ART
 10
27.1667
 20
18.00
 30
0.00
  0
VERTEX
  8
SILK_TOP_ART
 10
25.50
 20
18.52
 30
0.00
  0
VERTEX
  8
SILK_TOP_ART
 10
27.50
 20
18.52
 30
0.00
  0
SEQEND
  0
POLYLINE
  8
SILK_TOP_ART
 66
1
 10
0.00
 20
0.00
 30
0.00
 40
0.30
 41
0.30
  0
VERTEX
  8
SILK_TOP_ART
 10
27.50
 20
19.00
 30
0.00
  0
VERTEX
  8
SILK_TOP_ART
 10
25.50
 20
19.00
 30
0.00
  0
VERTEX
  8
SILK_TOP_ART
 10
25.50
 20
19.48
 30
0.00
  0
VERTEX
  8
SILK_TOP_ART
 10
25.60
 20
19.64
 30
0.00
  0
VERTEX
  8
SILK_TOP_ART
 10
25.8333
 20
19.76
 30
0.00
  0
VERTEX
  8
SILK_TOP_ART
 10
26.10
 20
19.80
 30
0.00
  0
VERTEX
  8
SILK_TOP_ART
 10
26.3667
 20
19.76
 30
0.00
  0
VERTEX
  8
SILK_TOP_ART
 10
26.5667
 20
19.66
 30
0.00
  0
VERTEX
  8
SILK_TOP_ART
 10
26.6667
 20
19.48
 30
0.00
  0
VERTEX
  8
SILK_TOP_ART
 10
26.6667
 20
19.00
 30
0.00
  0
SEQEND
  0
POLYLINE
  8
SILK_TOP_ART
 66
1
 10
0.00
 20
0.00
 30
0.00
 40
0.30
 41
0.30
  0
VERTEX
  8
SILK_TOP_ART
 10
26.50
 20
22.32
 30
0.00
  0
VERTEX
  8
SILK_TOP_ART
 10
26.50
 20
22.72
 30
0.00
  0
VERTEX
  8
SILK_TOP_ART
 10
27.10
 20
22.72
 30
0.00
  0
VERTEX
  8
SILK_TOP_ART
 10
27.30
 20
22.60
 30
0.00
  0
VERTEX
  8
SILK_TOP_ART
 10
27.4333
 20
22.46
 30
0.00
  0
VERTEX
  8
SILK_TOP_ART
 10
27.50
 20
22.26
 30
0.00
  0
VERTEX
  8
SILK_TOP_ART
 10
27.4333
 20
22.06
 30
0.00
  0
VERTEX
  8
SILK_TOP_ART
 10
27.30
 20
21.92
 30
0.00
  0
VERTEX
  8
SILK_TOP_ART
 10
27.10
 20
21.80
 30
0.00
  0
VERTEX
  8
SILK_TOP_ART
 10
26.8667
 20
21.72
 30
0.00
  0
VERTEX
  8
SILK_TOP_ART
 10
26.60
 20
21.68
 30
0.00
  0
VERTEX
  8
SILK_TOP_ART
 10
26.3667
 20
21.68
 30
0.00
  0
VERTEX
  8
SILK_TOP_ART
 10
26.1667
 20
21.72
 30
0.00
  0
VERTEX
  8
SILK_TOP_ART
 10
25.9333
 20
21.80
 30
0.00
  0
VERTEX
  8
SILK_TOP_ART
 10
25.7333
 20
21.92
 30
0.00
  0
VERTEX
  8
SILK_TOP_ART
 10
25.60
 20
22.04
 30
0.00
  0
VERTEX
  8
SILK_TOP_ART
 10
25.50
 20
22.20
 30
0.00
  0
VERTEX
  8
SILK_TOP_ART
 10
25.50
 20
22.34
 30
0.00
  0
VERTEX
  8
SILK_TOP_ART
 10
25.5667
 20
22.50
 30
0.00
  0
VERTEX
  8
SILK_TOP_ART
 10
25.70
 20
22.62
 30
0.00
  0
SEQEND
  0
POLYLINE
  8
SILK_TOP_ART
 66
1
 10
0.00
 20
0.00
 30
0.00
 40
0.30
 41
0.30
  0
VERTEX
  8
SILK_TOP_ART
 10
27.50
 20
23.14
 30
0.00
  0
VERTEX
  8
SILK_TOP_ART
 10
25.50
 20
23.14
 30
0.00
  0
VERTEX
  8
SILK_TOP_ART
 10
27.50
 20
24.06
 30
0.00
  0
VERTEX
  8
SILK_TOP_ART
 10
25.50
 20
24.06
 30
0.00
  0
SEQEND
  0
POLYLINE
  8
SILK_TOP_ART
 66
1
 10
0.00
 20
0.00
 30
0.00
 40
0.30
 41
0.30
  0
VERTEX
  8
SILK_TOP_ART
 10
27.50
 20
24.56
 30
0.00
  0
VERTEX
  8
SILK_TOP_ART
 10
25.50
 20
24.56
 30
0.00
  0
VERTEX
  8
SILK_TOP_ART
 10
25.50
 20
24.96
 30
0.00
  0
VERTEX
  8
SILK_TOP_ART
 10
25.60
 20
25.12
 30
0.00
  0
VERTEX
  8
SILK_TOP_ART
 10
25.7333
 20
25.24
 30
0.00
  0
VERTEX
  8
SILK_TOP_ART
 10
25.9333
 20
25.34
 30
0.00
  0
VERTEX
  8
SILK_TOP_ART
 10
26.1667
 20
25.42
 30
0.00
  0
VERTEX
  8
SILK_TOP_ART
 10
26.50
 20
25.44
 30
0.00
  0
VERTEX
  8
SILK_TOP_ART
 10
26.8334
 20
25.42
 30
0.00
  0
VERTEX
  8
SILK_TOP_ART
 10
27.0667
 20
25.34
 30
0.00
  0
VERTEX
  8
SILK_TOP_ART
 10
27.2667
 20
25.24
 30
0.00
  0
VERTEX
  8
SILK_TOP_ART
 10
27.40
 20
25.12
 30
0.00
  0
VERTEX
  8
SILK_TOP_ART
 10
27.50
 20
24.96
 30
0.00
  0
VERTEX
  8
SILK_TOP_ART
 10
27.50
 20
24.56
 30
0.00
  0
SEQEND
  0
POLYLINE
  8
SILK_TOP_ART
 66
1
 10
0.00
 20
0.00
 30
0.00
 40
0.30
 41
0.30
  0
VERTEX
  8
SILK_TOP_ART
 10
41.00
 20
16.16
 30
0.00
  0
VERTEX
  8
SILK_TOP_ART
 10
39.00
 20
16.16
 30
0.00
  0
VERTEX
  8
SILK_TOP_ART
 10
39.00
 20
16.56
 30
0.00
  0
VERTEX
  8
SILK_TOP_ART
 10
39.10
 20
16.72
 30
0.00
  0
VERTEX
  8
SILK_TOP_ART
 10
39.2333
 20
16.84
 30
0.00
  0
VERTEX
  8
SILK_TOP_ART
 10
39.4333
 20
16.94
 30
0.00
  0
VERTEX
  8
SILK_TOP_ART
 10
39.6667
 20
17.02
 30
0.00
  0
VERTEX
  8
SILK_TOP_ART
 10
40.00
 20
17.04
 30
0.00
  0
VERTEX
  8
SILK_TOP_ART
 10
40.3334
 20
17.02
 30
0.00
  0
VERTEX
  8
SILK_TOP_ART
 10
40.5667
 20
16.94
 30
0.00
  0
VERTEX
  8
SILK_TOP_ART
 10
40.7667
 20
16.84
 30
0.00
  0
VERTEX
  8
SILK_TOP_ART
 10
40.90
 20
16.72
 30
0.00
  0
VERTEX
  8
SILK_TOP_ART
 10
41.00
 20
16.56
 30
0.00
  0
VERTEX
  8
SILK_TOP_ART
 10
41.00
 20
16.16
 30
0.00
  0
SEQEND
  0
POLYLINE
  8
SILK_TOP_ART
 66
1
 10
0.00
 20
0.00
 30
0.00
 40
0.30
 41
0.30
  0
VERTEX
  8
SILK_TOP_ART
 10
41.00
 20
17.50
 30
0.00
  0
VERTEX
  8
SILK_TOP_ART
 10
39.00
 20
18.00
 30
0.00
  0
VERTEX
  8
SILK_TOP_ART
 10
41.00
 20
18.50
 30
0.00
  0
SEQEND
  0
POLYLINE
  8
SILK_TOP_ART
 66
1
 10
0.00
 20
0.00
 30
0.00
 40
0.30
 41
0.30
  0
VERTEX
  8
SILK_TOP_ART
 10
40.30
 20
18.32
 30
0.00
  0
VERTEX
  8
SILK_TOP_ART
 10
40.30
 20
17.68
 30
0.00
  0
SEQEND
  0
POLYLINE
  8
SILK_TOP_ART
 66
1
 10
0.00
 20
0.00
 30
0.00
 40
0.30
 41
0.30
  0
VERTEX
  8
SILK_TOP_ART
 10
39.1667
 20
19.84
 30
0.00
  0
VERTEX
  8
SILK_TOP_ART
 10
39.0667
 20
19.72
 30
0.00
  0
VERTEX
  8
SILK_TOP_ART
 10
39.00
 20
19.58
 30
0.00
  0
VERTEX
  8
SILK_TOP_ART
 10
39.00
 20
19.42
 30
0.00
  0
VERTEX
  8
SILK_TOP_ART
 10
39.10
 20
19.24
 30
0.00
  0
VERTEX
  8
SILK_TOP_ART
 10
39.2667
 20
19.10
 30
0.00
  0
VERTEX
  8
SILK_TOP_ART
 10
39.4667
 20
19.00
 30
0.00
  0
VERTEX
  8
SILK_TOP_ART
 10
39.80
 20
18.92
 30
0.00
  0
VERTEX
  8
SILK_TOP_ART
 10
40.10
 20
18.90
 30
0.00
  0
VERTEX
  8
SILK_TOP_ART
 10
40.40
 20
18.94
 30
0.00
  0
VERTEX
  8
SILK_TOP_ART
 10
40.60
 20
19.00
 30
0.00
  0
VERTEX
  8
SILK_TOP_ART
 10
40.80
 20
19.12
 30
0.00
  0
VERTEX
  8
SILK_TOP_ART
 10
40.9333
 20
19.26
 30
0.00
  0
VERTEX
  8
SILK_TOP_ART
 10
41.00
 20
19.40
 30
0.00
  0
VERTEX
  8
SILK_TOP_ART
 10
41.00
 20
19.54
 30
0.00
  0
VERTEX
  8
SILK_TOP_ART
 10
40.9333
 20
19.68
 30
0.00
  0
VERTEX
  8
SILK_TOP_ART
 10
40.8334
 20
19.80
 30
0.00
  0
VERTEX
  8
SILK_TOP_ART
 10
40.7001
 20
19.90
 30
0.00
  0
SEQEND
  0
POLYLINE
  8
SILK_TOP_ART
 66
1
 10
0.00
 20
0.00
 30
0.00
 40
0.30
 41
0.30
  0
VERTEX
  8
SILK_TOP_ART
 10
40.00
 20
22.32
 30
0.00
  0
VERTEX
  8
SILK_TOP_ART
 10
40.00
 20
22.72
 30
0.00
  0
VERTEX
  8
SILK_TOP_ART
 10
40.60
 20
22.72
 30
0.00
  0
VERTEX
  8
SILK_TOP_ART
 10
40.80
 20
22.60
 30
0.00
  0
VERTEX
  8
SILK_TOP_ART
 10
40.9333
 20
22.46
 30
0.00
  0
VERTEX
  8
SILK_TOP_ART
 10
41.00
 20
22.26
 30
0.00
  0
VERTEX
  8
SILK_TOP_ART
 10
40.9333
 20
22.06
 30
0.00
  0
VERTEX
  8
SILK_TOP_ART
 10
40.80
 20
21.92
 30
0.00
  0
VERTEX
  8
SILK_TOP_ART
 10
40.60
 20
21.80
 30
0.00
  0
VERTEX
  8
SILK_TOP_ART
 10
40.3667
 20
21.72
 30
0.00
  0
VERTEX
  8
SILK_TOP_ART
 10
40.10
 20
21.68
 30
0.00
  0
VERTEX
  8
SILK_TOP_ART
 10
39.8667
 20
21.68
 30
0.00
  0
VERTEX
  8
SILK_TOP_ART
 10
39.6667
 20
21.72
 30
0.00
  0
VERTEX
  8
SILK_TOP_ART
 10
39.4333
 20
21.80
 30
0.00
  0
VERTEX
  8
SILK_TOP_ART
 10
39.2333
 20
21.92
 30
0.00
  0
VERTEX
  8
SILK_TOP_ART
 10
39.10
 20
22.04
 30
0.00
  0
VERTEX
  8
SILK_TOP_ART
 10
39.00
 20
22.20
 30
0.00
  0
VERTEX
  8
SILK_TOP_ART
 10
39.00
 20
22.34
 30
0.00
  0
VERTEX
  8
SILK_TOP_ART
 10
39.0667
 20
22.50
 30
0.00
  0
VERTEX
  8
SILK_TOP_ART
 10
39.20
 20
22.62
 30
0.00
  0
SEQEND
  0
POLYLINE
  8
SILK_TOP_ART
 66
1
 10
0.00
 20
0.00
 30
0.00
 40
0.30
 41
0.30
  0
VERTEX
  8
SILK_TOP_ART
 10
41.00
 20
23.14
 30
0.00
  0
VERTEX
  8
SILK_TOP_ART
 10
39.00
 20
23.14
 30
0.00
  0
VERTEX
  8
SILK_TOP_ART
 10
41.00
 20
24.06
 30
0.00
  0
VERTEX
  8
SILK_TOP_ART
 10
39.00
 20
24.06
 30
0.00
  0
SEQEND
  0
POLYLINE
  8
SILK_TOP_ART
 66
1
 10
0.00
 20
0.00
 30
0.00
 40
0.30
 41
0.30
  0
VERTEX
  8
SILK_TOP_ART
 10
41.00
 20
24.56
 30
0.00
  0
VERTEX
  8
SILK_TOP_ART
 10
39.00
 20
24.56
 30
0.00
  0
VERTEX
  8
SILK_TOP_ART
 10
39.00
 20
24.96
 30
0.00
  0
VERTEX
  8
SILK_TOP_ART
 10
39.10
 20
25.12
 30
0.00
  0
VERTEX
  8
SILK_TOP_ART
 10
39.2333
 20
25.24
 30
0.00
  0
VERTEX
  8
SILK_TOP_ART
 10
39.4333
 20
25.34
 30
0.00
  0
VERTEX
  8
SILK_TOP_ART
 10
39.6667
 20
25.42
 30
0.00
  0
VERTEX
  8
SILK_TOP_ART
 10
40.00
 20
25.44
 30
0.00
  0
VERTEX
  8
SILK_TOP_ART
 10
40.3334
 20
25.42
 30
0.00
  0
VERTEX
  8
SILK_TOP_ART
 10
40.5667
 20
25.34
 30
0.00
  0
VERTEX
  8
SILK_TOP_ART
 10
40.7667
 20
25.24
 30
0.00
  0
VERTEX
  8
SILK_TOP_ART
 10
40.90
 20
25.12
 30
0.00
  0
VERTEX
  8
SILK_TOP_ART
 10
41.00
 20
24.96
 30
0.00
  0
VERTEX
  8
SILK_TOP_ART
 10
41.00
 20
24.56
 30
0.00
  0
SEQEND
  0
POLYLINE
  8
SILK_TOP_ART
 66
1
 10
0.00
 20
0.00
 30
0.00
 40
0.30
 41
0.30
  0
VERTEX
  8
SILK_TOP_ART
 10
65.10
 20
13.50
 30
0.00
  0
VERTEX
  8
SILK_TOP_ART
 10
65.10
 20
11.50
 30
0.00
  0
SEQEND
  0
POLYLINE
  8
SILK_TOP_ART
 66
1
 10
0.00
 20
0.00
 30
0.00
 40
0.30
 41
0.30
  0
VERTEX
  8
SILK_TOP_ART
 10
64.64
 20
13.50
 30
0.00
  0
VERTEX
  8
SILK_TOP_ART
 10
65.56
 20
13.50
 30
0.00
  0
SEQEND
  0
POLYLINE
  8
SILK_TOP_ART
 66
1
 10
0.00
 20
0.00
 30
0.00
 40
0.30
 41
0.30
  0
VERTEX
  8
SILK_TOP_ART
 10
66.22
 20
11.50
 30
0.00
  0
VERTEX
  8
SILK_TOP_ART
 10
66.22
 20
12.8333
 30
0.00
  0
SEQEND
  0
POLYLINE
  8
SILK_TOP_ART
 66
1
 10
0.00
 20
0.00
 30
0.00
 40
0.30
 41
0.30
  0
VERTEX
  8
SILK_TOP_ART
 10
66.22
 20
12.5667
 30
0.00
  0
VERTEX
  8
SILK_TOP_ART
 10
66.32
 20
12.70
 30
0.00
  0
VERTEX
  8
SILK_TOP_ART
 10
66.42
 20
12.80
 30
0.00
  0
VERTEX
  8
SILK_TOP_ART
 10
66.56
 20
12.8333
 30
0.00
  0
VERTEX
  8
SILK_TOP_ART
 10
66.66
 20
12.80
 30
0.00
  0
VERTEX
  8
SILK_TOP_ART
 10
66.78
 20
12.70
 30
0.00
  0
SEQEND
  0
POLYLINE
  8
SILK_TOP_ART
 66
1
 10
0.00
 20
0.00
 30
0.00
 40
0.30
 41
0.30
  0
VERTEX
  8
SILK_TOP_ART
 10
68.26
 20
11.50
 30
0.00
  0
VERTEX
  8
SILK_TOP_ART
 10
68.26
 20
12.8333
 30
0.00
  0
SEQEND
  0
POLYLINE
  8
SILK_TOP_ART
 66
1
 10
0.00
 20
0.00
 30
0.00
 40
0.30
 41
0.30
  0
VERTEX
  8
SILK_TOP_ART
 10
68.26
 20
12.60
 30
0.00
  0
VERTEX
  8
SILK_TOP_ART
 10
68.18
 20
12.7333
 30
0.00
  0
VERTEX
  8
SILK_TOP_ART
 10
68.06
 20
12.80
 30
0.00
  0
VERTEX
  8
SILK_TOP_ART
 10
67.92
 20
12.8333
 30
0.00
  0
VERTEX
  8
SILK_TOP_ART
 10
67.78
 20
12.7666
 30
0.00
  0
VERTEX
  8
SILK_TOP_ART
 10
67.66
 20
12.6333
 30
0.00
  0
VERTEX
  8
SILK_TOP_ART
 10
67.58
 20
12.4333
 30
0.00
  0
VERTEX
  8
SILK_TOP_ART
 10
67.54
 20
12.1666
 30
0.00
  0
VERTEX
  8
SILK_TOP_ART
 10
67.58
 20
11.90
 30
0.00
  0
VERTEX
  8
SILK_TOP_ART
 10
67.66
 20
11.70
 30
0.00
  0
VERTEX
  8
SILK_TOP_ART
 10
67.78
 20
11.5667
 30
0.00
  0
VERTEX
  8
SILK_TOP_ART
 10
67.92
 20
11.50
 30
0.00
  0
VERTEX
  8
SILK_TOP_ART
 10
68.06
 20
11.5333
 30
0.00
  0
VERTEX
  8
SILK_TOP_ART
 10
68.18
 20
11.6333
 30
0.00
  0
VERTEX
  8
SILK_TOP_ART
 10
68.26
 20
11.7666
 30
0.00
  0
SEQEND
  0
POLYLINE
  8
SILK_TOP_ART
 66
1
 10
0.00
 20
0.00
 30
0.00
 40
0.30
 41
0.30
  0
VERTEX
  8
SILK_TOP_ART
 10
68.96
 20
11.50
 30
0.00
  0
VERTEX
  8
SILK_TOP_ART
 10
68.96
 20
12.8333
 30
0.00
  0
SEQEND
  0
POLYLINE
  8
SILK_TOP_ART
 66
1
 10
0.00
 20
0.00
 30
0.00
 40
0.30
 41
0.30
  0
VERTEX
  8
SILK_TOP_ART
 10
68.96
 20
12.50
 30
0.00
  0
VERTEX
  8
SILK_TOP_ART
 10
69.04
 20
12.6667
 30
0.00
  0
VERTEX
  8
SILK_TOP_ART
 10
69.16
 20
12.80
 30
0.00
  0
VERTEX
  8
SILK_TOP_ART
 10
69.32
 20
12.8333
 30
0.00
  0
VERTEX
  8
SILK_TOP_ART
 10
69.46
 20
12.80
 30
0.00
  0
VERTEX
  8
SILK_TOP_ART
 10
69.58
 20
12.6667
 30
0.00
  0
VERTEX
  8
SILK_TOP_ART
 10
69.64
 20
12.4333
 30
0.00
  0
VERTEX
  8
SILK_TOP_ART
 10
69.64
 20
11.50
 30
0.00
  0
SEQEND
  0
POLYLINE
  8
SILK_TOP_ART
 66
1
 10
0.00
 20
0.00
 30
0.00
 40
0.30
 41
0.30
  0
VERTEX
  8
SILK_TOP_ART
 10
70.40
 20
11.7333
 30
0.00
  0
VERTEX
  8
SILK_TOP_ART
 10
70.50
 20
11.60
 30
0.00
  0
VERTEX
  8
SILK_TOP_ART
 10
70.64
 20
11.50
 30
0.00
  0
VERTEX
  8
SILK_TOP_ART
 10
70.76
 20
11.50
 30
0.00
  0
VERTEX
  8
SILK_TOP_ART
 10
70.88
 20
11.5667
 30
0.00
  0
VERTEX
  8
SILK_TOP_ART
 10
70.96
 20
11.6666
 30
0.00
  0
VERTEX
  8
SILK_TOP_ART
 10
71.00
 20
11.7999
 30
0.00
  0
VERTEX
  8
SILK_TOP_ART
 10
70.98
 20
12.00
 30
0.00
  0
VERTEX
  8
SILK_TOP_ART
 10
70.90
 20
12.10
 30
0.00
  0
VERTEX
  8
SILK_TOP_ART
 10
70.54
 20
12.30
 30
0.00
  0
VERTEX
  8
SILK_TOP_ART
 10
70.46
 20
12.5334
 30
0.00
  0
VERTEX
  8
SILK_TOP_ART
 10
70.50
 20
12.70
 30
0.00
  0
VERTEX
  8
SILK_TOP_ART
 10
70.58
 20
12.80
 30
0.00
  0
VERTEX
  8
SILK_TOP_ART
 10
70.70
 20
12.8333
 30
0.00
  0
VERTEX
  8
SILK_TOP_ART
 10
70.82
 20
12.80
 30
0.00
  0
VERTEX
  8
SILK_TOP_ART
 10
70.94
 20
12.70
 30
0.00
  0
SEQEND
  0
POLYLINE
  8
SILK_TOP_ART
 66
1
 10
0.00
 20
0.00
 30
0.00
 40
0.30
 41
0.30
  0
VERTEX
  8
SILK_TOP_ART
 10
71.98
 20
11.50
 30
0.00
  0
VERTEX
  8
SILK_TOP_ART
 10
71.98
 20
13.20
 30
0.00
  0
VERTEX
  8
SILK_TOP_ART
 10
72.02
 20
13.3666
 30
0.00
  0
VERTEX
  8
SILK_TOP_ART
 10
72.10
 20
13.4667
 30
0.00
  0
VERTEX
  8
SILK_TOP_ART
 10
72.22
 20
13.50
 30
0.00
  0
VERTEX
  8
SILK_TOP_ART
 10
72.34
 20
13.4333
 30
0.00
  0
VERTEX
  8
SILK_TOP_ART
 10
72.40
 20
13.2667
 30
0.00
  0
SEQEND
  0
POLYLINE
  8
SILK_TOP_ART
 66
1
 10
0.00
 20
0.00
 30
0.00
 40
0.30
 41
0.30
  0
VERTEX
  8
SILK_TOP_ART
 10
72.16
 20
12.70
 30
0.00
  0
VERTEX
  8
SILK_TOP_ART
 10
71.76
 20
12.70
 30
0.00
  0
SEQEND
  0
POLYLINE
  8
SILK_TOP_ART
 66
1
 10
0.00
 20
0.00
 30
0.00
 40
0.30
 41
0.30
  0
VERTEX
  8
SILK_TOP_ART
 10
73.50
 20
11.50
 30
0.00
  0
VERTEX
  8
SILK_TOP_ART
 10
73.38
 20
11.5333
 30
0.00
  0
VERTEX
  8
SILK_TOP_ART
 10
73.26
 20
11.6666
 30
0.00
  0
VERTEX
  8
SILK_TOP_ART
 10
73.18
 20
11.90
 30
0.00
  0
VERTEX
  8
SILK_TOP_ART
 10
73.14
 20
12.1666
 30
0.00
  0
VERTEX
  8
SILK_TOP_ART
 10
73.18
 20
12.4333
 30
0.00
  0
VERTEX
  8
SILK_TOP_ART
 10
73.26
 20
12.6667
 30
0.00
  0
VERTEX
  8
SILK_TOP_ART
 10
73.38
 20
12.80
 30
0.00
  0
VERTEX
  8
SILK_TOP_ART
 10
73.50
 20
12.8333
 30
0.00
  0
VERTEX
  8
SILK_TOP_ART
 10
73.62
 20
12.80
 30
0.00
  0
VERTEX
  8
SILK_TOP_ART
 10
73.74
 20
12.6667
 30
0.00
  0
VERTEX
  8
SILK_TOP_ART
 10
73.82
 20
12.4333
 30
0.00
  0
VERTEX
  8
SILK_TOP_ART
 10
73.84
 20
12.1666
 30
0.00
  0
VERTEX
  8
SILK_TOP_ART
 10
73.82
 20
11.90
 30
0.00
  0
VERTEX
  8
SILK_TOP_ART
 10
73.74
 20
11.6666
 30
0.00
  0
VERTEX
  8
SILK_TOP_ART
 10
73.62
 20
11.5333
 30
0.00
  0
VERTEX
  8
SILK_TOP_ART
 10
73.50
 20
11.50
 30
0.00
  0
SEQEND
  0
POLYLINE
  8
SILK_TOP_ART
 66
1
 10
0.00
 20
0.00
 30
0.00
 40
0.30
 41
0.30
  0
VERTEX
  8
SILK_TOP_ART
 10
74.62
 20
11.50
 30
0.00
  0
VERTEX
  8
SILK_TOP_ART
 10
74.62
 20
12.8333
 30
0.00
  0
SEQEND
  0
POLYLINE
  8
SILK_TOP_ART
 66
1
 10
0.00
 20
0.00
 30
0.00
 40
0.30
 41
0.30
  0
VERTEX
  8
SILK_TOP_ART
 10
74.62
 20
12.5667
 30
0.00
  0
VERTEX
  8
SILK_TOP_ART
 10
74.72
 20
12.70
 30
0.00
  0
VERTEX
  8
SILK_TOP_ART
 10
74.82
 20
12.80
 30
0.00
  0
VERTEX
  8
SILK_TOP_ART
 10
74.96
 20
12.8333
 30
0.00
  0
VERTEX
  8
SILK_TOP_ART
 10
75.06
 20
12.80
 30
0.00
  0
VERTEX
  8
SILK_TOP_ART
 10
75.18
 20
12.70
 30
0.00
  0
SEQEND
  0
POLYLINE
  8
SILK_TOP_ART
 66
1
 10
0.00
 20
0.00
 30
0.00
 40
0.30
 41
0.30
  0
VERTEX
  8
SILK_TOP_ART
 10
75.70
 20
11.50
 30
0.00
  0
VERTEX
  8
SILK_TOP_ART
 10
75.70
 20
12.8333
 30
0.00
  0
SEQEND
  0
POLYLINE
  8
SILK_TOP_ART
 66
1
 10
0.00
 20
0.00
 30
0.00
 40
0.30
 41
0.30
  0
VERTEX
  8
SILK_TOP_ART
 10
75.70
 20
12.4666
 30
0.00
  0
VERTEX
  8
SILK_TOP_ART
 10
75.76
 20
12.6333
 30
0.00
  0
VERTEX
  8
SILK_TOP_ART
 10
75.86
 20
12.7666
 30
0.00
  0
VERTEX
  8
SILK_TOP_ART
 10
76.00
 20
12.8333
 30
0.00
  0
VERTEX
  8
SILK_TOP_ART
 10
76.14
 20
12.7666
 30
0.00
  0
VERTEX
  8
SILK_TOP_ART
 10
76.24
 20
12.6333
 30
0.00
  0
VERTEX
  8
SILK_TOP_ART
 10
76.30
 20
12.4666
 30
0.00
  0
VERTEX
  8
SILK_TOP_ART
 10
76.30
 20
11.50
 30
0.00
  0
SEQEND
  0
POLYLINE
  8
SILK_TOP_ART
 66
1
 10
0.00
 20
0.00
 30
0.00
 40
0.30
 41
0.30
  0
VERTEX
  8
SILK_TOP_ART
 10
76.30
 20
12.4666
 30
0.00
  0
VERTEX
  8
SILK_TOP_ART
 10
76.36
 20
12.6333
 30
0.00
  0
VERTEX
  8
SILK_TOP_ART
 10
76.46
 20
12.7666
 30
0.00
  0
VERTEX
  8
SILK_TOP_ART
 10
76.60
 20
12.8333
 30
0.00
  0
VERTEX
  8
SILK_TOP_ART
 10
76.74
 20
12.7666
 30
0.00
  0
VERTEX
  8
SILK_TOP_ART
 10
76.84
 20
12.6333
 30
0.00
  0
VERTEX
  8
SILK_TOP_ART
 10
76.90
 20
12.4333
 30
0.00
  0
VERTEX
  8
SILK_TOP_ART
 10
76.90
 20
11.50
 30
0.00
  0
SEQEND
  0
POLYLINE
  8
SILK_TOP_ART
 66
1
 10
0.00
 20
0.00
 30
0.00
 40
0.30
 41
0.30
  0
VERTEX
  8
SILK_TOP_ART
 10
77.40
 20
12.40
 30
0.00
  0
VERTEX
  8
SILK_TOP_ART
 10
78.04
 20
12.40
 30
0.00
  0
VERTEX
  8
SILK_TOP_ART
 10
77.98
 20
12.6333
 30
0.00
  0
VERTEX
  8
SILK_TOP_ART
 10
77.88
 20
12.7666
 30
0.00
  0
VERTEX
  8
SILK_TOP_ART
 10
77.74
 20
12.8333
 30
0.00
  0
VERTEX
  8
SILK_TOP_ART
 10
77.60
 20
12.80
 30
0.00
  0
VERTEX
  8
SILK_TOP_ART
 10
77.48
 20
12.70
 30
0.00
  0
VERTEX
  8
SILK_TOP_ART
 10
77.40
 20
12.4666
 30
0.00
  0
VERTEX
  8
SILK_TOP_ART
 10
77.36
 20
12.2666
 30
0.00
  0
VERTEX
  8
SILK_TOP_ART
 10
77.36
 20
12.0667
 30
0.00
  0
VERTEX
  8
SILK_TOP_ART
 10
77.40
 20
11.8666
 30
0.00
  0
VERTEX
  8
SILK_TOP_ART
 10
77.50
 20
11.6666
 30
0.00
  0
VERTEX
  8
SILK_TOP_ART
 10
77.62
 20
11.5333
 30
0.00
  0
VERTEX
  8
SILK_TOP_ART
 10
77.76
 20
11.50
 30
0.00
  0
VERTEX
  8
SILK_TOP_ART
 10
77.90
 20
11.5667
 30
0.00
  0
VERTEX
  8
SILK_TOP_ART
 10
78.04
 20
11.7666
 30
0.00
  0
SEQEND
  0
POLYLINE
  8
SILK_TOP_ART
 66
1
 10
0.00
 20
0.00
 30
0.00
 40
0.30
 41
0.30
  0
VERTEX
  8
SILK_TOP_ART
 10
78.82
 20
11.50
 30
0.00
  0
VERTEX
  8
SILK_TOP_ART
 10
78.82
 20
12.8333
 30
0.00
  0
SEQEND
  0
POLYLINE
  8
SILK_TOP_ART
 66
1
 10
0.00
 20
0.00
 30
0.00
 40
0.30
 41
0.30
  0
VERTEX
  8
SILK_TOP_ART
 10
78.82
 20
12.5667
 30
0.00
  0
VERTEX
  8
SILK_TOP_ART
 10
78.92
 20
12.70
 30
0.00
  0
VERTEX
  8
SILK_TOP_ART
 10
79.02
 20
12.80
 30
0.00
  0
VERTEX
  8
SILK_TOP_ART
 10
79.16
 20
12.8333
 30
0.00
  0
VERTEX
  8
SILK_TOP_ART
 10
79.26
 20
12.80
 30
0.00
  0
VERTEX
  8
SILK_TOP_ART
 10
79.38
 20
12.70
 30
0.00
  0
SEQEND
  0
POLYLINE
  8
SILK_TOP_ART
 66
1
 10
0.00
 20
0.00
 30
0.00
 40
0.30
 41
0.30
  0
VERTEX
  8
SILK_TOP_ART
 10
80.26
 20
13.50
 30
0.00
  0
VERTEX
  8
SILK_TOP_ART
 10
80.74
 20
13.50
 30
0.00
  0
SEQEND
  0
POLYLINE
  8
SILK_TOP_ART
 66
1
 10
0.00
 20
0.00
 30
0.00
 40
0.30
 41
0.30
  0
VERTEX
  8
SILK_TOP_ART
 10
80.50
 20
13.50
 30
0.00
  0
VERTEX
  8
SILK_TOP_ART
 10
80.50
 20
11.50
 30
0.00
  0
SEQEND
  0
POLYLINE
  8
SILK_TOP_ART
 66
1
 10
0.00
 20
0.00
 30
0.00
 40
0.30
 41
0.30
  0
VERTEX
  8
SILK_TOP_ART
 10
80.26
 20
11.50
 30
0.00
  0
VERTEX
  8
SILK_TOP_ART
 10
80.74
 20
11.50
 30
0.00
  0
SEQEND
  0
POLYLINE
  8
SILK_TOP_ART
 66
1
 10
0.00
 20
0.00
 30
0.00
 40
0.30
 41
0.30
  0
VERTEX
  8
SILK_TOP_ART
 10
81.40
 20
13.50
 30
0.00
  0
VERTEX
  8
SILK_TOP_ART
 10
81.90
 20
11.50
 30
0.00
  0
VERTEX
  8
SILK_TOP_ART
 10
82.40
 20
13.50
 30
0.00
  0
SEQEND
  0
POLYLINE
  8
SILK_TOP_ART
 66
1
 10
0.00
 20
0.00
 30
0.00
 40
0.30
 41
0.30
  0
VERTEX
  8
SILK_TOP_ART
 10
82.1667
 20
30.10
 30
0.00
  0
VERTEX
  8
SILK_TOP_ART
 10
83.50
 20
30.10
 30
0.00
  0
SEQEND
  0
POLYLINE
  8
SILK_TOP_ART
 66
1
 10
0.00
 20
0.00
 30
0.00
 40
0.30
 41
0.30
  0
VERTEX
  8
SILK_TOP_ART
 10
81.6334
 20
30.10
 30
0.00
  0
VERTEX
  8
SILK_TOP_ART
 10
81.60
 20
30.06
 30
0.00
  0
VERTEX
  8
SILK_TOP_ART
 10
81.5333
 20
30.06
 30
0.00
  0
VERTEX
  8
SILK_TOP_ART
 10
81.50
 20
30.10
 30
0.00
  0
VERTEX
  8
SILK_TOP_ART
 10
81.5333
 20
30.14
 30
0.00
  0
VERTEX
  8
SILK_TOP_ART
 10
81.60
 20
30.14
 30
0.00
  0
VERTEX
  8
SILK_TOP_ART
 10
81.6334
 20
30.10
 30
0.00
  0
SEQEND
  0
POLYLINE
  8
SILK_TOP_ART
 66
1
 10
0.00
 20
0.00
 30
0.00
 40
0.30
 41
0.30
  0
VERTEX
  8
SILK_TOP_ART
 10
83.50
 20
31.86
 30
0.00
  0
VERTEX
  8
SILK_TOP_ART
 10
82.1667
 20
31.86
 30
0.00
  0
SEQEND
  0
POLYLINE
  8
SILK_TOP_ART
 66
1
 10
0.00
 20
0.00
 30
0.00
 40
0.30
 41
0.30
  0
VERTEX
  8
SILK_TOP_ART
 10
82.40
 20
31.86
 30
0.00
  0
VERTEX
  8
SILK_TOP_ART
 10
82.2667
 20
31.78
 30
0.00
  0
VERTEX
  8
SILK_TOP_ART
 10
82.20
 20
31.66
 30
0.00
  0
VERTEX
  8
SILK_TOP_ART
 10
82.1667
 20
31.52
 30
0.00
  0
VERTEX
  8
SILK_TOP_ART
 10
82.2334
 20
31.38
 30
0.00
  0
VERTEX
  8
SILK_TOP_ART
 10
82.3667
 20
31.26
 30
0.00
  0
VERTEX
  8
SILK_TOP_ART
 10
82.5667
 20
31.18
 30
0.00
  0
VERTEX
  8
SILK_TOP_ART
 10
82.8334
 20
31.14
 30
0.00
  0
VERTEX
  8
SILK_TOP_ART
 10
83.10
 20
31.18
 30
0.00
  0
VERTEX
  8
SILK_TOP_ART
 10
83.30
 20
31.26
 30
0.00
  0
VERTEX
  8
SILK_TOP_ART
 10
83.4333
 20
31.38
 30
0.00
  0
VERTEX
  8
SILK_TOP_ART
 10
83.50
 20
31.52
 30
0.00
  0
VERTEX
  8
SILK_TOP_ART
 10
83.4667
 20
31.66
 30
0.00
  0
VERTEX
  8
SILK_TOP_ART
 10
83.3667
 20
31.78
 30
0.00
  0
VERTEX
  8
SILK_TOP_ART
 10
83.2334
 20
31.86
 30
0.00
  0
SEQEND
  0
POLYLINE
  8
SILK_TOP_ART
 66
1
 10
0.00
 20
0.00
 30
0.00
 40
0.30
 41
0.30
  0
VERTEX
  8
SILK_TOP_ART
 10
83.50
 20
32.56
 30
0.00
  0
VERTEX
  8
SILK_TOP_ART
 10
82.1667
 20
32.56
 30
0.00
  0
SEQEND
  0
POLYLINE
  8
SILK_TOP_ART
 66
1
 10
0.00
 20
0.00
 30
0.00
 40
0.30
 41
0.30
  0
VERTEX
  8
SILK_TOP_ART
 10
82.50
 20
32.56
 30
0.00
  0
VERTEX
  8
SILK_TOP_ART
 10
82.3333
 20
32.64
 30
0.00
  0
VERTEX
  8
SILK_TOP_ART
 10
82.20
 20
32.76
 30
0.00
  0
VERTEX
  8
SILK_TOP_ART
 10
82.1667
 20
32.92
 30
0.00
  0
VERTEX
  8
SILK_TOP_ART
 10
82.20
 20
33.06
 30
0.00
  0
VERTEX
  8
SILK_TOP_ART
 10
82.3333
 20
33.18
 30
0.00
  0
VERTEX
  8
SILK_TOP_ART
 10
82.5667
 20
33.24
 30
0.00
  0
VERTEX
  8
SILK_TOP_ART
 10
83.50
 20
33.24
 30
0.00
  0
SEQEND
  0
POLYLINE
  8
SILK_TOP_ART
 66
1
 10
0.00
 20
0.00
 30
0.00
 40
0.30
 41
0.30
  0
VERTEX
  8
SILK_TOP_ART
 10
82.3333
 20
34.62
 30
0.00
  0
VERTEX
  8
SILK_TOP_ART
 10
82.20
 20
34.48
 30
0.00
  0
VERTEX
  8
SILK_TOP_ART
 10
82.1667
 20
34.36
 30
0.00
  0
VERTEX
  8
SILK_TOP_ART
 10
82.2334
 20
34.20
 30
0.00
  0
VERTEX
  8
SILK_TOP_ART
 10
82.3667
 20
34.08
 30
0.00
  0
VERTEX
  8
SILK_TOP_ART
 10
82.60
 20
34.00
 30
0.00
  0
VERTEX
  8
SILK_TOP_ART
 10
82.8334
 20
33.98
 30
0.00
  0
VERTEX
  8
SILK_TOP_ART
 10
83.0667
 20
34.00
 30
0.00
  0
VERTEX
  8
SILK_TOP_ART
 10
83.2667
 20
34.08
 30
0.00
  0
VERTEX
  8
SILK_TOP_ART
 10
83.4333
 20
34.20
 30
0.00
  0
VERTEX
  8
SILK_TOP_ART
 10
83.50
 20
34.36
 30
0.00
  0
VERTEX
  8
SILK_TOP_ART
 10
83.4333
 20
34.50
 30
0.00
  0
VERTEX
  8
SILK_TOP_ART
 10
83.30
 20
34.62
 30
0.00
  0
SEQEND
  0
POLYLINE
  8
SILK_TOP_ART
 66
1
 10
0.00
 20
0.00
 30
0.00
 40
0.30
 41
0.30
  0
VERTEX
  8
SILK_TOP_ART
 10
83.50
 20
36.06
 30
0.00
  0
VERTEX
  8
SILK_TOP_ART
 10
82.1667
 20
36.06
 30
0.00
  0
SEQEND
  0
POLYLINE
  8
SILK_TOP_ART
 66
1
 10
0.00
 20
0.00
 30
0.00
 40
0.30
 41
0.30
  0
VERTEX
  8
SILK_TOP_ART
 10
82.40
 20
36.06
 30
0.00
  0
VERTEX
  8
SILK_TOP_ART
 10
82.2667
 20
35.98
 30
0.00
  0
VERTEX
  8
SILK_TOP_ART
 10
82.20
 20
35.86
 30
0.00
  0
VERTEX
  8
SILK_TOP_ART
 10
82.1667
 20
35.72
 30
0.00
  0
VERTEX
  8
SILK_TOP_ART
 10
82.2334
 20
35.58
 30
0.00
  0
VERTEX
  8
SILK_TOP_ART
 10
82.3667
 20
35.46
 30
0.00
  0
VERTEX
  8
SILK_TOP_ART
 10
82.5667
 20
35.38
 30
0.00
  0
VERTEX
  8
SILK_TOP_ART
 10
82.8334
 20
35.34
 30
0.00
  0
VERTEX
  8
SILK_TOP_ART
 10
83.10
 20
35.38
 30
0.00
  0
VERTEX
  8
SILK_TOP_ART
 10
83.30
 20
35.46
 30
0.00
  0
VERTEX
  8
SILK_TOP_ART
 10
83.4333
 20
35.58
 30
0.00
  0
VERTEX
  8
SILK_TOP_ART
 10
83.50
 20
35.72
 30
0.00
  0
VERTEX
  8
SILK_TOP_ART
 10
83.4667
 20
35.86
 30
0.00
  0
VERTEX
  8
SILK_TOP_ART
 10
83.3667
 20
35.98
 30
0.00
  0
VERTEX
  8
SILK_TOP_ART
 10
83.2334
 20
36.06
 30
0.00
  0
SEQEND
  0
POLYLINE
  8
SILK_TOP_ART
 66
1
 10
0.00
 20
0.00
 30
0.00
 40
0.30
 41
0.30
  0
VERTEX
  8
SILK_TOP_ART
 10
83.50
 20
36.76
 30
0.00
  0
VERTEX
  8
SILK_TOP_ART
 10
82.1667
 20
36.76
 30
0.00
  0
SEQEND
  0
POLYLINE
  8
SILK_TOP_ART
 66
1
 10
0.00
 20
0.00
 30
0.00
 40
0.30
 41
0.30
  0
VERTEX
  8
SILK_TOP_ART
 10
82.50
 20
36.76
 30
0.00
  0
VERTEX
  8
SILK_TOP_ART
 10
82.3333
 20
36.84
 30
0.00
  0
VERTEX
  8
SILK_TOP_ART
 10
82.20
 20
36.96
 30
0.00
  0
VERTEX
  8
SILK_TOP_ART
 10
82.1667
 20
37.12
 30
0.00
  0
VERTEX
  8
SILK_TOP_ART
 10
82.20
 20
37.26
 30
0.00
  0
VERTEX
  8
SILK_TOP_ART
 10
82.3333
 20
37.38
 30
0.00
  0
VERTEX
  8
SILK_TOP_ART
 10
82.5667
 20
37.44
 30
0.00
  0
VERTEX
  8
SILK_TOP_ART
 10
83.50
 20
37.44
 30
0.00
  0
SEQEND
  0
POLYLINE
  8
SILK_TOP_ART
 66
1
 10
0.00
 20
0.00
 30
0.00
 40
0.30
 41
0.30
  0
VERTEX
  8
SILK_TOP_ART
 10
83.50
 20
38.86
 30
0.00
  0
VERTEX
  8
SILK_TOP_ART
 10
82.1667
 20
38.86
 30
0.00
  0
SEQEND
  0
POLYLINE
  8
SILK_TOP_ART
 66
1
 10
0.00
 20
0.00
 30
0.00
 40
0.30
 41
0.30
  0
VERTEX
  8
SILK_TOP_ART
 10
82.40
 20
38.86
 30
0.00
  0
VERTEX
  8
SILK_TOP_ART
 10
82.2667
 20
38.78
 30
0.00
  0
VERTEX
  8
SILK_TOP_ART
 10
82.20
 20
38.66
 30
0.00
  0
VERTEX
  8
SILK_TOP_ART
 10
82.1667
 20
38.52
 30
0.00
  0
VERTEX
  8
SILK_TOP_ART
 10
82.2334
 20
38.38
 30
0.00
  0
VERTEX
  8
SILK_TOP_ART
 10
82.3667
 20
38.26
 30
0.00
  0
VERTEX
  8
SILK_TOP_ART
 10
82.5667
 20
38.18
 30
0.00
  0
VERTEX
  8
SILK_TOP_ART
 10
82.8334
 20
38.14
 30
0.00
  0
VERTEX
  8
SILK_TOP_ART
 10
83.10
 20
38.18
 30
0.00
  0
VERTEX
  8
SILK_TOP_ART
 10
83.30
 20
38.26
 30
0.00
  0
VERTEX
  8
SILK_TOP_ART
 10
83.4333
 20
38.38
 30
0.00
  0
VERTEX
  8
SILK_TOP_ART
 10
83.50
 20
38.52
 30
0.00
  0
VERTEX
  8
SILK_TOP_ART
 10
83.4667
 20
38.66
 30
0.00
  0
VERTEX
  8
SILK_TOP_ART
 10
83.3667
 20
38.78
 30
0.00
  0
VERTEX
  8
SILK_TOP_ART
 10
83.2334
 20
38.86
 30
0.00
  0
SEQEND
  0
POLYLINE
  8
SILK_TOP_ART
 66
1
 10
0.00
 20
0.00
 30
0.00
 40
0.30
 41
0.30
  0
VERTEX
  8
SILK_TOP_ART
 10
81.50
 20
40.26
 30
0.00
  0
VERTEX
  8
SILK_TOP_ART
 10
83.50
 20
40.26
 30
0.00
  0
SEQEND
  0
POLYLINE
  8
SILK_TOP_ART
 66
1
 10
0.00
 20
0.00
 30
0.00
 40
0.30
 41
0.30
  0
VERTEX
  8
SILK_TOP_ART
 10
83.2001
 20
40.26
 30
0.00
  0
VERTEX
  8
SILK_TOP_ART
 10
83.3667
 20
40.18
 30
0.00
  0
VERTEX
  8
SILK_TOP_ART
 10
83.4667
 20
40.06
 30
0.00
  0
VERTEX
  8
SILK_TOP_ART
 10
83.50
 20
39.92
 30
0.00
  0
VERTEX
  8
SILK_TOP_ART
 10
83.4333
 20
39.76
 30
0.00
  0
VERTEX
  8
SILK_TOP_ART
 10
83.2667
 20
39.64
 30
0.00
  0
VERTEX
  8
SILK_TOP_ART
 10
83.0667
 20
39.56
 30
0.00
  0
VERTEX
  8
SILK_TOP_ART
 10
82.8334
 20
39.54
 30
0.00
  0
VERTEX
  8
SILK_TOP_ART
 10
82.60
 20
39.56
 30
0.00
  0
VERTEX
  8
SILK_TOP_ART
 10
82.40
 20
39.64
 30
0.00
  0
VERTEX
  8
SILK_TOP_ART
 10
82.2334
 20
39.76
 30
0.00
  0
VERTEX
  8
SILK_TOP_ART
 10
82.1667
 20
39.92
 30
0.00
  0
VERTEX
  8
SILK_TOP_ART
 10
82.20
 20
40.06
 30
0.00
  0
VERTEX
  8
SILK_TOP_ART
 10
82.2667
 20
40.16
 30
0.00
  0
VERTEX
  8
SILK_TOP_ART
 10
82.40
 20
40.26
 30
0.00
  0
SEQEND
  0
POLYLINE
  8
SILK_TOP_ART
 66
1
 10
0.00
 20
0.00
 30
0.00
 40
0.30
 41
0.30
  0
VERTEX
  8
SILK_TOP_ART
 10
83.50
 20
41.66
 30
0.00
  0
VERTEX
  8
SILK_TOP_ART
 10
82.1667
 20
41.66
 30
0.00
  0
SEQEND
  0
POLYLINE
  8
SILK_TOP_ART
 66
1
 10
0.00
 20
0.00
 30
0.00
 40
0.30
 41
0.30
  0
VERTEX
  8
SILK_TOP_ART
 10
82.40
 20
41.66
 30
0.00
  0
VERTEX
  8
SILK_TOP_ART
 10
82.2667
 20
41.58
 30
0.00
  0
VERTEX
  8
SILK_TOP_ART
 10
82.20
 20
41.46
 30
0.00
  0
VERTEX
  8
SILK_TOP_ART
 10
82.1667
 20
41.32
 30
0.00
  0
VERTEX
  8
SILK_TOP_ART
 10
82.2334
 20
41.18
 30
0.00
  0
VERTEX
  8
SILK_TOP_ART
 10
82.3667
 20
41.06
 30
0.00
  0
VERTEX
  8
SILK_TOP_ART
 10
82.5667
 20
40.98
 30
0.00
  0
VERTEX
  8
SILK_TOP_ART
 10
82.8334
 20
40.94
 30
0.00
  0
VERTEX
  8
SILK_TOP_ART
 10
83.10
 20
40.98
 30
0.00
  0
VERTEX
  8
SILK_TOP_ART
 10
83.30
 20
41.06
 30
0.00
  0
VERTEX
  8
SILK_TOP_ART
 10
83.4333
 20
41.18
 30
0.00
  0
VERTEX
  8
SILK_TOP_ART
 10
83.50
 20
41.32
 30
0.00
  0
VERTEX
  8
SILK_TOP_ART
 10
83.4667
 20
41.46
 30
0.00
  0
VERTEX
  8
SILK_TOP_ART
 10
83.3667
 20
41.58
 30
0.00
  0
VERTEX
  8
SILK_TOP_ART
 10
83.2334
 20
41.66
 30
0.00
  0
SEQEND
  0
POLYLINE
  8
SILK_TOP_ART
 66
1
 10
0.00
 20
0.00
 30
0.00
 40
0.30
 41
0.30
  0
VERTEX
  8
SILK_TOP_ART
 10
83.5667
 20
42.70
 30
0.00
  0
VERTEX
  8
SILK_TOP_ART
 10
83.5333
 20
42.66
 30
0.00
  0
VERTEX
  8
SILK_TOP_ART
 10
83.4667
 20
42.66
 30
0.00
  0
VERTEX
  8
SILK_TOP_ART
 10
83.4333
 20
42.70
 30
0.00
  0
VERTEX
  8
SILK_TOP_ART
 10
83.4667
 20
42.74
 30
0.00
  0
VERTEX
  8
SILK_TOP_ART
 10
83.5333
 20
42.74
 30
0.00
  0
VERTEX
  8
SILK_TOP_ART
 10
83.5667
 20
42.70
 30
0.00
  0
SEQEND
  0
POLYLINE
  8
SILK_TOP_ART
 66
1
 10
0.00
 20
0.00
 30
0.00
 40
0.30
 41
0.30
  0
VERTEX
  8
SILK_TOP_ART
 10
82.3333
 20
44.42
 30
0.00
  0
VERTEX
  8
SILK_TOP_ART
 10
82.20
 20
44.28
 30
0.00
  0
VERTEX
  8
SILK_TOP_ART
 10
82.1667
 20
44.16
 30
0.00
  0
VERTEX
  8
SILK_TOP_ART
 10
82.2334
 20
44.00
 30
0.00
  0
VERTEX
  8
SILK_TOP_ART
 10
82.3667
 20
43.88
 30
0.00
  0
VERTEX
  8
SILK_TOP_ART
 10
82.60
 20
43.80
 30
0.00
  0
VERTEX
  8
SILK_TOP_ART
 10
82.8334
 20
43.78
 30
0.00
  0
VERTEX
  8
SILK_TOP_ART
 10
83.0667
 20
43.80
 30
0.00
  0
VERTEX
  8
SILK_TOP_ART
 10
83.2667
 20
43.88
 30
0.00
  0
VERTEX
  8
SILK_TOP_ART
 10
83.4333
 20
44.00
 30
0.00
  0
VERTEX
  8
SILK_TOP_ART
 10
83.50
 20
44.16
 30
0.00
  0
VERTEX
  8
SILK_TOP_ART
 10
83.4333
 20
44.30
 30
0.00
  0
VERTEX
  8
SILK_TOP_ART
 10
83.30
 20
44.42
 30
0.00
  0
SEQEND
  0
POLYLINE
  8
SILK_TOP_ART
 66
1
 10
0.00
 20
0.00
 30
0.00
 40
0.30
 41
0.30
  0
VERTEX
  8
SILK_TOP_ART
 10
83.50
 20
45.86
 30
0.00
  0
VERTEX
  8
SILK_TOP_ART
 10
82.1667
 20
45.86
 30
0.00
  0
SEQEND
  0
POLYLINE
  8
SILK_TOP_ART
 66
1
 10
0.00
 20
0.00
 30
0.00
 40
0.30
 41
0.30
  0
VERTEX
  8
SILK_TOP_ART
 10
82.40
 20
45.86
 30
0.00
  0
VERTEX
  8
SILK_TOP_ART
 10
82.2667
 20
45.78
 30
0.00
  0
VERTEX
  8
SILK_TOP_ART
 10
82.20
 20
45.66
 30
0.00
  0
VERTEX
  8
SILK_TOP_ART
 10
82.1667
 20
45.52
 30
0.00
  0
VERTEX
  8
SILK_TOP_ART
 10
82.2334
 20
45.38
 30
0.00
  0
VERTEX
  8
SILK_TOP_ART
 10
82.3667
 20
45.26
 30
0.00
  0
VERTEX
  8
SILK_TOP_ART
 10
82.5667
 20
45.18
 30
0.00
  0
VERTEX
  8
SILK_TOP_ART
 10
82.8334
 20
45.14
 30
0.00
  0
VERTEX
  8
SILK_TOP_ART
 10
83.10
 20
45.18
 30
0.00
  0
VERTEX
  8
SILK_TOP_ART
 10
83.30
 20
45.26
 30
0.00
  0
VERTEX
  8
SILK_TOP_ART
 10
83.4333
 20
45.38
 30
0.00
  0
VERTEX
  8
SILK_TOP_ART
 10
83.50
 20
45.52
 30
0.00
  0
VERTEX
  8
SILK_TOP_ART
 10
83.4667
 20
45.66
 30
0.00
  0
VERTEX
  8
SILK_TOP_ART
 10
83.3667
 20
45.78
 30
0.00
  0
VERTEX
  8
SILK_TOP_ART
 10
83.2334
 20
45.86
 30
0.00
  0
SEQEND
  0
POLYLINE
  8
SILK_TOP_ART
 66
1
 10
0.00
 20
0.00
 30
0.00
 70
1
 40
0.50
 41
0.50
  0
VERTEX
  8
SILK_TOP_ART
 10
28.292894
 20
28.00
 30
0.00
 42
1
  0
VERTEX
  8
SILK_TOP_ART
 10
29.707106
 20
28.00
 30
0.00
 42
1
  0
SEQEND
  0
POLYLINE
  8
SILK_TOP_ART
 66
1
 10
0.00
 20
0.00
 30
0.00
 70
1
 40
0.50
 41
0.50
  0
VERTEX
  8
SILK_TOP_ART
 10
57.792894
 20
28.00
 30
0.00
 42
1
  0
VERTEX
  8
SILK_TOP_ART
 10
59.207106
 20
28.00
 30
0.00
 42
1
  0
SEQEND
  0
POLYLINE
  8
SILK_TOP_ART
 66
1
 10
0.00
 20
0.00
 30
0.00
 40
0.2032
 41
0.2032
  0
VERTEX
  8
SILK_TOP_ART
 10
21.1333
 20
6.76
 30
0.00
  0
VERTEX
  8
SILK_TOP_ART
 10
21.20
 20
6.63
 30
0.00
  0
VERTEX
  8
SILK_TOP_ART
 10
21.28
 20
6.5433
 30
0.00
  0
VERTEX
  8
SILK_TOP_ART
 10
21.3733
 20
6.50
 30
0.00
  0
VERTEX
  8
SILK_TOP_ART
 10
21.48
 20
6.5433
 30
0.00
  0
VERTEX
  8
SILK_TOP_ART
 10
21.56
 20
6.63
 30
0.00
  0
VERTEX
  8
SILK_TOP_ART
 10
21.64
 20
6.76
 30
0.00
  0
VERTEX
  8
SILK_TOP_ART
 10
21.6667
 20
6.9333
 30
0.00
  0
VERTEX
  8
SILK_TOP_ART
 10
21.6667
 20
7.80
 30
0.00
  0
SEQEND
  0
POLYLINE
  8
SILK_TOP_ART
 66
1
 10
0.00
 20
0.00
 30
0.00
 40
0.2032
 41
0.2032
  0
VERTEX
  8
SILK_TOP_ART
 10
22.0603
 20
6.50
 30
0.00
  0
VERTEX
  8
SILK_TOP_ART
 10
22.0603
 20
7.80
 30
0.00
  0
VERTEX
  8
SILK_TOP_ART
 10
22.3803
 20
7.80
 30
0.00
  0
VERTEX
  8
SILK_TOP_ART
 10
22.487
 20
7.735
 30
0.00
  0
VERTEX
  8
SILK_TOP_ART
 10
22.567
 20
7.5833
 30
0.00
  0
VERTEX
  8
SILK_TOP_ART
 10
22.5937
 20
7.41
 30
0.00
  0
VERTEX
  8
SILK_TOP_ART
 10
22.567
 20
7.2367
 30
0.00
  0
VERTEX
  8
SILK_TOP_ART
 10
22.5003
 20
7.1067
 30
0.00
  0
VERTEX
  8
SILK_TOP_ART
 10
22.3803
 20
7.0416
 30
0.00
  0
VERTEX
  8
SILK_TOP_ART
 10
22.0603
 20
7.0416
 30
0.00
  0
SEQEND
  0
POLYLINE
  8
SILK_TOP_ART
 66
1
 10
0.00
 20
0.00
 30
0.00
 40
0.2032
 41
0.2032
  0
VERTEX
  8
SILK_TOP_ART
 10
23.0007
 20
7.5833
 30
0.00
  0
VERTEX
  8
SILK_TOP_ART
 10
23.0807
 20
7.7133
 30
0.00
  0
VERTEX
  8
SILK_TOP_ART
 10
23.174
 20
7.7783
 30
0.00
  0
VERTEX
  8
SILK_TOP_ART
 10
23.2807
 20
7.80
 30
0.00
  0
VERTEX
  8
SILK_TOP_ART
 10
23.414
 20
7.7567
 30
0.00
  0
VERTEX
  8
SILK_TOP_ART
 10
23.5073
 20
7.6483
 30
0.00
  0
VERTEX
  8
SILK_TOP_ART
 10
23.534
 20
7.5184
 30
0.00
  0
VERTEX
  8
SILK_TOP_ART
 10
23.5207
 20
7.3883
 30
0.00
  0
VERTEX
  8
SILK_TOP_ART
 10
23.4673
 20
7.28
 30
0.00
  0
VERTEX
  8
SILK_TOP_ART
 10
23.2007
 20
7.0633
 30
0.00
  0
VERTEX
  8
SILK_TOP_ART
 10
23.0807
 20
6.9117
 30
0.00
  0
VERTEX
  8
SILK_TOP_ART
 10
23.0007
 20
6.695
 30
0.00
  0
VERTEX
  8
SILK_TOP_ART
 10
22.974
 20
6.50
 30
0.00
  0
VERTEX
  8
SILK_TOP_ART
 10
23.534
 20
6.50
 30
0.00
  0
SEQEND
  0
POLYLINE
  8
SILK_TOP_ART
 66
1
 10
0.00
 20
0.00
 30
0.00
 40
0.2032
 41
0.2032
  0
VERTEX
  8
SILK_TOP_ART
 10
25.90
 20
12.00
 30
0.00
  0
VERTEX
  8
SILK_TOP_ART
 10
25.7933
 20
12.0217
 30
0.00
  0
VERTEX
  8
SILK_TOP_ART
 10
25.70
 20
12.1083
 30
0.00
  0
VERTEX
  8
SILK_TOP_ART
 10
25.62
 20
12.2383
 30
0.00
  0
VERTEX
  8
SILK_TOP_ART
 10
25.5667
 20
12.39
 30
0.00
  0
VERTEX
  8
SILK_TOP_ART
 10
25.54
 20
12.5633
 30
0.00
  0
VERTEX
  8
SILK_TOP_ART
 10
25.54
 20
12.7367
 30
0.00
  0
VERTEX
  8
SILK_TOP_ART
 10
25.5667
 20
12.91
 30
0.00
  0
VERTEX
  8
SILK_TOP_ART
 10
25.62
 20
13.0617
 30
0.00
  0
VERTEX
  8
SILK_TOP_ART
 10
25.70
 20
13.1917
 30
0.00
  0
VERTEX
  8
SILK_TOP_ART
 10
25.7933
 20
13.2783
 30
0.00
  0
VERTEX
  8
SILK_TOP_ART
 10
25.90
 20
13.30
 30
0.00
  0
VERTEX
  8
SILK_TOP_ART
 10
26.0067
 20
13.2783
 30
0.00
  0
VERTEX
  8
SILK_TOP_ART
 10
26.10
 20
13.1917
 30
0.00
  0
VERTEX
  8
SILK_TOP_ART
 10
26.18
 20
13.0617
 30
0.00
  0
VERTEX
  8
SILK_TOP_ART
 10
26.2333
 20
12.91
 30
0.00
  0
VERTEX
  8
SILK_TOP_ART
 10
26.26
 20
12.7367
 30
0.00
  0
VERTEX
  8
SILK_TOP_ART
 10
26.26
 20
12.5633
 30
0.00
  0
VERTEX
  8
SILK_TOP_ART
 10
26.2333
 20
12.39
 30
0.00
  0
VERTEX
  8
SILK_TOP_ART
 10
26.18
 20
12.2383
 30
0.00
  0
VERTEX
  8
SILK_TOP_ART
 10
26.10
 20
12.1083
 30
0.00
  0
VERTEX
  8
SILK_TOP_ART
 10
26.0067
 20
12.0217
 30
0.00
  0
VERTEX
  8
SILK_TOP_ART
 10
25.90
 20
12.00
 30
0.00
  0
SEQEND
  0
POLYLINE
  8
SILK_TOP_ART
 66
1
 10
0.00
 20
0.00
 30
0.00
 40
0.2032
 41
0.2032
  0
VERTEX
  8
SILK_TOP_ART
 10
26.5603
 20
12.00
 30
0.00
  0
VERTEX
  8
SILK_TOP_ART
 10
26.5603
 20
13.30
 30
0.00
  0
VERTEX
  8
SILK_TOP_ART
 10
26.8803
 20
13.30
 30
0.00
  0
VERTEX
  8
SILK_TOP_ART
 10
26.987
 20
13.235
 30
0.00
  0
VERTEX
  8
SILK_TOP_ART
 10
27.067
 20
13.0833
 30
0.00
  0
VERTEX
  8
SILK_TOP_ART
 10
27.0937
 20
12.91
 30
0.00
  0
VERTEX
  8
SILK_TOP_ART
 10
27.067
 20
12.7367
 30
0.00
  0
VERTEX
  8
SILK_TOP_ART
 10
27.0003
 20
12.6067
 30
0.00
  0
VERTEX
  8
SILK_TOP_ART
 10
26.8803
 20
12.5416
 30
0.00
  0
VERTEX
  8
SILK_TOP_ART
 10
26.5603
 20
12.5416
 30
0.00
  0
SEQEND
  0
POLYLINE
  8
SILK_TOP_ART
 66
1
 10
0.00
 20
0.00
 30
0.00
 40
0.2032
 41
0.2032
  0
VERTEX
  8
SILK_TOP_ART
 10
28.0207
 20
12.00
 30
0.00
  0
VERTEX
  8
SILK_TOP_ART
 10
27.4873
 20
12.00
 30
0.00
  0
VERTEX
  8
SILK_TOP_ART
 10
27.4873
 20
13.30
 30
0.00
  0
VERTEX
  8
SILK_TOP_ART
 10
28.0207
 20
13.30
 30
0.00
  0
SEQEND
  0
POLYLINE
  8
SILK_TOP_ART
 66
1
 10
0.00
 20
0.00
 30
0.00
 40
0.2032
 41
0.2032
  0
VERTEX
  8
SILK_TOP_ART
 10
27.8073
 20
12.6717
 30
0.00
  0
VERTEX
  8
SILK_TOP_ART
 10
27.4873
 20
12.6717
 30
0.00
  0
SEQEND
  0
POLYLINE
  8
SILK_TOP_ART
 66
1
 10
0.00
 20
0.00
 30
0.00
 40
0.2032
 41
0.2032
  0
VERTEX
  8
SILK_TOP_ART
 10
28.3743
 20
12.00
 30
0.00
  0
VERTEX
  8
SILK_TOP_ART
 10
28.3743
 20
13.30
 30
0.00
  0
VERTEX
  8
SILK_TOP_ART
 10
28.9877
 20
12.00
 30
0.00
  0
VERTEX
  8
SILK_TOP_ART
 10
28.9877
 20
13.30
 30
0.00
  0
SEQEND
  0
POLYLINE
  8
SILK_TOP_ART
 66
1
 10
0.00
 20
0.00
 30
0.00
 40
0.2032
 41
0.2032
  0
VERTEX
  8
SILK_TOP_ART
 10
29.608
 20
11.9567
 30
0.00
  0
VERTEX
  8
SILK_TOP_ART
 10
29.5813
 20
11.9783
 30
0.00
  0
VERTEX
  8
SILK_TOP_ART
 10
29.5813
 20
12.0217
 30
0.00
  0
VERTEX
  8
SILK_TOP_ART
 10
29.608
 20
12.0433
 30
0.00
  0
VERTEX
  8
SILK_TOP_ART
 10
29.6347
 20
12.0217
 30
0.00
  0
VERTEX
  8
SILK_TOP_ART
 10
29.6347
 20
11.9783
 30
0.00
  0
VERTEX
  8
SILK_TOP_ART
 10
29.608
 20
11.9567
 30
0.00
  0
SEQEND
  0
POLYLINE
  8
SILK_TOP_ART
 66
1
 10
0.00
 20
0.00
 30
0.00
 40
0.2032
 41
0.2032
  0
VERTEX
  8
SILK_TOP_ART
 10
29.608
 20
12.5416
 30
0.00
  0
VERTEX
  8
SILK_TOP_ART
 10
29.5813
 20
12.5633
 30
0.00
  0
VERTEX
  8
SILK_TOP_ART
 10
29.5813
 20
12.6067
 30
0.00
  0
VERTEX
  8
SILK_TOP_ART
 10
29.608
 20
12.6283
 30
0.00
  0
VERTEX
  8
SILK_TOP_ART
 10
29.6347
 20
12.6067
 30
0.00
  0
VERTEX
  8
SILK_TOP_ART
 10
29.6347
 20
12.5633
 30
0.00
  0
VERTEX
  8
SILK_TOP_ART
 10
29.608
 20
12.5416
 30
0.00
  0
SEQEND
  0
POLYLINE
  8
SILK_TOP_ART
 66
1
 10
0.00
 20
0.00
 30
0.00
 40
0.2032
 41
0.2032
  0
VERTEX
  8
SILK_TOP_ART
 10
31.302
 20
13.30
 30
0.00
  0
VERTEX
  8
SILK_TOP_ART
 10
31.622
 20
13.30
 30
0.00
  0
SEQEND
  0
POLYLINE
  8
SILK_TOP_ART
 66
1
 10
0.00
 20
0.00
 30
0.00
 40
0.2032
 41
0.2032
  0
VERTEX
  8
SILK_TOP_ART
 10
31.462
 20
13.30
 30
0.00
  0
VERTEX
  8
SILK_TOP_ART
 10
31.462
 20
12.00
 30
0.00
  0
SEQEND
  0
POLYLINE
  8
SILK_TOP_ART
 66
1
 10
0.00
 20
0.00
 30
0.00
 40
0.2032
 41
0.2032
  0
VERTEX
  8
SILK_TOP_ART
 10
31.302
 20
12.00
 30
0.00
  0
VERTEX
  8
SILK_TOP_ART
 10
31.622
 20
12.00
 30
0.00
  0
SEQEND
  0
POLYLINE
  8
SILK_TOP_ART
 66
1
 10
0.00
 20
0.00
 30
0.00
 40
0.2032
 41
0.2032
  0
VERTEX
  8
SILK_TOP_ART
 10
32.109
 20
12.1733
 30
0.00
  0
VERTEX
  8
SILK_TOP_ART
 10
32.2157
 20
12.065
 30
0.00
  0
VERTEX
  8
SILK_TOP_ART
 10
32.3357
 20
12.00
 30
0.00
  0
VERTEX
  8
SILK_TOP_ART
 10
32.4423
 20
12.00
 30
0.00
  0
VERTEX
  8
SILK_TOP_ART
 10
32.549
 20
12.065
 30
0.00
  0
VERTEX
  8
SILK_TOP_ART
 10
32.629
 20
12.1733
 30
0.00
  0
VERTEX
  8
SILK_TOP_ART
 10
32.669
 20
12.325
 30
0.00
  0
VERTEX
  8
SILK_TOP_ART
 10
32.6423
 20
12.4766
 30
0.00
  0
VERTEX
  8
SILK_TOP_ART
 10
32.5757
 20
12.6067
 30
0.00
  0
VERTEX
  8
SILK_TOP_ART
 10
32.4557
 20
12.6933
 30
0.00
  0
VERTEX
  8
SILK_TOP_ART
 10
32.2957
 20
12.7367
 30
0.00
  0
VERTEX
  8
SILK_TOP_ART
 10
32.2023
 20
12.8233
 30
0.00
  0
VERTEX
  8
SILK_TOP_ART
 10
32.1623
 20
12.975
 30
0.00
  0
VERTEX
  8
SILK_TOP_ART
 10
32.189
 20
13.1267
 30
0.00
  0
VERTEX
  8
SILK_TOP_ART
 10
32.2557
 20
13.235
 30
0.00
  0
VERTEX
  8
SILK_TOP_ART
 10
32.349
 20
13.30
 30
0.00
  0
VERTEX
  8
SILK_TOP_ART
 10
32.4423
 20
13.30
 30
0.00
  0
VERTEX
  8
SILK_TOP_ART
 10
32.5357
 20
13.2567
 30
0.00
  0
VERTEX
  8
SILK_TOP_ART
 10
32.6157
 20
13.1483
 30
0.00
  0
SEQEND
  0
POLYLINE
  8
SILK_TOP_ART
 66
1
 10
0.00
 20
0.00
 30
0.00
 40
0.2032
 41
0.2032
  0
VERTEX
  8
SILK_TOP_ART
 10
33.316
 20
12.00
 30
0.00
  0
VERTEX
  8
SILK_TOP_ART
 10
33.2093
 20
12.0217
 30
0.00
  0
VERTEX
  8
SILK_TOP_ART
 10
33.116
 20
12.1083
 30
0.00
  0
VERTEX
  8
SILK_TOP_ART
 10
33.036
 20
12.2383
 30
0.00
  0
VERTEX
  8
SILK_TOP_ART
 10
32.9827
 20
12.39
 30
0.00
  0
VERTEX
  8
SILK_TOP_ART
 10
32.956
 20
12.5633
 30
0.00
  0
VERTEX
  8
SILK_TOP_ART
 10
32.956
 20
12.7367
 30
0.00
  0
VERTEX
  8
SILK_TOP_ART
 10
32.9827
 20
12.91
 30
0.00
  0
VERTEX
  8
SILK_TOP_ART
 10
33.036
 20
13.0617
 30
0.00
  0
VERTEX
  8
SILK_TOP_ART
 10
33.116
 20
13.1917
 30
0.00
  0
VERTEX
  8
SILK_TOP_ART
 10
33.2093
 20
13.2783
 30
0.00
  0
VERTEX
  8
SILK_TOP_ART
 10
33.316
 20
13.30
 30
0.00
  0
VERTEX
  8
SILK_TOP_ART
 10
33.4227
 20
13.2783
 30
0.00
  0
VERTEX
  8
SILK_TOP_ART
 10
33.516
 20
13.1917
 30
0.00
  0
VERTEX
  8
SILK_TOP_ART
 10
33.596
 20
13.0617
 30
0.00
  0
VERTEX
  8
SILK_TOP_ART
 10
33.6493
 20
12.91
 30
0.00
  0
VERTEX
  8
SILK_TOP_ART
 10
33.676
 20
12.7367
 30
0.00
  0
VERTEX
  8
SILK_TOP_ART
 10
33.676
 20
12.5633
 30
0.00
  0
VERTEX
  8
SILK_TOP_ART
 10
33.6493
 20
12.39
 30
0.00
  0
VERTEX
  8
SILK_TOP_ART
 10
33.596
 20
12.2383
 30
0.00
  0
VERTEX
  8
SILK_TOP_ART
 10
33.516
 20
12.1083
 30
0.00
  0
VERTEX
  8
SILK_TOP_ART
 10
33.4227
 20
12.0217
 30
0.00
  0
VERTEX
  8
SILK_TOP_ART
 10
33.316
 20
12.00
 30
0.00
  0
SEQEND
  0
POLYLINE
  8
SILK_TOP_ART
 66
1
 10
0.00
 20
0.00
 30
0.00
 40
0.2032
 41
0.2032
  0
VERTEX
  8
SILK_TOP_ART
 10
33.9763
 20
13.30
 30
0.00
  0
VERTEX
  8
SILK_TOP_ART
 10
33.9763
 20
12.00
 30
0.00
  0
VERTEX
  8
SILK_TOP_ART
 10
34.5097
 20
12.00
 30
0.00
  0
SEQEND
  0
POLYLINE
  8
SILK_TOP_ART
 66
1
 10
0.00
 20
0.00
 30
0.00
 40
0.2032
 41
0.2032
  0
VERTEX
  8
SILK_TOP_ART
 10
34.8367
 20
12.00
 30
0.00
  0
VERTEX
  8
SILK_TOP_ART
 10
35.17
 20
13.30
 30
0.00
  0
VERTEX
  8
SILK_TOP_ART
 10
35.5033
 20
12.00
 30
0.00
  0
SEQEND
  0
POLYLINE
  8
SILK_TOP_ART
 66
1
 10
0.00
 20
0.00
 30
0.00
 40
0.2032
 41
0.2032
  0
VERTEX
  8
SILK_TOP_ART
 10
35.3833
 20
12.455
 30
0.00
  0
VERTEX
  8
SILK_TOP_ART
 10
34.9567
 20
12.455
 30
0.00
  0
SEQEND
  0
POLYLINE
  8
SILK_TOP_ART
 66
1
 10
0.00
 20
0.00
 30
0.00
 40
0.2032
 41
0.2032
  0
VERTEX
  8
SILK_TOP_ART
 10
36.097
 20
13.30
 30
0.00
  0
VERTEX
  8
SILK_TOP_ART
 10
36.097
 20
12.00
 30
0.00
  0
SEQEND
  0
POLYLINE
  8
SILK_TOP_ART
 66
1
 10
0.00
 20
0.00
 30
0.00
 40
0.2032
 41
0.2032
  0
VERTEX
  8
SILK_TOP_ART
 10
35.7903
 20
13.30
 30
0.00
  0
VERTEX
  8
SILK_TOP_ART
 10
36.4037
 20
13.30
 30
0.00
  0
SEQEND
  0
POLYLINE
  8
SILK_TOP_ART
 66
1
 10
0.00
 20
0.00
 30
0.00
 40
0.2032
 41
0.2032
  0
VERTEX
  8
SILK_TOP_ART
 10
37.2907
 20
12.00
 30
0.00
  0
VERTEX
  8
SILK_TOP_ART
 10
36.7573
 20
12.00
 30
0.00
  0
VERTEX
  8
SILK_TOP_ART
 10
36.7573
 20
13.30
 30
0.00
  0
VERTEX
  8
SILK_TOP_ART
 10
37.2907
 20
13.30
 30
0.00
  0
SEQEND
  0
POLYLINE
  8
SILK_TOP_ART
 66
1
 10
0.00
 20
0.00
 30
0.00
 40
0.2032
 41
0.2032
  0
VERTEX
  8
SILK_TOP_ART
 10
37.0773
 20
12.6717
 30
0.00
  0
VERTEX
  8
SILK_TOP_ART
 10
36.7573
 20
12.6717
 30
0.00
  0
SEQEND
  0
POLYLINE
  8
SILK_TOP_ART
 66
1
 10
0.00
 20
0.00
 30
0.00
 40
0.2032
 41
0.2032
  0
VERTEX
  8
SILK_TOP_ART
 10
25.62
 20
10.1733
 30
0.00
  0
VERTEX
  8
SILK_TOP_ART
 10
25.7267
 20
10.065
 30
0.00
  0
VERTEX
  8
SILK_TOP_ART
 10
25.8467
 20
10.00
 30
0.00
  0
VERTEX
  8
SILK_TOP_ART
 10
25.9533
 20
10.00
 30
0.00
  0
VERTEX
  8
SILK_TOP_ART
 10
26.06
 20
10.065
 30
0.00
  0
VERTEX
  8
SILK_TOP_ART
 10
26.14
 20
10.1733
 30
0.00
  0
VERTEX
  8
SILK_TOP_ART
 10
26.18
 20
10.325
 30
0.00
  0
VERTEX
  8
SILK_TOP_ART
 10
26.1533
 20
10.4766
 30
0.00
  0
VERTEX
  8
SILK_TOP_ART
 10
26.0867
 20
10.6067
 30
0.00
  0
VERTEX
  8
SILK_TOP_ART
 10
25.9667
 20
10.6933
 30
0.00
  0
VERTEX
  8
SILK_TOP_ART
 10
25.8067
 20
10.7367
 30
0.00
  0
VERTEX
  8
SILK_TOP_ART
 10
25.7133
 20
10.8233
 30
0.00
  0
VERTEX
  8
SILK_TOP_ART
 10
25.6733
 20
10.975
 30
0.00
  0
VERTEX
  8
SILK_TOP_ART
 10
25.70
 20
11.1267
 30
0.00
  0
VERTEX
  8
SILK_TOP_ART
 10
25.7667
 20
11.235
 30
0.00
  0
VERTEX
  8
SILK_TOP_ART
 10
25.86
 20
11.30
 30
0.00
  0
VERTEX
  8
SILK_TOP_ART
 10
25.9533
 20
11.30
 30
0.00
  0
VERTEX
  8
SILK_TOP_ART
 10
26.0467
 20
11.2567
 30
0.00
  0
VERTEX
  8
SILK_TOP_ART
 10
26.1267
 20
11.1483
 30
0.00
  0
SEQEND
  0
POLYLINE
  8
SILK_TOP_ART
 66
1
 10
0.00
 20
0.00
 30
0.00
 40
0.2032
 41
0.2032
  0
VERTEX
  8
SILK_TOP_ART
 10
26.547
 20
10.00
 30
0.00
  0
VERTEX
  8
SILK_TOP_ART
 10
26.547
 20
11.30
 30
0.00
  0
SEQEND
  0
POLYLINE
  8
SILK_TOP_ART
 66
1
 10
0.00
 20
0.00
 30
0.00
 40
0.2032
 41
0.2032
  0
VERTEX
  8
SILK_TOP_ART
 10
27.107
 20
11.30
 30
0.00
  0
VERTEX
  8
SILK_TOP_ART
 10
27.107
 20
10.00
 30
0.00
  0
SEQEND
  0
POLYLINE
  8
SILK_TOP_ART
 66
1
 10
0.00
 20
0.00
 30
0.00
 40
0.2032
 41
0.2032
  0
VERTEX
  8
SILK_TOP_ART
 10
27.107
 20
10.65
 30
0.00
  0
VERTEX
  8
SILK_TOP_ART
 10
26.547
 20
10.65
 30
0.00
  0
SEQEND
  0
POLYLINE
  8
SILK_TOP_ART
 66
1
 10
0.00
 20
0.00
 30
0.00
 40
0.2032
 41
0.2032
  0
VERTEX
  8
SILK_TOP_ART
 10
27.754
 20
10.00
 30
0.00
  0
VERTEX
  8
SILK_TOP_ART
 10
27.6473
 20
10.0217
 30
0.00
  0
VERTEX
  8
SILK_TOP_ART
 10
27.554
 20
10.1083
 30
0.00
  0
VERTEX
  8
SILK_TOP_ART
 10
27.474
 20
10.2383
 30
0.00
  0
VERTEX
  8
SILK_TOP_ART
 10
27.4207
 20
10.39
 30
0.00
  0
VERTEX
  8
SILK_TOP_ART
 10
27.394
 20
10.5633
 30
0.00
  0
VERTEX
  8
SILK_TOP_ART
 10
27.394
 20
10.7367
 30
0.00
  0
VERTEX
  8
SILK_TOP_ART
 10
27.4207
 20
10.91
 30
0.00
  0
VERTEX
  8
SILK_TOP_ART
 10
27.474
 20
11.0617
 30
0.00
  0
VERTEX
  8
SILK_TOP_ART
 10
27.554
 20
11.1917
 30
0.00
  0
VERTEX
  8
SILK_TOP_ART
 10
27.6473
 20
11.2783
 30
0.00
  0
VERTEX
  8
SILK_TOP_ART
 10
27.754
 20
11.30
 30
0.00
  0
VERTEX
  8
SILK_TOP_ART
 10
27.8607
 20
11.2783
 30
0.00
  0
VERTEX
  8
SILK_TOP_ART
 10
27.954
 20
11.1917
 30
0.00
  0
VERTEX
  8
SILK_TOP_ART
 10
28.034
 20
11.0617
 30
0.00
  0
VERTEX
  8
SILK_TOP_ART
 10
28.0873
 20
10.91
 30
0.00
  0
VERTEX
  8
SILK_TOP_ART
 10
28.114
 20
10.7367
 30
0.00
  0
VERTEX
  8
SILK_TOP_ART
 10
28.114
 20
10.5633
 30
0.00
  0
VERTEX
  8
SILK_TOP_ART
 10
28.0873
 20
10.39
 30
0.00
  0
VERTEX
  8
SILK_TOP_ART
 10
28.034
 20
10.2383
 30
0.00
  0
VERTEX
  8
SILK_TOP_ART
 10
27.954
 20
10.1083
 30
0.00
  0
VERTEX
  8
SILK_TOP_ART
 10
27.8607
 20
10.0217
 30
0.00
  0
VERTEX
  8
SILK_TOP_ART
 10
27.754
 20
10.00
 30
0.00
  0
SEQEND
  0
POLYLINE
  8
SILK_TOP_ART
 66
1
 10
0.00
 20
0.00
 30
0.00
 40
0.2032
 41
0.2032
  0
VERTEX
  8
SILK_TOP_ART
 10
28.4143
 20
10.00
 30
0.00
  0
VERTEX
  8
SILK_TOP_ART
 10
28.4143
 20
11.30
 30
0.00
  0
VERTEX
  8
SILK_TOP_ART
 10
28.7477
 20
11.30
 30
0.00
  0
VERTEX
  8
SILK_TOP_ART
 10
28.8543
 20
11.235
 30
0.00
  0
VERTEX
  8
SILK_TOP_ART
 10
28.921
 20
11.1483
 30
0.00
  0
VERTEX
  8
SILK_TOP_ART
 10
28.9477
 20
10.975
 30
0.00
  0
VERTEX
  8
SILK_TOP_ART
 10
28.921
 20
10.8017
 30
0.00
  0
VERTEX
  8
SILK_TOP_ART
 10
28.841
 20
10.6933
 30
0.00
  0
VERTEX
  8
SILK_TOP_ART
 10
28.7477
 20
10.6283
 30
0.00
  0
VERTEX
  8
SILK_TOP_ART
 10
28.4143
 20
10.6283
 30
0.00
  0
SEQEND
  0
POLYLINE
  8
SILK_TOP_ART
 66
1
 10
0.00
 20
0.00
 30
0.00
 40
0.2032
 41
0.2032
  0
VERTEX
  8
SILK_TOP_ART
 10
28.7477
 20
10.6283
 30
0.00
  0
VERTEX
  8
SILK_TOP_ART
 10
28.9477
 20
10.00
 30
0.00
  0
SEQEND
  0
POLYLINE
  8
SILK_TOP_ART
 66
1
 10
0.00
 20
0.00
 30
0.00
 40
0.2032
 41
0.2032
  0
VERTEX
  8
SILK_TOP_ART
 10
29.608
 20
11.30
 30
0.00
  0
VERTEX
  8
SILK_TOP_ART
 10
29.608
 20
10.00
 30
0.00
  0
SEQEND
  0
POLYLINE
  8
SILK_TOP_ART
 66
1
 10
0.00
 20
0.00
 30
0.00
 40
0.2032
 41
0.2032
  0
VERTEX
  8
SILK_TOP_ART
 10
29.3013
 20
11.30
 30
0.00
  0
VERTEX
  8
SILK_TOP_ART
 10
29.9147
 20
11.30
 30
0.00
  0
SEQEND
  0
POLYLINE
  8
SILK_TOP_ART
 66
1
 10
0.00
 20
0.00
 30
0.00
 40
0.2032
 41
0.2032
  0
VERTEX
  8
SILK_TOP_ART
 10
30.535
 20
9.9567
 30
0.00
  0
VERTEX
  8
SILK_TOP_ART
 10
30.5083
 20
9.9783
 30
0.00
  0
VERTEX
  8
SILK_TOP_ART
 10
30.5083
 20
10.0217
 30
0.00
  0
VERTEX
  8
SILK_TOP_ART
 10
30.535
 20
10.0433
 30
0.00
  0
VERTEX
  8
SILK_TOP_ART
 10
30.5617
 20
10.0217
 30
0.00
  0
VERTEX
  8
SILK_TOP_ART
 10
30.5617
 20
9.9783
 30
0.00
  0
VERTEX
  8
SILK_TOP_ART
 10
30.535
 20
9.9567
 30
0.00
  0
SEQEND
  0
POLYLINE
  8
SILK_TOP_ART
 66
1
 10
0.00
 20
0.00
 30
0.00
 40
0.2032
 41
0.2032
  0
VERTEX
  8
SILK_TOP_ART
 10
30.535
 20
10.5416
 30
0.00
  0
VERTEX
  8
SILK_TOP_ART
 10
30.5083
 20
10.5633
 30
0.00
  0
VERTEX
  8
SILK_TOP_ART
 10
30.5083
 20
10.6067
 30
0.00
  0
VERTEX
  8
SILK_TOP_ART
 10
30.535
 20
10.6283
 30
0.00
  0
VERTEX
  8
SILK_TOP_ART
 10
30.5617
 20
10.6067
 30
0.00
  0
VERTEX
  8
SILK_TOP_ART
 10
30.5617
 20
10.5633
 30
0.00
  0
VERTEX
  8
SILK_TOP_ART
 10
30.535
 20
10.5416
 30
0.00
  0
SEQEND
  0
POLYLINE
  8
SILK_TOP_ART
 66
1
 10
0.00
 20
0.00
 30
0.00
 40
0.2032
 41
0.2032
  0
VERTEX
  8
SILK_TOP_ART
 10
31.1953
 20
11.30
 30
0.00
  0
VERTEX
  8
SILK_TOP_ART
 10
31.1953
 20
10.00
 30
0.00
  0
VERTEX
  8
SILK_TOP_ART
 10
31.7287
 20
10.00
 30
0.00
  0
SEQEND
  0
POLYLINE
  8
SILK_TOP_ART
 66
1
 10
0.00
 20
0.00
 30
0.00
 40
0.2032
 41
0.2032
  0
VERTEX
  8
SILK_TOP_ART
 10
32.229
 20
11.30
 30
0.00
  0
VERTEX
  8
SILK_TOP_ART
 10
32.549
 20
11.30
 30
0.00
  0
SEQEND
  0
POLYLINE
  8
SILK_TOP_ART
 66
1
 10
0.00
 20
0.00
 30
0.00
 40
0.2032
 41
0.2032
  0
VERTEX
  8
SILK_TOP_ART
 10
32.389
 20
11.30
 30
0.00
  0
VERTEX
  8
SILK_TOP_ART
 10
32.389
 20
10.00
 30
0.00
  0
SEQEND
  0
POLYLINE
  8
SILK_TOP_ART
 66
1
 10
0.00
 20
0.00
 30
0.00
 40
0.2032
 41
0.2032
  0
VERTEX
  8
SILK_TOP_ART
 10
32.229
 20
10.00
 30
0.00
  0
VERTEX
  8
SILK_TOP_ART
 10
32.549
 20
10.00
 30
0.00
  0
SEQEND
  0
POLYLINE
  8
SILK_TOP_ART
 66
1
 10
0.00
 20
0.00
 30
0.00
 40
0.2032
 41
0.2032
  0
VERTEX
  8
SILK_TOP_ART
 10
33.0093
 20
10.00
 30
0.00
  0
VERTEX
  8
SILK_TOP_ART
 10
33.0093
 20
11.30
 30
0.00
  0
VERTEX
  8
SILK_TOP_ART
 10
33.6227
 20
10.00
 30
0.00
  0
VERTEX
  8
SILK_TOP_ART
 10
33.6227
 20
11.30
 30
0.00
  0
SEQEND
  0
POLYLINE
  8
SILK_TOP_ART
 66
1
 10
0.00
 20
0.00
 30
0.00
 40
0.2032
 41
0.2032
  0
VERTEX
  8
SILK_TOP_ART
 10
33.9497
 20
10.00
 30
0.00
  0
VERTEX
  8
SILK_TOP_ART
 10
33.9497
 20
11.30
 30
0.00
  0
SEQEND
  0
POLYLINE
  8
SILK_TOP_ART
 66
1
 10
0.00
 20
0.00
 30
0.00
 40
0.2032
 41
0.2032
  0
VERTEX
  8
SILK_TOP_ART
 10
34.4563
 20
11.30
 30
0.00
  0
VERTEX
  8
SILK_TOP_ART
 10
33.9497
 20
10.4983
 30
0.00
  0
SEQEND
  0
POLYLINE
  8
SILK_TOP_ART
 66
1
 10
0.00
 20
0.00
 30
0.00
 40
0.2032
 41
0.2032
  0
VERTEX
  8
SILK_TOP_ART
 10
34.5363
 20
10.00
 30
0.00
  0
VERTEX
  8
SILK_TOP_ART
 10
34.1763
 20
10.8666
 30
0.00
  0
SEQEND
  0
POLYLINE
  8
SILK_TOP_ART
 66
1
 10
0.00
 20
0.00
 30
0.00
 40
0.2032
 41
0.2032
  0
VERTEX
  8
SILK_TOP_ART
 10
36.177
 20
10.65
 30
0.00
  0
VERTEX
  8
SILK_TOP_ART
 10
36.4437
 20
10.65
 30
0.00
  0
VERTEX
  8
SILK_TOP_ART
 10
36.4437
 20
10.26
 30
0.00
  0
VERTEX
  8
SILK_TOP_ART
 10
36.3637
 20
10.13
 30
0.00
  0
VERTEX
  8
SILK_TOP_ART
 10
36.2703
 20
10.0433
 30
0.00
  0
VERTEX
  8
SILK_TOP_ART
 10
36.137
 20
10.00
 30
0.00
  0
VERTEX
  8
SILK_TOP_ART
 10
36.0037
 20
10.0433
 30
0.00
  0
VERTEX
  8
SILK_TOP_ART
 10
35.9103
 20
10.13
 30
0.00
  0
VERTEX
  8
SILK_TOP_ART
 10
35.8303
 20
10.26
 30
0.00
  0
VERTEX
  8
SILK_TOP_ART
 10
35.777
 20
10.4117
 30
0.00
  0
VERTEX
  8
SILK_TOP_ART
 10
35.7503
 20
10.585
 30
0.00
  0
VERTEX
  8
SILK_TOP_ART
 10
35.7503
 20
10.7367
 30
0.00
  0
VERTEX
  8
SILK_TOP_ART
 10
35.777
 20
10.8666
 30
0.00
  0
VERTEX
  8
SILK_TOP_ART
 10
35.8303
 20
11.0184
 30
0.00
  0
VERTEX
  8
SILK_TOP_ART
 10
35.9103
 20
11.1483
 30
0.00
  0
VERTEX
  8
SILK_TOP_ART
 10
35.9903
 20
11.235
 30
0.00
  0
VERTEX
  8
SILK_TOP_ART
 10
36.097
 20
11.30
 30
0.00
  0
VERTEX
  8
SILK_TOP_ART
 10
36.1903
 20
11.30
 30
0.00
  0
VERTEX
  8
SILK_TOP_ART
 10
36.297
 20
11.2567
 30
0.00
  0
VERTEX
  8
SILK_TOP_ART
 10
36.377
 20
11.17
 30
0.00
  0
SEQEND
  0
POLYLINE
  8
SILK_TOP_ART
 66
1
 10
0.00
 20
0.00
 30
0.00
 40
0.2032
 41
0.2032
  0
VERTEX
  8
SILK_TOP_ART
 10
36.7173
 20
10.00
 30
0.00
  0
VERTEX
  8
SILK_TOP_ART
 10
36.7173
 20
11.30
 30
0.00
  0
VERTEX
  8
SILK_TOP_ART
 10
37.3307
 20
10.00
 30
0.00
  0
VERTEX
  8
SILK_TOP_ART
 10
37.3307
 20
11.30
 30
0.00
  0
SEQEND
  0
POLYLINE
  8
SILK_TOP_ART
 66
1
 10
0.00
 20
0.00
 30
0.00
 40
0.2032
 41
0.2032
  0
VERTEX
  8
SILK_TOP_ART
 10
37.6577
 20
10.00
 30
0.00
  0
VERTEX
  8
SILK_TOP_ART
 10
37.6577
 20
11.30
 30
0.00
  0
VERTEX
  8
SILK_TOP_ART
 10
37.9243
 20
11.30
 30
0.00
  0
VERTEX
  8
SILK_TOP_ART
 10
38.031
 20
11.235
 30
0.00
  0
VERTEX
  8
SILK_TOP_ART
 10
38.111
 20
11.1483
 30
0.00
  0
VERTEX
  8
SILK_TOP_ART
 10
38.1777
 20
11.0184
 30
0.00
  0
VERTEX
  8
SILK_TOP_ART
 10
38.231
 20
10.8666
 30
0.00
  0
VERTEX
  8
SILK_TOP_ART
 10
38.2443
 20
10.65
 30
0.00
  0
VERTEX
  8
SILK_TOP_ART
 10
38.231
 20
10.4333
 30
0.00
  0
VERTEX
  8
SILK_TOP_ART
 10
38.1777
 20
10.2816
 30
0.00
  0
VERTEX
  8
SILK_TOP_ART
 10
38.111
 20
10.1516
 30
0.00
  0
VERTEX
  8
SILK_TOP_ART
 10
38.031
 20
10.065
 30
0.00
  0
VERTEX
  8
SILK_TOP_ART
 10
37.9243
 20
10.00
 30
0.00
  0
VERTEX
  8
SILK_TOP_ART
 10
37.6577
 20
10.00
 30
0.00
  0
SEQEND
  0
POLYLINE
  8
SILK_TOP_ART
 66
1
 10
0.00
 20
0.00
 30
0.00
 40
0.2032
 41
0.2032
  0
VERTEX
  8
SILK_TOP_ART
 10
21.1333
 20
36.76
 30
0.00
  0
VERTEX
  8
SILK_TOP_ART
 10
21.20
 20
36.63
 30
0.00
  0
VERTEX
  8
SILK_TOP_ART
 10
21.28
 20
36.5433
 30
0.00
  0
VERTEX
  8
SILK_TOP_ART
 10
21.3733
 20
36.50
 30
0.00
  0
VERTEX
  8
SILK_TOP_ART
 10
21.48
 20
36.5433
 30
0.00
  0
VERTEX
  8
SILK_TOP_ART
 10
21.56
 20
36.63
 30
0.00
  0
VERTEX
  8
SILK_TOP_ART
 10
21.64
 20
36.76
 30
0.00
  0
VERTEX
  8
SILK_TOP_ART
 10
21.6667
 20
36.9333
 30
0.00
  0
VERTEX
  8
SILK_TOP_ART
 10
21.6667
 20
37.80
 30
0.00
  0
SEQEND
  0
POLYLINE
  8
SILK_TOP_ART
 66
1
 10
0.00
 20
0.00
 30
0.00
 40
0.2032
 41
0.2032
  0
VERTEX
  8
SILK_TOP_ART
 10
22.0603
 20
36.50
 30
0.00
  0
VERTEX
  8
SILK_TOP_ART
 10
22.0603
 20
37.80
 30
0.00
  0
VERTEX
  8
SILK_TOP_ART
 10
22.3803
 20
37.80
 30
0.00
  0
VERTEX
  8
SILK_TOP_ART
 10
22.487
 20
37.735
 30
0.00
  0
VERTEX
  8
SILK_TOP_ART
 10
22.567
 20
37.5833
 30
0.00
  0
VERTEX
  8
SILK_TOP_ART
 10
22.5937
 20
37.41
 30
0.00
  0
VERTEX
  8
SILK_TOP_ART
 10
22.567
 20
37.2367
 30
0.00
  0
VERTEX
  8
SILK_TOP_ART
 10
22.5003
 20
37.1067
 30
0.00
  0
VERTEX
  8
SILK_TOP_ART
 10
22.3803
 20
37.0416
 30
0.00
  0
VERTEX
  8
SILK_TOP_ART
 10
22.0603
 20
37.0416
 30
0.00
  0
SEQEND
  0
POLYLINE
  8
SILK_TOP_ART
 66
1
 10
0.00
 20
0.00
 30
0.00
 40
0.2032
 41
0.2032
  0
VERTEX
  8
SILK_TOP_ART
 10
23.254
 20
36.50
 30
0.00
  0
VERTEX
  8
SILK_TOP_ART
 10
23.254
 20
37.80
 30
0.00
  0
VERTEX
  8
SILK_TOP_ART
 10
23.094
 20
37.54
 30
0.00
  0
SEQEND
  0
POLYLINE
  8
SILK_TOP_ART
 66
1
 10
0.00
 20
0.00
 30
0.00
 40
0.2032
 41
0.2032
  0
VERTEX
  8
SILK_TOP_ART
 10
23.094
 20
36.50
 30
0.00
  0
VERTEX
  8
SILK_TOP_ART
 10
23.414
 20
36.50
 30
0.00
  0
SEQEND
  0
POLYLINE
  8
SILK_TOP_ART
 66
1
 10
0.00
 20
0.00
 30
0.00
 40
0.2032
 41
0.2032
  0
VERTEX
  8
SILK_TOP_ART
 10
31.40
 20
14.00
 30
0.00
  0
VERTEX
  8
SILK_TOP_ART
 10
31.40
 20
15.30
 30
0.00
  0
VERTEX
  8
SILK_TOP_ART
 10
31.24
 20
15.04
 30
0.00
  0
SEQEND
  0
POLYLINE
  8
SILK_TOP_ART
 66
1
 10
0.00
 20
0.00
 30
0.00
 40
0.2032
 41
0.2032
  0
VERTEX
  8
SILK_TOP_ART
 10
31.24
 20
14.00
 30
0.00
  0
VERTEX
  8
SILK_TOP_ART
 10
31.56
 20
14.00
 30
0.00
  0
SEQEND
  0
POLYLINE
  8
SILK_TOP_ART
 66
1
 10
0.00
 20
0.00
 30
0.00
 40
0.2032
 41
0.2032
  0
VERTEX
  8
SILK_TOP_ART
 10
32.1537
 20
14.4333
 30
0.00
  0
VERTEX
  8
SILK_TOP_ART
 10
32.5003
 20
14.4333
 30
0.00
  0
SEQEND
  0
POLYLINE
  8
SILK_TOP_ART
 66
1
 10
0.00
 20
0.00
 30
0.00
 40
0.2032
 41
0.2032
  0
VERTEX
  8
SILK_TOP_ART
 10
33.0007
 20
15.0833
 30
0.00
  0
VERTEX
  8
SILK_TOP_ART
 10
33.0807
 20
15.2133
 30
0.00
  0
VERTEX
  8
SILK_TOP_ART
 10
33.174
 20
15.2783
 30
0.00
  0
VERTEX
  8
SILK_TOP_ART
 10
33.2807
 20
15.30
 30
0.00
  0
VERTEX
  8
SILK_TOP_ART
 10
33.414
 20
15.2567
 30
0.00
  0
VERTEX
  8
SILK_TOP_ART
 10
33.5073
 20
15.1483
 30
0.00
  0
VERTEX
  8
SILK_TOP_ART
 10
33.534
 20
15.0184
 30
0.00
  0
VERTEX
  8
SILK_TOP_ART
 10
33.5207
 20
14.8883
 30
0.00
  0
VERTEX
  8
SILK_TOP_ART
 10
33.4673
 20
14.78
 30
0.00
  0
VERTEX
  8
SILK_TOP_ART
 10
33.2007
 20
14.5633
 30
0.00
  0
VERTEX
  8
SILK_TOP_ART
 10
33.0807
 20
14.4117
 30
0.00
  0
VERTEX
  8
SILK_TOP_ART
 10
33.0007
 20
14.195
 30
0.00
  0
VERTEX
  8
SILK_TOP_ART
 10
32.974
 20
14.00
 30
0.00
  0
VERTEX
  8
SILK_TOP_ART
 10
33.534
 20
14.00
 30
0.00
  0
SEQEND
  0
POLYLINE
  8
SILK_TOP_ART
 66
1
 10
0.00
 20
0.00
 30
0.00
 40
0.2032
 41
0.2032
  0
VERTEX
  8
SILK_TOP_ART
 10
34.1543
 20
13.7617
 30
0.00
  0
VERTEX
  8
SILK_TOP_ART
 10
34.2077
 20
14.0433
 30
0.00
  0
SEQEND
  0
POLYLINE
  8
SILK_TOP_ART
 66
1
 10
0.00
 20
0.00
 30
0.00
 40
0.2032
 41
0.2032
  0
VERTEX
  8
SILK_TOP_ART
 10
34.8147
 20
14.26
 30
0.00
  0
VERTEX
  8
SILK_TOP_ART
 10
34.8947
 20
14.1083
 30
0.00
  0
VERTEX
  8
SILK_TOP_ART
 10
35.0013
 20
14.0217
 30
0.00
  0
VERTEX
  8
SILK_TOP_ART
 10
35.1213
 20
14.00
 30
0.00
  0
VERTEX
  8
SILK_TOP_ART
 10
35.228
 20
14.0217
 30
0.00
  0
VERTEX
  8
SILK_TOP_ART
 10
35.3347
 20
14.13
 30
0.00
  0
VERTEX
  8
SILK_TOP_ART
 10
35.4013
 20
14.26
 30
0.00
  0
VERTEX
  8
SILK_TOP_ART
 10
35.4147
 20
14.39
 30
0.00
  0
VERTEX
  8
SILK_TOP_ART
 10
35.388
 20
14.5416
 30
0.00
  0
VERTEX
  8
SILK_TOP_ART
 10
35.2947
 20
14.65
 30
0.00
  0
VERTEX
  8
SILK_TOP_ART
 10
35.2013
 20
14.6933
 30
0.00
  0
VERTEX
  8
SILK_TOP_ART
 10
35.0813
 20
14.6933
 30
0.00
  0
SEQEND
  0
POLYLINE
  8
SILK_TOP_ART
 66
1
 10
0.00
 20
0.00
 30
0.00
 40
0.2032
 41
0.2032
  0
VERTEX
  8
SILK_TOP_ART
 10
35.2013
 20
14.6933
 30
0.00
  0
VERTEX
  8
SILK_TOP_ART
 10
35.2813
 20
14.7583
 30
0.00
  0
VERTEX
  8
SILK_TOP_ART
 10
35.348
 20
14.8666
 30
0.00
  0
VERTEX
  8
SILK_TOP_ART
 10
35.3747
 20
14.9967
 30
0.00
  0
VERTEX
  8
SILK_TOP_ART
 10
35.348
 20
15.1267
 30
0.00
  0
VERTEX
  8
SILK_TOP_ART
 10
35.2813
 20
15.235
 30
0.00
  0
VERTEX
  8
SILK_TOP_ART
 10
35.1613
 20
15.30
 30
0.00
  0
VERTEX
  8
SILK_TOP_ART
 10
35.0413
 20
15.2783
 30
0.00
  0
VERTEX
  8
SILK_TOP_ART
 10
34.9213
 20
15.1917
 30
0.00
  0
SEQEND
  0
POLYLINE
  8
SILK_TOP_ART
 66
1
 10
0.00
 20
0.00
 30
0.00
 40
0.2032
 41
0.2032
  0
VERTEX
  8
SILK_TOP_ART
 10
35.8617
 20
14.4333
 30
0.00
  0
VERTEX
  8
SILK_TOP_ART
 10
36.2083
 20
14.4333
 30
0.00
  0
SEQEND
  0
POLYLINE
  8
SILK_TOP_ART
 66
1
 10
0.00
 20
0.00
 30
0.00
 40
0.2032
 41
0.2032
  0
VERTEX
  8
SILK_TOP_ART
 10
37.122
 20
14.00
 30
0.00
  0
VERTEX
  8
SILK_TOP_ART
 10
37.122
 20
15.30
 30
0.00
  0
VERTEX
  8
SILK_TOP_ART
 10
36.6287
 20
14.3683
 30
0.00
  0
VERTEX
  8
SILK_TOP_ART
 10
37.2953
 20
14.3683
 30
0.00
  0
SEQEND
  0
POLYLINE
  8
SILK_TOP_ART
 66
1
 10
0.00
 20
0.00
 30
0.00
 40
0.2032
 41
0.2032
  0
VERTEX
  8
SILK_TOP_ART
 10
32.23
 20
18.46
 30
0.00
  0
VERTEX
  8
SILK_TOP_ART
 10
34.77
 20
18.46
 30
0.00
  0
VERTEX
  8
SILK_TOP_ART
 10
34.77
 20
23.54
 30
0.00
  0
VERTEX
  8
SILK_TOP_ART
 10
32.23
 20
23.54
 30
0.00
  0
VERTEX
  8
SILK_TOP_ART
 10
32.23
 20
18.46
 30
0.00
  0
SEQEND
  0
POLYLINE
  8
SILK_TOP_ART
 66
1
 10
0.00
 20
0.00
 30
0.00
 40
0.2032
 41
0.2032
  0
VERTEX
  8
SILK_TOP_ART
 10
29.90
 20
24.00
 30
0.00
  0
VERTEX
  8
SILK_TOP_ART
 10
29.90
 20
25.30
 30
0.00
  0
VERTEX
  8
SILK_TOP_ART
 10
29.74
 20
25.04
 30
0.00
  0
SEQEND
  0
POLYLINE
  8
SILK_TOP_ART
 66
1
 10
0.00
 20
0.00
 30
0.00
 40
0.2032
 41
0.2032
  0
VERTEX
  8
SILK_TOP_ART
 10
29.74
 20
24.00
 30
0.00
  0
VERTEX
  8
SILK_TOP_ART
 10
30.06
 20
24.00
 30
0.00
  0
SEQEND
  0
POLYLINE
  8
SILK_TOP_ART
 66
1
 10
0.00
 20
0.00
 30
0.00
 40
0.2032
 41
0.2032
  0
VERTEX
  8
SILK_TOP_ART
 10
29.6067
 20
16.76
 30
0.00
  0
VERTEX
  8
SILK_TOP_ART
 10
29.6867
 20
16.6083
 30
0.00
  0
VERTEX
  8
SILK_TOP_ART
 10
29.7933
 20
16.5217
 30
0.00
  0
VERTEX
  8
SILK_TOP_ART
 10
29.9133
 20
16.50
 30
0.00
  0
VERTEX
  8
SILK_TOP_ART
 10
30.02
 20
16.5217
 30
0.00
  0
VERTEX
  8
SILK_TOP_ART
 10
30.1267
 20
16.63
 30
0.00
  0
VERTEX
  8
SILK_TOP_ART
 10
30.1933
 20
16.76
 30
0.00
  0
VERTEX
  8
SILK_TOP_ART
 10
30.2067
 20
16.89
 30
0.00
  0
VERTEX
  8
SILK_TOP_ART
 10
30.18
 20
17.0416
 30
0.00
  0
VERTEX
  8
SILK_TOP_ART
 10
30.0867
 20
17.15
 30
0.00
  0
VERTEX
  8
SILK_TOP_ART
 10
29.9933
 20
17.1933
 30
0.00
  0
VERTEX
  8
SILK_TOP_ART
 10
29.8733
 20
17.1933
 30
0.00
  0
SEQEND
  0
POLYLINE
  8
SILK_TOP_ART
 66
1
 10
0.00
 20
0.00
 30
0.00
 40
0.2032
 41
0.2032
  0
VERTEX
  8
SILK_TOP_ART
 10
29.9933
 20
17.1933
 30
0.00
  0
VERTEX
  8
SILK_TOP_ART
 10
30.0733
 20
17.2583
 30
0.00
  0
VERTEX
  8
SILK_TOP_ART
 10
30.14
 20
17.3666
 30
0.00
  0
VERTEX
  8
SILK_TOP_ART
 10
30.1667
 20
17.4967
 30
0.00
  0
VERTEX
  8
SILK_TOP_ART
 10
30.14
 20
17.6267
 30
0.00
  0
VERTEX
  8
SILK_TOP_ART
 10
30.0733
 20
17.735
 30
0.00
  0
VERTEX
  8
SILK_TOP_ART
 10
29.9533
 20
17.80
 30
0.00
  0
VERTEX
  8
SILK_TOP_ART
 10
29.8333
 20
17.7783
 30
0.00
  0
VERTEX
  8
SILK_TOP_ART
 10
29.7133
 20
17.6917
 30
0.00
  0
SEQEND
  0
POLYLINE
  8
SILK_TOP_ART
 66
1
 10
0.00
 20
0.00
 30
0.00
 40
0.2032
 41
0.2032
  0
VERTEX
  8
SILK_TOP_ART
 10
32.6333
 20
25.76
 30
0.00
  0
VERTEX
  8
SILK_TOP_ART
 10
32.70
 20
25.63
 30
0.00
  0
VERTEX
  8
SILK_TOP_ART
 10
32.78
 20
25.5433
 30
0.00
  0
VERTEX
  8
SILK_TOP_ART
 10
32.8733
 20
25.50
 30
0.00
  0
VERTEX
  8
SILK_TOP_ART
 10
32.98
 20
25.5433
 30
0.00
  0
VERTEX
  8
SILK_TOP_ART
 10
33.06
 20
25.63
 30
0.00
  0
VERTEX
  8
SILK_TOP_ART
 10
33.14
 20
25.76
 30
0.00
  0
VERTEX
  8
SILK_TOP_ART
 10
33.1667
 20
25.9333
 30
0.00
  0
VERTEX
  8
SILK_TOP_ART
 10
33.1667
 20
26.80
 30
0.00
  0
SEQEND
  0
POLYLINE
  8
SILK_TOP_ART
 66
1
 10
0.00
 20
0.00
 30
0.00
 40
0.2032
 41
0.2032
  0
VERTEX
  8
SILK_TOP_ART
 10
33.8003
 20
25.50
 30
0.00
  0
VERTEX
  8
SILK_TOP_ART
 10
33.827
 20
25.7816
 30
0.00
  0
VERTEX
  8
SILK_TOP_ART
 10
33.867
 20
26.02
 30
0.00
  0
VERTEX
  8
SILK_TOP_ART
 10
33.9203
 20
26.2367
 30
0.00
  0
VERTEX
  8
SILK_TOP_ART
 10
33.987
 20
26.475
 30
0.00
  0
VERTEX
  8
SILK_TOP_ART
 10
34.0937
 20
26.80
 30
0.00
  0
VERTEX
  8
SILK_TOP_ART
 10
33.5603
 20
26.80
 30
0.00
  0
SEQEND
  0
POLYLINE
  8
SILK_TOP_ART
 66
1
 10
0.00
 20
0.00
 30
0.00
 40
0.2032
 41
0.2032
  0
VERTEX
  8
SILK_TOP_ART
 10
36.6467
 20
24.5833
 30
0.00
  0
VERTEX
  8
SILK_TOP_ART
 10
36.7267
 20
24.7133
 30
0.00
  0
VERTEX
  8
SILK_TOP_ART
 10
36.82
 20
24.7783
 30
0.00
  0
VERTEX
  8
SILK_TOP_ART
 10
36.9267
 20
24.80
 30
0.00
  0
VERTEX
  8
SILK_TOP_ART
 10
37.06
 20
24.7567
 30
0.00
  0
VERTEX
  8
SILK_TOP_ART
 10
37.1533
 20
24.6483
 30
0.00
  0
VERTEX
  8
SILK_TOP_ART
 10
37.18
 20
24.5184
 30
0.00
  0
VERTEX
  8
SILK_TOP_ART
 10
37.1667
 20
24.3883
 30
0.00
  0
VERTEX
  8
SILK_TOP_ART
 10
37.1133
 20
24.28
 30
0.00
  0
VERTEX
  8
SILK_TOP_ART
 10
36.8467
 20
24.0633
 30
0.00
  0
VERTEX
  8
SILK_TOP_ART
 10
36.7267
 20
23.9117
 30
0.00
  0
VERTEX
  8
SILK_TOP_ART
 10
36.6467
 20
23.695
 30
0.00
  0
VERTEX
  8
SILK_TOP_ART
 10
36.62
 20
23.50
 30
0.00
  0
VERTEX
  8
SILK_TOP_ART
 10
37.18
 20
23.50
 30
0.00
  0
SEQEND
  0
POLYLINE
  8
SILK_TOP_ART
 66
1
 10
0.00
 20
0.00
 30
0.00
 40
0.2032
 41
0.2032
  0
VERTEX
  8
SILK_TOP_ART
 10
37.06
 20
16.50
 30
0.00
  0
VERTEX
  8
SILK_TOP_ART
 10
37.06
 20
17.80
 30
0.00
  0
VERTEX
  8
SILK_TOP_ART
 10
36.5667
 20
16.8683
 30
0.00
  0
VERTEX
  8
SILK_TOP_ART
 10
37.2333
 20
16.8683
 30
0.00
  0
SEQEND
  0
POLYLINE
  8
SILK_TOP_ART
 66
1
 10
0.00
 20
0.00
 30
0.00
 40
0.2032
 41
0.2032
  0
VERTEX
  8
SILK_TOP_ART
 10
36.90
 20
54.30
 30
0.00
  0
VERTEX
  8
SILK_TOP_ART
 10
36.90
 20
53.00
 30
0.00
  0
SEQEND
  0
POLYLINE
  8
SILK_TOP_ART
 66
1
 10
0.00
 20
0.00
 30
0.00
 40
0.2032
 41
0.2032
  0
VERTEX
  8
SILK_TOP_ART
 10
36.5933
 20
54.30
 30
0.00
  0
VERTEX
  8
SILK_TOP_ART
 10
37.2067
 20
54.30
 30
0.00
  0
SEQEND
  0
POLYLINE
  8
SILK_TOP_ART
 66
1
 10
0.00
 20
0.00
 30
0.00
 40
0.2032
 41
0.2032
  0
VERTEX
  8
SILK_TOP_ART
 10
37.987
 20
53.00
 30
0.00
  0
VERTEX
  8
SILK_TOP_ART
 10
37.987
 20
54.30
 30
0.00
  0
VERTEX
  8
SILK_TOP_ART
 10
37.4937
 20
53.3683
 30
0.00
  0
VERTEX
  8
SILK_TOP_ART
 10
38.1603
 20
53.3683
 30
0.00
  0
SEQEND
  0
POLYLINE
  8
SILK_TOP_ART
 66
1
 10
0.00
 20
0.00
 30
0.00
 40
0.2032
 41
0.2032
  0
VERTEX
  8
SILK_TOP_ART
 10
44.1333
 20
16.00
 30
0.00
  0
VERTEX
  8
SILK_TOP_ART
 10
44.1333
 20
17.30
 30
0.00
  0
VERTEX
  8
SILK_TOP_ART
 10
44.4667
 20
17.30
 30
0.00
  0
VERTEX
  8
SILK_TOP_ART
 10
44.5733
 20
17.235
 30
0.00
  0
VERTEX
  8
SILK_TOP_ART
 10
44.64
 20
17.1483
 30
0.00
  0
VERTEX
  8
SILK_TOP_ART
 10
44.6667
 20
16.975
 30
0.00
  0
VERTEX
  8
SILK_TOP_ART
 10
44.64
 20
16.8017
 30
0.00
  0
VERTEX
  8
SILK_TOP_ART
 10
44.56
 20
16.6933
 30
0.00
  0
VERTEX
  8
SILK_TOP_ART
 10
44.4667
 20
16.6283
 30
0.00
  0
VERTEX
  8
SILK_TOP_ART
 10
44.1333
 20
16.6283
 30
0.00
  0
SEQEND
  0
POLYLINE
  8
SILK_TOP_ART
 66
1
 10
0.00
 20
0.00
 30
0.00
 40
0.2032
 41
0.2032
  0
VERTEX
  8
SILK_TOP_ART
 10
44.4667
 20
16.6283
 30
0.00
  0
VERTEX
  8
SILK_TOP_ART
 10
44.6667
 20
16.00
 30
0.00
  0
SEQEND
  0
POLYLINE
  8
SILK_TOP_ART
 66
1
 10
0.00
 20
0.00
 30
0.00
 40
0.2032
 41
0.2032
  0
VERTEX
  8
SILK_TOP_ART
 10
45.487
 20
16.00
 30
0.00
  0
VERTEX
  8
SILK_TOP_ART
 10
45.487
 20
17.30
 30
0.00
  0
VERTEX
  8
SILK_TOP_ART
 10
44.9937
 20
16.3683
 30
0.00
  0
VERTEX
  8
SILK_TOP_ART
 10
45.6603
 20
16.3683
 30
0.00
  0
SEQEND
  0
POLYLINE
  8
SILK_TOP_ART
 66
1
 10
0.00
 20
0.00
 30
0.00
 40
0.2032
 41
0.2032
  0
VERTEX
  8
SILK_TOP_ART
 10
48.1333
 20
9.50
 30
0.00
  0
VERTEX
  8
SILK_TOP_ART
 10
48.1333
 20
10.80
 30
0.00
  0
VERTEX
  8
SILK_TOP_ART
 10
48.4667
 20
10.80
 30
0.00
  0
VERTEX
  8
SILK_TOP_ART
 10
48.5733
 20
10.735
 30
0.00
  0
VERTEX
  8
SILK_TOP_ART
 10
48.64
 20
10.6483
 30
0.00
  0
VERTEX
  8
SILK_TOP_ART
 10
48.6667
 20
10.475
 30
0.00
  0
VERTEX
  8
SILK_TOP_ART
 10
48.64
 20
10.3017
 30
0.00
  0
VERTEX
  8
SILK_TOP_ART
 10
48.56
 20
10.1933
 30
0.00
  0
VERTEX
  8
SILK_TOP_ART
 10
48.4667
 20
10.1283
 30
0.00
  0
VERTEX
  8
SILK_TOP_ART
 10
48.1333
 20
10.1283
 30
0.00
  0
SEQEND
  0
POLYLINE
  8
SILK_TOP_ART
 66
1
 10
0.00
 20
0.00
 30
0.00
 40
0.2032
 41
0.2032
  0
VERTEX
  8
SILK_TOP_ART
 10
48.4667
 20
10.1283
 30
0.00
  0
VERTEX
  8
SILK_TOP_ART
 10
48.6667
 20
9.50
 30
0.00
  0
SEQEND
  0
POLYLINE
  8
SILK_TOP_ART
 66
1
 10
0.00
 20
0.00
 30
0.00
 40
0.2032
 41
0.2032
  0
VERTEX
  8
SILK_TOP_ART
 10
49.0337
 20
9.76
 30
0.00
  0
VERTEX
  8
SILK_TOP_ART
 10
49.1137
 20
9.6083
 30
0.00
  0
VERTEX
  8
SILK_TOP_ART
 10
49.2203
 20
9.5217
 30
0.00
  0
VERTEX
  8
SILK_TOP_ART
 10
49.3403
 20
9.50
 30
0.00
  0
VERTEX
  8
SILK_TOP_ART
 10
49.447
 20
9.5217
 30
0.00
  0
VERTEX
  8
SILK_TOP_ART
 10
49.5537
 20
9.63
 30
0.00
  0
VERTEX
  8
SILK_TOP_ART
 10
49.6203
 20
9.76
 30
0.00
  0
VERTEX
  8
SILK_TOP_ART
 10
49.6337
 20
9.89
 30
0.00
  0
VERTEX
  8
SILK_TOP_ART
 10
49.607
 20
10.0416
 30
0.00
  0
VERTEX
  8
SILK_TOP_ART
 10
49.5137
 20
10.15
 30
0.00
  0
VERTEX
  8
SILK_TOP_ART
 10
49.4203
 20
10.1933
 30
0.00
  0
VERTEX
  8
SILK_TOP_ART
 10
49.3003
 20
10.1933
 30
0.00
  0
SEQEND
  0
POLYLINE
  8
SILK_TOP_ART
 66
1
 10
0.00
 20
0.00
 30
0.00
 40
0.2032
 41
0.2032
  0
VERTEX
  8
SILK_TOP_ART
 10
49.4203
 20
10.1933
 30
0.00
  0
VERTEX
  8
SILK_TOP_ART
 10
49.5003
 20
10.2583
 30
0.00
  0
VERTEX
  8
SILK_TOP_ART
 10
49.567
 20
10.3666
 30
0.00
  0
VERTEX
  8
SILK_TOP_ART
 10
49.5937
 20
10.4967
 30
0.00
  0
VERTEX
  8
SILK_TOP_ART
 10
49.567
 20
10.6267
 30
0.00
  0
VERTEX
  8
SILK_TOP_ART
 10
49.5003
 20
10.735
 30
0.00
  0
VERTEX
  8
SILK_TOP_ART
 10
49.3803
 20
10.80
 30
0.00
  0
VERTEX
  8
SILK_TOP_ART
 10
49.2603
 20
10.7783
 30
0.00
  0
VERTEX
  8
SILK_TOP_ART
 10
49.1403
 20
10.6917
 30
0.00
  0
SEQEND
  0
POLYLINE
  8
SILK_TOP_ART
 66
1
 10
0.00
 20
0.00
 30
0.00
 40
0.2032
 41
0.2032
  0
VERTEX
  8
SILK_TOP_ART
 10
48.111
 20
23.143
 30
0.00
  0
VERTEX
  8
SILK_TOP_ART
 10
48.111
 20
23.651
 30
0.00
  0
VERTEX
  8
SILK_TOP_ART
 10
48.492
 20
23.651
 30
0.00
  0
SEQEND
  0
POLYLINE
  8
SILK_TOP_ART
 66
1
 10
0.00
 20
0.00
 30
0.00
 40
0.2032
 41
0.2032
  0
VERTEX
  8
SILK_TOP_ART
 10
49.889
 20
20.857
 30
0.00
  0
VERTEX
  8
SILK_TOP_ART
 10
49.889
 20
20.349
 30
0.00
  0
VERTEX
  8
SILK_TOP_ART
 10
49.508
 20
20.349
 30
0.00
  0
SEQEND
  0
POLYLINE
  8
SILK_TOP_ART
 66
1
 10
0.00
 20
0.00
 30
0.00
 40
0.2032
 41
0.2032
  0
VERTEX
  8
SILK_TOP_ART
 10
49.508
 20
23.651
 30
0.00
  0
VERTEX
  8
SILK_TOP_ART
 10
49.889
 20
23.651
 30
0.00
  0
VERTEX
  8
SILK_TOP_ART
 10
49.889
 20
23.143
 30
0.00
  0
SEQEND
  0
POLYLINE
  8
SILK_TOP_ART
 66
1
 10
0.00
 20
0.00
 30
0.00
 40
0.2032
 41
0.2032
  0
VERTEX
  8
SILK_TOP_ART
 10
48.492
 20
20.349
 30
0.00
  0
VERTEX
  8
SILK_TOP_ART
 10
48.111
 20
20.349
 30
0.00
  0
VERTEX
  8
SILK_TOP_ART
 10
48.111
 20
20.857
 30
0.00
  0
SEQEND
  0
POLYLINE
  8
SILK_TOP_ART
 66
1
 10
0.00
 20
0.00
 30
0.00
 40
0.2032
 41
0.2032
  0
VERTEX
  8
SILK_TOP_ART
 10
55.6333
 20
9.50
 30
0.00
  0
VERTEX
  8
SILK_TOP_ART
 10
55.6333
 20
10.80
 30
0.00
  0
VERTEX
  8
SILK_TOP_ART
 10
55.9667
 20
10.80
 30
0.00
  0
VERTEX
  8
SILK_TOP_ART
 10
56.0733
 20
10.735
 30
0.00
  0
VERTEX
  8
SILK_TOP_ART
 10
56.14
 20
10.6483
 30
0.00
  0
VERTEX
  8
SILK_TOP_ART
 10
56.1667
 20
10.475
 30
0.00
  0
VERTEX
  8
SILK_TOP_ART
 10
56.14
 20
10.3017
 30
0.00
  0
VERTEX
  8
SILK_TOP_ART
 10
56.06
 20
10.1933
 30
0.00
  0
VERTEX
  8
SILK_TOP_ART
 10
55.9667
 20
10.1283
 30
0.00
  0
VERTEX
  8
SILK_TOP_ART
 10
55.6333
 20
10.1283
 30
0.00
  0
SEQEND
  0
POLYLINE
  8
SILK_TOP_ART
 66
1
 10
0.00
 20
0.00
 30
0.00
 40
0.2032
 41
0.2032
  0
VERTEX
  8
SILK_TOP_ART
 10
55.9667
 20
10.1283
 30
0.00
  0
VERTEX
  8
SILK_TOP_ART
 10
56.1667
 20
9.50
 30
0.00
  0
SEQEND
  0
POLYLINE
  8
SILK_TOP_ART
 66
1
 10
0.00
 20
0.00
 30
0.00
 40
0.2032
 41
0.2032
  0
VERTEX
  8
SILK_TOP_ART
 10
56.827
 20
9.50
 30
0.00
  0
VERTEX
  8
SILK_TOP_ART
 10
56.827
 20
10.80
 30
0.00
  0
VERTEX
  8
SILK_TOP_ART
 10
56.667
 20
10.54
 30
0.00
  0
SEQEND
  0
POLYLINE
  8
SILK_TOP_ART
 66
1
 10
0.00
 20
0.00
 30
0.00
 40
0.2032
 41
0.2032
  0
VERTEX
  8
SILK_TOP_ART
 10
56.667
 20
9.50
 30
0.00
  0
VERTEX
  8
SILK_TOP_ART
 10
56.987
 20
9.50
 30
0.00
  0
SEQEND
  0
POLYLINE
  8
SILK_TOP_ART
 66
1
 10
0.00
 20
0.00
 30
0.00
 40
0.2032
 41
0.2032
  0
VERTEX
  8
SILK_TOP_ART
 10
55.111
 20
23.143
 30
0.00
  0
VERTEX
  8
SILK_TOP_ART
 10
55.111
 20
23.651
 30
0.00
  0
VERTEX
  8
SILK_TOP_ART
 10
55.492
 20
23.651
 30
0.00
  0
SEQEND
  0
POLYLINE
  8
SILK_TOP_ART
 66
1
 10
0.00
 20
0.00
 30
0.00
 40
0.2032
 41
0.2032
  0
VERTEX
  8
SILK_TOP_ART
 10
56.889
 20
20.857
 30
0.00
  0
VERTEX
  8
SILK_TOP_ART
 10
56.889
 20
20.349
 30
0.00
  0
VERTEX
  8
SILK_TOP_ART
 10
56.508
 20
20.349
 30
0.00
  0
SEQEND
  0
POLYLINE
  8
SILK_TOP_ART
 66
1
 10
0.00
 20
0.00
 30
0.00
 40
0.2032
 41
0.2032
  0
VERTEX
  8
SILK_TOP_ART
 10
56.508
 20
23.651
 30
0.00
  0
VERTEX
  8
SILK_TOP_ART
 10
56.889
 20
23.651
 30
0.00
  0
VERTEX
  8
SILK_TOP_ART
 10
56.889
 20
23.143
 30
0.00
  0
SEQEND
  0
POLYLINE
  8
SILK_TOP_ART
 66
1
 10
0.00
 20
0.00
 30
0.00
 40
0.2032
 41
0.2032
  0
VERTEX
  8
SILK_TOP_ART
 10
55.492
 20
20.349
 30
0.00
  0
VERTEX
  8
SILK_TOP_ART
 10
55.111
 20
20.349
 30
0.00
  0
VERTEX
  8
SILK_TOP_ART
 10
55.111
 20
20.857
 30
0.00
  0
SEQEND
  0
POLYLINE
  8
SILK_TOP_ART
 66
1
 10
0.00
 20
0.00
 30
0.00
 40
0.2032
 41
0.2032
  0
VERTEX
  8
SILK_TOP_ART
 10
59.1333
 20
16.00
 30
0.00
  0
VERTEX
  8
SILK_TOP_ART
 10
59.1333
 20
17.30
 30
0.00
  0
VERTEX
  8
SILK_TOP_ART
 10
59.4667
 20
17.30
 30
0.00
  0
VERTEX
  8
SILK_TOP_ART
 10
59.5733
 20
17.235
 30
0.00
  0
VERTEX
  8
SILK_TOP_ART
 10
59.64
 20
17.1483
 30
0.00
  0
VERTEX
  8
SILK_TOP_ART
 10
59.6667
 20
16.975
 30
0.00
  0
VERTEX
  8
SILK_TOP_ART
 10
59.64
 20
16.8017
 30
0.00
  0
VERTEX
  8
SILK_TOP_ART
 10
59.56
 20
16.6933
 30
0.00
  0
VERTEX
  8
SILK_TOP_ART
 10
59.4667
 20
16.6283
 30
0.00
  0
VERTEX
  8
SILK_TOP_ART
 10
59.1333
 20
16.6283
 30
0.00
  0
SEQEND
  0
POLYLINE
  8
SILK_TOP_ART
 66
1
 10
0.00
 20
0.00
 30
0.00
 40
0.2032
 41
0.2032
  0
VERTEX
  8
SILK_TOP_ART
 10
59.4667
 20
16.6283
 30
0.00
  0
VERTEX
  8
SILK_TOP_ART
 10
59.6667
 20
16.00
 30
0.00
  0
SEQEND
  0
POLYLINE
  8
SILK_TOP_ART
 66
1
 10
0.00
 20
0.00
 30
0.00
 40
0.2032
 41
0.2032
  0
VERTEX
  8
SILK_TOP_ART
 10
60.0737
 20
17.0833
 30
0.00
  0
VERTEX
  8
SILK_TOP_ART
 10
60.1537
 20
17.2133
 30
0.00
  0
VERTEX
  8
SILK_TOP_ART
 10
60.247
 20
17.2783
 30
0.00
  0
VERTEX
  8
SILK_TOP_ART
 10
60.3537
 20
17.30
 30
0.00
  0
VERTEX
  8
SILK_TOP_ART
 10
60.487
 20
17.2567
 30
0.00
  0
VERTEX
  8
SILK_TOP_ART
 10
60.5803
 20
17.1483
 30
0.00
  0
VERTEX
  8
SILK_TOP_ART
 10
60.607
 20
17.0184
 30
0.00
  0
VERTEX
  8
SILK_TOP_ART
 10
60.5937
 20
16.8883
 30
0.00
  0
VERTEX
  8
SILK_TOP_ART
 10
60.5403
 20
16.78
 30
0.00
  0
VERTEX
  8
SILK_TOP_ART
 10
60.2737
 20
16.5633
 30
0.00
  0
VERTEX
  8
SILK_TOP_ART
 10
60.1537
 20
16.4117
 30
0.00
  0
VERTEX
  8
SILK_TOP_ART
 10
60.0737
 20
16.195
 30
0.00
  0
VERTEX
  8
SILK_TOP_ART
 10
60.047
 20
16.00
 30
0.00
  0
VERTEX
  8
SILK_TOP_ART
 10
60.607
 20
16.00
 30
0.00
  0
SEQEND
  0
POLYLINE
  8
SILK_TOP_ART
 66
1
 10
0.00
 20
0.00
 30
0.00
 40
0.2032
 41
0.2032
  0
VERTEX
  8
SILK_TOP_ART
 10
66.40
 20
54.30
 30
0.00
  0
VERTEX
  8
SILK_TOP_ART
 10
66.40
 20
53.00
 30
0.00
  0
SEQEND
  0
POLYLINE
  8
SILK_TOP_ART
 66
1
 10
0.00
 20
0.00
 30
0.00
 40
0.2032
 41
0.2032
  0
VERTEX
  8
SILK_TOP_ART
 10
66.0933
 20
54.30
 30
0.00
  0
VERTEX
  8
SILK_TOP_ART
 10
66.7067
 20
54.30
 30
0.00
  0
SEQEND
  0
POLYLINE
  8
SILK_TOP_ART
 66
1
 10
0.00
 20
0.00
 30
0.00
 40
0.2032
 41
0.2032
  0
VERTEX
  8
SILK_TOP_ART
 10
67.0337
 20
53.26
 30
0.00
  0
VERTEX
  8
SILK_TOP_ART
 10
67.1137
 20
53.1083
 30
0.00
  0
VERTEX
  8
SILK_TOP_ART
 10
67.2203
 20
53.0217
 30
0.00
  0
VERTEX
  8
SILK_TOP_ART
 10
67.3403
 20
53.00
 30
0.00
  0
VERTEX
  8
SILK_TOP_ART
 10
67.447
 20
53.0217
 30
0.00
  0
VERTEX
  8
SILK_TOP_ART
 10
67.5537
 20
53.13
 30
0.00
  0
VERTEX
  8
SILK_TOP_ART
 10
67.6203
 20
53.26
 30
0.00
  0
VERTEX
  8
SILK_TOP_ART
 10
67.6337
 20
53.39
 30
0.00
  0
VERTEX
  8
SILK_TOP_ART
 10
67.607
 20
53.5416
 30
0.00
  0
VERTEX
  8
SILK_TOP_ART
 10
67.5137
 20
53.65
 30
0.00
  0
VERTEX
  8
SILK_TOP_ART
 10
67.4203
 20
53.6933
 30
0.00
  0
VERTEX
  8
SILK_TOP_ART
 10
67.3003
 20
53.6933
 30
0.00
  0
SEQEND
  0
POLYLINE
  8
SILK_TOP_ART
 66
1
 10
0.00
 20
0.00
 30
0.00
 40
0.2032
 41
0.2032
  0
VERTEX
  8
SILK_TOP_ART
 10
67.4203
 20
53.6933
 30
0.00
  0
VERTEX
  8
SILK_TOP_ART
 10
67.5003
 20
53.7583
 30
0.00
  0
VERTEX
  8
SILK_TOP_ART
 10
67.567
 20
53.8666
 30
0.00
  0
VERTEX
  8
SILK_TOP_ART
 10
67.5937
 20
53.9967
 30
0.00
  0
VERTEX
  8
SILK_TOP_ART
 10
67.567
 20
54.1267
 30
0.00
  0
VERTEX
  8
SILK_TOP_ART
 10
67.5003
 20
54.235
 30
0.00
  0
VERTEX
  8
SILK_TOP_ART
 10
67.3803
 20
54.30
 30
0.00
  0
VERTEX
  8
SILK_TOP_ART
 10
67.2603
 20
54.2783
 30
0.00
  0
VERTEX
  8
SILK_TOP_ART
 10
67.1403
 20
54.1917
 30
0.00
  0
SEQEND
  0
POLYLINE
  8
SILK_TOP_ART
 66
1
 10
0.00
 20
0.00
 30
0.00
 40
0.2032
 41
0.2032
  0
VERTEX
  8
SILK_TOP_ART
 10
84.258
 20
23.603
 30
0.00
  0
VERTEX
  8
SILK_TOP_ART
 10
83.242
 20
23.603
 30
0.00
  0
SEQEND
  0
POLYLINE
  8
SILK_TOP_ART
 66
1
 10
0.00
 20
0.00
 30
0.00
 40
0.2032
 41
0.2032
  0
VERTEX
  8
SILK_TOP_ART
 10
84.00
 20
21.1067
 30
0.00
  0
VERTEX
  8
SILK_TOP_ART
 10
82.70
 20
21.1067
 30
0.00
  0
VERTEX
  8
SILK_TOP_ART
 10
82.70
 20
21.3733
 30
0.00
  0
VERTEX
  8
SILK_TOP_ART
 10
82.765
 20
21.48
 30
0.00
  0
VERTEX
  8
SILK_TOP_ART
 10
82.8517
 20
21.56
 30
0.00
  0
VERTEX
  8
SILK_TOP_ART
 10
82.9816
 20
21.6267
 30
0.00
  0
VERTEX
  8
SILK_TOP_ART
 10
83.1334
 20
21.68
 30
0.00
  0
VERTEX
  8
SILK_TOP_ART
 10
83.35
 20
21.6933
 30
0.00
  0
VERTEX
  8
SILK_TOP_ART
 10
83.5667
 20
21.68
 30
0.00
  0
VERTEX
  8
SILK_TOP_ART
 10
83.7184
 20
21.6267
 30
0.00
  0
VERTEX
  8
SILK_TOP_ART
 10
83.8484
 20
21.56
 30
0.00
  0
VERTEX
  8
SILK_TOP_ART
 10
83.935
 20
21.48
 30
0.00
  0
VERTEX
  8
SILK_TOP_ART
 10
84.00
 20
21.3733
 30
0.00
  0
VERTEX
  8
SILK_TOP_ART
 10
84.00
 20
21.1067
 30
0.00
  0
SEQEND
  0
POLYLINE
  8
SILK_TOP_ART
 66
1
 10
0.00
 20
0.00
 30
0.00
 40
0.2032
 41
0.2032
  0
VERTEX
  8
SILK_TOP_ART
 10
84.00
 20
22.327
 30
0.00
  0
VERTEX
  8
SILK_TOP_ART
 10
82.70
 20
22.327
 30
0.00
  0
VERTEX
  8
SILK_TOP_ART
 10
82.96
 20
22.167
 30
0.00
  0
SEQEND
  0
POLYLINE
  8
SILK_TOP_ART
 66
1
 10
0.00
 20
0.00
 30
0.00
 40
0.2032
 41
0.2032
  0
VERTEX
  8
SILK_TOP_ART
 10
84.00
 20
22.167
 30
0.00
  0
VERTEX
  8
SILK_TOP_ART
 10
84.00
 20
22.487
 30
0.00
  0
SEQEND
  0
POLYLINE
  8
SILK_TOP_ART
 66
1
 10
0.00
 20
0.00
 30
0.00
 40
0.2032
 41
0.2032
  0
VERTEX
  8
SILK_TOP_ART
 10
82.00
 20
21.6333
 30
0.00
  0
VERTEX
  8
SILK_TOP_ART
 10
80.70
 20
21.6333
 30
0.00
  0
VERTEX
  8
SILK_TOP_ART
 10
80.70
 20
21.9533
 30
0.00
  0
VERTEX
  8
SILK_TOP_ART
 10
80.765
 20
22.06
 30
0.00
  0
VERTEX
  8
SILK_TOP_ART
 10
80.9167
 20
22.14
 30
0.00
  0
VERTEX
  8
SILK_TOP_ART
 10
81.09
 20
22.1667
 30
0.00
  0
VERTEX
  8
SILK_TOP_ART
 10
81.2633
 20
22.14
 30
0.00
  0
VERTEX
  8
SILK_TOP_ART
 10
81.3933
 20
22.0733
 30
0.00
  0
VERTEX
  8
SILK_TOP_ART
 10
81.4584
 20
21.9533
 30
0.00
  0
VERTEX
  8
SILK_TOP_ART
 10
81.4584
 20
21.6333
 30
0.00
  0
SEQEND
  0
POLYLINE
  8
SILK_TOP_ART
 66
1
 10
0.00
 20
0.00
 30
0.00
 40
0.2032
 41
0.2032
  0
VERTEX
  8
SILK_TOP_ART
 10
82.00
 20
22.827
 30
0.00
  0
VERTEX
  8
SILK_TOP_ART
 10
81.9783
 20
22.7203
 30
0.00
  0
VERTEX
  8
SILK_TOP_ART
 10
81.8917
 20
22.627
 30
0.00
  0
VERTEX
  8
SILK_TOP_ART
 10
81.7617
 20
22.547
 30
0.00
  0
VERTEX
  8
SILK_TOP_ART
 10
81.61
 20
22.4937
 30
0.00
  0
VERTEX
  8
SILK_TOP_ART
 10
81.4367
 20
22.467
 30
0.00
  0
VERTEX
  8
SILK_TOP_ART
 10
81.2633
 20
22.467
 30
0.00
  0
VERTEX
  8
SILK_TOP_ART
 10
81.09
 20
22.4937
 30
0.00
  0
VERTEX
  8
SILK_TOP_ART
 10
80.9383
 20
22.547
 30
0.00
  0
VERTEX
  8
SILK_TOP_ART
 10
80.8083
 20
22.627
 30
0.00
  0
VERTEX
  8
SILK_TOP_ART
 10
80.7217
 20
22.7203
 30
0.00
  0
VERTEX
  8
SILK_TOP_ART
 10
80.70
 20
22.827
 30
0.00
  0
VERTEX
  8
SILK_TOP_ART
 10
80.7217
 20
22.9337
 30
0.00
  0
VERTEX
  8
SILK_TOP_ART
 10
80.8083
 20
23.027
 30
0.00
  0
VERTEX
  8
SILK_TOP_ART
 10
80.9383
 20
23.107
 30
0.00
  0
VERTEX
  8
SILK_TOP_ART
 10
81.09
 20
23.1603
 30
0.00
  0
VERTEX
  8
SILK_TOP_ART
 10
81.2633
 20
23.187
 30
0.00
  0
VERTEX
  8
SILK_TOP_ART
 10
81.4367
 20
23.187
 30
0.00
  0
VERTEX
  8
SILK_TOP_ART
 10
81.61
 20
23.1603
 30
0.00
  0
VERTEX
  8
SILK_TOP_ART
 10
81.7617
 20
23.107
 30
0.00
  0
VERTEX
  8
SILK_TOP_ART
 10
81.8917
 20
23.027
 30
0.00
  0
VERTEX
  8
SILK_TOP_ART
 10
81.9783
 20
22.9337
 30
0.00
  0
VERTEX
  8
SILK_TOP_ART
 10
82.00
 20
22.827
 30
0.00
  0
SEQEND
  0
POLYLINE
  8
SILK_TOP_ART
 66
1
 10
0.00
 20
0.00
 30
0.00
 40
0.2032
 41
0.2032
  0
VERTEX
  8
SILK_TOP_ART
 10
80.70
 20
23.354
 30
0.00
  0
VERTEX
  8
SILK_TOP_ART
 10
82.00
 20
23.5407
 30
0.00
  0
VERTEX
  8
SILK_TOP_ART
 10
80.70
 20
23.754
 30
0.00
  0
VERTEX
  8
SILK_TOP_ART
 10
82.00
 20
23.9673
 30
0.00
  0
VERTEX
  8
SILK_TOP_ART
 10
80.70
 20
24.154
 30
0.00
  0
SEQEND
  0
POLYLINE
  8
SILK_TOP_ART
 66
1
 10
0.00
 20
0.00
 30
0.00
 40
0.2032
 41
0.2032
  0
VERTEX
  8
SILK_TOP_ART
 10
82.00
 20
24.9477
 30
0.00
  0
VERTEX
  8
SILK_TOP_ART
 10
82.00
 20
24.4143
 30
0.00
  0
VERTEX
  8
SILK_TOP_ART
 10
80.70
 20
24.4143
 30
0.00
  0
VERTEX
  8
SILK_TOP_ART
 10
80.70
 20
24.9477
 30
0.00
  0
SEQEND
  0
POLYLINE
  8
SILK_TOP_ART
 66
1
 10
0.00
 20
0.00
 30
0.00
 40
0.2032
 41
0.2032
  0
VERTEX
  8
SILK_TOP_ART
 10
81.3283
 20
24.7343
 30
0.00
  0
VERTEX
  8
SILK_TOP_ART
 10
81.3283
 20
24.4143
 30
0.00
  0
SEQEND
  0
POLYLINE
  8
SILK_TOP_ART
 66
1
 10
0.00
 20
0.00
 30
0.00
 40
0.2032
 41
0.2032
  0
VERTEX
  8
SILK_TOP_ART
 10
82.00
 20
25.3413
 30
0.00
  0
VERTEX
  8
SILK_TOP_ART
 10
80.70
 20
25.3413
 30
0.00
  0
VERTEX
  8
SILK_TOP_ART
 10
80.70
 20
25.6747
 30
0.00
  0
VERTEX
  8
SILK_TOP_ART
 10
80.765
 20
25.7813
 30
0.00
  0
VERTEX
  8
SILK_TOP_ART
 10
80.8517
 20
25.848
 30
0.00
  0
VERTEX
  8
SILK_TOP_ART
 10
81.025
 20
25.8747
 30
0.00
  0
VERTEX
  8
SILK_TOP_ART
 10
81.1983
 20
25.848
 30
0.00
  0
VERTEX
  8
SILK_TOP_ART
 10
81.3067
 20
25.768
 30
0.00
  0
VERTEX
  8
SILK_TOP_ART
 10
81.3717
 20
25.6747
 30
0.00
  0
VERTEX
  8
SILK_TOP_ART
 10
81.3717
 20
25.3413
 30
0.00
  0
SEQEND
  0
POLYLINE
  8
SILK_TOP_ART
 66
1
 10
0.00
 20
0.00
 30
0.00
 40
0.2032
 41
0.2032
  0
VERTEX
  8
SILK_TOP_ART
 10
81.3717
 20
25.6747
 30
0.00
  0
VERTEX
  8
SILK_TOP_ART
 10
82.00
 20
25.8747
 30
0.00
  0
SEQEND
  0
POLYLINE
  8
SILK_TOP_ART
 66
1
 10
0.00
 20
0.00
 30
0.00
 40
0.254
 41
0.254
  0
VERTEX
  8
SILK_TOP_ART
 10
2.27
 20
-3.16
 30
0.00
  0
VERTEX
  8
SILK_TOP_ART
 10
1.00
 20
-3.16
 30
0.00
  0
VERTEX
  8
SILK_TOP_ART
 10
1.00
 20
-1.89
 30
0.00
  0
SEQEND
  0
POLYLINE
  8
SILK_TOP_ART
 66
1
 10
0.00
 20
0.00
 30
0.00
 40
0.254
 41
0.254
  0
VERTEX
  8
SILK_TOP_ART
 10
1.00
 20
15.89
 30
0.00
  0
VERTEX
  8
SILK_TOP_ART
 10
1.00
 20
17.16
 30
0.00
  0
VERTEX
  8
SILK_TOP_ART
 10
2.27
 20
17.16
 30
0.00
  0
SEQEND
  0
POLYLINE
  8
SILK_TOP_ART
 66
1
 10
0.00
 20
0.00
 30
0.00
 40
0.254
 41
0.254
  0
VERTEX
  8
SILK_TOP_ART
 10
2.27
 20
26.84
 30
0.00
  0
VERTEX
  8
SILK_TOP_ART
 10
1.00
 20
26.84
 30
0.00
  0
VERTEX
  8
SILK_TOP_ART
 10
1.00
 20
28.11
 30
0.00
  0
SEQEND
  0
POLYLINE
  8
SILK_TOP_ART
 66
1
 10
0.00
 20
0.00
 30
0.00
 40
0.254
 41
0.254
  0
VERTEX
  8
SILK_TOP_ART
 10
1.00
 20
45.89
 30
0.00
  0
VERTEX
  8
SILK_TOP_ART
 10
1.00
 20
47.0951
 30
0.00
  0
SEQEND
  0
POLYLINE
  8
SILK_TOP_ART
 66
1
 10
0.00
 20
0.00
 30
0.00
 40
0.254
 41
0.254
  0
VERTEX
  8
SILK_TOP_ART
 10
13.70
 20
-1.89
 30
0.00
  0
VERTEX
  8
SILK_TOP_ART
 10
13.70
 20
-3.16
 30
0.00
  0
VERTEX
  8
SILK_TOP_ART
 10
12.43
 20
-3.16
 30
0.00
  0
SEQEND
  0
POLYLINE
  8
SILK_TOP_ART
 66
1
 10
0.00
 20
0.00
 30
0.00
 40
0.254
 41
0.254
  0
VERTEX
  8
SILK_TOP_ART
 10
14.97
 20
0.65
 30
0.00
  0
VERTEX
  8
SILK_TOP_ART
 10
13.70
 20
0.65
 30
0.00
  0
VERTEX
  8
SILK_TOP_ART
 10
13.70
 20
-0.62
 30
0.00
  0
SEQEND
  0
POLYLINE
  8
SILK_TOP_ART
 66
1
 10
0.00
 20
0.00
 30
0.00
 40
0.254
 41
0.254
  0
VERTEX
  8
SILK_TOP_ART
 10
20.05
 20
1.92
 30
0.00
  0
VERTEX
  8
SILK_TOP_ART
 10
20.05
 20
0.65
 30
0.00
  0
VERTEX
  8
SILK_TOP_ART
 10
18.78
 20
0.65
 30
0.00
  0
SEQEND
  0
POLYLINE
  8
SILK_TOP_ART
 66
1
 10
0.00
 20
0.00
 30
0.00
 40
0.254
 41
0.254
  0
VERTEX
  8
SILK_TOP_ART
 10
13.70
 20
15.89
 30
0.00
  0
VERTEX
  8
SILK_TOP_ART
 10
13.70
 20
17.16
 30
0.00
  0
VERTEX
  8
SILK_TOP_ART
 10
12.43
 20
17.16
 30
0.00
  0
SEQEND
  0
POLYLINE
  8
SILK_TOP_ART
 66
1
 10
0.00
 20
0.00
 30
0.00
 40
0.254
 41
0.254
  0
VERTEX
  8
SILK_TOP_ART
 10
14.97
 20
13.35
 30
0.00
  0
VERTEX
  8
SILK_TOP_ART
 10
13.70
 20
13.35
 30
0.00
  0
VERTEX
  8
SILK_TOP_ART
 10
13.70
 20
14.62
 30
0.00
  0
SEQEND
  0
POLYLINE
  8
SILK_TOP_ART
 66
1
 10
0.00
 20
0.00
 30
0.00
 40
0.254
 41
0.254
  0
VERTEX
  8
SILK_TOP_ART
 10
20.05
 20
12.08
 30
0.00
  0
VERTEX
  8
SILK_TOP_ART
 10
20.05
 20
13.35
 30
0.00
  0
VERTEX
  8
SILK_TOP_ART
 10
18.78
 20
13.35
 30
0.00
  0
SEQEND
  0
POLYLINE
  8
SILK_TOP_ART
 66
1
 10
0.00
 20
0.00
 30
0.00
 40
0.254
 41
0.254
  0
VERTEX
  8
SILK_TOP_ART
 10
13.70
 20
28.11
 30
0.00
  0
VERTEX
  8
SILK_TOP_ART
 10
13.70
 20
26.84
 30
0.00
  0
VERTEX
  8
SILK_TOP_ART
 10
12.43
 20
26.84
 30
0.00
  0
SEQEND
  0
POLYLINE
  8
SILK_TOP_ART
 66
1
 10
0.00
 20
0.00
 30
0.00
 40
0.254
 41
0.254
  0
VERTEX
  8
SILK_TOP_ART
 10
14.97
 20
30.65
 30
0.00
  0
VERTEX
  8
SILK_TOP_ART
 10
13.70
 20
30.65
 30
0.00
  0
VERTEX
  8
SILK_TOP_ART
 10
13.70
 20
29.38
 30
0.00
  0
SEQEND
  0
POLYLINE
  8
SILK_TOP_ART
 66
1
 10
0.00
 20
0.00
 30
0.00
 40
0.254
 41
0.254
  0
VERTEX
  8
SILK_TOP_ART
 10
20.05
 20
31.92
 30
0.00
  0
VERTEX
  8
SILK_TOP_ART
 10
20.05
 20
30.65
 30
0.00
  0
VERTEX
  8
SILK_TOP_ART
 10
18.78
 20
30.65
 30
0.00
  0
SEQEND
  0
POLYLINE
  8
SILK_TOP_ART
 66
1
 10
0.00
 20
0.00
 30
0.00
 40
0.254
 41
0.254
  0
VERTEX
  8
SILK_TOP_ART
 10
13.70
 20
45.89
 30
0.00
  0
VERTEX
  8
SILK_TOP_ART
 10
13.70
 20
47.16
 30
0.00
  0
VERTEX
  8
SILK_TOP_ART
 10
12.43
 20
47.16
 30
0.00
  0
SEQEND
  0
POLYLINE
  8
SILK_TOP_ART
 66
1
 10
0.00
 20
0.00
 30
0.00
 40
0.254
 41
0.254
  0
VERTEX
  8
SILK_TOP_ART
 10
14.97
 20
43.35
 30
0.00
  0
VERTEX
  8
SILK_TOP_ART
 10
13.70
 20
43.35
 30
0.00
  0
VERTEX
  8
SILK_TOP_ART
 10
13.70
 20
44.62
 30
0.00
  0
SEQEND
  0
POLYLINE
  8
SILK_TOP_ART
 66
1
 10
0.00
 20
0.00
 30
0.00
 40
0.254
 41
0.254
  0
VERTEX
  8
SILK_TOP_ART
 10
20.05
 20
42.08
 30
0.00
  0
VERTEX
  8
SILK_TOP_ART
 10
20.05
 20
43.35
 30
0.00
  0
VERTEX
  8
SILK_TOP_ART
 10
18.78
 20
43.35
 30
0.00
  0
SEQEND
  0
POLYLINE
  8
SILK_TOP_ART
 66
1
 10
0.00
 20
0.00
 30
0.00
 40
0.254
 41
0.254
  0
VERTEX
  8
SILK_TOP_ART
 10
49.00
 20
14.15
 30
0.00
  0
VERTEX
  8
SILK_TOP_ART
 10
49.00
 20
15.42
 30
0.00
  0
SEQEND
  0
POLYLINE
  8
SILK_TOP_ART
 66
1
 10
0.00
 20
0.00
 30
0.00
 40
0.254
 41
0.254
  0
VERTEX
  8
SILK_TOP_ART
 10
47.73
 20
15.42
 30
0.00
  0
VERTEX
  8
SILK_TOP_ART
 10
50.27
 20
15.42
 30
0.00
  0
VERTEX
  8
SILK_TOP_ART
 10
50.27
 20
25.58
 30
0.00
  0
VERTEX
  8
SILK_TOP_ART
 10
47.73
 20
25.58
 30
0.00
  0
VERTEX
  8
SILK_TOP_ART
 10
47.73
 20
15.42
 30
0.00
  0
SEQEND
  0
POLYLINE
  8
SILK_TOP_ART
 66
1
 10
0.00
 20
0.00
 30
0.00
 40
0.254
 41
0.254
  0
VERTEX
  8
SILK_TOP_ART
 10
43.73
 20
18.19
 30
0.00
  0
VERTEX
  8
SILK_TOP_ART
 10
46.27
 20
18.19
 30
0.00
  0
VERTEX
  8
SILK_TOP_ART
 10
46.27
 20
25.81
 30
0.00
  0
VERTEX
  8
SILK_TOP_ART
 10
43.73
 20
25.81
 30
0.00
  0
VERTEX
  8
SILK_TOP_ART
 10
43.73
 20
18.19
 30
0.00
  0
SEQEND
  0
POLYLINE
  8
SILK_TOP_ART
 66
1
 10
0.00
 20
0.00
 30
0.00
 40
0.254
 41
0.254
  0
VERTEX
  8
SILK_TOP_ART
 10
45.254
 20
22.00
 30
0.00
  0
VERTEX
  8
SILK_TOP_ART
 10
45.508
 20
22.00
 30
0.00
  0
SEQEND
  0
POLYLINE
  8
SILK_TOP_ART
 66
1
 10
0.00
 20
0.00
 30
0.00
 40
0.254
 41
0.254
  0
VERTEX
  8
SILK_TOP_ART
 10
44.492
 20
22.00
 30
0.00
  0
VERTEX
  8
SILK_TOP_ART
 10
44.746
 20
22.00
 30
0.00
  0
SEQEND
  0
POLYLINE
  8
SILK_TOP_ART
 66
1
 10
0.00
 20
0.00
 30
0.00
 40
0.254
 41
0.254
  0
VERTEX
  8
SILK_TOP_ART
 10
49.00
 20
25.58
 30
0.00
  0
VERTEX
  8
SILK_TOP_ART
 10
49.00
 20
26.85
 30
0.00
  0
SEQEND
  0
POLYLINE
  8
SILK_TOP_ART
 66
1
 10
0.00
 20
0.00
 30
0.00
 40
0.254
 41
0.254
  0
VERTEX
  8
SILK_TOP_ART
 10
56.00
 20
14.15
 30
0.00
  0
VERTEX
  8
SILK_TOP_ART
 10
56.00
 20
15.42
 30
0.00
  0
SEQEND
  0
POLYLINE
  8
SILK_TOP_ART
 66
1
 10
0.00
 20
0.00
 30
0.00
 40
0.254
 41
0.254
  0
VERTEX
  8
SILK_TOP_ART
 10
54.73
 20
15.42
 30
0.00
  0
VERTEX
  8
SILK_TOP_ART
 10
57.27
 20
15.42
 30
0.00
  0
VERTEX
  8
SILK_TOP_ART
 10
57.27
 20
25.58
 30
0.00
  0
VERTEX
  8
SILK_TOP_ART
 10
54.73
 20
25.58
 30
0.00
  0
VERTEX
  8
SILK_TOP_ART
 10
54.73
 20
15.42
 30
0.00
  0
SEQEND
  0
POLYLINE
  8
SILK_TOP_ART
 66
1
 10
0.00
 20
0.00
 30
0.00
 40
0.254
 41
0.254
  0
VERTEX
  8
SILK_TOP_ART
 10
56.00
 20
25.58
 30
0.00
  0
VERTEX
  8
SILK_TOP_ART
 10
56.00
 20
26.85
 30
0.00
  0
SEQEND
  0
POLYLINE
  8
SILK_TOP_ART
 66
1
 10
0.00
 20
0.00
 30
0.00
 40
0.254
 41
0.254
  0
VERTEX
  8
SILK_TOP_ART
 10
58.73
 20
18.19
 30
0.00
  0
VERTEX
  8
SILK_TOP_ART
 10
61.27
 20
18.19
 30
0.00
  0
VERTEX
  8
SILK_TOP_ART
 10
61.27
 20
25.81
 30
0.00
  0
VERTEX
  8
SILK_TOP_ART
 10
58.73
 20
25.81
 30
0.00
  0
VERTEX
  8
SILK_TOP_ART
 10
58.73
 20
18.19
 30
0.00
  0
SEQEND
  0
POLYLINE
  8
SILK_TOP_ART
 66
1
 10
0.00
 20
0.00
 30
0.00
 40
0.254
 41
0.254
  0
VERTEX
  8
SILK_TOP_ART
 10
60.254
 20
22.00
 30
0.00
  0
VERTEX
  8
SILK_TOP_ART
 10
60.508
 20
22.00
 30
0.00
  0
SEQEND
  0
POLYLINE
  8
SILK_TOP_ART
 66
1
 10
0.00
 20
0.00
 30
0.00
 40
0.254
 41
0.254
  0
VERTEX
  8
SILK_TOP_ART
 10
59.492
 20
22.00
 30
0.00
  0
VERTEX
  8
SILK_TOP_ART
 10
59.746
 20
22.00
 30
0.00
  0
SEQEND
  0
POLYLINE
  8
SILK_TOP_ART
 66
1
 10
0.00
 20
0.00
 30
0.00
 40
0.1524
 41
0.1524
  0
VERTEX
  8
SILK_TOP_ART
 10
44.0503
 20
32.3149
 30
0.00
  0
VERTEX
  8
SILK_TOP_ART
 10
43.9868
 20
32.3594
 30
0.00
  0
VERTEX
  8
SILK_TOP_ART
 10
43.9128
 20
32.389
 30
0.00
  0
VERTEX
  8
SILK_TOP_ART
 10
43.8281
 20
32.389
 30
0.00
  0
VERTEX
  8
SILK_TOP_ART
 10
43.7328
 20
32.3445
 30
0.00
  0
VERTEX
  8
SILK_TOP_ART
 10
43.6588
 20
32.2705
 30
0.00
  0
VERTEX
  8
SILK_TOP_ART
 10
43.6058
 20
32.1816
 30
0.00
  0
VERTEX
  8
SILK_TOP_ART
 10
43.5635
 20
32.0334
 30
0.00
  0
VERTEX
  8
SILK_TOP_ART
 10
43.5529
 20
31.90
 30
0.00
  0
VERTEX
  8
SILK_TOP_ART
 10
43.5741
 20
31.7667
 30
0.00
  0
VERTEX
  8
SILK_TOP_ART
 10
43.6058
 20
31.6778
 30
0.00
  0
VERTEX
  8
SILK_TOP_ART
 10
43.6693
 20
31.5889
 30
0.00
  0
VERTEX
  8
SILK_TOP_ART
 10
43.7434
 20
31.5296
 30
0.00
  0
VERTEX
  8
SILK_TOP_ART
 10
43.8175
 20
31.50
 30
0.00
  0
VERTEX
  8
SILK_TOP_ART
 10
43.8916
 20
31.50
 30
0.00
  0
VERTEX
  8
SILK_TOP_ART
 10
43.9657
 20
31.5296
 30
0.00
  0
VERTEX
  8
SILK_TOP_ART
 10
44.0292
 20
31.5741
 30
0.00
  0
VERTEX
  8
SILK_TOP_ART
 10
44.0821
 20
31.6333
 30
0.00
  0
SEQEND
  0
POLYLINE
  8
SILK_TOP_ART
 66
1
 10
0.00
 20
0.00
 30
0.00
 40
0.1524
 41
0.1524
  0
VERTEX
  8
SILK_TOP_ART
 10
44.2197
 20
31.6778
 30
0.00
  0
VERTEX
  8
SILK_TOP_ART
 10
44.2832
 20
31.5741
 30
0.00
  0
VERTEX
  8
SILK_TOP_ART
 10
44.3678
 20
31.5148
 30
0.00
  0
VERTEX
  8
SILK_TOP_ART
 10
44.4631
 20
31.50
 30
0.00
  0
VERTEX
  8
SILK_TOP_ART
 10
44.5478
 20
31.5148
 30
0.00
  0
VERTEX
  8
SILK_TOP_ART
 10
44.6324
 20
31.5889
 30
0.00
  0
VERTEX
  8
SILK_TOP_ART
 10
44.6853
 20
31.6778
 30
0.00
  0
VERTEX
  8
SILK_TOP_ART
 10
44.6959
 20
31.7667
 30
0.00
  0
VERTEX
  8
SILK_TOP_ART
 10
44.6748
 20
31.8704
 30
0.00
  0
VERTEX
  8
SILK_TOP_ART
 10
44.6007
 20
31.9445
 30
0.00
  0
VERTEX
  8
SILK_TOP_ART
 10
44.5266
 20
31.9741
 30
0.00
  0
VERTEX
  8
SILK_TOP_ART
 10
44.4313
 20
31.9741
 30
0.00
  0
SEQEND
  0
POLYLINE
  8
SILK_TOP_ART
 66
1
 10
0.00
 20
0.00
 30
0.00
 40
0.1524
 41
0.1524
  0
VERTEX
  8
SILK_TOP_ART
 10
44.5266
 20
31.9741
 30
0.00
  0
VERTEX
  8
SILK_TOP_ART
 10
44.5901
 20
32.0186
 30
0.00
  0
VERTEX
  8
SILK_TOP_ART
 10
44.643
 20
32.0926
 30
0.00
  0
VERTEX
  8
SILK_TOP_ART
 10
44.6642
 20
32.1816
 30
0.00
  0
VERTEX
  8
SILK_TOP_ART
 10
44.643
 20
32.2705
 30
0.00
  0
VERTEX
  8
SILK_TOP_ART
 10
44.5901
 20
32.3445
 30
0.00
  0
VERTEX
  8
SILK_TOP_ART
 10
44.4948
 20
32.389
 30
0.00
  0
VERTEX
  8
SILK_TOP_ART
 10
44.3996
 20
32.3742
 30
0.00
  0
VERTEX
  8
SILK_TOP_ART
 10
44.3043
 20
32.3149
 30
0.00
  0
SEQEND
  0
POLYLINE
  8
SILK_TOP_ART
 66
1
 10
0.00
 20
0.00
 30
0.00
 40
0.1524
 41
0.1524
  0
VERTEX
  8
SILK_TOP_ART
 10
45.5503
 20
32.3149
 30
0.00
  0
VERTEX
  8
SILK_TOP_ART
 10
45.4868
 20
32.3594
 30
0.00
  0
VERTEX
  8
SILK_TOP_ART
 10
45.4128
 20
32.389
 30
0.00
  0
VERTEX
  8
SILK_TOP_ART
 10
45.3281
 20
32.389
 30
0.00
  0
VERTEX
  8
SILK_TOP_ART
 10
45.2328
 20
32.3445
 30
0.00
  0
VERTEX
  8
SILK_TOP_ART
 10
45.1588
 20
32.2705
 30
0.00
  0
VERTEX
  8
SILK_TOP_ART
 10
45.1058
 20
32.1816
 30
0.00
  0
VERTEX
  8
SILK_TOP_ART
 10
45.0635
 20
32.0334
 30
0.00
  0
VERTEX
  8
SILK_TOP_ART
 10
45.0529
 20
31.90
 30
0.00
  0
VERTEX
  8
SILK_TOP_ART
 10
45.0741
 20
31.7667
 30
0.00
  0
VERTEX
  8
SILK_TOP_ART
 10
45.1058
 20
31.6778
 30
0.00
  0
VERTEX
  8
SILK_TOP_ART
 10
45.1693
 20
31.5889
 30
0.00
  0
VERTEX
  8
SILK_TOP_ART
 10
45.2434
 20
31.5296
 30
0.00
  0
VERTEX
  8
SILK_TOP_ART
 10
45.3175
 20
31.50
 30
0.00
  0
VERTEX
  8
SILK_TOP_ART
 10
45.3916
 20
31.50
 30
0.00
  0
VERTEX
  8
SILK_TOP_ART
 10
45.4657
 20
31.5296
 30
0.00
  0
VERTEX
  8
SILK_TOP_ART
 10
45.5292
 20
31.5741
 30
0.00
  0
VERTEX
  8
SILK_TOP_ART
 10
45.5821
 20
31.6333
 30
0.00
  0
SEQEND
  0
POLYLINE
  8
SILK_TOP_ART
 66
1
 10
0.00
 20
0.00
 30
0.00
 40
0.1524
 41
0.1524
  0
VERTEX
  8
SILK_TOP_ART
 10
46.0795
 20
31.50
 30
0.00
  0
VERTEX
  8
SILK_TOP_ART
 10
46.0795
 20
32.389
 30
0.00
  0
VERTEX
  8
SILK_TOP_ART
 10
45.6879
 20
31.7519
 30
0.00
  0
VERTEX
  8
SILK_TOP_ART
 10
46.2171
 20
31.7519
 30
0.00
  0
SEQEND
  0
POLYLINE
  8
SILK_TOP_ART
 66
1
 10
0.00
 20
0.00
 30
0.00
 40
0.1524
 41
0.1524
  0
VERTEX
  8
SILK_TOP_ART
 10
58.5503
 20
32.3149
 30
0.00
  0
VERTEX
  8
SILK_TOP_ART
 10
58.4868
 20
32.3594
 30
0.00
  0
VERTEX
  8
SILK_TOP_ART
 10
58.4128
 20
32.389
 30
0.00
  0
VERTEX
  8
SILK_TOP_ART
 10
58.3281
 20
32.389
 30
0.00
  0
VERTEX
  8
SILK_TOP_ART
 10
58.2328
 20
32.3445
 30
0.00
  0
VERTEX
  8
SILK_TOP_ART
 10
58.1588
 20
32.2705
 30
0.00
  0
VERTEX
  8
SILK_TOP_ART
 10
58.1058
 20
32.1816
 30
0.00
  0
VERTEX
  8
SILK_TOP_ART
 10
58.0635
 20
32.0334
 30
0.00
  0
VERTEX
  8
SILK_TOP_ART
 10
58.0529
 20
31.90
 30
0.00
  0
VERTEX
  8
SILK_TOP_ART
 10
58.0741
 20
31.7667
 30
0.00
  0
VERTEX
  8
SILK_TOP_ART
 10
58.1058
 20
31.6778
 30
0.00
  0
VERTEX
  8
SILK_TOP_ART
 10
58.1693
 20
31.5889
 30
0.00
  0
VERTEX
  8
SILK_TOP_ART
 10
58.2434
 20
31.5296
 30
0.00
  0
VERTEX
  8
SILK_TOP_ART
 10
58.3175
 20
31.50
 30
0.00
  0
VERTEX
  8
SILK_TOP_ART
 10
58.3916
 20
31.50
 30
0.00
  0
VERTEX
  8
SILK_TOP_ART
 10
58.4657
 20
31.5296
 30
0.00
  0
VERTEX
  8
SILK_TOP_ART
 10
58.5292
 20
31.5741
 30
0.00
  0
VERTEX
  8
SILK_TOP_ART
 10
58.5821
 20
31.6333
 30
0.00
  0
SEQEND
  0
POLYLINE
  8
SILK_TOP_ART
 66
1
 10
0.00
 20
0.00
 30
0.00
 40
0.1524
 41
0.1524
  0
VERTEX
  8
SILK_TOP_ART
 10
58.9525
 20
31.50
 30
0.00
  0
VERTEX
  8
SILK_TOP_ART
 10
58.9525
 20
32.389
 30
0.00
  0
VERTEX
  8
SILK_TOP_ART
 10
58.8255
 20
32.2112
 30
0.00
  0
SEQEND
  0
POLYLINE
  8
SILK_TOP_ART
 66
1
 10
0.00
 20
0.00
 30
0.00
 40
0.1524
 41
0.1524
  0
VERTEX
  8
SILK_TOP_ART
 10
58.8255
 20
31.50
 30
0.00
  0
VERTEX
  8
SILK_TOP_ART
 10
59.0795
 20
31.50
 30
0.00
  0
SEQEND
  0
POLYLINE
  8
SILK_TOP_ART
 66
1
 10
0.00
 20
0.00
 30
0.00
 40
0.1524
 41
0.1524
  0
VERTEX
  8
SILK_TOP_ART
 10
60.0503
 20
32.3149
 30
0.00
  0
VERTEX
  8
SILK_TOP_ART
 10
59.9868
 20
32.3594
 30
0.00
  0
VERTEX
  8
SILK_TOP_ART
 10
59.9128
 20
32.389
 30
0.00
  0
VERTEX
  8
SILK_TOP_ART
 10
59.8281
 20
32.389
 30
0.00
  0
VERTEX
  8
SILK_TOP_ART
 10
59.7328
 20
32.3445
 30
0.00
  0
VERTEX
  8
SILK_TOP_ART
 10
59.6588
 20
32.2705
 30
0.00
  0
VERTEX
  8
SILK_TOP_ART
 10
59.6058
 20
32.1816
 30
0.00
  0
VERTEX
  8
SILK_TOP_ART
 10
59.5635
 20
32.0334
 30
0.00
  0
VERTEX
  8
SILK_TOP_ART
 10
59.5529
 20
31.90
 30
0.00
  0
VERTEX
  8
SILK_TOP_ART
 10
59.5741
 20
31.7667
 30
0.00
  0
VERTEX
  8
SILK_TOP_ART
 10
59.6058
 20
31.6778
 30
0.00
  0
VERTEX
  8
SILK_TOP_ART
 10
59.6693
 20
31.5889
 30
0.00
  0
VERTEX
  8
SILK_TOP_ART
 10
59.7434
 20
31.5296
 30
0.00
  0
VERTEX
  8
SILK_TOP_ART
 10
59.8175
 20
31.50
 30
0.00
  0
VERTEX
  8
SILK_TOP_ART
 10
59.8916
 20
31.50
 30
0.00
  0
VERTEX
  8
SILK_TOP_ART
 10
59.9657
 20
31.5296
 30
0.00
  0
VERTEX
  8
SILK_TOP_ART
 10
60.0292
 20
31.5741
 30
0.00
  0
VERTEX
  8
SILK_TOP_ART
 10
60.0821
 20
31.6333
 30
0.00
  0
SEQEND
  0
POLYLINE
  8
SILK_TOP_ART
 66
1
 10
0.00
 20
0.00
 30
0.00
 40
0.1524
 41
0.1524
  0
VERTEX
  8
SILK_TOP_ART
 10
60.2514
 20
32.2408
 30
0.00
  0
VERTEX
  8
SILK_TOP_ART
 10
60.3149
 20
32.3297
 30
0.00
  0
VERTEX
  8
SILK_TOP_ART
 10
60.389
 20
32.3742
 30
0.00
  0
VERTEX
  8
SILK_TOP_ART
 10
60.4737
 20
32.389
 30
0.00
  0
VERTEX
  8
SILK_TOP_ART
 10
60.5795
 20
32.3594
 30
0.00
  0
VERTEX
  8
SILK_TOP_ART
 10
60.6536
 20
32.2853
 30
0.00
  0
VERTEX
  8
SILK_TOP_ART
 10
60.6748
 20
32.1964
 30
0.00
  0
VERTEX
  8
SILK_TOP_ART
 10
60.6642
 20
32.1075
 30
0.00
  0
VERTEX
  8
SILK_TOP_ART
 10
60.6218
 20
32.0334
 30
0.00
  0
VERTEX
  8
SILK_TOP_ART
 10
60.4102
 20
31.8852
 30
0.00
  0
VERTEX
  8
SILK_TOP_ART
 10
60.3149
 20
31.7815
 30
0.00
  0
VERTEX
  8
SILK_TOP_ART
 10
60.2514
 20
31.6333
 30
0.00
  0
VERTEX
  8
SILK_TOP_ART
 10
60.2302
 20
31.50
 30
0.00
  0
VERTEX
  8
SILK_TOP_ART
 10
60.6748
 20
31.50
 30
0.00
  0
SEQEND
  0
POLYLINE
  8
SILK_TOP_ART
 66
1
 10
0.00
 20
0.00
 30
0.00
 40
0.508
 41
0.508
  0
VERTEX
  8
SILK_TOP_ART
 10
27.00
 20
38.5871
 30
0.00
  0
VERTEX
  8
SILK_TOP_ART
 10
27.00
 20
30.00
 30
0.00
  0
VERTEX
  8
SILK_TOP_ART
 10
49.00
 20
30.00
 30
0.00
  0
VERTEX
  8
SILK_TOP_ART
 10
49.00
 20
38.5871
 30
0.00
  0
SEQEND
  0
POLYLINE
  8
SILK_TOP_ART
 66
1
 10
0.00
 20
0.00
 30
0.00
 40
0.508
 41
0.508
  0
VERTEX
  8
SILK_TOP_ART
 10
27.00
 20
52.00
 30
0.00
  0
VERTEX
  8
SILK_TOP_ART
 10
27.00
 20
43.4129
 30
0.00
  0
SEQEND
  0
POLYLINE
  8
SILK_TOP_ART
 66
1
 10
0.00
 20
0.00
 30
0.00
 40
0.508
 41
0.508
  0
VERTEX
  8
SILK_TOP_ART
 10
49.00
 20
43.4129
 30
0.00
  0
VERTEX
  8
SILK_TOP_ART
 10
49.00
 20
52.00
 30
0.00
  0
VERTEX
  8
SILK_TOP_ART
 10
27.00
 20
52.00
 30
0.00
  0
SEQEND
  0
POLYLINE
  8
SILK_TOP_ART
 66
1
 10
0.00
 20
0.00
 30
0.00
 40
0.508
 41
0.508
  0
VERTEX
  8
SILK_TOP_ART
 10
55.00
 20
38.5871
 30
0.00
  0
VERTEX
  8
SILK_TOP_ART
 10
55.00
 20
30.00
 30
0.00
  0
VERTEX
  8
SILK_TOP_ART
 10
77.00
 20
30.00
 30
0.00
  0
VERTEX
  8
SILK_TOP_ART
 10
77.00
 20
38.5871
 30
0.00
  0
SEQEND
  0
POLYLINE
  8
SILK_TOP_ART
 66
1
 10
0.00
 20
0.00
 30
0.00
 40
0.508
 41
0.508
  0
VERTEX
  8
SILK_TOP_ART
 10
55.00
 20
52.00
 30
0.00
  0
VERTEX
  8
SILK_TOP_ART
 10
55.00
 20
43.4129
 30
0.00
  0
SEQEND
  0
POLYLINE
  8
SILK_TOP_ART
 66
1
 10
0.00
 20
0.00
 30
0.00
 40
0.508
 41
0.508
  0
VERTEX
  8
SILK_TOP_ART
 10
77.00
 20
43.4129
 30
0.00
  0
VERTEX
  8
SILK_TOP_ART
 10
77.00
 20
52.00
 30
0.00
  0
VERTEX
  8
SILK_TOP_ART
 10
55.00
 20
52.00
 30
0.00
  0
SEQEND
  0
INSERT
  2
ROUND_48
  8
DS2206-1-2_DRL
 10
60.00
 20
19.46
 30
0.00
 41
1.00
 42
1.00
 50
0.00
  0
INSERT
  2
ROUND_48
  8
DS2206-1-2_DRL
 10
60.00
 20
24.54
 30
0.00
 41
1.00
 42
1.00
 50
0.00
  0
INSERT
  2
ROUND_48
  8
DS2206-1-2_DRL
 10
45.00
 20
19.46
 30
0.00
 41
1.00
 42
1.00
 50
0.00
  0
INSERT
  2
ROUND_48
  8
DS2206-1-2_DRL
 10
45.00
 20
24.54
 30
0.00
 41
1.00
 42
1.00
 50
0.00
  0
INSERT
  2
ROUND_49
  8
DS2206-1-2_DRL
 10
56.00
 20
12.88
 30
0.00
 41
1.00
 42
1.00
 50
0.00
  0
INSERT
  2
ROUND_49
  8
DS2206-1-2_DRL
 10
56.00
 20
28.12
 30
0.00
 41
1.00
 42
1.00
 50
0.00
  0
INSERT
  2
ROUND_49
  8
DS2206-1-2_DRL
 10
49.00
 20
12.88
 30
0.00
 41
1.00
 42
1.00
 50
0.00
  0
INSERT
  2
ROUND_49
  8
DS2206-1-2_DRL
 10
49.00
 20
28.12
 30
0.00
 41
1.00
 42
1.00
 50
0.00
  0
INSERT
  2
ROUND_50
  8
DS2206-1-2_DRL
 10
18.78
 20
37.00
 30
0.00
 41
1.00
 42
1.00
 50
0.00
  0
INSERT
  2
ROUND_50
  8
DS2206-1-2_DRL
 10
13.70
 20
37.00
 30
0.00
 41
1.00
 42
1.00
 50
0.00
  0
INSERT
  2
ROUND_50
  8
DS2206-1-2_DRL
 10
18.78
 20
7.00
 30
0.00
 41
1.00
 42
1.00
 50
0.00
  0
INSERT
  2
ROUND_50
  8
DS2206-1-2_DRL
 10
13.70
 20
7.00
 30
0.00
 41
1.00
 42
1.00
 50
0.00
  0
INSERT
  2
ROUND_47
  8
DS2206-1-2_DRL
 10
62.20
 20
34.00
 30
0.00
 41
1.00
 42
1.00
 50
0.00
  0
INSERT
  2
ROUND_47
  8
DS2206-1-2_DRL
 10
66.00
 20
34.00
 30
0.00
 41
1.00
 42
1.00
 50
0.00
  0
INSERT
  2
ROUND_47
  8
DS2206-1-2_DRL
 10
69.80
 20
34.00
 30
0.00
 41
1.00
 42
1.00
 50
0.00
  0
INSERT
  2
ROUND_47
  8
DS2206-1-2_DRL
 10
69.80
 20
48.00
 30
0.00
 41
1.00
 42
1.00
 50
0.00
  0
INSERT
  2
ROUND_47
  8
DS2206-1-2_DRL
 10
66.00
 20
48.00
 30
0.00
 41
1.00
 42
1.00
 50
0.00
  0
INSERT
  2
ROUND_47
  8
DS2206-1-2_DRL
 10
62.20
 20
48.00
 30
0.00
 41
1.00
 42
1.00
 50
0.00
  0
INSERT
  2
ROUND_47
  8
DS2206-1-2_DRL
 10
34.20
 20
34.00
 30
0.00
 41
1.00
 42
1.00
 50
0.00
  0
INSERT
  2
ROUND_47
  8
DS2206-1-2_DRL
 10
38.00
 20
34.00
 30
0.00
 41
1.00
 42
1.00
 50
0.00
  0
INSERT
  2
ROUND_47
  8
DS2206-1-2_DRL
 10
41.80
 20
34.00
 30
0.00
 41
1.00
 42
1.00
 50
0.00
  0
INSERT
  2
ROUND_47
  8
DS2206-1-2_DRL
 10
41.80
 20
48.00
 30
0.00
 41
1.00
 42
1.00
 50
0.00
  0
INSERT
  2
ROUND_47
  8
DS2206-1-2_DRL
 10
38.00
 20
48.00
 30
0.00
 41
1.00
 42
1.00
 50
0.00
  0
INSERT
  2
ROUND_47
  8
DS2206-1-2_DRL
 10
34.20
 20
48.00
 30
0.00
 41
1.00
 42
1.00
 50
0.00
  0
INSERT
  2
ROUND_51
  8
DS2206-1-2_DRL
 10
18.78
 20
40.81
 30
0.00
 41
1.00
 42
1.00
 50
0.00
  0
INSERT
  2
ROUND_51
  8
DS2206-1-2_DRL
 10
18.78
 20
33.19
 30
0.00
 41
1.00
 42
1.00
 50
0.00
  0
INSERT
  2
ROUND_51
  8
DS2206-1-2_DRL
 10
18.78
 20
10.81
 30
0.00
 41
1.00
 42
1.00
 50
0.00
  0
INSERT
  2
ROUND_51
  8
DS2206-1-2_DRL
 10
18.78
 20
3.19
 30
0.00
 41
1.00
 42
1.00
 50
0.00
  0
INSERT
  2
ROUND_52
  8
DS2206-1-2_DRL
 10
6.50
 20
49.00
 30
0.00
 41
1.00
 42
1.00
 50
0.00
  0
INSERT
  2
ROUND_52
  8
DS2206-1-2_DRL
 10
6.50
 20
19.50
 30
0.00
 41
1.00
 42
1.00
 50
0.00
  0
INSERT
  2
ROUND_53
  8
DS2206-1-2_DRL
 10
9.89
 20
40.81
 30
0.00
 41
1.00
 42
1.00
 50
0.00
  0
INSERT
  2
ROUND_53
  8
DS2206-1-2_DRL
 10
4.81
 20
33.19
 30
0.00
 41
1.00
 42
1.00
 50
0.00
  0
INSERT
  2
ROUND_53
  8
DS2206-1-2_DRL
 10
9.89
 20
10.81
 30
0.00
 41
1.00
 42
1.00
 50
0.00
  0
INSERT
  2
ROUND_53
  8
DS2206-1-2_DRL
 10
4.81
 20
3.19
 30
0.00
 41
1.00
 42
1.00
 50
0.00
  0
INSERT
  2
ROUND_7
  8
DS2206-1-2_DRL
 10
23.50
 20
3.00
 30
0.00
 41
1.00
 42
1.00
 50
0.00
  0
INSERT
  2
ROUND_7
  8
DS2206-1-2_DRL
 10
23.50
 20
52.00
 30
0.00
 41
1.00
 42
1.00
 50
0.00
  0
INSERT
  2
ROUND_7
  8
DS2206-1-2_DRL
 10
81.50
 20
52.00
 30
0.00
 41
1.00
 42
1.00
 50
0.00
  0
INSERT
  2
ROUND_7
  8
DS2206-1-2_DRL
 10
81.50
 20
3.00
 30
0.00
 41
1.00
 42
1.00
 50
0.00
  0
POLYLINE
  8
DS2206IV_ROU
 66
1
 10
0.00
 20
0.00
 30
0.00
 40
0.075
 41
0.075
  0
VERTEX
  8
DS2206IV_ROU
 10
26.4025
 20
39.9204
 30
0.00
 42
1.00
  0
VERTEX
  8
DS2206IV_ROU
 10
27.5973
 20
39.9204
 30
0.00
 42
0.00
  0
SEQEND
  0
POLYLINE
  8
DS2206IV_ROU
 66
1
 10
0.00
 20
0.00
 30
0.00
 40
0.075
 41
0.075
  0
VERTEX
  8
DS2206IV_ROU
 10
27.5973
 20
39.9204
 30
0.00
  0
VERTEX
  8
DS2206IV_ROU
 10
27.5973
 20
42.0794
 30
0.00
  0
SEQEND
  0
POLYLINE
  8
DS2206IV_ROU
 66
1
 10
0.00
 20
0.00
 30
0.00
 40
0.075
 41
0.075
  0
VERTEX
  8
DS2206IV_ROU
 10
27.5973
 20
42.0794
 30
0.00
 42
1.00
  0
VERTEX
  8
DS2206IV_ROU
 10
26.4025
 20
42.0794
 30
0.00
 42
0.00
  0
SEQEND
  0
POLYLINE
  8
DS2206IV_ROU
 66
1
 10
0.00
 20
0.00
 30
0.00
 40
0.075
 41
0.075
  0
VERTEX
  8
DS2206IV_ROU
 10
26.4025
 20
42.0794
 30
0.00
  0
VERTEX
  8
DS2206IV_ROU
 10
26.4025
 20
39.9204
 30
0.00
  0
SEQEND
  0
POLYLINE
  8
DS2206IV_ROU
 66
1
 10
0.00
 20
0.00
 30
0.00
 40
0.075
 41
0.075
  0
VERTEX
  8
DS2206IV_ROU
 10
48.4025
 20
39.9204
 30
0.00
 42
1.00
  0
VERTEX
  8
DS2206IV_ROU
 10
49.5973
 20
39.9204
 30
0.00
 42
0.00
  0
SEQEND
  0
POLYLINE
  8
DS2206IV_ROU
 66
1
 10
0.00
 20
0.00
 30
0.00
 40
0.075
 41
0.075
  0
VERTEX
  8
DS2206IV_ROU
 10
49.5973
 20
39.9204
 30
0.00
  0
VERTEX
  8
DS2206IV_ROU
 10
49.5973
 20
42.0794
 30
0.00
  0
SEQEND
  0
POLYLINE
  8
DS2206IV_ROU
 66
1
 10
0.00
 20
0.00
 30
0.00
 40
0.075
 41
0.075
  0
VERTEX
  8
DS2206IV_ROU
 10
49.5973
 20
42.0794
 30
0.00
 42
1.00
  0
VERTEX
  8
DS2206IV_ROU
 10
48.4025
 20
42.0794
 30
0.00
 42
0.00
  0
SEQEND
  0
POLYLINE
  8
DS2206IV_ROU
 66
1
 10
0.00
 20
0.00
 30
0.00
 40
0.075
 41
0.075
  0
VERTEX
  8
DS2206IV_ROU
 10
48.4025
 20
42.0794
 30
0.00
  0
VERTEX
  8
DS2206IV_ROU
 10
48.4025
 20
39.9204
 30
0.00
  0
SEQEND
  0
POLYLINE
  8
DS2206IV_ROU
 66
1
 10
0.00
 20
0.00
 30
0.00
 40
0.075
 41
0.075
  0
VERTEX
  8
DS2206IV_ROU
 10
54.4025
 20
39.9204
 30
0.00
 42
1.00
  0
VERTEX
  8
DS2206IV_ROU
 10
55.5973
 20
39.9204
 30
0.00
 42
0.00
  0
SEQEND
  0
POLYLINE
  8
DS2206IV_ROU
 66
1
 10
0.00
 20
0.00
 30
0.00
 40
0.075
 41
0.075
  0
VERTEX
  8
DS2206IV_ROU
 10
55.5973
 20
39.9204
 30
0.00
  0
VERTEX
  8
DS2206IV_ROU
 10
55.5973
 20
42.0794
 30
0.00
  0
SEQEND
  0
POLYLINE
  8
DS2206IV_ROU
 66
1
 10
0.00
 20
0.00
 30
0.00
 40
0.075
 41
0.075
  0
VERTEX
  8
DS2206IV_ROU
 10
55.5973
 20
42.0794
 30
0.00
 42
1.00
  0
VERTEX
  8
DS2206IV_ROU
 10
54.4025
 20
42.0794
 30
0.00
 42
0.00
  0
SEQEND
  0
POLYLINE
  8
DS2206IV_ROU
 66
1
 10
0.00
 20
0.00
 30
0.00
 40
0.075
 41
0.075
  0
VERTEX
  8
DS2206IV_ROU
 10
54.4025
 20
42.0794
 30
0.00
  0
VERTEX
  8
DS2206IV_ROU
 10
54.4025
 20
39.9204
 30
0.00
  0
SEQEND
  0
POLYLINE
  8
DS2206IV_ROU
 66
1
 10
0.00
 20
0.00
 30
0.00
 40
0.075
 41
0.075
  0
VERTEX
  8
DS2206IV_ROU
 10
76.4025
 20
39.9204
 30
0.00
 42
1.00
  0
VERTEX
  8
DS2206IV_ROU
 10
77.5973
 20
39.9204
 30
0.00
 42
0.00
  0
SEQEND
  0
POLYLINE
  8
DS2206IV_ROU
 66
1
 10
0.00
 20
0.00
 30
0.00
 40
0.075
 41
0.075
  0
VERTEX
  8
DS2206IV_ROU
 10
77.5973
 20
39.9204
 30
0.00
  0
VERTEX
  8
DS2206IV_ROU
 10
77.5973
 20
42.0794
 30
0.00
  0
SEQEND
  0
POLYLINE
  8
DS2206IV_ROU
 66
1
 10
0.00
 20
0.00
 30
0.00
 40
0.075
 41
0.075
  0
VERTEX
  8
DS2206IV_ROU
 10
77.5973
 20
42.0794
 30
0.00
 42
1.00
  0
VERTEX
  8
DS2206IV_ROU
 10
76.4025
 20
42.0794
 30
0.00
 42
0.00
  0
SEQEND
  0
POLYLINE
  8
DS2206IV_ROU
 66
1
 10
0.00
 20
0.00
 30
0.00
 40
0.075
 41
0.075
  0
VERTEX
  8
DS2206IV_ROU
 10
76.4025
 20
42.0794
 30
0.00
  0
VERTEX
  8
DS2206IV_ROU
 10
76.4025
 20
39.9204
 30
0.00
  0
SEQEND
  0
POLYLINE
  8
DS2206IV_ROU
 66
1
 10
0.00
 20
0.00
 30
0.00
 40
0.075
 41
0.075
  0
VERTEX
  8
DS2206IV_ROU
 10
0.7025
 20
18.7379
 30
0.00
 42
1.00
  0
VERTEX
  8
DS2206IV_ROU
 10
1.8973
 20
18.7379
 30
0.00
 42
0.00
  0
SEQEND
  0
POLYLINE
  8
DS2206IV_ROU
 66
1
 10
0.00
 20
0.00
 30
0.00
 40
0.075
 41
0.075
  0
VERTEX
  8
DS2206IV_ROU
 10
1.8973
 20
18.7379
 30
0.00
  0
VERTEX
  8
DS2206IV_ROU
 10
1.8973
 20
20.2619
 30
0.00
  0
SEQEND
  0
POLYLINE
  8
DS2206IV_ROU
 66
1
 10
0.00
 20
0.00
 30
0.00
 40
0.075
 41
0.075
  0
VERTEX
  8
DS2206IV_ROU
 10
1.8973
 20
20.2619
 30
0.00
 42
1.00
  0
VERTEX
  8
DS2206IV_ROU
 10
0.7025
 20
20.2619
 30
0.00
 42
0.00
  0
SEQEND
  0
POLYLINE
  8
DS2206IV_ROU
 66
1
 10
0.00
 20
0.00
 30
0.00
 40
0.075
 41
0.075
  0
VERTEX
  8
DS2206IV_ROU
 10
0.7025
 20
20.2619
 30
0.00
  0
VERTEX
  8
DS2206IV_ROU
 10
0.7025
 20
18.7379
 30
0.00
  0
SEQEND
  0
POLYLINE
  8
DS2206IV_ROU
 66
1
 10
0.00
 20
0.00
 30
0.00
 40
0.075
 41
0.075
  0
VERTEX
  8
DS2206IV_ROU
 10
5.7379
 20
25.0973
 30
0.00
 42
1.00
  0
VERTEX
  8
DS2206IV_ROU
 10
5.7379
 20
23.9025
 30
0.00
 42
0.00
  0
SEQEND
  0
POLYLINE
  8
DS2206IV_ROU
 66
1
 10
0.00
 20
0.00
 30
0.00
 40
0.075
 41
0.075
  0
VERTEX
  8
DS2206IV_ROU
 10
5.7379
 20
23.9025
 30
0.00
  0
VERTEX
  8
DS2206IV_ROU
 10
7.2619
 20
23.9025
 30
0.00
  0
SEQEND
  0
POLYLINE
  8
DS2206IV_ROU
 66
1
 10
0.00
 20
0.00
 30
0.00
 40
0.075
 41
0.075
  0
VERTEX
  8
DS2206IV_ROU
 10
7.2619
 20
23.9025
 30
0.00
 42
1.00
  0
VERTEX
  8
DS2206IV_ROU
 10
7.2619
 20
25.0973
 30
0.00
 42
0.00
  0
SEQEND
  0
POLYLINE
  8
DS2206IV_ROU
 66
1
 10
0.00
 20
0.00
 30
0.00
 40
0.075
 41
0.075
  0
VERTEX
  8
DS2206IV_ROU
 10
7.2619
 20
25.0973
 30
0.00
  0
VERTEX
  8
DS2206IV_ROU
 10
5.7379
 20
25.0973
 30
0.00
  0
SEQEND
  0
POLYLINE
  8
DS2206IV_ROU
 66
1
 10
0.00
 20
0.00
 30
0.00
 40
0.075
 41
0.075
  0
VERTEX
  8
DS2206IV_ROU
 10
5.7379
 20
15.0973
 30
0.00
 42
1.00
  0
VERTEX
  8
DS2206IV_ROU
 10
5.7379
 20
13.9025
 30
0.00
 42
0.00
  0
SEQEND
  0
POLYLINE
  8
DS2206IV_ROU
 66
1
 10
0.00
 20
0.00
 30
0.00
 40
0.075
 41
0.075
  0
VERTEX
  8
DS2206IV_ROU
 10
5.7379
 20
13.9025
 30
0.00
  0
VERTEX
  8
DS2206IV_ROU
 10
7.2619
 20
13.9025
 30
0.00
  0
SEQEND
  0
POLYLINE
  8
DS2206IV_ROU
 66
1
 10
0.00
 20
0.00
 30
0.00
 40
0.075
 41
0.075
  0
VERTEX
  8
DS2206IV_ROU
 10
7.2619
 20
13.9025
 30
0.00
 42
1.00
  0
VERTEX
  8
DS2206IV_ROU
 10
7.2619
 20
15.0973
 30
0.00
 42
0.00
  0
SEQEND
  0
POLYLINE
  8
DS2206IV_ROU
 66
1
 10
0.00
 20
0.00
 30
0.00
 40
0.075
 41
0.075
  0
VERTEX
  8
DS2206IV_ROU
 10
7.2619
 20
15.0973
 30
0.00
  0
VERTEX
  8
DS2206IV_ROU
 10
5.7379
 20
15.0973
 30
0.00
  0
SEQEND
  0
POLYLINE
  8
DS2206IV_ROU
 66
1
 10
0.00
 20
0.00
 30
0.00
 40
0.075
 41
0.075
  0
VERTEX
  8
DS2206IV_ROU
 10
0.7025
 20
48.2379
 30
0.00
 42
1.00
  0
VERTEX
  8
DS2206IV_ROU
 10
1.8973
 20
48.2379
 30
0.00
 42
0.00
  0
SEQEND
  0
POLYLINE
  8
DS2206IV_ROU
 66
1
 10
0.00
 20
0.00
 30
0.00
 40
0.075
 41
0.075
  0
VERTEX
  8
DS2206IV_ROU
 10
1.8973
 20
48.2379
 30
0.00
  0
VERTEX
  8
DS2206IV_ROU
 10
1.8973
 20
49.7619
 30
0.00
  0
SEQEND
  0
POLYLINE
  8
DS2206IV_ROU
 66
1
 10
0.00
 20
0.00
 30
0.00
 40
0.075
 41
0.075
  0
VERTEX
  8
DS2206IV_ROU
 10
1.8973
 20
49.7619
 30
0.00
 42
1.00
  0
VERTEX
  8
DS2206IV_ROU
 10
0.7025
 20
49.7619
 30
0.00
 42
0.00
  0
SEQEND
  0
POLYLINE
  8
DS2206IV_ROU
 66
1
 10
0.00
 20
0.00
 30
0.00
 40
0.075
 41
0.075
  0
VERTEX
  8
DS2206IV_ROU
 10
0.7025
 20
49.7619
 30
0.00
  0
VERTEX
  8
DS2206IV_ROU
 10
0.7025
 20
48.2379
 30
0.00
  0
SEQEND
  0
POLYLINE
  8
DS2206IV_ROU
 66
1
 10
0.00
 20
0.00
 30
0.00
 40
0.075
 41
0.075
  0
VERTEX
  8
DS2206IV_ROU
 10
5.7379
 20
54.5973
 30
0.00
 42
1.00
  0
VERTEX
  8
DS2206IV_ROU
 10
5.7379
 20
53.4025
 30
0.00
 42
0.00
  0
SEQEND
  0
POLYLINE
  8
DS2206IV_ROU
 66
1
 10
0.00
 20
0.00
 30
0.00
 40
0.075
 41
0.075
  0
VERTEX
  8
DS2206IV_ROU
 10
5.7379
 20
53.4025
 30
0.00
  0
VERTEX
  8
DS2206IV_ROU
 10
7.2619
 20
53.4025
 30
0.00
  0
SEQEND
  0
POLYLINE
  8
DS2206IV_ROU
 66
1
 10
0.00
 20
0.00
 30
0.00
 40
0.075
 41
0.075
  0
VERTEX
  8
DS2206IV_ROU
 10
7.2619
 20
53.4025
 30
0.00
 42
1.00
  0
VERTEX
  8
DS2206IV_ROU
 10
7.2619
 20
54.5973
 30
0.00
 42
0.00
  0
SEQEND
  0
POLYLINE
  8
DS2206IV_ROU
 66
1
 10
0.00
 20
0.00
 30
0.00
 40
0.075
 41
0.075
  0
VERTEX
  8
DS2206IV_ROU
 10
7.2619
 20
54.5973
 30
0.00
  0
VERTEX
  8
DS2206IV_ROU
 10
5.7379
 20
54.5973
 30
0.00
  0
SEQEND
  0
POLYLINE
  8
DS2206IV_ROU
 66
1
 10
0.00
 20
0.00
 30
0.00
 40
0.075
 41
0.075
  0
VERTEX
  8
DS2206IV_ROU
 10
5.7379
 20
44.5973
 30
0.00
 42
1.00
  0
VERTEX
  8
DS2206IV_ROU
 10
5.7379
 20
43.4025
 30
0.00
 42
0.00
  0
SEQEND
  0
POLYLINE
  8
DS2206IV_ROU
 66
1
 10
0.00
 20
0.00
 30
0.00
 40
0.075
 41
0.075
  0
VERTEX
  8
DS2206IV_ROU
 10
5.7379
 20
43.4025
 30
0.00
  0
VERTEX
  8
DS2206IV_ROU
 10
7.2619
 20
43.4025
 30
0.00
  0
SEQEND
  0
POLYLINE
  8
DS2206IV_ROU
 66
1
 10
0.00
 20
0.00
 30
0.00
 40
0.075
 41
0.075
  0
VERTEX
  8
DS2206IV_ROU
 10
7.2619
 20
43.4025
 30
0.00
 42
1.00
  0
VERTEX
  8
DS2206IV_ROU
 10
7.2619
 20
44.5973
 30
0.00
 42
0.00
  0
SEQEND
  0
POLYLINE
  8
DS2206IV_ROU
 66
1
 10
0.00
 20
0.00
 30
0.00
 40
0.075
 41
0.075
  0
VERTEX
  8
DS2206IV_ROU
 10
7.2619
 20
44.5973
 30
0.00
  0
VERTEX
  8
DS2206IV_ROU
 10
5.7379
 20
44.5973
 30
0.00
  0
SEQEND
  0
ENDSEC
  0
EOF
