  0
SECTION
  2
HEADER
  9
$ACADVER
  1
AC1018
  9
$INSBASE
 10
0.0
 20
0.0
 30
0.0
  9
$EXTMIN
 10
-0.0127
 20
-0.0127
 30
0.0
  9
$EXTMAX
 10
68.0127
 20
31.5127
 30
0.0
  9
$LIMMIN
 10
-0.0127
 20
-0.0127
  9
$LIMMAX
 10
68.0127
 20
31.5127
  9
$INSUNITS
 70
     4
  9
$HANDSEED
  5
   145
  0
ENDSEC
  0
SECTION
  2
CLASSES
  0
ENDSEC
  0
SECTION
  2
TABLES
  0
TABLE
  2
VPORT
  5
1
330
0
100
AcDbSymbolTable
 70
     0
  0
ENDTAB
  0
TABLE
  2
LTYPE
  5
2
330
0
100
AcDbSymbolTable
 70
     3
  0
LTYPE
  5
3
330
2
100
AcDbSymbolTableRecord
100
AcDbLinetypeTableRecord
  2
BYLAYER
 70
     0
  3
Continuous
 72
    65
 73
     0
 40
0.0
  0
LTYPE
  5
4
330
2
100
AcDbSymbolTableRecord
100
AcDbLinetypeTableRecord
  2
BYBLOCK
 70
     0
  3
Continuous
 72
    65
 73
     0
 40
0.0
  0
LTYPE
  5
5
330
2
100
AcDbSymbolTableRecord
100
AcDbLinetypeTableRecord
  2
CONTINUOUS
 70
     0
  3
Continuous
 72
    65
 73
     0
 40
0.0
  0
ENDTAB
  0
TABLE
  2
LAYER
  5
6
330
0
100
AcDbSymbolTable
 70
     6
  0
LAYER
  5
7
330
6
100
AcDbSymbolTableRecord
100
AcDbLayerTableRecord
  2
0
 70
     0
 62
     7
  6
CONTINUOUS
370
     0
390
     0
  0
LAYER
  5
8
330
6
100
AcDbSymbolTableRecord
100
AcDbLayerTableRecord
  2
BOARD_ART
 70
     0
 62
    10
  6
CONTINUOUS
370
     0
390
     0
  0
LAYER
  5
9
330
6
100
AcDbSymbolTableRecord
100
AcDbLayerTableRecord
  2
DIMENSION_ART
 70
     0
 62
    90
  6
CONTINUOUS
370
     0
390
     0
  0
LAYER
  5
A
330
6
100
AcDbSymbolTableRecord
100
AcDbLayerTableRecord
  2
PASTETOP_ART
 70
     0
 62
   176
  6
CONTINUOUS
370
     0
390
     0
  0
LAYER
  5
B
330
6
100
AcDbSymbolTableRecord
100
AcDbLayerTableRecord
  2
SILK_TOP_ART
 70
     0
 62
   130
  6
CONTINUOUS
370
     0
390
     0
  0
LAYER
  5
C
330
6
100
AcDbSymbolTableRecord
100
AcDbLayerTableRecord
  2
MONITORPI-1-2_DRL
 70
     0
 62
    96
  6
CONTINUOUS
370
     0
390
     0
  0
ENDTAB
  0
TABLE
  2
STYLE
  5
D
330
0
100
AcDbSymbolTable
 70
     0
  0
ENDTAB
  0
TABLE
  2
VIEW
  5
E
330
0
100
AcDbSymbolTable
 70
     0
  0
ENDTAB
  0
TABLE
  2
UCS
  5
F
330
0
100
AcDbSymbolTable
 70
     0
  0
ENDTAB
  0
TABLE
  2
APPID
  5
10
330
0
100
AcDbSymbolTable
 70
     1
  0
APPID
  5
11
330
10
100
AcDbSymbolTableRecord
100
AcDbRegAppTableRecord
  2
ACAD
 70
     0
  0
ENDTAB
  0
TABLE
  2
DIMSTYLE
  5
12
330
0
100
AcDbSymbolTable
 70
     0
100
AcDbDimStyleTable
 71
     0
  0
ENDTAB
  0
TABLE
  2
BLOCK_RECORD
  5
13
330
0
100
AcDbSymbolTable
 70
    12
  0
BLOCK_RECORD
  5
14
330
13
100
AcDbSymbolTableRecord
100
AcDbBlockTableRecord
  2
*Model_Space
340
23
  0
BLOCK_RECORD
  5
15
330
13
100
AcDbSymbolTableRecord
100
AcDbBlockTableRecord
  2
*Paper_Space
340
24
  0
BLOCK_RECORD
  5
16
330
13
100
AcDbSymbolTableRecord
100
AcDbBlockTableRecord
  2
ROUND_1
340
0
  0
BLOCK_RECORD
  5
17
330
13
100
AcDbSymbolTableRecord
100
AcDbBlockTableRecord
  2
RECTANGLE_12
340
0
  0
BLOCK_RECORD
  5
18
330
13
100
AcDbSymbolTableRecord
100
AcDbBlockTableRecord
  2
ROUND_26
340
0
  0
BLOCK_RECORD
  5
19
330
13
100
AcDbSymbolTableRecord
100
AcDbBlockTableRecord
  2
ROUND_32
340
0
  0
BLOCK_RECORD
  5
1A
330
13
100
AcDbSymbolTableRecord
100
AcDbBlockTableRecord
  2
ROUND_33
340
0
  0
BLOCK_RECORD
  5
1B
330
13
100
AcDbSymbolTableRecord
100
AcDbBlockTableRecord
  2
RECTANGLE_42
340
0
  0
BLOCK_RECORD
  5
1C
330
13
100
AcDbSymbolTableRecord
100
AcDbBlockTableRecord
  2
SQUARE_43
340
0
  0
BLOCK_RECORD
  5
1D
330
13
100
AcDbSymbolTableRecord
100
AcDbBlockTableRecord
  2
ROUND_47
340
0
  0
BLOCK_RECORD
  5
1E
330
13
100
AcDbSymbolTableRecord
100
AcDbBlockTableRecord
  2
ROUND_48
340
0
  0
BLOCK_RECORD
  5
1F
330
13
100
AcDbSymbolTableRecord
100
AcDbBlockTableRecord
  2
ROUND_56
340
0
  0
ENDTAB
  0
ENDSEC
  0
SECTION
  2
BLOCKS
  0
BLOCK
  5
26
330
14
100
AcDbEntity
  8
0
100
AcDbBlockBegin
  2
*Model_Space
 70
     0
 10
0.0
 20
0.0
 30
0.0
  3
*Model_Space
  1

  0
ENDBLK
  5
27
330
14
100
AcDbEntity
  8
0
100
AcDbBlockEnd
  0
BLOCK
  5
28
330
15
100
AcDbEntity
  8
0
100
AcDbBlockBegin
  2
*Paper_Space
 70
     0
 10
0.0
 20
0.0
 30
0.0
  3
*Paper_Space
  1

  0
ENDBLK
  5
29
330
15
100
AcDbEntity
  8
0
100
AcDbBlockEnd
  0
BLOCK
  5
2A
330
16
100
AcDbEntity
  8
0
100
AcDbBlockBegin
  2
ROUND_1
 70
     0
 10
0.0
 20
0.0
 30
0.0
  3
ROUND_1
  1

  0
HATCH
  5
2C
330
16
100
AcDbEntity
  8
0
100
AcDbHatch
 10
0.0
 20
0.0
 30
0.0
210
0.0
220
0.0
230
1.0
  2
SOLID
 70
     1
 71
     0
 91
     1
 92
     0
 93
     1
 72
     2
 10
0.0
 20
0.0
 40
0.0127
 50
0.0
 51
360.0
 73
     1
 97
     0
 75
     0
 76
     1
 98
     1
 10
0.0
 20
0.0
  0
ENDBLK
  5
2B
330
16
100
AcDbEntity
  8
0
100
AcDbBlockEnd
  0
BLOCK
  5
2D
330
17
100
AcDbEntity
  8
0
100
AcDbBlockBegin
  2
RECTANGLE_12
 70
     0
 10
0.0
 20
0.0
 30
0.0
  3
RECTANGLE_12
  1

  0
SOLID
  5
2F
330
17
100
AcDbEntity
  8
0
  6
BYLAYER
 62
   256
100
AcDbTrace
 10
0.2794
 20
0.3048
 30
0.0
 11
0.2794
 21
-0.3048
 31
0.0
 12
-0.2794
 22
0.3048
 32
0.0
 13
-0.2794
 23
-0.3048
 33
0.0
  0
ENDBLK
  5
2E
330
17
100
AcDbEntity
  8
0
100
AcDbBlockEnd
  0
BLOCK
  5
30
330
18
100
AcDbEntity
  8
0
100
AcDbBlockBegin
  2
ROUND_26
 70
     0
 10
0.0
 20
0.0
 30
0.0
  3
ROUND_26
  1

  0
HATCH
  5
32
330
18
100
AcDbEntity
  8
0
100
AcDbHatch
 10
0.0
 20
0.0
 30
0.0
210
0.0
220
0.0
230
1.0
  2
SOLID
 70
     1
 71
     0
 91
     1
 92
     0
 93
     1
 72
     2
 10
0.0
 20
0.0
 40
0.375
 50
0.0
 51
360.0
 73
     1
 97
     0
 75
     0
 76
     1
 98
     1
 10
0.0
 20
0.0
  0
ENDBLK
  5
31
330
18
100
AcDbEntity
  8
0
100
AcDbBlockEnd
  0
BLOCK
  5
33
330
19
100
AcDbEntity
  8
0
100
AcDbBlockBegin
  2
ROUND_32
 70
     0
 10
0.0
 20
0.0
 30
0.0
  3
ROUND_32
  1

  0
HATCH
  5
35
330
19
100
AcDbEntity
  8
0
100
AcDbHatch
 10
0.0
 20
0.0
 30
0.0
210
0.0
220
0.0
230
1.0
  2
SOLID
 70
     1
 71
     0
 91
     1
 92
     0
 93
     1
 72
     2
 10
0.0
 20
0.0
 40
0.1016
 50
0.0
 51
360.0
 73
     1
 97
     0
 75
     0
 76
     1
 98
     1
 10
0.0
 20
0.0
  0
ENDBLK
  5
34
330
19
100
AcDbEntity
  8
0
100
AcDbBlockEnd
  0
BLOCK
  5
36
330
1A
100
AcDbEntity
  8
0
100
AcDbBlockBegin
  2
ROUND_33
 70
     0
 10
0.0
 20
0.0
 30
0.0
  3
ROUND_33
  1

  0
HATCH
  5
38
330
1A
100
AcDbEntity
  8
0
100
AcDbHatch
 10
0.0
 20
0.0
 30
0.0
210
0.0
220
0.0
230
1.0
  2
SOLID
 70
     1
 71
     0
 91
     1
 92
     0
 93
     1
 72
     2
 10
0.0
 20
0.0
 40
0.0635
 50
0.0
 51
360.0
 73
     1
 97
     0
 75
     0
 76
     1
 98
     1
 10
0.0
 20
0.0
  0
ENDBLK
  5
37
330
1A
100
AcDbEntity
  8
0
100
AcDbBlockEnd
  0
BLOCK
  5
39
330
1B
100
AcDbEntity
  8
0
100
AcDbBlockBegin
  2
RECTANGLE_42
 70
     0
 10
0.0
 20
0.0
 30
0.0
  3
RECTANGLE_42
  1

  0
SOLID
  5
3B
330
1B
100
AcDbEntity
  8
0
  6
BYLAYER
 62
   256
100
AcDbTrace
 10
0.6985
 20
0.3175
 30
0.0
 11
0.6985
 21
-0.3175
 31
0.0
 12
-0.6985
 22
0.3175
 32
0.0
 13
-0.6985
 23
-0.3175
 33
0.0
  0
ENDBLK
  5
3A
330
1B
100
AcDbEntity
  8
0
100
AcDbBlockEnd
  0
BLOCK
  5
3C
330
1C
100
AcDbEntity
  8
0
100
AcDbBlockBegin
  2
SQUARE_43
 70
     0
 10
0.0
 20
0.0
 30
0.0
  3
SQUARE_43
  1

  0
SOLID
  5
3E
330
1C
100
AcDbEntity
  8
0
  6
BYLAYER
 62
   256
100
AcDbTrace
 10
0.635
 20
0.635
 30
0.0
 11
0.635
 21
-0.635
 31
0.0
 12
-0.635
 22
0.635
 32
0.0
 13
-0.635
 23
-0.635
 33
0.0
  0
ENDBLK
  5
3D
330
1C
100
AcDbEntity
  8
0
100
AcDbBlockEnd
  0
BLOCK
  5
3F
330
1D
100
AcDbEntity
  8
0
100
AcDbBlockBegin
  2
ROUND_47
 70
     0
 10
0.0
 20
0.0
 30
0.0
  3
ROUND_47
  1

  0
HATCH
  5
41
330
1D
100
AcDbEntity
  8
0
100
AcDbHatch
 10
0.0
 20
0.0
 30
0.0
210
0.0
220
0.0
230
1.0
  2
SOLID
 70
     1
 71
     0
 91
     1
 92
     0
 93
     1
 72
     2
 10
0.0
 20
0.0
 40
0.1905
 50
0.0
 51
360.0
 73
     1
 97
     0
 75
     0
 76
     1
 98
     1
 10
0.0
 20
0.0
  0
ENDBLK
  5
40
330
1D
100
AcDbEntity
  8
0
100
AcDbBlockEnd
  0
BLOCK
  5
42
330
1E
100
AcDbEntity
  8
0
100
AcDbBlockBegin
  2
ROUND_48
 70
     0
 10
0.0
 20
0.0
 30
0.0
  3
ROUND_48
  1

  0
HATCH
  5
44
330
1E
100
AcDbEntity
  8
0
100
AcDbHatch
 10
0.0
 20
0.0
 30
0.0
210
0.0
220
0.0
230
1.0
  2
SOLID
 70
     1
 71
     0
 91
     1
 92
     0
 93
     1
 72
     2
 10
0.0
 20
0.0
 40
0.125
 50
0.0
 51
360.0
 73
     1
 97
     0
 75
     0
 76
     1
 98
     1
 10
0.0
 20
0.0
  0
ENDBLK
  5
43
330
1E
100
AcDbEntity
  8
0
100
AcDbBlockEnd
  0
BLOCK
  5
45
330
1F
100
AcDbEntity
  8
0
100
AcDbBlockBegin
  2
ROUND_56
 70
     0
 10
0.0
 20
0.0
 30
0.0
  3
ROUND_56
  1

  0
HATCH
  5
47
330
1F
100
AcDbEntity
  8
0
100
AcDbHatch
 10
0.0
 20
0.0
 30
0.0
210
0.0
220
0.0
230
1.0
  2
SOLID
 70
     1
 71
     0
 91
     1
 92
     0
 93
     1
 72
     2
 10
0.0
 20
0.0
 40
0.4445
 50
0.0
 51
360.0
 73
     1
 97
     0
 75
     0
 76
     1
 98
     1
 10
0.0
 20
0.0
  0
ENDBLK
  5
46
330
1F
100
AcDbEntity
  8
0
100
AcDbBlockEnd
  0
ENDSEC
  0
SECTION
  2
ENTITIES
  0
LWPOLYLINE
  5
48
330
14
100
AcDbEntity
  8
BOARD_ART
  6
BYLAYER
370
   211
 62
   256
100
AcDbPolyline
 90
     2
 70
     0
 43
0.0254
 10
65.0
 20
0.0
 42
0.414213562373
 10
66.0
 20
1.0
 42
0.0
  0
LWPOLYLINE
  5
49
330
14
100
AcDbEntity
  8
BOARD_ART
  6
BYLAYER
370
   211
 62
   256
100
AcDbPolyline
 90
     2
 70
     0
 43
0.0254
 10
8.0
 20
1.0
 42
0.414213562373
 10
9.0
 20
0.0
 42
0.0
  0
LWPOLYLINE
  5
4A
330
14
100
AcDbEntity
  8
BOARD_ART
  6
BYLAYER
370
   211
 62
   256
100
AcDbPolyline
 90
     2
 70
     0
 43
0.0254
 10
6.0
 20
20.5
 10
6.0
 20
16.0
  0
LWPOLYLINE
  5
4B
330
14
100
AcDbEntity
  8
BOARD_ART
  6
BYLAYER
370
   211
 62
   256
100
AcDbPolyline
 90
     3
 70
     0
 43
0.0254
 10
6.0
 20
16.0
 10
8.0
 20
14.0
 10
8.0
 20
1.0
  0
LWPOLYLINE
  5
4C
330
14
100
AcDbEntity
  8
BOARD_ART
  6
BYLAYER
370
   211
 62
   256
100
AcDbPolyline
 90
     2
 70
     0
 43
0.0254
 10
68.0
 20
20.5
 10
68.0
 20
16.0
  0
LWPOLYLINE
  5
4D
330
14
100
AcDbEntity
  8
BOARD_ART
  6
BYLAYER
370
   211
 62
   256
100
AcDbPolyline
 90
     8
 70
     0
 43
0.0254
 10
68.0
 20
20.5
 10
67.5
 20
21.0
 10
56.5
 20
21.0
 10
54.5
 20
23.0
 10
19.5
 20
23.0
 10
17.5
 20
21.0
 10
6.5
 20
21.0
 10
6.0
 20
20.5
  0
LWPOLYLINE
  5
4E
330
14
100
AcDbEntity
  8
BOARD_ART
  6
BYLAYER
370
   211
 62
   256
100
AcDbPolyline
 90
     3
 70
     0
 43
0.0254
 10
66.0
 20
1.0
 10
66.0
 20
14.0
 10
68.0
 20
16.0
  0
LWPOLYLINE
  5
4F
330
14
100
AcDbEntity
  8
BOARD_ART
  6
BYLAYER
370
   211
 62
   256
100
AcDbPolyline
 90
     2
 70
     0
 43
0.0254
 10
35.0
 20
0.0
 10
39.0
 20
0.0
  0
LWPOLYLINE
  5
50
330
14
100
AcDbEntity
  8
BOARD_ART
  6
BYLAYER
370
   211
 62
   256
100
AcDbPolyline
 90
     2
 70
     0
 43
0.0254
 10
39.0
 20
0.0
 10
65.0
 20
0.0
  0
LWPOLYLINE
  5
51
330
14
100
AcDbEntity
  8
BOARD_ART
  6
BYLAYER
370
   211
 62
   256
100
AcDbPolyline
 90
     2
 70
     0
 43
0.0254
 10
9.0
 20
0.0
 10
35.0
 20
0.0
  0
LWPOLYLINE
  5
52
330
14
100
AcDbEntity
  8
DIMENSION_ART
  6
BYLAYER
370
   211
 62
   256
100
AcDbPolyline
 90
     4
 70
     0
 43
0.0254
 10
1.875
 20
4.0
 10
2.5
 20
0.0
 10
3.125
 20
4.0
 10
1.875
 20
4.0
  0
LWPOLYLINE
  5
53
330
14
100
AcDbEntity
  8
DIMENSION_ART
  6
BYLAYER
370
   211
 62
   256
100
AcDbPolyline
 90
     2
 70
     0
 43
0.0254
 10
2.5
 20
8.0313
 10
2.5
 20
0.0
  0
LWPOLYLINE
  5
54
330
14
100
AcDbEntity
  8
DIMENSION_ART
  6
BYLAYER
370
   211
 62
   256
100
AcDbPolyline
 90
     2
 70
     0
 43
0.0254
 10
5.5
 20
0.0
 10
0.0
 20
0.0
  0
LWPOLYLINE
  5
55
330
14
100
AcDbEntity
  8
DIMENSION_ART
  6
BYLAYER
370
   211
 62
   256
100
AcDbPolyline
 90
    14
 70
     0
 43
0.0254
 10
0.1771
 20
13.0583
 10
0.4134
 20
13.3758
 10
0.689
 20
13.5346
 10
1.004
 20
13.5875
 10
1.3976
 20
13.4817
 10
1.6733
 20
13.2171
 10
1.752
 20
12.8996
 10
1.7126
 20
12.582
 10
1.5551
 20
12.3175
 10
0.7677
 20
11.7883
 10
0.4134
 20
11.4179
 10
0.1771
 20
10.8886
 10
0.0984
 20
10.4125
 10
1.752
 20
10.4125
  0
LWPOLYLINE
  5
56
330
14
100
AcDbEntity
  8
DIMENSION_ART
  6
BYLAYER
370
   211
 62
   256
100
AcDbPolyline
 90
    12
 70
     0
 43
0.0254
 10
3.2087
 20
11.0475
 10
3.4448
 20
10.677
 10
3.7598
 20
10.4654
 10
4.1142
 20
10.4125
 10
4.4292
 20
10.4654
 10
4.7441
 20
10.7299
 10
4.9409
 20
11.0475
 10
4.9803
 20
11.365
 10
4.9016
 20
11.7353
 10
4.626
 20
12.0
 10
4.3504
 20
12.1059
 10
3.996
 20
12.1059
  0
LWPOLYLINE
  5
57
330
14
100
AcDbEntity
  8
DIMENSION_ART
  6
BYLAYER
370
   211
 62
   256
100
AcDbPolyline
 90
     9
 70
     0
 43
0.0254
 10
4.3504
 20
12.1059
 10
4.5866
 20
12.2646
 10
4.7835
 20
12.5291
 10
4.8622
 20
12.8466
 10
4.7835
 20
13.1642
 10
4.5866
 20
13.4287
 10
4.2323
 20
13.5875
 10
3.878
 20
13.5346
 10
3.5236
 20
13.3229
  0
LWPOLYLINE
  5
58
330
14
100
AcDbEntity
  8
DIMENSION_ART
  6
BYLAYER
370
   211
 62
   256
100
AcDbPolyline
 90
     4
 70
     0
 43
0.0254
 10
3.125
 20
19.0
 10
2.5
 20
23.0
 10
1.875
 20
19.0
 10
3.125
 20
19.0
  0
LWPOLYLINE
  5
59
330
14
100
AcDbEntity
  8
DIMENSION_ART
  6
BYLAYER
370
   211
 62
   256
100
AcDbPolyline
 90
     2
 70
     0
 43
0.0254
 10
2.5
 20
15.9687
 10
2.5
 20
23.0
  0
LWPOLYLINE
  5
5A
330
14
100
AcDbEntity
  8
DIMENSION_ART
  6
BYLAYER
370
   211
 62
   256
100
AcDbPolyline
 90
     2
 70
     0
 43
0.0254
 10
5.5
 20
23.0
 10
0.0
 20
23.0
  0
LWPOLYLINE
  5
5B
330
14
100
AcDbEntity
  8
DIMENSION_ART
  6
BYLAYER
370
   211
 62
   256
100
AcDbPolyline
 90
     4
 70
     0
 43
0.0254
 10
12.0
 20
29.625
 10
8.0
 20
29.0
 10
12.0
 20
28.375
 10
12.0
 20
29.625
  0
LWPOLYLINE
  5
5C
330
14
100
AcDbEntity
  8
DIMENSION_ART
  6
BYLAYER
370
   211
 62
   256
100
AcDbPolyline
 90
     2
 70
     0
 43
0.0254
 10
32.8629
 20
29.0
 10
8.0
 20
29.0
  0
LWPOLYLINE
  5
5D
330
14
100
AcDbEntity
  8
DIMENSION_ART
  6
BYLAYER
370
   211
 62
   256
100
AcDbPolyline
 90
     2
 70
     0
 43
0.0254
 10
8.0
 20
25.5
 10
8.0
 20
31.5
  0
LWPOLYLINE
  5
5E
330
14
100
AcDbEntity
  8
DIMENSION_ART
  6
BYLAYER
370
   211
 62
   256
100
AcDbPolyline
 90
    16
 70
     0
 43
0.0254
 10
35.5591
 20
27.8886
 10
35.7952
 20
27.6241
 10
36.0708
 20
27.4654
 10
36.4252
 20
27.4125
 10
36.7796
 20
27.5183
 10
37.0551
 20
27.7299
 10
37.252
 20
28.1004
 10
37.2913
 20
28.5237
 10
37.2126
 20
28.947
 10
37.0157
 20
29.2117
 10
36.7401
 20
29.4233
 10
36.4646
 20
29.4762
 10
36.189
 20
29.4233
 10
35.8347
 20
29.2117
 10
35.9528
 20
30.5875
 10
37.0157
 20
30.5875
  0
LWPOLYLINE
  5
5F
330
14
100
AcDbEntity
  8
DIMENSION_ART
  6
BYLAYER
370
   211
 62
   256
100
AcDbPolyline
 90
    29
 70
     0
 43
0.0254
 10
39.5748
 20
27.4125
 10
39.8504
 20
27.4654
 10
40.1653
 20
27.6241
 10
40.3622
 20
27.8886
 10
40.4409
 20
28.2592
 10
40.3622
 20
28.6295
 10
40.126
 20
28.947
 10
39.7716
 20
29.1059
 10
39.378
 20
29.1059
 10
39.1417
 20
29.2117
 10
38.9448
 20
29.4762
 10
38.8661
 20
29.8466
 10
38.9843
 20
30.2171
 10
39.2598
 20
30.4817
 10
39.5748
 20
30.5875
 10
39.8897
 20
30.4817
 10
40.1653
 20
30.2171
 10
40.2835
 20
29.8466
 10
40.2047
 20
29.4762
 10
40.0079
 20
29.2117
 10
39.7716
 20
29.1059
 10
39.378
 20
29.1059
 10
39.0236
 20
28.947
 10
38.7874
 20
28.6295
 10
38.7087
 20
28.2592
 10
38.7874
 20
27.8886
 10
38.9843
 20
27.6241
 10
39.2992
 20
27.4654
 10
39.5748
 20
27.4125
  0
LWPOLYLINE
  5
60
330
14
100
AcDbEntity
  8
DIMENSION_ART
  6
BYLAYER
370
   211
 62
   256
100
AcDbPolyline
 90
     2
 70
     0
 43
0.0254
 10
43.1371
 20
29.0
 10
66.0
 20
29.0
  0
LWPOLYLINE
  5
61
330
14
100
AcDbEntity
  8
DIMENSION_ART
  6
BYLAYER
370
   211
 62
   256
100
AcDbPolyline
 90
     4
 70
     0
 43
0.0254
 10
62.0
 20
28.375
 10
66.0
 20
29.0
 10
62.0
 20
29.625
 10
62.0
 20
28.375
  0
LWPOLYLINE
  5
62
330
14
100
AcDbEntity
  8
DIMENSION_ART
  6
BYLAYER
370
   211
 62
   256
100
AcDbPolyline
 90
     2
 70
     0
 43
0.0254
 10
66.0
 20
25.5
 10
66.0
 20
31.5
  0
INSERT
  5
63
330
14
100
AcDbEntity
  8
PASTETOP_ART
100
AcDbBlockReference
  2
RECTANGLE_42
 10
56.1298
 20
12.27
 30
0.0
  0
INSERT
  5
64
330
14
100
AcDbEntity
  8
PASTETOP_ART
100
AcDbBlockReference
  2
RECTANGLE_42
 10
56.1298
 20
9.73
 30
0.0
  0
INSERT
  5
65
330
14
100
AcDbEntity
  8
PASTETOP_ART
100
AcDbBlockReference
  2
RECTANGLE_42
 10
61.8702
 20
9.73
 30
0.0
  0
INSERT
  5
66
330
14
100
AcDbEntity
  8
PASTETOP_ART
100
AcDbBlockReference
  2
RECTANGLE_42
 10
61.8702
 20
12.27
 30
0.0
  0
INSERT
  5
67
330
14
100
AcDbEntity
  8
PASTETOP_ART
100
AcDbBlockReference
  2
RECTANGLE_12
 10
60.48
 20
7.75
 30
0.0
  0
INSERT
  5
68
330
14
100
AcDbEntity
  8
PASTETOP_ART
100
AcDbBlockReference
  2
RECTANGLE_12
 10
59.52
 20
7.75
 30
0.0
  0
INSERT
  5
69
330
14
100
AcDbEntity
  8
PASTETOP_ART
100
AcDbBlockReference
  2
RECTANGLE_12
 10
57.52
 20
7.75
 30
0.0
  0
INSERT
  5
6A
330
14
100
AcDbEntity
  8
PASTETOP_ART
100
AcDbBlockReference
  2
RECTANGLE_12
 10
58.48
 20
7.75
 30
0.0
  0
INSERT
  5
6B
330
14
100
AcDbEntity
  8
PASTETOP_ART
100
AcDbBlockReference
  2
SQUARE_43
 10
64.9
 20
19.5
 30
0.0
  0
INSERT
  5
6C
330
14
100
AcDbEntity
  8
PASTETOP_ART
100
AcDbBlockReference
  2
SQUARE_43
 10
62.1
 20
19.5
 30
0.0
  0
LWPOLYLINE
  5
6D
330
14
100
AcDbEntity
  8
SILK_TOP_ART
  6
BYLAYER
370
   211
 62
   256
100
AcDbPolyline
 90
     2
 70
     0
 43
0.25
 10
63.0
 20
18.6
 10
63.0
 20
20.4
  0
LWPOLYLINE
  5
6E
330
14
100
AcDbEntity
  8
SILK_TOP_ART
  6
BYLAYER
370
   211
 62
   256
100
AcDbPolyline
 90
     6
 70
     0
 43
0.2032
 10
60.778
 20
13.286
 10
57.73
 20
13.286
 10
57.222
 20
12.778
 10
57.222
 20
8.714
 10
60.778
 20
8.714
 10
60.778
 20
13.286
  0
LWPOLYLINE
  5
6F
330
14
100
AcDbEntity
  8
SILK_TOP_ART
  6
BYLAYER
370
   211
 62
   256
100
AcDbPolyline
 90
     2
 70
     0
 43
0.2032
 10
60.0
 20
7.9
 10
60.0
 20
8.0
  0
LWPOLYLINE
  5
70
330
14
100
AcDbEntity
  8
SILK_TOP_ART
  6
BYLAYER
370
   211
 62
   256
100
AcDbPolyline
 90
     2
 70
     0
 43
0.2032
 10
60.0
 20
7.5
 10
60.0
 20
7.6
  0
LWPOLYLINE
  5
71
330
14
100
AcDbEntity
  8
SILK_TOP_ART
  6
BYLAYER
370
   211
 62
   256
100
AcDbPolyline
 90
     2
 70
     0
 43
0.2032
 10
58.0
 20
7.95
 10
58.0
 20
7.55
  0
LWPOLYLINE
  5
72
330
14
100
AcDbEntity
  8
SILK_TOP_ART
  6
BYLAYER
370
   211
 62
   256
100
AcDbPolyline
 90
     2
 70
     0
 43
0.2032
 10
59.0
 20
10.7147
 42
0.414213562373
 10
60.0473
 20
11.762
 42
0.0
  0
LWPOLYLINE
  5
73
330
14
100
AcDbEntity
  8
SILK_TOP_ART
  6
BYLAYER
370
   211
 62
   256
100
AcDbPolyline
 90
     2
 70
     0
 43
0.2032
 10
57.9527
 20
11.762
 42
0.414213562373
 10
59.0
 20
10.7147
 42
0.0
  0
LWPOLYLINE
  5
74
330
14
100
AcDbEntity
  8
SILK_TOP_ART
  6
BYLAYER
370
   211
 62
   256
100
AcDbPolyline
 90
     2
 70
     0
 43
0.2032
 10
59.0
 20
12.8093
 42
0.414213562373
 10
57.9527
 20
11.762
 42
0.0
  0
LWPOLYLINE
  5
75
330
14
100
AcDbEntity
  8
SILK_TOP_ART
  6
BYLAYER
370
   211
 62
   256
100
AcDbPolyline
 90
     2
 70
     0
 43
0.2032
 10
60.0473
 20
11.762
 42
0.414213562373
 10
59.0
 20
12.8093
 42
0.0
  0
LWPOLYLINE
  5
76
330
14
100
AcDbEntity
  8
SILK_TOP_ART
  6
BYLAYER
370
   211
 62
   256
100
AcDbPolyline
 90
    18
 70
     0
 43
0.127
 10
59.8015
 20
9.5503
 10
59.7634
 20
9.4868
 10
59.738
 20
9.4128
 10
59.738
 20
9.3281
 10
59.7761
 20
9.2328
 10
59.8396
 20
9.1588
 10
59.9158
 20
9.1058
 10
60.0428
 20
9.0635
 10
60.1571
 20
9.0529
 10
60.2714
 20
9.0741
 10
60.3476
 20
9.1058
 10
60.4238
 20
9.1693
 10
60.4746
 20
9.2434
 10
60.5
 20
9.3175
 10
60.5
 20
9.3916
 10
60.4746
 20
9.4657
 10
60.4365
 20
9.5292
 10
60.3857
 20
9.5821
  0
LWPOLYLINE
  5
77
330
14
100
AcDbEntity
  8
SILK_TOP_ART
  6
BYLAYER
370
   211
 62
   256
100
AcDbPolyline
 90
     3
 70
     0
 43
0.127
 10
60.5
 20
9.9525
 10
59.738
 20
9.9525
 10
59.8904
 20
9.8255
  0
LWPOLYLINE
  5
78
330
14
100
AcDbEntity
  8
SILK_TOP_ART
  6
BYLAYER
370
   211
 62
   256
100
AcDbPolyline
 90
     2
 70
     0
 43
0.127
 10
60.5
 20
9.8255
 10
60.5
 20
10.0795
  0
LWPOLYLINE
  5
79
330
14
100
AcDbEntity
  8
SILK_TOP_ART
  6
BYLAYER
370
   211
 62
   256
100
AcDbPolyline
 90
    23
 70
     0
 43
0.127
 10
60.4111
 20
10.4076
 10
60.4746
 20
10.4817
 10
60.5
 20
10.5663
 10
60.4746
 20
10.651
 10
60.3984
 20
10.7251
 10
60.2841
 20
10.778
 10
60.1698
 20
10.7992
 10
60.0301
 20
10.7992
 10
59.9158
 20
10.778
 10
59.8142
 20
10.7251
 10
59.7634
 20
10.6616
 10
59.738
 20
10.5875
 10
59.7634
 20
10.5028
 10
59.8142
 20
10.4393
 10
59.8904
 20
10.397
 10
59.992
 20
10.3758
 10
60.0809
 20
10.397
 10
60.1698
 20
10.4499
 10
60.2206
 20
10.5134
 10
60.2333
 20
10.5875
 10
60.2079
 20
10.6722
 10
60.1444
 20
10.7357
 10
60.0301
 20
10.7992
  0
LWPOLYLINE
  5
7A
330
14
100
AcDbEntity
  8
SILK_TOP_ART
  6
BYLAYER
370
   211
 62
   256
100
AcDbPolyline
 90
    10
 70
     0
 43
0.127
 10
58.25
 20
9.1058
 10
57.488
 20
9.1058
 10
57.488
 20
9.3704
 10
57.5261
 20
9.4551
 10
57.5769
 20
9.508
 10
57.6785
 20
9.5292
 10
57.7801
 20
9.508
 10
57.8436
 20
9.4445
 10
57.8817
 20
9.3704
 10
57.8817
 20
9.1058
  0
LWPOLYLINE
  5
7B
330
14
100
AcDbEntity
  8
SILK_TOP_ART
  6
BYLAYER
370
   211
 62
   256
100
AcDbPolyline
 90
     2
 70
     0
 43
0.127
 10
57.8817
 20
9.3704
 10
58.25
 20
9.5292
  0
LWPOLYLINE
  5
7C
330
14
100
AcDbEntity
  8
SILK_TOP_ART
  6
BYLAYER
370
   211
 62
   256
100
AcDbPolyline
 90
     3
 70
     0
 43
0.127
 10
58.25
 20
9.9525
 10
57.488
 20
9.9525
 10
57.6404
 20
9.8255
  0
LWPOLYLINE
  5
7D
330
14
100
AcDbEntity
  8
SILK_TOP_ART
  6
BYLAYER
370
   211
 62
   256
100
AcDbPolyline
 90
     2
 70
     0
 43
0.127
 10
58.25
 20
9.8255
 10
58.25
 20
10.0795
  0
LWPOLYLINE
  5
7E
330
14
100
AcDbEntity
  8
SILK_TOP_ART
  6
BYLAYER
370
   211
 62
   256
100
AcDbPolyline
 90
    16
 70
     0
 43
0.127
 10
58.1357
 20
10.3547
 10
58.1992
 20
10.4182
 10
58.2373
 20
10.4922
 10
58.25
 20
10.5875
 10
58.2246
 20
10.6828
 10
58.1738
 20
10.7568
 10
58.0849
 20
10.8098
 10
57.9833
 20
10.8203
 10
57.8817
 20
10.7992
 10
57.8182
 20
10.7462
 10
57.7674
 20
10.6722
 10
57.7547
 20
10.5981
 10
57.7674
 20
10.524
 10
57.8182
 20
10.4288
 10
57.488
 20
10.4605
 10
57.488
 20
10.7462
  0
LWPOLYLINE
  5
7F
330
14
100
AcDbEntity
  8
SILK_TOP_ART
  6
BYLAYER
370
   211
 62
   256
100
AcDbPolyline
 90
     9
 70
     0
 43
0.127
 10
58.5847
 20
12.262
 10
58.5847
 20
11.7159
 10
58.627
 20
11.6016
 10
58.7117
 20
11.5254
 10
58.8175
 20
11.5
 10
58.9233
 20
11.5254
 10
59.008
 20
11.6016
 10
59.0503
 20
11.7159
 10
59.0503
 20
12.262
  0
LWPOLYLINE
  5
80
330
14
100
AcDbEntity
  8
SILK_TOP_ART
  6
BYLAYER
370
   211
 62
   256
100
AcDbPolyline
 90
    16
 70
     0
 43
0.127
 10
59.2197
 20
11.6143
 10
59.2832
 20
11.5508
 10
59.3572
 20
11.5127
 10
59.4525
 20
11.5
 10
59.5478
 20
11.5254
 10
59.6218
 20
11.5762
 10
59.6748
 20
11.6651
 10
59.6853
 20
11.7667
 10
59.6642
 20
11.8683
 10
59.6112
 20
11.9318
 10
59.5372
 20
11.9826
 10
59.4631
 20
11.9953
 10
59.389
 20
11.9826
 10
59.2938
 20
11.9318
 10
59.3255
 20
12.262
 10
59.6112
 20
12.262
  0
LWPOLYLINE
  5
81
330
14
100
AcDbEntity
  8
SILK_TOP_ART
  6
BYLAYER
370
   211
 62
   256
100
AcDbPolyline
 90
    14
 70
     0
 43
0.127
 10
64.0
 20
19.0847
 10
63.238
 20
19.0847
 10
63.238
 20
19.2963
 10
63.2761
 20
19.381
 10
63.3269
 20
19.4445
 10
63.4031
 20
19.4974
 10
63.492
 20
19.5398
 10
63.619
 20
19.5503
 10
63.746
 20
19.5398
 10
63.8349
 20
19.4974
 10
63.9111
 20
19.4445
 10
63.9619
 20
19.381
 10
64.0
 20
19.2963
 10
64.0
 20
19.0847
  0
LWPOLYLINE
  5
82
330
14
100
AcDbEntity
  8
SILK_TOP_ART
  6
BYLAYER
370
   211
 62
   256
100
AcDbPolyline
 90
    14
 70
     0
 43
0.127
 10
63.365
 20
19.7514
 10
63.2888
 20
19.8149
 10
63.2507
 20
19.889
 10
63.238
 20
19.9737
 10
63.2634
 20
20.0795
 10
63.3269
 20
20.1536
 10
63.4031
 20
20.1748
 10
63.4793
 20
20.1642
 10
63.5428
 20
20.1218
 10
63.6698
 20
19.9102
 10
63.7587
 20
19.8149
 10
63.8857
 20
19.7514
 10
64.0
 20
19.7302
 10
64.0
 20
20.1748
  0
LWPOLYLINE
  5
83
330
14
100
AcDbEntity
  8
SILK_TOP_ART
  6
BYLAYER
370
   211
 62
   256
100
AcDbPolyline
 90
     6
 70
     0
 43
0.381
 10
37.75
 20
18.75
 10
52.0
 20
18.75
 10
52.0
 20
5.5
 10
22.0
 20
5.5
 10
22.0
 20
18.75
 10
37.75
 20
18.75
  0
INSERT
  5
84
330
14
100
AcDbEntity
  8
MONITORPI-1-2_DRL
100
AcDbBlockReference
  2
ROUND_26
 10
60.5
 20
20.375
 30
0.0
  0
INSERT
  5
85
330
14
100
AcDbEntity
  8
MONITORPI-1-2_DRL
100
AcDbBlockReference
  2
ROUND_26
 10
60.5
 20
17.625
 30
0.0
  0
INSERT
  5
86
330
14
100
AcDbEntity
  8
MONITORPI-1-2_DRL
100
AcDbBlockReference
  2
ROUND_26
 10
45.0
 20
22.35
 30
0.0
  0
INSERT
  5
87
330
14
100
AcDbEntity
  8
MONITORPI-1-2_DRL
100
AcDbBlockReference
  2
ROUND_26
 10
29.0
 20
22.35
 30
0.0
  0
INSERT
  5
88
330
14
100
AcDbEntity
  8
MONITORPI-1-2_DRL
100
AcDbBlockReference
  2
ROUND_56
 10
9.25
 20
5.0
 30
0.0
  0
INSERT
  5
89
330
14
100
AcDbEntity
  8
MONITORPI-1-2_DRL
100
AcDbBlockReference
  2
ROUND_56
 10
9.25
 20
7.54
 30
0.0
  0
INSERT
  5
8A
330
14
100
AcDbEntity
  8
MONITORPI-1-2_DRL
100
AcDbBlockReference
  2
ROUND_56
 10
9.25
 20
10.08
 30
0.0
  0
INSERT
  5
8B
330
14
100
AcDbEntity
  8
MONITORPI-1-2_DRL
100
AcDbBlockReference
  2
ROUND_56
 10
9.25
 20
12.62
 30
0.0
  0
INSERT
  5
8C
330
14
100
AcDbEntity
  8
MONITORPI-1-2_DRL
100
AcDbBlockReference
  2
ROUND_56
 10
9.25
 20
15.16
 30
0.0
  0
INSERT
  5
8D
330
14
100
AcDbEntity
  8
MONITORPI-1-2_DRL
100
AcDbBlockReference
  2
ROUND_56
 10
64.75
 20
15.25
 30
0.0
  0
INSERT
  5
8E
330
14
100
AcDbEntity
  8
MONITORPI-1-2_DRL
100
AcDbBlockReference
  2
ROUND_56
 10
64.75
 20
12.71
 30
0.0
  0
INSERT
  5
8F
330
14
100
AcDbEntity
  8
MONITORPI-1-2_DRL
100
AcDbBlockReference
  2
ROUND_56
 10
64.75
 20
10.17
 30
0.0
  0
INSERT
  5
90
330
14
100
AcDbEntity
  8
MONITORPI-1-2_DRL
100
AcDbBlockReference
  2
ROUND_56
 10
64.75
 20
7.63
 30
0.0
  0
INSERT
  5
91
330
14
100
AcDbEntity
  8
MONITORPI-1-2_DRL
100
AcDbBlockReference
  2
ROUND_56
 10
64.75
 20
5.09
 30
0.0
  0
ENDSEC
  0
SECTION
  2
OBJECTS
  0
DICTIONARY
  5
20
102
{ACAD_REACTORS
330
0
102
}
330
0
100
AcDbDictionary
280
     1
281
     0
  3
ACAD_GROUP
350
21
  3
ACAD_LAYOUT
350
22
  3
ACAD_MLINESTYLE
350
25
  0
DICTIONARY
  5
21
102
{ACAD_REACTORS
330
20
102
}
330
20
100
AcDbDictionary
280
     1
281
     0
  0
DICTIONARY
  5
22
102
{ACAD_REACTORS
330
20
102
}
330
20
100
AcDbDictionary
280
     1
281
     0
  3
Model
350
23
  3
Layout1
350
24
  0
LAYOUT
  5
23
102
{ACAD_REACTORS
330
22
102
}
330
22
100
AcDbPlotSettings
  1

  2
none_device
  4
ISO_A4_(210.00_x_297.00_MM)
 40
0.0
 41
0.0
 42
0.0
 43
0.0
 44
210.0
 45
297.0
 46
0.0
 47
0.0
 48
0.0
 49
0.0
140
0.0
141
0.0
141
1.0
143
1.0
 72
     1
 73
     0
 74
     5
  7

 75
    16
147
1.0
 76
     0
 77
     2
148
0.0
149
0.0
100
AcDbLayout
  1
Model
 70
     1
 71
     0
 10
-0.0127
 20
-0.0127
 11
68.0127
 21
31.5127
 12
0.0
 22
0.0
 32
0.0
 14
-0.0127
 24
-0.0127
 34
0.0
 15
68.0127
 25
31.5127
 35
0.0
146
0.0
 13
0.0
 23
0.0
 33
0.0
 16
1.0
 26
0.0
 36
0.0
 17
0.0
 27
1.0
 37
0.0
 76
     0
330
14
  0
LAYOUT
  5
24
102
{ACAD_REACTORS
330
22
102
}
330
22
100
AcDbPlotSettings
  1

  2
none_device
  4

 40
0.0
 41
0.0
 42
0.0
 43
0.0
 44
0.0
 45
0.0
 46
0.0
 47
0.0
 48
0.0
 49
0.0
140
0.0
141
0.0
141
1.0
143
1.0
 72
     1
 73
     0
 74
     5
  7

 75
    16
147
1.0
 76
     0
 77
     2
148
0.0
149
0.0
100
AcDbLayout
  1
Layout1
 70
     1
 71
     1
 10
100000000000000000000.0
 20
100000000000000000000.0
 11
-100000000000000000000.0
 21
-100000000000000000000.0
 12
0.0
 22
0.0
 32
0.0
 14
100000000000000000000.0
 24
100000000000000000000.0
 34
0.0
 15
-100000000000000000000.0
 25
-100000000000000000000.0
 35
0.0
146
0.0
 13
0.0
 23
0.0
 33
0.0
 16
1.0
 26
0.0
 36
0.0
 17
0.0
 27
1.0
 37
0.0
 76
     0
330
15
  0
DICTIONARY
  5
25
102
{ACAD_REACTORS
330
20
102
}
330
20
100
AcDbDictionary
280
     1
281
     0
  0
ENDSEC
  0
EOF
