  0
SECTION
  2
HEADER
  9
$EXTMIN
 10
-11.0127
 20
-8.5127
 30
0.00
  9
$EXTMAX
 10
104.3532
 20
26.0127
 30
0.00
  0
ENDSEC
  0
SECTION
  2
TABLES
  0
TABLE
  2
LTYPE
 70
3
  0
LTYPE
  2
BYBLOCK
 70
0
  3

 72
65
 73
0
 40
0.00
  0
LTYPE
  2
BYLAYER
 70
0
  3

 72
65
 73
0
 40
0.00
  0
LTYPE
  2
CONTINUOUS
 70
0
  3
Solid line
 72
65
 73
0
 40
0.00
  0
ENDTAB
  0
TABLE
  2
LAYER
 70
12
  0
LAYER
  2
0
 70
0
 62
7
  6
CONTINUOUS
  0
LAYER
  2
BOARD_ART
 70
0
 62
7
  6
CONTINUOUS
  0
LAYER
  2
BOTTOM_ART
 70
0
 62
7
  6
CONTINUOUS
  0
LAYER
  2
DIMENSION_ART
 70
0
 62
2
  6
CONTINUOUS
  0
LAYER
  2
PASTEBOTTOM_ART
 70
0
 62
4
  6
CONTINUOUS
  0
LAYER
  2
PASTETOP_ART
 70
0
 62
3
  6
CONTINUOUS
  0
LAYER
  2
SILK_BOTTOM_ART
 70
0
 62
10
  6
CONTINUOUS
  0
LAYER
  2
SILK_TOP_ART
 70
0
 62
14
  6
CONTINUOUS
  0
LAYER
  2
SOLDER_BOTTOM_ART
 70
0
 62
9
  6
CONTINUOUS
  0
LAYER
  2
SOLDER_TOP_ART
 70
0
 62
12
  6
CONTINUOUS
  0
LAYER
  2
TOP_ART
 70
0
 62
11
  6
CONTINUOUS
  0
LAYER
  2
ESSC-1-2_DRL
 70
0
 62
6
  6
CONTINUOUS
  0
LAYER
  2
ESSC_ROU
 70
0
 62
1
  6
CONTINUOUS
  0
ENDTAB
  0
TABLE
  2
STYLE
 70
0
  0
ENDTAB
  0
ENDSEC
  0
SECTION
  2
BLOCKS
  0
BLOCK
  2
ROUND_1
  3
ROUND_1
 70
64
 10
0.00
 20
0.00
 30
0.00
  0
CIRCLE
  8
0
 10
0.00
 20
0.00
 30
0.00
 40
0.0127
  0
ENDBLK
  0
BLOCK
  2
ROUND_2
  3
ROUND_2
 70
64
 10
0.00
 20
0.00
 30
0.00
  0
CIRCLE
  8
0
 10
0.00
 20
0.00
 30
0.00
 40
0.381
  0
ENDBLK
  0
BLOCK
  2
ROUND_3
  3
ROUND_3
 70
64
 10
0.00
 20
0.00
 30
0.00
  0
CIRCLE
  8
0
 10
0.00
 20
0.00
 30
0.00
 40
0.3048
  0
ENDBLK
  0
BLOCK
  2
ROUND_4
  3
ROUND_4
 70
64
 10
0.00
 20
0.00
 30
0.00
  0
CIRCLE
  8
0
 10
0.00
 20
0.00
 30
0.00
 40
0.635
  0
ENDBLK
  0
BLOCK
  2
RECTANGLE_5
  3
RECTANGLE_5
 70
64
 10
0.00
 20
0.00
 30
0.00
  0
SOLID
  8
0
 10
0.889
 20
0.1778
 30
0.00
 11
0.889
 21
-0.1778
 31
0.00
 12
-0.889
 22
0.1778
 32
0.00
 13
-0.889
 23
-0.1778
 33
0.00
  0
ENDBLK
  0
BLOCK
  2
RECTANGLE_6
  3
RECTANGLE_6
 70
64
 10
0.00
 20
0.00
 30
0.00
  0
SOLID
  8
0
 10
0.635
 20
0.508
 30
0.00
 11
0.635
 21
-0.508
 31
0.00
 12
-0.635
 22
0.508
 32
0.00
 13
-0.635
 23
-0.508
 33
0.00
  0
ENDBLK
  0
BLOCK
  2
ROUND_7
  3
ROUND_7
 70
64
 10
0.00
 20
0.00
 30
0.00
  0
CIRCLE
  8
0
 10
0.00
 20
0.00
 30
0.00
 40
0.3302
  0
ENDBLK
  0
BLOCK
  2
RECTANGLE_8
  3
RECTANGLE_8
 70
64
 10
0.00
 20
0.00
 30
0.00
  0
SOLID
  8
0
 10
0.508
 20
0.635
 30
0.00
 11
0.508
 21
-0.635
 31
0.00
 12
-0.508
 22
0.635
 32
0.00
 13
-0.508
 23
-0.635
 33
0.00
  0
ENDBLK
  0
BLOCK
  2
ROUND_9
  3
ROUND_9
 70
64
 10
0.00
 20
0.00
 30
0.00
  0
CIRCLE
  8
0
 10
0.00
 20
0.00
 30
0.00
 40
1.375
  0
ENDBLK
  0
BLOCK
  2
RECTANGLE_10
  3
RECTANGLE_10
 70
64
 10
0.00
 20
0.00
 30
0.00
  0
SOLID
  8
0
 10
0.5715
 20
1.143
 30
0.00
 11
0.5715
 21
-1.143
 31
0.00
 12
-0.5715
 22
1.143
 32
0.00
 13
-0.5715
 23
-1.143
 33
0.00
  0
ENDBLK
  0
BLOCK
  2
RECTANGLE_11
  3
RECTANGLE_11
 70
64
 10
0.00
 20
0.00
 30
0.00
  0
SOLID
  8
0
 10
0.3048
 20
0.2794
 30
0.00
 11
0.3048
 21
-0.2794
 31
0.00
 12
-0.3048
 22
0.2794
 32
0.00
 13
-0.3048
 23
-0.2794
 33
0.00
  0
ENDBLK
  0
BLOCK
  2
ROUND_13
  3
ROUND_13
 70
64
 10
0.00
 20
0.00
 30
0.00
  0
CIRCLE
  8
0
 10
0.00
 20
0.00
 30
0.00
 40
0.26035
  0
ENDBLK
  0
BLOCK
  2
RECTANGLE_14
  3
RECTANGLE_14
 70
64
 10
0.00
 20
0.00
 30
0.00
  0
SOLID
  8
0
 10
0.508
 20
0.1524
 30
0.00
 11
0.508
 21
-0.1524
 31
0.00
 12
-0.508
 22
0.1524
 32
0.00
 13
-0.508
 23
-0.1524
 33
0.00
  0
ENDBLK
  0
BLOCK
  2
RECTANGLE_15
  3
RECTANGLE_15
 70
64
 10
0.00
 20
0.00
 30
0.00
  0
SOLID
  8
0
 10
0.3175
 20
0.508
 30
0.00
 11
0.3175
 21
-0.508
 31
0.00
 12
-0.3175
 22
0.508
 32
0.00
 13
-0.3175
 23
-0.508
 33
0.00
  0
ENDBLK
  0
BLOCK
  2
RECTANGLE_16
  3
RECTANGLE_16
 70
64
 10
0.00
 20
0.00
 30
0.00
  0
SOLID
  8
0
 10
0.3556
 20
0.4826
 30
0.00
 11
0.3556
 21
-0.4826
 31
0.00
 12
-0.3556
 22
0.4826
 32
0.00
 13
-0.3556
 23
-0.4826
 33
0.00
  0
ENDBLK
  0
BLOCK
  2
RECTANGLE_17
  3
RECTANGLE_17
 70
64
 10
0.00
 20
0.00
 30
0.00
  0
SOLID
  8
0
 10
0.2794
 20
0.3048
 30
0.00
 11
0.2794
 21
-0.3048
 31
0.00
 12
-0.2794
 22
0.3048
 32
0.00
 13
-0.2794
 23
-0.3048
 33
0.00
  0
ENDBLK
  0
BLOCK
  2
RECTANGLE_18
  3
RECTANGLE_18
 70
64
 10
0.00
 20
0.00
 30
0.00
  0
SOLID
  8
0
 10
0.635
 20
0.5715
 30
0.00
 11
0.635
 21
-0.5715
 31
0.00
 12
-0.635
 22
0.5715
 32
0.00
 13
-0.635
 23
-0.5715
 33
0.00
  0
ENDBLK
  0
BLOCK
  2
RECTANGLE_19
  3
RECTANGLE_19
 70
64
 10
0.00
 20
0.00
 30
0.00
  0
SOLID
  8
0
 10
1.143
 20
1.778
 30
0.00
 11
1.143
 21
-1.778
 31
0.00
 12
-1.143
 22
1.778
 32
0.00
 13
-1.143
 23
-1.778
 33
0.00
  0
ENDBLK
  0
BLOCK
  2
ROUND_20
  3
ROUND_20
 70
64
 10
0.00
 20
0.00
 30
0.00
  0
CIRCLE
  8
0
 10
0.00
 20
0.00
 30
0.00
 40
0.15
  0
ENDBLK
  0
BLOCK
  2
ROUND_21
  3
ROUND_21
 70
64
 10
0.00
 20
0.00
 30
0.00
  0
CIRCLE
  8
0
 10
0.00
 20
0.00
 30
0.00
 40
0.1016
  0
ENDBLK
  0
BLOCK
  2
ROUND_22
  3
ROUND_22
 70
64
 10
0.00
 20
0.00
 30
0.00
  0
CIRCLE
  8
0
 10
0.00
 20
0.00
 30
0.00
 40
0.0635
  0
ENDBLK
  0
BLOCK
  2
RECTANGLE_23
  3
RECTANGLE_23
 70
64
 10
0.00
 20
0.00
 30
0.00
  0
SOLID
  8
0
 10
0.127
 20
0.5207
 30
0.00
 11
0.127
 21
-0.5207
 31
0.00
 12
-0.127
 22
0.5207
 32
0.00
 13
-0.127
 23
-0.5207
 33
0.00
  0
ENDBLK
  0
BLOCK
  2
RECTANGLE_24
  3
RECTANGLE_24
 70
64
 10
0.00
 20
0.00
 30
0.00
  0
SOLID
  8
0
 10
0.5207
 20
0.127
 30
0.00
 11
0.5207
 21
-0.127
 31
0.00
 12
-0.5207
 22
0.127
 32
0.00
 13
-0.5207
 23
-0.127
 33
0.00
  0
ENDBLK
  0
BLOCK
  2
ROUND_25
  3
ROUND_25
 70
64
 10
0.00
 20
0.00
 30
0.00
  0
CIRCLE
  8
0
 10
0.00
 20
0.00
 30
0.00
 40
0.127
  0
ENDBLK
  0
BLOCK
  2
ROUND_26
  3
ROUND_26
 70
64
 10
0.00
 20
0.00
 30
0.00
  0
CIRCLE
  8
0
 10
0.00
 20
0.00
 30
0.00
 40
0.1905
  0
ENDBLK
  0
BLOCK
  2
RECTANGLE_32
  3
RECTANGLE_32
 70
64
 10
0.00
 20
0.00
 30
0.00
  0
SOLID
  8
0
 10
0.635
 20
0.3175
 30
0.00
 11
0.635
 21
-0.3175
 31
0.00
 12
-0.635
 22
0.3175
 32
0.00
 13
-0.635
 23
-0.3175
 33
0.00
  0
ENDBLK
  0
BLOCK
  2
RECTANGLE_33
  3
RECTANGLE_33
 70
64
 10
0.00
 20
0.00
 30
0.00
  0
SOLID
  8
0
 10
0.3175
 20
0.6985
 30
0.00
 11
0.3175
 21
-0.6985
 31
0.00
 12
-0.3175
 22
0.6985
 32
0.00
 13
-0.3175
 23
-0.6985
 33
0.00
  0
ENDBLK
  0
BLOCK
  2
ROUND_34
  3
ROUND_34
 70
64
 10
0.00
 20
0.00
 30
0.00
  0
CIRCLE
  8
0
 10
0.00
 20
0.00
 30
0.00
 40
0.10
  0
ENDBLK
  0
BLOCK
  2
ROUND_35
  3
ROUND_35
 70
64
 10
0.00
 20
0.00
 30
0.00
  0
CIRCLE
  8
0
 10
0.00
 20
0.00
 30
0.00
 40
0.1025
  0
ENDBLK
  0
BLOCK
  2
ROUND_36
  3
ROUND_36
 70
64
 10
0.00
 20
0.00
 30
0.00
  0
CIRCLE
  8
0
 10
0.00
 20
0.00
 30
0.00
 40
0.085
  0
ENDBLK
  0
BLOCK
  2
ROUND_37
  3
ROUND_37
 70
64
 10
0.00
 20
0.00
 30
0.00
  0
CIRCLE
  8
0
 10
0.00
 20
0.00
 30
0.00
 40
0.80
  0
ENDBLK
  0
BLOCK
  2
ROUND_38
  3
ROUND_38
 70
64
 10
0.00
 20
0.00
 30
0.00
  0
CIRCLE
  8
0
 10
0.00
 20
0.00
 30
0.00
 40
2.25
  0
ENDBLK
  0
BLOCK
  2
RECTANGLE_39
  3
RECTANGLE_39
 70
64
 10
0.00
 20
0.00
 30
0.00
  0
SOLID
  8
0
 10
1.2065
 20
1.8415
 30
0.00
 11
1.2065
 21
-1.8415
 31
0.00
 12
-1.2065
 22
1.8415
 32
0.00
 13
-1.2065
 23
-1.8415
 33
0.00
  0
ENDBLK
  0
BLOCK
  2
ROUND_40
  3
ROUND_40
 70
64
 10
0.00
 20
0.00
 30
0.00
  0
CIRCLE
  8
0
 10
0.00
 20
0.00
 30
0.00
 40
0.6477
  0
ENDBLK
  0
BLOCK
  2
ROUND_41
  3
ROUND_41
 70
64
 10
0.00
 20
0.00
 30
0.00
  0
CIRCLE
  8
0
 10
0.00
 20
0.00
 30
0.00
 40
0.4445
  0
ENDBLK
  0
BLOCK
  2
ROUND_45
  3
ROUND_45
 70
64
 10
0.00
 20
0.00
 30
0.00
  0
CIRCLE
  8
0
 10
0.00
 20
0.00
 30
0.00
 40
0.12385
  0
ENDBLK
  0
BLOCK
  2
ROUND_46
  3
ROUND_46
 70
64
 10
0.00
 20
0.00
 30
0.00
  0
CIRCLE
  8
0
 10
0.00
 20
0.00
 30
0.00
 40
0.1524
  0
ENDBLK
  0
BLOCK
  2
ROUND_47
  3
ROUND_47
 70
64
 10
0.00
 20
0.00
 30
0.00
  0
CIRCLE
  8
0
 10
0.00
 20
0.00
 30
0.00
 40
0.1651
  0
ENDBLK
  0
BLOCK
  2
ROUND_48
  3
ROUND_48
 70
64
 10
0.00
 20
0.00
 30
0.00
  0
CIRCLE
  8
0
 10
0.00
 20
0.00
 30
0.00
 40
0.2032
  0
ENDBLK
  0
BLOCK
  2
ROUND_49
  3
ROUND_49
 70
64
 10
0.00
 20
0.00
 30
0.00
  0
CIRCLE
  8
0
 10
0.00
 20
0.00
 30
0.00
 40
0.75
  0
ENDBLK
  0
BLOCK
  2
ROUND_50
  3
ROUND_50
 70
64
 10
0.00
 20
0.00
 30
0.00
  0
CIRCLE
  8
0
 10
0.00
 20
0.00
 30
0.00
 40
0.0375
  0
ENDBLK
  0
ENDSEC
  0
SECTION
  2
ENTITIES
  0
POLYLINE
  8
BOARD_ART
 66
1
 10
0.00
 20
0.00
 30
0.00
 40
0.0254
 41
0.0254
  0
VERTEX
  8
BOARD_ART
 10
2.50
 20
0.00
 30
0.00
  0
VERTEX
  8
BOARD_ART
 10
78.35
 20
0.00
 30
0.00
  0
VERTEX
  8
BOARD_ART
 10
78.75
 20
0.40
 30
0.00
  0
VERTEX
  8
BOARD_ART
 10
78.75
 20
1.75
 30
0.00
  0
VERTEX
  8
BOARD_ART
 10
79.50
 20
2.50
 30
0.00
  0
VERTEX
  8
BOARD_ART
 10
79.50
 20
3.00
 30
0.00
  0
SEQEND
  0
POLYLINE
  8
BOARD_ART
 66
1
 10
0.00
 20
0.00
 30
0.00
 40
0.0254
 41
0.0254
  0
VERTEX
  8
BOARD_ART
 10
80.50
 20
3.00
 30
0.00
 42
1.00
  0
VERTEX
  8
BOARD_ART
 10
79.50
 20
3.00
 30
0.00
 42
0.00
  0
SEQEND
  0
POLYLINE
  8
BOARD_ART
 66
1
 10
0.00
 20
0.00
 30
0.00
 40
0.0254
 41
0.0254
  0
VERTEX
  8
BOARD_ART
 10
80.50
 20
3.00
 30
0.00
  0
VERTEX
  8
BOARD_ART
 10
80.50
 20
2.50
 30
0.00
  0
VERTEX
  8
BOARD_ART
 10
81.25
 20
1.75
 30
0.00
  0
VERTEX
  8
BOARD_ART
 10
81.25
 20
0.40
 30
0.00
  0
VERTEX
  8
BOARD_ART
 10
81.65
 20
0.00
 30
0.00
  0
VERTEX
  8
BOARD_ART
 10
92.50
 20
0.00
 30
0.00
  0
SEQEND
  0
POLYLINE
  8
BOARD_ART
 66
1
 10
0.00
 20
0.00
 30
0.00
 40
0.0254
 41
0.0254
  0
VERTEX
  8
BOARD_ART
 10
92.50
 20
0.00
 30
0.00
 42
0.4142136
  0
VERTEX
  8
BOARD_ART
 10
95.00
 20
2.50
 30
0.00
 42
0.00
  0
SEQEND
  0
POLYLINE
  8
BOARD_ART
 66
1
 10
0.00
 20
0.00
 30
0.00
 40
0.0254
 41
0.0254
  0
VERTEX
  8
BOARD_ART
 10
95.00
 20
2.50
 30
0.00
  0
VERTEX
  8
BOARD_ART
 10
95.00
 20
15.50
 30
0.00
  0
SEQEND
  0
POLYLINE
  8
BOARD_ART
 66
1
 10
0.00
 20
0.00
 30
0.00
 40
0.0254
 41
0.0254
  0
VERTEX
  8
BOARD_ART
 10
95.00
 20
15.50
 30
0.00
 42
0.4142136
  0
VERTEX
  8
BOARD_ART
 10
92.50
 20
18.00
 30
0.00
 42
0.00
  0
SEQEND
  0
POLYLINE
  8
BOARD_ART
 66
1
 10
0.00
 20
0.00
 30
0.00
 40
0.0254
 41
0.0254
  0
VERTEX
  8
BOARD_ART
 10
92.50
 20
18.00
 30
0.00
  0
VERTEX
  8
BOARD_ART
 10
81.65
 20
18.00
 30
0.00
  0
VERTEX
  8
BOARD_ART
 10
81.25
 20
17.60
 30
0.00
  0
VERTEX
  8
BOARD_ART
 10
81.25
 20
16.25
 30
0.00
  0
VERTEX
  8
BOARD_ART
 10
80.50
 20
15.50
 30
0.00
  0
VERTEX
  8
BOARD_ART
 10
80.50
 20
15.00
 30
0.00
  0
SEQEND
  0
POLYLINE
  8
BOARD_ART
 66
1
 10
0.00
 20
0.00
 30
0.00
 40
0.0254
 41
0.0254
  0
VERTEX
  8
BOARD_ART
 10
80.00
 20
14.50
 30
0.00
 42
0.4142136
  0
VERTEX
  8
BOARD_ART
 10
80.50
 20
15.00
 30
0.00
 42
0.00
  0
SEQEND
  0
POLYLINE
  8
BOARD_ART
 66
1
 10
0.00
 20
0.00
 30
0.00
 40
0.0254
 41
0.0254
  0
VERTEX
  8
BOARD_ART
 10
79.50
 20
15.00
 30
0.00
 42
0.4142136
  0
VERTEX
  8
BOARD_ART
 10
80.00
 20
14.50
 30
0.00
 42
0.00
  0
SEQEND
  0
POLYLINE
  8
BOARD_ART
 66
1
 10
0.00
 20
0.00
 30
0.00
 40
0.0254
 41
0.0254
  0
VERTEX
  8
BOARD_ART
 10
79.50
 20
15.00
 30
0.00
  0
VERTEX
  8
BOARD_ART
 10
79.50
 20
15.50
 30
0.00
  0
VERTEX
  8
BOARD_ART
 10
78.75
 20
16.25
 30
0.00
  0
VERTEX
  8
BOARD_ART
 10
78.75
 20
17.60
 30
0.00
  0
VERTEX
  8
BOARD_ART
 10
78.35
 20
18.00
 30
0.00
  0
VERTEX
  8
BOARD_ART
 10
2.75
 20
18.00
 30
0.00
  0
SEQEND
  0
POLYLINE
  8
BOARD_ART
 66
1
 10
0.00
 20
0.00
 30
0.00
 40
0.0254
 41
0.0254
  0
VERTEX
  8
BOARD_ART
 10
2.75
 20
18.00
 30
0.00
 42
0.023796
  0
VERTEX
  8
BOARD_ART
 10
2.4875
 20
17.9875
 30
0.00
 42
0.00
  0
SEQEND
  0
POLYLINE
  8
BOARD_ART
 66
1
 10
0.00
 20
0.00
 30
0.00
 40
0.0254
 41
0.0254
  0
VERTEX
  8
BOARD_ART
 10
2.4875
 20
17.9875
 30
0.00
 42
0.4142136
  0
VERTEX
  8
BOARD_ART
 10
0.00
 20
15.50
 30
0.00
 42
0.00
  0
SEQEND
  0
POLYLINE
  8
BOARD_ART
 66
1
 10
0.00
 20
0.00
 30
0.00
 40
0.0254
 41
0.0254
  0
VERTEX
  8
BOARD_ART
 10
0.00
 20
15.50
 30
0.00
  0
VERTEX
  8
BOARD_ART
 10
0.00
 20
2.50
 30
0.00
  0
SEQEND
  0
POLYLINE
  8
BOARD_ART
 66
1
 10
0.00
 20
0.00
 30
0.00
 40
0.0254
 41
0.0254
  0
VERTEX
  8
BOARD_ART
 10
0.00
 20
2.50
 30
0.00
 42
0.4142136
  0
VERTEX
  8
BOARD_ART
 10
2.50
 20
0.00
 30
0.00
 42
0.00
  0
SEQEND
  0
POLYLINE
  8
BOARD_ART
 66
1
 10
0.00
 20
0.00
 30
0.00
 40
0.0254
 41
0.0254
  0
VERTEX
  8
BOARD_ART
 10
24.50
 20
7.75
 30
0.00
  0
VERTEX
  8
BOARD_ART
 10
25.25
 20
7.75
 30
0.00
  0
SEQEND
  0
POLYLINE
  8
BOARD_ART
 66
1
 10
0.00
 20
0.00
 30
0.00
 40
0.0254
 41
0.0254
  0
VERTEX
  8
BOARD_ART
 10
25.25
 20
7.75
 30
0.00
 42
0.4142136
  0
VERTEX
  8
BOARD_ART
 10
25.75
 20
8.25
 30
0.00
 42
0.00
  0
SEQEND
  0
POLYLINE
  8
BOARD_ART
 66
1
 10
0.00
 20
0.00
 30
0.00
 40
0.0254
 41
0.0254
  0
VERTEX
  8
BOARD_ART
 10
25.75
 20
8.25
 30
0.00
  0
VERTEX
  8
BOARD_ART
 10
25.75
 20
16.50
 30
0.00
  0
SEQEND
  0
POLYLINE
  8
BOARD_ART
 66
1
 10
0.00
 20
0.00
 30
0.00
 40
0.0254
 41
0.0254
  0
VERTEX
  8
BOARD_ART
 10
25.75
 20
16.50
 30
0.00
 42
0.4142136
  0
VERTEX
  8
BOARD_ART
 10
25.25
 20
17.00
 30
0.00
 42
0.00
  0
SEQEND
  0
POLYLINE
  8
BOARD_ART
 66
1
 10
0.00
 20
0.00
 30
0.00
 40
0.0254
 41
0.0254
  0
VERTEX
  8
BOARD_ART
 10
25.25
 20
17.00
 30
0.00
  0
VERTEX
  8
BOARD_ART
 10
24.50
 20
17.00
 30
0.00
  0
SEQEND
  0
POLYLINE
  8
BOARD_ART
 66
1
 10
0.00
 20
0.00
 30
0.00
 40
0.0254
 41
0.0254
  0
VERTEX
  8
BOARD_ART
 10
24.50
 20
17.00
 30
0.00
 42
0.4142136
  0
VERTEX
  8
BOARD_ART
 10
24.00
 20
16.50
 30
0.00
 42
0.00
  0
SEQEND
  0
POLYLINE
  8
BOARD_ART
 66
1
 10
0.00
 20
0.00
 30
0.00
 40
0.0254
 41
0.0254
  0
VERTEX
  8
BOARD_ART
 10
24.00
 20
16.50
 30
0.00
  0
VERTEX
  8
BOARD_ART
 10
24.00
 20
8.25
 30
0.00
  0
SEQEND
  0
POLYLINE
  8
BOARD_ART
 66
1
 10
0.00
 20
0.00
 30
0.00
 40
0.0254
 41
0.0254
  0
VERTEX
  8
BOARD_ART
 10
24.00
 20
8.25
 30
0.00
 42
0.4142136
  0
VERTEX
  8
BOARD_ART
 10
24.50
 20
7.75
 30
0.00
 42
0.00
  0
SEQEND
  0
POLYLINE
  8
DIMENSION_ART
 66
1
 10
0.00
 20
0.00
 30
0.00
 40
0.0254
 41
0.0254
  0
VERTEX
  8
DIMENSION_ART
 10
-6.8661
 20
-6.9525
 30
0.00
  0
VERTEX
  8
DIMENSION_ART
 10
-6.63
 20
-7.323
 30
0.00
  0
VERTEX
  8
DIMENSION_ART
 10
-6.315
 20
-7.5346
 30
0.00
  0
VERTEX
  8
DIMENSION_ART
 10
-5.9606
 20
-7.5875
 30
0.00
  0
VERTEX
  8
DIMENSION_ART
 10
-5.6456
 20
-7.5346
 30
0.00
  0
VERTEX
  8
DIMENSION_ART
 10
-5.3307
 20
-7.2701
 30
0.00
  0
VERTEX
  8
DIMENSION_ART
 10
-5.1339
 20
-6.9525
 30
0.00
  0
VERTEX
  8
DIMENSION_ART
 10
-5.0945
 20
-6.635
 30
0.00
  0
VERTEX
  8
DIMENSION_ART
 10
-5.1732
 20
-6.2647
 30
0.00
  0
VERTEX
  8
DIMENSION_ART
 10
-5.4488
 20
-6.00
 30
0.00
  0
VERTEX
  8
DIMENSION_ART
 10
-5.7244
 20
-5.8941
 30
0.00
  0
VERTEX
  8
DIMENSION_ART
 10
-6.0788
 20
-5.8941
 30
0.00
  0
SEQEND
  0
POLYLINE
  8
DIMENSION_ART
 66
1
 10
0.00
 20
0.00
 30
0.00
 40
0.0254
 41
0.0254
  0
VERTEX
  8
DIMENSION_ART
 10
-5.7244
 20
-5.8941
 30
0.00
  0
VERTEX
  8
DIMENSION_ART
 10
-5.4882
 20
-5.7354
 30
0.00
  0
VERTEX
  8
DIMENSION_ART
 10
-5.2913
 20
-5.4709
 30
0.00
  0
VERTEX
  8
DIMENSION_ART
 10
-5.2126
 20
-5.1534
 30
0.00
  0
VERTEX
  8
DIMENSION_ART
 10
-5.2913
 20
-4.8358
 30
0.00
  0
VERTEX
  8
DIMENSION_ART
 10
-5.4882
 20
-4.5713
 30
0.00
  0
VERTEX
  8
DIMENSION_ART
 10
-5.8425
 20
-4.4125
 30
0.00
  0
VERTEX
  8
DIMENSION_ART
 10
-6.1968
 20
-4.4654
 30
0.00
  0
VERTEX
  8
DIMENSION_ART
 10
-6.5512
 20
-4.6771
 30
0.00
  0
SEQEND
  0
POLYLINE
  8
DIMENSION_ART
 66
1
 10
0.00
 20
0.00
 30
0.00
 40
0.0254
 41
0.0254
  0
VERTEX
  8
DIMENSION_ART
 10
-4.00
 20
-6.625
 30
0.00
  0
VERTEX
  8
DIMENSION_ART
 10
0.00
 20
-6.00
 30
0.00
  0
VERTEX
  8
DIMENSION_ART
 10
-4.00
 20
-5.375
 30
0.00
  0
VERTEX
  8
DIMENSION_ART
 10
-4.00
 20
-6.625
 30
0.00
  0
SEQEND
  0
POLYLINE
  8
DIMENSION_ART
 66
1
 10
0.00
 20
0.00
 30
0.00
 40
0.0254
 41
0.0254
  0
VERTEX
  8
DIMENSION_ART
 10
-9.125
 20
7.00
 30
0.00
  0
VERTEX
  8
DIMENSION_ART
 10
-8.50
 20
3.00
 30
0.00
  0
VERTEX
  8
DIMENSION_ART
 10
-7.875
 20
7.00
 30
0.00
  0
VERTEX
  8
DIMENSION_ART
 10
-9.125
 20
7.00
 30
0.00
  0
SEQEND
  0
POLYLINE
  8
DIMENSION_ART
 66
1
 10
0.00
 20
0.00
 30
0.00
 40
0.0254
 41
0.0254
  0
VERTEX
  8
DIMENSION_ART
 10
-8.50
 20
4.5313
 30
0.00
  0
VERTEX
  8
DIMENSION_ART
 10
-8.50
 20
3.00
 30
0.00
  0
SEQEND
  0
POLYLINE
  8
DIMENSION_ART
 66
1
 10
0.00
 20
0.00
 30
0.00
 40
0.0254
 41
0.0254
  0
VERTEX
  8
DIMENSION_ART
 10
-1.00
 20
3.00
 30
0.00
  0
VERTEX
  8
DIMENSION_ART
 10
-11.00
 20
3.00
 30
0.00
  0
SEQEND
  0
POLYLINE
  8
DIMENSION_ART
 66
1
 10
0.00
 20
0.00
 30
0.00
 40
0.0254
 41
0.0254
  0
VERTEX
  8
DIMENSION_ART
 10
-6.3189
 20
7.00
 30
0.00
  0
VERTEX
  8
DIMENSION_ART
 10
-6.3189
 20
10.175
 30
0.00
  0
VERTEX
  8
DIMENSION_ART
 10
-6.7913
 20
9.54
 30
0.00
  0
SEQEND
  0
POLYLINE
  8
DIMENSION_ART
 66
1
 10
0.00
 20
0.00
 30
0.00
 40
0.0254
 41
0.0254
  0
VERTEX
  8
DIMENSION_ART
 10
-6.7913
 20
7.00
 30
0.00
  0
VERTEX
  8
DIMENSION_ART
 10
-5.8465
 20
7.00
 30
0.00
  0
SEQEND
  0
POLYLINE
  8
DIMENSION_ART
 66
1
 10
0.00
 20
0.00
 30
0.00
 40
0.0254
 41
0.0254
  0
VERTEX
  8
DIMENSION_ART
 10
-3.9174
 20
9.6458
 30
0.00
  0
VERTEX
  8
DIMENSION_ART
 10
-3.6811
 20
9.9633
 30
0.00
  0
VERTEX
  8
DIMENSION_ART
 10
-3.4055
 20
10.1221
 30
0.00
  0
VERTEX
  8
DIMENSION_ART
 10
-3.0905
 20
10.175
 30
0.00
  0
VERTEX
  8
DIMENSION_ART
 10
-2.6969
 20
10.0692
 30
0.00
  0
VERTEX
  8
DIMENSION_ART
 10
-2.4212
 20
9.8046
 30
0.00
  0
VERTEX
  8
DIMENSION_ART
 10
-2.3425
 20
9.4871
 30
0.00
  0
VERTEX
  8
DIMENSION_ART
 10
-2.3819
 20
9.1695
 30
0.00
  0
VERTEX
  8
DIMENSION_ART
 10
-2.5394
 20
8.905
 30
0.00
  0
VERTEX
  8
DIMENSION_ART
 10
-3.3268
 20
8.3758
 30
0.00
  0
VERTEX
  8
DIMENSION_ART
 10
-3.6811
 20
8.0054
 30
0.00
  0
VERTEX
  8
DIMENSION_ART
 10
-3.9174
 20
7.4761
 30
0.00
  0
VERTEX
  8
DIMENSION_ART
 10
-3.9961
 20
7.00
 30
0.00
  0
VERTEX
  8
DIMENSION_ART
 10
-2.3425
 20
7.00
 30
0.00
  0
SEQEND
  0
POLYLINE
  8
DIMENSION_ART
 66
1
 10
0.00
 20
0.00
 30
0.00
 40
0.0254
 41
0.0254
  0
VERTEX
  8
DIMENSION_ART
 10
-7.875
 20
11.00
 30
0.00
  0
VERTEX
  8
DIMENSION_ART
 10
-8.50
 20
15.00
 30
0.00
  0
VERTEX
  8
DIMENSION_ART
 10
-9.125
 20
11.00
 30
0.00
  0
VERTEX
  8
DIMENSION_ART
 10
-7.875
 20
11.00
 30
0.00
  0
SEQEND
  0
POLYLINE
  8
DIMENSION_ART
 66
1
 10
0.00
 20
0.00
 30
0.00
 40
0.0254
 41
0.0254
  0
VERTEX
  8
DIMENSION_ART
 10
-8.50
 20
12.4687
 30
0.00
  0
VERTEX
  8
DIMENSION_ART
 10
-8.50
 20
15.00
 30
0.00
  0
SEQEND
  0
POLYLINE
  8
DIMENSION_ART
 66
1
 10
0.00
 20
0.00
 30
0.00
 40
0.0254
 41
0.0254
  0
VERTEX
  8
DIMENSION_ART
 10
-1.00
 20
15.00
 30
0.00
  0
VERTEX
  8
DIMENSION_ART
 10
-11.00
 20
15.00
 30
0.00
  0
SEQEND
  0
POLYLINE
  8
DIMENSION_ART
 66
1
 10
0.00
 20
0.00
 30
0.00
 40
0.0254
 41
0.0254
  0
VERTEX
  8
DIMENSION_ART
 10
3.00
 20
-3.25
 30
0.00
  0
VERTEX
  8
DIMENSION_ART
 10
3.00
 20
-8.50
 30
0.00
  0
SEQEND
  0
POLYLINE
  8
DIMENSION_ART
 66
1
 10
0.00
 20
0.00
 30
0.00
 40
0.0254
 41
0.0254
  0
VERTEX
  8
DIMENSION_ART
 10
0.00
 20
-3.25
 30
0.00
  0
VERTEX
  8
DIMENSION_ART
 10
0.00
 20
-8.50
 30
0.00
  0
SEQEND
  0
POLYLINE
  8
DIMENSION_ART
 66
1
 10
0.00
 20
0.00
 30
0.00
 40
0.0254
 41
0.0254
  0
VERTEX
  8
DIMENSION_ART
 10
3.00
 20
-3.25
 30
0.00
  0
VERTEX
  8
DIMENSION_ART
 10
3.00
 20
-8.50
 30
0.00
  0
SEQEND
  0
POLYLINE
  8
DIMENSION_ART
 66
1
 10
0.00
 20
0.00
 30
0.00
 40
0.0254
 41
0.0254
  0
VERTEX
  8
DIMENSION_ART
 10
7.00
 20
-5.375
 30
0.00
  0
VERTEX
  8
DIMENSION_ART
 10
3.00
 20
-6.00
 30
0.00
  0
VERTEX
  8
DIMENSION_ART
 10
7.00
 20
-6.625
 30
0.00
  0
VERTEX
  8
DIMENSION_ART
 10
7.00
 20
-5.375
 30
0.00
  0
SEQEND
  0
POLYLINE
  8
DIMENSION_ART
 66
1
 10
0.00
 20
0.00
 30
0.00
 40
0.0254
 41
0.0254
  0
VERTEX
  8
DIMENSION_ART
 10
11.00
 20
-6.00
 30
0.00
  0
VERTEX
  8
DIMENSION_ART
 10
3.00
 20
-6.00
 30
0.00
  0
SEQEND
  0
POLYLINE
  8
DIMENSION_ART
 66
1
 10
0.00
 20
0.00
 30
0.00
 40
0.0254
 41
0.0254
  0
VERTEX
  8
DIMENSION_ART
 10
-2.4377
 20
-6.00
 30
0.00
  0
VERTEX
  8
DIMENSION_ART
 10
0.00
 20
-6.00
 30
0.00
  0
SEQEND
  0
POLYLINE
  8
DIMENSION_ART
 66
1
 10
0.00
 20
0.00
 30
0.00
 40
0.0254
 41
0.0254
  0
VERTEX
  8
DIMENSION_ART
 10
7.00
 20
-5.375
 30
0.00
  0
VERTEX
  8
DIMENSION_ART
 10
3.00
 20
-6.00
 30
0.00
  0
VERTEX
  8
DIMENSION_ART
 10
7.00
 20
-6.625
 30
0.00
  0
VERTEX
  8
DIMENSION_ART
 10
7.00
 20
-5.375
 30
0.00
  0
SEQEND
  0
POLYLINE
  8
DIMENSION_ART
 66
1
 10
0.00
 20
0.00
 30
0.00
 40
0.0254
 41
0.0254
  0
VERTEX
  8
DIMENSION_ART
 10
42.3629
 20
-6.00
 30
0.00
  0
VERTEX
  8
DIMENSION_ART
 10
3.00
 20
-6.00
 30
0.00
  0
SEQEND
  0
POLYLINE
  8
DIMENSION_ART
 66
1
 10
0.00
 20
0.00
 30
0.00
 40
0.0254
 41
0.0254
  0
VERTEX
  8
DIMENSION_ART
 10
3.00
 20
-3.25
 30
0.00
  0
VERTEX
  8
DIMENSION_ART
 10
3.00
 20
-4.00
 30
0.00
  0
SEQEND
  0
POLYLINE
  8
DIMENSION_ART
 66
1
 10
0.00
 20
0.00
 30
0.00
 40
0.0254
 41
0.0254
  0
VERTEX
  8
DIMENSION_ART
 10
0.00
 20
20.50
 30
0.00
  0
VERTEX
  8
DIMENSION_ART
 10
0.00
 20
26.00
 30
0.00
  0
SEQEND
  0
POLYLINE
  8
DIMENSION_ART
 66
1
 10
0.00
 20
0.00
 30
0.00
 40
0.0254
 41
0.0254
  0
VERTEX
  8
DIMENSION_ART
 10
4.00
 20
24.125
 30
0.00
  0
VERTEX
  8
DIMENSION_ART
 10
0.00
 20
23.50
 30
0.00
  0
VERTEX
  8
DIMENSION_ART
 10
4.00
 20
22.875
 30
0.00
  0
VERTEX
  8
DIMENSION_ART
 10
4.00
 20
24.125
 30
0.00
  0
SEQEND
  0
POLYLINE
  8
DIMENSION_ART
 66
1
 10
0.00
 20
0.00
 30
0.00
 40
0.0254
 41
0.0254
  0
VERTEX
  8
DIMENSION_ART
 10
43.3629
 20
23.50
 30
0.00
  0
VERTEX
  8
DIMENSION_ART
 10
0.00
 20
23.50
 30
0.00
  0
SEQEND
  0
POLYLINE
  8
DIMENSION_ART
 66
1
 10
0.00
 20
0.00
 30
0.00
 40
0.0254
 41
0.0254
  0
VERTEX
  8
DIMENSION_ART
 10
45.8464
 20
-7.5875
 30
0.00
  0
VERTEX
  8
DIMENSION_ART
 10
45.9252
 20
-6.8996
 30
0.00
  0
VERTEX
  8
DIMENSION_ART
 10
46.0433
 20
-6.3176
 30
0.00
  0
VERTEX
  8
DIMENSION_ART
 10
46.2008
 20
-5.7883
 30
0.00
  0
VERTEX
  8
DIMENSION_ART
 10
46.3976
 20
-5.2063
 30
0.00
  0
VERTEX
  8
DIMENSION_ART
 10
46.7126
 20
-4.4125
 30
0.00
  0
VERTEX
  8
DIMENSION_ART
 10
45.1378
 20
-4.4125
 30
0.00
  0
SEQEND
  0
POLYLINE
  8
DIMENSION_ART
 66
1
 10
0.00
 20
0.00
 30
0.00
 40
0.0254
 41
0.0254
  0
VERTEX
  8
DIMENSION_ART
 10
48.996
 20
-7.5875
 30
0.00
  0
VERTEX
  8
DIMENSION_ART
 10
49.0748
 20
-6.8996
 30
0.00
  0
VERTEX
  8
DIMENSION_ART
 10
49.1929
 20
-6.3176
 30
0.00
  0
VERTEX
  8
DIMENSION_ART
 10
49.3504
 20
-5.7883
 30
0.00
  0
VERTEX
  8
DIMENSION_ART
 10
49.5472
 20
-5.2063
 30
0.00
  0
VERTEX
  8
DIMENSION_ART
 10
49.8622
 20
-4.4125
 30
0.00
  0
VERTEX
  8
DIMENSION_ART
 10
48.2874
 20
-4.4125
 30
0.00
  0
SEQEND
  0
POLYLINE
  8
DIMENSION_ART
 66
1
 10
0.00
 20
0.00
 30
0.00
 40
0.0254
 41
0.0254
  0
VERTEX
  8
DIMENSION_ART
 10
46.2559
 20
22.2828
 30
0.00
  0
VERTEX
  8
DIMENSION_ART
 10
46.5315
 20
22.0183
 30
0.00
  0
VERTEX
  8
DIMENSION_ART
 10
46.8464
 20
21.9125
 30
0.00
  0
VERTEX
  8
DIMENSION_ART
 10
47.1614
 20
22.0183
 30
0.00
  0
VERTEX
  8
DIMENSION_ART
 10
47.437
 20
22.3357
 30
0.00
  0
VERTEX
  8
DIMENSION_ART
 10
47.6339
 20
22.8121
 30
0.00
  0
VERTEX
  8
DIMENSION_ART
 10
47.7126
 20
23.2883
 30
0.00
  0
VERTEX
  8
DIMENSION_ART
 10
47.7126
 20
23.8704
 30
0.00
  0
VERTEX
  8
DIMENSION_ART
 10
47.6339
 20
24.3466
 30
0.00
  0
VERTEX
  8
DIMENSION_ART
 10
47.437
 20
24.77
 30
0.00
  0
VERTEX
  8
DIMENSION_ART
 10
47.2008
 20
24.9817
 30
0.00
  0
VERTEX
  8
DIMENSION_ART
 10
46.9252
 20
25.0875
 30
0.00
  0
VERTEX
  8
DIMENSION_ART
 10
46.6102
 20
24.9817
 30
0.00
  0
VERTEX
  8
DIMENSION_ART
 10
46.374
 20
24.77
 30
0.00
  0
VERTEX
  8
DIMENSION_ART
 10
46.2165
 20
24.4525
 30
0.00
  0
VERTEX
  8
DIMENSION_ART
 10
46.1378
 20
24.0291
 30
0.00
  0
VERTEX
  8
DIMENSION_ART
 10
46.2165
 20
23.6588
 30
0.00
  0
VERTEX
  8
DIMENSION_ART
 10
46.4134
 20
23.2883
 30
0.00
  0
VERTEX
  8
DIMENSION_ART
 10
46.6496
 20
23.0766
 30
0.00
  0
VERTEX
  8
DIMENSION_ART
 10
46.9252
 20
23.0237
 30
0.00
  0
VERTEX
  8
DIMENSION_ART
 10
47.2401
 20
23.1295
 30
0.00
  0
VERTEX
  8
DIMENSION_ART
 10
47.4764
 20
23.3941
 30
0.00
  0
VERTEX
  8
DIMENSION_ART
 10
47.7126
 20
23.8704
 30
0.00
  0
SEQEND
  0
POLYLINE
  8
DIMENSION_ART
 66
1
 10
0.00
 20
0.00
 30
0.00
 40
0.0254
 41
0.0254
  0
VERTEX
  8
DIMENSION_ART
 10
49.2087
 20
22.3886
 30
0.00
  0
VERTEX
  8
DIMENSION_ART
 10
49.4448
 20
22.1241
 30
0.00
  0
VERTEX
  8
DIMENSION_ART
 10
49.7204
 20
21.9654
 30
0.00
  0
VERTEX
  8
DIMENSION_ART
 10
50.0748
 20
21.9125
 30
0.00
  0
VERTEX
  8
DIMENSION_ART
 10
50.4292
 20
22.0183
 30
0.00
  0
VERTEX
  8
DIMENSION_ART
 10
50.7047
 20
22.2299
 30
0.00
  0
VERTEX
  8
DIMENSION_ART
 10
50.9016
 20
22.6004
 30
0.00
  0
VERTEX
  8
DIMENSION_ART
 10
50.9409
 20
23.0237
 30
0.00
  0
VERTEX
  8
DIMENSION_ART
 10
50.8622
 20
23.447
 30
0.00
  0
VERTEX
  8
DIMENSION_ART
 10
50.6653
 20
23.7117
 30
0.00
  0
VERTEX
  8
DIMENSION_ART
 10
50.3897
 20
23.9233
 30
0.00
  0
VERTEX
  8
DIMENSION_ART
 10
50.1142
 20
23.9762
 30
0.00
  0
VERTEX
  8
DIMENSION_ART
 10
49.8386
 20
23.9233
 30
0.00
  0
VERTEX
  8
DIMENSION_ART
 10
49.4843
 20
23.7117
 30
0.00
  0
VERTEX
  8
DIMENSION_ART
 10
49.6024
 20
25.0875
 30
0.00
  0
VERTEX
  8
DIMENSION_ART
 10
50.6653
 20
25.0875
 30
0.00
  0
SEQEND
  0
POLYLINE
  8
DIMENSION_ART
 66
1
 10
0.00
 20
0.00
 30
0.00
 40
0.0254
 41
0.0254
  0
VERTEX
  8
DIMENSION_ART
 10
52.6371
 20
-6.00
 30
0.00
  0
VERTEX
  8
DIMENSION_ART
 10
80.00
 20
-6.00
 30
0.00
  0
SEQEND
  0
POLYLINE
  8
DIMENSION_ART
 66
1
 10
0.00
 20
0.00
 30
0.00
 40
0.0254
 41
0.0254
  0
VERTEX
  8
DIMENSION_ART
 10
53.6371
 20
23.50
 30
0.00
  0
VERTEX
  8
DIMENSION_ART
 10
95.00
 20
23.50
 30
0.00
  0
SEQEND
  0
POLYLINE
  8
DIMENSION_ART
 66
1
 10
0.00
 20
0.00
 30
0.00
 40
0.0254
 41
0.0254
  0
VERTEX
  8
DIMENSION_ART
 10
72.00
 20
-6.00
 30
0.00
  0
VERTEX
  8
DIMENSION_ART
 10
80.00
 20
-6.00
 30
0.00
  0
SEQEND
  0
POLYLINE
  8
DIMENSION_ART
 66
1
 10
0.00
 20
0.00
 30
0.00
 40
0.0254
 41
0.0254
  0
VERTEX
  8
DIMENSION_ART
 10
80.00
 20
-3.25
 30
0.00
  0
VERTEX
  8
DIMENSION_ART
 10
80.00
 20
-8.50
 30
0.00
  0
SEQEND
  0
POLYLINE
  8
DIMENSION_ART
 66
1
 10
0.00
 20
0.00
 30
0.00
 40
0.0254
 41
0.0254
  0
VERTEX
  8
DIMENSION_ART
 10
80.00
 20
-3.25
 30
0.00
  0
VERTEX
  8
DIMENSION_ART
 10
80.00
 20
-8.50
 30
0.00
  0
SEQEND
  0
POLYLINE
  8
DIMENSION_ART
 66
1
 10
0.00
 20
0.00
 30
0.00
 40
0.0254
 41
0.0254
  0
VERTEX
  8
DIMENSION_ART
 10
76.00
 20
-6.625
 30
0.00
  0
VERTEX
  8
DIMENSION_ART
 10
80.00
 20
-6.00
 30
0.00
  0
VERTEX
  8
DIMENSION_ART
 10
76.00
 20
-5.375
 30
0.00
  0
VERTEX
  8
DIMENSION_ART
 10
76.00
 20
-6.625
 30
0.00
  0
SEQEND
  0
POLYLINE
  8
DIMENSION_ART
 66
1
 10
0.00
 20
0.00
 30
0.00
 40
0.0254
 41
0.0254
  0
VERTEX
  8
DIMENSION_ART
 10
76.00
 20
-6.625
 30
0.00
  0
VERTEX
  8
DIMENSION_ART
 10
80.00
 20
-6.00
 30
0.00
  0
VERTEX
  8
DIMENSION_ART
 10
76.00
 20
-5.375
 30
0.00
  0
VERTEX
  8
DIMENSION_ART
 10
76.00
 20
-6.625
 30
0.00
  0
SEQEND
  0
POLYLINE
  8
DIMENSION_ART
 66
1
 10
0.00
 20
0.00
 30
0.00
 40
0.0254
 41
0.0254
  0
VERTEX
  8
DIMENSION_ART
 10
87.75
 20
-3.25
 30
0.00
  0
VERTEX
  8
DIMENSION_ART
 10
87.75
 20
-8.50
 30
0.00
  0
SEQEND
  0
POLYLINE
  8
DIMENSION_ART
 66
1
 10
0.00
 20
0.00
 30
0.00
 40
0.0254
 41
0.0254
  0
VERTEX
  8
DIMENSION_ART
 10
91.75
 20
-5.375
 30
0.00
  0
VERTEX
  8
DIMENSION_ART
 10
87.75
 20
-6.00
 30
0.00
  0
VERTEX
  8
DIMENSION_ART
 10
91.75
 20
-6.625
 30
0.00
  0
VERTEX
  8
DIMENSION_ART
 10
91.75
 20
-5.375
 30
0.00
  0
SEQEND
  0
POLYLINE
  8
DIMENSION_ART
 66
1
 10
0.00
 20
0.00
 30
0.00
 40
0.0254
 41
0.0254
  0
VERTEX
  8
DIMENSION_ART
 10
90.4633
 20
-6.00
 30
0.00
  0
VERTEX
  8
DIMENSION_ART
 10
87.75
 20
-6.00
 30
0.00
  0
SEQEND
  0
POLYLINE
  8
DIMENSION_ART
 66
1
 10
0.00
 20
0.00
 30
0.00
 40
0.0254
 41
0.0254
  0
VERTEX
  8
DIMENSION_ART
 10
93.9468
 20
-7.5875
 30
0.00
  0
VERTEX
  8
DIMENSION_ART
 10
94.0256
 20
-6.8996
 30
0.00
  0
VERTEX
  8
DIMENSION_ART
 10
94.1437
 20
-6.3176
 30
0.00
  0
VERTEX
  8
DIMENSION_ART
 10
94.3012
 20
-5.7883
 30
0.00
  0
VERTEX
  8
DIMENSION_ART
 10
94.498
 20
-5.2063
 30
0.00
  0
VERTEX
  8
DIMENSION_ART
 10
94.813
 20
-4.4125
 30
0.00
  0
VERTEX
  8
DIMENSION_ART
 10
93.2382
 20
-4.4125
 30
0.00
  0
SEQEND
  0
POLYLINE
  8
DIMENSION_ART
 66
1
 10
0.00
 20
0.00
 30
0.00
 40
0.0254
 41
0.0254
  0
VERTEX
  8
DIMENSION_ART
 10
97.1752
 20
-7.6933
 30
0.00
  0
VERTEX
  8
DIMENSION_ART
 10
97.0964
 20
-7.6404
 30
0.00
  0
VERTEX
  8
DIMENSION_ART
 10
97.0964
 20
-7.5346
 30
0.00
  0
VERTEX
  8
DIMENSION_ART
 10
97.1752
 20
-7.4817
 30
0.00
  0
VERTEX
  8
DIMENSION_ART
 10
97.254
 20
-7.5346
 30
0.00
  0
VERTEX
  8
DIMENSION_ART
 10
97.254
 20
-7.6404
 30
0.00
  0
VERTEX
  8
DIMENSION_ART
 10
97.1752
 20
-7.6933
 30
0.00
  0
SEQEND
  0
POLYLINE
  8
DIMENSION_ART
 66
1
 10
0.00
 20
0.00
 30
0.00
 40
0.0254
 41
0.0254
  0
VERTEX
  8
DIMENSION_ART
 10
100.246
 20
-7.5875
 30
0.00
  0
VERTEX
  8
DIMENSION_ART
 10
100.3248
 20
-6.8996
 30
0.00
  0
VERTEX
  8
DIMENSION_ART
 10
100.4429
 20
-6.3176
 30
0.00
  0
VERTEX
  8
DIMENSION_ART
 10
100.6004
 20
-5.7883
 30
0.00
  0
VERTEX
  8
DIMENSION_ART
 10
100.7972
 20
-5.2063
 30
0.00
  0
VERTEX
  8
DIMENSION_ART
 10
101.1122
 20
-4.4125
 30
0.00
  0
VERTEX
  8
DIMENSION_ART
 10
99.5374
 20
-4.4125
 30
0.00
  0
SEQEND
  0
POLYLINE
  8
DIMENSION_ART
 66
1
 10
0.00
 20
0.00
 30
0.00
 40
0.0254
 41
0.0254
  0
VERTEX
  8
DIMENSION_ART
 10
102.6083
 20
-7.1114
 30
0.00
  0
VERTEX
  8
DIMENSION_ART
 10
102.8444
 20
-7.3759
 30
0.00
  0
VERTEX
  8
DIMENSION_ART
 10
103.12
 20
-7.5346
 30
0.00
  0
VERTEX
  8
DIMENSION_ART
 10
103.4744
 20
-7.5875
 30
0.00
  0
VERTEX
  8
DIMENSION_ART
 10
103.8288
 20
-7.4817
 30
0.00
  0
VERTEX
  8
DIMENSION_ART
 10
104.1043
 20
-7.2701
 30
0.00
  0
VERTEX
  8
DIMENSION_ART
 10
104.3012
 20
-6.8996
 30
0.00
  0
VERTEX
  8
DIMENSION_ART
 10
104.3405
 20
-6.4763
 30
0.00
  0
VERTEX
  8
DIMENSION_ART
 10
104.2618
 20
-6.053
 30
0.00
  0
VERTEX
  8
DIMENSION_ART
 10
104.0649
 20
-5.7883
 30
0.00
  0
VERTEX
  8
DIMENSION_ART
 10
103.7893
 20
-5.5767
 30
0.00
  0
VERTEX
  8
DIMENSION_ART
 10
103.5138
 20
-5.5238
 30
0.00
  0
VERTEX
  8
DIMENSION_ART
 10
103.2382
 20
-5.5767
 30
0.00
  0
VERTEX
  8
DIMENSION_ART
 10
102.8839
 20
-5.7883
 30
0.00
  0
VERTEX
  8
DIMENSION_ART
 10
103.002
 20
-4.4125
 30
0.00
  0
VERTEX
  8
DIMENSION_ART
 10
104.0649
 20
-4.4125
 30
0.00
  0
SEQEND
  0
POLYLINE
  8
DIMENSION_ART
 66
1
 10
0.00
 20
0.00
 30
0.00
 40
0.0254
 41
0.0254
  0
VERTEX
  8
DIMENSION_ART
 10
95.00
 20
20.50
 30
0.00
  0
VERTEX
  8
DIMENSION_ART
 10
95.00
 20
26.00
 30
0.00
  0
SEQEND
  0
POLYLINE
  8
DIMENSION_ART
 66
1
 10
0.00
 20
0.00
 30
0.00
 40
0.0254
 41
0.0254
  0
VERTEX
  8
DIMENSION_ART
 10
91.00
 20
22.875
 30
0.00
  0
VERTEX
  8
DIMENSION_ART
 10
95.00
 20
23.50
 30
0.00
  0
VERTEX
  8
DIMENSION_ART
 10
91.00
 20
24.125
 30
0.00
  0
VERTEX
  8
DIMENSION_ART
 10
91.00
 20
22.875
 30
0.00
  0
SEQEND
  0
POLYLINE
  8
DIMENSION_ART
 66
1
 10
0.00
 20
0.00
 30
0.00
 40
0.0254
 41
0.0254
  0
VERTEX
  8
DIMENSION_ART
 10
98.875
 20
4.00
 30
0.00
  0
VERTEX
  8
DIMENSION_ART
 10
99.50
 20
0.00
 30
0.00
  0
VERTEX
  8
DIMENSION_ART
 10
100.125
 20
4.00
 30
0.00
  0
VERTEX
  8
DIMENSION_ART
 10
98.875
 20
4.00
 30
0.00
  0
SEQEND
  0
POLYLINE
  8
DIMENSION_ART
 66
1
 10
0.00
 20
0.00
 30
0.00
 40
0.0254
 41
0.0254
  0
VERTEX
  8
DIMENSION_ART
 10
99.50
 20
5.0313
 30
0.00
  0
VERTEX
  8
DIMENSION_ART
 10
99.50
 20
0.00
 30
0.00
  0
SEQEND
  0
POLYLINE
  8
DIMENSION_ART
 66
1
 10
0.00
 20
0.00
 30
0.00
 40
0.0254
 41
0.0254
  0
VERTEX
  8
DIMENSION_ART
 10
98.00
 20
0.00
 30
0.00
  0
VERTEX
  8
DIMENSION_ART
 10
102.00
 20
0.00
 30
0.00
  0
SEQEND
  0
POLYLINE
  8
DIMENSION_ART
 66
1
 10
0.00
 20
0.00
 30
0.00
 40
0.0254
 41
0.0254
  0
VERTEX
  8
DIMENSION_ART
 10
97.9252
 20
7.4125
 30
0.00
  0
VERTEX
  8
DIMENSION_ART
 10
97.9252
 20
10.5875
 30
0.00
  0
VERTEX
  8
DIMENSION_ART
 10
97.4528
 20
9.9525
 30
0.00
  0
SEQEND
  0
POLYLINE
  8
DIMENSION_ART
 66
1
 10
0.00
 20
0.00
 30
0.00
 40
0.0254
 41
0.0254
  0
VERTEX
  8
DIMENSION_ART
 10
97.4528
 20
7.4125
 30
0.00
  0
VERTEX
  8
DIMENSION_ART
 10
98.3976
 20
7.4125
 30
0.00
  0
SEQEND
  0
POLYLINE
  8
DIMENSION_ART
 66
1
 10
0.00
 20
0.00
 30
0.00
 40
0.0254
 41
0.0254
  0
VERTEX
  8
DIMENSION_ART
 10
101.0748
 20
7.4125
 30
0.00
  0
VERTEX
  8
DIMENSION_ART
 10
101.3504
 20
7.4654
 30
0.00
  0
VERTEX
  8
DIMENSION_ART
 10
101.6653
 20
7.6241
 30
0.00
  0
VERTEX
  8
DIMENSION_ART
 10
101.8622
 20
7.8886
 30
0.00
  0
VERTEX
  8
DIMENSION_ART
 10
101.9409
 20
8.2592
 30
0.00
  0
VERTEX
  8
DIMENSION_ART
 10
101.8622
 20
8.6295
 30
0.00
  0
VERTEX
  8
DIMENSION_ART
 10
101.626
 20
8.947
 30
0.00
  0
VERTEX
  8
DIMENSION_ART
 10
101.2716
 20
9.1059
 30
0.00
  0
VERTEX
  8
DIMENSION_ART
 10
100.878
 20
9.1059
 30
0.00
  0
VERTEX
  8
DIMENSION_ART
 10
100.6417
 20
9.2117
 30
0.00
  0
VERTEX
  8
DIMENSION_ART
 10
100.4448
 20
9.4762
 30
0.00
  0
VERTEX
  8
DIMENSION_ART
 10
100.3661
 20
9.8466
 30
0.00
  0
VERTEX
  8
DIMENSION_ART
 10
100.4843
 20
10.2171
 30
0.00
  0
VERTEX
  8
DIMENSION_ART
 10
100.7598
 20
10.4817
 30
0.00
  0
VERTEX
  8
DIMENSION_ART
 10
101.0748
 20
10.5875
 30
0.00
  0
VERTEX
  8
DIMENSION_ART
 10
101.3897
 20
10.4817
 30
0.00
  0
VERTEX
  8
DIMENSION_ART
 10
101.6653
 20
10.2171
 30
0.00
  0
VERTEX
  8
DIMENSION_ART
 10
101.7835
 20
9.8466
 30
0.00
  0
VERTEX
  8
DIMENSION_ART
 10
101.7047
 20
9.4762
 30
0.00
  0
VERTEX
  8
DIMENSION_ART
 10
101.5079
 20
9.2117
 30
0.00
  0
VERTEX
  8
DIMENSION_ART
 10
101.2716
 20
9.1059
 30
0.00
  0
VERTEX
  8
DIMENSION_ART
 10
100.878
 20
9.1059
 30
0.00
  0
VERTEX
  8
DIMENSION_ART
 10
100.5236
 20
8.947
 30
0.00
  0
VERTEX
  8
DIMENSION_ART
 10
100.2874
 20
8.6295
 30
0.00
  0
VERTEX
  8
DIMENSION_ART
 10
100.2087
 20
8.2592
 30
0.00
  0
VERTEX
  8
DIMENSION_ART
 10
100.2874
 20
7.8886
 30
0.00
  0
VERTEX
  8
DIMENSION_ART
 10
100.4843
 20
7.6241
 30
0.00
  0
VERTEX
  8
DIMENSION_ART
 10
100.7992
 20
7.4654
 30
0.00
  0
VERTEX
  8
DIMENSION_ART
 10
101.0748
 20
7.4125
 30
0.00
  0
SEQEND
  0
POLYLINE
  8
DIMENSION_ART
 66
1
 10
0.00
 20
0.00
 30
0.00
 40
0.0254
 41
0.0254
  0
VERTEX
  8
DIMENSION_ART
 10
100.125
 20
14.00
 30
0.00
  0
VERTEX
  8
DIMENSION_ART
 10
99.50
 20
18.00
 30
0.00
  0
VERTEX
  8
DIMENSION_ART
 10
98.875
 20
14.00
 30
0.00
  0
VERTEX
  8
DIMENSION_ART
 10
100.125
 20
14.00
 30
0.00
  0
SEQEND
  0
POLYLINE
  8
DIMENSION_ART
 66
1
 10
0.00
 20
0.00
 30
0.00
 40
0.0254
 41
0.0254
  0
VERTEX
  8
DIMENSION_ART
 10
99.50
 20
12.9687
 30
0.00
  0
VERTEX
  8
DIMENSION_ART
 10
99.50
 20
18.00
 30
0.00
  0
SEQEND
  0
POLYLINE
  8
DIMENSION_ART
 66
1
 10
0.00
 20
0.00
 30
0.00
 40
0.0254
 41
0.0254
  0
VERTEX
  8
DIMENSION_ART
 10
98.00
 20
18.00
 30
0.00
  0
VERTEX
  8
DIMENSION_ART
 10
102.00
 20
18.00
 30
0.00
  0
SEQEND
  0
INSERT
  2
RECTANGLE_16
  8
PASTETOP_ART
 10
18.2634
 20
13.75
 30
0.00
 41
1.00
 42
1.00
 50
0.00
  0
INSERT
  2
RECTANGLE_16
  8
PASTETOP_ART
 10
18.2634
 20
15.75
 30
0.00
 41
1.00
 42
1.00
 50
0.00
  0
INSERT
  2
RECTANGLE_16
  8
PASTETOP_ART
 10
19.7366
 20
13.75
 30
0.00
 41
1.00
 42
1.00
 50
0.00
  0
INSERT
  2
RECTANGLE_16
  8
PASTETOP_ART
 10
19.7366
 20
15.75
 30
0.00
 41
1.00
 42
1.00
 50
0.00
  0
INSERT
  2
RECTANGLE_17
  8
PASTETOP_ART
 10
18.52
 20
12.30
 30
0.00
 41
1.00
 42
1.00
 50
0.00
  0
INSERT
  2
RECTANGLE_17
  8
PASTETOP_ART
 10
19.48
 20
12.30
 30
0.00
 41
1.00
 42
1.00
 50
0.00
  0
INSERT
  2
RECTANGLE_17
  8
PASTETOP_ART
 10
56.00
 20
3.25
 30
0.00
 41
1.00
 42
1.00
 50
0.00
  0
INSERT
  2
RECTANGLE_17
  8
PASTETOP_ART
 10
55.00
 20
3.25
 30
0.00
 41
1.00
 42
1.00
 50
0.00
  0
INSERT
  2
RECTANGLE_17
  8
PASTETOP_ART
 10
56.00
 20
4.50
 30
0.00
 41
1.00
 42
1.00
 50
0.00
  0
INSERT
  2
RECTANGLE_17
  8
PASTETOP_ART
 10
55.00
 20
4.50
 30
0.00
 41
1.00
 42
1.00
 50
0.00
  0
INSERT
  2
RECTANGLE_17
  8
PASTETOP_ART
 10
65.00
 20
4.00
 30
0.00
 41
1.00
 42
1.00
 50
0.00
  0
INSERT
  2
RECTANGLE_17
  8
PASTETOP_ART
 10
61.58
 20
14.00
 30
0.00
 41
1.00
 42
1.00
 50
0.00
  0
INSERT
  2
RECTANGLE_17
  8
PASTETOP_ART
 10
60.62
 20
14.00
 30
0.00
 41
1.00
 42
1.00
 50
0.00
  0
INSERT
  2
RECTANGLE_17
  8
PASTETOP_ART
 10
66.00
 20
4.00
 30
0.00
 41
1.00
 42
1.00
 50
0.00
  0
INSERT
  2
RECTANGLE_17
  8
PASTETOP_ART
 10
75.27
 20
5.25
 30
0.00
 41
1.00
 42
1.00
 50
0.00
  0
INSERT
  2
RECTANGLE_17
  8
PASTETOP_ART
 10
76.23
 20
5.25
 30
0.00
 41
1.00
 42
1.00
 50
0.00
  0
INSERT
  2
RECTANGLE_24
  8
PASTETOP_ART
 10
61.25
 20
6.75
 30
0.00
 41
1.00
 42
1.00
 50
0.00
  0
INSERT
  2
RECTANGLE_24
  8
PASTETOP_ART
 10
61.25
 20
12.25
 30
0.00
 41
1.00
 42
1.00
 50
0.00
  0
INSERT
  2
RECTANGLE_24
  8
PASTETOP_ART
 10
61.25
 20
11.75
 30
0.00
 41
1.00
 42
1.00
 50
0.00
  0
INSERT
  2
RECTANGLE_24
  8
PASTETOP_ART
 10
61.25
 20
11.25
 30
0.00
 41
1.00
 42
1.00
 50
0.00
  0
INSERT
  2
RECTANGLE_24
  8
PASTETOP_ART
 10
61.25
 20
10.75
 30
0.00
 41
1.00
 42
1.00
 50
0.00
  0
INSERT
  2
RECTANGLE_24
  8
PASTETOP_ART
 10
61.25
 20
10.25
 30
0.00
 41
1.00
 42
1.00
 50
0.00
  0
INSERT
  2
RECTANGLE_24
  8
PASTETOP_ART
 10
61.25
 20
9.75
 30
0.00
 41
1.00
 42
1.00
 50
0.00
  0
INSERT
  2
RECTANGLE_24
  8
PASTETOP_ART
 10
61.25
 20
9.25
 30
0.00
 41
1.00
 42
1.00
 50
0.00
  0
INSERT
  2
RECTANGLE_24
  8
PASTETOP_ART
 10
61.25
 20
8.75
 30
0.00
 41
1.00
 42
1.00
 50
0.00
  0
INSERT
  2
RECTANGLE_24
  8
PASTETOP_ART
 10
61.25
 20
8.25
 30
0.00
 41
1.00
 42
1.00
 50
0.00
  0
INSERT
  2
RECTANGLE_24
  8
PASTETOP_ART
 10
61.25
 20
7.75
 30
0.00
 41
1.00
 42
1.00
 50
0.00
  0
INSERT
  2
RECTANGLE_24
  8
PASTETOP_ART
 10
61.25
 20
7.25
 30
0.00
 41
1.00
 42
1.00
 50
0.00
  0
INSERT
  2
RECTANGLE_24
  8
PASTETOP_ART
 10
69.75
 20
6.75
 30
0.00
 41
1.00
 42
1.00
 50
0.00
  0
INSERT
  2
RECTANGLE_24
  8
PASTETOP_ART
 10
69.75
 20
7.25
 30
0.00
 41
1.00
 42
1.00
 50
0.00
  0
INSERT
  2
RECTANGLE_24
  8
PASTETOP_ART
 10
69.75
 20
7.75
 30
0.00
 41
1.00
 42
1.00
 50
0.00
  0
INSERT
  2
RECTANGLE_24
  8
PASTETOP_ART
 10
69.75
 20
8.25
 30
0.00
 41
1.00
 42
1.00
 50
0.00
  0
INSERT
  2
RECTANGLE_24
  8
PASTETOP_ART
 10
69.75
 20
8.75
 30
0.00
 41
1.00
 42
1.00
 50
0.00
  0
INSERT
  2
RECTANGLE_24
  8
PASTETOP_ART
 10
69.75
 20
9.25
 30
0.00
 41
1.00
 42
1.00
 50
0.00
  0
INSERT
  2
RECTANGLE_24
  8
PASTETOP_ART
 10
69.75
 20
9.75
 30
0.00
 41
1.00
 42
1.00
 50
0.00
  0
INSERT
  2
RECTANGLE_24
  8
PASTETOP_ART
 10
69.75
 20
10.25
 30
0.00
 41
1.00
 42
1.00
 50
0.00
  0
INSERT
  2
RECTANGLE_24
  8
PASTETOP_ART
 10
69.75
 20
10.75
 30
0.00
 41
1.00
 42
1.00
 50
0.00
  0
INSERT
  2
RECTANGLE_24
  8
PASTETOP_ART
 10
69.75
 20
11.25
 30
0.00
 41
1.00
 42
1.00
 50
0.00
  0
INSERT
  2
RECTANGLE_24
  8
PASTETOP_ART
 10
69.75
 20
11.75
 30
0.00
 41
1.00
 42
1.00
 50
0.00
  0
INSERT
  2
RECTANGLE_24
  8
PASTETOP_ART
 10
69.75
 20
12.25
 30
0.00
 41
1.00
 42
1.00
 50
0.00
  0
INSERT
  2
RECTANGLE_23
  8
PASTETOP_ART
 10
62.75
 20
5.25
 30
0.00
 41
1.00
 42
1.00
 50
0.00
  0
INSERT
  2
RECTANGLE_23
  8
PASTETOP_ART
 10
63.25
 20
5.25
 30
0.00
 41
1.00
 42
1.00
 50
0.00
  0
INSERT
  2
RECTANGLE_23
  8
PASTETOP_ART
 10
63.75
 20
5.25
 30
0.00
 41
1.00
 42
1.00
 50
0.00
  0
INSERT
  2
RECTANGLE_23
  8
PASTETOP_ART
 10
64.25
 20
5.25
 30
0.00
 41
1.00
 42
1.00
 50
0.00
  0
INSERT
  2
RECTANGLE_23
  8
PASTETOP_ART
 10
64.75
 20
5.25
 30
0.00
 41
1.00
 42
1.00
 50
0.00
  0
INSERT
  2
RECTANGLE_23
  8
PASTETOP_ART
 10
64.75
 20
13.75
 30
0.00
 41
1.00
 42
1.00
 50
0.00
  0
INSERT
  2
RECTANGLE_23
  8
PASTETOP_ART
 10
64.25
 20
13.75
 30
0.00
 41
1.00
 42
1.00
 50
0.00
  0
INSERT
  2
RECTANGLE_23
  8
PASTETOP_ART
 10
63.75
 20
13.75
 30
0.00
 41
1.00
 42
1.00
 50
0.00
  0
INSERT
  2
RECTANGLE_23
  8
PASTETOP_ART
 10
63.25
 20
13.75
 30
0.00
 41
1.00
 42
1.00
 50
0.00
  0
INSERT
  2
RECTANGLE_23
  8
PASTETOP_ART
 10
62.75
 20
13.75
 30
0.00
 41
1.00
 42
1.00
 50
0.00
  0
INSERT
  2
RECTANGLE_23
  8
PASTETOP_ART
 10
65.25
 20
5.25
 30
0.00
 41
1.00
 42
1.00
 50
0.00
  0
INSERT
  2
RECTANGLE_23
  8
PASTETOP_ART
 10
65.75
 20
5.25
 30
0.00
 41
1.00
 42
1.00
 50
0.00
  0
INSERT
  2
RECTANGLE_23
  8
PASTETOP_ART
 10
66.25
 20
5.25
 30
0.00
 41
1.00
 42
1.00
 50
0.00
  0
INSERT
  2
RECTANGLE_23
  8
PASTETOP_ART
 10
66.75
 20
5.25
 30
0.00
 41
1.00
 42
1.00
 50
0.00
  0
INSERT
  2
RECTANGLE_23
  8
PASTETOP_ART
 10
67.25
 20
5.25
 30
0.00
 41
1.00
 42
1.00
 50
0.00
  0
INSERT
  2
RECTANGLE_23
  8
PASTETOP_ART
 10
67.75
 20
5.25
 30
0.00
 41
1.00
 42
1.00
 50
0.00
  0
INSERT
  2
RECTANGLE_23
  8
PASTETOP_ART
 10
68.25
 20
5.25
 30
0.00
 41
1.00
 42
1.00
 50
0.00
  0
INSERT
  2
RECTANGLE_23
  8
PASTETOP_ART
 10
68.25
 20
13.75
 30
0.00
 41
1.00
 42
1.00
 50
0.00
  0
INSERT
  2
RECTANGLE_23
  8
PASTETOP_ART
 10
67.75
 20
13.75
 30
0.00
 41
1.00
 42
1.00
 50
0.00
  0
INSERT
  2
RECTANGLE_23
  8
PASTETOP_ART
 10
67.25
 20
13.75
 30
0.00
 41
1.00
 42
1.00
 50
0.00
  0
INSERT
  2
RECTANGLE_23
  8
PASTETOP_ART
 10
66.75
 20
13.75
 30
0.00
 41
1.00
 42
1.00
 50
0.00
  0
INSERT
  2
RECTANGLE_23
  8
PASTETOP_ART
 10
66.25
 20
13.75
 30
0.00
 41
1.00
 42
1.00
 50
0.00
  0
INSERT
  2
RECTANGLE_23
  8
PASTETOP_ART
 10
65.75
 20
13.75
 30
0.00
 41
1.00
 42
1.00
 50
0.00
  0
INSERT
  2
RECTANGLE_23
  8
PASTETOP_ART
 10
65.25
 20
13.75
 30
0.00
 41
1.00
 42
1.00
 50
0.00
  0
INSERT
  2
RECTANGLE_11
  8
PASTETOP_ART
 10
59.75
 20
5.73
 30
0.00
 41
1.00
 42
1.00
 50
0.00
  0
INSERT
  2
RECTANGLE_11
  8
PASTETOP_ART
 10
59.75
 20
4.77
 30
0.00
 41
1.00
 42
1.00
 50
0.00
  0
INSERT
  2
RECTANGLE_11
  8
PASTETOP_ART
 10
61.00
 20
5.73
 30
0.00
 41
1.00
 42
1.00
 50
0.00
  0
INSERT
  2
RECTANGLE_11
  8
PASTETOP_ART
 10
61.00
 20
4.77
 30
0.00
 41
1.00
 42
1.00
 50
0.00
  0
INSERT
  2
RECTANGLE_11
  8
PASTETOP_ART
 10
71.20
 20
13.12
 30
0.00
 41
1.00
 42
1.00
 50
0.00
  0
INSERT
  2
RECTANGLE_11
  8
PASTETOP_ART
 10
71.20
 20
14.08
 30
0.00
 41
1.00
 42
1.00
 50
0.00
  0
INSERT
  2
RECTANGLE_11
  8
PASTETOP_ART
 10
70.10
 20
13.12
 30
0.00
 41
1.00
 42
1.00
 50
0.00
  0
INSERT
  2
RECTANGLE_11
  8
PASTETOP_ART
 10
70.10
 20
14.08
 30
0.00
 41
1.00
 42
1.00
 50
0.00
  0
INSERT
  2
RECTANGLE_32
  8
PASTETOP_ART
 10
69.69
 20
3.135
 30
0.00
 41
1.00
 42
1.00
 50
0.00
  0
INSERT
  2
RECTANGLE_32
  8
PASTETOP_ART
 10
69.69
 20
1.865
 30
0.00
 41
1.00
 42
1.00
 50
0.00
  0
INSERT
  2
RECTANGLE_32
  8
PASTETOP_ART
 10
77.31
 20
1.865
 30
0.00
 41
1.00
 42
1.00
 50
0.00
  0
INSERT
  2
RECTANGLE_32
  8
PASTETOP_ART
 10
77.31
 20
3.135
 30
0.00
 41
1.00
 42
1.00
 50
0.00
  0
INSERT
  2
RECTANGLE_33
  8
PASTETOP_ART
 10
72.73
 20
6.6298
 30
0.00
 41
1.00
 42
1.00
 50
0.00
  0
INSERT
  2
RECTANGLE_33
  8
PASTETOP_ART
 10
72.73
 20
12.3702
 30
0.00
 41
1.00
 42
1.00
 50
0.00
  0
INSERT
  2
RECTANGLE_33
  8
PASTETOP_ART
 10
75.27
 20
6.6298
 30
0.00
 41
1.00
 42
1.00
 50
0.00
  0
INSERT
  2
RECTANGLE_33
  8
PASTETOP_ART
 10
75.27
 20
12.3702
 30
0.00
 41
1.00
 42
1.00
 50
0.00
  0
POLYLINE
  8
SILK_TOP_ART
 66
1
 10
0.00
 20
0.00
 30
0.00
 40
0.20
 41
0.20
  0
VERTEX
  8
SILK_TOP_ART
 10
28.25
 20
7.00
 30
0.00
  0
VERTEX
  8
SILK_TOP_ART
 10
28.25
 20
6.00
 30
0.00
  0
VERTEX
  8
SILK_TOP_ART
 10
29.25
 20
6.00
 30
0.00
  0
SEQEND
  0
POLYLINE
  8
SILK_TOP_ART
 66
1
 10
0.00
 20
0.00
 30
0.00
 40
0.20
 41
0.20
  0
VERTEX
  8
SILK_TOP_ART
 10
28.25
 20
8.00
 30
0.00
  0
VERTEX
  8
SILK_TOP_ART
 10
28.25
 20
9.00
 30
0.00
  0
VERTEX
  8
SILK_TOP_ART
 10
27.25
 20
9.00
 30
0.00
  0
SEQEND
  0
POLYLINE
  8
SILK_TOP_ART
 66
1
 10
0.00
 20
0.00
 30
0.00
 40
0.20
 41
0.20
  0
VERTEX
  8
SILK_TOP_ART
 10
28.75
 20
16.00
 30
0.00
  0
VERTEX
  8
SILK_TOP_ART
 10
27.25
 20
16.00
 30
0.00
  0
SEQEND
  0
POLYLINE
  8
SILK_TOP_ART
 66
1
 10
0.00
 20
0.00
 30
0.00
 40
0.20
 41
0.20
  0
VERTEX
  8
SILK_TOP_ART
 10
42.75
 20
6.00
 30
0.00
  0
VERTEX
  8
SILK_TOP_ART
 10
41.25
 20
6.00
 30
0.00
  0
SEQEND
  0
POLYLINE
  8
SILK_TOP_ART
 66
1
 10
0.00
 20
0.00
 30
0.00
 40
0.20
 41
0.20
  0
VERTEX
  8
SILK_TOP_ART
 10
42.75
 20
16.00
 30
0.00
  0
VERTEX
  8
SILK_TOP_ART
 10
41.25
 20
16.00
 30
0.00
  0
SEQEND
  0
POLYLINE
  8
SILK_TOP_ART
 66
1
 10
0.00
 20
0.00
 30
0.00
 40
0.20
 41
0.20
  0
VERTEX
  8
SILK_TOP_ART
 10
58.25
 20
7.00
 30
0.00
  0
VERTEX
  8
SILK_TOP_ART
 10
58.25
 20
6.00
 30
0.00
  0
VERTEX
  8
SILK_TOP_ART
 10
57.25
 20
6.00
 30
0.00
  0
SEQEND
  0
POLYLINE
  8
SILK_TOP_ART
 66
1
 10
0.00
 20
0.00
 30
0.00
 40
0.20
 41
0.20
  0
VERTEX
  8
SILK_TOP_ART
 10
58.25
 20
15.00
 30
0.00
  0
VERTEX
  8
SILK_TOP_ART
 10
58.25
 20
16.00
 30
0.00
  0
VERTEX
  8
SILK_TOP_ART
 10
57.25
 20
16.00
 30
0.00
  0
SEQEND
  0
POLYLINE
  8
SILK_TOP_ART
 66
1
 10
0.00
 20
0.00
 30
0.00
 40
0.2032
 41
0.2032
  0
VERTEX
  8
SILK_TOP_ART
 10
13.6917
 20
14.6195
 30
0.00
  0
VERTEX
  8
SILK_TOP_ART
 10
13.7567
 20
14.7211
 30
0.00
  0
VERTEX
  8
SILK_TOP_ART
 10
13.80
 20
14.8396
 30
0.00
  0
VERTEX
  8
SILK_TOP_ART
 10
13.80
 20
14.9751
 30
0.00
  0
VERTEX
  8
SILK_TOP_ART
 10
13.735
 20
15.1275
 30
0.00
  0
VERTEX
  8
SILK_TOP_ART
 10
13.6267
 20
15.246
 30
0.00
  0
VERTEX
  8
SILK_TOP_ART
 10
13.4967
 20
15.3307
 30
0.00
  0
VERTEX
  8
SILK_TOP_ART
 10
13.28
 20
15.3984
 30
0.00
  0
VERTEX
  8
SILK_TOP_ART
 10
13.085
 20
15.4154
 30
0.00
  0
VERTEX
  8
SILK_TOP_ART
 10
12.89
 20
15.3815
 30
0.00
  0
VERTEX
  8
SILK_TOP_ART
 10
12.76
 20
15.3307
 30
0.00
  0
VERTEX
  8
SILK_TOP_ART
 10
12.63
 20
15.2291
 30
0.00
  0
VERTEX
  8
SILK_TOP_ART
 10
12.5433
 20
15.1105
 30
0.00
  0
VERTEX
  8
SILK_TOP_ART
 10
12.50
 20
14.992
 30
0.00
  0
VERTEX
  8
SILK_TOP_ART
 10
12.50
 20
14.8735
 30
0.00
  0
VERTEX
  8
SILK_TOP_ART
 10
12.5433
 20
14.7549
 30
0.00
  0
VERTEX
  8
SILK_TOP_ART
 10
12.6083
 20
14.6533
 30
0.00
  0
VERTEX
  8
SILK_TOP_ART
 10
12.695
 20
14.5686
 30
0.00
  0
SEQEND
  0
POLYLINE
  8
SILK_TOP_ART
 66
1
 10
0.00
 20
0.00
 30
0.00
 40
0.2032
 41
0.2032
  0
VERTEX
  8
SILK_TOP_ART
 10
12.50
 20
13.776
 30
0.00
  0
VERTEX
  8
SILK_TOP_ART
 10
12.5217
 20
13.9115
 30
0.00
  0
VERTEX
  8
SILK_TOP_ART
 10
12.6083
 20
14.03
 30
0.00
  0
VERTEX
  8
SILK_TOP_ART
 10
12.7383
 20
14.1316
 30
0.00
  0
VERTEX
  8
SILK_TOP_ART
 10
12.89
 20
14.1994
 30
0.00
  0
VERTEX
  8
SILK_TOP_ART
 10
13.0633
 20
14.2332
 30
0.00
  0
VERTEX
  8
SILK_TOP_ART
 10
13.2367
 20
14.2332
 30
0.00
  0
VERTEX
  8
SILK_TOP_ART
 10
13.41
 20
14.1994
 30
0.00
  0
VERTEX
  8
SILK_TOP_ART
 10
13.5617
 20
14.1316
 30
0.00
  0
VERTEX
  8
SILK_TOP_ART
 10
13.6917
 20
14.03
 30
0.00
  0
VERTEX
  8
SILK_TOP_ART
 10
13.7783
 20
13.9115
 30
0.00
  0
VERTEX
  8
SILK_TOP_ART
 10
13.80
 20
13.776
 30
0.00
  0
VERTEX
  8
SILK_TOP_ART
 10
13.7783
 20
13.6405
 30
0.00
  0
VERTEX
  8
SILK_TOP_ART
 10
13.6917
 20
13.522
 30
0.00
  0
VERTEX
  8
SILK_TOP_ART
 10
13.5617
 20
13.4204
 30
0.00
  0
VERTEX
  8
SILK_TOP_ART
 10
13.41
 20
13.3526
 30
0.00
  0
VERTEX
  8
SILK_TOP_ART
 10
13.2367
 20
13.3188
 30
0.00
  0
VERTEX
  8
SILK_TOP_ART
 10
13.0633
 20
13.3188
 30
0.00
  0
VERTEX
  8
SILK_TOP_ART
 10
12.89
 20
13.3526
 30
0.00
  0
VERTEX
  8
SILK_TOP_ART
 10
12.7383
 20
13.4204
 30
0.00
  0
VERTEX
  8
SILK_TOP_ART
 10
12.6083
 20
13.522
 30
0.00
  0
VERTEX
  8
SILK_TOP_ART
 10
12.5217
 20
13.6405
 30
0.00
  0
VERTEX
  8
SILK_TOP_ART
 10
12.50
 20
13.776
 30
0.00
  0
SEQEND
  0
POLYLINE
  8
SILK_TOP_ART
 66
1
 10
0.00
 20
0.00
 30
0.00
 40
0.2032
 41
0.2032
  0
VERTEX
  8
SILK_TOP_ART
 10
12.50
 20
12.9495
 30
0.00
  0
VERTEX
  8
SILK_TOP_ART
 10
13.80
 20
12.9495
 30
0.00
  0
VERTEX
  8
SILK_TOP_ART
 10
12.50
 20
12.1705
 30
0.00
  0
VERTEX
  8
SILK_TOP_ART
 10
13.80
 20
12.1705
 30
0.00
  0
SEQEND
  0
POLYLINE
  8
SILK_TOP_ART
 66
1
 10
0.00
 20
0.00
 30
0.00
 40
0.2032
 41
0.2032
  0
VERTEX
  8
SILK_TOP_ART
 10
13.80
 20
11.344
 30
0.00
  0
VERTEX
  8
SILK_TOP_ART
 10
12.50
 20
11.344
 30
0.00
  0
SEQEND
  0
POLYLINE
  8
SILK_TOP_ART
 66
1
 10
0.00
 20
0.00
 30
0.00
 40
0.2032
 41
0.2032
  0
VERTEX
  8
SILK_TOP_ART
 10
13.80
 20
11.7335
 30
0.00
  0
VERTEX
  8
SILK_TOP_ART
 10
13.80
 20
10.9545
 30
0.00
  0
SEQEND
  0
POLYLINE
  8
SILK_TOP_ART
 66
1
 10
0.00
 20
0.00
 30
0.00
 40
0.2032
 41
0.2032
  0
VERTEX
  8
SILK_TOP_ART
 10
12.50
 20
10.4667
 30
0.00
  0
VERTEX
  8
SILK_TOP_ART
 10
13.80
 20
10.4667
 30
0.00
  0
VERTEX
  8
SILK_TOP_ART
 10
13.80
 20
10.0433
 30
0.00
  0
VERTEX
  8
SILK_TOP_ART
 10
13.735
 20
9.9079
 30
0.00
  0
VERTEX
  8
SILK_TOP_ART
 10
13.6483
 20
9.8232
 30
0.00
  0
VERTEX
  8
SILK_TOP_ART
 10
13.475
 20
9.7893
 30
0.00
  0
VERTEX
  8
SILK_TOP_ART
 10
13.3017
 20
9.8232
 30
0.00
  0
VERTEX
  8
SILK_TOP_ART
 10
13.1933
 20
9.9248
 30
0.00
  0
VERTEX
  8
SILK_TOP_ART
 10
13.1283
 20
10.0433
 30
0.00
  0
VERTEX
  8
SILK_TOP_ART
 10
13.1283
 20
10.4667
 30
0.00
  0
SEQEND
  0
POLYLINE
  8
SILK_TOP_ART
 66
1
 10
0.00
 20
0.00
 30
0.00
 40
0.2032
 41
0.2032
  0
VERTEX
  8
SILK_TOP_ART
 10
13.1283
 20
10.0433
 30
0.00
  0
VERTEX
  8
SILK_TOP_ART
 10
12.50
 20
9.7893
 30
0.00
  0
SEQEND
  0
POLYLINE
  8
SILK_TOP_ART
 66
1
 10
0.00
 20
0.00
 30
0.00
 40
0.2032
 41
0.2032
  0
VERTEX
  8
SILK_TOP_ART
 10
12.50
 20
8.912
 30
0.00
  0
VERTEX
  8
SILK_TOP_ART
 10
12.5217
 20
9.0475
 30
0.00
  0
VERTEX
  8
SILK_TOP_ART
 10
12.6083
 20
9.166
 30
0.00
  0
VERTEX
  8
SILK_TOP_ART
 10
12.7383
 20
9.2676
 30
0.00
  0
VERTEX
  8
SILK_TOP_ART
 10
12.89
 20
9.3354
 30
0.00
  0
VERTEX
  8
SILK_TOP_ART
 10
13.0633
 20
9.3692
 30
0.00
  0
VERTEX
  8
SILK_TOP_ART
 10
13.2367
 20
9.3692
 30
0.00
  0
VERTEX
  8
SILK_TOP_ART
 10
13.41
 20
9.3354
 30
0.00
  0
VERTEX
  8
SILK_TOP_ART
 10
13.5617
 20
9.2676
 30
0.00
  0
VERTEX
  8
SILK_TOP_ART
 10
13.6917
 20
9.166
 30
0.00
  0
VERTEX
  8
SILK_TOP_ART
 10
13.7783
 20
9.0475
 30
0.00
  0
VERTEX
  8
SILK_TOP_ART
 10
13.80
 20
8.912
 30
0.00
  0
VERTEX
  8
SILK_TOP_ART
 10
13.7783
 20
8.7765
 30
0.00
  0
VERTEX
  8
SILK_TOP_ART
 10
13.6917
 20
8.658
 30
0.00
  0
VERTEX
  8
SILK_TOP_ART
 10
13.5617
 20
8.5564
 30
0.00
  0
VERTEX
  8
SILK_TOP_ART
 10
13.41
 20
8.4886
 30
0.00
  0
VERTEX
  8
SILK_TOP_ART
 10
13.2367
 20
8.4548
 30
0.00
  0
VERTEX
  8
SILK_TOP_ART
 10
13.0633
 20
8.4548
 30
0.00
  0
VERTEX
  8
SILK_TOP_ART
 10
12.89
 20
8.4886
 30
0.00
  0
VERTEX
  8
SILK_TOP_ART
 10
12.7383
 20
8.5564
 30
0.00
  0
VERTEX
  8
SILK_TOP_ART
 10
12.6083
 20
8.658
 30
0.00
  0
VERTEX
  8
SILK_TOP_ART
 10
12.5217
 20
8.7765
 30
0.00
  0
VERTEX
  8
SILK_TOP_ART
 10
12.50
 20
8.912
 30
0.00
  0
SEQEND
  0
POLYLINE
  8
SILK_TOP_ART
 66
1
 10
0.00
 20
0.00
 30
0.00
 40
0.2032
 41
0.2032
  0
VERTEX
  8
SILK_TOP_ART
 10
13.80
 20
8.0347
 30
0.00
  0
VERTEX
  8
SILK_TOP_ART
 10
12.50
 20
8.0347
 30
0.00
  0
VERTEX
  8
SILK_TOP_ART
 10
12.50
 20
7.3573
 30
0.00
  0
SEQEND
  0
POLYLINE
  8
SILK_TOP_ART
 66
1
 10
0.00
 20
0.00
 30
0.00
 40
0.2032
 41
0.2032
  0
VERTEX
  8
SILK_TOP_ART
 10
13.80
 20
6.8187
 30
0.00
  0
VERTEX
  8
SILK_TOP_ART
 10
12.50
 20
6.8187
 30
0.00
  0
VERTEX
  8
SILK_TOP_ART
 10
12.50
 20
6.1413
 30
0.00
  0
SEQEND
  0
POLYLINE
  8
SILK_TOP_ART
 66
1
 10
0.00
 20
0.00
 30
0.00
 40
0.2032
 41
0.2032
  0
VERTEX
  8
SILK_TOP_ART
 10
12.50
 20
4.9253
 30
0.00
  0
VERTEX
  8
SILK_TOP_ART
 10
12.50
 20
5.6027
 30
0.00
  0
VERTEX
  8
SILK_TOP_ART
 10
13.80
 20
5.6027
 30
0.00
  0
VERTEX
  8
SILK_TOP_ART
 10
13.80
 20
4.9253
 30
0.00
  0
SEQEND
  0
POLYLINE
  8
SILK_TOP_ART
 66
1
 10
0.00
 20
0.00
 30
0.00
 40
0.2032
 41
0.2032
  0
VERTEX
  8
SILK_TOP_ART
 10
13.1717
 20
5.1963
 30
0.00
  0
VERTEX
  8
SILK_TOP_ART
 10
13.1717
 20
5.6027
 30
0.00
  0
SEQEND
  0
POLYLINE
  8
SILK_TOP_ART
 66
1
 10
0.00
 20
0.00
 30
0.00
 40
0.2032
 41
0.2032
  0
VERTEX
  8
SILK_TOP_ART
 10
12.50
 20
4.3867
 30
0.00
  0
VERTEX
  8
SILK_TOP_ART
 10
13.80
 20
4.3867
 30
0.00
  0
VERTEX
  8
SILK_TOP_ART
 10
13.80
 20
3.9633
 30
0.00
  0
VERTEX
  8
SILK_TOP_ART
 10
13.735
 20
3.8279
 30
0.00
  0
VERTEX
  8
SILK_TOP_ART
 10
13.6483
 20
3.7432
 30
0.00
  0
VERTEX
  8
SILK_TOP_ART
 10
13.475
 20
3.7093
 30
0.00
  0
VERTEX
  8
SILK_TOP_ART
 10
13.3017
 20
3.7432
 30
0.00
  0
VERTEX
  8
SILK_TOP_ART
 10
13.1933
 20
3.8448
 30
0.00
  0
VERTEX
  8
SILK_TOP_ART
 10
13.1283
 20
3.9633
 30
0.00
  0
VERTEX
  8
SILK_TOP_ART
 10
13.1283
 20
4.3867
 30
0.00
  0
SEQEND
  0
POLYLINE
  8
SILK_TOP_ART
 66
1
 10
0.00
 20
0.00
 30
0.00
 40
0.2032
 41
0.2032
  0
VERTEX
  8
SILK_TOP_ART
 10
13.1283
 20
3.9633
 30
0.00
  0
VERTEX
  8
SILK_TOP_ART
 10
12.50
 20
3.7093
 30
0.00
  0
SEQEND
  0
POLYLINE
  8
SILK_TOP_ART
 66
1
 10
0.00
 20
0.00
 30
0.00
 40
0.2032
 41
0.2032
  0
VERTEX
  8
SILK_TOP_ART
 10
19.00
 20
14.1019
 30
0.00
  0
VERTEX
  8
SILK_TOP_ART
 10
19.00
 20
14.1945
 30
0.00
  0
SEQEND
  0
POLYLINE
  8
SILK_TOP_ART
 66
1
 10
0.00
 20
0.00
 30
0.00
 40
0.2032
 41
0.2032
  0
VERTEX
  8
SILK_TOP_ART
 10
19.00
 20
13.3055
 30
0.00
  0
VERTEX
  8
SILK_TOP_ART
 10
19.00
 20
13.3981
 30
0.00
  0
SEQEND
  0
POLYLINE
  8
SILK_TOP_ART
 66
1
 10
0.00
 20
0.00
 30
0.00
 40
0.2032
 41
0.2032
  0
VERTEX
  8
SILK_TOP_ART
 10
19.00
 20
12.15
 30
0.00
  0
VERTEX
  8
SILK_TOP_ART
 10
19.00
 20
12.05
 30
0.00
  0
SEQEND
  0
POLYLINE
  8
SILK_TOP_ART
 66
1
 10
0.00
 20
0.00
 30
0.00
 40
0.2032
 41
0.2032
  0
VERTEX
  8
SILK_TOP_ART
 10
19.00
 20
12.55
 30
0.00
  0
VERTEX
  8
SILK_TOP_ART
 10
19.00
 20
12.45
 30
0.00
  0
SEQEND
  0
POLYLINE
  8
SILK_TOP_ART
 66
1
 10
0.00
 20
0.00
 30
0.00
 40
0.2032
 41
0.2032
  0
VERTEX
  8
SILK_TOP_ART
 10
14.50
 20
10.6533
 30
0.00
  0
VERTEX
  8
SILK_TOP_ART
 10
14.50
 20
11.3307
 30
0.00
  0
VERTEX
  8
SILK_TOP_ART
 10
15.80
 20
11.3307
 30
0.00
  0
VERTEX
  8
SILK_TOP_ART
 10
15.80
 20
10.6533
 30
0.00
  0
SEQEND
  0
POLYLINE
  8
SILK_TOP_ART
 66
1
 10
0.00
 20
0.00
 30
0.00
 40
0.2032
 41
0.2032
  0
VERTEX
  8
SILK_TOP_ART
 10
15.1717
 20
10.9243
 30
0.00
  0
VERTEX
  8
SILK_TOP_ART
 10
15.1717
 20
11.3307
 30
0.00
  0
SEQEND
  0
POLYLINE
  8
SILK_TOP_ART
 66
1
 10
0.00
 20
0.00
 30
0.00
 40
0.2032
 41
0.2032
  0
VERTEX
  8
SILK_TOP_ART
 10
14.6733
 20
10.1316
 30
0.00
  0
VERTEX
  8
SILK_TOP_ART
 10
14.565
 20
9.9961
 30
0.00
  0
VERTEX
  8
SILK_TOP_ART
 10
14.50
 20
9.8437
 30
0.00
  0
VERTEX
  8
SILK_TOP_ART
 10
14.50
 20
9.7083
 30
0.00
  0
VERTEX
  8
SILK_TOP_ART
 10
14.565
 20
9.5728
 30
0.00
  0
VERTEX
  8
SILK_TOP_ART
 10
14.6733
 20
9.4712
 30
0.00
  0
VERTEX
  8
SILK_TOP_ART
 10
14.825
 20
9.4204
 30
0.00
  0
VERTEX
  8
SILK_TOP_ART
 10
14.9766
 20
9.4543
 30
0.00
  0
VERTEX
  8
SILK_TOP_ART
 10
15.1067
 20
9.5389
 30
0.00
  0
VERTEX
  8
SILK_TOP_ART
 10
15.1933
 20
9.6913
 30
0.00
  0
VERTEX
  8
SILK_TOP_ART
 10
15.2367
 20
9.8945
 30
0.00
  0
VERTEX
  8
SILK_TOP_ART
 10
15.3233
 20
10.0131
 30
0.00
  0
VERTEX
  8
SILK_TOP_ART
 10
15.475
 20
10.0639
 30
0.00
  0
VERTEX
  8
SILK_TOP_ART
 10
15.6267
 20
10.03
 30
0.00
  0
VERTEX
  8
SILK_TOP_ART
 10
15.735
 20
9.9453
 30
0.00
  0
VERTEX
  8
SILK_TOP_ART
 10
15.80
 20
9.8268
 30
0.00
  0
VERTEX
  8
SILK_TOP_ART
 10
15.80
 20
9.7083
 30
0.00
  0
VERTEX
  8
SILK_TOP_ART
 10
15.7567
 20
9.5897
 30
0.00
  0
VERTEX
  8
SILK_TOP_ART
 10
15.6483
 20
9.4881
 30
0.00
  0
SEQEND
  0
POLYLINE
  8
SILK_TOP_ART
 66
1
 10
0.00
 20
0.00
 30
0.00
 40
0.2032
 41
0.2032
  0
VERTEX
  8
SILK_TOP_ART
 10
14.6733
 20
8.9156
 30
0.00
  0
VERTEX
  8
SILK_TOP_ART
 10
14.565
 20
8.7801
 30
0.00
  0
VERTEX
  8
SILK_TOP_ART
 10
14.50
 20
8.6277
 30
0.00
  0
VERTEX
  8
SILK_TOP_ART
 10
14.50
 20
8.4923
 30
0.00
  0
VERTEX
  8
SILK_TOP_ART
 10
14.565
 20
8.3568
 30
0.00
  0
VERTEX
  8
SILK_TOP_ART
 10
14.6733
 20
8.2552
 30
0.00
  0
VERTEX
  8
SILK_TOP_ART
 10
14.825
 20
8.2044
 30
0.00
  0
VERTEX
  8
SILK_TOP_ART
 10
14.9766
 20
8.2383
 30
0.00
  0
VERTEX
  8
SILK_TOP_ART
 10
15.1067
 20
8.3229
 30
0.00
  0
VERTEX
  8
SILK_TOP_ART
 10
15.1933
 20
8.4753
 30
0.00
  0
VERTEX
  8
SILK_TOP_ART
 10
15.2367
 20
8.6785
 30
0.00
  0
VERTEX
  8
SILK_TOP_ART
 10
15.3233
 20
8.7971
 30
0.00
  0
VERTEX
  8
SILK_TOP_ART
 10
15.475
 20
8.8479
 30
0.00
  0
VERTEX
  8
SILK_TOP_ART
 10
15.6267
 20
8.814
 30
0.00
  0
VERTEX
  8
SILK_TOP_ART
 10
15.735
 20
8.7293
 30
0.00
  0
VERTEX
  8
SILK_TOP_ART
 10
15.80
 20
8.6108
 30
0.00
  0
VERTEX
  8
SILK_TOP_ART
 10
15.80
 20
8.4923
 30
0.00
  0
VERTEX
  8
SILK_TOP_ART
 10
15.7567
 20
8.3737
 30
0.00
  0
VERTEX
  8
SILK_TOP_ART
 10
15.6483
 20
8.2721
 30
0.00
  0
SEQEND
  0
POLYLINE
  8
SILK_TOP_ART
 66
1
 10
0.00
 20
0.00
 30
0.00
 40
0.2032
 41
0.2032
  0
VERTEX
  8
SILK_TOP_ART
 10
19.00
 20
15.3981
 30
0.00
  0
VERTEX
  8
SILK_TOP_ART
 10
19.00
 20
15.3055
 30
0.00
  0
SEQEND
  0
POLYLINE
  8
SILK_TOP_ART
 66
1
 10
0.00
 20
0.00
 30
0.00
 40
0.2032
 41
0.2032
  0
VERTEX
  8
SILK_TOP_ART
 10
19.00
 20
16.1945
 30
0.00
  0
VERTEX
  8
SILK_TOP_ART
 10
19.00
 20
16.1019
 30
0.00
  0
SEQEND
  0
POLYLINE
  8
SILK_TOP_ART
 66
1
 10
0.00
 20
0.00
 30
0.00
 40
0.2032
 41
0.2032
  0
VERTEX
  8
SILK_TOP_ART
 10
55.50
 20
3.05
 30
0.00
  0
VERTEX
  8
SILK_TOP_ART
 10
55.50
 20
3.45
 30
0.00
  0
SEQEND
  0
POLYLINE
  8
SILK_TOP_ART
 66
1
 10
0.00
 20
0.00
 30
0.00
 40
0.2032
 41
0.2032
  0
VERTEX
  8
SILK_TOP_ART
 10
55.50
 20
4.30
 30
0.00
  0
VERTEX
  8
SILK_TOP_ART
 10
55.50
 20
4.70
 30
0.00
  0
SEQEND
  0
POLYLINE
  8
SILK_TOP_ART
 66
1
 10
0.00
 20
0.00
 30
0.00
 40
0.2032
 41
0.2032
  0
VERTEX
  8
SILK_TOP_ART
 10
59.60
 20
5.25
 30
0.00
  0
VERTEX
  8
SILK_TOP_ART
 10
59.50
 20
5.25
 30
0.00
  0
SEQEND
  0
POLYLINE
  8
SILK_TOP_ART
 66
1
 10
0.00
 20
0.00
 30
0.00
 40
0.2032
 41
0.2032
  0
VERTEX
  8
SILK_TOP_ART
 10
60.00
 20
5.25
 30
0.00
  0
VERTEX
  8
SILK_TOP_ART
 10
59.90
 20
5.25
 30
0.00
  0
SEQEND
  0
POLYLINE
  8
SILK_TOP_ART
 66
1
 10
0.00
 20
0.00
 30
0.00
 40
0.2032
 41
0.2032
  0
VERTEX
  8
SILK_TOP_ART
 10
60.85
 20
5.25
 30
0.00
  0
VERTEX
  8
SILK_TOP_ART
 10
60.75
 20
5.25
 30
0.00
  0
SEQEND
  0
POLYLINE
  8
SILK_TOP_ART
 66
1
 10
0.00
 20
0.00
 30
0.00
 40
0.2032
 41
0.2032
  0
VERTEX
  8
SILK_TOP_ART
 10
61.25
 20
5.25
 30
0.00
  0
VERTEX
  8
SILK_TOP_ART
 10
61.15
 20
5.25
 30
0.00
  0
SEQEND
  0
POLYLINE
  8
SILK_TOP_ART
 66
1
 10
0.00
 20
0.00
 30
0.00
 40
0.2032
 41
0.2032
  0
VERTEX
  8
SILK_TOP_ART
 10
61.10
 20
14.15
 30
0.00
  0
VERTEX
  8
SILK_TOP_ART
 10
61.10
 20
14.25
 30
0.00
  0
SEQEND
  0
POLYLINE
  8
SILK_TOP_ART
 66
1
 10
0.00
 20
0.00
 30
0.00
 40
0.2032
 41
0.2032
  0
VERTEX
  8
SILK_TOP_ART
 10
61.10
 20
13.75
 30
0.00
  0
VERTEX
  8
SILK_TOP_ART
 10
61.10
 20
13.85
 30
0.00
  0
SEQEND
  0
POLYLINE
  8
SILK_TOP_ART
 66
1
 10
0.00
 20
0.00
 30
0.00
 40
0.2032
 41
0.2032
  0
VERTEX
  8
SILK_TOP_ART
 10
71.341
 20
2.246
 30
0.00
  0
VERTEX
  8
SILK_TOP_ART
 10
71.468
 20
2.373
 30
0.00
  0
VERTEX
  8
SILK_TOP_ART
 10
71.595
 20
2.373
 30
0.00
  0
VERTEX
  8
SILK_TOP_ART
 10
71.722
 20
2.246
 30
0.00
  0
VERTEX
  8
SILK_TOP_ART
 10
71.722
 20
2.119
 30
0.00
  0
VERTEX
  8
SILK_TOP_ART
 10
71.341
 20
1.738
 30
0.00
  0
VERTEX
  8
SILK_TOP_ART
 10
71.341
 20
1.611
 30
0.00
  0
VERTEX
  8
SILK_TOP_ART
 10
71.722
 20
1.611
 30
0.00
  0
SEQEND
  0
POLYLINE
  8
SILK_TOP_ART
 66
1
 10
0.00
 20
0.00
 30
0.00
 40
0.2032
 41
0.2032
  0
VERTEX
  8
SILK_TOP_ART
 10
71.468
 20
2.754
 30
0.00
  0
VERTEX
  8
SILK_TOP_ART
 10
71.722
 20
2.754
 30
0.00
  0
SEQEND
  0
POLYLINE
  8
SILK_TOP_ART
 66
1
 10
0.00
 20
0.00
 30
0.00
 40
0.2032
 41
0.2032
  0
VERTEX
  8
SILK_TOP_ART
 10
71.468
 20
3.389
 30
0.00
  0
VERTEX
  8
SILK_TOP_ART
 10
71.595
 20
3.516
 30
0.00
  0
VERTEX
  8
SILK_TOP_ART
 10
71.595
 20
2.754
 30
0.00
  0
SEQEND
  0
POLYLINE
  8
SILK_TOP_ART
 66
1
 10
0.00
 20
0.00
 30
0.00
 40
0.2032
 41
0.2032
  0
VERTEX
  8
SILK_TOP_ART
 10
70.96
 20
3.77
 30
0.00
  0
VERTEX
  8
SILK_TOP_ART
 10
70.96
 20
1.23
 30
0.00
  0
VERTEX
  8
SILK_TOP_ART
 10
76.04
 20
1.23
 30
0.00
  0
VERTEX
  8
SILK_TOP_ART
 10
76.04
 20
3.77
 30
0.00
  0
VERTEX
  8
SILK_TOP_ART
 10
70.96
 20
3.77
 30
0.00
  0
SEQEND
  0
POLYLINE
  8
SILK_TOP_ART
 66
1
 10
0.00
 20
0.00
 30
0.00
 40
0.2032
 41
0.2032
  0
VERTEX
  8
SILK_TOP_ART
 10
65.50
 20
4.20
 30
0.00
  0
VERTEX
  8
SILK_TOP_ART
 10
65.50
 20
3.80
 30
0.00
  0
SEQEND
  0
POLYLINE
  8
SILK_TOP_ART
 66
1
 10
0.00
 20
0.00
 30
0.00
 40
0.2032
 41
0.2032
  0
VERTEX
  8
SILK_TOP_ART
 10
76.286
 20
7.722
 30
0.00
  0
VERTEX
  8
SILK_TOP_ART
 10
76.286
 20
10.77
 30
0.00
  0
VERTEX
  8
SILK_TOP_ART
 10
75.778
 20
11.278
 30
0.00
  0
VERTEX
  8
SILK_TOP_ART
 10
71.714
 20
11.278
 30
0.00
  0
VERTEX
  8
SILK_TOP_ART
 10
71.714
 20
7.722
 30
0.00
  0
VERTEX
  8
SILK_TOP_ART
 10
76.286
 20
7.722
 30
0.00
  0
SEQEND
  0
POLYLINE
  8
SILK_TOP_ART
 66
1
 10
0.00
 20
0.00
 30
0.00
 40
0.2032
 41
0.2032
  0
VERTEX
  8
SILK_TOP_ART
 10
71.35
 20
13.60
 30
0.00
  0
VERTEX
  8
SILK_TOP_ART
 10
71.45
 20
13.60
 30
0.00
  0
SEQEND
  0
POLYLINE
  8
SILK_TOP_ART
 66
1
 10
0.00
 20
0.00
 30
0.00
 40
0.2032
 41
0.2032
  0
VERTEX
  8
SILK_TOP_ART
 10
70.95
 20
13.60
 30
0.00
  0
VERTEX
  8
SILK_TOP_ART
 10
71.05
 20
13.60
 30
0.00
  0
SEQEND
  0
POLYLINE
  8
SILK_TOP_ART
 66
1
 10
0.00
 20
0.00
 30
0.00
 40
0.2032
 41
0.2032
  0
VERTEX
  8
SILK_TOP_ART
 10
70.25
 20
13.60
 30
0.00
  0
VERTEX
  8
SILK_TOP_ART
 10
70.35
 20
13.60
 30
0.00
  0
SEQEND
  0
POLYLINE
  8
SILK_TOP_ART
 66
1
 10
0.00
 20
0.00
 30
0.00
 40
0.2032
 41
0.2032
  0
VERTEX
  8
SILK_TOP_ART
 10
69.85
 20
13.60
 30
0.00
  0
VERTEX
  8
SILK_TOP_ART
 10
69.95
 20
13.60
 30
0.00
  0
SEQEND
  0
POLYLINE
  8
SILK_TOP_ART
 66
1
 10
0.00
 20
0.00
 30
0.00
 40
0.2032
 41
0.2032
  0
VERTEX
  8
SILK_TOP_ART
 10
74.389
 20
1.738
 30
0.00
  0
VERTEX
  8
SILK_TOP_ART
 10
74.389
 20
2.119
 30
0.00
  0
VERTEX
  8
SILK_TOP_ART
 10
74.516
 20
2.246
 30
0.00
  0
VERTEX
  8
SILK_TOP_ART
 10
74.643
 20
2.246
 30
0.00
  0
VERTEX
  8
SILK_TOP_ART
 10
74.77
 20
2.119
 30
0.00
  0
VERTEX
  8
SILK_TOP_ART
 10
74.77
 20
1.738
 30
0.00
  0
VERTEX
  8
SILK_TOP_ART
 10
74.643
 20
1.611
 30
0.00
  0
VERTEX
  8
SILK_TOP_ART
 10
74.516
 20
1.611
 30
0.00
  0
VERTEX
  8
SILK_TOP_ART
 10
74.389
 20
1.738
 30
0.00
  0
SEQEND
  0
POLYLINE
  8
SILK_TOP_ART
 66
1
 10
0.00
 20
0.00
 30
0.00
 40
0.2032
 41
0.2032
  0
VERTEX
  8
SILK_TOP_ART
 10
75.024
 20
1.611
 30
0.00
  0
VERTEX
  8
SILK_TOP_ART
 10
75.024
 20
2.246
 30
0.00
  0
VERTEX
  8
SILK_TOP_ART
 10
75.405
 20
2.246
 30
0.00
  0
VERTEX
  8
SILK_TOP_ART
 10
75.405
 20
1.611
 30
0.00
  0
SEQEND
  0
POLYLINE
  8
SILK_TOP_ART
 66
1
 10
0.00
 20
0.00
 30
0.00
 40
0.2032
 41
0.2032
  0
VERTEX
  8
SILK_TOP_ART
 10
75.024
 20
2.754
 30
0.00
  0
VERTEX
  8
SILK_TOP_ART
 10
75.024
 20
3.389
 30
0.00
  0
VERTEX
  8
SILK_TOP_ART
 10
75.405
 20
3.389
 30
0.00
  0
VERTEX
  8
SILK_TOP_ART
 10
75.405
 20
2.754
 30
0.00
  0
SEQEND
  0
POLYLINE
  8
SILK_TOP_ART
 66
1
 10
0.00
 20
0.00
 30
0.00
 40
0.2032
 41
0.2032
  0
VERTEX
  8
SILK_TOP_ART
 10
74.389
 20
3.262
 30
0.00
  0
VERTEX
  8
SILK_TOP_ART
 10
74.389
 20
2.881
 30
0.00
  0
VERTEX
  8
SILK_TOP_ART
 10
74.516
 20
2.754
 30
0.00
  0
VERTEX
  8
SILK_TOP_ART
 10
74.643
 20
2.754
 30
0.00
  0
VERTEX
  8
SILK_TOP_ART
 10
74.77
 20
2.881
 30
0.00
  0
VERTEX
  8
SILK_TOP_ART
 10
74.77
 20
3.262
 30
0.00
  0
VERTEX
  8
SILK_TOP_ART
 10
74.643
 20
3.389
 30
0.00
  0
VERTEX
  8
SILK_TOP_ART
 10
74.516
 20
3.389
 30
0.00
  0
VERTEX
  8
SILK_TOP_ART
 10
74.389
 20
3.262
 30
0.00
  0
SEQEND
  0
POLYLINE
  8
SILK_TOP_ART
 66
1
 10
0.00
 20
0.00
 30
0.00
 40
0.2032
 41
0.2032
  0
VERTEX
  8
SILK_TOP_ART
 10
75.75
 20
5.10
 30
0.00
  0
VERTEX
  8
SILK_TOP_ART
 10
75.75
 20
5.00
 30
0.00
  0
SEQEND
  0
POLYLINE
  8
SILK_TOP_ART
 66
1
 10
0.00
 20
0.00
 30
0.00
 40
0.2032
 41
0.2032
  0
VERTEX
  8
SILK_TOP_ART
 10
75.75
 20
5.50
 30
0.00
  0
VERTEX
  8
SILK_TOP_ART
 10
75.75
 20
5.40
 30
0.00
  0
SEQEND
  0
POLYLINE
  8
SILK_TOP_ART
 66
1
 10
0.00
 20
0.00
 30
0.00
 40
0.2032
 41
0.2032
  0
VERTEX
  8
SILK_TOP_ART
 10
74.762
 20
8.4527
 30
0.00
 42
0.4142136
  0
VERTEX
  8
SILK_TOP_ART
 10
75.8093
 20
9.50
 30
0.00
 42
0.00
  0
SEQEND
  0
POLYLINE
  8
SILK_TOP_ART
 66
1
 10
0.00
 20
0.00
 30
0.00
 40
0.2032
 41
0.2032
  0
VERTEX
  8
SILK_TOP_ART
 10
73.7147
 20
9.50
 30
0.00
 42
0.4142136
  0
VERTEX
  8
SILK_TOP_ART
 10
74.762
 20
8.4527
 30
0.00
 42
0.00
  0
SEQEND
  0
POLYLINE
  8
SILK_TOP_ART
 66
1
 10
0.00
 20
0.00
 30
0.00
 40
0.2032
 41
0.2032
  0
VERTEX
  8
SILK_TOP_ART
 10
74.762
 20
10.5473
 30
0.00
 42
0.4142136
  0
VERTEX
  8
SILK_TOP_ART
 10
73.7147
 20
9.50
 30
0.00
 42
0.00
  0
SEQEND
  0
POLYLINE
  8
SILK_TOP_ART
 66
1
 10
0.00
 20
0.00
 30
0.00
 40
0.2032
 41
0.2032
  0
VERTEX
  8
SILK_TOP_ART
 10
75.8093
 20
9.50
 30
0.00
 42
0.4142136
  0
VERTEX
  8
SILK_TOP_ART
 10
74.762
 20
10.5473
 30
0.00
 42
0.00
  0
SEQEND
  0
POLYLINE
  8
SILK_TOP_ART
 66
1
 10
0.00
 20
0.00
 30
0.00
 40
0.127
 41
0.127
  0
VERTEX
  8
SILK_TOP_ART
 10
27.8003
 20
14.4485
 30
0.00
  0
VERTEX
  8
SILK_TOP_ART
 10
27.7368
 20
14.4866
 30
0.00
  0
VERTEX
  8
SILK_TOP_ART
 10
27.6628
 20
14.512
 30
0.00
  0
VERTEX
  8
SILK_TOP_ART
 10
27.5781
 20
14.512
 30
0.00
  0
VERTEX
  8
SILK_TOP_ART
 10
27.4828
 20
14.4739
 30
0.00
  0
VERTEX
  8
SILK_TOP_ART
 10
27.4088
 20
14.4104
 30
0.00
  0
VERTEX
  8
SILK_TOP_ART
 10
27.3558
 20
14.3342
 30
0.00
  0
VERTEX
  8
SILK_TOP_ART
 10
27.3135
 20
14.2072
 30
0.00
  0
VERTEX
  8
SILK_TOP_ART
 10
27.3029
 20
14.0929
 30
0.00
  0
VERTEX
  8
SILK_TOP_ART
 10
27.3241
 20
13.9786
 30
0.00
  0
VERTEX
  8
SILK_TOP_ART
 10
27.3558
 20
13.9024
 30
0.00
  0
VERTEX
  8
SILK_TOP_ART
 10
27.4193
 20
13.8262
 30
0.00
  0
VERTEX
  8
SILK_TOP_ART
 10
27.4934
 20
13.7754
 30
0.00
  0
VERTEX
  8
SILK_TOP_ART
 10
27.5675
 20
13.75
 30
0.00
  0
VERTEX
  8
SILK_TOP_ART
 10
27.6416
 20
13.75
 30
0.00
  0
VERTEX
  8
SILK_TOP_ART
 10
27.7157
 20
13.7754
 30
0.00
  0
VERTEX
  8
SILK_TOP_ART
 10
27.7792
 20
13.8135
 30
0.00
  0
VERTEX
  8
SILK_TOP_ART
 10
27.8321
 20
13.8643
 30
0.00
  0
SEQEND
  0
POLYLINE
  8
SILK_TOP_ART
 66
1
 10
0.00
 20
0.00
 30
0.00
 40
0.127
 41
0.127
  0
VERTEX
  8
SILK_TOP_ART
 10
27.9697
 20
13.8643
 30
0.00
  0
VERTEX
  8
SILK_TOP_ART
 10
28.0332
 20
13.8008
 30
0.00
  0
VERTEX
  8
SILK_TOP_ART
 10
28.1072
 20
13.7627
 30
0.00
  0
VERTEX
  8
SILK_TOP_ART
 10
28.2025
 20
13.75
 30
0.00
  0
VERTEX
  8
SILK_TOP_ART
 10
28.2978
 20
13.7754
 30
0.00
  0
VERTEX
  8
SILK_TOP_ART
 10
28.3718
 20
13.8262
 30
0.00
  0
VERTEX
  8
SILK_TOP_ART
 10
28.4248
 20
13.9151
 30
0.00
  0
VERTEX
  8
SILK_TOP_ART
 10
28.4353
 20
14.0167
 30
0.00
  0
VERTEX
  8
SILK_TOP_ART
 10
28.4142
 20
14.1183
 30
0.00
  0
VERTEX
  8
SILK_TOP_ART
 10
28.3612
 20
14.1818
 30
0.00
  0
VERTEX
  8
SILK_TOP_ART
 10
28.2872
 20
14.2326
 30
0.00
  0
VERTEX
  8
SILK_TOP_ART
 10
28.2131
 20
14.2453
 30
0.00
  0
VERTEX
  8
SILK_TOP_ART
 10
28.139
 20
14.2326
 30
0.00
  0
VERTEX
  8
SILK_TOP_ART
 10
28.0438
 20
14.1818
 30
0.00
  0
VERTEX
  8
SILK_TOP_ART
 10
28.0755
 20
14.512
 30
0.00
  0
VERTEX
  8
SILK_TOP_ART
 10
28.3612
 20
14.512
 30
0.00
  0
SEQEND
  0
POLYLINE
  8
SILK_TOP_ART
 66
1
 10
0.00
 20
0.00
 30
0.00
 40
0.127
 41
0.127
  0
VERTEX
  8
SILK_TOP_ART
 10
27.8003
 20
15.4485
 30
0.00
  0
VERTEX
  8
SILK_TOP_ART
 10
27.7368
 20
15.4866
 30
0.00
  0
VERTEX
  8
SILK_TOP_ART
 10
27.6628
 20
15.512
 30
0.00
  0
VERTEX
  8
SILK_TOP_ART
 10
27.5781
 20
15.512
 30
0.00
  0
VERTEX
  8
SILK_TOP_ART
 10
27.4828
 20
15.4739
 30
0.00
  0
VERTEX
  8
SILK_TOP_ART
 10
27.4088
 20
15.4104
 30
0.00
  0
VERTEX
  8
SILK_TOP_ART
 10
27.3558
 20
15.3342
 30
0.00
  0
VERTEX
  8
SILK_TOP_ART
 10
27.3135
 20
15.2072
 30
0.00
  0
VERTEX
  8
SILK_TOP_ART
 10
27.3029
 20
15.0929
 30
0.00
  0
VERTEX
  8
SILK_TOP_ART
 10
27.3241
 20
14.9786
 30
0.00
  0
VERTEX
  8
SILK_TOP_ART
 10
27.3558
 20
14.9024
 30
0.00
  0
VERTEX
  8
SILK_TOP_ART
 10
27.4193
 20
14.8262
 30
0.00
  0
VERTEX
  8
SILK_TOP_ART
 10
27.4934
 20
14.7754
 30
0.00
  0
VERTEX
  8
SILK_TOP_ART
 10
27.5675
 20
14.75
 30
0.00
  0
VERTEX
  8
SILK_TOP_ART
 10
27.6416
 20
14.75
 30
0.00
  0
VERTEX
  8
SILK_TOP_ART
 10
27.7157
 20
14.7754
 30
0.00
  0
VERTEX
  8
SILK_TOP_ART
 10
27.7792
 20
14.8135
 30
0.00
  0
VERTEX
  8
SILK_TOP_ART
 10
27.8321
 20
14.8643
 30
0.00
  0
SEQEND
  0
POLYLINE
  8
SILK_TOP_ART
 66
1
 10
0.00
 20
0.00
 30
0.00
 40
0.127
 41
0.127
  0
VERTEX
  8
SILK_TOP_ART
 10
28.3295
 20
14.75
 30
0.00
  0
VERTEX
  8
SILK_TOP_ART
 10
28.3295
 20
15.512
 30
0.00
  0
VERTEX
  8
SILK_TOP_ART
 10
27.9379
 20
14.9659
 30
0.00
  0
VERTEX
  8
SILK_TOP_ART
 10
28.4671
 20
14.9659
 30
0.00
  0
SEQEND
  0
POLYLINE
  8
SILK_TOP_ART
 66
1
 10
0.00
 20
0.00
 30
0.00
 40
0.127
 41
0.127
  0
VERTEX
  8
SILK_TOP_ART
 10
27.8003
 20
11.9485
 30
0.00
  0
VERTEX
  8
SILK_TOP_ART
 10
27.7368
 20
11.9866
 30
0.00
  0
VERTEX
  8
SILK_TOP_ART
 10
27.6628
 20
12.012
 30
0.00
  0
VERTEX
  8
SILK_TOP_ART
 10
27.5781
 20
12.012
 30
0.00
  0
VERTEX
  8
SILK_TOP_ART
 10
27.4828
 20
11.9739
 30
0.00
  0
VERTEX
  8
SILK_TOP_ART
 10
27.4088
 20
11.9104
 30
0.00
  0
VERTEX
  8
SILK_TOP_ART
 10
27.3558
 20
11.8342
 30
0.00
  0
VERTEX
  8
SILK_TOP_ART
 10
27.3135
 20
11.7072
 30
0.00
  0
VERTEX
  8
SILK_TOP_ART
 10
27.3029
 20
11.5929
 30
0.00
  0
VERTEX
  8
SILK_TOP_ART
 10
27.3241
 20
11.4786
 30
0.00
  0
VERTEX
  8
SILK_TOP_ART
 10
27.3558
 20
11.4024
 30
0.00
  0
VERTEX
  8
SILK_TOP_ART
 10
27.4193
 20
11.3262
 30
0.00
  0
VERTEX
  8
SILK_TOP_ART
 10
27.4934
 20
11.2754
 30
0.00
  0
VERTEX
  8
SILK_TOP_ART
 10
27.5675
 20
11.25
 30
0.00
  0
VERTEX
  8
SILK_TOP_ART
 10
27.6416
 20
11.25
 30
0.00
  0
VERTEX
  8
SILK_TOP_ART
 10
27.7157
 20
11.2754
 30
0.00
  0
VERTEX
  8
SILK_TOP_ART
 10
27.7792
 20
11.3135
 30
0.00
  0
VERTEX
  8
SILK_TOP_ART
 10
27.8321
 20
11.3643
 30
0.00
  0
SEQEND
  0
POLYLINE
  8
SILK_TOP_ART
 66
1
 10
0.00
 20
0.00
 30
0.00
 40
0.127
 41
0.127
  0
VERTEX
  8
SILK_TOP_ART
 10
28.1813
 20
11.25
 30
0.00
  0
VERTEX
  8
SILK_TOP_ART
 10
28.2025
 20
11.4151
 30
0.00
  0
VERTEX
  8
SILK_TOP_ART
 10
28.2343
 20
11.5548
 30
0.00
  0
VERTEX
  8
SILK_TOP_ART
 10
28.2766
 20
11.6818
 30
0.00
  0
VERTEX
  8
SILK_TOP_ART
 10
28.3295
 20
11.8215
 30
0.00
  0
VERTEX
  8
SILK_TOP_ART
 10
28.4142
 20
12.012
 30
0.00
  0
VERTEX
  8
SILK_TOP_ART
 10
27.9908
 20
12.012
 30
0.00
  0
SEQEND
  0
POLYLINE
  8
SILK_TOP_ART
 66
1
 10
0.00
 20
0.00
 30
0.00
 40
0.127
 41
0.127
  0
VERTEX
  8
SILK_TOP_ART
 10
55.0558
 20
6.70
 30
0.00
  0
VERTEX
  8
SILK_TOP_ART
 10
55.0558
 20
7.462
 30
0.00
  0
VERTEX
  8
SILK_TOP_ART
 10
55.3204
 20
7.462
 30
0.00
  0
VERTEX
  8
SILK_TOP_ART
 10
55.4051
 20
7.4239
 30
0.00
  0
VERTEX
  8
SILK_TOP_ART
 10
55.458
 20
7.3731
 30
0.00
  0
VERTEX
  8
SILK_TOP_ART
 10
55.4792
 20
7.2715
 30
0.00
  0
VERTEX
  8
SILK_TOP_ART
 10
55.458
 20
7.1699
 30
0.00
  0
VERTEX
  8
SILK_TOP_ART
 10
55.3945
 20
7.1064
 30
0.00
  0
VERTEX
  8
SILK_TOP_ART
 10
55.3204
 20
7.0683
 30
0.00
  0
VERTEX
  8
SILK_TOP_ART
 10
55.0558
 20
7.0683
 30
0.00
  0
SEQEND
  0
POLYLINE
  8
SILK_TOP_ART
 66
1
 10
0.00
 20
0.00
 30
0.00
 40
0.127
 41
0.127
  0
VERTEX
  8
SILK_TOP_ART
 10
55.3204
 20
7.0683
 30
0.00
  0
VERTEX
  8
SILK_TOP_ART
 10
55.4792
 20
6.70
 30
0.00
  0
SEQEND
  0
POLYLINE
  8
SILK_TOP_ART
 66
1
 10
0.00
 20
0.00
 30
0.00
 40
0.127
 41
0.127
  0
VERTEX
  8
SILK_TOP_ART
 10
55.8813
 20
6.70
 30
0.00
  0
VERTEX
  8
SILK_TOP_ART
 10
55.9025
 20
6.8651
 30
0.00
  0
VERTEX
  8
SILK_TOP_ART
 10
55.9343
 20
7.0048
 30
0.00
  0
VERTEX
  8
SILK_TOP_ART
 10
55.9766
 20
7.1318
 30
0.00
  0
VERTEX
  8
SILK_TOP_ART
 10
56.0295
 20
7.2715
 30
0.00
  0
VERTEX
  8
SILK_TOP_ART
 10
56.1142
 20
7.462
 30
0.00
  0
VERTEX
  8
SILK_TOP_ART
 10
55.6908
 20
7.462
 30
0.00
  0
SEQEND
  0
POLYLINE
  8
SILK_TOP_ART
 66
1
 10
0.00
 20
0.00
 30
0.00
 40
0.127
 41
0.127
  0
VERTEX
  8
SILK_TOP_ART
 10
55.1058
 20
7.75
 30
0.00
  0
VERTEX
  8
SILK_TOP_ART
 10
55.1058
 20
8.512
 30
0.00
  0
VERTEX
  8
SILK_TOP_ART
 10
55.3704
 20
8.512
 30
0.00
  0
VERTEX
  8
SILK_TOP_ART
 10
55.4551
 20
8.4739
 30
0.00
  0
VERTEX
  8
SILK_TOP_ART
 10
55.508
 20
8.4231
 30
0.00
  0
VERTEX
  8
SILK_TOP_ART
 10
55.5292
 20
8.3215
 30
0.00
  0
VERTEX
  8
SILK_TOP_ART
 10
55.508
 20
8.2199
 30
0.00
  0
VERTEX
  8
SILK_TOP_ART
 10
55.4445
 20
8.1564
 30
0.00
  0
VERTEX
  8
SILK_TOP_ART
 10
55.3704
 20
8.1183
 30
0.00
  0
VERTEX
  8
SILK_TOP_ART
 10
55.1058
 20
8.1183
 30
0.00
  0
SEQEND
  0
POLYLINE
  8
SILK_TOP_ART
 66
1
 10
0.00
 20
0.00
 30
0.00
 40
0.127
 41
0.127
  0
VERTEX
  8
SILK_TOP_ART
 10
55.3704
 20
8.1183
 30
0.00
  0
VERTEX
  8
SILK_TOP_ART
 10
55.5292
 20
7.75
 30
0.00
  0
SEQEND
  0
POLYLINE
  8
SILK_TOP_ART
 66
1
 10
0.00
 20
0.00
 30
0.00
 40
0.127
 41
0.127
  0
VERTEX
  8
SILK_TOP_ART
 10
55.7514
 20
8.0675
 30
0.00
  0
VERTEX
  8
SILK_TOP_ART
 10
55.8255
 20
8.1564
 30
0.00
  0
VERTEX
  8
SILK_TOP_ART
 10
55.889
 20
8.2072
 30
0.00
  0
VERTEX
  8
SILK_TOP_ART
 10
55.9737
 20
8.2326
 30
0.00
  0
VERTEX
  8
SILK_TOP_ART
 10
56.0478
 20
8.2072
 30
0.00
  0
VERTEX
  8
SILK_TOP_ART
 10
56.1007
 20
8.1564
 30
0.00
  0
VERTEX
  8
SILK_TOP_ART
 10
56.143
 20
8.0802
 30
0.00
  0
VERTEX
  8
SILK_TOP_ART
 10
56.1536
 20
7.9913
 30
0.00
  0
VERTEX
  8
SILK_TOP_ART
 10
56.143
 20
7.9151
 30
0.00
  0
VERTEX
  8
SILK_TOP_ART
 10
56.1007
 20
7.8389
 30
0.00
  0
VERTEX
  8
SILK_TOP_ART
 10
56.0372
 20
7.7754
 30
0.00
  0
VERTEX
  8
SILK_TOP_ART
 10
55.9631
 20
7.75
 30
0.00
  0
VERTEX
  8
SILK_TOP_ART
 10
55.8784
 20
7.7754
 30
0.00
  0
VERTEX
  8
SILK_TOP_ART
 10
55.8043
 20
7.8516
 30
0.00
  0
VERTEX
  8
SILK_TOP_ART
 10
55.762
 20
7.9659
 30
0.00
  0
VERTEX
  8
SILK_TOP_ART
 10
55.7514
 20
8.0929
 30
0.00
  0
VERTEX
  8
SILK_TOP_ART
 10
55.7726
 20
8.258
 30
0.00
  0
VERTEX
  8
SILK_TOP_ART
 10
55.8043
 20
8.3469
 30
0.00
  0
VERTEX
  8
SILK_TOP_ART
 10
55.8572
 20
8.4358
 30
0.00
  0
VERTEX
  8
SILK_TOP_ART
 10
55.9313
 20
8.4993
 30
0.00
  0
VERTEX
  8
SILK_TOP_ART
 10
56.0054
 20
8.512
 30
0.00
  0
VERTEX
  8
SILK_TOP_ART
 10
56.0795
 20
8.4866
 30
0.00
  0
VERTEX
  8
SILK_TOP_ART
 10
56.1324
 20
8.4231
 30
0.00
  0
SEQEND
  0
POLYLINE
  8
SILK_TOP_ART
 66
1
 10
0.00
 20
0.00
 30
0.00
 40
0.127
 41
0.127
  0
VERTEX
  8
SILK_TOP_ART
 10
63.8985
 20
8.1997
 30
0.00
  0
VERTEX
  8
SILK_TOP_ART
 10
63.9366
 20
8.2632
 30
0.00
  0
VERTEX
  8
SILK_TOP_ART
 10
63.962
 20
8.3372
 30
0.00
  0
VERTEX
  8
SILK_TOP_ART
 10
63.962
 20
8.4219
 30
0.00
  0
VERTEX
  8
SILK_TOP_ART
 10
63.9239
 20
8.5172
 30
0.00
  0
VERTEX
  8
SILK_TOP_ART
 10
63.8604
 20
8.5912
 30
0.00
  0
VERTEX
  8
SILK_TOP_ART
 10
63.7842
 20
8.6442
 30
0.00
  0
VERTEX
  8
SILK_TOP_ART
 10
63.6572
 20
8.6865
 30
0.00
  0
VERTEX
  8
SILK_TOP_ART
 10
63.5429
 20
8.6971
 30
0.00
  0
VERTEX
  8
SILK_TOP_ART
 10
63.4286
 20
8.6759
 30
0.00
  0
VERTEX
  8
SILK_TOP_ART
 10
63.3524
 20
8.6442
 30
0.00
  0
VERTEX
  8
SILK_TOP_ART
 10
63.2762
 20
8.5807
 30
0.00
  0
VERTEX
  8
SILK_TOP_ART
 10
63.2254
 20
8.5066
 30
0.00
  0
VERTEX
  8
SILK_TOP_ART
 10
63.20
 20
8.4325
 30
0.00
  0
VERTEX
  8
SILK_TOP_ART
 10
63.20
 20
8.3584
 30
0.00
  0
VERTEX
  8
SILK_TOP_ART
 10
63.2254
 20
8.2843
 30
0.00
  0
VERTEX
  8
SILK_TOP_ART
 10
63.2635
 20
8.2208
 30
0.00
  0
VERTEX
  8
SILK_TOP_ART
 10
63.3143
 20
8.1679
 30
0.00
  0
SEQEND
  0
POLYLINE
  8
SILK_TOP_ART
 66
1
 10
0.00
 20
0.00
 30
0.00
 40
0.127
 41
0.127
  0
VERTEX
  8
SILK_TOP_ART
 10
63.20
 20
7.7975
 30
0.00
  0
VERTEX
  8
SILK_TOP_ART
 10
63.962
 20
7.7975
 30
0.00
  0
VERTEX
  8
SILK_TOP_ART
 10
63.8096
 20
7.9245
 30
0.00
  0
SEQEND
  0
POLYLINE
  8
SILK_TOP_ART
 66
1
 10
0.00
 20
0.00
 30
0.00
 40
0.127
 41
0.127
  0
VERTEX
  8
SILK_TOP_ART
 10
63.20
 20
7.9245
 30
0.00
  0
VERTEX
  8
SILK_TOP_ART
 10
63.20
 20
7.6705
 30
0.00
  0
SEQEND
  0
POLYLINE
  8
SILK_TOP_ART
 66
1
 10
0.00
 20
0.00
 30
0.00
 40
0.127
 41
0.127
  0
VERTEX
  8
SILK_TOP_ART
 10
63.20
 20
7.1625
 30
0.00
  0
VERTEX
  8
SILK_TOP_ART
 10
63.2127
 20
7.0884
 30
0.00
  0
VERTEX
  8
SILK_TOP_ART
 10
63.2508
 20
7.0038
 30
0.00
  0
VERTEX
  8
SILK_TOP_ART
 10
63.3143
 20
6.9508
 30
0.00
  0
VERTEX
  8
SILK_TOP_ART
 10
63.4032
 20
6.9297
 30
0.00
  0
VERTEX
  8
SILK_TOP_ART
 10
63.4921
 20
6.9508
 30
0.00
  0
VERTEX
  8
SILK_TOP_ART
 10
63.5683
 20
7.0143
 30
0.00
  0
VERTEX
  8
SILK_TOP_ART
 10
63.6064
 20
7.1096
 30
0.00
  0
VERTEX
  8
SILK_TOP_ART
 10
63.6064
 20
7.2154
 30
0.00
  0
VERTEX
  8
SILK_TOP_ART
 10
63.6318
 20
7.2789
 30
0.00
  0
VERTEX
  8
SILK_TOP_ART
 10
63.6953
 20
7.3318
 30
0.00
  0
VERTEX
  8
SILK_TOP_ART
 10
63.7842
 20
7.353
 30
0.00
  0
VERTEX
  8
SILK_TOP_ART
 10
63.8731
 20
7.3212
 30
0.00
  0
VERTEX
  8
SILK_TOP_ART
 10
63.9366
 20
7.2472
 30
0.00
  0
VERTEX
  8
SILK_TOP_ART
 10
63.962
 20
7.1625
 30
0.00
  0
VERTEX
  8
SILK_TOP_ART
 10
63.9366
 20
7.0778
 30
0.00
  0
VERTEX
  8
SILK_TOP_ART
 10
63.8731
 20
7.0038
 30
0.00
  0
VERTEX
  8
SILK_TOP_ART
 10
63.7842
 20
6.972
 30
0.00
  0
VERTEX
  8
SILK_TOP_ART
 10
63.6953
 20
6.9932
 30
0.00
  0
VERTEX
  8
SILK_TOP_ART
 10
63.6318
 20
7.0461
 30
0.00
  0
VERTEX
  8
SILK_TOP_ART
 10
63.6064
 20
7.1096
 30
0.00
  0
VERTEX
  8
SILK_TOP_ART
 10
63.6064
 20
7.2154
 30
0.00
  0
VERTEX
  8
SILK_TOP_ART
 10
63.5683
 20
7.3107
 30
0.00
  0
VERTEX
  8
SILK_TOP_ART
 10
63.4921
 20
7.3742
 30
0.00
  0
VERTEX
  8
SILK_TOP_ART
 10
63.4032
 20
7.3953
 30
0.00
  0
VERTEX
  8
SILK_TOP_ART
 10
63.3143
 20
7.3742
 30
0.00
  0
VERTEX
  8
SILK_TOP_ART
 10
63.2508
 20
7.3212
 30
0.00
  0
VERTEX
  8
SILK_TOP_ART
 10
63.2127
 20
7.2366
 30
0.00
  0
VERTEX
  8
SILK_TOP_ART
 10
63.20
 20
7.1625
 30
0.00
  0
SEQEND
  0
POLYLINE
  8
SILK_TOP_ART
 66
1
 10
0.00
 20
0.00
 30
0.00
 40
0.127
 41
0.127
  0
VERTEX
  8
SILK_TOP_ART
 10
64.9485
 20
8.1497
 30
0.00
  0
VERTEX
  8
SILK_TOP_ART
 10
64.9866
 20
8.2132
 30
0.00
  0
VERTEX
  8
SILK_TOP_ART
 10
65.012
 20
8.2872
 30
0.00
  0
VERTEX
  8
SILK_TOP_ART
 10
65.012
 20
8.3719
 30
0.00
  0
VERTEX
  8
SILK_TOP_ART
 10
64.9739
 20
8.4672
 30
0.00
  0
VERTEX
  8
SILK_TOP_ART
 10
64.9104
 20
8.5412
 30
0.00
  0
VERTEX
  8
SILK_TOP_ART
 10
64.8342
 20
8.5942
 30
0.00
  0
VERTEX
  8
SILK_TOP_ART
 10
64.7072
 20
8.6365
 30
0.00
  0
VERTEX
  8
SILK_TOP_ART
 10
64.5929
 20
8.6471
 30
0.00
  0
VERTEX
  8
SILK_TOP_ART
 10
64.4786
 20
8.6259
 30
0.00
  0
VERTEX
  8
SILK_TOP_ART
 10
64.4024
 20
8.5942
 30
0.00
  0
VERTEX
  8
SILK_TOP_ART
 10
64.3262
 20
8.5307
 30
0.00
  0
VERTEX
  8
SILK_TOP_ART
 10
64.2754
 20
8.4566
 30
0.00
  0
VERTEX
  8
SILK_TOP_ART
 10
64.25
 20
8.3825
 30
0.00
  0
VERTEX
  8
SILK_TOP_ART
 10
64.25
 20
8.3084
 30
0.00
  0
VERTEX
  8
SILK_TOP_ART
 10
64.2754
 20
8.2343
 30
0.00
  0
VERTEX
  8
SILK_TOP_ART
 10
64.3135
 20
8.1708
 30
0.00
  0
VERTEX
  8
SILK_TOP_ART
 10
64.3643
 20
8.1179
 30
0.00
  0
SEQEND
  0
POLYLINE
  8
SILK_TOP_ART
 66
1
 10
0.00
 20
0.00
 30
0.00
 40
0.127
 41
0.127
  0
VERTEX
  8
SILK_TOP_ART
 10
64.25
 20
7.7475
 30
0.00
  0
VERTEX
  8
SILK_TOP_ART
 10
65.012
 20
7.7475
 30
0.00
  0
VERTEX
  8
SILK_TOP_ART
 10
64.8596
 20
7.8745
 30
0.00
  0
SEQEND
  0
POLYLINE
  8
SILK_TOP_ART
 66
1
 10
0.00
 20
0.00
 30
0.00
 40
0.127
 41
0.127
  0
VERTEX
  8
SILK_TOP_ART
 10
64.25
 20
7.8745
 30
0.00
  0
VERTEX
  8
SILK_TOP_ART
 10
64.25
 20
7.6205
 30
0.00
  0
SEQEND
  0
POLYLINE
  8
SILK_TOP_ART
 66
1
 10
0.00
 20
0.00
 30
0.00
 40
0.127
 41
0.127
  0
VERTEX
  8
SILK_TOP_ART
 10
64.25
 20
7.1337
 30
0.00
  0
VERTEX
  8
SILK_TOP_ART
 10
64.4151
 20
7.1125
 30
0.00
  0
VERTEX
  8
SILK_TOP_ART
 10
64.5548
 20
7.0807
 30
0.00
  0
VERTEX
  8
SILK_TOP_ART
 10
64.6818
 20
7.0384
 30
0.00
  0
VERTEX
  8
SILK_TOP_ART
 10
64.8215
 20
6.9855
 30
0.00
  0
VERTEX
  8
SILK_TOP_ART
 10
65.012
 20
6.9008
 30
0.00
  0
VERTEX
  8
SILK_TOP_ART
 10
65.012
 20
7.3242
 30
0.00
  0
SEQEND
  0
POLYLINE
  8
SILK_TOP_ART
 66
1
 10
0.00
 20
0.00
 30
0.00
 40
0.127
 41
0.127
  0
VERTEX
  8
SILK_TOP_ART
 10
64.1997
 20
11.3015
 30
0.00
  0
VERTEX
  8
SILK_TOP_ART
 10
64.2632
 20
11.2634
 30
0.00
  0
VERTEX
  8
SILK_TOP_ART
 10
64.3372
 20
11.238
 30
0.00
  0
VERTEX
  8
SILK_TOP_ART
 10
64.4219
 20
11.238
 30
0.00
  0
VERTEX
  8
SILK_TOP_ART
 10
64.5172
 20
11.2761
 30
0.00
  0
VERTEX
  8
SILK_TOP_ART
 10
64.5912
 20
11.3396
 30
0.00
  0
VERTEX
  8
SILK_TOP_ART
 10
64.6442
 20
11.4158
 30
0.00
  0
VERTEX
  8
SILK_TOP_ART
 10
64.6865
 20
11.5428
 30
0.00
  0
VERTEX
  8
SILK_TOP_ART
 10
64.6971
 20
11.6571
 30
0.00
  0
VERTEX
  8
SILK_TOP_ART
 10
64.6759
 20
11.7714
 30
0.00
  0
VERTEX
  8
SILK_TOP_ART
 10
64.6442
 20
11.8476
 30
0.00
  0
VERTEX
  8
SILK_TOP_ART
 10
64.5807
 20
11.9238
 30
0.00
  0
VERTEX
  8
SILK_TOP_ART
 10
64.5066
 20
11.9746
 30
0.00
  0
VERTEX
  8
SILK_TOP_ART
 10
64.4325
 20
12.00
 30
0.00
  0
VERTEX
  8
SILK_TOP_ART
 10
64.3584
 20
12.00
 30
0.00
  0
VERTEX
  8
SILK_TOP_ART
 10
64.2843
 20
11.9746
 30
0.00
  0
VERTEX
  8
SILK_TOP_ART
 10
64.2208
 20
11.9365
 30
0.00
  0
VERTEX
  8
SILK_TOP_ART
 10
64.1679
 20
11.8857
 30
0.00
  0
SEQEND
  0
POLYLINE
  8
SILK_TOP_ART
 66
1
 10
0.00
 20
0.00
 30
0.00
 40
0.127
 41
0.127
  0
VERTEX
  8
SILK_TOP_ART
 10
63.7975
 20
12.00
 30
0.00
  0
VERTEX
  8
SILK_TOP_ART
 10
63.7975
 20
11.238
 30
0.00
  0
VERTEX
  8
SILK_TOP_ART
 10
63.9245
 20
11.3904
 30
0.00
  0
SEQEND
  0
POLYLINE
  8
SILK_TOP_ART
 66
1
 10
0.00
 20
0.00
 30
0.00
 40
0.127
 41
0.127
  0
VERTEX
  8
SILK_TOP_ART
 10
63.9245
 20
12.00
 30
0.00
  0
VERTEX
  8
SILK_TOP_ART
 10
63.6705
 20
12.00
 30
0.00
  0
SEQEND
  0
POLYLINE
  8
SILK_TOP_ART
 66
1
 10
0.00
 20
0.00
 30
0.00
 40
0.127
 41
0.127
  0
VERTEX
  8
SILK_TOP_ART
 10
63.3636
 20
11.6825
 30
0.00
  0
VERTEX
  8
SILK_TOP_ART
 10
63.2895
 20
11.5936
 30
0.00
  0
VERTEX
  8
SILK_TOP_ART
 10
63.226
 20
11.5428
 30
0.00
  0
VERTEX
  8
SILK_TOP_ART
 10
63.1413
 20
11.5174
 30
0.00
  0
VERTEX
  8
SILK_TOP_ART
 10
63.0672
 20
11.5428
 30
0.00
  0
VERTEX
  8
SILK_TOP_ART
 10
63.0143
 20
11.5936
 30
0.00
  0
VERTEX
  8
SILK_TOP_ART
 10
62.972
 20
11.6698
 30
0.00
  0
VERTEX
  8
SILK_TOP_ART
 10
62.9614
 20
11.7587
 30
0.00
  0
VERTEX
  8
SILK_TOP_ART
 10
62.972
 20
11.8349
 30
0.00
  0
VERTEX
  8
SILK_TOP_ART
 10
63.0143
 20
11.9111
 30
0.00
  0
VERTEX
  8
SILK_TOP_ART
 10
63.0778
 20
11.9746
 30
0.00
  0
VERTEX
  8
SILK_TOP_ART
 10
63.1519
 20
12.00
 30
0.00
  0
VERTEX
  8
SILK_TOP_ART
 10
63.2366
 20
11.9746
 30
0.00
  0
VERTEX
  8
SILK_TOP_ART
 10
63.3107
 20
11.8984
 30
0.00
  0
VERTEX
  8
SILK_TOP_ART
 10
63.353
 20
11.7841
 30
0.00
  0
VERTEX
  8
SILK_TOP_ART
 10
63.3636
 20
11.6571
 30
0.00
  0
VERTEX
  8
SILK_TOP_ART
 10
63.3424
 20
11.492
 30
0.00
  0
VERTEX
  8
SILK_TOP_ART
 10
63.3107
 20
11.4031
 30
0.00
  0
VERTEX
  8
SILK_TOP_ART
 10
63.2578
 20
11.3142
 30
0.00
  0
VERTEX
  8
SILK_TOP_ART
 10
63.1837
 20
11.2507
 30
0.00
  0
VERTEX
  8
SILK_TOP_ART
 10
63.1096
 20
11.238
 30
0.00
  0
VERTEX
  8
SILK_TOP_ART
 10
63.0355
 20
11.2634
 30
0.00
  0
VERTEX
  8
SILK_TOP_ART
 10
62.9826
 20
11.3269
 30
0.00
  0
SEQEND
  0
POLYLINE
  8
SILK_TOP_ART
 66
1
 10
0.00
 20
0.00
 30
0.00
 40
0.127
 41
0.127
  0
VERTEX
  8
SILK_TOP_ART
 10
71.8452
 20
4.3516
 30
0.00
  0
VERTEX
  8
SILK_TOP_ART
 10
71.9299
 20
4.2881
 30
0.00
  0
VERTEX
  8
SILK_TOP_ART
 10
72.0252
 20
4.25
 30
0.00
  0
VERTEX
  8
SILK_TOP_ART
 10
72.1098
 20
4.25
 30
0.00
  0
VERTEX
  8
SILK_TOP_ART
 10
72.1945
 20
4.2881
 30
0.00
  0
VERTEX
  8
SILK_TOP_ART
 10
72.258
 20
4.3516
 30
0.00
  0
VERTEX
  8
SILK_TOP_ART
 10
72.2898
 20
4.4405
 30
0.00
  0
VERTEX
  8
SILK_TOP_ART
 10
72.2686
 20
4.5294
 30
0.00
  0
VERTEX
  8
SILK_TOP_ART
 10
72.2157
 20
4.6056
 30
0.00
  0
VERTEX
  8
SILK_TOP_ART
 10
72.1204
 20
4.6564
 30
0.00
  0
VERTEX
  8
SILK_TOP_ART
 10
71.9934
 20
4.6818
 30
0.00
  0
VERTEX
  8
SILK_TOP_ART
 10
71.9193
 20
4.7326
 30
0.00
  0
VERTEX
  8
SILK_TOP_ART
 10
71.8876
 20
4.8215
 30
0.00
  0
VERTEX
  8
SILK_TOP_ART
 10
71.9088
 20
4.9104
 30
0.00
  0
VERTEX
  8
SILK_TOP_ART
 10
71.9617
 20
4.9739
 30
0.00
  0
VERTEX
  8
SILK_TOP_ART
 10
72.0357
 20
5.012
 30
0.00
  0
VERTEX
  8
SILK_TOP_ART
 10
72.1098
 20
5.012
 30
0.00
  0
VERTEX
  8
SILK_TOP_ART
 10
72.1839
 20
4.9866
 30
0.00
  0
VERTEX
  8
SILK_TOP_ART
 10
72.2474
 20
4.9231
 30
0.00
  0
SEQEND
  0
POLYLINE
  8
SILK_TOP_ART
 66
1
 10
0.00
 20
0.00
 30
0.00
 40
0.127
 41
0.127
  0
VERTEX
  8
SILK_TOP_ART
 10
72.5014
 20
4.885
 30
0.00
  0
VERTEX
  8
SILK_TOP_ART
 10
72.5649
 20
4.9612
 30
0.00
  0
VERTEX
  8
SILK_TOP_ART
 10
72.639
 20
4.9993
 30
0.00
  0
VERTEX
  8
SILK_TOP_ART
 10
72.7237
 20
5.012
 30
0.00
  0
VERTEX
  8
SILK_TOP_ART
 10
72.8295
 20
4.9866
 30
0.00
  0
VERTEX
  8
SILK_TOP_ART
 10
72.9036
 20
4.9231
 30
0.00
  0
VERTEX
  8
SILK_TOP_ART
 10
72.9248
 20
4.8469
 30
0.00
  0
VERTEX
  8
SILK_TOP_ART
 10
72.9142
 20
4.7707
 30
0.00
  0
VERTEX
  8
SILK_TOP_ART
 10
72.8718
 20
4.7072
 30
0.00
  0
VERTEX
  8
SILK_TOP_ART
 10
72.6602
 20
4.5802
 30
0.00
  0
VERTEX
  8
SILK_TOP_ART
 10
72.5649
 20
4.4913
 30
0.00
  0
VERTEX
  8
SILK_TOP_ART
 10
72.5014
 20
4.3643
 30
0.00
  0
VERTEX
  8
SILK_TOP_ART
 10
72.4802
 20
4.25
 30
0.00
  0
VERTEX
  8
SILK_TOP_ART
 10
72.9248
 20
4.25
 30
0.00
  0
SEQEND
  0
POLYLINE
  8
SILK_TOP_ART
 66
1
 10
0.00
 20
0.00
 30
0.00
 40
0.127
 41
0.127
  0
VERTEX
  8
SILK_TOP_ART
 10
65.6058
 20
7.00
 30
0.00
  0
VERTEX
  8
SILK_TOP_ART
 10
65.6058
 20
7.762
 30
0.00
  0
VERTEX
  8
SILK_TOP_ART
 10
65.8704
 20
7.762
 30
0.00
  0
VERTEX
  8
SILK_TOP_ART
 10
65.9551
 20
7.7239
 30
0.00
  0
VERTEX
  8
SILK_TOP_ART
 10
66.008
 20
7.6731
 30
0.00
  0
VERTEX
  8
SILK_TOP_ART
 10
66.0292
 20
7.5715
 30
0.00
  0
VERTEX
  8
SILK_TOP_ART
 10
66.008
 20
7.4699
 30
0.00
  0
VERTEX
  8
SILK_TOP_ART
 10
65.9445
 20
7.4064
 30
0.00
  0
VERTEX
  8
SILK_TOP_ART
 10
65.8704
 20
7.3683
 30
0.00
  0
VERTEX
  8
SILK_TOP_ART
 10
65.6058
 20
7.3683
 30
0.00
  0
SEQEND
  0
POLYLINE
  8
SILK_TOP_ART
 66
1
 10
0.00
 20
0.00
 30
0.00
 40
0.127
 41
0.127
  0
VERTEX
  8
SILK_TOP_ART
 10
65.8704
 20
7.3683
 30
0.00
  0
VERTEX
  8
SILK_TOP_ART
 10
66.0292
 20
7.00
 30
0.00
  0
SEQEND
  0
POLYLINE
  8
SILK_TOP_ART
 66
1
 10
0.00
 20
0.00
 30
0.00
 40
0.127
 41
0.127
  0
VERTEX
  8
SILK_TOP_ART
 10
66.4525
 20
7.00
 30
0.00
  0
VERTEX
  8
SILK_TOP_ART
 10
66.5266
 20
7.0127
 30
0.00
  0
VERTEX
  8
SILK_TOP_ART
 10
66.6112
 20
7.0508
 30
0.00
  0
VERTEX
  8
SILK_TOP_ART
 10
66.6642
 20
7.1143
 30
0.00
  0
VERTEX
  8
SILK_TOP_ART
 10
66.6853
 20
7.2032
 30
0.00
  0
VERTEX
  8
SILK_TOP_ART
 10
66.6642
 20
7.2921
 30
0.00
  0
VERTEX
  8
SILK_TOP_ART
 10
66.6007
 20
7.3683
 30
0.00
  0
VERTEX
  8
SILK_TOP_ART
 10
66.5054
 20
7.4064
 30
0.00
  0
VERTEX
  8
SILK_TOP_ART
 10
66.3996
 20
7.4064
 30
0.00
  0
VERTEX
  8
SILK_TOP_ART
 10
66.3361
 20
7.4318
 30
0.00
  0
VERTEX
  8
SILK_TOP_ART
 10
66.2832
 20
7.4953
 30
0.00
  0
VERTEX
  8
SILK_TOP_ART
 10
66.262
 20
7.5842
 30
0.00
  0
VERTEX
  8
SILK_TOP_ART
 10
66.2938
 20
7.6731
 30
0.00
  0
VERTEX
  8
SILK_TOP_ART
 10
66.3678
 20
7.7366
 30
0.00
  0
VERTEX
  8
SILK_TOP_ART
 10
66.4525
 20
7.762
 30
0.00
  0
VERTEX
  8
SILK_TOP_ART
 10
66.5372
 20
7.7366
 30
0.00
  0
VERTEX
  8
SILK_TOP_ART
 10
66.6112
 20
7.6731
 30
0.00
  0
VERTEX
  8
SILK_TOP_ART
 10
66.643
 20
7.5842
 30
0.00
  0
VERTEX
  8
SILK_TOP_ART
 10
66.6218
 20
7.4953
 30
0.00
  0
VERTEX
  8
SILK_TOP_ART
 10
66.5689
 20
7.4318
 30
0.00
  0
VERTEX
  8
SILK_TOP_ART
 10
66.5054
 20
7.4064
 30
0.00
  0
VERTEX
  8
SILK_TOP_ART
 10
66.3996
 20
7.4064
 30
0.00
  0
VERTEX
  8
SILK_TOP_ART
 10
66.3043
 20
7.3683
 30
0.00
  0
VERTEX
  8
SILK_TOP_ART
 10
66.2408
 20
7.2921
 30
0.00
  0
VERTEX
  8
SILK_TOP_ART
 10
66.2197
 20
7.2032
 30
0.00
  0
VERTEX
  8
SILK_TOP_ART
 10
66.2408
 20
7.1143
 30
0.00
  0
VERTEX
  8
SILK_TOP_ART
 10
66.2938
 20
7.0508
 30
0.00
  0
VERTEX
  8
SILK_TOP_ART
 10
66.3784
 20
7.0127
 30
0.00
  0
VERTEX
  8
SILK_TOP_ART
 10
66.4525
 20
7.00
 30
0.00
  0
SEQEND
  0
POLYLINE
  8
SILK_TOP_ART
 66
1
 10
0.00
 20
0.00
 30
0.00
 40
0.127
 41
0.127
  0
VERTEX
  8
SILK_TOP_ART
 10
67.4847
 20
9.662
 30
0.00
  0
VERTEX
  8
SILK_TOP_ART
 10
67.4847
 20
9.1159
 30
0.00
  0
VERTEX
  8
SILK_TOP_ART
 10
67.527
 20
9.0016
 30
0.00
  0
VERTEX
  8
SILK_TOP_ART
 10
67.6117
 20
8.9254
 30
0.00
  0
VERTEX
  8
SILK_TOP_ART
 10
67.7175
 20
8.90
 30
0.00
  0
VERTEX
  8
SILK_TOP_ART
 10
67.8233
 20
8.9254
 30
0.00
  0
VERTEX
  8
SILK_TOP_ART
 10
67.908
 20
9.0016
 30
0.00
  0
VERTEX
  8
SILK_TOP_ART
 10
67.9503
 20
9.1159
 30
0.00
  0
VERTEX
  8
SILK_TOP_ART
 10
67.9503
 20
9.662
 30
0.00
  0
SEQEND
  0
POLYLINE
  8
SILK_TOP_ART
 66
1
 10
0.00
 20
0.00
 30
0.00
 40
0.127
 41
0.127
  0
VERTEX
  8
SILK_TOP_ART
 10
68.3525
 20
8.90
 30
0.00
  0
VERTEX
  8
SILK_TOP_ART
 10
68.3525
 20
9.662
 30
0.00
  0
VERTEX
  8
SILK_TOP_ART
 10
68.2255
 20
9.5096
 30
0.00
  0
SEQEND
  0
POLYLINE
  8
SILK_TOP_ART
 66
1
 10
0.00
 20
0.00
 30
0.00
 40
0.127
 41
0.127
  0
VERTEX
  8
SILK_TOP_ART
 10
68.2255
 20
8.90
 30
0.00
  0
VERTEX
  8
SILK_TOP_ART
 10
68.4795
 20
8.90
 30
0.00
  0
SEQEND
  0
POLYLINE
  8
SILK_TOP_ART
 66
1
 10
0.00
 20
0.00
 30
0.00
 40
0.127
 41
0.127
  0
VERTEX
  8
SILK_TOP_ART
 10
72.8003
 20
9.1985
 30
0.00
  0
VERTEX
  8
SILK_TOP_ART
 10
72.7368
 20
9.2366
 30
0.00
  0
VERTEX
  8
SILK_TOP_ART
 10
72.6628
 20
9.262
 30
0.00
  0
VERTEX
  8
SILK_TOP_ART
 10
72.5781
 20
9.262
 30
0.00
  0
VERTEX
  8
SILK_TOP_ART
 10
72.4828
 20
9.2239
 30
0.00
  0
VERTEX
  8
SILK_TOP_ART
 10
72.4088
 20
9.1604
 30
0.00
  0
VERTEX
  8
SILK_TOP_ART
 10
72.3558
 20
9.0842
 30
0.00
  0
VERTEX
  8
SILK_TOP_ART
 10
72.3135
 20
8.9572
 30
0.00
  0
VERTEX
  8
SILK_TOP_ART
 10
72.3029
 20
8.8429
 30
0.00
  0
VERTEX
  8
SILK_TOP_ART
 10
72.3241
 20
8.7286
 30
0.00
  0
VERTEX
  8
SILK_TOP_ART
 10
72.3558
 20
8.6524
 30
0.00
  0
VERTEX
  8
SILK_TOP_ART
 10
72.4193
 20
8.5762
 30
0.00
  0
VERTEX
  8
SILK_TOP_ART
 10
72.4934
 20
8.5254
 30
0.00
  0
VERTEX
  8
SILK_TOP_ART
 10
72.5675
 20
8.50
 30
0.00
  0
VERTEX
  8
SILK_TOP_ART
 10
72.6416
 20
8.50
 30
0.00
  0
VERTEX
  8
SILK_TOP_ART
 10
72.7157
 20
8.5254
 30
0.00
  0
VERTEX
  8
SILK_TOP_ART
 10
72.7792
 20
8.5635
 30
0.00
  0
VERTEX
  8
SILK_TOP_ART
 10
72.8321
 20
8.6143
 30
0.00
  0
SEQEND
  0
POLYLINE
  8
SILK_TOP_ART
 66
1
 10
0.00
 20
0.00
 30
0.00
 40
0.127
 41
0.127
  0
VERTEX
  8
SILK_TOP_ART
 10
73.0226
 20
8.5889
 30
0.00
  0
VERTEX
  8
SILK_TOP_ART
 10
73.0967
 20
8.5254
 30
0.00
  0
VERTEX
  8
SILK_TOP_ART
 10
73.1813
 20
8.50
 30
0.00
  0
VERTEX
  8
SILK_TOP_ART
 10
73.266
 20
8.5254
 30
0.00
  0
VERTEX
  8
SILK_TOP_ART
 10
73.3401
 20
8.6016
 30
0.00
  0
VERTEX
  8
SILK_TOP_ART
 10
73.393
 20
8.7159
 30
0.00
  0
VERTEX
  8
SILK_TOP_ART
 10
73.4142
 20
8.8302
 30
0.00
  0
VERTEX
  8
SILK_TOP_ART
 10
73.4142
 20
8.9699
 30
0.00
  0
VERTEX
  8
SILK_TOP_ART
 10
73.393
 20
9.0842
 30
0.00
  0
VERTEX
  8
SILK_TOP_ART
 10
73.3401
 20
9.1858
 30
0.00
  0
VERTEX
  8
SILK_TOP_ART
 10
73.2766
 20
9.2366
 30
0.00
  0
VERTEX
  8
SILK_TOP_ART
 10
73.2025
 20
9.262
 30
0.00
  0
VERTEX
  8
SILK_TOP_ART
 10
73.1178
 20
9.2366
 30
0.00
  0
VERTEX
  8
SILK_TOP_ART
 10
73.0543
 20
9.1858
 30
0.00
  0
VERTEX
  8
SILK_TOP_ART
 10
73.012
 20
9.1096
 30
0.00
  0
VERTEX
  8
SILK_TOP_ART
 10
72.9908
 20
9.008
 30
0.00
  0
VERTEX
  8
SILK_TOP_ART
 10
73.012
 20
8.9191
 30
0.00
  0
VERTEX
  8
SILK_TOP_ART
 10
73.0649
 20
8.8302
 30
0.00
  0
VERTEX
  8
SILK_TOP_ART
 10
73.1284
 20
8.7794
 30
0.00
  0
VERTEX
  8
SILK_TOP_ART
 10
73.2025
 20
8.7667
 30
0.00
  0
VERTEX
  8
SILK_TOP_ART
 10
73.2872
 20
8.7921
 30
0.00
  0
VERTEX
  8
SILK_TOP_ART
 10
73.3507
 20
8.8556
 30
0.00
  0
VERTEX
  8
SILK_TOP_ART
 10
73.4142
 20
8.9699
 30
0.00
  0
SEQEND
  0
POLYLINE
  8
SILK_TOP_ART
 66
1
 10
0.00
 20
0.00
 30
0.00
 40
0.127
 41
0.127
  0
VERTEX
  8
SILK_TOP_ART
 10
67.0515
 20
10.8003
 30
0.00
  0
VERTEX
  8
SILK_TOP_ART
 10
67.0134
 20
10.7368
 30
0.00
  0
VERTEX
  8
SILK_TOP_ART
 10
66.988
 20
10.6628
 30
0.00
  0
VERTEX
  8
SILK_TOP_ART
 10
66.988
 20
10.5781
 30
0.00
  0
VERTEX
  8
SILK_TOP_ART
 10
67.0261
 20
10.4828
 30
0.00
  0
VERTEX
  8
SILK_TOP_ART
 10
67.0896
 20
10.4088
 30
0.00
  0
VERTEX
  8
SILK_TOP_ART
 10
67.1658
 20
10.3558
 30
0.00
  0
VERTEX
  8
SILK_TOP_ART
 10
67.2928
 20
10.3135
 30
0.00
  0
VERTEX
  8
SILK_TOP_ART
 10
67.4071
 20
10.3029
 30
0.00
  0
VERTEX
  8
SILK_TOP_ART
 10
67.5214
 20
10.3241
 30
0.00
  0
VERTEX
  8
SILK_TOP_ART
 10
67.5976
 20
10.3558
 30
0.00
  0
VERTEX
  8
SILK_TOP_ART
 10
67.6738
 20
10.4193
 30
0.00
  0
VERTEX
  8
SILK_TOP_ART
 10
67.7246
 20
10.4934
 30
0.00
  0
VERTEX
  8
SILK_TOP_ART
 10
67.75
 20
10.5675
 30
0.00
  0
VERTEX
  8
SILK_TOP_ART
 10
67.75
 20
10.6416
 30
0.00
  0
VERTEX
  8
SILK_TOP_ART
 10
67.7246
 20
10.7157
 30
0.00
  0
VERTEX
  8
SILK_TOP_ART
 10
67.6865
 20
10.7792
 30
0.00
  0
VERTEX
  8
SILK_TOP_ART
 10
67.6357
 20
10.8321
 30
0.00
  0
SEQEND
  0
POLYLINE
  8
SILK_TOP_ART
 66
1
 10
0.00
 20
0.00
 30
0.00
 40
0.127
 41
0.127
  0
VERTEX
  8
SILK_TOP_ART
 10
67.75
 20
11.2025
 30
0.00
  0
VERTEX
  8
SILK_TOP_ART
 10
66.988
 20
11.2025
 30
0.00
  0
VERTEX
  8
SILK_TOP_ART
 10
67.1404
 20
11.0755
 30
0.00
  0
SEQEND
  0
POLYLINE
  8
SILK_TOP_ART
 66
1
 10
0.00
 20
0.00
 30
0.00
 40
0.127
 41
0.127
  0
VERTEX
  8
SILK_TOP_ART
 10
67.75
 20
11.0755
 30
0.00
  0
VERTEX
  8
SILK_TOP_ART
 10
67.75
 20
11.3295
 30
0.00
  0
SEQEND
  0
POLYLINE
  8
SILK_TOP_ART
 66
1
 10
0.00
 20
0.00
 30
0.00
 40
0.127
 41
0.127
  0
VERTEX
  8
SILK_TOP_ART
 10
67.6357
 20
11.6047
 30
0.00
  0
VERTEX
  8
SILK_TOP_ART
 10
67.6992
 20
11.6682
 30
0.00
  0
VERTEX
  8
SILK_TOP_ART
 10
67.7373
 20
11.7422
 30
0.00
  0
VERTEX
  8
SILK_TOP_ART
 10
67.75
 20
11.8375
 30
0.00
  0
VERTEX
  8
SILK_TOP_ART
 10
67.7246
 20
11.9328
 30
0.00
  0
VERTEX
  8
SILK_TOP_ART
 10
67.6738
 20
12.0068
 30
0.00
  0
VERTEX
  8
SILK_TOP_ART
 10
67.5849
 20
12.0598
 30
0.00
  0
VERTEX
  8
SILK_TOP_ART
 10
67.4833
 20
12.0703
 30
0.00
  0
VERTEX
  8
SILK_TOP_ART
 10
67.3817
 20
12.0492
 30
0.00
  0
VERTEX
  8
SILK_TOP_ART
 10
67.3182
 20
11.9962
 30
0.00
  0
VERTEX
  8
SILK_TOP_ART
 10
67.2674
 20
11.9222
 30
0.00
  0
VERTEX
  8
SILK_TOP_ART
 10
67.2547
 20
11.8481
 30
0.00
  0
VERTEX
  8
SILK_TOP_ART
 10
67.2674
 20
11.774
 30
0.00
  0
VERTEX
  8
SILK_TOP_ART
 10
67.3182
 20
11.6788
 30
0.00
  0
VERTEX
  8
SILK_TOP_ART
 10
66.988
 20
11.7105
 30
0.00
  0
VERTEX
  8
SILK_TOP_ART
 10
66.988
 20
11.9962
 30
0.00
  0
SEQEND
  0
POLYLINE
  8
SILK_TOP_ART
 66
1
 10
0.00
 20
0.00
 30
0.00
 40
0.127
 41
0.127
  0
VERTEX
  8
SILK_TOP_ART
 10
66.0515
 20
10.8003
 30
0.00
  0
VERTEX
  8
SILK_TOP_ART
 10
66.0134
 20
10.7368
 30
0.00
  0
VERTEX
  8
SILK_TOP_ART
 10
65.988
 20
10.6628
 30
0.00
  0
VERTEX
  8
SILK_TOP_ART
 10
65.988
 20
10.5781
 30
0.00
  0
VERTEX
  8
SILK_TOP_ART
 10
66.0261
 20
10.4828
 30
0.00
  0
VERTEX
  8
SILK_TOP_ART
 10
66.0896
 20
10.4088
 30
0.00
  0
VERTEX
  8
SILK_TOP_ART
 10
66.1658
 20
10.3558
 30
0.00
  0
VERTEX
  8
SILK_TOP_ART
 10
66.2928
 20
10.3135
 30
0.00
  0
VERTEX
  8
SILK_TOP_ART
 10
66.4071
 20
10.3029
 30
0.00
  0
VERTEX
  8
SILK_TOP_ART
 10
66.5214
 20
10.3241
 30
0.00
  0
VERTEX
  8
SILK_TOP_ART
 10
66.5976
 20
10.3558
 30
0.00
  0
VERTEX
  8
SILK_TOP_ART
 10
66.6738
 20
10.4193
 30
0.00
  0
VERTEX
  8
SILK_TOP_ART
 10
66.7246
 20
10.4934
 30
0.00
  0
VERTEX
  8
SILK_TOP_ART
 10
66.75
 20
10.5675
 30
0.00
  0
VERTEX
  8
SILK_TOP_ART
 10
66.75
 20
10.6416
 30
0.00
  0
VERTEX
  8
SILK_TOP_ART
 10
66.7246
 20
10.7157
 30
0.00
  0
VERTEX
  8
SILK_TOP_ART
 10
66.6865
 20
10.7792
 30
0.00
  0
VERTEX
  8
SILK_TOP_ART
 10
66.6357
 20
10.8321
 30
0.00
  0
SEQEND
  0
POLYLINE
  8
SILK_TOP_ART
 66
1
 10
0.00
 20
0.00
 30
0.00
 40
0.127
 41
0.127
  0
VERTEX
  8
SILK_TOP_ART
 10
66.75
 20
11.2025
 30
0.00
  0
VERTEX
  8
SILK_TOP_ART
 10
65.988
 20
11.2025
 30
0.00
  0
VERTEX
  8
SILK_TOP_ART
 10
66.1404
 20
11.0755
 30
0.00
  0
SEQEND
  0
POLYLINE
  8
SILK_TOP_ART
 66
1
 10
0.00
 20
0.00
 30
0.00
 40
0.127
 41
0.127
  0
VERTEX
  8
SILK_TOP_ART
 10
66.75
 20
11.0755
 30
0.00
  0
VERTEX
  8
SILK_TOP_ART
 10
66.75
 20
11.3295
 30
0.00
  0
SEQEND
  0
POLYLINE
  8
SILK_TOP_ART
 66
1
 10
0.00
 20
0.00
 30
0.00
 40
0.127
 41
0.127
  0
VERTEX
  8
SILK_TOP_ART
 10
66.75
 20
11.9645
 30
0.00
  0
VERTEX
  8
SILK_TOP_ART
 10
65.988
 20
11.9645
 30
0.00
  0
VERTEX
  8
SILK_TOP_ART
 10
66.5341
 20
11.5729
 30
0.00
  0
VERTEX
  8
SILK_TOP_ART
 10
66.5341
 20
12.1021
 30
0.00
  0
SEQEND
  0
POLYLINE
  8
SILK_TOP_ART
 66
1
 10
0.00
 20
0.00
 30
0.00
 40
0.127
 41
0.127
  0
VERTEX
  8
SILK_TOP_ART
 10
74.3347
 20
10.012
 30
0.00
  0
VERTEX
  8
SILK_TOP_ART
 10
74.3347
 20
9.4659
 30
0.00
  0
VERTEX
  8
SILK_TOP_ART
 10
74.377
 20
9.3516
 30
0.00
  0
VERTEX
  8
SILK_TOP_ART
 10
74.4617
 20
9.2754
 30
0.00
  0
VERTEX
  8
SILK_TOP_ART
 10
74.5675
 20
9.25
 30
0.00
  0
VERTEX
  8
SILK_TOP_ART
 10
74.6733
 20
9.2754
 30
0.00
  0
VERTEX
  8
SILK_TOP_ART
 10
74.758
 20
9.3516
 30
0.00
  0
VERTEX
  8
SILK_TOP_ART
 10
74.8003
 20
9.4659
 30
0.00
  0
VERTEX
  8
SILK_TOP_ART
 10
74.8003
 20
10.012
 30
0.00
  0
SEQEND
  0
POLYLINE
  8
SILK_TOP_ART
 66
1
 10
0.00
 20
0.00
 30
0.00
 40
0.127
 41
0.127
  0
VERTEX
  8
SILK_TOP_ART
 10
74.9697
 20
9.3643
 30
0.00
  0
VERTEX
  8
SILK_TOP_ART
 10
75.0332
 20
9.3008
 30
0.00
  0
VERTEX
  8
SILK_TOP_ART
 10
75.1072
 20
9.2627
 30
0.00
  0
VERTEX
  8
SILK_TOP_ART
 10
75.2025
 20
9.25
 30
0.00
  0
VERTEX
  8
SILK_TOP_ART
 10
75.2978
 20
9.2754
 30
0.00
  0
VERTEX
  8
SILK_TOP_ART
 10
75.3718
 20
9.3262
 30
0.00
  0
VERTEX
  8
SILK_TOP_ART
 10
75.4248
 20
9.4151
 30
0.00
  0
VERTEX
  8
SILK_TOP_ART
 10
75.4353
 20
9.5167
 30
0.00
  0
VERTEX
  8
SILK_TOP_ART
 10
75.4142
 20
9.6183
 30
0.00
  0
VERTEX
  8
SILK_TOP_ART
 10
75.3612
 20
9.6818
 30
0.00
  0
VERTEX
  8
SILK_TOP_ART
 10
75.2872
 20
9.7326
 30
0.00
  0
VERTEX
  8
SILK_TOP_ART
 10
75.2131
 20
9.7453
 30
0.00
  0
VERTEX
  8
SILK_TOP_ART
 10
75.139
 20
9.7326
 30
0.00
  0
VERTEX
  8
SILK_TOP_ART
 10
75.0438
 20
9.6818
 30
0.00
  0
VERTEX
  8
SILK_TOP_ART
 10
75.0755
 20
10.012
 30
0.00
  0
VERTEX
  8
SILK_TOP_ART
 10
75.3612
 20
10.012
 30
0.00
  0
SEQEND
  0
POLYLINE
  8
SILK_TOP_ART
 66
1
 10
0.00
 20
0.00
 30
0.00
 40
0.127
 41
0.127
  0
VERTEX
  8
SILK_TOP_ART
 10
87.4452
 20
8.7016
 30
0.00
  0
VERTEX
  8
SILK_TOP_ART
 10
87.5299
 20
8.6381
 30
0.00
  0
VERTEX
  8
SILK_TOP_ART
 10
87.6252
 20
8.60
 30
0.00
  0
VERTEX
  8
SILK_TOP_ART
 10
87.7098
 20
8.60
 30
0.00
  0
VERTEX
  8
SILK_TOP_ART
 10
87.7945
 20
8.6381
 30
0.00
  0
VERTEX
  8
SILK_TOP_ART
 10
87.858
 20
8.7016
 30
0.00
  0
VERTEX
  8
SILK_TOP_ART
 10
87.8898
 20
8.7905
 30
0.00
  0
VERTEX
  8
SILK_TOP_ART
 10
87.8686
 20
8.8794
 30
0.00
  0
VERTEX
  8
SILK_TOP_ART
 10
87.8157
 20
8.9556
 30
0.00
  0
VERTEX
  8
SILK_TOP_ART
 10
87.7204
 20
9.0064
 30
0.00
  0
VERTEX
  8
SILK_TOP_ART
 10
87.5934
 20
9.0318
 30
0.00
  0
VERTEX
  8
SILK_TOP_ART
 10
87.5193
 20
9.0826
 30
0.00
  0
VERTEX
  8
SILK_TOP_ART
 10
87.4876
 20
9.1715
 30
0.00
  0
VERTEX
  8
SILK_TOP_ART
 10
87.5088
 20
9.2604
 30
0.00
  0
VERTEX
  8
SILK_TOP_ART
 10
87.5617
 20
9.3239
 30
0.00
  0
VERTEX
  8
SILK_TOP_ART
 10
87.6357
 20
9.362
 30
0.00
  0
VERTEX
  8
SILK_TOP_ART
 10
87.7098
 20
9.362
 30
0.00
  0
VERTEX
  8
SILK_TOP_ART
 10
87.7839
 20
9.3366
 30
0.00
  0
VERTEX
  8
SILK_TOP_ART
 10
87.8474
 20
9.2731
 30
0.00
  0
SEQEND
  0
POLYLINE
  8
SILK_TOP_ART
 66
1
 10
0.00
 20
0.00
 30
0.00
 40
0.127
 41
0.127
  0
VERTEX
  8
SILK_TOP_ART
 10
88.3025
 20
8.60
 30
0.00
  0
VERTEX
  8
SILK_TOP_ART
 10
88.3025
 20
9.362
 30
0.00
  0
VERTEX
  8
SILK_TOP_ART
 10
88.1755
 20
9.2096
 30
0.00
  0
SEQEND
  0
POLYLINE
  8
SILK_TOP_ART
 66
1
 10
0.00
 20
0.00
 30
0.00
 40
0.127
 41
0.127
  0
VERTEX
  8
SILK_TOP_ART
 10
88.1755
 20
8.60
 30
0.00
  0
VERTEX
  8
SILK_TOP_ART
 10
88.4295
 20
8.60
 30
0.00
  0
SEQEND
  0
POLYLINE
  8
SILK_TOP_ART
 66
1
 10
0.00
 20
0.00
 30
0.00
 40
0.254
 41
0.254
  0
VERTEX
  8
SILK_TOP_ART
 10
63.50
 20
6.50
 30
0.00
  0
VERTEX
  8
SILK_TOP_ART
 10
62.50
 20
6.50
 30
0.00
  0
VERTEX
  8
SILK_TOP_ART
 10
62.50
 20
7.50
 30
0.00
  0
SEQEND
  0
POLYLINE
  8
SILK_TOP_ART
 66
1
 10
0.00
 20
0.00
 30
0.00
 40
0.254
 41
0.254
  0
VERTEX
  8
SILK_TOP_ART
 10
63.50
 20
12.50
 30
0.00
  0
VERTEX
  8
SILK_TOP_ART
 10
62.50
 20
12.50
 30
0.00
  0
VERTEX
  8
SILK_TOP_ART
 10
62.50
 20
11.50
 30
0.00
  0
SEQEND
  0
POLYLINE
  8
SILK_TOP_ART
 66
1
 10
0.00
 20
0.00
 30
0.00
 40
0.254
 41
0.254
  0
VERTEX
  8
SILK_TOP_ART
 10
68.50
 20
7.50
 30
0.00
  0
VERTEX
  8
SILK_TOP_ART
 10
68.50
 20
6.50
 30
0.00
  0
VERTEX
  8
SILK_TOP_ART
 10
67.50
 20
6.50
 30
0.00
  0
SEQEND
  0
POLYLINE
  8
SILK_TOP_ART
 66
1
 10
0.00
 20
0.00
 30
0.00
 40
0.254
 41
0.254
  0
VERTEX
  8
SILK_TOP_ART
 10
69.00
 20
14.1464
 30
0.00
 42
0.4142136
  0
VERTEX
  8
SILK_TOP_ART
 10
69.3536
 20
14.50
 30
0.00
 42
0.00
  0
SEQEND
  0
POLYLINE
  8
SILK_TOP_ART
 66
1
 10
0.00
 20
0.00
 30
0.00
 40
0.254
 41
0.254
  0
VERTEX
  8
SILK_TOP_ART
 10
68.6464
 20
14.50
 30
0.00
 42
0.4142136
  0
VERTEX
  8
SILK_TOP_ART
 10
69.00
 20
14.1464
 30
0.00
 42
0.00
  0
SEQEND
  0
POLYLINE
  8
SILK_TOP_ART
 66
1
 10
0.00
 20
0.00
 30
0.00
 40
0.254
 41
0.254
  0
VERTEX
  8
SILK_TOP_ART
 10
69.00
 20
14.8536
 30
0.00
 42
0.4142136
  0
VERTEX
  8
SILK_TOP_ART
 10
68.6464
 20
14.50
 30
0.00
 42
0.00
  0
SEQEND
  0
POLYLINE
  8
SILK_TOP_ART
 66
1
 10
0.00
 20
0.00
 30
0.00
 40
0.254
 41
0.254
  0
VERTEX
  8
SILK_TOP_ART
 10
69.3536
 20
14.50
 30
0.00
 42
0.4142136
  0
VERTEX
  8
SILK_TOP_ART
 10
69.00
 20
14.8536
 30
0.00
 42
0.00
  0
SEQEND
  0
POLYLINE
  8
SILK_TOP_ART
 66
1
 10
0.00
 20
0.00
 30
0.00
 40
0.254
 41
0.254
  0
VERTEX
  8
SILK_TOP_ART
 10
68.50
 20
11.50
 30
0.00
  0
VERTEX
  8
SILK_TOP_ART
 10
68.50
 20
12.00
 30
0.00
  0
VERTEX
  8
SILK_TOP_ART
 10
68.00
 20
12.50
 30
0.00
  0
VERTEX
  8
SILK_TOP_ART
 10
67.50
 20
12.50
 30
0.00
  0
SEQEND
  0
POLYLINE
  8
SILK_TOP_ART
 66
1
 10
0.00
 20
0.00
 30
0.00
 40
0.254
 41
0.254
  0
VERTEX
  8
SILK_TOP_ART
 10
83.2491
 20
3.0005
 30
0.00
  0
VERTEX
  8
SILK_TOP_ART
 10
82.7487
 20
3.0005
 30
0.00
  0
VERTEX
  8
SILK_TOP_ART
 10
82.7487
 20
6.5006
 30
0.00
  0
SEQEND
  0
POLYLINE
  8
SILK_TOP_ART
 66
1
 10
0.00
 20
0.00
 30
0.00
 70
1
 40
0.254
 41
0.254
  0
VERTEX
  8
SILK_TOP_ART
 10
85.51447
 20
9.00
 30
0.00
 42
1
  0
VERTEX
  8
SILK_TOP_ART
 10
89.98553
 20
9.00
 30
0.00
 42
1
  0
SEQEND
  0
POLYLINE
  8
SILK_TOP_ART
 66
1
 10
0.00
 20
0.00
 30
0.00
 40
0.254
 41
0.254
  0
VERTEX
  8
SILK_TOP_ART
 10
83.2491
 20
15.4999
 30
0.00
  0
VERTEX
  8
SILK_TOP_ART
 10
82.7487
 20
15.4999
 30
0.00
  0
VERTEX
  8
SILK_TOP_ART
 10
82.7487
 20
11.4994
 30
0.00
  0
SEQEND
  0
POLYLINE
  8
SILK_TOP_ART
 66
1
 10
0.00
 20
0.00
 30
0.00
 40
0.254
 41
0.254
  0
VERTEX
  8
SILK_TOP_ART
 10
92.2509
 20
3.0005
 30
0.00
  0
VERTEX
  8
SILK_TOP_ART
 10
92.7513
 20
3.0005
 30
0.00
  0
VERTEX
  8
SILK_TOP_ART
 10
92.7513
 20
6.5006
 30
0.00
  0
SEQEND
  0
POLYLINE
  8
SILK_TOP_ART
 66
1
 10
0.00
 20
0.00
 30
0.00
 40
0.254
 41
0.254
  0
VERTEX
  8
SILK_TOP_ART
 10
92.2509
 20
15.4999
 30
0.00
  0
VERTEX
  8
SILK_TOP_ART
 10
92.7513
 20
15.4999
 30
0.00
  0
VERTEX
  8
SILK_TOP_ART
 10
92.7513
 20
11.4994
 30
0.00
  0
SEQEND
  0
INSERT
  2
ROUND_45
  8
ESSC-1-2_DRL
 10
64.50
 20
4.00
 30
0.00
 41
1.00
 42
1.00
 50
0.00
  0
INSERT
  2
ROUND_45
  8
ESSC-1-2_DRL
 10
29.50
 20
12.00
 30
0.00
 41
1.00
 42
1.00
 50
0.00
  0
INSERT
  2
ROUND_45
  8
ESSC-1-2_DRL
 10
56.00
 20
5.00
 30
0.00
 41
1.00
 42
1.00
 50
0.00
  0
INSERT
  2
ROUND_45
  8
ESSC-1-2_DRL
 10
57.50
 20
2.30
 30
0.00
 41
1.00
 42
1.00
 50
0.00
  0
INSERT
  2
ROUND_45
  8
ESSC-1-2_DRL
 10
55.00
 20
2.30
 30
0.00
 41
1.00
 42
1.00
 50
0.00
  0
INSERT
  2
ROUND_46
  8
ESSC-1-2_DRL
 10
18.00
 20
12.30
 30
0.00
 41
1.00
 42
1.00
 50
0.00
  0
INSERT
  2
ROUND_46
  8
ESSC-1-2_DRL
 10
17.40
 20
13.60
 30
0.00
 41
1.00
 42
1.00
 50
0.00
  0
INSERT
  2
ROUND_46
  8
ESSC-1-2_DRL
 10
19.25
 20
13.75
 30
0.00
 41
1.00
 42
1.00
 50
0.00
  0
INSERT
  2
ROUND_46
  8
ESSC-1-2_DRL
 10
19.25
 20
15.75
 30
0.00
 41
1.00
 42
1.00
 50
0.00
  0
INSERT
  2
ROUND_46
  8
ESSC-1-2_DRL
 10
17.75
 20
15.75
 30
0.00
 41
1.00
 42
1.00
 50
0.00
  0
INSERT
  2
ROUND_47
  8
ESSC-1-2_DRL
 10
72.90
 20
10.5101
 30
0.00
 41
1.00
 42
1.00
 50
0.00
  0
INSERT
  2
ROUND_47
  8
ESSC-1-2_DRL
 10
76.20
 20
12.25
 30
0.00
 41
1.00
 42
1.00
 50
0.00
  0
INSERT
  2
ROUND_47
  8
ESSC-1-2_DRL
 10
63.00
 20
12.3634
 30
0.00
 41
1.00
 42
1.00
 50
0.00
  0
INSERT
  2
ROUND_47
  8
ESSC-1-2_DRL
 10
59.40
 20
12.80
 30
0.00
 41
1.00
 42
1.00
 50
0.00
  0
INSERT
  2
ROUND_47
  8
ESSC-1-2_DRL
 10
65.8323
 20
15.3474
 30
0.00
 41
1.00
 42
1.00
 50
0.00
  0
INSERT
  2
ROUND_47
  8
ESSC-1-2_DRL
 10
59.68
 20
16.48
 30
0.00
 41
1.00
 42
1.00
 50
0.00
  0
INSERT
  2
ROUND_47
  8
ESSC-1-2_DRL
 10
24.50
 20
1.40
 30
0.00
 41
1.00
 42
1.00
 50
0.00
  0
INSERT
  2
ROUND_47
  8
ESSC-1-2_DRL
 10
58.4301
 20
6.00
 30
0.00
 41
1.00
 42
1.00
 50
0.00
  0
INSERT
  2
ROUND_47
  8
ESSC-1-2_DRL
 10
17.50
 20
10.35
 30
0.00
 41
1.00
 42
1.00
 50
0.00
  0
INSERT
  2
ROUND_47
  8
ESSC-1-2_DRL
 10
19.40
 20
8.80
 30
0.00
 41
1.00
 42
1.00
 50
0.00
  0
INSERT
  2
ROUND_47
  8
ESSC-1-2_DRL
 10
20.30
 20
7.70
 30
0.00
 41
1.00
 42
1.00
 50
0.00
  0
INSERT
  2
ROUND_47
  8
ESSC-1-2_DRL
 10
18.30
 20
9.05
 30
0.00
 41
1.00
 42
1.00
 50
0.00
  0
INSERT
  2
ROUND_47
  8
ESSC-1-2_DRL
 10
18.60
 20
10.50
 30
0.00
 41
1.00
 42
1.00
 50
0.00
  0
INSERT
  2
ROUND_47
  8
ESSC-1-2_DRL
 10
68.0366
 20
12.4191
 30
0.00
 41
1.00
 42
1.00
 50
0.00
  0
INSERT
  2
ROUND_47
  8
ESSC-1-2_DRL
 10
64.10
 20
6.50
 30
0.00
 41
1.00
 42
1.00
 50
0.00
  0
INSERT
  2
ROUND_47
  8
ESSC-1-2_DRL
 10
67.2365
 20
12.3992
 30
0.00
 41
1.00
 42
1.00
 50
0.00
  0
INSERT
  2
ROUND_47
  8
ESSC-1-2_DRL
 10
67.30
 20
8.50
 30
0.00
 41
1.00
 42
1.00
 50
0.00
  0
INSERT
  2
ROUND_47
  8
ESSC-1-2_DRL
 10
66.80
 20
6.50
 30
0.00
 41
1.00
 42
1.00
 50
0.00
  0
INSERT
  2
ROUND_47
  8
ESSC-1-2_DRL
 10
70.75
 20
6.50
 30
0.00
 41
1.00
 42
1.00
 50
0.00
  0
INSERT
  2
ROUND_47
  8
ESSC-1-2_DRL
 10
60.35
 20
5.90
 30
0.00
 41
1.00
 42
1.00
 50
0.00
  0
INSERT
  2
ROUND_47
  8
ESSC-1-2_DRL
 10
58.00
 20
15.60
 30
0.00
 41
1.00
 42
1.00
 50
0.00
  0
INSERT
  2
ROUND_47
  8
ESSC-1-2_DRL
 10
71.55
 20
9.40
 30
0.00
 41
1.00
 42
1.00
 50
0.00
  0
INSERT
  2
ROUND_47
  8
ESSC-1-2_DRL
 10
70.0699
 20
4.0071
 30
0.00
 41
1.00
 42
1.00
 50
0.00
  0
INSERT
  2
ROUND_47
  8
ESSC-1-2_DRL
 10
74.09
 20
9.40
 30
0.00
 41
1.00
 42
1.00
 50
0.00
  0
INSERT
  2
ROUND_47
  8
ESSC-1-2_DRL
 10
72.6321
 20
3.115
 30
0.00
 41
1.00
 42
1.00
 50
0.00
  0
INSERT
  2
ROUND_47
  8
ESSC-1-2_DRL
 10
16.50
 20
5.25
 30
0.00
 41
1.00
 42
1.00
 50
0.00
  0
INSERT
  2
ROUND_47
  8
ESSC-1-2_DRL
 10
15.75
 20
5.25
 30
0.00
 41
1.00
 42
1.00
 50
0.00
  0
INSERT
  2
ROUND_47
  8
ESSC-1-2_DRL
 10
15.00
 20
5.25
 30
0.00
 41
1.00
 42
1.00
 50
0.00
  0
INSERT
  2
ROUND_47
  8
ESSC-1-2_DRL
 10
34.75
 20
3.10
 30
0.00
 41
1.00
 42
1.00
 50
0.00
  0
INSERT
  2
ROUND_47
  8
ESSC-1-2_DRL
 10
34.75
 20
4.25
 30
0.00
 41
1.00
 42
1.00
 50
0.00
  0
INSERT
  2
ROUND_47
  8
ESSC-1-2_DRL
 10
42.25
 20
3.10
 30
0.00
 41
1.00
 42
1.00
 50
0.00
  0
INSERT
  2
ROUND_47
  8
ESSC-1-2_DRL
 10
40.00
 20
3.10
 30
0.00
 41
1.00
 42
1.00
 50
0.00
  0
INSERT
  2
ROUND_47
  8
ESSC-1-2_DRL
 10
37.25
 20
3.10
 30
0.00
 41
1.00
 42
1.00
 50
0.00
  0
INSERT
  2
ROUND_47
  8
ESSC-1-2_DRL
 10
37.25
 20
4.25
 30
0.00
 41
1.00
 42
1.00
 50
0.00
  0
INSERT
  2
ROUND_47
  8
ESSC-1-2_DRL
 10
40.00
 20
4.25
 30
0.00
 41
1.00
 42
1.00
 50
0.00
  0
INSERT
  2
ROUND_47
  8
ESSC-1-2_DRL
 10
42.25
 20
4.25
 30
0.00
 41
1.00
 42
1.00
 50
0.00
  0
INSERT
  2
ROUND_47
  8
ESSC-1-2_DRL
 10
53.75
 20
3.10
 30
0.00
 41
1.00
 42
1.00
 50
0.00
  0
INSERT
  2
ROUND_47
  8
ESSC-1-2_DRL
 10
52.75
 20
3.10
 30
0.00
 41
1.00
 42
1.00
 50
0.00
  0
INSERT
  2
ROUND_47
  8
ESSC-1-2_DRL
 10
52.75
 20
4.25
 30
0.00
 41
1.00
 42
1.00
 50
0.00
  0
INSERT
  2
ROUND_47
  8
ESSC-1-2_DRL
 10
53.75
 20
4.25
 30
0.00
 41
1.00
 42
1.00
 50
0.00
  0
INSERT
  2
ROUND_47
  8
ESSC-1-2_DRL
 10
60.35
 20
4.45
 30
0.00
 41
1.00
 42
1.00
 50
0.00
  0
INSERT
  2
ROUND_47
  8
ESSC-1-2_DRL
 10
11.75
 20
13.50
 30
0.00
 41
1.00
 42
1.00
 50
0.00
  0
INSERT
  2
ROUND_47
  8
ESSC-1-2_DRL
 10
21.00
 20
13.75
 30
0.00
 41
1.00
 42
1.00
 50
0.00
  0
INSERT
  2
ROUND_47
  8
ESSC-1-2_DRL
 10
21.00
 20
13.00
 30
0.00
 41
1.00
 42
1.00
 50
0.00
  0
INSERT
  2
ROUND_47
  8
ESSC-1-2_DRL
 10
21.00
 20
12.25
 30
0.00
 41
1.00
 42
1.00
 50
0.00
  0
INSERT
  2
ROUND_47
  8
ESSC-1-2_DRL
 10
20.25
 20
12.25
 30
0.00
 41
1.00
 42
1.00
 50
0.00
  0
INSERT
  2
ROUND_47
  8
ESSC-1-2_DRL
 10
28.00
 20
12.30
 30
0.00
 41
1.00
 42
1.00
 50
0.00
  0
INSERT
  2
ROUND_47
  8
ESSC-1-2_DRL
 10
28.00
 20
13.05
 30
0.00
 41
1.00
 42
1.00
 50
0.00
  0
INSERT
  2
ROUND_47
  8
ESSC-1-2_DRL
 10
28.75
 20
13.05
 30
0.00
 41
1.00
 42
1.00
 50
0.00
  0
INSERT
  2
ROUND_47
  8
ESSC-1-2_DRL
 10
28.75
 20
12.30
 30
0.00
 41
1.00
 42
1.00
 50
0.00
  0
INSERT
  2
ROUND_47
  8
ESSC-1-2_DRL
 10
33.50
 20
13.50
 30
0.00
 41
1.00
 42
1.00
 50
0.00
  0
INSERT
  2
ROUND_47
  8
ESSC-1-2_DRL
 10
33.50
 20
14.25
 30
0.00
 41
1.00
 42
1.00
 50
0.00
  0
INSERT
  2
ROUND_47
  8
ESSC-1-2_DRL
 10
32.75
 20
14.25
 30
0.00
 41
1.00
 42
1.00
 50
0.00
  0
INSERT
  2
ROUND_47
  8
ESSC-1-2_DRL
 10
30.00
 20
14.50
 30
0.00
 41
1.00
 42
1.00
 50
0.00
  0
INSERT
  2
ROUND_47
  8
ESSC-1-2_DRL
 10
29.25
 20
14.50
 30
0.00
 41
1.00
 42
1.00
 50
0.00
  0
INSERT
  2
ROUND_47
  8
ESSC-1-2_DRL
 10
29.25
 20
13.75
 30
0.00
 41
1.00
 42
1.00
 50
0.00
  0
INSERT
  2
ROUND_47
  8
ESSC-1-2_DRL
 10
38.75
 20
14.50
 30
0.00
 41
1.00
 42
1.00
 50
0.00
  0
INSERT
  2
ROUND_47
  8
ESSC-1-2_DRL
 10
36.25
 20
14.50
 30
0.00
 41
1.00
 42
1.00
 50
0.00
  0
INSERT
  2
ROUND_47
  8
ESSC-1-2_DRL
 10
36.25
 20
13.00
 30
0.00
 41
1.00
 42
1.00
 50
0.00
  0
INSERT
  2
ROUND_47
  8
ESSC-1-2_DRL
 10
36.25
 20
12.25
 30
0.00
 41
1.00
 42
1.00
 50
0.00
  0
INSERT
  2
ROUND_47
  8
ESSC-1-2_DRL
 10
47.50
 20
10.75
 30
0.00
 41
1.00
 42
1.00
 50
0.00
  0
INSERT
  2
ROUND_47
  8
ESSC-1-2_DRL
 10
45.00
 20
9.50
 30
0.00
 41
1.00
 42
1.00
 50
0.00
  0
INSERT
  2
ROUND_47
  8
ESSC-1-2_DRL
 10
45.00
 20
8.75
 30
0.00
 41
1.00
 42
1.00
 50
0.00
  0
INSERT
  2
ROUND_47
  8
ESSC-1-2_DRL
 10
45.00
 20
8.00
 30
0.00
 41
1.00
 42
1.00
 50
0.00
  0
INSERT
  2
ROUND_47
  8
ESSC-1-2_DRL
 10
47.25
 20
8.00
 30
0.00
 41
1.00
 42
1.00
 50
0.00
  0
INSERT
  2
ROUND_47
  8
ESSC-1-2_DRL
 10
47.25
 20
8.75
 30
0.00
 41
1.00
 42
1.00
 50
0.00
  0
INSERT
  2
ROUND_47
  8
ESSC-1-2_DRL
 10
47.25
 20
9.50
 30
0.00
 41
1.00
 42
1.00
 50
0.00
  0
INSERT
  2
ROUND_47
  8
ESSC-1-2_DRL
 10
53.40
 20
12.20
 30
0.00
 41
1.00
 42
1.00
 50
0.00
  0
INSERT
  2
ROUND_47
  8
ESSC-1-2_DRL
 10
62.75
 20
10.00
 30
0.00
 41
1.00
 42
1.00
 50
0.00
  0
INSERT
  2
ROUND_47
  8
ESSC-1-2_DRL
 10
62.75
 20
9.25
 30
0.00
 41
1.00
 42
1.00
 50
0.00
  0
INSERT
  2
ROUND_47
  8
ESSC-1-2_DRL
 10
60.00
 20
8.75
 30
0.00
 41
1.00
 42
1.00
 50
0.00
  0
INSERT
  2
ROUND_47
  8
ESSC-1-2_DRL
 10
21.00
 20
15.25
 30
0.00
 41
1.00
 42
1.00
 50
0.00
  0
INSERT
  2
ROUND_47
  8
ESSC-1-2_DRL
 10
21.00
 20
14.50
 30
0.00
 41
1.00
 42
1.00
 50
0.00
  0
INSERT
  2
ROUND_47
  8
ESSC-1-2_DRL
 10
38.75
 20
15.25
 30
0.00
 41
1.00
 42
1.00
 50
0.00
  0
INSERT
  2
ROUND_47
  8
ESSC-1-2_DRL
 10
39.50
 20
16.00
 30
0.00
 41
1.00
 42
1.00
 50
0.00
  0
INSERT
  2
ROUND_47
  8
ESSC-1-2_DRL
 10
38.75
 20
16.00
 30
0.00
 41
1.00
 42
1.00
 50
0.00
  0
INSERT
  2
ROUND_47
  8
ESSC-1-2_DRL
 10
36.25
 20
16.00
 30
0.00
 41
1.00
 42
1.00
 50
0.00
  0
INSERT
  2
ROUND_47
  8
ESSC-1-2_DRL
 10
36.25
 20
15.25
 30
0.00
 41
1.00
 42
1.00
 50
0.00
  0
INSERT
  2
ROUND_47
  8
ESSC-1-2_DRL
 10
11.75
 20
10.75
 30
0.00
 41
1.00
 42
1.00
 50
0.00
  0
INSERT
  2
ROUND_47
  8
ESSC-1-2_DRL
 10
11.75
 20
10.00
 30
0.00
 41
1.00
 42
1.00
 50
0.00
  0
INSERT
  2
ROUND_47
  8
ESSC-1-2_DRL
 10
11.75
 20
9.25
 30
0.00
 41
1.00
 42
1.00
 50
0.00
  0
INSERT
  2
ROUND_47
  8
ESSC-1-2_DRL
 10
11.75
 20
6.25
 30
0.00
 41
1.00
 42
1.00
 50
0.00
  0
INSERT
  2
ROUND_47
  8
ESSC-1-2_DRL
 10
11.75
 20
5.50
 30
0.00
 41
1.00
 42
1.00
 50
0.00
  0
INSERT
  2
ROUND_47
  8
ESSC-1-2_DRL
 10
11.75
 20
14.25
 30
0.00
 41
1.00
 42
1.00
 50
0.00
  0
INSERT
  2
ROUND_47
  8
ESSC-1-2_DRL
 10
11.75
 20
15.00
 30
0.00
 41
1.00
 42
1.00
 50
0.00
  0
INSERT
  2
ROUND_47
  8
ESSC-1-2_DRL
 10
11.75
 20
15.75
 30
0.00
 41
1.00
 42
1.00
 50
0.00
  0
INSERT
  2
ROUND_47
  8
ESSC-1-2_DRL
 10
14.70
 20
12.30
 30
0.00
 41
1.00
 42
1.00
 50
0.00
  0
INSERT
  2
ROUND_47
  8
ESSC-1-2_DRL
 10
15.40
 20
12.30
 30
0.00
 41
1.00
 42
1.00
 50
0.00
  0
INSERT
  2
ROUND_47
  8
ESSC-1-2_DRL
 10
16.10
 20
12.30
 30
0.00
 41
1.00
 42
1.00
 50
0.00
  0
INSERT
  2
ROUND_47
  8
ESSC-1-2_DRL
 10
16.80
 20
12.30
 30
0.00
 41
1.00
 42
1.00
 50
0.00
  0
INSERT
  2
ROUND_47
  8
ESSC-1-2_DRL
 10
11.75
 20
12.75
 30
0.00
 41
1.00
 42
1.00
 50
0.00
  0
INSERT
  2
ROUND_47
  8
ESSC-1-2_DRL
 10
34.00
 20
16.75
 30
0.00
 41
1.00
 42
1.00
 50
0.00
  0
INSERT
  2
ROUND_47
  8
ESSC-1-2_DRL
 10
34.75
 20
16.75
 30
0.00
 41
1.00
 42
1.00
 50
0.00
  0
INSERT
  2
ROUND_47
  8
ESSC-1-2_DRL
 10
28.50
 20
17.25
 30
0.00
 41
1.00
 42
1.00
 50
0.00
  0
INSERT
  2
ROUND_47
  8
ESSC-1-2_DRL
 10
27.75
 20
17.25
 30
0.00
 41
1.00
 42
1.00
 50
0.00
  0
INSERT
  2
ROUND_47
  8
ESSC-1-2_DRL
 10
27.00
 20
17.25
 30
0.00
 41
1.00
 42
1.00
 50
0.00
  0
INSERT
  2
ROUND_47
  8
ESSC-1-2_DRL
 10
29.25
 20
17.25
 30
0.00
 41
1.00
 42
1.00
 50
0.00
  0
INSERT
  2
ROUND_47
  8
ESSC-1-2_DRL
 10
26.25
 20
17.25
 30
0.00
 41
1.00
 42
1.00
 50
0.00
  0
INSERT
  2
ROUND_47
  8
ESSC-1-2_DRL
 10
22.50
 20
17.25
 30
0.00
 41
1.00
 42
1.00
 50
0.00
  0
INSERT
  2
ROUND_47
  8
ESSC-1-2_DRL
 10
21.75
 20
17.25
 30
0.00
 41
1.00
 42
1.00
 50
0.00
  0
INSERT
  2
ROUND_47
  8
ESSC-1-2_DRL
 10
23.25
 20
17.25
 30
0.00
 41
1.00
 42
1.00
 50
0.00
  0
INSERT
  2
ROUND_47
  8
ESSC-1-2_DRL
 10
26.50
 20
0.75
 30
0.00
 41
1.00
 42
1.00
 50
0.00
  0
INSERT
  2
ROUND_47
  8
ESSC-1-2_DRL
 10
25.75
 20
0.75
 30
0.00
 41
1.00
 42
1.00
 50
0.00
  0
INSERT
  2
ROUND_47
  8
ESSC-1-2_DRL
 10
27.25
 20
0.75
 30
0.00
 41
1.00
 42
1.00
 50
0.00
  0
INSERT
  2
ROUND_47
  8
ESSC-1-2_DRL
 10
22.75
 20
0.75
 30
0.00
 41
1.00
 42
1.00
 50
0.00
  0
INSERT
  2
ROUND_47
  8
ESSC-1-2_DRL
 10
22.00
 20
0.75
 30
0.00
 41
1.00
 42
1.00
 50
0.00
  0
INSERT
  2
ROUND_47
  8
ESSC-1-2_DRL
 10
23.50
 20
0.75
 30
0.00
 41
1.00
 42
1.00
 50
0.00
  0
INSERT
  2
ROUND_47
  8
ESSC-1-2_DRL
 10
29.75
 20
0.75
 30
0.00
 41
1.00
 42
1.00
 50
0.00
  0
INSERT
  2
ROUND_47
  8
ESSC-1-2_DRL
 10
32.25
 20
0.75
 30
0.00
 41
1.00
 42
1.00
 50
0.00
  0
INSERT
  2
ROUND_47
  8
ESSC-1-2_DRL
 10
34.75
 20
0.75
 30
0.00
 41
1.00
 42
1.00
 50
0.00
  0
INSERT
  2
ROUND_47
  8
ESSC-1-2_DRL
 10
37.25
 20
0.75
 30
0.00
 41
1.00
 42
1.00
 50
0.00
  0
INSERT
  2
ROUND_47
  8
ESSC-1-2_DRL
 10
40.00
 20
0.75
 30
0.00
 41
1.00
 42
1.00
 50
0.00
  0
INSERT
  2
ROUND_47
  8
ESSC-1-2_DRL
 10
42.25
 20
0.75
 30
0.00
 41
1.00
 42
1.00
 50
0.00
  0
INSERT
  2
ROUND_47
  8
ESSC-1-2_DRL
 10
45.00
 20
0.75
 30
0.00
 41
1.00
 42
1.00
 50
0.00
  0
INSERT
  2
ROUND_47
  8
ESSC-1-2_DRL
 10
47.50
 20
0.75
 30
0.00
 41
1.00
 42
1.00
 50
0.00
  0
INSERT
  2
ROUND_47
  8
ESSC-1-2_DRL
 10
50.00
 20
0.75
 30
0.00
 41
1.00
 42
1.00
 50
0.00
  0
INSERT
  2
ROUND_47
  8
ESSC-1-2_DRL
 10
52.75
 20
0.75
 30
0.00
 41
1.00
 42
1.00
 50
0.00
  0
INSERT
  2
ROUND_47
  8
ESSC-1-2_DRL
 10
55.00
 20
0.75
 30
0.00
 41
1.00
 42
1.00
 50
0.00
  0
INSERT
  2
ROUND_47
  8
ESSC-1-2_DRL
 10
57.50
 20
0.75
 30
0.00
 41
1.00
 42
1.00
 50
0.00
  0
INSERT
  2
ROUND_47
  8
ESSC-1-2_DRL
 10
60.25
 20
0.75
 30
0.00
 41
1.00
 42
1.00
 50
0.00
  0
INSERT
  2
ROUND_47
  8
ESSC-1-2_DRL
 10
62.50
 20
0.75
 30
0.00
 41
1.00
 42
1.00
 50
0.00
  0
INSERT
  2
ROUND_47
  8
ESSC-1-2_DRL
 10
65.25
 20
0.75
 30
0.00
 41
1.00
 42
1.00
 50
0.00
  0
INSERT
  2
ROUND_47
  8
ESSC-1-2_DRL
 10
11.25
 20
0.75
 30
0.00
 41
1.00
 42
1.00
 50
0.00
  0
INSERT
  2
ROUND_47
  8
ESSC-1-2_DRL
 10
12.00
 20
0.75
 30
0.00
 41
1.00
 42
1.00
 50
0.00
  0
INSERT
  2
ROUND_47
  8
ESSC-1-2_DRL
 10
10.50
 20
0.75
 30
0.00
 41
1.00
 42
1.00
 50
0.00
  0
INSERT
  2
ROUND_47
  8
ESSC-1-2_DRL
 10
9.00
 20
0.75
 30
0.00
 41
1.00
 42
1.00
 50
0.00
  0
INSERT
  2
ROUND_47
  8
ESSC-1-2_DRL
 10
9.75
 20
0.75
 30
0.00
 41
1.00
 42
1.00
 50
0.00
  0
INSERT
  2
ROUND_47
  8
ESSC-1-2_DRL
 10
7.00
 20
0.75
 30
0.00
 41
1.00
 42
1.00
 50
0.00
  0
INSERT
  2
ROUND_47
  8
ESSC-1-2_DRL
 10
5.50
 20
0.75
 30
0.00
 41
1.00
 42
1.00
 50
0.00
  0
INSERT
  2
ROUND_47
  8
ESSC-1-2_DRL
 10
6.25
 20
0.75
 30
0.00
 41
1.00
 42
1.00
 50
0.00
  0
INSERT
  2
ROUND_47
  8
ESSC-1-2_DRL
 10
20.25
 20
17.25
 30
0.00
 41
1.00
 42
1.00
 50
0.00
  0
INSERT
  2
ROUND_47
  8
ESSC-1-2_DRL
 10
16.50
 20
17.25
 30
0.00
 41
1.00
 42
1.00
 50
0.00
  0
INSERT
  2
ROUND_47
  8
ESSC-1-2_DRL
 10
13.50
 20
17.25
 30
0.00
 41
1.00
 42
1.00
 50
0.00
  0
INSERT
  2
ROUND_47
  8
ESSC-1-2_DRL
 10
12.00
 20
17.25
 30
0.00
 41
1.00
 42
1.00
 50
0.00
  0
INSERT
  2
ROUND_47
  8
ESSC-1-2_DRL
 10
12.75
 20
17.25
 30
0.00
 41
1.00
 42
1.00
 50
0.00
  0
INSERT
  2
ROUND_47
  8
ESSC-1-2_DRL
 10
11.25
 20
17.25
 30
0.00
 41
1.00
 42
1.00
 50
0.00
  0
INSERT
  2
ROUND_47
  8
ESSC-1-2_DRL
 10
9.75
 20
17.25
 30
0.00
 41
1.00
 42
1.00
 50
0.00
  0
INSERT
  2
ROUND_47
  8
ESSC-1-2_DRL
 10
10.50
 20
17.25
 30
0.00
 41
1.00
 42
1.00
 50
0.00
  0
INSERT
  2
ROUND_47
  8
ESSC-1-2_DRL
 10
47.25
 20
3.10
 30
0.00
 41
1.00
 42
1.00
 50
0.00
  0
INSERT
  2
ROUND_47
  8
ESSC-1-2_DRL
 10
45.00
 20
3.10
 30
0.00
 41
1.00
 42
1.00
 50
0.00
  0
INSERT
  2
ROUND_47
  8
ESSC-1-2_DRL
 10
45.00
 20
4.25
 30
0.00
 41
1.00
 42
1.00
 50
0.00
  0
INSERT
  2
ROUND_47
  8
ESSC-1-2_DRL
 10
47.25
 20
4.25
 30
0.00
 41
1.00
 42
1.00
 50
0.00
  0
INSERT
  2
ROUND_47
  8
ESSC-1-2_DRL
 10
50.00
 20
3.10
 30
0.00
 41
1.00
 42
1.00
 50
0.00
  0
INSERT
  2
ROUND_47
  8
ESSC-1-2_DRL
 10
50.00
 20
4.25
 30
0.00
 41
1.00
 42
1.00
 50
0.00
  0
INSERT
  2
ROUND_47
  8
ESSC-1-2_DRL
 10
43.75
 20
8.75
 30
0.00
 41
1.00
 42
1.00
 50
0.00
  0
INSERT
  2
ROUND_47
  8
ESSC-1-2_DRL
 10
43.00
 20
8.75
 30
0.00
 41
1.00
 42
1.00
 50
0.00
  0
INSERT
  2
ROUND_47
  8
ESSC-1-2_DRL
 10
42.25
 20
8.75
 30
0.00
 41
1.00
 42
1.00
 50
0.00
  0
INSERT
  2
ROUND_47
  8
ESSC-1-2_DRL
 10
41.50
 20
8.75
 30
0.00
 41
1.00
 42
1.00
 50
0.00
  0
INSERT
  2
ROUND_47
  8
ESSC-1-2_DRL
 10
40.75
 20
8.75
 30
0.00
 41
1.00
 42
1.00
 50
0.00
  0
INSERT
  2
ROUND_47
  8
ESSC-1-2_DRL
 10
40.00
 20
8.75
 30
0.00
 41
1.00
 42
1.00
 50
0.00
  0
INSERT
  2
ROUND_47
  8
ESSC-1-2_DRL
 10
39.25
 20
8.75
 30
0.00
 41
1.00
 42
1.00
 50
0.00
  0
INSERT
  2
ROUND_47
  8
ESSC-1-2_DRL
 10
38.50
 20
8.75
 30
0.00
 41
1.00
 42
1.00
 50
0.00
  0
INSERT
  2
ROUND_47
  8
ESSC-1-2_DRL
 10
37.00
 20
8.75
 30
0.00
 41
1.00
 42
1.00
 50
0.00
  0
INSERT
  2
ROUND_47
  8
ESSC-1-2_DRL
 10
36.25
 20
8.75
 30
0.00
 41
1.00
 42
1.00
 50
0.00
  0
INSERT
  2
ROUND_47
  8
ESSC-1-2_DRL
 10
35.50
 20
8.75
 30
0.00
 41
1.00
 42
1.00
 50
0.00
  0
INSERT
  2
ROUND_47
  8
ESSC-1-2_DRL
 10
33.25
 20
8.00
 30
0.00
 41
1.00
 42
1.00
 50
0.00
  0
INSERT
  2
ROUND_47
  8
ESSC-1-2_DRL
 10
32.50
 20
8.00
 30
0.00
 41
1.00
 42
1.00
 50
0.00
  0
INSERT
  2
ROUND_47
  8
ESSC-1-2_DRL
 10
31.75
 20
8.00
 30
0.00
 41
1.00
 42
1.00
 50
0.00
  0
INSERT
  2
ROUND_47
  8
ESSC-1-2_DRL
 10
31.00
 20
8.00
 30
0.00
 41
1.00
 42
1.00
 50
0.00
  0
INSERT
  2
ROUND_47
  8
ESSC-1-2_DRL
 10
30.25
 20
8.00
 30
0.00
 41
1.00
 42
1.00
 50
0.00
  0
INSERT
  2
ROUND_47
  8
ESSC-1-2_DRL
 10
29.50
 20
8.00
 30
0.00
 41
1.00
 42
1.00
 50
0.00
  0
INSERT
  2
ROUND_47
  8
ESSC-1-2_DRL
 10
28.75
 20
8.00
 30
0.00
 41
1.00
 42
1.00
 50
0.00
  0
INSERT
  2
ROUND_47
  8
ESSC-1-2_DRL
 10
28.00
 20
8.00
 30
0.00
 41
1.00
 42
1.00
 50
0.00
  0
INSERT
  2
ROUND_47
  8
ESSC-1-2_DRL
 10
62.75
 20
10.75
 30
0.00
 41
1.00
 42
1.00
 50
0.00
  0
INSERT
  2
ROUND_47
  8
ESSC-1-2_DRL
 10
62.75
 20
11.50
 30
0.00
 41
1.00
 42
1.00
 50
0.00
  0
INSERT
  2
ROUND_47
  8
ESSC-1-2_DRL
 10
62.50
 20
8.50
 30
0.00
 41
1.00
 42
1.00
 50
0.00
  0
INSERT
  2
ROUND_47
  8
ESSC-1-2_DRL
 10
62.50
 20
7.75
 30
0.00
 41
1.00
 42
1.00
 50
0.00
  0
INSERT
  2
ROUND_47
  8
ESSC-1-2_DRL
 10
64.00
 20
8.50
 30
0.00
 41
1.00
 42
1.00
 50
0.00
  0
INSERT
  2
ROUND_47
  8
ESSC-1-2_DRL
 10
64.00
 20
7.75
 30
0.00
 41
1.00
 42
1.00
 50
0.00
  0
INSERT
  2
ROUND_47
  8
ESSC-1-2_DRL
 10
59.00
 20
7.00
 30
0.00
 41
1.00
 42
1.00
 50
0.00
  0
INSERT
  2
ROUND_47
  8
ESSC-1-2_DRL
 10
58.25
 20
7.00
 30
0.00
 41
1.00
 42
1.00
 50
0.00
  0
INSERT
  2
ROUND_47
  8
ESSC-1-2_DRL
 10
53.75
 20
6.25
 30
0.00
 41
1.00
 42
1.00
 50
0.00
  0
INSERT
  2
ROUND_47
  8
ESSC-1-2_DRL
 10
53.00
 20
6.25
 30
0.00
 41
1.00
 42
1.00
 50
0.00
  0
INSERT
  2
ROUND_47
  8
ESSC-1-2_DRL
 10
52.25
 20
6.25
 30
0.00
 41
1.00
 42
1.00
 50
0.00
  0
INSERT
  2
ROUND_47
  8
ESSC-1-2_DRL
 10
60.25
 20
3.00
 30
0.00
 41
1.00
 42
1.00
 50
0.00
  0
INSERT
  2
ROUND_47
  8
ESSC-1-2_DRL
 10
62.50
 20
3.00
 30
0.00
 41
1.00
 42
1.00
 50
0.00
  0
INSERT
  2
ROUND_47
  8
ESSC-1-2_DRL
 10
19.50
 20
17.25
 30
0.00
 41
1.00
 42
1.00
 50
0.00
  0
INSERT
  2
ROUND_47
  8
ESSC-1-2_DRL
 10
21.00
 20
17.25
 30
0.00
 41
1.00
 42
1.00
 50
0.00
  0
INSERT
  2
ROUND_47
  8
ESSC-1-2_DRL
 10
21.00
 20
16.00
 30
0.00
 41
1.00
 42
1.00
 50
0.00
  0
INSERT
  2
ROUND_47
  8
ESSC-1-2_DRL
 10
17.25
 20
17.25
 30
0.00
 41
1.00
 42
1.00
 50
0.00
  0
INSERT
  2
ROUND_47
  8
ESSC-1-2_DRL
 10
18.00
 20
17.25
 30
0.00
 41
1.00
 42
1.00
 50
0.00
  0
INSERT
  2
ROUND_47
  8
ESSC-1-2_DRL
 10
18.75
 20
17.25
 30
0.00
 41
1.00
 42
1.00
 50
0.00
  0
INSERT
  2
ROUND_47
  8
ESSC-1-2_DRL
 10
15.00
 20
17.25
 30
0.00
 41
1.00
 42
1.00
 50
0.00
  0
INSERT
  2
ROUND_47
  8
ESSC-1-2_DRL
 10
14.25
 20
17.25
 30
0.00
 41
1.00
 42
1.00
 50
0.00
  0
INSERT
  2
ROUND_47
  8
ESSC-1-2_DRL
 10
15.75
 20
17.25
 30
0.00
 41
1.00
 42
1.00
 50
0.00
  0
INSERT
  2
ROUND_47
  8
ESSC-1-2_DRL
 10
12.50
 20
5.50
 30
0.00
 41
1.00
 42
1.00
 50
0.00
  0
INSERT
  2
ROUND_47
  8
ESSC-1-2_DRL
 10
12.75
 20
4.25
 30
0.00
 41
1.00
 42
1.00
 50
0.00
  0
INSERT
  2
ROUND_47
  8
ESSC-1-2_DRL
 10
13.25
 20
3.75
 30
0.00
 41
1.00
 42
1.00
 50
0.00
  0
INSERT
  2
ROUND_47
  8
ESSC-1-2_DRL
 10
13.75
 20
3.25
 30
0.00
 41
1.00
 42
1.00
 50
0.00
  0
INSERT
  2
ROUND_47
  8
ESSC-1-2_DRL
 10
12.25
 20
4.75
 30
0.00
 41
1.00
 42
1.00
 50
0.00
  0
INSERT
  2
ROUND_47
  8
ESSC-1-2_DRL
 10
61.00
 20
4.25
 30
0.00
 41
1.00
 42
1.00
 50
0.00
  0
INSERT
  2
ROUND_47
  8
ESSC-1-2_DRL
 10
66.50
 20
12.25
 30
0.00
 41
1.00
 42
1.00
 50
0.00
  0
INSERT
  2
ROUND_47
  8
ESSC-1-2_DRL
 10
66.25
 20
9.00
 30
0.00
 41
1.00
 42
1.00
 50
0.00
  0
INSERT
  2
ROUND_47
  8
ESSC-1-2_DRL
 10
67.50
 20
9.25
 30
0.00
 41
1.00
 42
1.00
 50
0.00
  0
INSERT
  2
ROUND_47
  8
ESSC-1-2_DRL
 10
71.00
 20
3.75
 30
0.00
 41
1.00
 42
1.00
 50
0.00
  0
INSERT
  2
ROUND_47
  8
ESSC-1-2_DRL
 10
71.00
 20
4.50
 30
0.00
 41
1.00
 42
1.00
 50
0.00
  0
INSERT
  2
ROUND_47
  8
ESSC-1-2_DRL
 10
74.50
 20
4.75
 30
0.00
 41
1.00
 42
1.00
 50
0.00
  0
INSERT
  2
ROUND_47
  8
ESSC-1-2_DRL
 10
74.00
 20
4.25
 30
0.00
 41
1.00
 42
1.00
 50
0.00
  0
INSERT
  2
ROUND_47
  8
ESSC-1-2_DRL
 10
73.50
 20
3.75
 30
0.00
 41
1.00
 42
1.00
 50
0.00
  0
INSERT
  2
ROUND_47
  8
ESSC-1-2_DRL
 10
72.75
 20
1.50
 30
0.00
 41
1.00
 42
1.00
 50
0.00
  0
INSERT
  2
ROUND_47
  8
ESSC-1-2_DRL
 10
72.75
 20
0.75
 30
0.00
 41
1.00
 42
1.00
 50
0.00
  0
INSERT
  2
ROUND_47
  8
ESSC-1-2_DRL
 10
55.50
 20
17.25
 30
0.00
 41
1.00
 42
1.00
 50
0.00
  0
INSERT
  2
ROUND_47
  8
ESSC-1-2_DRL
 10
56.25
 20
17.25
 30
0.00
 41
1.00
 42
1.00
 50
0.00
  0
INSERT
  2
ROUND_47
  8
ESSC-1-2_DRL
 10
54.00
 20
17.25
 30
0.00
 41
1.00
 42
1.00
 50
0.00
  0
INSERT
  2
ROUND_47
  8
ESSC-1-2_DRL
 10
54.75
 20
17.25
 30
0.00
 41
1.00
 42
1.00
 50
0.00
  0
INSERT
  2
ROUND_47
  8
ESSC-1-2_DRL
 10
52.50
 20
17.25
 30
0.00
 41
1.00
 42
1.00
 50
0.00
  0
INSERT
  2
ROUND_47
  8
ESSC-1-2_DRL
 10
53.25
 20
17.25
 30
0.00
 41
1.00
 42
1.00
 50
0.00
  0
INSERT
  2
ROUND_47
  8
ESSC-1-2_DRL
 10
51.00
 20
17.25
 30
0.00
 41
1.00
 42
1.00
 50
0.00
  0
INSERT
  2
ROUND_47
  8
ESSC-1-2_DRL
 10
51.75
 20
17.25
 30
0.00
 41
1.00
 42
1.00
 50
0.00
  0
INSERT
  2
ROUND_47
  8
ESSC-1-2_DRL
 10
49.50
 20
17.25
 30
0.00
 41
1.00
 42
1.00
 50
0.00
  0
INSERT
  2
ROUND_47
  8
ESSC-1-2_DRL
 10
50.25
 20
17.25
 30
0.00
 41
1.00
 42
1.00
 50
0.00
  0
INSERT
  2
ROUND_47
  8
ESSC-1-2_DRL
 10
48.00
 20
17.25
 30
0.00
 41
1.00
 42
1.00
 50
0.00
  0
INSERT
  2
ROUND_47
  8
ESSC-1-2_DRL
 10
48.75
 20
17.25
 30
0.00
 41
1.00
 42
1.00
 50
0.00
  0
INSERT
  2
ROUND_47
  8
ESSC-1-2_DRL
 10
46.50
 20
17.25
 30
0.00
 41
1.00
 42
1.00
 50
0.00
  0
INSERT
  2
ROUND_47
  8
ESSC-1-2_DRL
 10
47.25
 20
17.25
 30
0.00
 41
1.00
 42
1.00
 50
0.00
  0
INSERT
  2
ROUND_47
  8
ESSC-1-2_DRL
 10
45.00
 20
17.25
 30
0.00
 41
1.00
 42
1.00
 50
0.00
  0
INSERT
  2
ROUND_47
  8
ESSC-1-2_DRL
 10
45.75
 20
17.25
 30
0.00
 41
1.00
 42
1.00
 50
0.00
  0
INSERT
  2
ROUND_47
  8
ESSC-1-2_DRL
 10
43.50
 20
17.25
 30
0.00
 41
1.00
 42
1.00
 50
0.00
  0
INSERT
  2
ROUND_47
  8
ESSC-1-2_DRL
 10
44.25
 20
17.25
 30
0.00
 41
1.00
 42
1.00
 50
0.00
  0
INSERT
  2
ROUND_47
  8
ESSC-1-2_DRL
 10
42.00
 20
17.25
 30
0.00
 41
1.00
 42
1.00
 50
0.00
  0
INSERT
  2
ROUND_47
  8
ESSC-1-2_DRL
 10
42.75
 20
17.25
 30
0.00
 41
1.00
 42
1.00
 50
0.00
  0
INSERT
  2
ROUND_47
  8
ESSC-1-2_DRL
 10
41.25
 20
17.25
 30
0.00
 41
1.00
 42
1.00
 50
0.00
  0
INSERT
  2
ROUND_47
  8
ESSC-1-2_DRL
 10
40.50
 20
17.25
 30
0.00
 41
1.00
 42
1.00
 50
0.00
  0
INSERT
  2
ROUND_47
  8
ESSC-1-2_DRL
 10
71.75
 20
4.50
 30
0.00
 41
1.00
 42
1.00
 50
0.00
  0
INSERT
  2
ROUND_47
  8
ESSC-1-2_DRL
 10
70.15
 20
6.00
 30
0.00
 41
1.00
 42
1.00
 50
0.00
  0
INSERT
  2
ROUND_47
  8
ESSC-1-2_DRL
 10
69.50
 20
6.00
 30
0.00
 41
1.00
 42
1.00
 50
0.00
  0
INSERT
  2
ROUND_47
  8
ESSC-1-2_DRL
 10
76.25
 20
7.00
 30
0.00
 41
1.00
 42
1.00
 50
0.00
  0
INSERT
  2
ROUND_47
  8
ESSC-1-2_DRL
 10
76.25
 20
7.75
 30
0.00
 41
1.00
 42
1.00
 50
0.00
  0
INSERT
  2
ROUND_47
  8
ESSC-1-2_DRL
 10
76.25
 20
6.25
 30
0.00
 41
1.00
 42
1.00
 50
0.00
  0
INSERT
  2
ROUND_47
  8
ESSC-1-2_DRL
 10
74.30
 20
13.50
 30
0.00
 41
1.00
 42
1.00
 50
0.00
  0
INSERT
  2
ROUND_47
  8
ESSC-1-2_DRL
 10
74.30
 20
12.75
 30
0.00
 41
1.00
 42
1.00
 50
0.00
  0
INSERT
  2
ROUND_47
  8
ESSC-1-2_DRL
 10
59.60
 20
14.90
 30
0.00
 41
1.00
 42
1.00
 50
0.00
  0
INSERT
  2
ROUND_47
  8
ESSC-1-2_DRL
 10
72.90
 20
9.70
 30
0.00
 41
1.00
 42
1.00
 50
0.00
  0
INSERT
  2
ROUND_47
  8
ESSC-1-2_DRL
 10
68.00
 20
11.20
 30
0.00
 41
1.00
 42
1.00
 50
0.00
  0
INSERT
  2
ROUND_47
  8
ESSC-1-2_DRL
 10
71.70
 20
12.1468
 30
0.00
 41
1.00
 42
1.00
 50
0.00
  0
INSERT
  2
ROUND_48
  8
ESSC-1-2_DRL
 10
33.20
 20
15.60
 30
0.00
 41
1.00
 42
1.00
 50
0.00
  0
INSERT
  2
ROUND_48
  8
ESSC-1-2_DRL
 10
40.95
 20
13.60
 30
0.00
 41
1.00
 42
1.00
 50
0.00
  0
INSERT
  2
ROUND_48
  8
ESSC-1-2_DRL
 10
47.85
 20
13.05
 30
0.00
 41
1.00
 42
1.00
 50
0.00
  0
INSERT
  2
ROUND_41
  8
ESSC-1-2_DRL
 10
81.00
 20
13.00
 30
0.00
 41
1.00
 42
1.00
 50
0.00
  0
INSERT
  2
ROUND_41
  8
ESSC-1-2_DRL
 10
81.00
 20
10.46
 30
0.00
 41
1.00
 42
1.00
 50
0.00
  0
INSERT
  2
ROUND_41
  8
ESSC-1-2_DRL
 10
81.00
 20
7.92
 30
0.00
 41
1.00
 42
1.00
 50
0.00
  0
INSERT
  2
ROUND_41
  8
ESSC-1-2_DRL
 10
81.00
 20
5.38
 30
0.00
 41
1.00
 42
1.00
 50
0.00
  0
INSERT
  2
ROUND_41
  8
ESSC-1-2_DRL
 10
79.00
 20
13.00
 30
0.00
 41
1.00
 42
1.00
 50
0.00
  0
INSERT
  2
ROUND_41
  8
ESSC-1-2_DRL
 10
79.00
 20
10.46
 30
0.00
 41
1.00
 42
1.00
 50
0.00
  0
INSERT
  2
ROUND_41
  8
ESSC-1-2_DRL
 10
79.00
 20
7.92
 30
0.00
 41
1.00
 42
1.00
 50
0.00
  0
INSERT
  2
ROUND_41
  8
ESSC-1-2_DRL
 10
79.00
 20
5.38
 30
0.00
 41
1.00
 42
1.00
 50
0.00
  0
INSERT
  2
ROUND_41
  8
ESSC-1-2_DRL
 10
8.50
 20
13.50
 30
0.00
 41
1.00
 42
1.00
 50
0.00
  0
INSERT
  2
ROUND_41
  8
ESSC-1-2_DRL
 10
6.50
 20
12.50
 30
0.00
 41
1.00
 42
1.00
 50
0.00
  0
INSERT
  2
ROUND_41
  8
ESSC-1-2_DRL
 10
8.50
 20
11.50
 30
0.00
 41
1.00
 42
1.00
 50
0.00
  0
INSERT
  2
ROUND_41
  8
ESSC-1-2_DRL
 10
6.50
 20
10.50
 30
0.00
 41
1.00
 42
1.00
 50
0.00
  0
INSERT
  2
ROUND_41
  8
ESSC-1-2_DRL
 10
8.50
 20
9.50
 30
0.00
 41
1.00
 42
1.00
 50
0.00
  0
INSERT
  2
ROUND_41
  8
ESSC-1-2_DRL
 10
6.50
 20
8.50
 30
0.00
 41
1.00
 42
1.00
 50
0.00
  0
INSERT
  2
ROUND_41
  8
ESSC-1-2_DRL
 10
8.50
 20
7.50
 30
0.00
 41
1.00
 42
1.00
 50
0.00
  0
INSERT
  2
ROUND_41
  8
ESSC-1-2_DRL
 10
6.50
 20
6.50
 30
0.00
 41
1.00
 42
1.00
 50
0.00
  0
INSERT
  2
ROUND_41
  8
ESSC-1-2_DRL
 10
8.50
 20
5.50
 30
0.00
 41
1.00
 42
1.00
 50
0.00
  0
INSERT
  2
ROUND_41
  8
ESSC-1-2_DRL
 10
6.50
 20
4.50
 30
0.00
 41
1.00
 42
1.00
 50
0.00
  0
INSERT
  2
ROUND_41
  8
ESSC-1-2_DRL
 10
67.00
 20
16.50
 30
0.00
 41
1.00
 42
1.00
 50
0.00
  0
INSERT
  2
ROUND_41
  8
ESSC-1-2_DRL
 10
69.54
 20
16.50
 30
0.00
 41
1.00
 42
1.00
 50
0.00
  0
INSERT
  2
ROUND_41
  8
ESSC-1-2_DRL
 10
72.08
 20
16.50
 30
0.00
 41
1.00
 42
1.00
 50
0.00
  0
INSERT
  2
ROUND_41
  8
ESSC-1-2_DRL
 10
74.62
 20
16.50
 30
0.00
 41
1.00
 42
1.00
 50
0.00
  0
INSERT
  2
ROUND_41
  8
ESSC-1-2_DRL
 10
77.16
 20
16.50
 30
0.00
 41
1.00
 42
1.00
 50
0.00
  0
INSERT
  2
ROUND_41
  8
ESSC-1-2_DRL
 10
46.25
 20
15.00
 30
0.00
 41
1.00
 42
1.00
 50
0.00
  0
INSERT
  2
ROUND_41
  8
ESSC-1-2_DRL
 10
48.79
 20
15.00
 30
0.00
 41
1.00
 42
1.00
 50
0.00
  0
INSERT
  2
ROUND_41
  8
ESSC-1-2_DRL
 10
51.33
 20
15.00
 30
0.00
 41
1.00
 42
1.00
 50
0.00
  0
INSERT
  2
ROUND_41
  8
ESSC-1-2_DRL
 10
53.87
 20
15.00
 30
0.00
 41
1.00
 42
1.00
 50
0.00
  0
INSERT
  2
ROUND_41
  8
ESSC-1-2_DRL
 10
56.41
 20
15.00
 30
0.00
 41
1.00
 42
1.00
 50
0.00
  0
INSERT
  2
ROUND_41
  8
ESSC-1-2_DRL
 10
90.2494
 20
16.5006
 30
0.00
 41
1.00
 42
1.00
 50
0.00
  0
INSERT
  2
ROUND_41
  8
ESSC-1-2_DRL
 10
87.75
 20
16.5006
 30
0.00
 41
1.00
 42
1.00
 50
0.00
  0
INSERT
  2
ROUND_41
  8
ESSC-1-2_DRL
 10
85.2506
 20
16.5006
 30
0.00
 41
1.00
 42
1.00
 50
0.00
  0
INSERT
  2
ROUND_41
  8
ESSC-1-2_DRL
 10
85.2506
 20
1.9998
 30
0.00
 41
1.00
 42
1.00
 50
0.00
  0
INSERT
  2
ROUND_41
  8
ESSC-1-2_DRL
 10
90.2494
 20
1.9998
 30
0.00
 41
1.00
 42
1.00
 50
0.00
  0
INSERT
  2
ROUND_49
  8
ESSC-1-2_DRL
 10
80.00
 20
6.65
 30
0.00
 41
1.00
 42
1.00
 50
0.00
  0
INSERT
  2
ROUND_49
  8
ESSC-1-2_DRL
 10
80.00
 20
9.20
 30
0.00
 41
1.00
 42
1.00
 50
0.00
  0
INSERT
  2
ROUND_49
  8
ESSC-1-2_DRL
 10
80.00
 20
11.75
 30
0.00
 41
1.00
 42
1.00
 50
0.00
  0
INSERT
  2
ROUND_9
  8
ESSC-1-2_DRL
 10
3.00
 20
3.00
 30
0.00
 41
1.00
 42
1.00
 50
0.00
  0
INSERT
  2
ROUND_9
  8
ESSC-1-2_DRL
 10
3.00
 20
15.00
 30
0.00
 41
1.00
 42
1.00
 50
0.00
  0
POLYLINE
  8
ESSC_ROU
 66
1
 10
0.00
 20
0.00
 30
0.00
 40
0.075
 41
0.075
  0
VERTEX
  8
ESSC_ROU
 10
82.1985
 20
8.3649
 30
0.00
 42
1.00
  0
VERTEX
  8
ESSC_ROU
 10
83.9013
 20
8.3649
 30
0.00
 42
0.00
  0
SEQEND
  0
POLYLINE
  8
ESSC_ROU
 66
1
 10
0.00
 20
0.00
 30
0.00
 40
0.075
 41
0.075
  0
VERTEX
  8
ESSC_ROU
 10
83.9013
 20
8.3649
 30
0.00
  0
VERTEX
  8
ESSC_ROU
 10
83.9013
 20
9.6349
 30
0.00
  0
SEQEND
  0
POLYLINE
  8
ESSC_ROU
 66
1
 10
0.00
 20
0.00
 30
0.00
 40
0.075
 41
0.075
  0
VERTEX
  8
ESSC_ROU
 10
83.9013
 20
9.6349
 30
0.00
 42
1.00
  0
VERTEX
  8
ESSC_ROU
 10
82.1985
 20
9.6349
 30
0.00
 42
0.00
  0
SEQEND
  0
POLYLINE
  8
ESSC_ROU
 66
1
 10
0.00
 20
0.00
 30
0.00
 40
0.075
 41
0.075
  0
VERTEX
  8
ESSC_ROU
 10
82.1985
 20
9.6349
 30
0.00
  0
VERTEX
  8
ESSC_ROU
 10
82.1985
 20
8.3649
 30
0.00
  0
SEQEND
  0
POLYLINE
  8
ESSC_ROU
 66
1
 10
0.00
 20
0.00
 30
0.00
 40
0.075
 41
0.075
  0
VERTEX
  8
ESSC_ROU
 10
91.5985
 20
8.3649
 30
0.00
 42
1.00
  0
VERTEX
  8
ESSC_ROU
 10
93.3013
 20
8.3649
 30
0.00
 42
0.00
  0
SEQEND
  0
POLYLINE
  8
ESSC_ROU
 66
1
 10
0.00
 20
0.00
 30
0.00
 40
0.075
 41
0.075
  0
VERTEX
  8
ESSC_ROU
 10
93.3013
 20
8.3649
 30
0.00
  0
VERTEX
  8
ESSC_ROU
 10
93.3013
 20
9.6349
 30
0.00
  0
SEQEND
  0
POLYLINE
  8
ESSC_ROU
 66
1
 10
0.00
 20
0.00
 30
0.00
 40
0.075
 41
0.075
  0
VERTEX
  8
ESSC_ROU
 10
93.3013
 20
9.6349
 30
0.00
 42
1.00
  0
VERTEX
  8
ESSC_ROU
 10
91.5985
 20
9.6349
 30
0.00
 42
0.00
  0
SEQEND
  0
POLYLINE
  8
ESSC_ROU
 66
1
 10
0.00
 20
0.00
 30
0.00
 40
0.075
 41
0.075
  0
VERTEX
  8
ESSC_ROU
 10
91.5985
 20
9.6349
 30
0.00
  0
VERTEX
  8
ESSC_ROU
 10
91.5985
 20
8.3649
 30
0.00
  0
SEQEND
  0
ENDSEC
  0
EOF
