  0
SECTION
  2
HEADER
  9
$ACADVER
  1
AC1009
  9
$INSBASE
 10
0.000000
 20
0.000000
  9
$LIMMIN
 10
-54.000000
 20
-74.500000
  9
$LIMMAX
 10
196.000000
 20
225.500000
  9
$EXTMIN
 10
-54.000000
 20
-74.500000
  9
$EXTMAX
 10
196.000000
 20
225.500000
  9
$ATTMODE
 70
0
  9
$LUNITS
 70
2
  9
$LUPREC
 70
4
  9
$THICKNESS
 40
0.264160
  0
ENDSEC
  0
SECTION
  2
TABLES
  0
TABLE
  2
LTYPE
 70
0
  0
LTYPE
  2
CONTINUOUS
  3
Solid line
 70
0
 72
65
 73
0
 40
0.000000
  0
ENDTAB
  0
TABLE
  2
LAYER
 70
4
  0
LAYER
  2
BOARD_GEOMETRY_DIMENSION
 70
0
 62
1
  6
CONTINUOUS
  0
LAYER
  2
BOARD_GEOMETRY_OUTLINE
 70
0
 62
2
  6
CONTINUOUS
  0
LAYER
  2
PACKAGE_GEOMETRY_SILKSCREEN_TO
 70
0
 62
3
  6
CONTINUOUS
  0
LAYER
  2
PIN_TOP
 70
0
 62
4
  6
CONTINUOUS
  0
ENDTAB
  0
TABLE
  2
STYLE
 70
0
  0
STYLE
  2
STANDARD
 70
0
 40
0.000000
 41
1.000000
 50
0.000000
 71
0
 42
0.200000
  3
txt
  0
ENDTAB
  0
ENDSEC
  0
SECTION
  2
BLOCKS
  0
BLOCK
  8
CDN_FIGURES
  2
FIGURE_CIRCLE
 70
0
 10
0.000000
 20
0.000000
  0
CIRCLE
  8
CDN_FIGURES
 10
0.000000
 20
0.000000
 40
0.500000
  0
ENDBLK
  0
BLOCK
  8
CDN_FIGURES
  2
FIGURE_SQUARE
 70
0
 10
0.000000
 20
0.000000
  0
POLYLINE
  8
CDN_FIGURES
 66
1
 70
1
 40
0.000000
 41
0.000000
 39
0.000000
  0
VERTEX
  8
CDN_FIGURES
 10
-0.500000
 20
-0.500000
 40
0.000000
 41
0.000000
 42
0.000000
  0
VERTEX
  8
CDN_FIGURES
 10
-0.500000
 20
0.500000
 40
0.000000
 41
0.000000
 42
0.000000
  0
VERTEX
  8
CDN_FIGURES
 10
0.500000
 20
0.500000
 40
0.000000
 41
0.000000
 42
0.000000
  0
VERTEX
  8
CDN_FIGURES
 10
0.500000
 20
-0.500000
 40
0.000000
 41
0.000000
 42
0.000000
  0
SEQEND
  0
ENDBLK
  0
BLOCK
  8
CDN_FIGURES
  2
FIGURE_HEX
 70
0
 10
0.000000
 20
0.000000
  0
POLYLINE
  8
CDN_FIGURES
 66
1
 70
1
 40
0.000000
 41
0.000000
 39
0.000000
  0
VERTEX
  8
CDN_FIGURES
 10
-0.500000
 20
0.000000
 40
0.000000
 41
0.000000
 42
0.000000
  0
VERTEX
  8
CDN_FIGURES
 10
-0.250000
 20
0.500000
 40
0.000000
 41
0.000000
 42
0.000000
  0
VERTEX
  8
CDN_FIGURES
 10
0.250000
 20
0.500000
 40
0.000000
 41
0.000000
 42
0.000000
  0
VERTEX
  8
CDN_FIGURES
 10
0.500000
 20
0.000000
 40
0.000000
 41
0.000000
 42
0.000000
  0
VERTEX
  8
CDN_FIGURES
 10
0.250000
 20
-0.500000
 40
0.000000
 41
0.000000
 42
0.000000
  0
VERTEX
  8
CDN_FIGURES
 10
-0.250000
 20
-0.500000
 40
0.000000
 41
0.000000
 42
0.000000
  0
SEQEND
  0
ENDBLK
  0
BLOCK
  8
CDN_FIGURES
  2
FIGURE_OCT
 70
0
 10
0.000000
 20
0.000000
  0
POLYLINE
  8
CDN_FIGURES
 66
1
 70
1
 40
0.000000
 41
0.000000
 39
0.000000
  0
VERTEX
  8
CDN_FIGURES
 10
-0.500000
 20
-0.207100
 40
0.000000
 41
0.000000
 42
0.000000
  0
VERTEX
  8
CDN_FIGURES
 10
-0.500000
 20
0.207100
 40
0.000000
 41
0.000000
 42
0.000000
  0
VERTEX
  8
CDN_FIGURES
 10
-0.207100
 20
0.500000
 40
0.000000
 41
0.000000
 42
0.000000
  0
VERTEX
  8
CDN_FIGURES
 10
0.207100
 20
0.500000
 40
0.000000
 41
0.000000
 42
0.000000
  0
VERTEX
  8
CDN_FIGURES
 10
0.500000
 20
0.207100
 40
0.000000
 41
0.000000
 42
0.000000
  0
VERTEX
  8
CDN_FIGURES
 10
0.500000
 20
-0.207100
 40
0.000000
 41
0.000000
 42
0.000000
  0
VERTEX
  8
CDN_FIGURES
 10
0.207100
 20
-0.500000
 40
0.000000
 41
0.000000
 42
0.000000
  0
VERTEX
  8
CDN_FIGURES
 10
-0.207100
 20
-0.500000
 40
0.000000
 41
0.000000
 42
0.000000
  0
SEQEND
  0
ENDBLK
  0
BLOCK
  8
CDN_FIGURES
  2
FIGURE_OBLONG
 70
0
 10
0.000000
 20
0.000000
  0
POLYLINE
  8
CDN_FIGURES
 66
1
 70
1
 40
0.000000
 41
0.000000
 39
0.000000
  0
VERTEX
  8
CDN_FIGURES
 10
-0.500000
 20
-0.125000
 40
0.000000
 41
0.000000
 42
0.000000
  0
VERTEX
  8
CDN_FIGURES
 10
-0.500000
 20
0.125000
 40
0.000000
 41
0.000000
 42
0.000000
  0
VERTEX
  8
CDN_FIGURES
 10
-0.416000
 20
0.375000
 40
0.000000
 41
0.000000
 42
0.000000
  0
VERTEX
  8
CDN_FIGURES
 10
-0.250000
 20
0.500000
 40
0.000000
 41
0.000000
 42
0.000000
  0
VERTEX
  8
CDN_FIGURES
 10
0.250000
 20
0.500000
 40
0.000000
 41
0.000000
 42
0.000000
  0
VERTEX
  8
CDN_FIGURES
 10
0.416000
 20
0.375000
 40
0.000000
 41
0.000000
 42
0.000000
  0
VERTEX
  8
CDN_FIGURES
 10
0.500000
 20
0.125000
 40
0.000000
 41
0.000000
 42
0.000000
  0
VERTEX
  8
CDN_FIGURES
 10
0.500000
 20
-0.125000
 40
0.000000
 41
0.000000
 42
0.000000
  0
VERTEX
  8
CDN_FIGURES
 10
0.416000
 20
-0.375000
 40
0.000000
 41
0.000000
 42
0.000000
  0
VERTEX
  8
CDN_FIGURES
 10
0.250000
 20
-0.500000
 40
0.000000
 41
0.000000
 42
0.000000
  0
VERTEX
  8
CDN_FIGURES
 10
-0.250000
 20
-0.500000
 40
0.000000
 41
0.000000
 42
0.000000
  0
VERTEX
  8
CDN_FIGURES
 10
-0.416000
 20
-0.375000
 40
0.000000
 41
0.000000
 42
0.000000
  0
SEQEND
  0
ENDBLK
  0
BLOCK
  8
CDN_FIGURES
  2
FIGURE_TRI
 70
0
 10
0.000000
 20
0.000000
  0
POLYLINE
  8
CDN_FIGURES
 66
1
 70
1
 40
0.000000
 41
0.000000
 39
0.000000
  0
VERTEX
  8
CDN_FIGURES
 10
-0.500000
 20
-0.500000
 40
0.000000
 41
0.000000
 42
0.000000
  0
VERTEX
  8
CDN_FIGURES
 10
0.000000
 20
0.500000
 40
0.000000
 41
0.000000
 42
0.000000
  0
VERTEX
  8
CDN_FIGURES
 10
0.500000
 20
-0.500000
 40
0.000000
 41
0.000000
 42
0.000000
  0
SEQEND
  0
ENDBLK
  0
BLOCK
  8
CDN_FIGURES
  2
FIGURE_CROSS
 70
0
 10
0.000000
 20
0.000000
  0
POLYLINE
  8
CDN_FIGURES
 66
1
 70
0
 40
0.000000
 41
0.000000
 39
0.000000
  0
VERTEX
  8
CDN_FIGURES
 10
-0.500000
 20
0.000000
 40
0.000000
 41
0.000000
 42
0.000000
  0
VERTEX
  8
CDN_FIGURES
 10
0.500000
 20
0.000000
 40
0.000000
 41
0.000000
 42
0.000000
  0
SEQEND
  0
POLYLINE
  8
CDN_FIGURES
 66
1
 70
0
 40
0.000000
 41
0.000000
 39
0.000000
  0
VERTEX
  8
CDN_FIGURES
 10
0.000000
 20
0.500000
 40
0.000000
 41
0.000000
 42
0.000000
  0
VERTEX
  8
CDN_FIGURES
 10
0.000000
 20
-0.500000
 40
0.000000
 41
0.000000
 42
0.000000
  0
SEQEND
  0
ENDBLK
  0
BLOCK
  8
CDN_FIGURES
  2
FIGURE_DIAMOND
 70
0
 10
0.000000
 20
0.000000
  0
POLYLINE
  8
CDN_FIGURES
 66
1
 70
1
 40
0.000000
 41
0.000000
 39
0.000000
  0
VERTEX
  8
CDN_FIGURES
 10
-0.500000
 20
0.000000
 40
0.000000
 41
0.000000
 42
0.000000
  0
VERTEX
  8
CDN_FIGURES
 10
0.000000
 20
0.500000
 40
0.000000
 41
0.000000
 42
0.000000
  0
VERTEX
  8
CDN_FIGURES
 10
0.500000
 20
0.000000
 40
0.000000
 41
0.000000
 42
0.000000
  0
VERTEX
  8
CDN_FIGURES
 10
0.000000
 20
-0.500000
 40
0.000000
 41
0.000000
 42
0.000000
  0
SEQEND
  0
ENDBLK
  0
ENDSEC
  0
SECTION
  2
ENTITIES
  0
POLYLINE
  8
PIN_TOP
 66
1
 70
1
 40
0.000000
 41
0.000000
 39
0.000000
  0
VERTEX
  8
PIN_TOP
 10
36.732600
 20
39.407800
 40
0.000000
 41
0.000000
 42
0.000000
  0
VERTEX
  8
PIN_TOP
 10
35.767400
 20
39.407800
 40
0.000000
 41
0.000000
 42
0.000000
  0
VERTEX
  8
PIN_TOP
 10
35.767400
 20
40.119000
 40
0.000000
 41
0.000000
 42
0.000000
  0
VERTEX
  8
PIN_TOP
 10
36.732600
 20
40.119000
 40
0.000000
 41
0.000000
 42
0.000000
  0
SEQEND
  0
POLYLINE
  8
PIN_TOP
 66
1
 70
1
 40
0.000000
 41
0.000000
 39
0.000000
  0
VERTEX
  8
PIN_TOP
 10
36.732600
 20
40.881000
 40
0.000000
 41
0.000000
 42
0.000000
  0
VERTEX
  8
PIN_TOP
 10
35.767400
 20
40.881000
 40
0.000000
 41
0.000000
 42
0.000000
  0
VERTEX
  8
PIN_TOP
 10
35.767400
 20
41.592200
 40
0.000000
 41
0.000000
 42
0.000000
  0
VERTEX
  8
PIN_TOP
 10
36.732600
 20
41.592200
 40
0.000000
 41
0.000000
 42
0.000000
  0
SEQEND
  0
POLYLINE
  8
PACKAGE_GEOMETRY_SILKSCREEN_TO
 66
1
 70
0
 40
0.000000
 41
0.000000
 39
0.000000
  0
VERTEX
  8
PACKAGE_GEOMETRY_SILKSCREEN_TO
 10
35.805500
 20
40.500000
 40
0.203200
 41
0.203200
 42
0.000000
  0
VERTEX
  8
PACKAGE_GEOMETRY_SILKSCREEN_TO
 10
36.059500
 20
40.500000
 40
0.203200
 41
0.203200
 42
0.000000
  0
SEQEND
  0
POLYLINE
  8
PACKAGE_GEOMETRY_SILKSCREEN_TO
 66
1
 70
0
 40
0.000000
 41
0.000000
 39
0.000000
  0
VERTEX
  8
PACKAGE_GEOMETRY_SILKSCREEN_TO
 10
36.440500
 20
40.500000
 40
0.203200
 41
0.203200
 42
0.000000
  0
VERTEX
  8
PACKAGE_GEOMETRY_SILKSCREEN_TO
 10
36.694500
 20
40.500000
 40
0.203200
 41
0.203200
 42
0.000000
  0
SEQEND
  0
POLYLINE
  8
PIN_TOP
 66
1
 70
1
 40
0.000000
 41
0.000000
 39
0.000000
  0
VERTEX
  8
PIN_TOP
 10
38.232600
 20
39.407800
 40
0.000000
 41
0.000000
 42
0.000000
  0
VERTEX
  8
PIN_TOP
 10
37.267400
 20
39.407800
 40
0.000000
 41
0.000000
 42
0.000000
  0
VERTEX
  8
PIN_TOP
 10
37.267400
 20
40.119000
 40
0.000000
 41
0.000000
 42
0.000000
  0
VERTEX
  8
PIN_TOP
 10
38.232600
 20
40.119000
 40
0.000000
 41
0.000000
 42
0.000000
  0
SEQEND
  0
POLYLINE
  8
PIN_TOP
 66
1
 70
1
 40
0.000000
 41
0.000000
 39
0.000000
  0
VERTEX
  8
PIN_TOP
 10
38.232600
 20
40.881000
 40
0.000000
 41
0.000000
 42
0.000000
  0
VERTEX
  8
PIN_TOP
 10
37.267400
 20
40.881000
 40
0.000000
 41
0.000000
 42
0.000000
  0
VERTEX
  8
PIN_TOP
 10
37.267400
 20
41.592200
 40
0.000000
 41
0.000000
 42
0.000000
  0
VERTEX
  8
PIN_TOP
 10
38.232600
 20
41.592200
 40
0.000000
 41
0.000000
 42
0.000000
  0
SEQEND
  0
POLYLINE
  8
PACKAGE_GEOMETRY_SILKSCREEN_TO
 66
1
 70
0
 40
0.000000
 41
0.000000
 39
0.000000
  0
VERTEX
  8
PACKAGE_GEOMETRY_SILKSCREEN_TO
 10
37.305500
 20
40.500000
 40
0.203200
 41
0.203200
 42
0.000000
  0
VERTEX
  8
PACKAGE_GEOMETRY_SILKSCREEN_TO
 10
37.559500
 20
40.500000
 40
0.203200
 41
0.203200
 42
0.000000
  0
SEQEND
  0
POLYLINE
  8
PACKAGE_GEOMETRY_SILKSCREEN_TO
 66
1
 70
0
 40
0.000000
 41
0.000000
 39
0.000000
  0
VERTEX
  8
PACKAGE_GEOMETRY_SILKSCREEN_TO
 10
37.940500
 20
40.500000
 40
0.203200
 41
0.203200
 42
0.000000
  0
VERTEX
  8
PACKAGE_GEOMETRY_SILKSCREEN_TO
 10
38.194500
 20
40.500000
 40
0.203200
 41
0.203200
 42
0.000000
  0
SEQEND
  0
CIRCLE
  8
PIN_TOP
 10
58.980000
 20
49.020000
 40
0.825500
  0
CIRCLE
  8
PIN_TOP
 10
61.520000
 20
49.020000
 40
0.825500
  0
CIRCLE
  8
PIN_TOP
 10
58.980000
 20
46.480000
 40
0.825500
  0
CIRCLE
  8
PIN_TOP
 10
61.520000
 20
46.480000
 40
0.825500
  0
POLYLINE
  8
PIN_TOP
 66
1
 70
1
 40
0.000000
 41
0.000000
 39
0.000000
  0
VERTEX
  8
PIN_TOP
 10
38.945200
 20
39.759400
 40
0.000000
 41
0.000000
 42
0.000000
  0
VERTEX
  8
PIN_TOP
 10
39.554800
 20
39.759400
 40
0.000000
 41
0.000000
 42
0.000000
  0
VERTEX
  8
PIN_TOP
 10
39.554800
 20
39.200600
 40
0.000000
 41
0.000000
 42
0.000000
  0
VERTEX
  8
PIN_TOP
 10
38.945200
 20
39.200600
 40
0.000000
 41
0.000000
 42
0.000000
  0
SEQEND
  0
POLYLINE
  8
PIN_TOP
 66
1
 70
1
 40
0.000000
 41
0.000000
 39
0.000000
  0
VERTEX
  8
PIN_TOP
 10
38.945200
 20
38.799400
 40
0.000000
 41
0.000000
 42
0.000000
  0
VERTEX
  8
PIN_TOP
 10
39.554800
 20
38.799400
 40
0.000000
 41
0.000000
 42
0.000000
  0
VERTEX
  8
PIN_TOP
 10
39.554800
 20
38.240600
 40
0.000000
 41
0.000000
 42
0.000000
  0
VERTEX
  8
PIN_TOP
 10
38.945200
 20
38.240600
 40
0.000000
 41
0.000000
 42
0.000000
  0
SEQEND
  0
POLYLINE
  8
PACKAGE_GEOMETRY_SILKSCREEN_TO
 66
1
 70
0
 40
0.000000
 41
0.000000
 39
0.000000
  0
VERTEX
  8
PACKAGE_GEOMETRY_SILKSCREEN_TO
 10
39.500000
 20
39.000000
 40
0.203200
 41
0.203200
 42
0.000000
  0
VERTEX
  8
PACKAGE_GEOMETRY_SILKSCREEN_TO
 10
39.400000
 20
39.000000
 40
0.203200
 41
0.203200
 42
0.000000
  0
SEQEND
  0
POLYLINE
  8
PACKAGE_GEOMETRY_SILKSCREEN_TO
 66
1
 70
0
 40
0.000000
 41
0.000000
 39
0.000000
  0
VERTEX
  8
PACKAGE_GEOMETRY_SILKSCREEN_TO
 10
39.100000
 20
39.000000
 40
0.203200
 41
0.203200
 42
0.000000
  0
VERTEX
  8
PACKAGE_GEOMETRY_SILKSCREEN_TO
 10
39.000000
 20
39.000000
 40
0.203200
 41
0.203200
 42
0.000000
  0
SEQEND
  0
POLYLINE
  8
PIN_TOP
 66
1
 70
1
 40
0.000000
 41
0.000000
 39
0.000000
  0
VERTEX
  8
PIN_TOP
 10
39.554800
 20
40.240600
 40
0.000000
 41
0.000000
 42
0.000000
  0
VERTEX
  8
PIN_TOP
 10
38.945200
 20
40.240600
 40
0.000000
 41
0.000000
 42
0.000000
  0
VERTEX
  8
PIN_TOP
 10
38.945200
 20
40.799400
 40
0.000000
 41
0.000000
 42
0.000000
  0
VERTEX
  8
PIN_TOP
 10
39.554800
 20
40.799400
 40
0.000000
 41
0.000000
 42
0.000000
  0
SEQEND
  0
POLYLINE
  8
PIN_TOP
 66
1
 70
1
 40
0.000000
 41
0.000000
 39
0.000000
  0
VERTEX
  8
PIN_TOP
 10
39.554800
 20
41.200600
 40
0.000000
 41
0.000000
 42
0.000000
  0
VERTEX
  8
PIN_TOP
 10
38.945200
 20
41.200600
 40
0.000000
 41
0.000000
 42
0.000000
  0
VERTEX
  8
PIN_TOP
 10
38.945200
 20
41.759400
 40
0.000000
 41
0.000000
 42
0.000000
  0
VERTEX
  8
PIN_TOP
 10
39.554800
 20
41.759400
 40
0.000000
 41
0.000000
 42
0.000000
  0
SEQEND
  0
POLYLINE
  8
PACKAGE_GEOMETRY_SILKSCREEN_TO
 66
1
 70
0
 40
0.000000
 41
0.000000
 39
0.000000
  0
VERTEX
  8
PACKAGE_GEOMETRY_SILKSCREEN_TO
 10
39.000000
 20
41.000000
 40
0.203200
 41
0.203200
 42
0.000000
  0
VERTEX
  8
PACKAGE_GEOMETRY_SILKSCREEN_TO
 10
39.100000
 20
41.000000
 40
0.203200
 41
0.203200
 42
0.000000
  0
SEQEND
  0
POLYLINE
  8
PACKAGE_GEOMETRY_SILKSCREEN_TO
 66
1
 70
0
 40
0.000000
 41
0.000000
 39
0.000000
  0
VERTEX
  8
PACKAGE_GEOMETRY_SILKSCREEN_TO
 10
39.400000
 20
41.000000
 40
0.203200
 41
0.203200
 42
0.000000
  0
VERTEX
  8
PACKAGE_GEOMETRY_SILKSCREEN_TO
 10
39.500000
 20
41.000000
 40
0.203200
 41
0.203200
 42
0.000000
  0
SEQEND
  0
POLYLINE
  8
PIN_TOP
 66
1
 70
1
 40
0.000000
 41
0.000000
 39
0.000000
  0
VERTEX
  8
PIN_TOP
 10
43.304800
 20
40.240600
 40
0.000000
 41
0.000000
 42
0.000000
  0
VERTEX
  8
PIN_TOP
 10
42.695200
 20
40.240600
 40
0.000000
 41
0.000000
 42
0.000000
  0
VERTEX
  8
PIN_TOP
 10
42.695200
 20
40.799400
 40
0.000000
 41
0.000000
 42
0.000000
  0
VERTEX
  8
PIN_TOP
 10
43.304800
 20
40.799400
 40
0.000000
 41
0.000000
 42
0.000000
  0
SEQEND
  0
POLYLINE
  8
PIN_TOP
 66
1
 70
1
 40
0.000000
 41
0.000000
 39
0.000000
  0
VERTEX
  8
PIN_TOP
 10
43.304800
 20
41.200600
 40
0.000000
 41
0.000000
 42
0.000000
  0
VERTEX
  8
PIN_TOP
 10
42.695200
 20
41.200600
 40
0.000000
 41
0.000000
 42
0.000000
  0
VERTEX
  8
PIN_TOP
 10
42.695200
 20
41.759400
 40
0.000000
 41
0.000000
 42
0.000000
  0
VERTEX
  8
PIN_TOP
 10
43.304800
 20
41.759400
 40
0.000000
 41
0.000000
 42
0.000000
  0
SEQEND
  0
POLYLINE
  8
PACKAGE_GEOMETRY_SILKSCREEN_TO
 66
1
 70
0
 40
0.000000
 41
0.000000
 39
0.000000
  0
VERTEX
  8
PACKAGE_GEOMETRY_SILKSCREEN_TO
 10
42.750000
 20
41.000000
 40
0.203200
 41
0.203200
 42
0.000000
  0
VERTEX
  8
PACKAGE_GEOMETRY_SILKSCREEN_TO
 10
42.850000
 20
41.000000
 40
0.203200
 41
0.203200
 42
0.000000
  0
SEQEND
  0
POLYLINE
  8
PACKAGE_GEOMETRY_SILKSCREEN_TO
 66
1
 70
0
 40
0.000000
 41
0.000000
 39
0.000000
  0
VERTEX
  8
PACKAGE_GEOMETRY_SILKSCREEN_TO
 10
43.150000
 20
41.000000
 40
0.203200
 41
0.203200
 42
0.000000
  0
VERTEX
  8
PACKAGE_GEOMETRY_SILKSCREEN_TO
 10
43.250000
 20
41.000000
 40
0.203200
 41
0.203200
 42
0.000000
  0
SEQEND
  0
POLYLINE
  8
PIN_TOP
 66
1
 70
1
 40
0.000000
 41
0.000000
 39
0.000000
  0
VERTEX
  8
PIN_TOP
 10
42.695200
 20
39.759400
 40
0.000000
 41
0.000000
 42
0.000000
  0
VERTEX
  8
PIN_TOP
 10
43.304800
 20
39.759400
 40
0.000000
 41
0.000000
 42
0.000000
  0
VERTEX
  8
PIN_TOP
 10
43.304800
 20
39.200600
 40
0.000000
 41
0.000000
 42
0.000000
  0
VERTEX
  8
PIN_TOP
 10
42.695200
 20
39.200600
 40
0.000000
 41
0.000000
 42
0.000000
  0
SEQEND
  0
POLYLINE
  8
PIN_TOP
 66
1
 70
1
 40
0.000000
 41
0.000000
 39
0.000000
  0
VERTEX
  8
PIN_TOP
 10
42.695200
 20
38.799400
 40
0.000000
 41
0.000000
 42
0.000000
  0
VERTEX
  8
PIN_TOP
 10
43.304800
 20
38.799400
 40
0.000000
 41
0.000000
 42
0.000000
  0
VERTEX
  8
PIN_TOP
 10
43.304800
 20
38.240600
 40
0.000000
 41
0.000000
 42
0.000000
  0
VERTEX
  8
PIN_TOP
 10
42.695200
 20
38.240600
 40
0.000000
 41
0.000000
 42
0.000000
  0
SEQEND
  0
POLYLINE
  8
PACKAGE_GEOMETRY_SILKSCREEN_TO
 66
1
 70
0
 40
0.000000
 41
0.000000
 39
0.000000
  0
VERTEX
  8
PACKAGE_GEOMETRY_SILKSCREEN_TO
 10
43.250000
 20
39.000000
 40
0.203200
 41
0.203200
 42
0.000000
  0
VERTEX
  8
PACKAGE_GEOMETRY_SILKSCREEN_TO
 10
43.150000
 20
39.000000
 40
0.203200
 41
0.203200
 42
0.000000
  0
SEQEND
  0
POLYLINE
  8
PACKAGE_GEOMETRY_SILKSCREEN_TO
 66
1
 70
0
 40
0.000000
 41
0.000000
 39
0.000000
  0
VERTEX
  8
PACKAGE_GEOMETRY_SILKSCREEN_TO
 10
42.850000
 20
39.000000
 40
0.203200
 41
0.203200
 42
0.000000
  0
VERTEX
  8
PACKAGE_GEOMETRY_SILKSCREEN_TO
 10
42.750000
 20
39.000000
 40
0.203200
 41
0.203200
 42
0.000000
  0
SEQEND
  0
POLYLINE
  8
PIN_TOP
 66
1
 70
1
 40
0.000000
 41
0.000000
 39
0.000000
  0
VERTEX
  8
PIN_TOP
 10
42.054800
 20
40.240600
 40
0.000000
 41
0.000000
 42
0.000000
  0
VERTEX
  8
PIN_TOP
 10
41.445200
 20
40.240600
 40
0.000000
 41
0.000000
 42
0.000000
  0
VERTEX
  8
PIN_TOP
 10
41.445200
 20
40.799400
 40
0.000000
 41
0.000000
 42
0.000000
  0
VERTEX
  8
PIN_TOP
 10
42.054800
 20
40.799400
 40
0.000000
 41
0.000000
 42
0.000000
  0
SEQEND
  0
POLYLINE
  8
PIN_TOP
 66
1
 70
1
 40
0.000000
 41
0.000000
 39
0.000000
  0
VERTEX
  8
PIN_TOP
 10
42.054800
 20
41.200600
 40
0.000000
 41
0.000000
 42
0.000000
  0
VERTEX
  8
PIN_TOP
 10
41.445200
 20
41.200600
 40
0.000000
 41
0.000000
 42
0.000000
  0
VERTEX
  8
PIN_TOP
 10
41.445200
 20
41.759400
 40
0.000000
 41
0.000000
 42
0.000000
  0
VERTEX
  8
PIN_TOP
 10
42.054800
 20
41.759400
 40
0.000000
 41
0.000000
 42
0.000000
  0
SEQEND
  0
POLYLINE
  8
PACKAGE_GEOMETRY_SILKSCREEN_TO
 66
1
 70
0
 40
0.000000
 41
0.000000
 39
0.000000
  0
VERTEX
  8
PACKAGE_GEOMETRY_SILKSCREEN_TO
 10
41.500000
 20
41.000000
 40
0.203200
 41
0.203200
 42
0.000000
  0
VERTEX
  8
PACKAGE_GEOMETRY_SILKSCREEN_TO
 10
41.600000
 20
41.000000
 40
0.203200
 41
0.203200
 42
0.000000
  0
SEQEND
  0
POLYLINE
  8
PACKAGE_GEOMETRY_SILKSCREEN_TO
 66
1
 70
0
 40
0.000000
 41
0.000000
 39
0.000000
  0
VERTEX
  8
PACKAGE_GEOMETRY_SILKSCREEN_TO
 10
41.900000
 20
41.000000
 40
0.203200
 41
0.203200
 42
0.000000
  0
VERTEX
  8
PACKAGE_GEOMETRY_SILKSCREEN_TO
 10
42.000000
 20
41.000000
 40
0.203200
 41
0.203200
 42
0.000000
  0
SEQEND
  0
POLYLINE
  8
PIN_TOP
 66
1
 70
1
 40
0.000000
 41
0.000000
 39
0.000000
  0
VERTEX
  8
PIN_TOP
 10
40.804800
 20
40.240600
 40
0.000000
 41
0.000000
 42
0.000000
  0
VERTEX
  8
PIN_TOP
 10
40.195200
 20
40.240600
 40
0.000000
 41
0.000000
 42
0.000000
  0
VERTEX
  8
PIN_TOP
 10
40.195200
 20
40.799400
 40
0.000000
 41
0.000000
 42
0.000000
  0
VERTEX
  8
PIN_TOP
 10
40.804800
 20
40.799400
 40
0.000000
 41
0.000000
 42
0.000000
  0
SEQEND
  0
POLYLINE
  8
PIN_TOP
 66
1
 70
1
 40
0.000000
 41
0.000000
 39
0.000000
  0
VERTEX
  8
PIN_TOP
 10
40.804800
 20
41.200600
 40
0.000000
 41
0.000000
 42
0.000000
  0
VERTEX
  8
PIN_TOP
 10
40.195200
 20
41.200600
 40
0.000000
 41
0.000000
 42
0.000000
  0
VERTEX
  8
PIN_TOP
 10
40.195200
 20
41.759400
 40
0.000000
 41
0.000000
 42
0.000000
  0
VERTEX
  8
PIN_TOP
 10
40.804800
 20
41.759400
 40
0.000000
 41
0.000000
 42
0.000000
  0
SEQEND
  0
POLYLINE
  8
PACKAGE_GEOMETRY_SILKSCREEN_TO
 66
1
 70
0
 40
0.000000
 41
0.000000
 39
0.000000
  0
VERTEX
  8
PACKAGE_GEOMETRY_SILKSCREEN_TO
 10
40.250000
 20
41.000000
 40
0.203200
 41
0.203200
 42
0.000000
  0
VERTEX
  8
PACKAGE_GEOMETRY_SILKSCREEN_TO
 10
40.350000
 20
41.000000
 40
0.203200
 41
0.203200
 42
0.000000
  0
SEQEND
  0
POLYLINE
  8
PACKAGE_GEOMETRY_SILKSCREEN_TO
 66
1
 70
0
 40
0.000000
 41
0.000000
 39
0.000000
  0
VERTEX
  8
PACKAGE_GEOMETRY_SILKSCREEN_TO
 10
40.650000
 20
41.000000
 40
0.203200
 41
0.203200
 42
0.000000
  0
VERTEX
  8
PACKAGE_GEOMETRY_SILKSCREEN_TO
 10
40.750000
 20
41.000000
 40
0.203200
 41
0.203200
 42
0.000000
  0
SEQEND
  0
POLYLINE
  8
PIN_TOP
 66
1
 70
1
 40
0.000000
 41
0.000000
 39
0.000000
  0
VERTEX
  8
PIN_TOP
 10
41.445200
 20
39.759400
 40
0.000000
 41
0.000000
 42
0.000000
  0
VERTEX
  8
PIN_TOP
 10
42.054800
 20
39.759400
 40
0.000000
 41
0.000000
 42
0.000000
  0
VERTEX
  8
PIN_TOP
 10
42.054800
 20
39.200600
 40
0.000000
 41
0.000000
 42
0.000000
  0
VERTEX
  8
PIN_TOP
 10
41.445200
 20
39.200600
 40
0.000000
 41
0.000000
 42
0.000000
  0
SEQEND
  0
POLYLINE
  8
PIN_TOP
 66
1
 70
1
 40
0.000000
 41
0.000000
 39
0.000000
  0
VERTEX
  8
PIN_TOP
 10
41.445200
 20
38.799400
 40
0.000000
 41
0.000000
 42
0.000000
  0
VERTEX
  8
PIN_TOP
 10
42.054800
 20
38.799400
 40
0.000000
 41
0.000000
 42
0.000000
  0
VERTEX
  8
PIN_TOP
 10
42.054800
 20
38.240600
 40
0.000000
 41
0.000000
 42
0.000000
  0
VERTEX
  8
PIN_TOP
 10
41.445200
 20
38.240600
 40
0.000000
 41
0.000000
 42
0.000000
  0
SEQEND
  0
POLYLINE
  8
PACKAGE_GEOMETRY_SILKSCREEN_TO
 66
1
 70
0
 40
0.000000
 41
0.000000
 39
0.000000
  0
VERTEX
  8
PACKAGE_GEOMETRY_SILKSCREEN_TO
 10
42.000000
 20
39.000000
 40
0.203200
 41
0.203200
 42
0.000000
  0
VERTEX
  8
PACKAGE_GEOMETRY_SILKSCREEN_TO
 10
41.900000
 20
39.000000
 40
0.203200
 41
0.203200
 42
0.000000
  0
SEQEND
  0
POLYLINE
  8
PACKAGE_GEOMETRY_SILKSCREEN_TO
 66
1
 70
0
 40
0.000000
 41
0.000000
 39
0.000000
  0
VERTEX
  8
PACKAGE_GEOMETRY_SILKSCREEN_TO
 10
41.600000
 20
39.000000
 40
0.203200
 41
0.203200
 42
0.000000
  0
VERTEX
  8
PACKAGE_GEOMETRY_SILKSCREEN_TO
 10
41.500000
 20
39.000000
 40
0.203200
 41
0.203200
 42
0.000000
  0
SEQEND
  0
POLYLINE
  8
PIN_TOP
 66
1
 70
1
 40
0.000000
 41
0.000000
 39
0.000000
  0
VERTEX
  8
PIN_TOP
 10
40.195200
 20
39.759400
 40
0.000000
 41
0.000000
 42
0.000000
  0
VERTEX
  8
PIN_TOP
 10
40.804800
 20
39.759400
 40
0.000000
 41
0.000000
 42
0.000000
  0
VERTEX
  8
PIN_TOP
 10
40.804800
 20
39.200600
 40
0.000000
 41
0.000000
 42
0.000000
  0
VERTEX
  8
PIN_TOP
 10
40.195200
 20
39.200600
 40
0.000000
 41
0.000000
 42
0.000000
  0
SEQEND
  0
POLYLINE
  8
PIN_TOP
 66
1
 70
1
 40
0.000000
 41
0.000000
 39
0.000000
  0
VERTEX
  8
PIN_TOP
 10
40.195200
 20
38.799400
 40
0.000000
 41
0.000000
 42
0.000000
  0
VERTEX
  8
PIN_TOP
 10
40.804800
 20
38.799400
 40
0.000000
 41
0.000000
 42
0.000000
  0
VERTEX
  8
PIN_TOP
 10
40.804800
 20
38.240600
 40
0.000000
 41
0.000000
 42
0.000000
  0
VERTEX
  8
PIN_TOP
 10
40.195200
 20
38.240600
 40
0.000000
 41
0.000000
 42
0.000000
  0
SEQEND
  0
POLYLINE
  8
PACKAGE_GEOMETRY_SILKSCREEN_TO
 66
1
 70
0
 40
0.000000
 41
0.000000
 39
0.000000
  0
VERTEX
  8
PACKAGE_GEOMETRY_SILKSCREEN_TO
 10
40.750000
 20
39.000000
 40
0.203200
 41
0.203200
 42
0.000000
  0
VERTEX
  8
PACKAGE_GEOMETRY_SILKSCREEN_TO
 10
40.650000
 20
39.000000
 40
0.203200
 41
0.203200
 42
0.000000
  0
SEQEND
  0
POLYLINE
  8
PACKAGE_GEOMETRY_SILKSCREEN_TO
 66
1
 70
0
 40
0.000000
 41
0.000000
 39
0.000000
  0
VERTEX
  8
PACKAGE_GEOMETRY_SILKSCREEN_TO
 10
40.350000
 20
39.000000
 40
0.203200
 41
0.203200
 42
0.000000
  0
VERTEX
  8
PACKAGE_GEOMETRY_SILKSCREEN_TO
 10
40.250000
 20
39.000000
 40
0.203200
 41
0.203200
 42
0.000000
  0
SEQEND
  0
POLYLINE
  8
PIN_TOP
 66
1
 70
1
 40
0.000000
 41
0.000000
 39
0.000000
  0
VERTEX
  8
PIN_TOP
 10
16.490600
 20
49.945200
 40
0.000000
 41
0.000000
 42
0.000000
  0
VERTEX
  8
PIN_TOP
 10
16.490600
 20
50.554800
 40
0.000000
 41
0.000000
 42
0.000000
  0
VERTEX
  8
PIN_TOP
 10
17.049400
 20
50.554800
 40
0.000000
 41
0.000000
 42
0.000000
  0
VERTEX
  8
PIN_TOP
 10
17.049400
 20
49.945200
 40
0.000000
 41
0.000000
 42
0.000000
  0
SEQEND
  0
POLYLINE
  8
PIN_TOP
 66
1
 70
1
 40
0.000000
 41
0.000000
 39
0.000000
  0
VERTEX
  8
PIN_TOP
 10
17.450600
 20
49.945200
 40
0.000000
 41
0.000000
 42
0.000000
  0
VERTEX
  8
PIN_TOP
 10
17.450600
 20
50.554800
 40
0.000000
 41
0.000000
 42
0.000000
  0
VERTEX
  8
PIN_TOP
 10
18.009400
 20
50.554800
 40
0.000000
 41
0.000000
 42
0.000000
  0
VERTEX
  8
PIN_TOP
 10
18.009400
 20
49.945200
 40
0.000000
 41
0.000000
 42
0.000000
  0
SEQEND
  0
POLYLINE
  8
PACKAGE_GEOMETRY_SILKSCREEN_TO
 66
1
 70
0
 40
0.000000
 41
0.000000
 39
0.000000
  0
VERTEX
  8
PACKAGE_GEOMETRY_SILKSCREEN_TO
 10
17.250000
 20
50.500000
 40
0.203200
 41
0.203200
 42
0.000000
  0
VERTEX
  8
PACKAGE_GEOMETRY_SILKSCREEN_TO
 10
17.250000
 20
50.400000
 40
0.203200
 41
0.203200
 42
0.000000
  0
SEQEND
  0
POLYLINE
  8
PACKAGE_GEOMETRY_SILKSCREEN_TO
 66
1
 70
0
 40
0.000000
 41
0.000000
 39
0.000000
  0
VERTEX
  8
PACKAGE_GEOMETRY_SILKSCREEN_TO
 10
17.250000
 20
50.100000
 40
0.203200
 41
0.203200
 42
0.000000
  0
VERTEX
  8
PACKAGE_GEOMETRY_SILKSCREEN_TO
 10
17.250000
 20
50.000000
 40
0.203200
 41
0.203200
 42
0.000000
  0
SEQEND
  0
POLYLINE
  8
PIN_TOP
 66
1
 70
1
 40
0.000000
 41
0.000000
 39
0.000000
  0
VERTEX
  8
PIN_TOP
 10
25.825500
 20
29.078500
 40
0.000000
 41
0.000000
 42
0.000000
  0
VERTEX
  8
PIN_TOP
 10
24.174500
 20
29.078500
 40
0.000000
 41
0.000000
 42
0.000000
  0
VERTEX
  8
PIN_TOP
 10
24.174500
 20
30.221500
 40
0.000000
 41
0.000000
 42
0.000000
  0
VERTEX
  8
PIN_TOP
 10
25.825500
 20
30.221500
 40
0.000000
 41
0.000000
 42
0.000000
  0
SEQEND
  0
POLYLINE
  8
PIN_TOP
 66
1
 70
1
 40
0.000000
 41
0.000000
 39
0.000000
  0
VERTEX
  8
PIN_TOP
 10
25.825500
 20
31.778500
 40
0.000000
 41
0.000000
 42
0.000000
  0
VERTEX
  8
PIN_TOP
 10
24.174500
 20
31.778500
 40
0.000000
 41
0.000000
 42
0.000000
  0
VERTEX
  8
PIN_TOP
 10
24.174500
 20
32.921500
 40
0.000000
 41
0.000000
 42
0.000000
  0
VERTEX
  8
PIN_TOP
 10
25.825500
 20
32.921500
 40
0.000000
 41
0.000000
 42
0.000000
  0
SEQEND
  0
POLYLINE
  8
PIN_TOP
 66
1
 70
1
 40
0.000000
 41
0.000000
 39
0.000000
  0
VERTEX
  8
PIN_TOP
 10
28.325500
 20
29.078500
 40
0.000000
 41
0.000000
 42
0.000000
  0
VERTEX
  8
PIN_TOP
 10
26.674500
 20
29.078500
 40
0.000000
 41
0.000000
 42
0.000000
  0
VERTEX
  8
PIN_TOP
 10
26.674500
 20
30.221500
 40
0.000000
 41
0.000000
 42
0.000000
  0
VERTEX
  8
PIN_TOP
 10
28.325500
 20
30.221500
 40
0.000000
 41
0.000000
 42
0.000000
  0
SEQEND
  0
POLYLINE
  8
PIN_TOP
 66
1
 70
1
 40
0.000000
 41
0.000000
 39
0.000000
  0
VERTEX
  8
PIN_TOP
 10
28.325500
 20
31.778500
 40
0.000000
 41
0.000000
 42
0.000000
  0
VERTEX
  8
PIN_TOP
 10
26.674500
 20
31.778500
 40
0.000000
 41
0.000000
 42
0.000000
  0
VERTEX
  8
PIN_TOP
 10
26.674500
 20
32.921500
 40
0.000000
 41
0.000000
 42
0.000000
  0
VERTEX
  8
PIN_TOP
 10
28.325500
 20
32.921500
 40
0.000000
 41
0.000000
 42
0.000000
  0
SEQEND
  0
POLYLINE
  8
PIN_TOP
 66
1
 70
1
 40
0.000000
 41
0.000000
 39
0.000000
  0
VERTEX
  8
PIN_TOP
 10
24.174500
 20
39.921500
 40
0.000000
 41
0.000000
 42
0.000000
  0
VERTEX
  8
PIN_TOP
 10
25.825500
 20
39.921500
 40
0.000000
 41
0.000000
 42
0.000000
  0
VERTEX
  8
PIN_TOP
 10
25.825500
 20
38.778500
 40
0.000000
 41
0.000000
 42
0.000000
  0
VERTEX
  8
PIN_TOP
 10
24.174500
 20
38.778500
 40
0.000000
 41
0.000000
 42
0.000000
  0
SEQEND
  0
POLYLINE
  8
PIN_TOP
 66
1
 70
1
 40
0.000000
 41
0.000000
 39
0.000000
  0
VERTEX
  8
PIN_TOP
 10
24.174500
 20
37.221500
 40
0.000000
 41
0.000000
 42
0.000000
  0
VERTEX
  8
PIN_TOP
 10
25.825500
 20
37.221500
 40
0.000000
 41
0.000000
 42
0.000000
  0
VERTEX
  8
PIN_TOP
 10
25.825500
 20
36.078500
 40
0.000000
 41
0.000000
 42
0.000000
  0
VERTEX
  8
PIN_TOP
 10
24.174500
 20
36.078500
 40
0.000000
 41
0.000000
 42
0.000000
  0
SEQEND
  0
POLYLINE
  8
PIN_TOP
 66
1
 70
1
 40
0.000000
 41
0.000000
 39
0.000000
  0
VERTEX
  8
PIN_TOP
 10
26.424500
 20
39.921500
 40
0.000000
 41
0.000000
 42
0.000000
  0
VERTEX
  8
PIN_TOP
 10
28.075500
 20
39.921500
 40
0.000000
 41
0.000000
 42
0.000000
  0
VERTEX
  8
PIN_TOP
 10
28.075500
 20
38.778500
 40
0.000000
 41
0.000000
 42
0.000000
  0
VERTEX
  8
PIN_TOP
 10
26.424500
 20
38.778500
 40
0.000000
 41
0.000000
 42
0.000000
  0
SEQEND
  0
POLYLINE
  8
PIN_TOP
 66
1
 70
1
 40
0.000000
 41
0.000000
 39
0.000000
  0
VERTEX
  8
PIN_TOP
 10
26.424500
 20
37.221500
 40
0.000000
 41
0.000000
 42
0.000000
  0
VERTEX
  8
PIN_TOP
 10
28.075500
 20
37.221500
 40
0.000000
 41
0.000000
 42
0.000000
  0
VERTEX
  8
PIN_TOP
 10
28.075500
 20
36.078500
 40
0.000000
 41
0.000000
 42
0.000000
  0
VERTEX
  8
PIN_TOP
 10
26.424500
 20
36.078500
 40
0.000000
 41
0.000000
 42
0.000000
  0
SEQEND
  0
POLYLINE
  8
PIN_TOP
 66
1
 70
1
 40
0.000000
 41
0.000000
 39
0.000000
  0
VERTEX
  8
PIN_TOP
 10
33.828500
 20
42.674500
 40
0.000000
 41
0.000000
 42
0.000000
  0
VERTEX
  8
PIN_TOP
 10
33.828500
 20
44.325500
 40
0.000000
 41
0.000000
 42
0.000000
  0
VERTEX
  8
PIN_TOP
 10
34.971500
 20
44.325500
 40
0.000000
 41
0.000000
 42
0.000000
  0
VERTEX
  8
PIN_TOP
 10
34.971500
 20
42.674500
 40
0.000000
 41
0.000000
 42
0.000000
  0
SEQEND
  0
POLYLINE
  8
PIN_TOP
 66
1
 70
1
 40
0.000000
 41
0.000000
 39
0.000000
  0
VERTEX
  8
PIN_TOP
 10
36.528500
 20
42.674500
 40
0.000000
 41
0.000000
 42
0.000000
  0
VERTEX
  8
PIN_TOP
 10
36.528500
 20
44.325500
 40
0.000000
 41
0.000000
 42
0.000000
  0
VERTEX
  8
PIN_TOP
 10
37.671500
 20
44.325500
 40
0.000000
 41
0.000000
 42
0.000000
  0
VERTEX
  8
PIN_TOP
 10
37.671500
 20
42.674500
 40
0.000000
 41
0.000000
 42
0.000000
  0
SEQEND
  0
POLYLINE
  8
PIN_TOP
 66
1
 70
1
 40
0.000000
 41
0.000000
 39
0.000000
  0
VERTEX
  8
PIN_TOP
 10
21.317500
 20
32.642000
 40
0.000000
 41
0.000000
 42
0.000000
  0
VERTEX
  8
PIN_TOP
 10
20.682500
 20
32.642000
 40
0.000000
 41
0.000000
 42
0.000000
  0
VERTEX
  8
PIN_TOP
 10
20.682500
 20
33.658000
 40
0.000000
 41
0.000000
 42
0.000000
  0
VERTEX
  8
PIN_TOP
 10
21.317500
 20
33.658000
 40
0.000000
 41
0.000000
 42
0.000000
  0
SEQEND
  0
POLYLINE
  8
PIN_TOP
 66
1
 70
1
 40
0.000000
 41
0.000000
 39
0.000000
  0
VERTEX
  8
PIN_TOP
 10
22.317500
 20
32.642000
 40
0.000000
 41
0.000000
 42
0.000000
  0
VERTEX
  8
PIN_TOP
 10
21.682500
 20
32.642000
 40
0.000000
 41
0.000000
 42
0.000000
  0
VERTEX
  8
PIN_TOP
 10
21.682500
 20
33.658000
 40
0.000000
 41
0.000000
 42
0.000000
  0
VERTEX
  8
PIN_TOP
 10
22.317500
 20
33.658000
 40
0.000000
 41
0.000000
 42
0.000000
  0
SEQEND
  0
POLYLINE
  8
PIN_TOP
 66
1
 70
1
 40
0.000000
 41
0.000000
 39
0.000000
  0
VERTEX
  8
PIN_TOP
 10
23.317500
 20
32.642000
 40
0.000000
 41
0.000000
 42
0.000000
  0
VERTEX
  8
PIN_TOP
 10
22.682500
 20
32.642000
 40
0.000000
 41
0.000000
 42
0.000000
  0
VERTEX
  8
PIN_TOP
 10
22.682500
 20
33.658000
 40
0.000000
 41
0.000000
 42
0.000000
  0
VERTEX
  8
PIN_TOP
 10
23.317500
 20
33.658000
 40
0.000000
 41
0.000000
 42
0.000000
  0
SEQEND
  0
POLYLINE
  8
PIN_TOP
 66
1
 70
1
 40
0.000000
 41
0.000000
 39
0.000000
  0
VERTEX
  8
PIN_TOP
 10
23.317500
 20
35.342000
 40
0.000000
 41
0.000000
 42
0.000000
  0
VERTEX
  8
PIN_TOP
 10
22.682500
 20
35.342000
 40
0.000000
 41
0.000000
 42
0.000000
  0
VERTEX
  8
PIN_TOP
 10
22.682500
 20
36.358000
 40
0.000000
 41
0.000000
 42
0.000000
  0
VERTEX
  8
PIN_TOP
 10
23.317500
 20
36.358000
 40
0.000000
 41
0.000000
 42
0.000000
  0
SEQEND
  0
POLYLINE
  8
PIN_TOP
 66
1
 70
1
 40
0.000000
 41
0.000000
 39
0.000000
  0
VERTEX
  8
PIN_TOP
 10
21.317500
 20
35.342000
 40
0.000000
 41
0.000000
 42
0.000000
  0
VERTEX
  8
PIN_TOP
 10
20.682500
 20
35.342000
 40
0.000000
 41
0.000000
 42
0.000000
  0
VERTEX
  8
PIN_TOP
 10
20.682500
 20
36.358000
 40
0.000000
 41
0.000000
 42
0.000000
  0
VERTEX
  8
PIN_TOP
 10
21.317500
 20
36.358000
 40
0.000000
 41
0.000000
 42
0.000000
  0
SEQEND
  0
POLYLINE
  8
PACKAGE_GEOMETRY_SILKSCREEN_TO
 66
1
 70
0
 40
0.000000
 41
0.000000
 39
0.000000
  0
VERTEX
  8
PACKAGE_GEOMETRY_SILKSCREEN_TO
 10
20.800000
 20
34.050000
 40
0.200000
 41
0.200000
 42
0.000000
  0
VERTEX
  8
PACKAGE_GEOMETRY_SILKSCREEN_TO
 10
20.400000
 20
34.050000
 40
0.200000
 41
0.200000
 42
0.000000
  0
VERTEX
  8
PACKAGE_GEOMETRY_SILKSCREEN_TO
 10
20.400000
 20
34.950000
 40
0.200000
 41
0.200000
 42
0.000000
  0
VERTEX
  8
PACKAGE_GEOMETRY_SILKSCREEN_TO
 10
20.850000
 20
34.950000
 40
0.200000
 41
0.200000
 42
0.000000
  0
SEQEND
  0
POLYLINE
  8
PACKAGE_GEOMETRY_SILKSCREEN_TO
 66
1
 70
0
 40
0.000000
 41
0.000000
 39
0.000000
  0
VERTEX
  8
PACKAGE_GEOMETRY_SILKSCREEN_TO
 10
23.200000
 20
34.050000
 40
0.200000
 41
0.200000
 42
0.000000
  0
VERTEX
  8
PACKAGE_GEOMETRY_SILKSCREEN_TO
 10
23.600000
 20
34.050000
 40
0.200000
 41
0.200000
 42
0.000000
  0
VERTEX
  8
PACKAGE_GEOMETRY_SILKSCREEN_TO
 10
23.600000
 20
34.950000
 40
0.200000
 41
0.200000
 42
0.000000
  0
VERTEX
  8
PACKAGE_GEOMETRY_SILKSCREEN_TO
 10
23.200000
 20
34.950000
 40
0.200000
 41
0.200000
 42
0.000000
  0
SEQEND
  0
POLYLINE
  8
PIN_TOP
 66
1
 70
1
 40
0.000000
 41
0.000000
 39
0.000000
  0
VERTEX
  8
PIN_TOP
 10
45.898500
 20
5.651000
 40
0.000000
 41
0.000000
 42
0.000000
  0
VERTEX
  8
PIN_TOP
 10
45.898500
 20
7.937000
 40
0.000000
 41
0.000000
 42
0.000000
  0
VERTEX
  8
PIN_TOP
 10
47.041500
 20
7.937000
 40
0.000000
 41
0.000000
 42
0.000000
  0
VERTEX
  8
PIN_TOP
 10
47.041500
 20
5.651000
 40
0.000000
 41
0.000000
 42
0.000000
  0
SEQEND
  0
POLYLINE
  8
PIN_TOP
 66
1
 70
1
 40
0.000000
 41
0.000000
 39
0.000000
  0
VERTEX
  8
PIN_TOP
 10
45.898500
 20
0.063000
 40
0.000000
 41
0.000000
 42
0.000000
  0
VERTEX
  8
PIN_TOP
 10
45.898500
 20
2.349000
 40
0.000000
 41
0.000000
 42
0.000000
  0
VERTEX
  8
PIN_TOP
 10
47.041500
 20
2.349000
 40
0.000000
 41
0.000000
 42
0.000000
  0
VERTEX
  8
PIN_TOP
 10
47.041500
 20
0.063000
 40
0.000000
 41
0.000000
 42
0.000000
  0
SEQEND
  0
POLYLINE
  8
PIN_TOP
 66
1
 70
1
 40
0.000000
 41
0.000000
 39
0.000000
  0
VERTEX
  8
PIN_TOP
 10
48.438500
 20
5.651000
 40
0.000000
 41
0.000000
 42
0.000000
  0
VERTEX
  8
PIN_TOP
 10
48.438500
 20
7.937000
 40
0.000000
 41
0.000000
 42
0.000000
  0
VERTEX
  8
PIN_TOP
 10
49.581500
 20
7.937000
 40
0.000000
 41
0.000000
 42
0.000000
  0
VERTEX
  8
PIN_TOP
 10
49.581500
 20
5.651000
 40
0.000000
 41
0.000000
 42
0.000000
  0
SEQEND
  0
POLYLINE
  8
PIN_TOP
 66
1
 70
1
 40
0.000000
 41
0.000000
 39
0.000000
  0
VERTEX
  8
PIN_TOP
 10
48.438500
 20
0.063000
 40
0.000000
 41
0.000000
 42
0.000000
  0
VERTEX
  8
PIN_TOP
 10
48.438500
 20
2.349000
 40
0.000000
 41
0.000000
 42
0.000000
  0
VERTEX
  8
PIN_TOP
 10
49.581500
 20
2.349000
 40
0.000000
 41
0.000000
 42
0.000000
  0
VERTEX
  8
PIN_TOP
 10
49.581500
 20
0.063000
 40
0.000000
 41
0.000000
 42
0.000000
  0
SEQEND
  0
POLYLINE
  8
PIN_TOP
 66
1
 70
1
 40
0.000000
 41
0.000000
 39
0.000000
  0
VERTEX
  8
PIN_TOP
 10
50.978500
 20
5.651000
 40
0.000000
 41
0.000000
 42
0.000000
  0
VERTEX
  8
PIN_TOP
 10
50.978500
 20
7.937000
 40
0.000000
 41
0.000000
 42
0.000000
  0
VERTEX
  8
PIN_TOP
 10
52.121500
 20
7.937000
 40
0.000000
 41
0.000000
 42
0.000000
  0
VERTEX
  8
PIN_TOP
 10
52.121500
 20
5.651000
 40
0.000000
 41
0.000000
 42
0.000000
  0
SEQEND
  0
POLYLINE
  8
PIN_TOP
 66
1
 70
1
 40
0.000000
 41
0.000000
 39
0.000000
  0
VERTEX
  8
PIN_TOP
 10
50.978500
 20
0.063000
 40
0.000000
 41
0.000000
 42
0.000000
  0
VERTEX
  8
PIN_TOP
 10
50.978500
 20
2.349000
 40
0.000000
 41
0.000000
 42
0.000000
  0
VERTEX
  8
PIN_TOP
 10
52.121500
 20
2.349000
 40
0.000000
 41
0.000000
 42
0.000000
  0
VERTEX
  8
PIN_TOP
 10
52.121500
 20
0.063000
 40
0.000000
 41
0.000000
 42
0.000000
  0
SEQEND
  0
POLYLINE
  8
PIN_TOP
 66
1
 70
1
 40
0.000000
 41
0.000000
 39
0.000000
  0
VERTEX
  8
PIN_TOP
 10
53.518500
 20
5.651000
 40
0.000000
 41
0.000000
 42
0.000000
  0
VERTEX
  8
PIN_TOP
 10
53.518500
 20
7.937000
 40
0.000000
 41
0.000000
 42
0.000000
  0
VERTEX
  8
PIN_TOP
 10
54.661500
 20
7.937000
 40
0.000000
 41
0.000000
 42
0.000000
  0
VERTEX
  8
PIN_TOP
 10
54.661500
 20
5.651000
 40
0.000000
 41
0.000000
 42
0.000000
  0
SEQEND
  0
POLYLINE
  8
PIN_TOP
 66
1
 70
1
 40
0.000000
 41
0.000000
 39
0.000000
  0
VERTEX
  8
PIN_TOP
 10
53.518500
 20
0.063000
 40
0.000000
 41
0.000000
 42
0.000000
  0
VERTEX
  8
PIN_TOP
 10
53.518500
 20
2.349000
 40
0.000000
 41
0.000000
 42
0.000000
  0
VERTEX
  8
PIN_TOP
 10
54.661500
 20
2.349000
 40
0.000000
 41
0.000000
 42
0.000000
  0
VERTEX
  8
PIN_TOP
 10
54.661500
 20
0.063000
 40
0.000000
 41
0.000000
 42
0.000000
  0
SEQEND
  0
POLYLINE
  8
PIN_TOP
 66
1
 70
1
 40
0.000000
 41
0.000000
 39
0.000000
  0
VERTEX
  8
PIN_TOP
 10
56.058500
 20
5.651000
 40
0.000000
 41
0.000000
 42
0.000000
  0
VERTEX
  8
PIN_TOP
 10
56.058500
 20
7.937000
 40
0.000000
 41
0.000000
 42
0.000000
  0
VERTEX
  8
PIN_TOP
 10
57.201500
 20
7.937000
 40
0.000000
 41
0.000000
 42
0.000000
  0
VERTEX
  8
PIN_TOP
 10
57.201500
 20
5.651000
 40
0.000000
 41
0.000000
 42
0.000000
  0
SEQEND
  0
POLYLINE
  8
PIN_TOP
 66
1
 70
1
 40
0.000000
 41
0.000000
 39
0.000000
  0
VERTEX
  8
PIN_TOP
 10
56.058500
 20
0.063000
 40
0.000000
 41
0.000000
 42
0.000000
  0
VERTEX
  8
PIN_TOP
 10
56.058500
 20
2.349000
 40
0.000000
 41
0.000000
 42
0.000000
  0
VERTEX
  8
PIN_TOP
 10
57.201500
 20
2.349000
 40
0.000000
 41
0.000000
 42
0.000000
  0
VERTEX
  8
PIN_TOP
 10
57.201500
 20
0.063000
 40
0.000000
 41
0.000000
 42
0.000000
  0
SEQEND
  0
POLYLINE
  8
PIN_TOP
 66
1
 70
1
 40
0.000000
 41
0.000000
 39
0.000000
  0
VERTEX
  8
PIN_TOP
 10
43.358500
 20
0.063000
 40
0.000000
 41
0.000000
 42
0.000000
  0
VERTEX
  8
PIN_TOP
 10
43.358500
 20
2.349000
 40
0.000000
 41
0.000000
 42
0.000000
  0
VERTEX
  8
PIN_TOP
 10
44.501500
 20
2.349000
 40
0.000000
 41
0.000000
 42
0.000000
  0
VERTEX
  8
PIN_TOP
 10
44.501500
 20
0.063000
 40
0.000000
 41
0.000000
 42
0.000000
  0
SEQEND
  0
POLYLINE
  8
PIN_TOP
 66
1
 70
1
 40
0.000000
 41
0.000000
 39
0.000000
  0
VERTEX
  8
PIN_TOP
 10
43.358500
 20
5.651000
 40
0.000000
 41
0.000000
 42
0.000000
  0
VERTEX
  8
PIN_TOP
 10
43.358500
 20
7.937000
 40
0.000000
 41
0.000000
 42
0.000000
  0
VERTEX
  8
PIN_TOP
 10
44.501500
 20
7.937000
 40
0.000000
 41
0.000000
 42
0.000000
  0
VERTEX
  8
PIN_TOP
 10
44.501500
 20
5.651000
 40
0.000000
 41
0.000000
 42
0.000000
  0
SEQEND
  0
POLYLINE
  8
PIN_TOP
 66
1
 70
1
 40
0.000000
 41
0.000000
 39
0.000000
  0
VERTEX
  8
PIN_TOP
 10
40.818500
 20
0.063000
 40
0.000000
 41
0.000000
 42
0.000000
  0
VERTEX
  8
PIN_TOP
 10
40.818500
 20
2.349000
 40
0.000000
 41
0.000000
 42
0.000000
  0
VERTEX
  8
PIN_TOP
 10
41.961500
 20
2.349000
 40
0.000000
 41
0.000000
 42
0.000000
  0
VERTEX
  8
PIN_TOP
 10
41.961500
 20
0.063000
 40
0.000000
 41
0.000000
 42
0.000000
  0
SEQEND
  0
POLYLINE
  8
PIN_TOP
 66
1
 70
1
 40
0.000000
 41
0.000000
 39
0.000000
  0
VERTEX
  8
PIN_TOP
 10
40.818500
 20
5.651000
 40
0.000000
 41
0.000000
 42
0.000000
  0
VERTEX
  8
PIN_TOP
 10
40.818500
 20
7.937000
 40
0.000000
 41
0.000000
 42
0.000000
  0
VERTEX
  8
PIN_TOP
 10
41.961500
 20
7.937000
 40
0.000000
 41
0.000000
 42
0.000000
  0
VERTEX
  8
PIN_TOP
 10
41.961500
 20
5.651000
 40
0.000000
 41
0.000000
 42
0.000000
  0
SEQEND
  0
POLYLINE
  8
PIN_TOP
 66
1
 70
1
 40
0.000000
 41
0.000000
 39
0.000000
  0
VERTEX
  8
PIN_TOP
 10
38.278500
 20
0.063000
 40
0.000000
 41
0.000000
 42
0.000000
  0
VERTEX
  8
PIN_TOP
 10
38.278500
 20
2.349000
 40
0.000000
 41
0.000000
 42
0.000000
  0
VERTEX
  8
PIN_TOP
 10
39.421500
 20
2.349000
 40
0.000000
 41
0.000000
 42
0.000000
  0
VERTEX
  8
PIN_TOP
 10
39.421500
 20
0.063000
 40
0.000000
 41
0.000000
 42
0.000000
  0
SEQEND
  0
POLYLINE
  8
PIN_TOP
 66
1
 70
1
 40
0.000000
 41
0.000000
 39
0.000000
  0
VERTEX
  8
PIN_TOP
 10
38.278500
 20
5.651000
 40
0.000000
 41
0.000000
 42
0.000000
  0
VERTEX
  8
PIN_TOP
 10
38.278500
 20
7.937000
 40
0.000000
 41
0.000000
 42
0.000000
  0
VERTEX
  8
PIN_TOP
 10
39.421500
 20
7.937000
 40
0.000000
 41
0.000000
 42
0.000000
  0
VERTEX
  8
PIN_TOP
 10
39.421500
 20
5.651000
 40
0.000000
 41
0.000000
 42
0.000000
  0
SEQEND
  0
POLYLINE
  8
PIN_TOP
 66
1
 70
1
 40
0.000000
 41
0.000000
 39
0.000000
  0
VERTEX
  8
PIN_TOP
 10
35.738500
 20
0.063000
 40
0.000000
 41
0.000000
 42
0.000000
  0
VERTEX
  8
PIN_TOP
 10
35.738500
 20
2.349000
 40
0.000000
 41
0.000000
 42
0.000000
  0
VERTEX
  8
PIN_TOP
 10
36.881500
 20
2.349000
 40
0.000000
 41
0.000000
 42
0.000000
  0
VERTEX
  8
PIN_TOP
 10
36.881500
 20
0.063000
 40
0.000000
 41
0.000000
 42
0.000000
  0
SEQEND
  0
POLYLINE
  8
PIN_TOP
 66
1
 70
1
 40
0.000000
 41
0.000000
 39
0.000000
  0
VERTEX
  8
PIN_TOP
 10
35.738500
 20
5.651000
 40
0.000000
 41
0.000000
 42
0.000000
  0
VERTEX
  8
PIN_TOP
 10
35.738500
 20
7.937000
 40
0.000000
 41
0.000000
 42
0.000000
  0
VERTEX
  8
PIN_TOP
 10
36.881500
 20
7.937000
 40
0.000000
 41
0.000000
 42
0.000000
  0
VERTEX
  8
PIN_TOP
 10
36.881500
 20
5.651000
 40
0.000000
 41
0.000000
 42
0.000000
  0
SEQEND
  0
POLYLINE
  8
PIN_TOP
 66
1
 70
1
 40
0.000000
 41
0.000000
 39
0.000000
  0
VERTEX
  8
PIN_TOP
 10
33.198500
 20
0.063000
 40
0.000000
 41
0.000000
 42
0.000000
  0
VERTEX
  8
PIN_TOP
 10
33.198500
 20
2.349000
 40
0.000000
 41
0.000000
 42
0.000000
  0
VERTEX
  8
PIN_TOP
 10
34.341500
 20
2.349000
 40
0.000000
 41
0.000000
 42
0.000000
  0
VERTEX
  8
PIN_TOP
 10
34.341500
 20
0.063000
 40
0.000000
 41
0.000000
 42
0.000000
  0
SEQEND
  0
POLYLINE
  8
PIN_TOP
 66
1
 70
1
 40
0.000000
 41
0.000000
 39
0.000000
  0
VERTEX
  8
PIN_TOP
 10
33.198500
 20
5.651000
 40
0.000000
 41
0.000000
 42
0.000000
  0
VERTEX
  8
PIN_TOP
 10
33.198500
 20
7.937000
 40
0.000000
 41
0.000000
 42
0.000000
  0
VERTEX
  8
PIN_TOP
 10
34.341500
 20
7.937000
 40
0.000000
 41
0.000000
 42
0.000000
  0
VERTEX
  8
PIN_TOP
 10
34.341500
 20
5.651000
 40
0.000000
 41
0.000000
 42
0.000000
  0
SEQEND
  0
POLYLINE
  8
PIN_TOP
 66
1
 70
1
 40
0.000000
 41
0.000000
 39
0.000000
  0
VERTEX
  8
PIN_TOP
 10
30.658500
 20
0.063000
 40
0.000000
 41
0.000000
 42
0.000000
  0
VERTEX
  8
PIN_TOP
 10
30.658500
 20
2.349000
 40
0.000000
 41
0.000000
 42
0.000000
  0
VERTEX
  8
PIN_TOP
 10
31.801500
 20
2.349000
 40
0.000000
 41
0.000000
 42
0.000000
  0
VERTEX
  8
PIN_TOP
 10
31.801500
 20
0.063000
 40
0.000000
 41
0.000000
 42
0.000000
  0
SEQEND
  0
POLYLINE
  8
PIN_TOP
 66
1
 70
1
 40
0.000000
 41
0.000000
 39
0.000000
  0
VERTEX
  8
PIN_TOP
 10
30.658500
 20
5.651000
 40
0.000000
 41
0.000000
 42
0.000000
  0
VERTEX
  8
PIN_TOP
 10
30.658500
 20
7.937000
 40
0.000000
 41
0.000000
 42
0.000000
  0
VERTEX
  8
PIN_TOP
 10
31.801500
 20
7.937000
 40
0.000000
 41
0.000000
 42
0.000000
  0
VERTEX
  8
PIN_TOP
 10
31.801500
 20
5.651000
 40
0.000000
 41
0.000000
 42
0.000000
  0
SEQEND
  0
POLYLINE
  8
PIN_TOP
 66
1
 70
1
 40
0.000000
 41
0.000000
 39
0.000000
  0
VERTEX
  8
PIN_TOP
 10
28.118500
 20
0.063000
 40
0.000000
 41
0.000000
 42
0.000000
  0
VERTEX
  8
PIN_TOP
 10
28.118500
 20
2.349000
 40
0.000000
 41
0.000000
 42
0.000000
  0
VERTEX
  8
PIN_TOP
 10
29.261500
 20
2.349000
 40
0.000000
 41
0.000000
 42
0.000000
  0
VERTEX
  8
PIN_TOP
 10
29.261500
 20
0.063000
 40
0.000000
 41
0.000000
 42
0.000000
  0
SEQEND
  0
POLYLINE
  8
PIN_TOP
 66
1
 70
1
 40
0.000000
 41
0.000000
 39
0.000000
  0
VERTEX
  8
PIN_TOP
 10
28.118500
 20
5.651000
 40
0.000000
 41
0.000000
 42
0.000000
  0
VERTEX
  8
PIN_TOP
 10
28.118500
 20
7.937000
 40
0.000000
 41
0.000000
 42
0.000000
  0
VERTEX
  8
PIN_TOP
 10
29.261500
 20
7.937000
 40
0.000000
 41
0.000000
 42
0.000000
  0
VERTEX
  8
PIN_TOP
 10
29.261500
 20
5.651000
 40
0.000000
 41
0.000000
 42
0.000000
  0
SEQEND
  0
POLYLINE
  8
PIN_TOP
 66
1
 70
1
 40
0.000000
 41
0.000000
 39
0.000000
  0
VERTEX
  8
PIN_TOP
 10
25.578500
 20
0.063000
 40
0.000000
 41
0.000000
 42
0.000000
  0
VERTEX
  8
PIN_TOP
 10
25.578500
 20
2.349000
 40
0.000000
 41
0.000000
 42
0.000000
  0
VERTEX
  8
PIN_TOP
 10
26.721500
 20
2.349000
 40
0.000000
 41
0.000000
 42
0.000000
  0
VERTEX
  8
PIN_TOP
 10
26.721500
 20
0.063000
 40
0.000000
 41
0.000000
 42
0.000000
  0
SEQEND
  0
POLYLINE
  8
PIN_TOP
 66
1
 70
1
 40
0.000000
 41
0.000000
 39
0.000000
  0
VERTEX
  8
PIN_TOP
 10
25.578500
 20
5.651000
 40
0.000000
 41
0.000000
 42
0.000000
  0
VERTEX
  8
PIN_TOP
 10
25.578500
 20
7.937000
 40
0.000000
 41
0.000000
 42
0.000000
  0
VERTEX
  8
PIN_TOP
 10
26.721500
 20
7.937000
 40
0.000000
 41
0.000000
 42
0.000000
  0
VERTEX
  8
PIN_TOP
 10
26.721500
 20
5.651000
 40
0.000000
 41
0.000000
 42
0.000000
  0
SEQEND
  0
POLYLINE
  8
PIN_TOP
 66
1
 70
1
 40
0.000000
 41
0.000000
 39
0.000000
  0
VERTEX
  8
PIN_TOP
 10
23.038500
 20
0.063000
 40
0.000000
 41
0.000000
 42
0.000000
  0
VERTEX
  8
PIN_TOP
 10
23.038500
 20
2.349000
 40
0.000000
 41
0.000000
 42
0.000000
  0
VERTEX
  8
PIN_TOP
 10
24.181500
 20
2.349000
 40
0.000000
 41
0.000000
 42
0.000000
  0
VERTEX
  8
PIN_TOP
 10
24.181500
 20
0.063000
 40
0.000000
 41
0.000000
 42
0.000000
  0
SEQEND
  0
POLYLINE
  8
PIN_TOP
 66
1
 70
1
 40
0.000000
 41
0.000000
 39
0.000000
  0
VERTEX
  8
PIN_TOP
 10
23.038500
 20
5.651000
 40
0.000000
 41
0.000000
 42
0.000000
  0
VERTEX
  8
PIN_TOP
 10
23.038500
 20
7.937000
 40
0.000000
 41
0.000000
 42
0.000000
  0
VERTEX
  8
PIN_TOP
 10
24.181500
 20
7.937000
 40
0.000000
 41
0.000000
 42
0.000000
  0
VERTEX
  8
PIN_TOP
 10
24.181500
 20
5.651000
 40
0.000000
 41
0.000000
 42
0.000000
  0
SEQEND
  0
POLYLINE
  8
PIN_TOP
 66
1
 70
1
 40
0.000000
 41
0.000000
 39
0.000000
  0
VERTEX
  8
PIN_TOP
 10
20.498500
 20
0.063000
 40
0.000000
 41
0.000000
 42
0.000000
  0
VERTEX
  8
PIN_TOP
 10
20.498500
 20
2.349000
 40
0.000000
 41
0.000000
 42
0.000000
  0
VERTEX
  8
PIN_TOP
 10
21.641500
 20
2.349000
 40
0.000000
 41
0.000000
 42
0.000000
  0
VERTEX
  8
PIN_TOP
 10
21.641500
 20
0.063000
 40
0.000000
 41
0.000000
 42
0.000000
  0
SEQEND
  0
POLYLINE
  8
PIN_TOP
 66
1
 70
1
 40
0.000000
 41
0.000000
 39
0.000000
  0
VERTEX
  8
PIN_TOP
 10
20.498500
 20
5.651000
 40
0.000000
 41
0.000000
 42
0.000000
  0
VERTEX
  8
PIN_TOP
 10
20.498500
 20
7.937000
 40
0.000000
 41
0.000000
 42
0.000000
  0
VERTEX
  8
PIN_TOP
 10
21.641500
 20
7.937000
 40
0.000000
 41
0.000000
 42
0.000000
  0
VERTEX
  8
PIN_TOP
 10
21.641500
 20
5.651000
 40
0.000000
 41
0.000000
 42
0.000000
  0
SEQEND
  0
POLYLINE
  8
PIN_TOP
 66
1
 70
1
 40
0.000000
 41
0.000000
 39
0.000000
  0
VERTEX
  8
PIN_TOP
 10
17.958500
 20
0.063000
 40
0.000000
 41
0.000000
 42
0.000000
  0
VERTEX
  8
PIN_TOP
 10
17.958500
 20
2.349000
 40
0.000000
 41
0.000000
 42
0.000000
  0
VERTEX
  8
PIN_TOP
 10
19.101500
 20
2.349000
 40
0.000000
 41
0.000000
 42
0.000000
  0
VERTEX
  8
PIN_TOP
 10
19.101500
 20
0.063000
 40
0.000000
 41
0.000000
 42
0.000000
  0
SEQEND
  0
POLYLINE
  8
PIN_TOP
 66
1
 70
1
 40
0.000000
 41
0.000000
 39
0.000000
  0
VERTEX
  8
PIN_TOP
 10
17.958500
 20
5.651000
 40
0.000000
 41
0.000000
 42
0.000000
  0
VERTEX
  8
PIN_TOP
 10
17.958500
 20
7.937000
 40
0.000000
 41
0.000000
 42
0.000000
  0
VERTEX
  8
PIN_TOP
 10
19.101500
 20
7.937000
 40
0.000000
 41
0.000000
 42
0.000000
  0
VERTEX
  8
PIN_TOP
 10
19.101500
 20
5.651000
 40
0.000000
 41
0.000000
 42
0.000000
  0
SEQEND
  0
POLYLINE
  8
PIN_TOP
 66
1
 70
1
 40
0.000000
 41
0.000000
 39
0.000000
  0
VERTEX
  8
PIN_TOP
 10
15.418500
 20
0.063000
 40
0.000000
 41
0.000000
 42
0.000000
  0
VERTEX
  8
PIN_TOP
 10
15.418500
 20
2.349000
 40
0.000000
 41
0.000000
 42
0.000000
  0
VERTEX
  8
PIN_TOP
 10
16.561500
 20
2.349000
 40
0.000000
 41
0.000000
 42
0.000000
  0
VERTEX
  8
PIN_TOP
 10
16.561500
 20
0.063000
 40
0.000000
 41
0.000000
 42
0.000000
  0
SEQEND
  0
POLYLINE
  8
PIN_TOP
 66
1
 70
1
 40
0.000000
 41
0.000000
 39
0.000000
  0
VERTEX
  8
PIN_TOP
 10
15.418500
 20
5.651000
 40
0.000000
 41
0.000000
 42
0.000000
  0
VERTEX
  8
PIN_TOP
 10
15.418500
 20
7.937000
 40
0.000000
 41
0.000000
 42
0.000000
  0
VERTEX
  8
PIN_TOP
 10
16.561500
 20
7.937000
 40
0.000000
 41
0.000000
 42
0.000000
  0
VERTEX
  8
PIN_TOP
 10
16.561500
 20
5.651000
 40
0.000000
 41
0.000000
 42
0.000000
  0
SEQEND
  0
POLYLINE
  8
PIN_TOP
 66
1
 70
1
 40
0.000000
 41
0.000000
 39
0.000000
  0
VERTEX
  8
PIN_TOP
 10
12.878500
 20
0.063000
 40
0.000000
 41
0.000000
 42
0.000000
  0
VERTEX
  8
PIN_TOP
 10
12.878500
 20
2.349000
 40
0.000000
 41
0.000000
 42
0.000000
  0
VERTEX
  8
PIN_TOP
 10
14.021500
 20
2.349000
 40
0.000000
 41
0.000000
 42
0.000000
  0
VERTEX
  8
PIN_TOP
 10
14.021500
 20
0.063000
 40
0.000000
 41
0.000000
 42
0.000000
  0
SEQEND
  0
POLYLINE
  8
PIN_TOP
 66
1
 70
1
 40
0.000000
 41
0.000000
 39
0.000000
  0
VERTEX
  8
PIN_TOP
 10
12.878500
 20
5.651000
 40
0.000000
 41
0.000000
 42
0.000000
  0
VERTEX
  8
PIN_TOP
 10
12.878500
 20
7.937000
 40
0.000000
 41
0.000000
 42
0.000000
  0
VERTEX
  8
PIN_TOP
 10
14.021500
 20
7.937000
 40
0.000000
 41
0.000000
 42
0.000000
  0
VERTEX
  8
PIN_TOP
 10
14.021500
 20
5.651000
 40
0.000000
 41
0.000000
 42
0.000000
  0
SEQEND
  0
POLYLINE
  8
PIN_TOP
 66
1
 70
1
 40
0.000000
 41
0.000000
 39
0.000000
  0
VERTEX
  8
PIN_TOP
 10
10.338500
 20
0.063000
 40
0.000000
 41
0.000000
 42
0.000000
  0
VERTEX
  8
PIN_TOP
 10
10.338500
 20
2.349000
 40
0.000000
 41
0.000000
 42
0.000000
  0
VERTEX
  8
PIN_TOP
 10
11.481500
 20
2.349000
 40
0.000000
 41
0.000000
 42
0.000000
  0
VERTEX
  8
PIN_TOP
 10
11.481500
 20
0.063000
 40
0.000000
 41
0.000000
 42
0.000000
  0
SEQEND
  0
POLYLINE
  8
PIN_TOP
 66
1
 70
1
 40
0.000000
 41
0.000000
 39
0.000000
  0
VERTEX
  8
PIN_TOP
 10
10.338500
 20
5.651000
 40
0.000000
 41
0.000000
 42
0.000000
  0
VERTEX
  8
PIN_TOP
 10
10.338500
 20
7.937000
 40
0.000000
 41
0.000000
 42
0.000000
  0
VERTEX
  8
PIN_TOP
 10
11.481500
 20
7.937000
 40
0.000000
 41
0.000000
 42
0.000000
  0
VERTEX
  8
PIN_TOP
 10
11.481500
 20
5.651000
 40
0.000000
 41
0.000000
 42
0.000000
  0
SEQEND
  0
POLYLINE
  8
PIN_TOP
 66
1
 70
1
 40
0.000000
 41
0.000000
 39
0.000000
  0
VERTEX
  8
PIN_TOP
 10
7.798500
 20
0.063000
 40
0.000000
 41
0.000000
 42
0.000000
  0
VERTEX
  8
PIN_TOP
 10
7.798500
 20
2.349000
 40
0.000000
 41
0.000000
 42
0.000000
  0
VERTEX
  8
PIN_TOP
 10
8.941500
 20
2.349000
 40
0.000000
 41
0.000000
 42
0.000000
  0
VERTEX
  8
PIN_TOP
 10
8.941500
 20
0.063000
 40
0.000000
 41
0.000000
 42
0.000000
  0
SEQEND
  0
POLYLINE
  8
PIN_TOP
 66
1
 70
1
 40
0.000000
 41
0.000000
 39
0.000000
  0
VERTEX
  8
PIN_TOP
 10
7.798500
 20
5.651000
 40
0.000000
 41
0.000000
 42
0.000000
  0
VERTEX
  8
PIN_TOP
 10
7.798500
 20
7.937000
 40
0.000000
 41
0.000000
 42
0.000000
  0
VERTEX
  8
PIN_TOP
 10
8.941500
 20
7.937000
 40
0.000000
 41
0.000000
 42
0.000000
  0
VERTEX
  8
PIN_TOP
 10
8.941500
 20
5.651000
 40
0.000000
 41
0.000000
 42
0.000000
  0
SEQEND
  0
POLYLINE
  8
PACKAGE_GEOMETRY_SILKSCREEN_TO
 66
1
 70
1
 40
0.000000
 41
0.000000
 39
0.000000
  0
VERTEX
  8
PACKAGE_GEOMETRY_SILKSCREEN_TO
 10
7.608000
 20
5.016000
 40
0.254000
 41
0.254000
 42
0.000000
  0
VERTEX
  8
PACKAGE_GEOMETRY_SILKSCREEN_TO
 10
7.608000
 20
2.984000
 40
0.254000
 41
0.254000
 42
0.000000
  0
VERTEX
  8
PACKAGE_GEOMETRY_SILKSCREEN_TO
 10
56.884000
 20
2.984000
 40
0.254000
 41
0.254000
 42
0.000000
  0
VERTEX
  8
PACKAGE_GEOMETRY_SILKSCREEN_TO
 10
57.392000
 20
3.492000
 40
0.254000
 41
0.254000
 42
0.000000
  0
VERTEX
  8
PACKAGE_GEOMETRY_SILKSCREEN_TO
 10
57.392000
 20
5.016000
 40
0.254000
 41
0.254000
 42
0.000000
  0
SEQEND
  0
POLYLINE
  8
PIN_TOP
 66
1
 70
1
 40
0.000000
 41
0.000000
 39
0.000000
  0
VERTEX
  8
PIN_TOP
 10
14.259400
 20
51.759400
 40
0.000000
 41
0.000000
 42
0.000000
  0
VERTEX
  8
PIN_TOP
 10
14.259400
 20
53.740600
 40
0.000000
 41
0.000000
 42
0.000000
  0
VERTEX
  8
PIN_TOP
 10
16.240600
 20
53.740600
 40
0.000000
 41
0.000000
 42
0.000000
  0
VERTEX
  8
PIN_TOP
 10
16.240600
 20
51.759400
 40
0.000000
 41
0.000000
 42
0.000000
  0
SEQEND
  0
POLYLINE
  8
PIN_TOP
 66
1
 70
1
 40
0.000000
 41
0.000000
 39
0.000000
  0
VERTEX
  8
PIN_TOP
 10
18.259400
 20
51.759400
 40
0.000000
 41
0.000000
 42
0.000000
  0
VERTEX
  8
PIN_TOP
 10
18.259400
 20
53.740600
 40
0.000000
 41
0.000000
 42
0.000000
  0
VERTEX
  8
PIN_TOP
 10
20.240600
 20
53.740600
 40
0.000000
 41
0.000000
 42
0.000000
  0
VERTEX
  8
PIN_TOP
 10
20.240600
 20
51.759400
 40
0.000000
 41
0.000000
 42
0.000000
  0
SEQEND
  0
POLYLINE
  8
PACKAGE_GEOMETRY_SILKSCREEN_TO
 66
1
 70
0
 40
0.000000
 41
0.000000
 39
0.000000
  0
VERTEX
  8
PACKAGE_GEOMETRY_SILKSCREEN_TO
 10
18.000000
 20
53.750000
 40
0.250000
 41
0.250000
 42
0.000000
  0
VERTEX
  8
PACKAGE_GEOMETRY_SILKSCREEN_TO
 10
18.000000
 20
51.750000
 40
0.250000
 41
0.250000
 42
0.000000
  0
SEQEND
  0
POLYLINE
  8
PIN_TOP
 66
1
 70
1
 40
0.000000
 41
0.000000
 39
0.000000
  0
VERTEX
  8
PIN_TOP
 10
1.982600
 20
44.907800
 40
0.000000
 41
0.000000
 42
0.000000
  0
VERTEX
  8
PIN_TOP
 10
1.017400
 20
44.907800
 40
0.000000
 41
0.000000
 42
0.000000
  0
VERTEX
  8
PIN_TOP
 10
1.017400
 20
45.619000
 40
0.000000
 41
0.000000
 42
0.000000
  0
VERTEX
  8
PIN_TOP
 10
1.982600
 20
45.619000
 40
0.000000
 41
0.000000
 42
0.000000
  0
SEQEND
  0
POLYLINE
  8
PIN_TOP
 66
1
 70
1
 40
0.000000
 41
0.000000
 39
0.000000
  0
VERTEX
  8
PIN_TOP
 10
1.982600
 20
46.381000
 40
0.000000
 41
0.000000
 42
0.000000
  0
VERTEX
  8
PIN_TOP
 10
1.017400
 20
46.381000
 40
0.000000
 41
0.000000
 42
0.000000
  0
VERTEX
  8
PIN_TOP
 10
1.017400
 20
47.092200
 40
0.000000
 41
0.000000
 42
0.000000
  0
VERTEX
  8
PIN_TOP
 10
1.982600
 20
47.092200
 40
0.000000
 41
0.000000
 42
0.000000
  0
SEQEND
  0
POLYLINE
  8
PACKAGE_GEOMETRY_SILKSCREEN_TO
 66
1
 70
0
 40
0.000000
 41
0.000000
 39
0.000000
  0
VERTEX
  8
PACKAGE_GEOMETRY_SILKSCREEN_TO
 10
0.992000
 20
47.397000
 40
0.203200
 41
0.203200
 42
0.000000
  0
VERTEX
  8
PACKAGE_GEOMETRY_SILKSCREEN_TO
 10
2.008000
 20
47.397000
 40
0.203200
 41
0.203200
 42
0.000000
  0
SEQEND
  0
POLYLINE
  8
PIN_TOP
 66
1
 70
1
 40
0.000000
 41
0.000000
 39
0.000000
  0
VERTEX
  8
PIN_TOP
 10
45.412500
 20
26.555000
 40
0.000000
 41
0.000000
 42
0.000000
  0
VERTEX
  8
PIN_TOP
 10
44.777500
 20
26.555000
 40
0.000000
 41
0.000000
 42
0.000000
  0
VERTEX
  8
PIN_TOP
 10
44.777500
 20
27.825000
 40
0.000000
 41
0.000000
 42
0.000000
  0
VERTEX
  8
PIN_TOP
 10
45.412500
 20
27.825000
 40
0.000000
 41
0.000000
 42
0.000000
  0
SEQEND
  0
POLYLINE
  8
PIN_TOP
 66
1
 70
1
 40
0.000000
 41
0.000000
 39
0.000000
  0
VERTEX
  8
PIN_TOP
 10
46.682500
 20
26.555000
 40
0.000000
 41
0.000000
 42
0.000000
  0
VERTEX
  8
PIN_TOP
 10
46.047500
 20
26.555000
 40
0.000000
 41
0.000000
 42
0.000000
  0
VERTEX
  8
PIN_TOP
 10
46.047500
 20
27.825000
 40
0.000000
 41
0.000000
 42
0.000000
  0
VERTEX
  8
PIN_TOP
 10
46.682500
 20
27.825000
 40
0.000000
 41
0.000000
 42
0.000000
  0
SEQEND
  0
POLYLINE
  8
PIN_TOP
 66
1
 70
1
 40
0.000000
 41
0.000000
 39
0.000000
  0
VERTEX
  8
PIN_TOP
 10
47.952500
 20
26.555000
 40
0.000000
 41
0.000000
 42
0.000000
  0
VERTEX
  8
PIN_TOP
 10
47.317500
 20
26.555000
 40
0.000000
 41
0.000000
 42
0.000000
  0
VERTEX
  8
PIN_TOP
 10
47.317500
 20
27.825000
 40
0.000000
 41
0.000000
 42
0.000000
  0
VERTEX
  8
PIN_TOP
 10
47.952500
 20
27.825000
 40
0.000000
 41
0.000000
 42
0.000000
  0
SEQEND
  0
POLYLINE
  8
PIN_TOP
 66
1
 70
1
 40
0.000000
 41
0.000000
 39
0.000000
  0
VERTEX
  8
PIN_TOP
 10
49.222500
 20
26.555000
 40
0.000000
 41
0.000000
 42
0.000000
  0
VERTEX
  8
PIN_TOP
 10
48.587500
 20
26.555000
 40
0.000000
 41
0.000000
 42
0.000000
  0
VERTEX
  8
PIN_TOP
 10
48.587500
 20
27.825000
 40
0.000000
 41
0.000000
 42
0.000000
  0
VERTEX
  8
PIN_TOP
 10
49.222500
 20
27.825000
 40
0.000000
 41
0.000000
 42
0.000000
  0
SEQEND
  0
POLYLINE
  8
PIN_TOP
 66
1
 70
1
 40
0.000000
 41
0.000000
 39
0.000000
  0
VERTEX
  8
PIN_TOP
 10
49.222500
 20
34.175000
 40
0.000000
 41
0.000000
 42
0.000000
  0
VERTEX
  8
PIN_TOP
 10
48.587500
 20
34.175000
 40
0.000000
 41
0.000000
 42
0.000000
  0
VERTEX
  8
PIN_TOP
 10
48.587500
 20
35.445000
 40
0.000000
 41
0.000000
 42
0.000000
  0
VERTEX
  8
PIN_TOP
 10
49.222500
 20
35.445000
 40
0.000000
 41
0.000000
 42
0.000000
  0
SEQEND
  0
POLYLINE
  8
PIN_TOP
 66
1
 70
1
 40
0.000000
 41
0.000000
 39
0.000000
  0
VERTEX
  8
PIN_TOP
 10
47.952500
 20
34.175000
 40
0.000000
 41
0.000000
 42
0.000000
  0
VERTEX
  8
PIN_TOP
 10
47.317500
 20
34.175000
 40
0.000000
 41
0.000000
 42
0.000000
  0
VERTEX
  8
PIN_TOP
 10
47.317500
 20
35.445000
 40
0.000000
 41
0.000000
 42
0.000000
  0
VERTEX
  8
PIN_TOP
 10
47.952500
 20
35.445000
 40
0.000000
 41
0.000000
 42
0.000000
  0
SEQEND
  0
POLYLINE
  8
PIN_TOP
 66
1
 70
1
 40
0.000000
 41
0.000000
 39
0.000000
  0
VERTEX
  8
PIN_TOP
 10
46.682500
 20
34.175000
 40
0.000000
 41
0.000000
 42
0.000000
  0
VERTEX
  8
PIN_TOP
 10
46.047500
 20
34.175000
 40
0.000000
 41
0.000000
 42
0.000000
  0
VERTEX
  8
PIN_TOP
 10
46.047500
 20
35.445000
 40
0.000000
 41
0.000000
 42
0.000000
  0
VERTEX
  8
PIN_TOP
 10
46.682500
 20
35.445000
 40
0.000000
 41
0.000000
 42
0.000000
  0
SEQEND
  0
POLYLINE
  8
PIN_TOP
 66
1
 70
1
 40
0.000000
 41
0.000000
 39
0.000000
  0
VERTEX
  8
PIN_TOP
 10
45.412500
 20
34.175000
 40
0.000000
 41
0.000000
 42
0.000000
  0
VERTEX
  8
PIN_TOP
 10
44.777500
 20
34.175000
 40
0.000000
 41
0.000000
 42
0.000000
  0
VERTEX
  8
PIN_TOP
 10
44.777500
 20
35.445000
 40
0.000000
 41
0.000000
 42
0.000000
  0
VERTEX
  8
PIN_TOP
 10
45.412500
 20
35.445000
 40
0.000000
 41
0.000000
 42
0.000000
  0
SEQEND
  0
POLYLINE
  8
PACKAGE_GEOMETRY_SILKSCREEN_TO
 66
1
 70
1
 40
0.000000
 41
0.000000
 39
0.000000
  0
VERTEX
  8
PACKAGE_GEOMETRY_SILKSCREEN_TO
 10
44.460000
 20
28.460000
 40
0.203200
 41
0.203200
 42
0.000000
  0
VERTEX
  8
PACKAGE_GEOMETRY_SILKSCREEN_TO
 10
49.540000
 20
28.460000
 40
0.203200
 41
0.203200
 42
0.000000
  0
VERTEX
  8
PACKAGE_GEOMETRY_SILKSCREEN_TO
 10
49.540000
 20
33.540000
 40
0.203200
 41
0.203200
 42
0.000000
  0
VERTEX
  8
PACKAGE_GEOMETRY_SILKSCREEN_TO
 10
44.460000
 20
33.540000
 40
0.203200
 41
0.203200
 42
0.000000
  0
SEQEND
  0
POLYLINE
  8
PACKAGE_GEOMETRY_SILKSCREEN_TO
 66
1
 70
0
 40
0.000000
 41
0.000000
 39
0.000000
  0
VERTEX
  8
PACKAGE_GEOMETRY_SILKSCREEN_TO
 10
44.841000
 20
28.968000
 40
0.203200
 41
0.203200
 42
0.000000
  0
VERTEX
  8
PACKAGE_GEOMETRY_SILKSCREEN_TO
 10
44.714000
 20
29.095000
 40
0.203200
 41
0.203200
 42
0.000000
  0
VERTEX
  8
PACKAGE_GEOMETRY_SILKSCREEN_TO
 10
45.476000
 20
29.095000
 40
0.203200
 41
0.203200
 42
0.000000
  0
SEQEND
  0
POLYLINE
  8
PACKAGE_GEOMETRY_SILKSCREEN_TO
 66
1
 70
0
 40
0.000000
 41
0.000000
 39
0.000000
  0
VERTEX
  8
PACKAGE_GEOMETRY_SILKSCREEN_TO
 10
45.476000
 20
28.968000
 40
0.203200
 41
0.203200
 42
0.000000
  0
VERTEX
  8
PACKAGE_GEOMETRY_SILKSCREEN_TO
 10
45.476000
 20
29.222000
 40
0.203200
 41
0.203200
 42
0.000000
  0
SEQEND
  0
POLYLINE
  8
PACKAGE_GEOMETRY_SILKSCREEN_TO
 66
1
 70
0
 40
0.000000
 41
0.000000
 39
0.000000
  0
VERTEX
  8
PACKAGE_GEOMETRY_SILKSCREEN_TO
 10
45.984000
 20
28.841000
 40
0.203200
 41
0.203200
 42
0.000000
  0
VERTEX
  8
PACKAGE_GEOMETRY_SILKSCREEN_TO
 10
45.857000
 20
28.968000
 40
0.203200
 41
0.203200
 42
0.000000
  0
VERTEX
  8
PACKAGE_GEOMETRY_SILKSCREEN_TO
 10
45.857000
 20
29.095000
 40
0.203200
 41
0.203200
 42
0.000000
  0
VERTEX
  8
PACKAGE_GEOMETRY_SILKSCREEN_TO
 10
45.984000
 20
29.222000
 40
0.203200
 41
0.203200
 42
0.000000
  0
VERTEX
  8
PACKAGE_GEOMETRY_SILKSCREEN_TO
 10
46.111000
 20
29.222000
 40
0.203200
 41
0.203200
 42
0.000000
  0
VERTEX
  8
PACKAGE_GEOMETRY_SILKSCREEN_TO
 10
46.492000
 20
28.841000
 40
0.203200
 41
0.203200
 42
0.000000
  0
VERTEX
  8
PACKAGE_GEOMETRY_SILKSCREEN_TO
 10
46.619000
 20
28.841000
 40
0.203200
 41
0.203200
 42
0.000000
  0
VERTEX
  8
PACKAGE_GEOMETRY_SILKSCREEN_TO
 10
46.619000
 20
29.222000
 40
0.203200
 41
0.203200
 42
0.000000
  0
SEQEND
  0
POLYLINE
  8
PACKAGE_GEOMETRY_SILKSCREEN_TO
 66
1
 70
1
 40
0.000000
 41
0.000000
 39
0.000000
  0
VERTEX
  8
PACKAGE_GEOMETRY_SILKSCREEN_TO
 10
44.968000
 20
31.889000
 40
0.203200
 41
0.203200
 42
0.000000
  0
VERTEX
  8
PACKAGE_GEOMETRY_SILKSCREEN_TO
 10
45.349000
 20
31.889000
 40
0.203200
 41
0.203200
 42
0.000000
  0
VERTEX
  8
PACKAGE_GEOMETRY_SILKSCREEN_TO
 10
45.476000
 20
32.016000
 40
0.203200
 41
0.203200
 42
0.000000
  0
VERTEX
  8
PACKAGE_GEOMETRY_SILKSCREEN_TO
 10
45.476000
 20
32.143000
 40
0.203200
 41
0.203200
 42
0.000000
  0
VERTEX
  8
PACKAGE_GEOMETRY_SILKSCREEN_TO
 10
45.349000
 20
32.270000
 40
0.203200
 41
0.203200
 42
0.000000
  0
VERTEX
  8
PACKAGE_GEOMETRY_SILKSCREEN_TO
 10
44.968000
 20
32.270000
 40
0.203200
 41
0.203200
 42
0.000000
  0
VERTEX
  8
PACKAGE_GEOMETRY_SILKSCREEN_TO
 10
44.841000
 20
32.143000
 40
0.203200
 41
0.203200
 42
0.000000
  0
VERTEX
  8
PACKAGE_GEOMETRY_SILKSCREEN_TO
 10
44.841000
 20
32.016000
 40
0.203200
 41
0.203200
 42
0.000000
  0
SEQEND
  0
POLYLINE
  8
PACKAGE_GEOMETRY_SILKSCREEN_TO
 66
1
 70
0
 40
0.000000
 41
0.000000
 39
0.000000
  0
VERTEX
  8
PACKAGE_GEOMETRY_SILKSCREEN_TO
 10
45.476000
 20
32.524000
 40
0.203200
 41
0.203200
 42
0.000000
  0
VERTEX
  8
PACKAGE_GEOMETRY_SILKSCREEN_TO
 10
44.841000
 20
32.524000
 40
0.203200
 41
0.203200
 42
0.000000
  0
VERTEX
  8
PACKAGE_GEOMETRY_SILKSCREEN_TO
 10
44.841000
 20
32.905000
 40
0.203200
 41
0.203200
 42
0.000000
  0
VERTEX
  8
PACKAGE_GEOMETRY_SILKSCREEN_TO
 10
45.476000
 20
32.905000
 40
0.203200
 41
0.203200
 42
0.000000
  0
SEQEND
  0
POLYLINE
  8
PACKAGE_GEOMETRY_SILKSCREEN_TO
 66
1
 70
0
 40
0.000000
 41
0.000000
 39
0.000000
  0
VERTEX
  8
PACKAGE_GEOMETRY_SILKSCREEN_TO
 10
46.619000
 20
32.524000
 40
0.203200
 41
0.203200
 42
0.000000
  0
VERTEX
  8
PACKAGE_GEOMETRY_SILKSCREEN_TO
 10
45.984000
 20
32.524000
 40
0.203200
 41
0.203200
 42
0.000000
  0
VERTEX
  8
PACKAGE_GEOMETRY_SILKSCREEN_TO
 10
45.984000
 20
32.905000
 40
0.203200
 41
0.203200
 42
0.000000
  0
VERTEX
  8
PACKAGE_GEOMETRY_SILKSCREEN_TO
 10
46.619000
 20
32.905000
 40
0.203200
 41
0.203200
 42
0.000000
  0
SEQEND
  0
POLYLINE
  8
PACKAGE_GEOMETRY_SILKSCREEN_TO
 66
1
 70
1
 40
0.000000
 41
0.000000
 39
0.000000
  0
VERTEX
  8
PACKAGE_GEOMETRY_SILKSCREEN_TO
 10
46.492000
 20
31.889000
 40
0.203200
 41
0.203200
 42
0.000000
  0
VERTEX
  8
PACKAGE_GEOMETRY_SILKSCREEN_TO
 10
46.111000
 20
31.889000
 40
0.203200
 41
0.203200
 42
0.000000
  0
VERTEX
  8
PACKAGE_GEOMETRY_SILKSCREEN_TO
 10
45.984000
 20
32.016000
 40
0.203200
 41
0.203200
 42
0.000000
  0
VERTEX
  8
PACKAGE_GEOMETRY_SILKSCREEN_TO
 10
45.984000
 20
32.143000
 40
0.203200
 41
0.203200
 42
0.000000
  0
VERTEX
  8
PACKAGE_GEOMETRY_SILKSCREEN_TO
 10
46.111000
 20
32.270000
 40
0.203200
 41
0.203200
 42
0.000000
  0
VERTEX
  8
PACKAGE_GEOMETRY_SILKSCREEN_TO
 10
46.492000
 20
32.270000
 40
0.203200
 41
0.203200
 42
0.000000
  0
VERTEX
  8
PACKAGE_GEOMETRY_SILKSCREEN_TO
 10
46.619000
 20
32.143000
 40
0.203200
 41
0.203200
 42
0.000000
  0
VERTEX
  8
PACKAGE_GEOMETRY_SILKSCREEN_TO
 10
46.619000
 20
32.016000
 40
0.203200
 41
0.203200
 42
0.000000
  0
SEQEND
  0
POLYLINE
  8
PACKAGE_GEOMETRY_SILKSCREEN_TO
 66
1
 70
1
 40
0.000000
 41
0.000000
 39
0.000000
  0
VERTEX
  8
PACKAGE_GEOMETRY_SILKSCREEN_TO
 10
47.508000
 20
31.889000
 40
0.203200
 41
0.203200
 42
0.000000
  0
VERTEX
  8
PACKAGE_GEOMETRY_SILKSCREEN_TO
 10
47.889000
 20
31.889000
 40
0.203200
 41
0.203200
 42
0.000000
  0
VERTEX
  8
PACKAGE_GEOMETRY_SILKSCREEN_TO
 10
48.016000
 20
32.016000
 40
0.203200
 41
0.203200
 42
0.000000
  0
VERTEX
  8
PACKAGE_GEOMETRY_SILKSCREEN_TO
 10
48.016000
 20
32.143000
 40
0.203200
 41
0.203200
 42
0.000000
  0
VERTEX
  8
PACKAGE_GEOMETRY_SILKSCREEN_TO
 10
47.889000
 20
32.270000
 40
0.203200
 41
0.203200
 42
0.000000
  0
VERTEX
  8
PACKAGE_GEOMETRY_SILKSCREEN_TO
 10
47.508000
 20
32.270000
 40
0.203200
 41
0.203200
 42
0.000000
  0
VERTEX
  8
PACKAGE_GEOMETRY_SILKSCREEN_TO
 10
47.381000
 20
32.143000
 40
0.203200
 41
0.203200
 42
0.000000
  0
VERTEX
  8
PACKAGE_GEOMETRY_SILKSCREEN_TO
 10
47.381000
 20
32.016000
 40
0.203200
 41
0.203200
 42
0.000000
  0
SEQEND
  0
POLYLINE
  8
PACKAGE_GEOMETRY_SILKSCREEN_TO
 66
1
 70
1
 40
0.000000
 41
0.000000
 39
0.000000
  0
VERTEX
  8
PACKAGE_GEOMETRY_SILKSCREEN_TO
 10
49.032000
 20
31.889000
 40
0.203200
 41
0.203200
 42
0.000000
  0
VERTEX
  8
PACKAGE_GEOMETRY_SILKSCREEN_TO
 10
48.651000
 20
31.889000
 40
0.203200
 41
0.203200
 42
0.000000
  0
VERTEX
  8
PACKAGE_GEOMETRY_SILKSCREEN_TO
 10
48.524000
 20
32.016000
 40
0.203200
 41
0.203200
 42
0.000000
  0
VERTEX
  8
PACKAGE_GEOMETRY_SILKSCREEN_TO
 10
48.524000
 20
32.143000
 40
0.203200
 41
0.203200
 42
0.000000
  0
VERTEX
  8
PACKAGE_GEOMETRY_SILKSCREEN_TO
 10
48.651000
 20
32.270000
 40
0.203200
 41
0.203200
 42
0.000000
  0
VERTEX
  8
PACKAGE_GEOMETRY_SILKSCREEN_TO
 10
49.032000
 20
32.270000
 40
0.203200
 41
0.203200
 42
0.000000
  0
VERTEX
  8
PACKAGE_GEOMETRY_SILKSCREEN_TO
 10
49.159000
 20
32.143000
 40
0.203200
 41
0.203200
 42
0.000000
  0
VERTEX
  8
PACKAGE_GEOMETRY_SILKSCREEN_TO
 10
49.159000
 20
32.016000
 40
0.203200
 41
0.203200
 42
0.000000
  0
SEQEND
  0
POLYLINE
  8
PACKAGE_GEOMETRY_SILKSCREEN_TO
 66
1
 70
0
 40
0.000000
 41
0.000000
 39
0.000000
  0
VERTEX
  8
PACKAGE_GEOMETRY_SILKSCREEN_TO
 10
48.016000
 20
32.524000
 40
0.203200
 41
0.203200
 42
0.000000
  0
VERTEX
  8
PACKAGE_GEOMETRY_SILKSCREEN_TO
 10
47.381000
 20
32.524000
 40
0.203200
 41
0.203200
 42
0.000000
  0
VERTEX
  8
PACKAGE_GEOMETRY_SILKSCREEN_TO
 10
47.381000
 20
32.905000
 40
0.203200
 41
0.203200
 42
0.000000
  0
VERTEX
  8
PACKAGE_GEOMETRY_SILKSCREEN_TO
 10
48.016000
 20
32.905000
 40
0.203200
 41
0.203200
 42
0.000000
  0
SEQEND
  0
POLYLINE
  8
PACKAGE_GEOMETRY_SILKSCREEN_TO
 66
1
 70
0
 40
0.000000
 41
0.000000
 39
0.000000
  0
VERTEX
  8
PACKAGE_GEOMETRY_SILKSCREEN_TO
 10
49.159000
 20
32.524000
 40
0.203200
 41
0.203200
 42
0.000000
  0
VERTEX
  8
PACKAGE_GEOMETRY_SILKSCREEN_TO
 10
48.524000
 20
32.524000
 40
0.203200
 41
0.203200
 42
0.000000
  0
VERTEX
  8
PACKAGE_GEOMETRY_SILKSCREEN_TO
 10
48.524000
 20
32.905000
 40
0.203200
 41
0.203200
 42
0.000000
  0
VERTEX
  8
PACKAGE_GEOMETRY_SILKSCREEN_TO
 10
49.159000
 20
32.905000
 40
0.203200
 41
0.203200
 42
0.000000
  0
SEQEND
  0
POLYLINE
  8
PACKAGE_GEOMETRY_SILKSCREEN_TO
 66
1
 70
0
 40
0.000000
 41
0.000000
 39
0.000000
  0
VERTEX
  8
PACKAGE_GEOMETRY_SILKSCREEN_TO
 10
47.254000
 20
28.841000
 40
0.203200
 41
0.203200
 42
0.000000
  0
VERTEX
  8
PACKAGE_GEOMETRY_SILKSCREEN_TO
 10
47.254000
 20
29.222000
 40
0.203200
 41
0.203200
 42
0.000000
  0
VERTEX
  8
PACKAGE_GEOMETRY_SILKSCREEN_TO
 10
48.016000
 20
29.222000
 40
0.203200
 41
0.203200
 42
0.000000
  0
VERTEX
  8
PACKAGE_GEOMETRY_SILKSCREEN_TO
 10
48.016000
 20
28.841000
 40
0.203200
 41
0.203200
 42
0.000000
  0
SEQEND
  0
POLYLINE
  8
PACKAGE_GEOMETRY_SILKSCREEN_TO
 66
1
 70
0
 40
0.000000
 41
0.000000
 39
0.000000
  0
VERTEX
  8
PACKAGE_GEOMETRY_SILKSCREEN_TO
 10
47.635000
 20
29.222000
 40
0.203200
 41
0.203200
 42
0.000000
  0
VERTEX
  8
PACKAGE_GEOMETRY_SILKSCREEN_TO
 10
47.635000
 20
28.841000
 40
0.203200
 41
0.203200
 42
0.000000
  0
SEQEND
  0
POLYLINE
  8
PACKAGE_GEOMETRY_SILKSCREEN_TO
 66
1
 70
0
 40
0.000000
 41
0.000000
 39
0.000000
  0
VERTEX
  8
PACKAGE_GEOMETRY_SILKSCREEN_TO
 10
48.524000
 20
28.841000
 40
0.203200
 41
0.203200
 42
0.000000
  0
VERTEX
  8
PACKAGE_GEOMETRY_SILKSCREEN_TO
 10
48.905000
 20
28.841000
 40
0.203200
 41
0.203200
 42
0.000000
  0
VERTEX
  8
PACKAGE_GEOMETRY_SILKSCREEN_TO
 10
48.905000
 20
29.222000
 40
0.203200
 41
0.203200
 42
0.000000
  0
SEQEND
  0
POLYLINE
  8
PACKAGE_GEOMETRY_SILKSCREEN_TO
 66
1
 70
0
 40
0.000000
 41
0.000000
 39
0.000000
  0
VERTEX
  8
PACKAGE_GEOMETRY_SILKSCREEN_TO
 10
48.524000
 20
29.222000
 40
0.203200
 41
0.203200
 42
0.000000
  0
VERTEX
  8
PACKAGE_GEOMETRY_SILKSCREEN_TO
 10
49.159000
 20
29.222000
 40
0.203200
 41
0.203200
 42
0.000000
  0
SEQEND
  0
POLYLINE
  8
PIN_TOP
 66
1
 70
1
 40
0.000000
 41
0.000000
 39
0.000000
  0
VERTEX
  8
PIN_TOP
 10
44.877400
 20
36.542000
 40
0.000000
 41
0.000000
 42
0.000000
  0
VERTEX
  8
PIN_TOP
 10
44.572600
 20
36.542000
 40
0.000000
 41
0.000000
 42
0.000000
  0
VERTEX
  8
PIN_TOP
 10
44.572600
 20
37.558000
 40
0.000000
 41
0.000000
 42
0.000000
  0
VERTEX
  8
PIN_TOP
 10
44.877400
 20
37.558000
 40
0.000000
 41
0.000000
 42
0.000000
  0
SEQEND
  0
POLYLINE
  8
PIN_TOP
 66
1
 70
1
 40
0.000000
 41
0.000000
 39
0.000000
  0
VERTEX
  8
PIN_TOP
 10
45.527400
 20
36.542000
 40
0.000000
 41
0.000000
 42
0.000000
  0
VERTEX
  8
PIN_TOP
 10
45.222600
 20
36.542000
 40
0.000000
 41
0.000000
 42
0.000000
  0
VERTEX
  8
PIN_TOP
 10
45.222600
 20
37.558000
 40
0.000000
 41
0.000000
 42
0.000000
  0
VERTEX
  8
PIN_TOP
 10
45.527400
 20
37.558000
 40
0.000000
 41
0.000000
 42
0.000000
  0
SEQEND
  0
POLYLINE
  8
PIN_TOP
 66
1
 70
1
 40
0.000000
 41
0.000000
 39
0.000000
  0
VERTEX
  8
PIN_TOP
 10
46.177400
 20
36.542000
 40
0.000000
 41
0.000000
 42
0.000000
  0
VERTEX
  8
PIN_TOP
 10
45.872600
 20
36.542000
 40
0.000000
 41
0.000000
 42
0.000000
  0
VERTEX
  8
PIN_TOP
 10
45.872600
 20
37.558000
 40
0.000000
 41
0.000000
 42
0.000000
  0
VERTEX
  8
PIN_TOP
 10
46.177400
 20
37.558000
 40
0.000000
 41
0.000000
 42
0.000000
  0
SEQEND
  0
POLYLINE
  8
PIN_TOP
 66
1
 70
1
 40
0.000000
 41
0.000000
 39
0.000000
  0
VERTEX
  8
PIN_TOP
 10
46.827400
 20
36.542000
 40
0.000000
 41
0.000000
 42
0.000000
  0
VERTEX
  8
PIN_TOP
 10
46.522600
 20
36.542000
 40
0.000000
 41
0.000000
 42
0.000000
  0
VERTEX
  8
PIN_TOP
 10
46.522600
 20
37.558000
 40
0.000000
 41
0.000000
 42
0.000000
  0
VERTEX
  8
PIN_TOP
 10
46.827400
 20
37.558000
 40
0.000000
 41
0.000000
 42
0.000000
  0
SEQEND
  0
POLYLINE
  8
PIN_TOP
 66
1
 70
1
 40
0.000000
 41
0.000000
 39
0.000000
  0
VERTEX
  8
PIN_TOP
 10
47.477400
 20
36.542000
 40
0.000000
 41
0.000000
 42
0.000000
  0
VERTEX
  8
PIN_TOP
 10
47.172600
 20
36.542000
 40
0.000000
 41
0.000000
 42
0.000000
  0
VERTEX
  8
PIN_TOP
 10
47.172600
 20
37.558000
 40
0.000000
 41
0.000000
 42
0.000000
  0
VERTEX
  8
PIN_TOP
 10
47.477400
 20
37.558000
 40
0.000000
 41
0.000000
 42
0.000000
  0
SEQEND
  0
POLYLINE
  8
PIN_TOP
 66
1
 70
1
 40
0.000000
 41
0.000000
 39
0.000000
  0
VERTEX
  8
PIN_TOP
 10
48.127400
 20
36.542000
 40
0.000000
 41
0.000000
 42
0.000000
  0
VERTEX
  8
PIN_TOP
 10
47.822600
 20
36.542000
 40
0.000000
 41
0.000000
 42
0.000000
  0
VERTEX
  8
PIN_TOP
 10
47.822600
 20
37.558000
 40
0.000000
 41
0.000000
 42
0.000000
  0
VERTEX
  8
PIN_TOP
 10
48.127400
 20
37.558000
 40
0.000000
 41
0.000000
 42
0.000000
  0
SEQEND
  0
POLYLINE
  8
PIN_TOP
 66
1
 70
1
 40
0.000000
 41
0.000000
 39
0.000000
  0
VERTEX
  8
PIN_TOP
 10
48.777400
 20
36.542000
 40
0.000000
 41
0.000000
 42
0.000000
  0
VERTEX
  8
PIN_TOP
 10
48.472600
 20
36.542000
 40
0.000000
 41
0.000000
 42
0.000000
  0
VERTEX
  8
PIN_TOP
 10
48.472600
 20
37.558000
 40
0.000000
 41
0.000000
 42
0.000000
  0
VERTEX
  8
PIN_TOP
 10
48.777400
 20
37.558000
 40
0.000000
 41
0.000000
 42
0.000000
  0
SEQEND
  0
POLYLINE
  8
PIN_TOP
 66
1
 70
1
 40
0.000000
 41
0.000000
 39
0.000000
  0
VERTEX
  8
PIN_TOP
 10
49.427400
 20
36.542000
 40
0.000000
 41
0.000000
 42
0.000000
  0
VERTEX
  8
PIN_TOP
 10
49.122600
 20
36.542000
 40
0.000000
 41
0.000000
 42
0.000000
  0
VERTEX
  8
PIN_TOP
 10
49.122600
 20
37.558000
 40
0.000000
 41
0.000000
 42
0.000000
  0
VERTEX
  8
PIN_TOP
 10
49.427400
 20
37.558000
 40
0.000000
 41
0.000000
 42
0.000000
  0
SEQEND
  0
POLYLINE
  8
PIN_TOP
 66
1
 70
1
 40
0.000000
 41
0.000000
 39
0.000000
  0
VERTEX
  8
PIN_TOP
 10
49.427400
 20
42.442000
 40
0.000000
 41
0.000000
 42
0.000000
  0
VERTEX
  8
PIN_TOP
 10
49.122600
 20
42.442000
 40
0.000000
 41
0.000000
 42
0.000000
  0
VERTEX
  8
PIN_TOP
 10
49.122600
 20
43.458000
 40
0.000000
 41
0.000000
 42
0.000000
  0
VERTEX
  8
PIN_TOP
 10
49.427400
 20
43.458000
 40
0.000000
 41
0.000000
 42
0.000000
  0
SEQEND
  0
POLYLINE
  8
PIN_TOP
 66
1
 70
1
 40
0.000000
 41
0.000000
 39
0.000000
  0
VERTEX
  8
PIN_TOP
 10
48.777400
 20
42.442000
 40
0.000000
 41
0.000000
 42
0.000000
  0
VERTEX
  8
PIN_TOP
 10
48.472600
 20
42.442000
 40
0.000000
 41
0.000000
 42
0.000000
  0
VERTEX
  8
PIN_TOP
 10
48.472600
 20
43.458000
 40
0.000000
 41
0.000000
 42
0.000000
  0
VERTEX
  8
PIN_TOP
 10
48.777400
 20
43.458000
 40
0.000000
 41
0.000000
 42
0.000000
  0
SEQEND
  0
POLYLINE
  8
PIN_TOP
 66
1
 70
1
 40
0.000000
 41
0.000000
 39
0.000000
  0
VERTEX
  8
PIN_TOP
 10
48.127400
 20
42.442000
 40
0.000000
 41
0.000000
 42
0.000000
  0
VERTEX
  8
PIN_TOP
 10
47.822600
 20
42.442000
 40
0.000000
 41
0.000000
 42
0.000000
  0
VERTEX
  8
PIN_TOP
 10
47.822600
 20
43.458000
 40
0.000000
 41
0.000000
 42
0.000000
  0
VERTEX
  8
PIN_TOP
 10
48.127400
 20
43.458000
 40
0.000000
 41
0.000000
 42
0.000000
  0
SEQEND
  0
POLYLINE
  8
PIN_TOP
 66
1
 70
1
 40
0.000000
 41
0.000000
 39
0.000000
  0
VERTEX
  8
PIN_TOP
 10
47.477400
 20
42.442000
 40
0.000000
 41
0.000000
 42
0.000000
  0
VERTEX
  8
PIN_TOP
 10
47.172600
 20
42.442000
 40
0.000000
 41
0.000000
 42
0.000000
  0
VERTEX
  8
PIN_TOP
 10
47.172600
 20
43.458000
 40
0.000000
 41
0.000000
 42
0.000000
  0
VERTEX
  8
PIN_TOP
 10
47.477400
 20
43.458000
 40
0.000000
 41
0.000000
 42
0.000000
  0
SEQEND
  0
POLYLINE
  8
PIN_TOP
 66
1
 70
1
 40
0.000000
 41
0.000000
 39
0.000000
  0
VERTEX
  8
PIN_TOP
 10
46.827400
 20
42.442000
 40
0.000000
 41
0.000000
 42
0.000000
  0
VERTEX
  8
PIN_TOP
 10
46.522600
 20
42.442000
 40
0.000000
 41
0.000000
 42
0.000000
  0
VERTEX
  8
PIN_TOP
 10
46.522600
 20
43.458000
 40
0.000000
 41
0.000000
 42
0.000000
  0
VERTEX
  8
PIN_TOP
 10
46.827400
 20
43.458000
 40
0.000000
 41
0.000000
 42
0.000000
  0
SEQEND
  0
POLYLINE
  8
PIN_TOP
 66
1
 70
1
 40
0.000000
 41
0.000000
 39
0.000000
  0
VERTEX
  8
PIN_TOP
 10
46.177400
 20
42.442000
 40
0.000000
 41
0.000000
 42
0.000000
  0
VERTEX
  8
PIN_TOP
 10
45.872600
 20
42.442000
 40
0.000000
 41
0.000000
 42
0.000000
  0
VERTEX
  8
PIN_TOP
 10
45.872600
 20
43.458000
 40
0.000000
 41
0.000000
 42
0.000000
  0
VERTEX
  8
PIN_TOP
 10
46.177400
 20
43.458000
 40
0.000000
 41
0.000000
 42
0.000000
  0
SEQEND
  0
POLYLINE
  8
PIN_TOP
 66
1
 70
1
 40
0.000000
 41
0.000000
 39
0.000000
  0
VERTEX
  8
PIN_TOP
 10
45.527400
 20
42.442000
 40
0.000000
 41
0.000000
 42
0.000000
  0
VERTEX
  8
PIN_TOP
 10
45.222600
 20
42.442000
 40
0.000000
 41
0.000000
 42
0.000000
  0
VERTEX
  8
PIN_TOP
 10
45.222600
 20
43.458000
 40
0.000000
 41
0.000000
 42
0.000000
  0
VERTEX
  8
PIN_TOP
 10
45.527400
 20
43.458000
 40
0.000000
 41
0.000000
 42
0.000000
  0
SEQEND
  0
POLYLINE
  8
PIN_TOP
 66
1
 70
1
 40
0.000000
 41
0.000000
 39
0.000000
  0
VERTEX
  8
PIN_TOP
 10
44.877400
 20
42.442000
 40
0.000000
 41
0.000000
 42
0.000000
  0
VERTEX
  8
PIN_TOP
 10
44.572600
 20
42.442000
 40
0.000000
 41
0.000000
 42
0.000000
  0
VERTEX
  8
PIN_TOP
 10
44.572600
 20
43.458000
 40
0.000000
 41
0.000000
 42
0.000000
  0
VERTEX
  8
PIN_TOP
 10
44.877400
 20
43.458000
 40
0.000000
 41
0.000000
 42
0.000000
  0
SEQEND
  0
POLYLINE
  8
PACKAGE_GEOMETRY_SILKSCREEN_TO
 66
1
 70
0
 40
0.000000
 41
0.000000
 39
0.000000
  0
VERTEX
  8
PACKAGE_GEOMETRY_SILKSCREEN_TO
 10
44.150000
 20
39.400000
 40
0.205000
 41
0.205000
 42
0.000000
  0
VERTEX
  8
PACKAGE_GEOMETRY_SILKSCREEN_TO
 10
44.150000
 20
39.600000
 40
0.205000
 41
0.205000
 42
0.000000
  0
VERTEX
  8
PACKAGE_GEOMETRY_SILKSCREEN_TO
 10
44.450000
 20
39.600000
 40
0.205000
 41
0.205000
 42
0.000000
  0
VERTEX
  8
PACKAGE_GEOMETRY_SILKSCREEN_TO
 10
44.450000
 20
40.400000
 40
0.205000
 41
0.205000
 42
0.000000
  0
VERTEX
  8
PACKAGE_GEOMETRY_SILKSCREEN_TO
 10
44.150000
 20
40.400000
 40
0.205000
 41
0.205000
 42
0.000000
  0
VERTEX
  8
PACKAGE_GEOMETRY_SILKSCREEN_TO
 10
44.150000
 20
40.600000
 40
0.205000
 41
0.205000
 42
0.000000
  0
SEQEND
  0
POLYLINE
  8
PACKAGE_GEOMETRY_SILKSCREEN_TO
 66
1
 70
0
 40
0.000000
 41
0.000000
 39
0.000000
  0
VERTEX
  8
PACKAGE_GEOMETRY_SILKSCREEN_TO
 10
49.250000
 20
41.800000
 40
0.205000
 41
0.205000
 42
0.000000
  0
VERTEX
  8
PACKAGE_GEOMETRY_SILKSCREEN_TO
 10
49.850000
 20
41.800000
 40
0.205000
 41
0.205000
 42
0.000000
  0
VERTEX
  8
PACKAGE_GEOMETRY_SILKSCREEN_TO
 10
49.850000
 20
41.200000
 40
0.205000
 41
0.205000
 42
0.000000
  0
SEQEND
  0
POLYLINE
  8
PACKAGE_GEOMETRY_SILKSCREEN_TO
 66
1
 70
0
 40
0.000000
 41
0.000000
 39
0.000000
  0
VERTEX
  8
PACKAGE_GEOMETRY_SILKSCREEN_TO
 10
49.250000
 20
38.200000
 40
0.205000
 41
0.205000
 42
0.000000
  0
VERTEX
  8
PACKAGE_GEOMETRY_SILKSCREEN_TO
 10
49.850000
 20
38.200000
 40
0.205000
 41
0.205000
 42
0.000000
  0
VERTEX
  8
PACKAGE_GEOMETRY_SILKSCREEN_TO
 10
49.850000
 20
38.800000
 40
0.205000
 41
0.205000
 42
0.000000
  0
SEQEND
  0
POLYLINE
  8
PACKAGE_GEOMETRY_SILKSCREEN_TO
 66
1
 70
0
 40
0.000000
 41
0.000000
 39
0.000000
  0
VERTEX
  8
PACKAGE_GEOMETRY_SILKSCREEN_TO
 10
44.150000
 20
41.200000
 40
0.205000
 41
0.205000
 42
0.000000
  0
VERTEX
  8
PACKAGE_GEOMETRY_SILKSCREEN_TO
 10
44.150000
 20
41.800000
 40
0.205000
 41
0.205000
 42
0.000000
  0
VERTEX
  8
PACKAGE_GEOMETRY_SILKSCREEN_TO
 10
44.750000
 20
41.800000
 40
0.205000
 41
0.205000
 42
0.000000
  0
SEQEND
  0
POLYLINE
  8
PACKAGE_GEOMETRY_SILKSCREEN_TO
 66
1
 70
0
 40
0.000000
 41
0.000000
 39
0.000000
  0
VERTEX
  8
PACKAGE_GEOMETRY_SILKSCREEN_TO
 10
44.150000
 20
38.800000
 40
0.205000
 41
0.205000
 42
0.000000
  0
VERTEX
  8
PACKAGE_GEOMETRY_SILKSCREEN_TO
 10
44.150000
 20
38.600000
 40
0.205000
 41
0.205000
 42
0.000000
  0
VERTEX
  8
PACKAGE_GEOMETRY_SILKSCREEN_TO
 10
44.550000
 20
38.200000
 40
0.205000
 41
0.205000
 42
0.000000
  0
VERTEX
  8
PACKAGE_GEOMETRY_SILKSCREEN_TO
 10
44.750000
 20
38.200000
 40
0.205000
 41
0.205000
 42
0.000000
  0
SEQEND
  0
POLYLINE
  8
PIN_TOP
 66
1
 70
1
 40
0.000000
 41
0.000000
 39
0.000000
  0
VERTEX
  8
PIN_TOP
 10
43.873000
 20
48.550000
 40
0.000000
 41
0.000000
 42
0.000000
  0
VERTEX
  8
PIN_TOP
 10
44.127000
 20
48.550000
 40
0.000000
 41
0.000000
 42
0.000000
  0
VERTEX
  8
PIN_TOP
 10
44.127000
 20
46.010000
 40
0.000000
 41
0.000000
 42
0.000000
  0
VERTEX
  8
PIN_TOP
 10
43.873000
 20
46.010000
 40
0.000000
 41
0.000000
 42
0.000000
  0
SEQEND
  0
POLYLINE
  8
PIN_TOP
 66
1
 70
1
 40
0.000000
 41
0.000000
 39
0.000000
  0
VERTEX
  8
PIN_TOP
 10
44.373000
 20
48.550000
 40
0.000000
 41
0.000000
 42
0.000000
  0
VERTEX
  8
PIN_TOP
 10
44.627000
 20
48.550000
 40
0.000000
 41
0.000000
 42
0.000000
  0
VERTEX
  8
PIN_TOP
 10
44.627000
 20
46.010000
 40
0.000000
 41
0.000000
 42
0.000000
  0
VERTEX
  8
PIN_TOP
 10
44.373000
 20
46.010000
 40
0.000000
 41
0.000000
 42
0.000000
  0
SEQEND
  0
POLYLINE
  8
PIN_TOP
 66
1
 70
1
 40
0.000000
 41
0.000000
 39
0.000000
  0
VERTEX
  8
PIN_TOP
 10
44.873000
 20
48.550000
 40
0.000000
 41
0.000000
 42
0.000000
  0
VERTEX
  8
PIN_TOP
 10
45.127000
 20
48.550000
 40
0.000000
 41
0.000000
 42
0.000000
  0
VERTEX
  8
PIN_TOP
 10
45.127000
 20
46.010000
 40
0.000000
 41
0.000000
 42
0.000000
  0
VERTEX
  8
PIN_TOP
 10
44.873000
 20
46.010000
 40
0.000000
 41
0.000000
 42
0.000000
  0
SEQEND
  0
POLYLINE
  8
PIN_TOP
 66
1
 70
1
 40
0.000000
 41
0.000000
 39
0.000000
  0
VERTEX
  8
PIN_TOP
 10
45.373000
 20
48.550000
 40
0.000000
 41
0.000000
 42
0.000000
  0
VERTEX
  8
PIN_TOP
 10
45.627000
 20
48.550000
 40
0.000000
 41
0.000000
 42
0.000000
  0
VERTEX
  8
PIN_TOP
 10
45.627000
 20
46.010000
 40
0.000000
 41
0.000000
 42
0.000000
  0
VERTEX
  8
PIN_TOP
 10
45.373000
 20
46.010000
 40
0.000000
 41
0.000000
 42
0.000000
  0
SEQEND
  0
POLYLINE
  8
PIN_TOP
 66
1
 70
1
 40
0.000000
 41
0.000000
 39
0.000000
  0
VERTEX
  8
PIN_TOP
 10
45.873000
 20
48.550000
 40
0.000000
 41
0.000000
 42
0.000000
  0
VERTEX
  8
PIN_TOP
 10
46.127000
 20
48.550000
 40
0.000000
 41
0.000000
 42
0.000000
  0
VERTEX
  8
PIN_TOP
 10
46.127000
 20
46.010000
 40
0.000000
 41
0.000000
 42
0.000000
  0
VERTEX
  8
PIN_TOP
 10
45.873000
 20
46.010000
 40
0.000000
 41
0.000000
 42
0.000000
  0
SEQEND
  0
POLYLINE
  8
PIN_TOP
 66
1
 70
1
 40
0.000000
 41
0.000000
 39
0.000000
  0
VERTEX
  8
PIN_TOP
 10
46.373000
 20
48.550000
 40
0.000000
 41
0.000000
 42
0.000000
  0
VERTEX
  8
PIN_TOP
 10
46.627000
 20
48.550000
 40
0.000000
 41
0.000000
 42
0.000000
  0
VERTEX
  8
PIN_TOP
 10
46.627000
 20
46.010000
 40
0.000000
 41
0.000000
 42
0.000000
  0
VERTEX
  8
PIN_TOP
 10
46.373000
 20
46.010000
 40
0.000000
 41
0.000000
 42
0.000000
  0
SEQEND
  0
POLYLINE
  8
PIN_TOP
 66
1
 70
1
 40
0.000000
 41
0.000000
 39
0.000000
  0
VERTEX
  8
PIN_TOP
 10
46.873000
 20
48.550000
 40
0.000000
 41
0.000000
 42
0.000000
  0
VERTEX
  8
PIN_TOP
 10
47.127000
 20
48.550000
 40
0.000000
 41
0.000000
 42
0.000000
  0
VERTEX
  8
PIN_TOP
 10
47.127000
 20
46.010000
 40
0.000000
 41
0.000000
 42
0.000000
  0
VERTEX
  8
PIN_TOP
 10
46.873000
 20
46.010000
 40
0.000000
 41
0.000000
 42
0.000000
  0
SEQEND
  0
POLYLINE
  8
PIN_TOP
 66
1
 70
1
 40
0.000000
 41
0.000000
 39
0.000000
  0
VERTEX
  8
PIN_TOP
 10
47.373000
 20
48.550000
 40
0.000000
 41
0.000000
 42
0.000000
  0
VERTEX
  8
PIN_TOP
 10
47.627000
 20
48.550000
 40
0.000000
 41
0.000000
 42
0.000000
  0
VERTEX
  8
PIN_TOP
 10
47.627000
 20
46.010000
 40
0.000000
 41
0.000000
 42
0.000000
  0
VERTEX
  8
PIN_TOP
 10
47.373000
 20
46.010000
 40
0.000000
 41
0.000000
 42
0.000000
  0
SEQEND
  0
POLYLINE
  8
PIN_TOP
 66
1
 70
1
 40
0.000000
 41
0.000000
 39
0.000000
  0
VERTEX
  8
PIN_TOP
 10
47.873000
 20
48.550000
 40
0.000000
 41
0.000000
 42
0.000000
  0
VERTEX
  8
PIN_TOP
 10
48.127000
 20
48.550000
 40
0.000000
 41
0.000000
 42
0.000000
  0
VERTEX
  8
PIN_TOP
 10
48.127000
 20
46.010000
 40
0.000000
 41
0.000000
 42
0.000000
  0
VERTEX
  8
PIN_TOP
 10
47.873000
 20
46.010000
 40
0.000000
 41
0.000000
 42
0.000000
  0
SEQEND
  0
POLYLINE
  8
PIN_TOP
 66
1
 70
1
 40
0.000000
 41
0.000000
 39
0.000000
  0
VERTEX
  8
PIN_TOP
 10
48.373000
 20
48.550000
 40
0.000000
 41
0.000000
 42
0.000000
  0
VERTEX
  8
PIN_TOP
 10
48.627000
 20
48.550000
 40
0.000000
 41
0.000000
 42
0.000000
  0
VERTEX
  8
PIN_TOP
 10
48.627000
 20
46.010000
 40
0.000000
 41
0.000000
 42
0.000000
  0
VERTEX
  8
PIN_TOP
 10
48.373000
 20
46.010000
 40
0.000000
 41
0.000000
 42
0.000000
  0
SEQEND
  0
POLYLINE
  8
PIN_TOP
 66
1
 70
1
 40
0.000000
 41
0.000000
 39
0.000000
  0
VERTEX
  8
PIN_TOP
 10
48.873000
 20
48.550000
 40
0.000000
 41
0.000000
 42
0.000000
  0
VERTEX
  8
PIN_TOP
 10
49.127000
 20
48.550000
 40
0.000000
 41
0.000000
 42
0.000000
  0
VERTEX
  8
PIN_TOP
 10
49.127000
 20
46.010000
 40
0.000000
 41
0.000000
 42
0.000000
  0
VERTEX
  8
PIN_TOP
 10
48.873000
 20
46.010000
 40
0.000000
 41
0.000000
 42
0.000000
  0
SEQEND
  0
POLYLINE
  8
PIN_TOP
 66
1
 70
1
 40
0.000000
 41
0.000000
 39
0.000000
  0
VERTEX
  8
PIN_TOP
 10
49.373000
 20
48.550000
 40
0.000000
 41
0.000000
 42
0.000000
  0
VERTEX
  8
PIN_TOP
 10
49.627000
 20
48.550000
 40
0.000000
 41
0.000000
 42
0.000000
  0
VERTEX
  8
PIN_TOP
 10
49.627000
 20
46.010000
 40
0.000000
 41
0.000000
 42
0.000000
  0
VERTEX
  8
PIN_TOP
 10
49.373000
 20
46.010000
 40
0.000000
 41
0.000000
 42
0.000000
  0
SEQEND
  0
POLYLINE
  8
PIN_TOP
 66
1
 70
1
 40
0.000000
 41
0.000000
 39
0.000000
  0
VERTEX
  8
PIN_TOP
 10
49.873000
 20
48.550000
 40
0.000000
 41
0.000000
 42
0.000000
  0
VERTEX
  8
PIN_TOP
 10
50.127000
 20
48.550000
 40
0.000000
 41
0.000000
 42
0.000000
  0
VERTEX
  8
PIN_TOP
 10
50.127000
 20
46.010000
 40
0.000000
 41
0.000000
 42
0.000000
  0
VERTEX
  8
PIN_TOP
 10
49.873000
 20
46.010000
 40
0.000000
 41
0.000000
 42
0.000000
  0
SEQEND
  0
POLYLINE
  8
PIN_TOP
 66
1
 70
1
 40
0.000000
 41
0.000000
 39
0.000000
  0
VERTEX
  8
PIN_TOP
 10
50.373000
 20
48.550000
 40
0.000000
 41
0.000000
 42
0.000000
  0
VERTEX
  8
PIN_TOP
 10
50.627000
 20
48.550000
 40
0.000000
 41
0.000000
 42
0.000000
  0
VERTEX
  8
PIN_TOP
 10
50.627000
 20
46.010000
 40
0.000000
 41
0.000000
 42
0.000000
  0
VERTEX
  8
PIN_TOP
 10
50.373000
 20
46.010000
 40
0.000000
 41
0.000000
 42
0.000000
  0
SEQEND
  0
POLYLINE
  8
PIN_TOP
 66
1
 70
1
 40
0.000000
 41
0.000000
 39
0.000000
  0
VERTEX
  8
PIN_TOP
 10
50.873000
 20
48.550000
 40
0.000000
 41
0.000000
 42
0.000000
  0
VERTEX
  8
PIN_TOP
 10
51.127000
 20
48.550000
 40
0.000000
 41
0.000000
 42
0.000000
  0
VERTEX
  8
PIN_TOP
 10
51.127000
 20
46.010000
 40
0.000000
 41
0.000000
 42
0.000000
  0
VERTEX
  8
PIN_TOP
 10
50.873000
 20
46.010000
 40
0.000000
 41
0.000000
 42
0.000000
  0
SEQEND
  0
POLYLINE
  8
PIN_TOP
 66
1
 70
1
 40
0.000000
 41
0.000000
 39
0.000000
  0
VERTEX
  8
PIN_TOP
 10
51.373000
 20
48.550000
 40
0.000000
 41
0.000000
 42
0.000000
  0
VERTEX
  8
PIN_TOP
 10
51.627000
 20
48.550000
 40
0.000000
 41
0.000000
 42
0.000000
  0
VERTEX
  8
PIN_TOP
 10
51.627000
 20
46.010000
 40
0.000000
 41
0.000000
 42
0.000000
  0
VERTEX
  8
PIN_TOP
 10
51.373000
 20
46.010000
 40
0.000000
 41
0.000000
 42
0.000000
  0
SEQEND
  0
POLYLINE
  8
PIN_TOP
 66
1
 70
1
 40
0.000000
 41
0.000000
 39
0.000000
  0
VERTEX
  8
PIN_TOP
 10
51.873000
 20
48.550000
 40
0.000000
 41
0.000000
 42
0.000000
  0
VERTEX
  8
PIN_TOP
 10
52.127000
 20
48.550000
 40
0.000000
 41
0.000000
 42
0.000000
  0
VERTEX
  8
PIN_TOP
 10
52.127000
 20
46.010000
 40
0.000000
 41
0.000000
 42
0.000000
  0
VERTEX
  8
PIN_TOP
 10
51.873000
 20
46.010000
 40
0.000000
 41
0.000000
 42
0.000000
  0
SEQEND
  0
POLYLINE
  8
PIN_TOP
 66
1
 70
1
 40
0.000000
 41
0.000000
 39
0.000000
  0
VERTEX
  8
PIN_TOP
 10
52.373000
 20
48.550000
 40
0.000000
 41
0.000000
 42
0.000000
  0
VERTEX
  8
PIN_TOP
 10
52.627000
 20
48.550000
 40
0.000000
 41
0.000000
 42
0.000000
  0
VERTEX
  8
PIN_TOP
 10
52.627000
 20
46.010000
 40
0.000000
 41
0.000000
 42
0.000000
  0
VERTEX
  8
PIN_TOP
 10
52.373000
 20
46.010000
 40
0.000000
 41
0.000000
 42
0.000000
  0
SEQEND
  0
POLYLINE
  8
PIN_TOP
 66
1
 70
1
 40
0.000000
 41
0.000000
 39
0.000000
  0
VERTEX
  8
PIN_TOP
 10
52.873000
 20
48.550000
 40
0.000000
 41
0.000000
 42
0.000000
  0
VERTEX
  8
PIN_TOP
 10
53.127000
 20
48.550000
 40
0.000000
 41
0.000000
 42
0.000000
  0
VERTEX
  8
PIN_TOP
 10
53.127000
 20
46.010000
 40
0.000000
 41
0.000000
 42
0.000000
  0
VERTEX
  8
PIN_TOP
 10
52.873000
 20
46.010000
 40
0.000000
 41
0.000000
 42
0.000000
  0
SEQEND
  0
POLYLINE
  8
PIN_TOP
 66
1
 70
1
 40
0.000000
 41
0.000000
 39
0.000000
  0
VERTEX
  8
PIN_TOP
 10
40.551500
 20
46.472500
 40
0.000000
 41
0.000000
 42
0.000000
  0
VERTEX
  8
PIN_TOP
 10
40.551500
 20
49.647500
 40
0.000000
 41
0.000000
 42
0.000000
  0
VERTEX
  8
PIN_TOP
 10
41.948500
 20
49.647500
 40
0.000000
 41
0.000000
 42
0.000000
  0
VERTEX
  8
PIN_TOP
 10
41.948500
 20
46.472500
 40
0.000000
 41
0.000000
 42
0.000000
  0
SEQEND
  0
POLYLINE
  8
PIN_TOP
 66
1
 70
1
 40
0.000000
 41
0.000000
 39
0.000000
  0
VERTEX
  8
PIN_TOP
 10
55.051500
 20
46.472500
 40
0.000000
 41
0.000000
 42
0.000000
  0
VERTEX
  8
PIN_TOP
 10
55.051500
 20
49.647500
 40
0.000000
 41
0.000000
 42
0.000000
  0
VERTEX
  8
PIN_TOP
 10
56.448500
 20
49.647500
 40
0.000000
 41
0.000000
 42
0.000000
  0
VERTEX
  8
PIN_TOP
 10
56.448500
 20
46.472500
 40
0.000000
 41
0.000000
 42
0.000000
  0
SEQEND
  0
POLYLINE
  8
PIN_TOP
 66
1
 70
1
 40
0.000000
 41
0.000000
 39
0.000000
  0
VERTEX
  8
PIN_TOP
 10
40.551500
 20
52.764600
 40
0.000000
 41
0.000000
 42
0.000000
  0
VERTEX
  8
PIN_TOP
 10
40.551500
 20
55.355400
 40
0.000000
 41
0.000000
 42
0.000000
  0
VERTEX
  8
PIN_TOP
 10
41.948500
 20
55.355400
 40
0.000000
 41
0.000000
 42
0.000000
  0
VERTEX
  8
PIN_TOP
 10
41.948500
 20
52.764600
 40
0.000000
 41
0.000000
 42
0.000000
  0
SEQEND
  0
POLYLINE
  8
PIN_TOP
 66
1
 70
1
 40
0.000000
 41
0.000000
 39
0.000000
  0
VERTEX
  8
PIN_TOP
 10
55.051500
 20
52.764600
 40
0.000000
 41
0.000000
 42
0.000000
  0
VERTEX
  8
PIN_TOP
 10
55.051500
 20
55.355400
 40
0.000000
 41
0.000000
 42
0.000000
  0
VERTEX
  8
PIN_TOP
 10
56.448500
 20
55.355400
 40
0.000000
 41
0.000000
 42
0.000000
  0
VERTEX
  8
PIN_TOP
 10
56.448500
 20
52.764600
 40
0.000000
 41
0.000000
 42
0.000000
  0
SEQEND
  0
POLYLINE
  8
PACKAGE_GEOMETRY_SILKSCREEN_TO
 66
1
 70
0
 40
0.000000
 41
0.000000
 39
0.000000
  0
VERTEX
  8
PACKAGE_GEOMETRY_SILKSCREEN_TO
 10
42.750000
 20
46.000000
 40
0.203200
 41
0.203200
 42
0.000000
  0
VERTEX
  8
PACKAGE_GEOMETRY_SILKSCREEN_TO
 10
41.000000
 20
46.000000
 40
0.203200
 41
0.203200
 42
0.000000
  0
VERTEX
  8
PACKAGE_GEOMETRY_SILKSCREEN_TO
 10
41.000000
 20
46.250000
 40
0.203200
 41
0.203200
 42
0.000000
  0
SEQEND
  0
POLYLINE
  8
PACKAGE_GEOMETRY_SILKSCREEN_TO
 66
1
 70
0
 40
0.000000
 41
0.000000
 39
0.000000
  0
VERTEX
  8
PACKAGE_GEOMETRY_SILKSCREEN_TO
 10
54.250000
 20
46.000000
 40
0.203200
 41
0.203200
 42
0.000000
  0
VERTEX
  8
PACKAGE_GEOMETRY_SILKSCREEN_TO
 10
56.000000
 20
46.000000
 40
0.203200
 41
0.203200
 42
0.000000
  0
VERTEX
  8
PACKAGE_GEOMETRY_SILKSCREEN_TO
 10
56.000000
 20
46.250000
 40
0.203200
 41
0.203200
 42
0.000000
  0
SEQEND
  0
POLYLINE
  8
PACKAGE_GEOMETRY_SILKSCREEN_TO
 66
1
 70
0
 40
0.000000
 41
0.000000
 39
0.000000
  0
VERTEX
  8
PACKAGE_GEOMETRY_SILKSCREEN_TO
 10
56.000000
 20
56.750000
 40
0.203200
 41
0.203200
 42
0.000000
  0
VERTEX
  8
PACKAGE_GEOMETRY_SILKSCREEN_TO
 10
56.000000
 20
57.500000
 40
0.203200
 41
0.203200
 42
0.000000
  0
VERTEX
  8
PACKAGE_GEOMETRY_SILKSCREEN_TO
 10
55.250000
 20
57.500000
 40
0.203200
 41
0.203200
 42
0.000000
  0
SEQEND
  0
POLYLINE
  8
PACKAGE_GEOMETRY_SILKSCREEN_TO
 66
1
 70
0
 40
0.000000
 41
0.000000
 39
0.000000
  0
VERTEX
  8
PACKAGE_GEOMETRY_SILKSCREEN_TO
 10
41.000000
 20
56.750000
 40
0.203200
 41
0.203200
 42
0.000000
  0
VERTEX
  8
PACKAGE_GEOMETRY_SILKSCREEN_TO
 10
41.000000
 20
57.500000
 40
0.203200
 41
0.203200
 42
0.000000
  0
VERTEX
  8
PACKAGE_GEOMETRY_SILKSCREEN_TO
 10
41.750000
 20
57.500000
 40
0.203200
 41
0.203200
 42
0.000000
  0
SEQEND
  0
CIRCLE
  8
PIN_TOP
 10
57.750000
 20
53.000000
 40
0.825500
  0
POLYLINE
  8
PACKAGE_GEOMETRY_SILKSCREEN_TO
 66
1
 70
1
 40
0.000000
 41
0.000000
 39
0.000000
  0
VERTEX
  8
PACKAGE_GEOMETRY_SILKSCREEN_TO
 10
56.734000
 20
53.508000
 40
0.203200
 41
0.203200
 42
0.000000
  0
VERTEX
  8
PACKAGE_GEOMETRY_SILKSCREEN_TO
 10
56.734000
 20
52.492000
 40
0.203200
 41
0.203200
 42
0.000000
  0
VERTEX
  8
PACKAGE_GEOMETRY_SILKSCREEN_TO
 10
57.242000
 20
51.984000
 40
0.203200
 41
0.203200
 42
0.000000
  0
VERTEX
  8
PACKAGE_GEOMETRY_SILKSCREEN_TO
 10
58.258000
 20
51.984000
 40
0.203200
 41
0.203200
 42
0.000000
  0
VERTEX
  8
PACKAGE_GEOMETRY_SILKSCREEN_TO
 10
58.766000
 20
52.492000
 40
0.203200
 41
0.203200
 42
0.000000
  0
VERTEX
  8
PACKAGE_GEOMETRY_SILKSCREEN_TO
 10
58.766000
 20
53.508000
 40
0.203200
 41
0.203200
 42
0.000000
  0
VERTEX
  8
PACKAGE_GEOMETRY_SILKSCREEN_TO
 10
58.258000
 20
54.016000
 40
0.203200
 41
0.203200
 42
0.000000
  0
VERTEX
  8
PACKAGE_GEOMETRY_SILKSCREEN_TO
 10
57.242000
 20
54.016000
 40
0.203200
 41
0.203200
 42
0.000000
  0
SEQEND
  0
CIRCLE
  8
PIN_TOP
 10
30.000000
 20
32.000000
 40
0.825500
  0
POLYLINE
  8
PACKAGE_GEOMETRY_SILKSCREEN_TO
 66
1
 70
1
 40
0.000000
 41
0.000000
 39
0.000000
  0
VERTEX
  8
PACKAGE_GEOMETRY_SILKSCREEN_TO
 10
29.492000
 20
30.984000
 40
0.203200
 41
0.203200
 42
0.000000
  0
VERTEX
  8
PACKAGE_GEOMETRY_SILKSCREEN_TO
 10
30.508000
 20
30.984000
 40
0.203200
 41
0.203200
 42
0.000000
  0
VERTEX
  8
PACKAGE_GEOMETRY_SILKSCREEN_TO
 10
31.016000
 20
31.492000
 40
0.203200
 41
0.203200
 42
0.000000
  0
VERTEX
  8
PACKAGE_GEOMETRY_SILKSCREEN_TO
 10
31.016000
 20
32.508000
 40
0.203200
 41
0.203200
 42
0.000000
  0
VERTEX
  8
PACKAGE_GEOMETRY_SILKSCREEN_TO
 10
30.508000
 20
33.016000
 40
0.203200
 41
0.203200
 42
0.000000
  0
VERTEX
  8
PACKAGE_GEOMETRY_SILKSCREEN_TO
 10
29.492000
 20
33.016000
 40
0.203200
 41
0.203200
 42
0.000000
  0
VERTEX
  8
PACKAGE_GEOMETRY_SILKSCREEN_TO
 10
28.984000
 20
32.508000
 40
0.203200
 41
0.203200
 42
0.000000
  0
VERTEX
  8
PACKAGE_GEOMETRY_SILKSCREEN_TO
 10
28.984000
 20
31.492000
 40
0.203200
 41
0.203200
 42
0.000000
  0
SEQEND
  0
CIRCLE
  8
PIN_TOP
 10
34.000000
 20
32.000000
 40
0.825500
  0
POLYLINE
  8
PACKAGE_GEOMETRY_SILKSCREEN_TO
 66
1
 70
1
 40
0.000000
 41
0.000000
 39
0.000000
  0
VERTEX
  8
PACKAGE_GEOMETRY_SILKSCREEN_TO
 10
33.492000
 20
30.984000
 40
0.203200
 41
0.203200
 42
0.000000
  0
VERTEX
  8
PACKAGE_GEOMETRY_SILKSCREEN_TO
 10
34.508000
 20
30.984000
 40
0.203200
 41
0.203200
 42
0.000000
  0
VERTEX
  8
PACKAGE_GEOMETRY_SILKSCREEN_TO
 10
35.016000
 20
31.492000
 40
0.203200
 41
0.203200
 42
0.000000
  0
VERTEX
  8
PACKAGE_GEOMETRY_SILKSCREEN_TO
 10
35.016000
 20
32.508000
 40
0.203200
 41
0.203200
 42
0.000000
  0
VERTEX
  8
PACKAGE_GEOMETRY_SILKSCREEN_TO
 10
34.508000
 20
33.016000
 40
0.203200
 41
0.203200
 42
0.000000
  0
VERTEX
  8
PACKAGE_GEOMETRY_SILKSCREEN_TO
 10
33.492000
 20
33.016000
 40
0.203200
 41
0.203200
 42
0.000000
  0
VERTEX
  8
PACKAGE_GEOMETRY_SILKSCREEN_TO
 10
32.984000
 20
32.508000
 40
0.203200
 41
0.203200
 42
0.000000
  0
VERTEX
  8
PACKAGE_GEOMETRY_SILKSCREEN_TO
 10
32.984000
 20
31.492000
 40
0.203200
 41
0.203200
 42
0.000000
  0
SEQEND
  0
CIRCLE
  8
PIN_TOP
 10
30.000000
 20
37.000000
 40
0.825500
  0
POLYLINE
  8
PACKAGE_GEOMETRY_SILKSCREEN_TO
 66
1
 70
1
 40
0.000000
 41
0.000000
 39
0.000000
  0
VERTEX
  8
PACKAGE_GEOMETRY_SILKSCREEN_TO
 10
29.492000
 20
35.984000
 40
0.203200
 41
0.203200
 42
0.000000
  0
VERTEX
  8
PACKAGE_GEOMETRY_SILKSCREEN_TO
 10
30.508000
 20
35.984000
 40
0.203200
 41
0.203200
 42
0.000000
  0
VERTEX
  8
PACKAGE_GEOMETRY_SILKSCREEN_TO
 10
31.016000
 20
36.492000
 40
0.203200
 41
0.203200
 42
0.000000
  0
VERTEX
  8
PACKAGE_GEOMETRY_SILKSCREEN_TO
 10
31.016000
 20
37.508000
 40
0.203200
 41
0.203200
 42
0.000000
  0
VERTEX
  8
PACKAGE_GEOMETRY_SILKSCREEN_TO
 10
30.508000
 20
38.016000
 40
0.203200
 41
0.203200
 42
0.000000
  0
VERTEX
  8
PACKAGE_GEOMETRY_SILKSCREEN_TO
 10
29.492000
 20
38.016000
 40
0.203200
 41
0.203200
 42
0.000000
  0
VERTEX
  8
PACKAGE_GEOMETRY_SILKSCREEN_TO
 10
28.984000
 20
37.508000
 40
0.203200
 41
0.203200
 42
0.000000
  0
VERTEX
  8
PACKAGE_GEOMETRY_SILKSCREEN_TO
 10
28.984000
 20
36.492000
 40
0.203200
 41
0.203200
 42
0.000000
  0
SEQEND
  0
CIRCLE
  8
PIN_TOP
 10
34.000000
 20
37.000000
 40
0.825500
  0
POLYLINE
  8
PACKAGE_GEOMETRY_SILKSCREEN_TO
 66
1
 70
1
 40
0.000000
 41
0.000000
 39
0.000000
  0
VERTEX
  8
PACKAGE_GEOMETRY_SILKSCREEN_TO
 10
33.492000
 20
35.984000
 40
0.203200
 41
0.203200
 42
0.000000
  0
VERTEX
  8
PACKAGE_GEOMETRY_SILKSCREEN_TO
 10
34.508000
 20
35.984000
 40
0.203200
 41
0.203200
 42
0.000000
  0
VERTEX
  8
PACKAGE_GEOMETRY_SILKSCREEN_TO
 10
35.016000
 20
36.492000
 40
0.203200
 41
0.203200
 42
0.000000
  0
VERTEX
  8
PACKAGE_GEOMETRY_SILKSCREEN_TO
 10
35.016000
 20
37.508000
 40
0.203200
 41
0.203200
 42
0.000000
  0
VERTEX
  8
PACKAGE_GEOMETRY_SILKSCREEN_TO
 10
34.508000
 20
38.016000
 40
0.203200
 41
0.203200
 42
0.000000
  0
VERTEX
  8
PACKAGE_GEOMETRY_SILKSCREEN_TO
 10
33.492000
 20
38.016000
 40
0.203200
 41
0.203200
 42
0.000000
  0
VERTEX
  8
PACKAGE_GEOMETRY_SILKSCREEN_TO
 10
32.984000
 20
37.508000
 40
0.203200
 41
0.203200
 42
0.000000
  0
VERTEX
  8
PACKAGE_GEOMETRY_SILKSCREEN_TO
 10
32.984000
 20
36.492000
 40
0.203200
 41
0.203200
 42
0.000000
  0
SEQEND
  0
CIRCLE
  8
PIN_TOP
 10
34.000000
 20
34.500000
 40
0.825500
  0
POLYLINE
  8
PACKAGE_GEOMETRY_SILKSCREEN_TO
 66
1
 70
1
 40
0.000000
 41
0.000000
 39
0.000000
  0
VERTEX
  8
PACKAGE_GEOMETRY_SILKSCREEN_TO
 10
33.492000
 20
33.484000
 40
0.203200
 41
0.203200
 42
0.000000
  0
VERTEX
  8
PACKAGE_GEOMETRY_SILKSCREEN_TO
 10
34.508000
 20
33.484000
 40
0.203200
 41
0.203200
 42
0.000000
  0
VERTEX
  8
PACKAGE_GEOMETRY_SILKSCREEN_TO
 10
35.016000
 20
33.992000
 40
0.203200
 41
0.203200
 42
0.000000
  0
VERTEX
  8
PACKAGE_GEOMETRY_SILKSCREEN_TO
 10
35.016000
 20
35.008000
 40
0.203200
 41
0.203200
 42
0.000000
  0
VERTEX
  8
PACKAGE_GEOMETRY_SILKSCREEN_TO
 10
34.508000
 20
35.516000
 40
0.203200
 41
0.203200
 42
0.000000
  0
VERTEX
  8
PACKAGE_GEOMETRY_SILKSCREEN_TO
 10
33.492000
 20
35.516000
 40
0.203200
 41
0.203200
 42
0.000000
  0
VERTEX
  8
PACKAGE_GEOMETRY_SILKSCREEN_TO
 10
32.984000
 20
35.008000
 40
0.203200
 41
0.203200
 42
0.000000
  0
VERTEX
  8
PACKAGE_GEOMETRY_SILKSCREEN_TO
 10
32.984000
 20
33.992000
 40
0.203200
 41
0.203200
 42
0.000000
  0
SEQEND
  0
CIRCLE
  8
PIN_TOP
 10
30.000000
 20
34.500000
 40
0.825500
  0
POLYLINE
  8
PACKAGE_GEOMETRY_SILKSCREEN_TO
 66
1
 70
1
 40
0.000000
 41
0.000000
 39
0.000000
  0
VERTEX
  8
PACKAGE_GEOMETRY_SILKSCREEN_TO
 10
29.492000
 20
33.484000
 40
0.203200
 41
0.203200
 42
0.000000
  0
VERTEX
  8
PACKAGE_GEOMETRY_SILKSCREEN_TO
 10
30.508000
 20
33.484000
 40
0.203200
 41
0.203200
 42
0.000000
  0
VERTEX
  8
PACKAGE_GEOMETRY_SILKSCREEN_TO
 10
31.016000
 20
33.992000
 40
0.203200
 41
0.203200
 42
0.000000
  0
VERTEX
  8
PACKAGE_GEOMETRY_SILKSCREEN_TO
 10
31.016000
 20
35.008000
 40
0.203200
 41
0.203200
 42
0.000000
  0
VERTEX
  8
PACKAGE_GEOMETRY_SILKSCREEN_TO
 10
30.508000
 20
35.516000
 40
0.203200
 41
0.203200
 42
0.000000
  0
VERTEX
  8
PACKAGE_GEOMETRY_SILKSCREEN_TO
 10
29.492000
 20
35.516000
 40
0.203200
 41
0.203200
 42
0.000000
  0
VERTEX
  8
PACKAGE_GEOMETRY_SILKSCREEN_TO
 10
28.984000
 20
35.008000
 40
0.203200
 41
0.203200
 42
0.000000
  0
VERTEX
  8
PACKAGE_GEOMETRY_SILKSCREEN_TO
 10
28.984000
 20
33.992000
 40
0.203200
 41
0.203200
 42
0.000000
  0
SEQEND
  0
POLYLINE
  8
PIN_TOP
 66
1
 70
1
 40
0.000000
 41
0.000000
 39
0.000000
  0
VERTEX
  8
PIN_TOP
 10
26.777500
 20
49.365000
 40
0.000000
 41
0.000000
 42
0.000000
  0
VERTEX
  8
PIN_TOP
 10
26.777500
 20
50.635000
 40
0.000000
 41
0.000000
 42
0.000000
  0
VERTEX
  8
PIN_TOP
 10
31.222500
 20
50.635000
 40
0.000000
 41
0.000000
 42
0.000000
  0
VERTEX
  8
PIN_TOP
 10
31.222500
 20
49.365000
 40
0.000000
 41
0.000000
 42
0.000000
  0
SEQEND
  0
POLYLINE
  8
PIN_TOP
 66
1
 70
1
 40
0.000000
 41
0.000000
 39
0.000000
  0
VERTEX
  8
PIN_TOP
 10
32.777500
 20
49.365000
 40
0.000000
 41
0.000000
 42
0.000000
  0
VERTEX
  8
PIN_TOP
 10
32.777500
 20
50.635000
 40
0.000000
 41
0.000000
 42
0.000000
  0
VERTEX
  8
PIN_TOP
 10
37.222500
 20
50.635000
 40
0.000000
 41
0.000000
 42
0.000000
  0
VERTEX
  8
PIN_TOP
 10
37.222500
 20
49.365000
 40
0.000000
 41
0.000000
 42
0.000000
  0
SEQEND
  0
POLYLINE
  8
PACKAGE_GEOMETRY_SILKSCREEN_TO
 66
1
 70
0
 40
0.000000
 41
0.000000
 39
0.000000
  0
VERTEX
  8
PACKAGE_GEOMETRY_SILKSCREEN_TO
 10
30.100000
 20
54.400000
 40
0.500000
 41
0.500000
 42
0.000000
  0
VERTEX
  8
PACKAGE_GEOMETRY_SILKSCREEN_TO
 10
29.100000
 20
54.400000
 40
0.500000
 41
0.500000
 42
0.000000
  0
VERTEX
  8
PACKAGE_GEOMETRY_SILKSCREEN_TO
 10
27.600000
 20
52.900000
 40
0.500000
 41
0.500000
 42
0.000000
  0
VERTEX
  8
PACKAGE_GEOMETRY_SILKSCREEN_TO
 10
27.600000
 20
51.900000
 40
0.500000
 41
0.500000
 42
0.000000
  0
SEQEND
  0
POLYLINE
  8
PACKAGE_GEOMETRY_SILKSCREEN_TO
 66
1
 70
0
 40
0.000000
 41
0.000000
 39
0.000000
  0
VERTEX
  8
PACKAGE_GEOMETRY_SILKSCREEN_TO
 10
30.100000
 20
45.600000
 40
0.500000
 41
0.500000
 42
0.000000
  0
VERTEX
  8
PACKAGE_GEOMETRY_SILKSCREEN_TO
 10
29.100000
 20
45.600000
 40
0.500000
 41
0.500000
 42
0.000000
  0
VERTEX
  8
PACKAGE_GEOMETRY_SILKSCREEN_TO
 10
27.600000
 20
47.100000
 40
0.500000
 41
0.500000
 42
0.000000
  0
VERTEX
  8
PACKAGE_GEOMETRY_SILKSCREEN_TO
 10
27.600000
 20
48.100000
 40
0.500000
 41
0.500000
 42
0.000000
  0
SEQEND
  0
POLYLINE
  8
PACKAGE_GEOMETRY_SILKSCREEN_TO
 66
1
 70
0
 40
0.000000
 41
0.000000
 39
0.000000
  0
VERTEX
  8
PACKAGE_GEOMETRY_SILKSCREEN_TO
 10
32.000000
 20
53.500000
 40
0.500000
 41
0.500000
 42
0.000000
  0
VERTEX
  8
PACKAGE_GEOMETRY_SILKSCREEN_TO
 10
32.000000
 20
46.500000
 40
0.500000
 41
0.500000
 42
0.000000
  0
SEQEND
  0
POLYLINE
  8
PACKAGE_GEOMETRY_SILKSCREEN_TO
 66
1
 70
0
 40
0.000000
 41
0.000000
 39
0.000000
  0
VERTEX
  8
PACKAGE_GEOMETRY_SILKSCREEN_TO
 10
34.400000
 20
45.600000
 40
0.500000
 41
0.500000
 42
0.000000
  0
VERTEX
  8
PACKAGE_GEOMETRY_SILKSCREEN_TO
 10
36.400000
 20
45.600000
 40
0.500000
 41
0.500000
 42
0.000000
  0
VERTEX
  8
PACKAGE_GEOMETRY_SILKSCREEN_TO
 10
36.400000
 20
47.600000
 40
0.500000
 41
0.500000
 42
0.000000
  0
SEQEND
  0
POLYLINE
  8
PACKAGE_GEOMETRY_SILKSCREEN_TO
 66
1
 70
0
 40
0.000000
 41
0.000000
 39
0.000000
  0
VERTEX
  8
PACKAGE_GEOMETRY_SILKSCREEN_TO
 10
34.400000
 20
54.400000
 40
0.500000
 41
0.500000
 42
0.000000
  0
VERTEX
  8
PACKAGE_GEOMETRY_SILKSCREEN_TO
 10
36.400000
 20
54.400000
 40
0.500000
 41
0.500000
 42
0.000000
  0
VERTEX
  8
PACKAGE_GEOMETRY_SILKSCREEN_TO
 10
36.400000
 20
52.400000
 40
0.500000
 41
0.500000
 42
0.000000
  0
SEQEND
  0
POLYLINE
  8
PACKAGE_GEOMETRY_SILKSCREEN_TO
 66
1
 70
1
 40
0.000000
 41
0.000000
 39
0.000000
  0
VERTEX
  8
PACKAGE_GEOMETRY_SILKSCREEN_TO
 10
33.500000
 20
53.500000
 40
0.500000
 41
0.500000
 42
1.000000
  0
VERTEX
  8
PACKAGE_GEOMETRY_SILKSCREEN_TO
 10
30.500000
 20
46.500000
 40
0.500000
 41
0.500000
 42
1.000000
  0
SEQEND
  0
POLYLINE
  8
PACKAGE_GEOMETRY_SILKSCREEN_TO
 66
1
 70
0
 40
0.000000
 41
0.000000
 39
0.000000
  0
VERTEX
  8
PACKAGE_GEOMETRY_SILKSCREEN_TO
 10
32.000000
 20
52.500000
 40
0.500000
 41
0.500000
 42
0.000000
  0
VERTEX
  8
PACKAGE_GEOMETRY_SILKSCREEN_TO
 10
33.000000
 20
53.500000
 40
0.500000
 41
0.500000
 42
0.000000
  0
SEQEND
  0
POLYLINE
  8
PACKAGE_GEOMETRY_SILKSCREEN_TO
 66
1
 70
0
 40
0.000000
 41
0.000000
 39
0.000000
  0
VERTEX
  8
PACKAGE_GEOMETRY_SILKSCREEN_TO
 10
32.000000
 20
51.000000
 40
0.500000
 41
0.500000
 42
0.000000
  0
VERTEX
  8
PACKAGE_GEOMETRY_SILKSCREEN_TO
 10
34.000000
 20
53.000000
 40
0.500000
 41
0.500000
 42
0.000000
  0
SEQEND
  0
POLYLINE
  8
PACKAGE_GEOMETRY_SILKSCREEN_TO
 66
1
 70
0
 40
0.000000
 41
0.000000
 39
0.000000
  0
VERTEX
  8
PACKAGE_GEOMETRY_SILKSCREEN_TO
 10
32.000000
 20
49.500000
 40
0.500000
 41
0.500000
 42
0.000000
  0
VERTEX
  8
PACKAGE_GEOMETRY_SILKSCREEN_TO
 10
34.800000
 20
52.300000
 40
0.500000
 41
0.500000
 42
0.000000
  0
SEQEND
  0
POLYLINE
  8
PACKAGE_GEOMETRY_SILKSCREEN_TO
 66
1
 70
0
 40
0.000000
 41
0.000000
 39
0.000000
  0
VERTEX
  8
PACKAGE_GEOMETRY_SILKSCREEN_TO
 10
32.000000
 20
48.000000
 40
0.500000
 41
0.500000
 42
0.000000
  0
VERTEX
  8
PACKAGE_GEOMETRY_SILKSCREEN_TO
 10
35.400000
 20
51.400000
 40
0.500000
 41
0.500000
 42
0.000000
  0
SEQEND
  0
POLYLINE
  8
PACKAGE_GEOMETRY_SILKSCREEN_TO
 66
1
 70
0
 40
0.000000
 41
0.000000
 39
0.000000
  0
VERTEX
  8
PACKAGE_GEOMETRY_SILKSCREEN_TO
 10
32.000000
 20
46.500000
 40
0.500000
 41
0.500000
 42
0.000000
  0
VERTEX
  8
PACKAGE_GEOMETRY_SILKSCREEN_TO
 10
35.700000
 20
50.200000
 40
0.500000
 41
0.500000
 42
0.000000
  0
SEQEND
  0
POLYLINE
  8
PIN_TOP
 66
1
 70
1
 40
0.000000
 41
0.000000
 39
0.000000
  0
VERTEX
  8
PIN_TOP
 10
18.635000
 20
10.777500
 40
0.000000
 41
0.000000
 42
0.000000
  0
VERTEX
  8
PIN_TOP
 10
17.365000
 20
10.777500
 40
0.000000
 41
0.000000
 42
0.000000
  0
VERTEX
  8
PIN_TOP
 10
17.365000
 20
15.222500
 40
0.000000
 41
0.000000
 42
0.000000
  0
VERTEX
  8
PIN_TOP
 10
18.635000
 20
15.222500
 40
0.000000
 41
0.000000
 42
0.000000
  0
SEQEND
  0
POLYLINE
  8
PIN_TOP
 66
1
 70
1
 40
0.000000
 41
0.000000
 39
0.000000
  0
VERTEX
  8
PIN_TOP
 10
18.635000
 20
16.777500
 40
0.000000
 41
0.000000
 42
0.000000
  0
VERTEX
  8
PIN_TOP
 10
17.365000
 20
16.777500
 40
0.000000
 41
0.000000
 42
0.000000
  0
VERTEX
  8
PIN_TOP
 10
17.365000
 20
21.222500
 40
0.000000
 41
0.000000
 42
0.000000
  0
VERTEX
  8
PIN_TOP
 10
18.635000
 20
21.222500
 40
0.000000
 41
0.000000
 42
0.000000
  0
SEQEND
  0
POLYLINE
  8
PACKAGE_GEOMETRY_SILKSCREEN_TO
 66
1
 70
0
 40
0.000000
 41
0.000000
 39
0.000000
  0
VERTEX
  8
PACKAGE_GEOMETRY_SILKSCREEN_TO
 10
13.600000
 20
14.100000
 40
0.500000
 41
0.500000
 42
0.000000
  0
VERTEX
  8
PACKAGE_GEOMETRY_SILKSCREEN_TO
 10
13.600000
 20
13.100000
 40
0.500000
 41
0.500000
 42
0.000000
  0
VERTEX
  8
PACKAGE_GEOMETRY_SILKSCREEN_TO
 10
15.100000
 20
11.600000
 40
0.500000
 41
0.500000
 42
0.000000
  0
VERTEX
  8
PACKAGE_GEOMETRY_SILKSCREEN_TO
 10
16.100000
 20
11.600000
 40
0.500000
 41
0.500000
 42
0.000000
  0
SEQEND
  0
POLYLINE
  8
PACKAGE_GEOMETRY_SILKSCREEN_TO
 66
1
 70
0
 40
0.000000
 41
0.000000
 39
0.000000
  0
VERTEX
  8
PACKAGE_GEOMETRY_SILKSCREEN_TO
 10
22.400000
 20
14.100000
 40
0.500000
 41
0.500000
 42
0.000000
  0
VERTEX
  8
PACKAGE_GEOMETRY_SILKSCREEN_TO
 10
22.400000
 20
13.100000
 40
0.500000
 41
0.500000
 42
0.000000
  0
VERTEX
  8
PACKAGE_GEOMETRY_SILKSCREEN_TO
 10
20.900000
 20
11.600000
 40
0.500000
 41
0.500000
 42
0.000000
  0
VERTEX
  8
PACKAGE_GEOMETRY_SILKSCREEN_TO
 10
19.900000
 20
11.600000
 40
0.500000
 41
0.500000
 42
0.000000
  0
SEQEND
  0
POLYLINE
  8
PACKAGE_GEOMETRY_SILKSCREEN_TO
 66
1
 70
0
 40
0.000000
 41
0.000000
 39
0.000000
  0
VERTEX
  8
PACKAGE_GEOMETRY_SILKSCREEN_TO
 10
14.500000
 20
16.000000
 40
0.500000
 41
0.500000
 42
0.000000
  0
VERTEX
  8
PACKAGE_GEOMETRY_SILKSCREEN_TO
 10
21.500000
 20
16.000000
 40
0.500000
 41
0.500000
 42
0.000000
  0
SEQEND
  0
POLYLINE
  8
PACKAGE_GEOMETRY_SILKSCREEN_TO
 66
1
 70
0
 40
0.000000
 41
0.000000
 39
0.000000
  0
VERTEX
  8
PACKAGE_GEOMETRY_SILKSCREEN_TO
 10
22.400000
 20
18.400000
 40
0.500000
 41
0.500000
 42
0.000000
  0
VERTEX
  8
PACKAGE_GEOMETRY_SILKSCREEN_TO
 10
22.400000
 20
20.400000
 40
0.500000
 41
0.500000
 42
0.000000
  0
VERTEX
  8
PACKAGE_GEOMETRY_SILKSCREEN_TO
 10
20.400000
 20
20.400000
 40
0.500000
 41
0.500000
 42
0.000000
  0
SEQEND
  0
POLYLINE
  8
PACKAGE_GEOMETRY_SILKSCREEN_TO
 66
1
 70
0
 40
0.000000
 41
0.000000
 39
0.000000
  0
VERTEX
  8
PACKAGE_GEOMETRY_SILKSCREEN_TO
 10
13.600000
 20
18.400000
 40
0.500000
 41
0.500000
 42
0.000000
  0
VERTEX
  8
PACKAGE_GEOMETRY_SILKSCREEN_TO
 10
13.600000
 20
20.400000
 40
0.500000
 41
0.500000
 42
0.000000
  0
VERTEX
  8
PACKAGE_GEOMETRY_SILKSCREEN_TO
 10
15.600000
 20
20.400000
 40
0.500000
 41
0.500000
 42
0.000000
  0
SEQEND
  0
POLYLINE
  8
PACKAGE_GEOMETRY_SILKSCREEN_TO
 66
1
 70
1
 40
0.000000
 41
0.000000
 39
0.000000
  0
VERTEX
  8
PACKAGE_GEOMETRY_SILKSCREEN_TO
 10
14.500000
 20
17.500000
 40
0.500000
 41
0.500000
 42
1.000000
  0
VERTEX
  8
PACKAGE_GEOMETRY_SILKSCREEN_TO
 10
21.500000
 20
14.500000
 40
0.500000
 41
0.500000
 42
1.000000
  0
SEQEND
  0
POLYLINE
  8
PACKAGE_GEOMETRY_SILKSCREEN_TO
 66
1
 70
0
 40
0.000000
 41
0.000000
 39
0.000000
  0
VERTEX
  8
PACKAGE_GEOMETRY_SILKSCREEN_TO
 10
15.500000
 20
16.000000
 40
0.500000
 41
0.500000
 42
0.000000
  0
VERTEX
  8
PACKAGE_GEOMETRY_SILKSCREEN_TO
 10
14.500000
 20
17.000000
 40
0.500000
 41
0.500000
 42
0.000000
  0
SEQEND
  0
POLYLINE
  8
PACKAGE_GEOMETRY_SILKSCREEN_TO
 66
1
 70
0
 40
0.000000
 41
0.000000
 39
0.000000
  0
VERTEX
  8
PACKAGE_GEOMETRY_SILKSCREEN_TO
 10
17.000000
 20
16.000000
 40
0.500000
 41
0.500000
 42
0.000000
  0
VERTEX
  8
PACKAGE_GEOMETRY_SILKSCREEN_TO
 10
15.000000
 20
18.000000
 40
0.500000
 41
0.500000
 42
0.000000
  0
SEQEND
  0
POLYLINE
  8
PACKAGE_GEOMETRY_SILKSCREEN_TO
 66
1
 70
0
 40
0.000000
 41
0.000000
 39
0.000000
  0
VERTEX
  8
PACKAGE_GEOMETRY_SILKSCREEN_TO
 10
18.500000
 20
16.000000
 40
0.500000
 41
0.500000
 42
0.000000
  0
VERTEX
  8
PACKAGE_GEOMETRY_SILKSCREEN_TO
 10
15.700000
 20
18.800000
 40
0.500000
 41
0.500000
 42
0.000000
  0
SEQEND
  0
POLYLINE
  8
PACKAGE_GEOMETRY_SILKSCREEN_TO
 66
1
 70
0
 40
0.000000
 41
0.000000
 39
0.000000
  0
VERTEX
  8
PACKAGE_GEOMETRY_SILKSCREEN_TO
 10
20.000000
 20
16.000000
 40
0.500000
 41
0.500000
 42
0.000000
  0
VERTEX
  8
PACKAGE_GEOMETRY_SILKSCREEN_TO
 10
16.600000
 20
19.400000
 40
0.500000
 41
0.500000
 42
0.000000
  0
SEQEND
  0
POLYLINE
  8
PACKAGE_GEOMETRY_SILKSCREEN_TO
 66
1
 70
0
 40
0.000000
 41
0.000000
 39
0.000000
  0
VERTEX
  8
PACKAGE_GEOMETRY_SILKSCREEN_TO
 10
21.500000
 20
16.000000
 40
0.500000
 41
0.500000
 42
0.000000
  0
VERTEX
  8
PACKAGE_GEOMETRY_SILKSCREEN_TO
 10
17.800000
 20
19.700000
 40
0.500000
 41
0.500000
 42
0.000000
  0
SEQEND
  0
POLYLINE
  8
PIN_TOP
 66
1
 70
1
 40
0.000000
 41
0.000000
 39
0.000000
  0
VERTEX
  8
PIN_TOP
 10
38.635000
 20
10.777500
 40
0.000000
 41
0.000000
 42
0.000000
  0
VERTEX
  8
PIN_TOP
 10
37.365000
 20
10.777500
 40
0.000000
 41
0.000000
 42
0.000000
  0
VERTEX
  8
PIN_TOP
 10
37.365000
 20
15.222500
 40
0.000000
 41
0.000000
 42
0.000000
  0
VERTEX
  8
PIN_TOP
 10
38.635000
 20
15.222500
 40
0.000000
 41
0.000000
 42
0.000000
  0
SEQEND
  0
POLYLINE
  8
PIN_TOP
 66
1
 70
1
 40
0.000000
 41
0.000000
 39
0.000000
  0
VERTEX
  8
PIN_TOP
 10
38.635000
 20
16.777500
 40
0.000000
 41
0.000000
 42
0.000000
  0
VERTEX
  8
PIN_TOP
 10
37.365000
 20
16.777500
 40
0.000000
 41
0.000000
 42
0.000000
  0
VERTEX
  8
PIN_TOP
 10
37.365000
 20
21.222500
 40
0.000000
 41
0.000000
 42
0.000000
  0
VERTEX
  8
PIN_TOP
 10
38.635000
 20
21.222500
 40
0.000000
 41
0.000000
 42
0.000000
  0
SEQEND
  0
POLYLINE
  8
PACKAGE_GEOMETRY_SILKSCREEN_TO
 66
1
 70
0
 40
0.000000
 41
0.000000
 39
0.000000
  0
VERTEX
  8
PACKAGE_GEOMETRY_SILKSCREEN_TO
 10
33.600000
 20
14.100000
 40
0.500000
 41
0.500000
 42
0.000000
  0
VERTEX
  8
PACKAGE_GEOMETRY_SILKSCREEN_TO
 10
33.600000
 20
13.100000
 40
0.500000
 41
0.500000
 42
0.000000
  0
VERTEX
  8
PACKAGE_GEOMETRY_SILKSCREEN_TO
 10
35.100000
 20
11.600000
 40
0.500000
 41
0.500000
 42
0.000000
  0
VERTEX
  8
PACKAGE_GEOMETRY_SILKSCREEN_TO
 10
36.100000
 20
11.600000
 40
0.500000
 41
0.500000
 42
0.000000
  0
SEQEND
  0
POLYLINE
  8
PACKAGE_GEOMETRY_SILKSCREEN_TO
 66
1
 70
0
 40
0.000000
 41
0.000000
 39
0.000000
  0
VERTEX
  8
PACKAGE_GEOMETRY_SILKSCREEN_TO
 10
42.400000
 20
14.100000
 40
0.500000
 41
0.500000
 42
0.000000
  0
VERTEX
  8
PACKAGE_GEOMETRY_SILKSCREEN_TO
 10
42.400000
 20
13.100000
 40
0.500000
 41
0.500000
 42
0.000000
  0
VERTEX
  8
PACKAGE_GEOMETRY_SILKSCREEN_TO
 10
40.900000
 20
11.600000
 40
0.500000
 41
0.500000
 42
0.000000
  0
VERTEX
  8
PACKAGE_GEOMETRY_SILKSCREEN_TO
 10
39.900000
 20
11.600000
 40
0.500000
 41
0.500000
 42
0.000000
  0
SEQEND
  0
POLYLINE
  8
PACKAGE_GEOMETRY_SILKSCREEN_TO
 66
1
 70
0
 40
0.000000
 41
0.000000
 39
0.000000
  0
VERTEX
  8
PACKAGE_GEOMETRY_SILKSCREEN_TO
 10
34.500000
 20
16.000000
 40
0.500000
 41
0.500000
 42
0.000000
  0
VERTEX
  8
PACKAGE_GEOMETRY_SILKSCREEN_TO
 10
41.500000
 20
16.000000
 40
0.500000
 41
0.500000
 42
0.000000
  0
SEQEND
  0
POLYLINE
  8
PACKAGE_GEOMETRY_SILKSCREEN_TO
 66
1
 70
0
 40
0.000000
 41
0.000000
 39
0.000000
  0
VERTEX
  8
PACKAGE_GEOMETRY_SILKSCREEN_TO
 10
42.400000
 20
18.400000
 40
0.500000
 41
0.500000
 42
0.000000
  0
VERTEX
  8
PACKAGE_GEOMETRY_SILKSCREEN_TO
 10
42.400000
 20
20.400000
 40
0.500000
 41
0.500000
 42
0.000000
  0
VERTEX
  8
PACKAGE_GEOMETRY_SILKSCREEN_TO
 10
40.400000
 20
20.400000
 40
0.500000
 41
0.500000
 42
0.000000
  0
SEQEND
  0
POLYLINE
  8
PACKAGE_GEOMETRY_SILKSCREEN_TO
 66
1
 70
0
 40
0.000000
 41
0.000000
 39
0.000000
  0
VERTEX
  8
PACKAGE_GEOMETRY_SILKSCREEN_TO
 10
33.600000
 20
18.400000
 40
0.500000
 41
0.500000
 42
0.000000
  0
VERTEX
  8
PACKAGE_GEOMETRY_SILKSCREEN_TO
 10
33.600000
 20
20.400000
 40
0.500000
 41
0.500000
 42
0.000000
  0
VERTEX
  8
PACKAGE_GEOMETRY_SILKSCREEN_TO
 10
35.600000
 20
20.400000
 40
0.500000
 41
0.500000
 42
0.000000
  0
SEQEND
  0
POLYLINE
  8
PACKAGE_GEOMETRY_SILKSCREEN_TO
 66
1
 70
1
 40
0.000000
 41
0.000000
 39
0.000000
  0
VERTEX
  8
PACKAGE_GEOMETRY_SILKSCREEN_TO
 10
34.500000
 20
17.500000
 40
0.500000
 41
0.500000
 42
1.000000
  0
VERTEX
  8
PACKAGE_GEOMETRY_SILKSCREEN_TO
 10
41.500000
 20
14.500000
 40
0.500000
 41
0.500000
 42
1.000000
  0
SEQEND
  0
POLYLINE
  8
PACKAGE_GEOMETRY_SILKSCREEN_TO
 66
1
 70
0
 40
0.000000
 41
0.000000
 39
0.000000
  0
VERTEX
  8
PACKAGE_GEOMETRY_SILKSCREEN_TO
 10
35.500000
 20
16.000000
 40
0.500000
 41
0.500000
 42
0.000000
  0
VERTEX
  8
PACKAGE_GEOMETRY_SILKSCREEN_TO
 10
34.500000
 20
17.000000
 40
0.500000
 41
0.500000
 42
0.000000
  0
SEQEND
  0
POLYLINE
  8
PACKAGE_GEOMETRY_SILKSCREEN_TO
 66
1
 70
0
 40
0.000000
 41
0.000000
 39
0.000000
  0
VERTEX
  8
PACKAGE_GEOMETRY_SILKSCREEN_TO
 10
37.000000
 20
16.000000
 40
0.500000
 41
0.500000
 42
0.000000
  0
VERTEX
  8
PACKAGE_GEOMETRY_SILKSCREEN_TO
 10
35.000000
 20
18.000000
 40
0.500000
 41
0.500000
 42
0.000000
  0
SEQEND
  0
POLYLINE
  8
PACKAGE_GEOMETRY_SILKSCREEN_TO
 66
1
 70
0
 40
0.000000
 41
0.000000
 39
0.000000
  0
VERTEX
  8
PACKAGE_GEOMETRY_SILKSCREEN_TO
 10
38.500000
 20
16.000000
 40
0.500000
 41
0.500000
 42
0.000000
  0
VERTEX
  8
PACKAGE_GEOMETRY_SILKSCREEN_TO
 10
35.700000
 20
18.800000
 40
0.500000
 41
0.500000
 42
0.000000
  0
SEQEND
  0
POLYLINE
  8
PACKAGE_GEOMETRY_SILKSCREEN_TO
 66
1
 70
0
 40
0.000000
 41
0.000000
 39
0.000000
  0
VERTEX
  8
PACKAGE_GEOMETRY_SILKSCREEN_TO
 10
40.000000
 20
16.000000
 40
0.500000
 41
0.500000
 42
0.000000
  0
VERTEX
  8
PACKAGE_GEOMETRY_SILKSCREEN_TO
 10
36.600000
 20
19.400000
 40
0.500000
 41
0.500000
 42
0.000000
  0
SEQEND
  0
POLYLINE
  8
PACKAGE_GEOMETRY_SILKSCREEN_TO
 66
1
 70
0
 40
0.000000
 41
0.000000
 39
0.000000
  0
VERTEX
  8
PACKAGE_GEOMETRY_SILKSCREEN_TO
 10
41.500000
 20
16.000000
 40
0.500000
 41
0.500000
 42
0.000000
  0
VERTEX
  8
PACKAGE_GEOMETRY_SILKSCREEN_TO
 10
37.800000
 20
19.700000
 40
0.500000
 41
0.500000
 42
0.000000
  0
SEQEND
  0
POLYLINE
  8
PIN_TOP
 66
1
 70
1
 40
0.000000
 41
0.000000
 39
0.000000
  0
VERTEX
  8
PIN_TOP
 10
8.635000
 20
10.777500
 40
0.000000
 41
0.000000
 42
0.000000
  0
VERTEX
  8
PIN_TOP
 10
7.365000
 20
10.777500
 40
0.000000
 41
0.000000
 42
0.000000
  0
VERTEX
  8
PIN_TOP
 10
7.365000
 20
15.222500
 40
0.000000
 41
0.000000
 42
0.000000
  0
VERTEX
  8
PIN_TOP
 10
8.635000
 20
15.222500
 40
0.000000
 41
0.000000
 42
0.000000
  0
SEQEND
  0
POLYLINE
  8
PIN_TOP
 66
1
 70
1
 40
0.000000
 41
0.000000
 39
0.000000
  0
VERTEX
  8
PIN_TOP
 10
8.635000
 20
16.777500
 40
0.000000
 41
0.000000
 42
0.000000
  0
VERTEX
  8
PIN_TOP
 10
7.365000
 20
16.777500
 40
0.000000
 41
0.000000
 42
0.000000
  0
VERTEX
  8
PIN_TOP
 10
7.365000
 20
21.222500
 40
0.000000
 41
0.000000
 42
0.000000
  0
VERTEX
  8
PIN_TOP
 10
8.635000
 20
21.222500
 40
0.000000
 41
0.000000
 42
0.000000
  0
SEQEND
  0
POLYLINE
  8
PACKAGE_GEOMETRY_SILKSCREEN_TO
 66
1
 70
0
 40
0.000000
 41
0.000000
 39
0.000000
  0
VERTEX
  8
PACKAGE_GEOMETRY_SILKSCREEN_TO
 10
3.600000
 20
14.100000
 40
0.500000
 41
0.500000
 42
0.000000
  0
VERTEX
  8
PACKAGE_GEOMETRY_SILKSCREEN_TO
 10
3.600000
 20
13.100000
 40
0.500000
 41
0.500000
 42
0.000000
  0
VERTEX
  8
PACKAGE_GEOMETRY_SILKSCREEN_TO
 10
5.100000
 20
11.600000
 40
0.500000
 41
0.500000
 42
0.000000
  0
VERTEX
  8
PACKAGE_GEOMETRY_SILKSCREEN_TO
 10
6.100000
 20
11.600000
 40
0.500000
 41
0.500000
 42
0.000000
  0
SEQEND
  0
POLYLINE
  8
PACKAGE_GEOMETRY_SILKSCREEN_TO
 66
1
 70
0
 40
0.000000
 41
0.000000
 39
0.000000
  0
VERTEX
  8
PACKAGE_GEOMETRY_SILKSCREEN_TO
 10
12.400000
 20
14.100000
 40
0.500000
 41
0.500000
 42
0.000000
  0
VERTEX
  8
PACKAGE_GEOMETRY_SILKSCREEN_TO
 10
12.400000
 20
13.100000
 40
0.500000
 41
0.500000
 42
0.000000
  0
VERTEX
  8
PACKAGE_GEOMETRY_SILKSCREEN_TO
 10
10.900000
 20
11.600000
 40
0.500000
 41
0.500000
 42
0.000000
  0
VERTEX
  8
PACKAGE_GEOMETRY_SILKSCREEN_TO
 10
9.900000
 20
11.600000
 40
0.500000
 41
0.500000
 42
0.000000
  0
SEQEND
  0
POLYLINE
  8
PACKAGE_GEOMETRY_SILKSCREEN_TO
 66
1
 70
0
 40
0.000000
 41
0.000000
 39
0.000000
  0
VERTEX
  8
PACKAGE_GEOMETRY_SILKSCREEN_TO
 10
4.500000
 20
16.000000
 40
0.500000
 41
0.500000
 42
0.000000
  0
VERTEX
  8
PACKAGE_GEOMETRY_SILKSCREEN_TO
 10
11.500000
 20
16.000000
 40
0.500000
 41
0.500000
 42
0.000000
  0
SEQEND
  0
POLYLINE
  8
PACKAGE_GEOMETRY_SILKSCREEN_TO
 66
1
 70
0
 40
0.000000
 41
0.000000
 39
0.000000
  0
VERTEX
  8
PACKAGE_GEOMETRY_SILKSCREEN_TO
 10
12.400000
 20
18.400000
 40
0.500000
 41
0.500000
 42
0.000000
  0
VERTEX
  8
PACKAGE_GEOMETRY_SILKSCREEN_TO
 10
12.400000
 20
20.400000
 40
0.500000
 41
0.500000
 42
0.000000
  0
VERTEX
  8
PACKAGE_GEOMETRY_SILKSCREEN_TO
 10
10.400000
 20
20.400000
 40
0.500000
 41
0.500000
 42
0.000000
  0
SEQEND
  0
POLYLINE
  8
PACKAGE_GEOMETRY_SILKSCREEN_TO
 66
1
 70
0
 40
0.000000
 41
0.000000
 39
0.000000
  0
VERTEX
  8
PACKAGE_GEOMETRY_SILKSCREEN_TO
 10
3.600000
 20
18.400000
 40
0.500000
 41
0.500000
 42
0.000000
  0
VERTEX
  8
PACKAGE_GEOMETRY_SILKSCREEN_TO
 10
3.600000
 20
20.400000
 40
0.500000
 41
0.500000
 42
0.000000
  0
VERTEX
  8
PACKAGE_GEOMETRY_SILKSCREEN_TO
 10
5.600000
 20
20.400000
 40
0.500000
 41
0.500000
 42
0.000000
  0
SEQEND
  0
POLYLINE
  8
PACKAGE_GEOMETRY_SILKSCREEN_TO
 66
1
 70
1
 40
0.000000
 41
0.000000
 39
0.000000
  0
VERTEX
  8
PACKAGE_GEOMETRY_SILKSCREEN_TO
 10
4.500000
 20
17.500000
 40
0.500000
 41
0.500000
 42
1.000000
  0
VERTEX
  8
PACKAGE_GEOMETRY_SILKSCREEN_TO
 10
11.500000
 20
14.500000
 40
0.500000
 41
0.500000
 42
1.000000
  0
SEQEND
  0
POLYLINE
  8
PACKAGE_GEOMETRY_SILKSCREEN_TO
 66
1
 70
0
 40
0.000000
 41
0.000000
 39
0.000000
  0
VERTEX
  8
PACKAGE_GEOMETRY_SILKSCREEN_TO
 10
5.500000
 20
16.000000
 40
0.500000
 41
0.500000
 42
0.000000
  0
VERTEX
  8
PACKAGE_GEOMETRY_SILKSCREEN_TO
 10
4.500000
 20
17.000000
 40
0.500000
 41
0.500000
 42
0.000000
  0
SEQEND
  0
POLYLINE
  8
PACKAGE_GEOMETRY_SILKSCREEN_TO
 66
1
 70
0
 40
0.000000
 41
0.000000
 39
0.000000
  0
VERTEX
  8
PACKAGE_GEOMETRY_SILKSCREEN_TO
 10
7.000000
 20
16.000000
 40
0.500000
 41
0.500000
 42
0.000000
  0
VERTEX
  8
PACKAGE_GEOMETRY_SILKSCREEN_TO
 10
5.000000
 20
18.000000
 40
0.500000
 41
0.500000
 42
0.000000
  0
SEQEND
  0
POLYLINE
  8
PACKAGE_GEOMETRY_SILKSCREEN_TO
 66
1
 70
0
 40
0.000000
 41
0.000000
 39
0.000000
  0
VERTEX
  8
PACKAGE_GEOMETRY_SILKSCREEN_TO
 10
8.500000
 20
16.000000
 40
0.500000
 41
0.500000
 42
0.000000
  0
VERTEX
  8
PACKAGE_GEOMETRY_SILKSCREEN_TO
 10
5.700000
 20
18.800000
 40
0.500000
 41
0.500000
 42
0.000000
  0
SEQEND
  0
POLYLINE
  8
PACKAGE_GEOMETRY_SILKSCREEN_TO
 66
1
 70
0
 40
0.000000
 41
0.000000
 39
0.000000
  0
VERTEX
  8
PACKAGE_GEOMETRY_SILKSCREEN_TO
 10
10.000000
 20
16.000000
 40
0.500000
 41
0.500000
 42
0.000000
  0
VERTEX
  8
PACKAGE_GEOMETRY_SILKSCREEN_TO
 10
6.600000
 20
19.400000
 40
0.500000
 41
0.500000
 42
0.000000
  0
SEQEND
  0
POLYLINE
  8
PACKAGE_GEOMETRY_SILKSCREEN_TO
 66
1
 70
0
 40
0.000000
 41
0.000000
 39
0.000000
  0
VERTEX
  8
PACKAGE_GEOMETRY_SILKSCREEN_TO
 10
11.500000
 20
16.000000
 40
0.500000
 41
0.500000
 42
0.000000
  0
VERTEX
  8
PACKAGE_GEOMETRY_SILKSCREEN_TO
 10
7.800000
 20
19.700000
 40
0.500000
 41
0.500000
 42
0.000000
  0
SEQEND
  0
POLYLINE
  8
PIN_TOP
 66
1
 70
1
 40
0.000000
 41
0.000000
 39
0.000000
  0
VERTEX
  8
PIN_TOP
 10
28.635000
 20
10.777500
 40
0.000000
 41
0.000000
 42
0.000000
  0
VERTEX
  8
PIN_TOP
 10
27.365000
 20
10.777500
 40
0.000000
 41
0.000000
 42
0.000000
  0
VERTEX
  8
PIN_TOP
 10
27.365000
 20
15.222500
 40
0.000000
 41
0.000000
 42
0.000000
  0
VERTEX
  8
PIN_TOP
 10
28.635000
 20
15.222500
 40
0.000000
 41
0.000000
 42
0.000000
  0
SEQEND
  0
POLYLINE
  8
PIN_TOP
 66
1
 70
1
 40
0.000000
 41
0.000000
 39
0.000000
  0
VERTEX
  8
PIN_TOP
 10
28.635000
 20
16.777500
 40
0.000000
 41
0.000000
 42
0.000000
  0
VERTEX
  8
PIN_TOP
 10
27.365000
 20
16.777500
 40
0.000000
 41
0.000000
 42
0.000000
  0
VERTEX
  8
PIN_TOP
 10
27.365000
 20
21.222500
 40
0.000000
 41
0.000000
 42
0.000000
  0
VERTEX
  8
PIN_TOP
 10
28.635000
 20
21.222500
 40
0.000000
 41
0.000000
 42
0.000000
  0
SEQEND
  0
POLYLINE
  8
PACKAGE_GEOMETRY_SILKSCREEN_TO
 66
1
 70
0
 40
0.000000
 41
0.000000
 39
0.000000
  0
VERTEX
  8
PACKAGE_GEOMETRY_SILKSCREEN_TO
 10
23.600000
 20
14.100000
 40
0.500000
 41
0.500000
 42
0.000000
  0
VERTEX
  8
PACKAGE_GEOMETRY_SILKSCREEN_TO
 10
23.600000
 20
13.100000
 40
0.500000
 41
0.500000
 42
0.000000
  0
VERTEX
  8
PACKAGE_GEOMETRY_SILKSCREEN_TO
 10
25.100000
 20
11.600000
 40
0.500000
 41
0.500000
 42
0.000000
  0
VERTEX
  8
PACKAGE_GEOMETRY_SILKSCREEN_TO
 10
26.100000
 20
11.600000
 40
0.500000
 41
0.500000
 42
0.000000
  0
SEQEND
  0
POLYLINE
  8
PACKAGE_GEOMETRY_SILKSCREEN_TO
 66
1
 70
0
 40
0.000000
 41
0.000000
 39
0.000000
  0
VERTEX
  8
PACKAGE_GEOMETRY_SILKSCREEN_TO
 10
32.400000
 20
14.100000
 40
0.500000
 41
0.500000
 42
0.000000
  0
VERTEX
  8
PACKAGE_GEOMETRY_SILKSCREEN_TO
 10
32.400000
 20
13.100000
 40
0.500000
 41
0.500000
 42
0.000000
  0
VERTEX
  8
PACKAGE_GEOMETRY_SILKSCREEN_TO
 10
30.900000
 20
11.600000
 40
0.500000
 41
0.500000
 42
0.000000
  0
VERTEX
  8
PACKAGE_GEOMETRY_SILKSCREEN_TO
 10
29.900000
 20
11.600000
 40
0.500000
 41
0.500000
 42
0.000000
  0
SEQEND
  0
POLYLINE
  8
PACKAGE_GEOMETRY_SILKSCREEN_TO
 66
1
 70
0
 40
0.000000
 41
0.000000
 39
0.000000
  0
VERTEX
  8
PACKAGE_GEOMETRY_SILKSCREEN_TO
 10
24.500000
 20
16.000000
 40
0.500000
 41
0.500000
 42
0.000000
  0
VERTEX
  8
PACKAGE_GEOMETRY_SILKSCREEN_TO
 10
31.500000
 20
16.000000
 40
0.500000
 41
0.500000
 42
0.000000
  0
SEQEND
  0
POLYLINE
  8
PACKAGE_GEOMETRY_SILKSCREEN_TO
 66
1
 70
0
 40
0.000000
 41
0.000000
 39
0.000000
  0
VERTEX
  8
PACKAGE_GEOMETRY_SILKSCREEN_TO
 10
32.400000
 20
18.400000
 40
0.500000
 41
0.500000
 42
0.000000
  0
VERTEX
  8
PACKAGE_GEOMETRY_SILKSCREEN_TO
 10
32.400000
 20
20.400000
 40
0.500000
 41
0.500000
 42
0.000000
  0
VERTEX
  8
PACKAGE_GEOMETRY_SILKSCREEN_TO
 10
30.400000
 20
20.400000
 40
0.500000
 41
0.500000
 42
0.000000
  0
SEQEND
  0
POLYLINE
  8
PACKAGE_GEOMETRY_SILKSCREEN_TO
 66
1
 70
0
 40
0.000000
 41
0.000000
 39
0.000000
  0
VERTEX
  8
PACKAGE_GEOMETRY_SILKSCREEN_TO
 10
23.600000
 20
18.400000
 40
0.500000
 41
0.500000
 42
0.000000
  0
VERTEX
  8
PACKAGE_GEOMETRY_SILKSCREEN_TO
 10
23.600000
 20
20.400000
 40
0.500000
 41
0.500000
 42
0.000000
  0
VERTEX
  8
PACKAGE_GEOMETRY_SILKSCREEN_TO
 10
25.600000
 20
20.400000
 40
0.500000
 41
0.500000
 42
0.000000
  0
SEQEND
  0
POLYLINE
  8
PACKAGE_GEOMETRY_SILKSCREEN_TO
 66
1
 70
1
 40
0.000000
 41
0.000000
 39
0.000000
  0
VERTEX
  8
PACKAGE_GEOMETRY_SILKSCREEN_TO
 10
24.500000
 20
17.500000
 40
0.500000
 41
0.500000
 42
1.000000
  0
VERTEX
  8
PACKAGE_GEOMETRY_SILKSCREEN_TO
 10
31.500000
 20
14.500000
 40
0.500000
 41
0.500000
 42
1.000000
  0
SEQEND
  0
POLYLINE
  8
PACKAGE_GEOMETRY_SILKSCREEN_TO
 66
1
 70
0
 40
0.000000
 41
0.000000
 39
0.000000
  0
VERTEX
  8
PACKAGE_GEOMETRY_SILKSCREEN_TO
 10
25.500000
 20
16.000000
 40
0.500000
 41
0.500000
 42
0.000000
  0
VERTEX
  8
PACKAGE_GEOMETRY_SILKSCREEN_TO
 10
24.500000
 20
17.000000
 40
0.500000
 41
0.500000
 42
0.000000
  0
SEQEND
  0
POLYLINE
  8
PACKAGE_GEOMETRY_SILKSCREEN_TO
 66
1
 70
0
 40
0.000000
 41
0.000000
 39
0.000000
  0
VERTEX
  8
PACKAGE_GEOMETRY_SILKSCREEN_TO
 10
27.000000
 20
16.000000
 40
0.500000
 41
0.500000
 42
0.000000
  0
VERTEX
  8
PACKAGE_GEOMETRY_SILKSCREEN_TO
 10
25.000000
 20
18.000000
 40
0.500000
 41
0.500000
 42
0.000000
  0
SEQEND
  0
POLYLINE
  8
PACKAGE_GEOMETRY_SILKSCREEN_TO
 66
1
 70
0
 40
0.000000
 41
0.000000
 39
0.000000
  0
VERTEX
  8
PACKAGE_GEOMETRY_SILKSCREEN_TO
 10
28.500000
 20
16.000000
 40
0.500000
 41
0.500000
 42
0.000000
  0
VERTEX
  8
PACKAGE_GEOMETRY_SILKSCREEN_TO
 10
25.700000
 20
18.800000
 40
0.500000
 41
0.500000
 42
0.000000
  0
SEQEND
  0
POLYLINE
  8
PACKAGE_GEOMETRY_SILKSCREEN_TO
 66
1
 70
0
 40
0.000000
 41
0.000000
 39
0.000000
  0
VERTEX
  8
PACKAGE_GEOMETRY_SILKSCREEN_TO
 10
30.000000
 20
16.000000
 40
0.500000
 41
0.500000
 42
0.000000
  0
VERTEX
  8
PACKAGE_GEOMETRY_SILKSCREEN_TO
 10
26.600000
 20
19.400000
 40
0.500000
 41
0.500000
 42
0.000000
  0
SEQEND
  0
POLYLINE
  8
PACKAGE_GEOMETRY_SILKSCREEN_TO
 66
1
 70
0
 40
0.000000
 41
0.000000
 39
0.000000
  0
VERTEX
  8
PACKAGE_GEOMETRY_SILKSCREEN_TO
 10
31.500000
 20
16.000000
 40
0.500000
 41
0.500000
 42
0.000000
  0
VERTEX
  8
PACKAGE_GEOMETRY_SILKSCREEN_TO
 10
27.800000
 20
19.700000
 40
0.500000
 41
0.500000
 42
0.000000
  0
SEQEND
  0
POLYLINE
  8
PIN_TOP
 66
1
 70
1
 40
0.000000
 41
0.000000
 39
0.000000
  0
VERTEX
  8
PIN_TOP
 10
48.635000
 20
10.777500
 40
0.000000
 41
0.000000
 42
0.000000
  0
VERTEX
  8
PIN_TOP
 10
47.365000
 20
10.777500
 40
0.000000
 41
0.000000
 42
0.000000
  0
VERTEX
  8
PIN_TOP
 10
47.365000
 20
15.222500
 40
0.000000
 41
0.000000
 42
0.000000
  0
VERTEX
  8
PIN_TOP
 10
48.635000
 20
15.222500
 40
0.000000
 41
0.000000
 42
0.000000
  0
SEQEND
  0
POLYLINE
  8
PIN_TOP
 66
1
 70
1
 40
0.000000
 41
0.000000
 39
0.000000
  0
VERTEX
  8
PIN_TOP
 10
48.635000
 20
16.777500
 40
0.000000
 41
0.000000
 42
0.000000
  0
VERTEX
  8
PIN_TOP
 10
47.365000
 20
16.777500
 40
0.000000
 41
0.000000
 42
0.000000
  0
VERTEX
  8
PIN_TOP
 10
47.365000
 20
21.222500
 40
0.000000
 41
0.000000
 42
0.000000
  0
VERTEX
  8
PIN_TOP
 10
48.635000
 20
21.222500
 40
0.000000
 41
0.000000
 42
0.000000
  0
SEQEND
  0
POLYLINE
  8
PACKAGE_GEOMETRY_SILKSCREEN_TO
 66
1
 70
0
 40
0.000000
 41
0.000000
 39
0.000000
  0
VERTEX
  8
PACKAGE_GEOMETRY_SILKSCREEN_TO
 10
43.600000
 20
14.100000
 40
0.500000
 41
0.500000
 42
0.000000
  0
VERTEX
  8
PACKAGE_GEOMETRY_SILKSCREEN_TO
 10
43.600000
 20
13.100000
 40
0.500000
 41
0.500000
 42
0.000000
  0
VERTEX
  8
PACKAGE_GEOMETRY_SILKSCREEN_TO
 10
45.100000
 20
11.600000
 40
0.500000
 41
0.500000
 42
0.000000
  0
VERTEX
  8
PACKAGE_GEOMETRY_SILKSCREEN_TO
 10
46.100000
 20
11.600000
 40
0.500000
 41
0.500000
 42
0.000000
  0
SEQEND
  0
POLYLINE
  8
PACKAGE_GEOMETRY_SILKSCREEN_TO
 66
1
 70
0
 40
0.000000
 41
0.000000
 39
0.000000
  0
VERTEX
  8
PACKAGE_GEOMETRY_SILKSCREEN_TO
 10
52.400000
 20
14.100000
 40
0.500000
 41
0.500000
 42
0.000000
  0
VERTEX
  8
PACKAGE_GEOMETRY_SILKSCREEN_TO
 10
52.400000
 20
13.100000
 40
0.500000
 41
0.500000
 42
0.000000
  0
VERTEX
  8
PACKAGE_GEOMETRY_SILKSCREEN_TO
 10
50.900000
 20
11.600000
 40
0.500000
 41
0.500000
 42
0.000000
  0
VERTEX
  8
PACKAGE_GEOMETRY_SILKSCREEN_TO
 10
49.900000
 20
11.600000
 40
0.500000
 41
0.500000
 42
0.000000
  0
SEQEND
  0
POLYLINE
  8
PACKAGE_GEOMETRY_SILKSCREEN_TO
 66
1
 70
0
 40
0.000000
 41
0.000000
 39
0.000000
  0
VERTEX
  8
PACKAGE_GEOMETRY_SILKSCREEN_TO
 10
44.500000
 20
16.000000
 40
0.500000
 41
0.500000
 42
0.000000
  0
VERTEX
  8
PACKAGE_GEOMETRY_SILKSCREEN_TO
 10
51.500000
 20
16.000000
 40
0.500000
 41
0.500000
 42
0.000000
  0
SEQEND
  0
POLYLINE
  8
PACKAGE_GEOMETRY_SILKSCREEN_TO
 66
1
 70
0
 40
0.000000
 41
0.000000
 39
0.000000
  0
VERTEX
  8
PACKAGE_GEOMETRY_SILKSCREEN_TO
 10
52.400000
 20
18.400000
 40
0.500000
 41
0.500000
 42
0.000000
  0
VERTEX
  8
PACKAGE_GEOMETRY_SILKSCREEN_TO
 10
52.400000
 20
20.400000
 40
0.500000
 41
0.500000
 42
0.000000
  0
VERTEX
  8
PACKAGE_GEOMETRY_SILKSCREEN_TO
 10
50.400000
 20
20.400000
 40
0.500000
 41
0.500000
 42
0.000000
  0
SEQEND
  0
POLYLINE
  8
PACKAGE_GEOMETRY_SILKSCREEN_TO
 66
1
 70
0
 40
0.000000
 41
0.000000
 39
0.000000
  0
VERTEX
  8
PACKAGE_GEOMETRY_SILKSCREEN_TO
 10
43.600000
 20
18.400000
 40
0.500000
 41
0.500000
 42
0.000000
  0
VERTEX
  8
PACKAGE_GEOMETRY_SILKSCREEN_TO
 10
43.600000
 20
20.400000
 40
0.500000
 41
0.500000
 42
0.000000
  0
VERTEX
  8
PACKAGE_GEOMETRY_SILKSCREEN_TO
 10
45.600000
 20
20.400000
 40
0.500000
 41
0.500000
 42
0.000000
  0
SEQEND
  0
POLYLINE
  8
PACKAGE_GEOMETRY_SILKSCREEN_TO
 66
1
 70
1
 40
0.000000
 41
0.000000
 39
0.000000
  0
VERTEX
  8
PACKAGE_GEOMETRY_SILKSCREEN_TO
 10
44.500000
 20
17.500000
 40
0.500000
 41
0.500000
 42
1.000000
  0
VERTEX
  8
PACKAGE_GEOMETRY_SILKSCREEN_TO
 10
51.500000
 20
14.500000
 40
0.500000
 41
0.500000
 42
1.000000
  0
SEQEND
  0
POLYLINE
  8
PACKAGE_GEOMETRY_SILKSCREEN_TO
 66
1
 70
0
 40
0.000000
 41
0.000000
 39
0.000000
  0
VERTEX
  8
PACKAGE_GEOMETRY_SILKSCREEN_TO
 10
45.500000
 20
16.000000
 40
0.500000
 41
0.500000
 42
0.000000
  0
VERTEX
  8
PACKAGE_GEOMETRY_SILKSCREEN_TO
 10
44.500000
 20
17.000000
 40
0.500000
 41
0.500000
 42
0.000000
  0
SEQEND
  0
POLYLINE
  8
PACKAGE_GEOMETRY_SILKSCREEN_TO
 66
1
 70
0
 40
0.000000
 41
0.000000
 39
0.000000
  0
VERTEX
  8
PACKAGE_GEOMETRY_SILKSCREEN_TO
 10
47.000000
 20
16.000000
 40
0.500000
 41
0.500000
 42
0.000000
  0
VERTEX
  8
PACKAGE_GEOMETRY_SILKSCREEN_TO
 10
45.000000
 20
18.000000
 40
0.500000
 41
0.500000
 42
0.000000
  0
SEQEND
  0
POLYLINE
  8
PACKAGE_GEOMETRY_SILKSCREEN_TO
 66
1
 70
0
 40
0.000000
 41
0.000000
 39
0.000000
  0
VERTEX
  8
PACKAGE_GEOMETRY_SILKSCREEN_TO
 10
48.500000
 20
16.000000
 40
0.500000
 41
0.500000
 42
0.000000
  0
VERTEX
  8
PACKAGE_GEOMETRY_SILKSCREEN_TO
 10
45.700000
 20
18.800000
 40
0.500000
 41
0.500000
 42
0.000000
  0
SEQEND
  0
POLYLINE
  8
PACKAGE_GEOMETRY_SILKSCREEN_TO
 66
1
 70
0
 40
0.000000
 41
0.000000
 39
0.000000
  0
VERTEX
  8
PACKAGE_GEOMETRY_SILKSCREEN_TO
 10
50.000000
 20
16.000000
 40
0.500000
 41
0.500000
 42
0.000000
  0
VERTEX
  8
PACKAGE_GEOMETRY_SILKSCREEN_TO
 10
46.600000
 20
19.400000
 40
0.500000
 41
0.500000
 42
0.000000
  0
SEQEND
  0
POLYLINE
  8
PACKAGE_GEOMETRY_SILKSCREEN_TO
 66
1
 70
0
 40
0.000000
 41
0.000000
 39
0.000000
  0
VERTEX
  8
PACKAGE_GEOMETRY_SILKSCREEN_TO
 10
51.500000
 20
16.000000
 40
0.500000
 41
0.500000
 42
0.000000
  0
VERTEX
  8
PACKAGE_GEOMETRY_SILKSCREEN_TO
 10
47.800000
 20
19.700000
 40
0.500000
 41
0.500000
 42
0.000000
  0
SEQEND
  0
POLYLINE
  8
PIN_TOP
 66
1
 70
1
 40
0.000000
 41
0.000000
 39
0.000000
  0
VERTEX
  8
PIN_TOP
 10
60.397000
 20
15.635000
 40
0.000000
 41
0.000000
 42
0.000000
  0
VERTEX
  8
PIN_TOP
 10
60.397000
 20
14.365000
 40
0.000000
 41
0.000000
 42
0.000000
  0
VERTEX
  8
PIN_TOP
 10
59.381000
 20
14.365000
 40
0.000000
 41
0.000000
 42
0.000000
  0
VERTEX
  8
PIN_TOP
 10
59.381000
 20
15.635000
 40
0.000000
 41
0.000000
 42
0.000000
  0
SEQEND
  0
POLYLINE
  8
PIN_TOP
 66
1
 70
1
 40
0.000000
 41
0.000000
 39
0.000000
  0
VERTEX
  8
PIN_TOP
 10
58.619000
 20
15.635000
 40
0.000000
 41
0.000000
 42
0.000000
  0
VERTEX
  8
PIN_TOP
 10
58.619000
 20
14.365000
 40
0.000000
 41
0.000000
 42
0.000000
  0
VERTEX
  8
PIN_TOP
 10
57.603000
 20
14.365000
 40
0.000000
 41
0.000000
 42
0.000000
  0
VERTEX
  8
PIN_TOP
 10
57.603000
 20
15.635000
 40
0.000000
 41
0.000000
 42
0.000000
  0
SEQEND
  0
POLYLINE
  8
PACKAGE_GEOMETRY_SILKSCREEN_TO
 66
1
 70
0
 40
0.000000
 41
0.000000
 39
0.000000
  0
VERTEX
  8
PACKAGE_GEOMETRY_SILKSCREEN_TO
 10
60.625600
 20
14.492000
 40
0.203200
 41
0.203200
 42
0.000000
  0
VERTEX
  8
PACKAGE_GEOMETRY_SILKSCREEN_TO
 10
60.625600
 20
14.111000
 40
0.203200
 41
0.203200
 42
0.000000
  0
VERTEX
  8
PACKAGE_GEOMETRY_SILKSCREEN_TO
 10
57.374400
 20
14.111000
 40
0.203200
 41
0.203200
 42
0.000000
  0
VERTEX
  8
PACKAGE_GEOMETRY_SILKSCREEN_TO
 10
57.374400
 20
14.492000
 40
0.203200
 41
0.203200
 42
0.000000
  0
SEQEND
  0
POLYLINE
  8
PACKAGE_GEOMETRY_SILKSCREEN_TO
 66
1
 70
0
 40
0.000000
 41
0.000000
 39
0.000000
  0
VERTEX
  8
PACKAGE_GEOMETRY_SILKSCREEN_TO
 10
57.374400
 20
15.508000
 40
0.203200
 41
0.203200
 42
0.000000
  0
VERTEX
  8
PACKAGE_GEOMETRY_SILKSCREEN_TO
 10
57.374400
 20
15.889000
 40
0.203200
 41
0.203200
 42
0.000000
  0
VERTEX
  8
PACKAGE_GEOMETRY_SILKSCREEN_TO
 10
60.625600
 20
15.889000
 40
0.203200
 41
0.203200
 42
0.000000
  0
VERTEX
  8
PACKAGE_GEOMETRY_SILKSCREEN_TO
 10
60.625600
 20
15.508000
 40
0.203200
 41
0.203200
 42
0.000000
  0
SEQEND
  0
CIRCLE
  8
PIN_TOP
 10
59.000000
 20
12.540000
 40
1.016000
  0
CIRCLE
  8
PIN_TOP
 10
59.000000
 20
17.540000
 40
1.016000
  0
POLYLINE
  8
PACKAGE_GEOMETRY_SILKSCREEN_TO
 66
1
 70
0
 40
0.000000
 41
0.000000
 39
0.000000
  0
VERTEX
  8
PACKAGE_GEOMETRY_SILKSCREEN_TO
 10
56.499900
 20
20.040100
 40
0.260100
 41
0.260100
 42
0.000000
  0
VERTEX
  8
PACKAGE_GEOMETRY_SILKSCREEN_TO
 10
56.499900
 20
10.039900
 40
0.260100
 41
0.260100
 42
0.000000
  0
SEQEND
  0
POLYLINE
  8
PACKAGE_GEOMETRY_SILKSCREEN_TO
 66
1
 70
0
 40
0.000000
 41
0.000000
 39
0.000000
  0
VERTEX
  8
PACKAGE_GEOMETRY_SILKSCREEN_TO
 10
64.000000
 20
15.039900
 40
0.260100
 41
0.260100
 42
0.000000
  0
VERTEX
  8
PACKAGE_GEOMETRY_SILKSCREEN_TO
 10
61.000000
 20
15.039900
 40
0.260100
 41
0.260100
 42
0.000000
  0
SEQEND
  0
POLYLINE
  8
PACKAGE_GEOMETRY_SILKSCREEN_TO
 66
1
 70
0
 40
0.000000
 41
0.000000
 39
0.000000
  0
VERTEX
  8
PACKAGE_GEOMETRY_SILKSCREEN_TO
 10
63.000000
 20
12.540000
 40
0.260100
 41
0.260100
 42
0.000000
  0
VERTEX
  8
PACKAGE_GEOMETRY_SILKSCREEN_TO
 10
62.000000
 20
12.540000
 40
0.260100
 41
0.260100
 42
0.000000
  0
SEQEND
  0
POLYLINE
  8
PACKAGE_GEOMETRY_SILKSCREEN_TO
 66
1
 70
0
 40
0.000000
 41
0.000000
 39
0.000000
  0
VERTEX
  8
PACKAGE_GEOMETRY_SILKSCREEN_TO
 10
63.000000
 20
17.540000
 40
0.260100
 41
0.260100
 42
0.000000
  0
VERTEX
  8
PACKAGE_GEOMETRY_SILKSCREEN_TO
 10
62.000000
 20
17.540000
 40
0.260100
 41
0.260100
 42
0.000000
  0
SEQEND
  0
POLYLINE
  8
PACKAGE_GEOMETRY_SILKSCREEN_TO
 66
1
 70
1
 40
0.000000
 41
0.000000
 39
0.000000
  0
VERTEX
  8
PACKAGE_GEOMETRY_SILKSCREEN_TO
 10
63.000000
 20
13.540000
 40
0.260100
 41
0.260100
 42
1.000000
  0
VERTEX
  8
PACKAGE_GEOMETRY_SILKSCREEN_TO
 10
62.000200
 20
11.540000
 40
0.260100
 41
0.260100
 42
1.000000
  0
SEQEND
  0
POLYLINE
  8
PACKAGE_GEOMETRY_SILKSCREEN_TO
 66
1
 70
1
 40
0.000000
 41
0.000000
 39
0.000000
  0
VERTEX
  8
PACKAGE_GEOMETRY_SILKSCREEN_TO
 10
63.000000
 20
18.540000
 40
0.260100
 41
0.260100
 42
1.000000
  0
VERTEX
  8
PACKAGE_GEOMETRY_SILKSCREEN_TO
 10
62.000200
 20
16.540000
 40
0.260100
 41
0.260100
 42
1.000000
  0
SEQEND
  0
POLYLINE
  8
PACKAGE_GEOMETRY_SILKSCREEN_TO
 66
1
 70
0
 40
0.000000
 41
0.000000
 39
0.000000
  0
VERTEX
  8
PACKAGE_GEOMETRY_SILKSCREEN_TO
 10
57.000000
 20
20.040100
 40
0.260100
 41
0.260100
 42
0.000000
  0
VERTEX
  8
PACKAGE_GEOMETRY_SILKSCREEN_TO
 10
61.000000
 20
20.040100
 40
0.260100
 41
0.260100
 42
0.000000
  0
VERTEX
  8
PACKAGE_GEOMETRY_SILKSCREEN_TO
 10
61.000000
 20
10.039900
 40
0.260100
 41
0.260100
 42
0.000000
  0
SEQEND
  0
POLYLINE
  8
PACKAGE_GEOMETRY_SILKSCREEN_TO
 66
1
 70
1
 40
0.000000
 41
0.000000
 39
0.000000
  0
VERTEX
  8
PACKAGE_GEOMETRY_SILKSCREEN_TO
 10
59.000000
 20
20.040100
 40
0.508000
 41
0.508000
 42
0.000000
  0
VERTEX
  8
PACKAGE_GEOMETRY_SILKSCREEN_TO
 10
55.499900
 20
20.040100
 40
0.508000
 41
0.508000
 42
0.000000
  0
VERTEX
  8
PACKAGE_GEOMETRY_SILKSCREEN_TO
 10
55.499900
 20
10.039900
 40
0.508000
 41
0.508000
 42
0.000000
  0
VERTEX
  8
PACKAGE_GEOMETRY_SILKSCREEN_TO
 10
64.000000
 20
10.039900
 40
0.508000
 41
0.508000
 42
0.000000
  0
VERTEX
  8
PACKAGE_GEOMETRY_SILKSCREEN_TO
 10
64.000000
 20
20.040100
 40
0.508000
 41
0.508000
 42
0.000000
  0
SEQEND
  0
POLYLINE
  8
PIN_TOP
 66
1
 70
1
 40
0.000000
 41
0.000000
 39
0.000000
  0
VERTEX
  8
PIN_TOP
 10
57.992000
 20
24.508000
 40
0.000000
 41
0.000000
 42
0.000000
  0
VERTEX
  8
PIN_TOP
 10
59.008000
 20
24.508000
 40
0.000000
 41
0.000000
 42
0.000000
  0
VERTEX
  8
PIN_TOP
 10
59.008000
 20
23.492000
 40
0.000000
 41
0.000000
 42
0.000000
  0
VERTEX
  8
PIN_TOP
 10
57.992000
 20
23.492000
 40
0.000000
 41
0.000000
 42
0.000000
  0
SEQEND
  0
POLYLINE
  8
PIN_TOP
 66
1
 70
1
 40
0.000000
 41
0.000000
 39
0.000000
  0
VERTEX
  8
PIN_TOP
 10
58.984000
 20
24.992000
 40
0.000000
 41
0.000000
 42
0.000000
  0
VERTEX
  8
PIN_TOP
 10
58.984000
 20
26.008000
 40
0.000000
 41
0.000000
 42
0.000000
  0
VERTEX
  8
PIN_TOP
 10
61.016000
 20
26.008000
 40
0.000000
 41
0.000000
 42
0.000000
  0
VERTEX
  8
PIN_TOP
 10
61.016000
 20
24.992000
 40
0.000000
 41
0.000000
 42
0.000000
  0
SEQEND
  0
POLYLINE
  8
PIN_TOP
 66
1
 70
1
 40
0.000000
 41
0.000000
 39
0.000000
  0
VERTEX
  8
PIN_TOP
 10
58.984000
 20
21.992000
 40
0.000000
 41
0.000000
 42
0.000000
  0
VERTEX
  8
PIN_TOP
 10
58.984000
 20
23.008000
 40
0.000000
 41
0.000000
 42
0.000000
  0
VERTEX
  8
PIN_TOP
 10
61.016000
 20
23.008000
 40
0.000000
 41
0.000000
 42
0.000000
  0
VERTEX
  8
PIN_TOP
 10
61.016000
 20
21.992000
 40
0.000000
 41
0.000000
 42
0.000000
  0
SEQEND
  0
POLYLINE
  8
PACKAGE_GEOMETRY_SILKSCREEN_TO
 66
1
 70
0
 40
0.000000
 41
0.000000
 39
0.000000
  0
VERTEX
  8
PACKAGE_GEOMETRY_SILKSCREEN_TO
 10
58.250000
 20
24.750000
 40
0.203200
 41
0.203200
 42
0.000000
  0
VERTEX
  8
PACKAGE_GEOMETRY_SILKSCREEN_TO
 10
58.250000
 20
25.750000
 40
0.203200
 41
0.203200
 42
0.000000
  0
VERTEX
  8
PACKAGE_GEOMETRY_SILKSCREEN_TO
 10
58.750000
 20
25.750000
 40
0.203200
 41
0.203200
 42
0.000000
  0
SEQEND
  0
POLYLINE
  8
PACKAGE_GEOMETRY_SILKSCREEN_TO
 66
1
 70
0
 40
0.000000
 41
0.000000
 39
0.000000
  0
VERTEX
  8
PACKAGE_GEOMETRY_SILKSCREEN_TO
 10
61.750000
 20
23.250000
 40
0.203200
 41
0.203200
 42
0.000000
  0
VERTEX
  8
PACKAGE_GEOMETRY_SILKSCREEN_TO
 10
61.750000
 20
22.250000
 40
0.203200
 41
0.203200
 42
0.000000
  0
VERTEX
  8
PACKAGE_GEOMETRY_SILKSCREEN_TO
 10
61.250000
 20
22.250000
 40
0.203200
 41
0.203200
 42
0.000000
  0
SEQEND
  0
POLYLINE
  8
PACKAGE_GEOMETRY_SILKSCREEN_TO
 66
1
 70
0
 40
0.000000
 41
0.000000
 39
0.000000
  0
VERTEX
  8
PACKAGE_GEOMETRY_SILKSCREEN_TO
 10
61.750000
 20
24.750000
 40
0.203200
 41
0.203200
 42
0.000000
  0
VERTEX
  8
PACKAGE_GEOMETRY_SILKSCREEN_TO
 10
61.750000
 20
25.750000
 40
0.203200
 41
0.203200
 42
0.000000
  0
VERTEX
  8
PACKAGE_GEOMETRY_SILKSCREEN_TO
 10
61.250000
 20
25.750000
 40
0.203200
 41
0.203200
 42
0.000000
  0
SEQEND
  0
POLYLINE
  8
PACKAGE_GEOMETRY_SILKSCREEN_TO
 66
1
 70
0
 40
0.000000
 41
0.000000
 39
0.000000
  0
VERTEX
  8
PACKAGE_GEOMETRY_SILKSCREEN_TO
 10
58.250000
 20
23.250000
 40
0.203200
 41
0.203200
 42
0.000000
  0
VERTEX
  8
PACKAGE_GEOMETRY_SILKSCREEN_TO
 10
58.250000
 20
22.250000
 40
0.203200
 41
0.203200
 42
0.000000
  0
VERTEX
  8
PACKAGE_GEOMETRY_SILKSCREEN_TO
 10
58.750000
 20
22.250000
 40
0.203200
 41
0.203200
 42
0.000000
  0
SEQEND
  0
POLYLINE
  8
PIN_TOP
 66
1
 70
1
 40
0.000000
 41
0.000000
 39
0.000000
  0
VERTEX
  8
PIN_TOP
 10
57.992000
 20
30.508000
 40
0.000000
 41
0.000000
 42
0.000000
  0
VERTEX
  8
PIN_TOP
 10
59.008000
 20
30.508000
 40
0.000000
 41
0.000000
 42
0.000000
  0
VERTEX
  8
PIN_TOP
 10
59.008000
 20
29.492000
 40
0.000000
 41
0.000000
 42
0.000000
  0
VERTEX
  8
PIN_TOP
 10
57.992000
 20
29.492000
 40
0.000000
 41
0.000000
 42
0.000000
  0
SEQEND
  0
POLYLINE
  8
PIN_TOP
 66
1
 70
1
 40
0.000000
 41
0.000000
 39
0.000000
  0
VERTEX
  8
PIN_TOP
 10
58.984000
 20
30.992000
 40
0.000000
 41
0.000000
 42
0.000000
  0
VERTEX
  8
PIN_TOP
 10
58.984000
 20
32.008000
 40
0.000000
 41
0.000000
 42
0.000000
  0
VERTEX
  8
PIN_TOP
 10
61.016000
 20
32.008000
 40
0.000000
 41
0.000000
 42
0.000000
  0
VERTEX
  8
PIN_TOP
 10
61.016000
 20
30.992000
 40
0.000000
 41
0.000000
 42
0.000000
  0
SEQEND
  0
POLYLINE
  8
PIN_TOP
 66
1
 70
1
 40
0.000000
 41
0.000000
 39
0.000000
  0
VERTEX
  8
PIN_TOP
 10
58.984000
 20
27.992000
 40
0.000000
 41
0.000000
 42
0.000000
  0
VERTEX
  8
PIN_TOP
 10
58.984000
 20
29.008000
 40
0.000000
 41
0.000000
 42
0.000000
  0
VERTEX
  8
PIN_TOP
 10
61.016000
 20
29.008000
 40
0.000000
 41
0.000000
 42
0.000000
  0
VERTEX
  8
PIN_TOP
 10
61.016000
 20
27.992000
 40
0.000000
 41
0.000000
 42
0.000000
  0
SEQEND
  0
POLYLINE
  8
PACKAGE_GEOMETRY_SILKSCREEN_TO
 66
1
 70
0
 40
0.000000
 41
0.000000
 39
0.000000
  0
VERTEX
  8
PACKAGE_GEOMETRY_SILKSCREEN_TO
 10
58.250000
 20
30.750000
 40
0.203200
 41
0.203200
 42
0.000000
  0
VERTEX
  8
PACKAGE_GEOMETRY_SILKSCREEN_TO
 10
58.250000
 20
31.750000
 40
0.203200
 41
0.203200
 42
0.000000
  0
VERTEX
  8
PACKAGE_GEOMETRY_SILKSCREEN_TO
 10
58.750000
 20
31.750000
 40
0.203200
 41
0.203200
 42
0.000000
  0
SEQEND
  0
POLYLINE
  8
PACKAGE_GEOMETRY_SILKSCREEN_TO
 66
1
 70
0
 40
0.000000
 41
0.000000
 39
0.000000
  0
VERTEX
  8
PACKAGE_GEOMETRY_SILKSCREEN_TO
 10
61.750000
 20
29.250000
 40
0.203200
 41
0.203200
 42
0.000000
  0
VERTEX
  8
PACKAGE_GEOMETRY_SILKSCREEN_TO
 10
61.750000
 20
28.250000
 40
0.203200
 41
0.203200
 42
0.000000
  0
VERTEX
  8
PACKAGE_GEOMETRY_SILKSCREEN_TO
 10
61.250000
 20
28.250000
 40
0.203200
 41
0.203200
 42
0.000000
  0
SEQEND
  0
POLYLINE
  8
PACKAGE_GEOMETRY_SILKSCREEN_TO
 66
1
 70
0
 40
0.000000
 41
0.000000
 39
0.000000
  0
VERTEX
  8
PACKAGE_GEOMETRY_SILKSCREEN_TO
 10
61.750000
 20
30.750000
 40
0.203200
 41
0.203200
 42
0.000000
  0
VERTEX
  8
PACKAGE_GEOMETRY_SILKSCREEN_TO
 10
61.750000
 20
31.750000
 40
0.203200
 41
0.203200
 42
0.000000
  0
VERTEX
  8
PACKAGE_GEOMETRY_SILKSCREEN_TO
 10
61.250000
 20
31.750000
 40
0.203200
 41
0.203200
 42
0.000000
  0
SEQEND
  0
POLYLINE
  8
PACKAGE_GEOMETRY_SILKSCREEN_TO
 66
1
 70
0
 40
0.000000
 41
0.000000
 39
0.000000
  0
VERTEX
  8
PACKAGE_GEOMETRY_SILKSCREEN_TO
 10
58.250000
 20
29.250000
 40
0.203200
 41
0.203200
 42
0.000000
  0
VERTEX
  8
PACKAGE_GEOMETRY_SILKSCREEN_TO
 10
58.250000
 20
28.250000
 40
0.203200
 41
0.203200
 42
0.000000
  0
VERTEX
  8
PACKAGE_GEOMETRY_SILKSCREEN_TO
 10
58.750000
 20
28.250000
 40
0.203200
 41
0.203200
 42
0.000000
  0
SEQEND
  0
POLYLINE
  8
PIN_TOP
 66
1
 70
1
 40
0.000000
 41
0.000000
 39
0.000000
  0
VERTEX
  8
PIN_TOP
 10
57.992000
 20
36.508000
 40
0.000000
 41
0.000000
 42
0.000000
  0
VERTEX
  8
PIN_TOP
 10
59.008000
 20
36.508000
 40
0.000000
 41
0.000000
 42
0.000000
  0
VERTEX
  8
PIN_TOP
 10
59.008000
 20
35.492000
 40
0.000000
 41
0.000000
 42
0.000000
  0
VERTEX
  8
PIN_TOP
 10
57.992000
 20
35.492000
 40
0.000000
 41
0.000000
 42
0.000000
  0
SEQEND
  0
POLYLINE
  8
PIN_TOP
 66
1
 70
1
 40
0.000000
 41
0.000000
 39
0.000000
  0
VERTEX
  8
PIN_TOP
 10
58.984000
 20
36.992000
 40
0.000000
 41
0.000000
 42
0.000000
  0
VERTEX
  8
PIN_TOP
 10
58.984000
 20
38.008000
 40
0.000000
 41
0.000000
 42
0.000000
  0
VERTEX
  8
PIN_TOP
 10
61.016000
 20
38.008000
 40
0.000000
 41
0.000000
 42
0.000000
  0
VERTEX
  8
PIN_TOP
 10
61.016000
 20
36.992000
 40
0.000000
 41
0.000000
 42
0.000000
  0
SEQEND
  0
POLYLINE
  8
PIN_TOP
 66
1
 70
1
 40
0.000000
 41
0.000000
 39
0.000000
  0
VERTEX
  8
PIN_TOP
 10
58.984000
 20
33.992000
 40
0.000000
 41
0.000000
 42
0.000000
  0
VERTEX
  8
PIN_TOP
 10
58.984000
 20
35.008000
 40
0.000000
 41
0.000000
 42
0.000000
  0
VERTEX
  8
PIN_TOP
 10
61.016000
 20
35.008000
 40
0.000000
 41
0.000000
 42
0.000000
  0
VERTEX
  8
PIN_TOP
 10
61.016000
 20
33.992000
 40
0.000000
 41
0.000000
 42
0.000000
  0
SEQEND
  0
POLYLINE
  8
PACKAGE_GEOMETRY_SILKSCREEN_TO
 66
1
 70
0
 40
0.000000
 41
0.000000
 39
0.000000
  0
VERTEX
  8
PACKAGE_GEOMETRY_SILKSCREEN_TO
 10
58.250000
 20
36.750000
 40
0.203200
 41
0.203200
 42
0.000000
  0
VERTEX
  8
PACKAGE_GEOMETRY_SILKSCREEN_TO
 10
58.250000
 20
37.750000
 40
0.203200
 41
0.203200
 42
0.000000
  0
VERTEX
  8
PACKAGE_GEOMETRY_SILKSCREEN_TO
 10
58.750000
 20
37.750000
 40
0.203200
 41
0.203200
 42
0.000000
  0
SEQEND
  0
POLYLINE
  8
PACKAGE_GEOMETRY_SILKSCREEN_TO
 66
1
 70
0
 40
0.000000
 41
0.000000
 39
0.000000
  0
VERTEX
  8
PACKAGE_GEOMETRY_SILKSCREEN_TO
 10
61.750000
 20
35.250000
 40
0.203200
 41
0.203200
 42
0.000000
  0
VERTEX
  8
PACKAGE_GEOMETRY_SILKSCREEN_TO
 10
61.750000
 20
34.250000
 40
0.203200
 41
0.203200
 42
0.000000
  0
VERTEX
  8
PACKAGE_GEOMETRY_SILKSCREEN_TO
 10
61.250000
 20
34.250000
 40
0.203200
 41
0.203200
 42
0.000000
  0
SEQEND
  0
POLYLINE
  8
PACKAGE_GEOMETRY_SILKSCREEN_TO
 66
1
 70
0
 40
0.000000
 41
0.000000
 39
0.000000
  0
VERTEX
  8
PACKAGE_GEOMETRY_SILKSCREEN_TO
 10
61.750000
 20
36.750000
 40
0.203200
 41
0.203200
 42
0.000000
  0
VERTEX
  8
PACKAGE_GEOMETRY_SILKSCREEN_TO
 10
61.750000
 20
37.750000
 40
0.203200
 41
0.203200
 42
0.000000
  0
VERTEX
  8
PACKAGE_GEOMETRY_SILKSCREEN_TO
 10
61.250000
 20
37.750000
 40
0.203200
 41
0.203200
 42
0.000000
  0
SEQEND
  0
POLYLINE
  8
PACKAGE_GEOMETRY_SILKSCREEN_TO
 66
1
 70
0
 40
0.000000
 41
0.000000
 39
0.000000
  0
VERTEX
  8
PACKAGE_GEOMETRY_SILKSCREEN_TO
 10
58.250000
 20
35.250000
 40
0.203200
 41
0.203200
 42
0.000000
  0
VERTEX
  8
PACKAGE_GEOMETRY_SILKSCREEN_TO
 10
58.250000
 20
34.250000
 40
0.203200
 41
0.203200
 42
0.000000
  0
VERTEX
  8
PACKAGE_GEOMETRY_SILKSCREEN_TO
 10
58.750000
 20
34.250000
 40
0.203200
 41
0.203200
 42
0.000000
  0
SEQEND
  0
POLYLINE
  8
PIN_TOP
 66
1
 70
1
 40
0.000000
 41
0.000000
 39
0.000000
  0
VERTEX
  8
PIN_TOP
 10
57.992000
 20
42.508000
 40
0.000000
 41
0.000000
 42
0.000000
  0
VERTEX
  8
PIN_TOP
 10
59.008000
 20
42.508000
 40
0.000000
 41
0.000000
 42
0.000000
  0
VERTEX
  8
PIN_TOP
 10
59.008000
 20
41.492000
 40
0.000000
 41
0.000000
 42
0.000000
  0
VERTEX
  8
PIN_TOP
 10
57.992000
 20
41.492000
 40
0.000000
 41
0.000000
 42
0.000000
  0
SEQEND
  0
POLYLINE
  8
PIN_TOP
 66
1
 70
1
 40
0.000000
 41
0.000000
 39
0.000000
  0
VERTEX
  8
PIN_TOP
 10
58.984000
 20
42.992000
 40
0.000000
 41
0.000000
 42
0.000000
  0
VERTEX
  8
PIN_TOP
 10
58.984000
 20
44.008000
 40
0.000000
 41
0.000000
 42
0.000000
  0
VERTEX
  8
PIN_TOP
 10
61.016000
 20
44.008000
 40
0.000000
 41
0.000000
 42
0.000000
  0
VERTEX
  8
PIN_TOP
 10
61.016000
 20
42.992000
 40
0.000000
 41
0.000000
 42
0.000000
  0
SEQEND
  0
POLYLINE
  8
PIN_TOP
 66
1
 70
1
 40
0.000000
 41
0.000000
 39
0.000000
  0
VERTEX
  8
PIN_TOP
 10
58.984000
 20
39.992000
 40
0.000000
 41
0.000000
 42
0.000000
  0
VERTEX
  8
PIN_TOP
 10
58.984000
 20
41.008000
 40
0.000000
 41
0.000000
 42
0.000000
  0
VERTEX
  8
PIN_TOP
 10
61.016000
 20
41.008000
 40
0.000000
 41
0.000000
 42
0.000000
  0
VERTEX
  8
PIN_TOP
 10
61.016000
 20
39.992000
 40
0.000000
 41
0.000000
 42
0.000000
  0
SEQEND
  0
POLYLINE
  8
PACKAGE_GEOMETRY_SILKSCREEN_TO
 66
1
 70
0
 40
0.000000
 41
0.000000
 39
0.000000
  0
VERTEX
  8
PACKAGE_GEOMETRY_SILKSCREEN_TO
 10
58.250000
 20
42.750000
 40
0.203200
 41
0.203200
 42
0.000000
  0
VERTEX
  8
PACKAGE_GEOMETRY_SILKSCREEN_TO
 10
58.250000
 20
43.750000
 40
0.203200
 41
0.203200
 42
0.000000
  0
VERTEX
  8
PACKAGE_GEOMETRY_SILKSCREEN_TO
 10
58.750000
 20
43.750000
 40
0.203200
 41
0.203200
 42
0.000000
  0
SEQEND
  0
POLYLINE
  8
PACKAGE_GEOMETRY_SILKSCREEN_TO
 66
1
 70
0
 40
0.000000
 41
0.000000
 39
0.000000
  0
VERTEX
  8
PACKAGE_GEOMETRY_SILKSCREEN_TO
 10
61.750000
 20
41.250000
 40
0.203200
 41
0.203200
 42
0.000000
  0
VERTEX
  8
PACKAGE_GEOMETRY_SILKSCREEN_TO
 10
61.750000
 20
40.250000
 40
0.203200
 41
0.203200
 42
0.000000
  0
VERTEX
  8
PACKAGE_GEOMETRY_SILKSCREEN_TO
 10
61.250000
 20
40.250000
 40
0.203200
 41
0.203200
 42
0.000000
  0
SEQEND
  0
POLYLINE
  8
PACKAGE_GEOMETRY_SILKSCREEN_TO
 66
1
 70
0
 40
0.000000
 41
0.000000
 39
0.000000
  0
VERTEX
  8
PACKAGE_GEOMETRY_SILKSCREEN_TO
 10
61.750000
 20
42.750000
 40
0.203200
 41
0.203200
 42
0.000000
  0
VERTEX
  8
PACKAGE_GEOMETRY_SILKSCREEN_TO
 10
61.750000
 20
43.750000
 40
0.203200
 41
0.203200
 42
0.000000
  0
VERTEX
  8
PACKAGE_GEOMETRY_SILKSCREEN_TO
 10
61.250000
 20
43.750000
 40
0.203200
 41
0.203200
 42
0.000000
  0
SEQEND
  0
POLYLINE
  8
PACKAGE_GEOMETRY_SILKSCREEN_TO
 66
1
 70
0
 40
0.000000
 41
0.000000
 39
0.000000
  0
VERTEX
  8
PACKAGE_GEOMETRY_SILKSCREEN_TO
 10
58.250000
 20
41.250000
 40
0.203200
 41
0.203200
 42
0.000000
  0
VERTEX
  8
PACKAGE_GEOMETRY_SILKSCREEN_TO
 10
58.250000
 20
40.250000
 40
0.203200
 41
0.203200
 42
0.000000
  0
VERTEX
  8
PACKAGE_GEOMETRY_SILKSCREEN_TO
 10
58.750000
 20
40.250000
 40
0.203200
 41
0.203200
 42
0.000000
  0
SEQEND
  0
CIRCLE
  8
PIN_TOP
 10
7.000000
 20
53.000000
 40
0.381000
  0
CIRCLE
  8
PIN_TOP
 10
3.500000
 20
4.000000
 40
1.375000
  0
CIRCLE
  8
PIN_TOP
 10
61.500000
 20
4.000000
 40
1.375000
  0
CIRCLE
  8
PIN_TOP
 10
3.500000
 20
53.000000
 40
1.375000
  0
CIRCLE
  8
PIN_TOP
 10
61.500000
 20
53.000000
 40
1.375000
  0
POLYLINE
  8
BOARD_GEOMETRY_DIMENSION
 66
1
 70
1
 40
0.000000
 41
0.000000
 39
0.000000
  0
VERTEX
  8
BOARD_GEOMETRY_DIMENSION
 10
-8.375000
 20
52.500000
 40
0.000000
 41
0.000000
 42
0.000000
  0
VERTEX
  8
BOARD_GEOMETRY_DIMENSION
 10
-9.000000
 20
56.500000
 40
0.000000
 41
0.000000
 42
0.000000
  0
VERTEX
  8
BOARD_GEOMETRY_DIMENSION
 10
-9.625000
 20
52.500000
 40
0.000000
 41
0.000000
 42
0.000000
  0
SEQEND
  0
POLYLINE
  8
BOARD_GEOMETRY_DIMENSION
 66
1
 70
0
 40
0.000000
 41
0.000000
 39
0.000000
  0
VERTEX
  8
BOARD_GEOMETRY_DIMENSION
 10
-9.000000
 20
32.468700
 40
0.000000
 41
0.000000
 42
0.000000
  0
VERTEX
  8
BOARD_GEOMETRY_DIMENSION
 10
-9.000000
 20
56.500000
 40
0.000000
 41
0.000000
 42
0.000000
  0
SEQEND
  0
POLYLINE
  8
BOARD_GEOMETRY_DIMENSION
 66
1
 70
1
 40
0.000000
 41
0.000000
 39
0.000000
  0
VERTEX
  8
BOARD_GEOMETRY_DIMENSION
 10
-9.625000
 20
4.000000
 40
0.000000
 41
0.000000
 42
0.000000
  0
VERTEX
  8
BOARD_GEOMETRY_DIMENSION
 10
-9.000000
 20
0.000000
 40
0.000000
 41
0.000000
 42
0.000000
  0
VERTEX
  8
BOARD_GEOMETRY_DIMENSION
 10
-8.375000
 20
4.000000
 40
0.000000
 41
0.000000
 42
0.000000
  0
SEQEND
  0
POLYLINE
  8
BOARD_GEOMETRY_DIMENSION
 66
1
 70
0
 40
0.000000
 41
0.000000
 39
0.000000
  0
VERTEX
  8
BOARD_GEOMETRY_DIMENSION
 10
-9.000000
 20
24.531300
 40
0.000000
 41
0.000000
 42
0.000000
  0
VERTEX
  8
BOARD_GEOMETRY_DIMENSION
 10
-9.000000
 20
0.000000
 40
0.000000
 41
0.000000
 42
0.000000
  0
SEQEND
  0
POLYLINE
  8
BOARD_GEOMETRY_DIMENSION
 66
1
 70
0
 40
0.000000
 41
0.000000
 39
0.000000
  0
VERTEX
  8
BOARD_GEOMETRY_DIMENSION
 10
-3.000000
 20
0.000000
 40
0.000000
 41
0.000000
 42
0.000000
  0
VERTEX
  8
BOARD_GEOMETRY_DIMENSION
 10
-11.500000
 20
0.000000
 40
0.000000
 41
0.000000
 42
0.000000
  0
SEQEND
  0
POLYLINE
  8
BOARD_GEOMETRY_DIMENSION
 66
1
 70
0
 40
0.000000
 41
0.000000
 39
0.000000
  0
VERTEX
  8
BOARD_GEOMETRY_DIMENSION
 10
-3.000000
 20
56.500000
 40
0.000000
 41
0.000000
 42
0.000000
  0
VERTEX
  8
BOARD_GEOMETRY_DIMENSION
 10
-11.500000
 20
56.500000
 40
0.000000
 41
0.000000
 42
0.000000
  0
SEQEND
  0
TEXT
  8
BOARD_GEOMETRY_DIMENSION
 10
-14.905500
 20
26.912500
 11
0.000000
 21
0.000000
 40
3.175000
 41
0.992000
 50
0.000000
  7
STANDARD
 71
0
 72
0
 73
0
  1
56.5
  0
POLYLINE
  8
BOARD_GEOMETRY_DIMENSION
 66
1
 70
1
 40
0.000000
 41
0.000000
 39
0.000000
  0
VERTEX
  8
BOARD_GEOMETRY_DIMENSION
 10
73.625000
 20
49.000000
 40
0.000000
 41
0.000000
 42
0.000000
  0
VERTEX
  8
BOARD_GEOMETRY_DIMENSION
 10
73.000000
 20
53.000000
 40
0.000000
 41
0.000000
 42
0.000000
  0
VERTEX
  8
BOARD_GEOMETRY_DIMENSION
 10
72.375000
 20
49.000000
 40
0.000000
 41
0.000000
 42
0.000000
  0
SEQEND
  0
POLYLINE
  8
BOARD_GEOMETRY_DIMENSION
 66
1
 70
0
 40
0.000000
 41
0.000000
 39
0.000000
  0
VERTEX
  8
BOARD_GEOMETRY_DIMENSION
 10
73.000000
 20
34.968700
 40
0.000000
 41
0.000000
 42
0.000000
  0
VERTEX
  8
BOARD_GEOMETRY_DIMENSION
 10
73.000000
 20
53.000000
 40
0.000000
 41
0.000000
 42
0.000000
  0
SEQEND
  0
POLYLINE
  8
BOARD_GEOMETRY_DIMENSION
 66
1
 70
1
 40
0.000000
 41
0.000000
 39
0.000000
  0
VERTEX
  8
BOARD_GEOMETRY_DIMENSION
 10
72.375000
 20
8.000000
 40
0.000000
 41
0.000000
 42
0.000000
  0
VERTEX
  8
BOARD_GEOMETRY_DIMENSION
 10
73.000000
 20
4.000000
 40
0.000000
 41
0.000000
 42
0.000000
  0
VERTEX
  8
BOARD_GEOMETRY_DIMENSION
 10
73.625000
 20
8.000000
 40
0.000000
 41
0.000000
 42
0.000000
  0
SEQEND
  0
POLYLINE
  8
BOARD_GEOMETRY_DIMENSION
 66
1
 70
0
 40
0.000000
 41
0.000000
 39
0.000000
  0
VERTEX
  8
BOARD_GEOMETRY_DIMENSION
 10
73.000000
 20
27.031300
 40
0.000000
 41
0.000000
 42
0.000000
  0
VERTEX
  8
BOARD_GEOMETRY_DIMENSION
 10
73.000000
 20
4.000000
 40
0.000000
 41
0.000000
 42
0.000000
  0
SEQEND
  0
POLYLINE
  8
BOARD_GEOMETRY_DIMENSION
 66
1
 70
0
 40
0.000000
 41
0.000000
 39
0.000000
  0
VERTEX
  8
BOARD_GEOMETRY_DIMENSION
 10
64.000000
 20
4.000000
 40
0.000000
 41
0.000000
 42
0.000000
  0
VERTEX
  8
BOARD_GEOMETRY_DIMENSION
 10
75.500000
 20
4.000000
 40
0.000000
 41
0.000000
 42
0.000000
  0
SEQEND
  0
POLYLINE
  8
BOARD_GEOMETRY_DIMENSION
 66
1
 70
0
 40
0.000000
 41
0.000000
 39
0.000000
  0
VERTEX
  8
BOARD_GEOMETRY_DIMENSION
 10
64.000000
 20
53.000000
 40
0.000000
 41
0.000000
 42
0.000000
  0
VERTEX
  8
BOARD_GEOMETRY_DIMENSION
 10
75.500000
 20
53.000000
 40
0.000000
 41
0.000000
 42
0.000000
  0
SEQEND
  0
TEXT
  8
BOARD_GEOMETRY_DIMENSION
 10
70.244100
 20
29.412500
 11
0.000000
 21
0.000000
 40
3.175000
 41
0.992000
 50
0.000000
  7
STANDARD
 71
0
 72
0
 73
0
  1
49
  0
POLYLINE
  8
BOARD_GEOMETRY_DIMENSION
 66
1
 70
1
 40
0.000000
 41
0.000000
 39
0.000000
  0
VERTEX
  8
BOARD_GEOMETRY_DIMENSION
 10
61.000000
 20
-7.125000
 40
0.000000
 41
0.000000
 42
0.000000
  0
VERTEX
  8
BOARD_GEOMETRY_DIMENSION
 10
65.000000
 20
-6.500000
 40
0.000000
 41
0.000000
 42
0.000000
  0
VERTEX
  8
BOARD_GEOMETRY_DIMENSION
 10
61.000000
 20
-5.875000
 40
0.000000
 41
0.000000
 42
0.000000
  0
SEQEND
  0
POLYLINE
  8
BOARD_GEOMETRY_DIMENSION
 66
1
 70
0
 40
0.000000
 41
0.000000
 39
0.000000
  0
VERTEX
  8
BOARD_GEOMETRY_DIMENSION
 10
37.137100
 20
-6.500000
 40
0.000000
 41
0.000000
 42
0.000000
  0
VERTEX
  8
BOARD_GEOMETRY_DIMENSION
 10
65.000000
 20
-6.500000
 40
0.000000
 41
0.000000
 42
0.000000
  0
SEQEND
  0
POLYLINE
  8
BOARD_GEOMETRY_DIMENSION
 66
1
 70
1
 40
0.000000
 41
0.000000
 39
0.000000
  0
VERTEX
  8
BOARD_GEOMETRY_DIMENSION
 10
4.000000
 20
-5.875000
 40
0.000000
 41
0.000000
 42
0.000000
  0
VERTEX
  8
BOARD_GEOMETRY_DIMENSION
 10
0.000000
 20
-6.500000
 40
0.000000
 41
0.000000
 42
0.000000
  0
VERTEX
  8
BOARD_GEOMETRY_DIMENSION
 10
4.000000
 20
-7.125000
 40
0.000000
 41
0.000000
 42
0.000000
  0
SEQEND
  0
POLYLINE
  8
BOARD_GEOMETRY_DIMENSION
 66
1
 70
0
 40
0.000000
 41
0.000000
 39
0.000000
  0
VERTEX
  8
BOARD_GEOMETRY_DIMENSION
 10
26.862900
 20
-6.500000
 40
0.000000
 41
0.000000
 42
0.000000
  0
VERTEX
  8
BOARD_GEOMETRY_DIMENSION
 10
0.000000
 20
-6.500000
 40
0.000000
 41
0.000000
 42
0.000000
  0
SEQEND
  0
POLYLINE
  8
BOARD_GEOMETRY_DIMENSION
 66
1
 70
0
 40
0.000000
 41
0.000000
 39
0.000000
  0
VERTEX
  8
BOARD_GEOMETRY_DIMENSION
 10
65.000000
 20
-3.500000
 40
0.000000
 41
0.000000
 42
0.000000
  0
VERTEX
  8
BOARD_GEOMETRY_DIMENSION
 10
65.000000
 20
-9.000000
 40
0.000000
 41
0.000000
 42
0.000000
  0
SEQEND
  0
POLYLINE
  8
BOARD_GEOMETRY_DIMENSION
 66
1
 70
0
 40
0.000000
 41
0.000000
 39
0.000000
  0
VERTEX
  8
BOARD_GEOMETRY_DIMENSION
 10
0.000000
 20
-3.500000
 40
0.000000
 41
0.000000
 42
0.000000
  0
VERTEX
  8
BOARD_GEOMETRY_DIMENSION
 10
0.000000
 20
-9.000000
 40
0.000000
 41
0.000000
 42
0.000000
  0
SEQEND
  0
TEXT
  8
BOARD_GEOMETRY_DIMENSION
 10
29.244100
 20
-8.087500
 11
0.000000
 21
0.000000
 40
3.175000
 41
0.992000
 50
0.000000
  7
STANDARD
 71
0
 72
0
 73
0
  1
65
  0
POLYLINE
  8
PACKAGE_GEOMETRY_SILKSCREEN_TO
 66
1
 70
0
 40
0.000000
 41
0.000000
 39
0.000000
  0
VERTEX
  8
PACKAGE_GEOMETRY_SILKSCREEN_TO
 10
31.500000
 20
32.000000
 40
0.300000
 41
0.300000
 42
0.000000
  0
VERTEX
  8
PACKAGE_GEOMETRY_SILKSCREEN_TO
 10
32.500000
 20
32.000000
 40
0.300000
 41
0.300000
 42
0.000000
  0
SEQEND
  0
POLYLINE
  8
PACKAGE_GEOMETRY_SILKSCREEN_TO
 66
1
 70
0
 40
0.000000
 41
0.000000
 39
0.000000
  0
VERTEX
  8
PACKAGE_GEOMETRY_SILKSCREEN_TO
 10
31.500000
 20
34.500000
 40
0.300000
 41
0.300000
 42
0.000000
  0
VERTEX
  8
PACKAGE_GEOMETRY_SILKSCREEN_TO
 10
32.500000
 20
34.500000
 40
0.300000
 41
0.300000
 42
0.000000
  0
SEQEND
  0
POLYLINE
  8
PACKAGE_GEOMETRY_SILKSCREEN_TO
 66
1
 70
0
 40
0.000000
 41
0.000000
 39
0.000000
  0
VERTEX
  8
PACKAGE_GEOMETRY_SILKSCREEN_TO
 10
31.500000
 20
37.000000
 40
0.300000
 41
0.300000
 42
0.000000
  0
VERTEX
  8
PACKAGE_GEOMETRY_SILKSCREEN_TO
 10
32.500000
 20
37.000000
 40
0.300000
 41
0.300000
 42
0.000000
  0
SEQEND
  0
POLYLINE
  8
BOARD_GEOMETRY_OUTLINE
 66
1
 70
1
 40
0.000000
 41
0.000000
 39
0.000000
  0
VERTEX
  8
BOARD_GEOMETRY_OUTLINE
 10
32.500000
 20
35.750000
 40
0.000000
 41
0.000000
 42
1.000000
  0
VERTEX
  8
BOARD_GEOMETRY_OUTLINE
 10
31.500000
 20
35.750000
 40
0.000000
 41
0.000000
 42
1.000000
  0
SEQEND
  0
POLYLINE
  8
BOARD_GEOMETRY_OUTLINE
 66
1
 70
1
 40
0.000000
 41
0.000000
 39
0.000000
  0
VERTEX
  8
BOARD_GEOMETRY_OUTLINE
 10
32.500000
 20
33.250000
 40
0.000000
 41
0.000000
 42
1.000000
  0
VERTEX
  8
BOARD_GEOMETRY_OUTLINE
 10
31.500000
 20
33.250000
 40
0.000000
 41
0.000000
 42
1.000000
  0
SEQEND
  0
POLYLINE
  8
BOARD_GEOMETRY_OUTLINE
 66
1
 70
1
 40
0.000000
 41
0.000000
 39
0.000000
  0
VERTEX
  8
BOARD_GEOMETRY_OUTLINE
 10
19.500000
 20
33.750000
 40
0.000000
 41
0.000000
 42
0.000000
  0
VERTEX
  8
BOARD_GEOMETRY_OUTLINE
 10
19.500000
 20
27.000000
 40
0.000000
 41
0.000000
 42
0.414214
  0
VERTEX
  8
BOARD_GEOMETRY_OUTLINE
 10
20.000000
 20
26.500000
 40
0.000000
 41
0.000000
 42
0.000000
  0
VERTEX
  8
BOARD_GEOMETRY_OUTLINE
 10
31.000000
 20
26.500000
 40
0.000000
 41
0.000000
 42
0.414214
  0
VERTEX
  8
BOARD_GEOMETRY_OUTLINE
 10
31.500000
 20
27.000000
 40
0.000000
 41
0.000000
 42
0.000000
  0
VERTEX
  8
BOARD_GEOMETRY_OUTLINE
 10
31.500000
 20
30.750000
 40
0.000000
 41
0.000000
 42
-1.000000
  0
VERTEX
  8
BOARD_GEOMETRY_OUTLINE
 10
32.500000
 20
30.750000
 40
0.000000
 41
0.000000
 42
0.000000
  0
VERTEX
  8
BOARD_GEOMETRY_OUTLINE
 10
32.500000
 20
26.000000
 40
0.000000
 41
0.000000
 42
-0.414214
  0
VERTEX
  8
BOARD_GEOMETRY_OUTLINE
 10
32.000000
 20
25.500000
 40
0.000000
 41
0.000000
 42
0.000000
  0
VERTEX
  8
BOARD_GEOMETRY_OUTLINE
 10
19.000000
 20
25.500000
 40
0.000000
 41
0.000000
 42
-0.414214
  0
VERTEX
  8
BOARD_GEOMETRY_OUTLINE
 10
18.500000
 20
26.000000
 40
0.000000
 41
0.000000
 42
0.000000
  0
VERTEX
  8
BOARD_GEOMETRY_OUTLINE
 10
18.500000
 20
33.750000
 40
0.000000
 41
0.000000
 42
-1.000000
  0
VERTEX
  8
BOARD_GEOMETRY_OUTLINE
 10
19.500000
 20
33.750000
 40
0.000000
 41
0.000000
 42
0.000000
  0
SEQEND
  0
POLYLINE
  8
BOARD_GEOMETRY_OUTLINE
 66
1
 70
1
 40
0.000000
 41
0.000000
 39
0.000000
  0
VERTEX
  8
BOARD_GEOMETRY_OUTLINE
 10
19.500000
 20
35.250000
 40
0.000000
 41
0.000000
 42
0.000000
  0
VERTEX
  8
BOARD_GEOMETRY_OUTLINE
 10
19.500000
 20
42.000000
 40
0.000000
 41
0.000000
 42
-0.414214
  0
VERTEX
  8
BOARD_GEOMETRY_OUTLINE
 10
20.000000
 20
42.500000
 40
0.000000
 41
0.000000
 42
0.000000
  0
VERTEX
  8
BOARD_GEOMETRY_OUTLINE
 10
31.000000
 20
42.500000
 40
0.000000
 41
0.000000
 42
-0.414214
  0
VERTEX
  8
BOARD_GEOMETRY_OUTLINE
 10
31.500000
 20
42.000000
 40
0.000000
 41
0.000000
 42
0.000000
  0
VERTEX
  8
BOARD_GEOMETRY_OUTLINE
 10
31.500000
 20
38.250000
 40
0.000000
 41
0.000000
 42
1.000000
  0
VERTEX
  8
BOARD_GEOMETRY_OUTLINE
 10
32.500000
 20
38.250000
 40
0.000000
 41
0.000000
 42
0.000000
  0
VERTEX
  8
BOARD_GEOMETRY_OUTLINE
 10
32.500000
 20
43.000000
 40
0.000000
 41
0.000000
 42
0.414214
  0
VERTEX
  8
BOARD_GEOMETRY_OUTLINE
 10
32.000000
 20
43.500000
 40
0.000000
 41
0.000000
 42
0.000000
  0
VERTEX
  8
BOARD_GEOMETRY_OUTLINE
 10
19.000000
 20
43.500000
 40
0.000000
 41
0.000000
 42
0.414214
  0
VERTEX
  8
BOARD_GEOMETRY_OUTLINE
 10
18.500000
 20
43.000000
 40
0.000000
 41
0.000000
 42
0.000000
  0
VERTEX
  8
BOARD_GEOMETRY_OUTLINE
 10
18.500000
 20
35.250000
 40
0.000000
 41
0.000000
 42
1.000000
  0
VERTEX
  8
BOARD_GEOMETRY_OUTLINE
 10
19.500000
 20
35.250000
 40
0.000000
 41
0.000000
 42
0.000000
  0
SEQEND
  0
POLYLINE
  8
BOARD_GEOMETRY_OUTLINE
 66
1
 70
1
 40
0.000000
 41
0.000000
 39
0.000000
  0
VERTEX
  8
BOARD_GEOMETRY_OUTLINE
 10
3.000000
 20
0.000000
 40
0.000000
 41
0.000000
 42
0.000000
  0
VERTEX
  8
BOARD_GEOMETRY_OUTLINE
 10
62.000000
 20
0.000000
 40
0.000000
 41
0.000000
 42
0.414214
  0
VERTEX
  8
BOARD_GEOMETRY_OUTLINE
 10
65.000000
 20
3.000000
 40
0.000000
 41
0.000000
 42
0.000000
  0
VERTEX
  8
BOARD_GEOMETRY_OUTLINE
 10
65.000000
 20
53.500000
 40
0.000000
 41
0.000000
 42
0.414214
  0
VERTEX
  8
BOARD_GEOMETRY_OUTLINE
 10
62.000000
 20
56.500000
 40
0.000000
 41
0.000000
 42
0.000000
  0
VERTEX
  8
BOARD_GEOMETRY_OUTLINE
 10
3.000000
 20
56.500000
 40
0.000000
 41
0.000000
 42
0.414214
  0
VERTEX
  8
BOARD_GEOMETRY_OUTLINE
 10
0.000000
 20
53.500000
 40
0.000000
 41
0.000000
 42
0.000000
  0
VERTEX
  8
BOARD_GEOMETRY_OUTLINE
 10
0.000000
 20
3.000000
 40
0.000000
 41
0.000000
 42
0.414214
  0
VERTEX
  8
BOARD_GEOMETRY_OUTLINE
 10
3.000000
 20
0.000000
 40
0.000000
 41
0.000000
 42
0.000000
  0
SEQEND
  0
TEXT
  8
PACKAGE_GEOMETRY_SILKSCREEN_TO
 10
44.250000
 20
25.000000
 11
0.000000
 21
0.000000
 40
0.889000
 41
0.857143
 50
0.000000
  7
STANDARD
 71
0
 72
0
 73
0
  1
1 2 3 4
  0
TEXT
  8
PACKAGE_GEOMETRY_SILKSCREEN_TO
 10
33.250000
 20
29.250000
 11
0.000000
 21
0.000000
 40
0.889000
 41
0.857143
 50
0.000000
  7
STANDARD
 71
0
 72
0
 73
0
  1
OPTIONAL
  0
TEXT
  8
PACKAGE_GEOMETRY_SILKSCREEN_TO
 10
33.250000
 20
24.750000
 11
0.000000
 21
0.000000
 40
0.889000
 41
0.857143
 50
0.000000
  7
STANDARD
 71
0
 72
0
 73
0
  1
or EXT 3.3V
  0
TEXT
  8
PACKAGE_GEOMETRY_SILKSCREEN_TO
 10
33.250000
 20
26.250000
 11
0.000000
 21
0.000000
 40
0.889000
 41
0.857143
 50
0.000000
  7
STANDARD
 71
0
 72
0
 73
0
  1
FOR FifoPi Q3
  0
TEXT
  8
PACKAGE_GEOMETRY_SILKSCREEN_TO
 10
33.250000
 20
27.750000
 11
0.000000
 21
0.000000
 40
0.889000
 41
0.857143
 50
0.000000
  7
STANDARD
 71
0
 72
0
 73
0
  1
BRIDGE IN-OUT
  0
TEXT
  8
PACKAGE_GEOMETRY_SILKSCREEN_TO
 10
50.250000
 20
21.250000
 11
0.000000
 21
0.000000
 40
0.889000
 41
0.857143
 50
0.000000
  7
STANDARD
 71
0
 72
0
 73
0
  1
IF USE J3
  0
TEXT
  8
PACKAGE_GEOMETRY_SILKSCREEN_TO
 10
50.250000
 20
22.750000
 11
0.000000
 21
0.000000
 40
0.889000
 41
0.857143
 50
0.000000
  7
STANDARD
 71
0
 72
0
 73
0
  1
REMOVE L1
  0
TEXT
  8
PACKAGE_GEOMETRY_SILKSCREEN_TO
 10
5.750000
 20
43.500000
 11
0.000000
 21
0.000000
 40
1.300000
 41
0.713077
 50
0.000000
  7
STANDARD
 71
0
 72
0
 73
0
  1
HDMIpi mkII
  0
TEXT
  8
PACKAGE_GEOMETRY_SILKSCREEN_TO
 10
64.000000
 20
48.250000
 11
0.000000
 21
0.000000
 40
0.889000
 41
0.857143
 50
90.000000
  7
STANDARD
 71
0
 72
0
 73
0
  1
GND
  0
TEXT
  8
PACKAGE_GEOMETRY_SILKSCREEN_TO
 10
57.750000
 20
48.000000
 11
0.000000
 21
0.000000
 40
0.889000
 41
0.857143
 50
90.000000
  7
STANDARD
 71
0
 72
0
 73
0
  1
MUTE
  0
TEXT
  8
PACKAGE_GEOMETRY_SILKSCREEN_TO
 10
64.000000
 20
45.250000
 11
0.000000
 21
0.000000
 40
0.889000
 41
0.857143
 50
90.000000
  7
STANDARD
 71
0
 72
0
 73
0
  1
GND
  0
TEXT
  8
PACKAGE_GEOMETRY_SILKSCREEN_TO
 10
57.750000
 20
45.250000
 11
0.000000
 21
0.000000
 40
0.889000
 41
0.857143
 50
90.000000
  7
STANDARD
 71
0
 72
0
 73
0
  1
DSD
  0
TEXT
  8
PACKAGE_GEOMETRY_SILKSCREEN_TO
 10
1.000000
 20
44.250000
 11
0.000000
 21
0.000000
 40
0.889000
 41
0.857143
 50
270.000000
  7
STANDARD
 71
0
 72
0
 73
0
  1
POWER
  0
TEXT
  8
PACKAGE_GEOMETRY_SILKSCREEN_TO
 10
23.000000
 20
41.000000
 11
0.000000
 21
0.000000
 40
0.889000
 41
0.857143
 50
0.000000
  7
STANDARD
 71
0
 72
0
 73
0
  1
3.3V REG
  0
TEXT
  8
PACKAGE_GEOMETRY_SILKSCREEN_TO
 10
4.750000
 20
41.000000
 11
0.000000
 21
0.000000
 40
1.300000
 41
0.713077
 50
0.000000
  7
STANDARD
 71
0
 72
0
 73
0
  1
I2S/DSDtoHDMI
  0
TEXT
  8
PACKAGE_GEOMETRY_SILKSCREEN_TO
 10
5.750000
 20
39.000000
 11
0.000000
 21
0.000000
 40
1.300000
 41
0.713077
 50
0.000000
  7
STANDARD
 71
0
 72
0
 73
0
  1
TRANSMITTER
  0
TEXT
  8
PACKAGE_GEOMETRY_SILKSCREEN_TO
 10
64.000000
 20
41.000000
 11
0.000000
 21
0.000000
 40
0.889000
 41
0.857143
 50
90.000000
  7
STANDARD
 71
0
 72
0
 73
0
  1
MCK
  0
TEXT
  8
PACKAGE_GEOMETRY_SILKSCREEN_TO
 10
64.000000
 20
34.250000
 11
0.000000
 21
0.000000
 40
0.889000
 41
0.857143
 50
90.000000
  7
STANDARD
 71
0
 72
0
 73
0
  1
LR\DL
  0
TEXT
  8
PACKAGE_GEOMETRY_SILKSCREEN_TO
 10
64.000000
 20
27.250000
 11
0.000000
 21
0.000000
 40
0.889000
 41
0.857143
 50
90.000000
  7
STANDARD
 71
0
 72
0
 73
0
  1
SCK\BCK
  0
TEXT
  8
PACKAGE_GEOMETRY_SILKSCREEN_TO
 10
64.000000
 20
22.000000
 11
0.000000
 21
0.000000
 40
0.889000
 41
0.857143
 50
90.000000
  7
STANDARD
 71
0
 72
0
 73
0
  1
DA\DR
  0
TEXT
  8
PACKAGE_GEOMETRY_SILKSCREEN_TO
 10
54.750000
 20
18.000000
 11
0.000000
 21
0.000000
 40
0.889000
 41
0.857143
 50
90.000000
  7
STANDARD
 71
0
 72
0
 73
0
  1
GND
  0
TEXT
  8
PACKAGE_GEOMETRY_SILKSCREEN_TO
 10
54.750000
 20
9.750000
 11
0.000000
 21
0.000000
 40
0.889000
 41
0.857143
 50
90.000000
  7
STANDARD
 71
0
 72
0
 73
0
  1
5V/3.3V
  0
TEXT
  8
PACKAGE_GEOMETRY_SILKSCREEN_TO
 10
36.500000
 20
31.100000
 11
0.000000
 21
0.000000
 40
0.889000
 41
0.857143
 50
90.000000
  7
STANDARD
 71
0
 72
0
 73
0
  1
IN
  0
TEXT
  8
PACKAGE_GEOMETRY_SILKSCREEN_TO
 10
36.500000
 20
33.300000
 11
0.000000
 21
0.000000
 40
0.889000
 41
0.857143
 50
90.000000
  7
STANDARD
 71
0
 72
0
 73
0
  1
GND
  0
TEXT
  8
PACKAGE_GEOMETRY_SILKSCREEN_TO
 10
36.500000
 20
35.900000
 11
0.000000
 21
0.000000
 40
0.889000
 41
0.857143
 50
90.000000
  7
STANDARD
 71
0
 72
0
 73
0
  1
OUT
  0
TEXT
  8
PACKAGE_GEOMETRY_SILKSCREEN_TO
 10
3.000000
 20
33.500000
 11
0.000000
 21
0.000000
 40
0.889000
 41
0.857143
 50
0.000000
  7
STANDARD
 71
0
 72
0
 73
0
  1
All rights reserved
  0
TEXT
  8
PACKAGE_GEOMETRY_SILKSCREEN_TO
 10
5.500000
 20
35.000000
 11
0.000000
 21
0.000000
 40
0.889000
 41
0.857143
 50
0.000000
  7
STANDARD
 71
0
 72
0
 73
0
  1
DESIGN BY IAN
  0
ENDSEC
  0
EOF
