  0
SECTION
  2
HEADER
  9
$EXTMIN
 10
-0.15
 20
-0.15
 30
0.00
  9
$EXTMAX
 10
73.15
 20
29.15
 30
0.00
  0
ENDSEC
  0
SECTION
  2
TABLES
  0
TABLE
  2
LTYPE
 70
3
  0
LTYPE
  2
BYBLOCK
 70
0
  3

 72
65
 73
0
 40
0.00
  0
LTYPE
  2
BYLAYER
 70
0
  3

 72
65
 73
0
 40
0.00
  0
LTYPE
  2
CONTINUOUS
 70
0
  3
Solid line
 72
65
 73
0
 40
0.00
  0
ENDTAB
  0
TABLE
  2
LAYER
 70
5
  0
LAYER
  2
0
 70
0
 62
7
  6
CONTINUOUS
  0
LAYER
  2
BOARD_ART
 70
0
 62
7
  6
CONTINUOUS
  0
LAYER
  2
PASTETOP_ART
 70
0
 62
5
  6
CONTINUOUS
  0
LAYER
  2
SILK_TOP_ART
 70
0
 62
9
  6
CONTINUOUS
  0
LAYER
  2
MONITORPIPRO_ROU
 70
0
 62
1
  6
CONTINUOUS
  0
LAYER
  2
MONITORPIPRO-1-2_DRL
 70
0
 62
4
  6
CONTINUOUS
  0
ENDTAB
  0
TABLE
  2
STYLE
 70
0
  0
ENDTAB
  0
ENDSEC
  0
SECTION
  2
BLOCKS
  0
BLOCK
  2
ROUND_1
  3
ROUND_1
 70
64
 10
0.00
 20
0.00
 30
0.00
  0
CIRCLE
  8
0
 10
0.00
 20
0.00
 30
0.00
 40
0.0127
  0
ENDBLK
  0
BLOCK
  2
ROUND_7
  3
ROUND_7
 70
64
 10
0.00
 20
0.00
 30
0.00
  0
CIRCLE
  8
0
 10
0.00
 20
0.00
 30
0.00
 40
1.375
  0
ENDBLK
  0
BLOCK
  2
ROUND_35
  3
ROUND_35
 70
64
 10
0.00
 20
0.00
 30
0.00
  0
CIRCLE
  8
0
 10
0.00
 20
0.00
 30
0.00
 40
0.15
  0
ENDBLK
  0
BLOCK
  2
ROUND_36
  3
ROUND_36
 70
64
 10
0.00
 20
0.00
 30
0.00
  0
CIRCLE
  8
0
 10
0.00
 20
0.00
 30
0.00
 40
0.1016
  0
ENDBLK
  0
BLOCK
  2
ROUND_37
  3
ROUND_37
 70
64
 10
0.00
 20
0.00
 30
0.00
  0
CIRCLE
  8
0
 10
0.00
 20
0.00
 30
0.00
 40
0.0635
  0
ENDBLK
  0
BLOCK
  2
ROUND_38
  3
ROUND_38
 70
64
 10
0.00
 20
0.00
 30
0.00
  0
CIRCLE
  8
0
 10
0.00
 20
0.00
 30
0.00
 40
0.127
  0
ENDBLK
  0
BLOCK
  2
ROUND_39
  3
ROUND_39
 70
64
 10
0.00
 20
0.00
 30
0.00
  0
CIRCLE
  8
0
 10
0.00
 20
0.00
 30
0.00
 40
0.1905
  0
ENDBLK
  0
BLOCK
  2
RECTANGLE_49
  3
RECTANGLE_49
 70
64
 10
0.00
 20
0.00
 30
0.00
  0
SOLID
  8
0
 10
0.6985
 20
0.3175
 30
0.00
 11
0.6985
 21
-0.3175
 31
0.00
 12
-0.6985
 22
0.3175
 32
0.00
 13
-0.6985
 23
-0.3175
 33
0.00
  0
ENDBLK
  0
BLOCK
  2
ROUND_53
  3
ROUND_53
 70
64
 10
0.00
 20
0.00
 30
0.00
  0
CIRCLE
  8
0
 10
0.00
 20
0.00
 30
0.00
 40
0.4445
  0
ENDBLK
  0
BLOCK
  2
ROUND_64
  3
ROUND_64
 70
64
 10
0.00
 20
0.00
 30
0.00
  0
CIRCLE
  8
0
 10
0.00
 20
0.00
 30
0.00
 40
0.0375
  0
ENDBLK
  0
BLOCK
  2
ROUND_65
  3
ROUND_65
 70
64
 10
0.00
 20
0.00
 30
0.00
  0
CIRCLE
  8
0
 10
0.00
 20
0.00
 30
0.00
 40
0.2032
  0
ENDBLK
  0
ENDSEC
  0
SECTION
  2
ENTITIES
  0
POLYLINE
  8
BOARD_ART
 66
1
 10
0.00
 20
0.00
 30
0.00
 40
0.30
 41
0.30
  0
VERTEX
  8
BOARD_ART
 10
0.00
 20
3.75
 30
0.00
  0
VERTEX
  8
BOARD_ART
 10
0.00
 20
0.50
 30
0.00
  0
VERTEX
  8
BOARD_ART
 10
0.00
 20
4.50
 30
0.00
  0
VERTEX
  8
BOARD_ART
 10
2.00
 20
6.50
 30
0.00
  0
VERTEX
  8
BOARD_ART
 10
2.00
 20
14.00
 30
0.00
  0
VERTEX
  8
BOARD_ART
 10
0.00
 20
16.00
 30
0.00
  0
SEQEND
  0
POLYLINE
  8
BOARD_ART
 66
1
 10
0.00
 20
0.00
 30
0.00
 40
0.30
 41
0.30
  0
VERTEX
  8
BOARD_ART
 10
73.00
 20
16.00
 30
0.00
  0
VERTEX
  8
BOARD_ART
 10
73.00
 20
25.50
 30
0.00
  0
VERTEX
  8
BOARD_ART
 10
72.50
 20
26.00
 30
0.00
  0
VERTEX
  8
BOARD_ART
 10
55.00
 20
26.00
 30
0.00
  0
VERTEX
  8
BOARD_ART
 10
52.00
 20
29.00
 30
0.00
  0
VERTEX
  8
BOARD_ART
 10
10.00
 20
29.00
 30
0.00
  0
VERTEX
  8
BOARD_ART
 10
7.00
 20
26.00
 30
0.00
  0
VERTEX
  8
BOARD_ART
 10
0.50
 20
26.00
 30
0.00
  0
VERTEX
  8
BOARD_ART
 10
0.00
 20
25.50
 30
0.00
  0
VERTEX
  8
BOARD_ART
 10
0.00
 20
16.00
 30
0.00
  0
SEQEND
  0
POLYLINE
  8
BOARD_ART
 66
1
 10
0.00
 20
0.00
 30
0.00
 40
0.30
 41
0.30
  0
VERTEX
  8
BOARD_ART
 10
73.00
 20
4.50
 30
0.00
  0
VERTEX
  8
BOARD_ART
 10
71.00
 20
6.50
 30
0.00
  0
VERTEX
  8
BOARD_ART
 10
71.00
 20
14.00
 30
0.00
  0
VERTEX
  8
BOARD_ART
 10
73.00
 20
16.00
 30
0.00
  0
SEQEND
  0
POLYLINE
  8
BOARD_ART
 66
1
 10
0.00
 20
0.00
 30
0.00
 40
0.30
 41
0.30
  0
VERTEX
  8
BOARD_ART
 10
73.00
 20
0.75
 30
0.00
  0
VERTEX
  8
BOARD_ART
 10
73.00
 20
0.50
 30
0.00
  0
VERTEX
  8
BOARD_ART
 10
73.00
 20
4.50
 30
0.00
  0
VERTEX
  8
BOARD_ART
 10
73.00
 20
1.50
 30
0.00
  0
VERTEX
  8
BOARD_ART
 10
73.00
 20
0.50
 30
0.00
  0
SEQEND
  0
POLYLINE
  8
BOARD_ART
 66
1
 10
0.00
 20
0.00
 30
0.00
 40
0.30
 41
0.30
  0
VERTEX
  8
BOARD_ART
 10
0.00
 20
0.50
 30
0.00
  0
VERTEX
  8
BOARD_ART
 10
0.50
 20
0.00
 30
0.00
  0
VERTEX
  8
BOARD_ART
 10
72.50
 20
0.00
 30
0.00
  0
VERTEX
  8
BOARD_ART
 10
73.00
 20
0.50
 30
0.00
  0
SEQEND
  0
INSERT
  2
RECTANGLE_49
  8
PASTETOP_ART
 10
58.1298
 20
4.73
 30
0.00
 41
1.00
 42
1.00
 50
0.00
  0
INSERT
  2
RECTANGLE_49
  8
PASTETOP_ART
 10
58.1298
 20
7.27
 30
0.00
 41
1.00
 42
1.00
 50
0.00
  0
INSERT
  2
RECTANGLE_49
  8
PASTETOP_ART
 10
63.8702
 20
4.73
 30
0.00
 41
1.00
 42
1.00
 50
0.00
  0
INSERT
  2
RECTANGLE_49
  8
PASTETOP_ART
 10
63.8702
 20
7.27
 30
0.00
 41
1.00
 42
1.00
 50
0.00
  0
POLYLINE
  8
SILK_TOP_ART
 66
1
 10
0.00
 20
0.00
 30
0.00
 40
0.2032
 41
0.2032
  0
VERTEX
  8
SILK_TOP_ART
 10
61.00
 20
5.7147
 30
0.00
 42
0.4142136
  0
VERTEX
  8
SILK_TOP_ART
 10
62.0473
 20
6.762
 30
0.00
 42
0.00
  0
SEQEND
  0
POLYLINE
  8
SILK_TOP_ART
 66
1
 10
0.00
 20
0.00
 30
0.00
 40
0.2032
 41
0.2032
  0
VERTEX
  8
SILK_TOP_ART
 10
59.9527
 20
6.762
 30
0.00
 42
0.4142136
  0
VERTEX
  8
SILK_TOP_ART
 10
61.00
 20
5.7147
 30
0.00
 42
0.00
  0
SEQEND
  0
POLYLINE
  8
SILK_TOP_ART
 66
1
 10
0.00
 20
0.00
 30
0.00
 40
0.2032
 41
0.2032
  0
VERTEX
  8
SILK_TOP_ART
 10
61.00
 20
7.8093
 30
0.00
 42
0.4142136
  0
VERTEX
  8
SILK_TOP_ART
 10
59.9527
 20
6.762
 30
0.00
 42
0.00
  0
SEQEND
  0
POLYLINE
  8
SILK_TOP_ART
 66
1
 10
0.00
 20
0.00
 30
0.00
 40
0.2032
 41
0.2032
  0
VERTEX
  8
SILK_TOP_ART
 10
62.0473
 20
6.762
 30
0.00
 42
0.4142136
  0
VERTEX
  8
SILK_TOP_ART
 10
61.00
 20
7.8093
 30
0.00
 42
0.00
  0
SEQEND
  0
POLYLINE
  8
SILK_TOP_ART
 66
1
 10
0.00
 20
0.00
 30
0.00
 40
0.2032
 41
0.2032
  0
VERTEX
  8
SILK_TOP_ART
 10
62.778
 20
8.286
 30
0.00
  0
VERTEX
  8
SILK_TOP_ART
 10
59.73
 20
8.286
 30
0.00
  0
VERTEX
  8
SILK_TOP_ART
 10
59.222
 20
7.778
 30
0.00
  0
VERTEX
  8
SILK_TOP_ART
 10
59.222
 20
3.714
 30
0.00
  0
VERTEX
  8
SILK_TOP_ART
 10
62.778
 20
3.714
 30
0.00
  0
VERTEX
  8
SILK_TOP_ART
 10
62.778
 20
8.286
 30
0.00
  0
SEQEND
  0
POLYLINE
  8
SILK_TOP_ART
 66
1
 10
0.00
 20
0.00
 30
0.00
 40
0.2032
 41
0.2032
  0
VERTEX
  8
SILK_TOP_ART
 10
61.87
 20
18.4233
 30
0.00
  0
VERTEX
  8
SILK_TOP_ART
 10
61.9767
 20
18.315
 30
0.00
  0
VERTEX
  8
SILK_TOP_ART
 10
62.0967
 20
18.25
 30
0.00
  0
VERTEX
  8
SILK_TOP_ART
 10
62.2033
 20
18.25
 30
0.00
  0
VERTEX
  8
SILK_TOP_ART
 10
62.31
 20
18.315
 30
0.00
  0
VERTEX
  8
SILK_TOP_ART
 10
62.39
 20
18.4233
 30
0.00
  0
VERTEX
  8
SILK_TOP_ART
 10
62.43
 20
18.575
 30
0.00
  0
VERTEX
  8
SILK_TOP_ART
 10
62.4033
 20
18.7266
 30
0.00
  0
VERTEX
  8
SILK_TOP_ART
 10
62.3367
 20
18.8567
 30
0.00
  0
VERTEX
  8
SILK_TOP_ART
 10
62.2167
 20
18.9433
 30
0.00
  0
VERTEX
  8
SILK_TOP_ART
 10
62.0567
 20
18.9867
 30
0.00
  0
VERTEX
  8
SILK_TOP_ART
 10
61.9633
 20
19.0733
 30
0.00
  0
VERTEX
  8
SILK_TOP_ART
 10
61.9233
 20
19.225
 30
0.00
  0
VERTEX
  8
SILK_TOP_ART
 10
61.95
 20
19.3767
 30
0.00
  0
VERTEX
  8
SILK_TOP_ART
 10
62.0167
 20
19.485
 30
0.00
  0
VERTEX
  8
SILK_TOP_ART
 10
62.11
 20
19.55
 30
0.00
  0
VERTEX
  8
SILK_TOP_ART
 10
62.2033
 20
19.55
 30
0.00
  0
VERTEX
  8
SILK_TOP_ART
 10
62.2967
 20
19.5067
 30
0.00
  0
VERTEX
  8
SILK_TOP_ART
 10
62.3767
 20
19.3983
 30
0.00
  0
SEQEND
  0
POLYLINE
  8
SILK_TOP_ART
 66
1
 10
0.00
 20
0.00
 30
0.00
 40
0.2032
 41
0.2032
  0
VERTEX
  8
SILK_TOP_ART
 10
62.8237
 20
19.3333
 30
0.00
  0
VERTEX
  8
SILK_TOP_ART
 10
62.9037
 20
19.4633
 30
0.00
  0
VERTEX
  8
SILK_TOP_ART
 10
62.997
 20
19.5283
 30
0.00
  0
VERTEX
  8
SILK_TOP_ART
 10
63.1037
 20
19.55
 30
0.00
  0
VERTEX
  8
SILK_TOP_ART
 10
63.237
 20
19.5067
 30
0.00
  0
VERTEX
  8
SILK_TOP_ART
 10
63.3303
 20
19.3983
 30
0.00
  0
VERTEX
  8
SILK_TOP_ART
 10
63.357
 20
19.2684
 30
0.00
  0
VERTEX
  8
SILK_TOP_ART
 10
63.3437
 20
19.1383
 30
0.00
  0
VERTEX
  8
SILK_TOP_ART
 10
63.2903
 20
19.03
 30
0.00
  0
VERTEX
  8
SILK_TOP_ART
 10
63.0237
 20
18.8133
 30
0.00
  0
VERTEX
  8
SILK_TOP_ART
 10
62.9037
 20
18.6617
 30
0.00
  0
VERTEX
  8
SILK_TOP_ART
 10
62.8237
 20
18.445
 30
0.00
  0
VERTEX
  8
SILK_TOP_ART
 10
62.797
 20
18.25
 30
0.00
  0
VERTEX
  8
SILK_TOP_ART
 10
63.357
 20
18.25
 30
0.00
  0
SEQEND
  0
POLYLINE
  8
SILK_TOP_ART
 66
1
 10
0.00
 20
0.00
 30
0.00
 40
0.127
 41
0.127
  0
VERTEX
  8
SILK_TOP_ART
 10
60.5847
 20
7.012
 30
0.00
  0
VERTEX
  8
SILK_TOP_ART
 10
60.5847
 20
6.4659
 30
0.00
  0
VERTEX
  8
SILK_TOP_ART
 10
60.627
 20
6.3516
 30
0.00
  0
VERTEX
  8
SILK_TOP_ART
 10
60.7117
 20
6.2754
 30
0.00
  0
VERTEX
  8
SILK_TOP_ART
 10
60.8175
 20
6.25
 30
0.00
  0
VERTEX
  8
SILK_TOP_ART
 10
60.9233
 20
6.2754
 30
0.00
  0
VERTEX
  8
SILK_TOP_ART
 10
61.008
 20
6.3516
 30
0.00
  0
VERTEX
  8
SILK_TOP_ART
 10
61.0503
 20
6.4659
 30
0.00
  0
VERTEX
  8
SILK_TOP_ART
 10
61.0503
 20
7.012
 30
0.00
  0
SEQEND
  0
POLYLINE
  8
SILK_TOP_ART
 66
1
 10
0.00
 20
0.00
 30
0.00
 40
0.127
 41
0.127
  0
VERTEX
  8
SILK_TOP_ART
 10
61.2197
 20
6.3643
 30
0.00
  0
VERTEX
  8
SILK_TOP_ART
 10
61.2832
 20
6.3008
 30
0.00
  0
VERTEX
  8
SILK_TOP_ART
 10
61.3572
 20
6.2627
 30
0.00
  0
VERTEX
  8
SILK_TOP_ART
 10
61.4525
 20
6.25
 30
0.00
  0
VERTEX
  8
SILK_TOP_ART
 10
61.5478
 20
6.2754
 30
0.00
  0
VERTEX
  8
SILK_TOP_ART
 10
61.6218
 20
6.3262
 30
0.00
  0
VERTEX
  8
SILK_TOP_ART
 10
61.6748
 20
6.4151
 30
0.00
  0
VERTEX
  8
SILK_TOP_ART
 10
61.6853
 20
6.5167
 30
0.00
  0
VERTEX
  8
SILK_TOP_ART
 10
61.6642
 20
6.6183
 30
0.00
  0
VERTEX
  8
SILK_TOP_ART
 10
61.6112
 20
6.6818
 30
0.00
  0
VERTEX
  8
SILK_TOP_ART
 10
61.5372
 20
6.7326
 30
0.00
  0
VERTEX
  8
SILK_TOP_ART
 10
61.4631
 20
6.7453
 30
0.00
  0
VERTEX
  8
SILK_TOP_ART
 10
61.389
 20
6.7326
 30
0.00
  0
VERTEX
  8
SILK_TOP_ART
 10
61.2938
 20
6.6818
 30
0.00
  0
VERTEX
  8
SILK_TOP_ART
 10
61.3255
 20
7.012
 30
0.00
  0
VERTEX
  8
SILK_TOP_ART
 10
61.6112
 20
7.012
 30
0.00
  0
SEQEND
  0
POLYLINE
  8
SILK_TOP_ART
 66
1
 10
0.00
 20
0.00
 30
0.00
 40
0.254
 41
0.254
  0
VERTEX
  8
SILK_TOP_ART
 10
56.5005
 20
14.4991
 30
0.00
  0
VERTEX
  8
SILK_TOP_ART
 10
56.5005
 20
13.9987
 30
0.00
  0
VERTEX
  8
SILK_TOP_ART
 10
60.0006
 20
13.9987
 30
0.00
  0
SEQEND
  0
POLYLINE
  8
SILK_TOP_ART
 66
1
 10
0.00
 20
0.00
 30
0.00
 40
0.254
 41
0.254
  0
VERTEX
  8
SILK_TOP_ART
 10
56.5005
 20
23.5009
 30
0.00
  0
VERTEX
  8
SILK_TOP_ART
 10
56.5005
 20
24.0013
 30
0.00
  0
VERTEX
  8
SILK_TOP_ART
 10
60.0006
 20
24.0013
 30
0.00
  0
SEQEND
  0
POLYLINE
  8
SILK_TOP_ART
 66
1
 10
0.00
 20
0.00
 30
0.00
 40
0.254
 41
0.254
  0
VERTEX
  8
SILK_TOP_ART
 10
68.9999
 20
14.4991
 30
0.00
  0
VERTEX
  8
SILK_TOP_ART
 10
68.9999
 20
13.9987
 30
0.00
  0
VERTEX
  8
SILK_TOP_ART
 10
64.9994
 20
13.9987
 30
0.00
  0
SEQEND
  0
POLYLINE
  8
SILK_TOP_ART
 66
1
 10
0.00
 20
0.00
 30
0.00
 40
0.254
 41
0.254
  0
VERTEX
  8
SILK_TOP_ART
 10
62.50
 20
16.7645
 30
0.00
 42
0.4142136
  0
VERTEX
  8
SILK_TOP_ART
 10
64.7355
 20
19.00
 30
0.00
 42
0.00
  0
SEQEND
  0
POLYLINE
  8
SILK_TOP_ART
 66
1
 10
0.00
 20
0.00
 30
0.00
 40
0.254
 41
0.254
  0
VERTEX
  8
SILK_TOP_ART
 10
60.2645
 20
19.00
 30
0.00
 42
0.4142136
  0
VERTEX
  8
SILK_TOP_ART
 10
62.50
 20
16.7645
 30
0.00
 42
0.00
  0
SEQEND
  0
POLYLINE
  8
SILK_TOP_ART
 66
1
 10
0.00
 20
0.00
 30
0.00
 40
0.254
 41
0.254
  0
VERTEX
  8
SILK_TOP_ART
 10
62.50
 20
21.2355
 30
0.00
 42
0.4142136
  0
VERTEX
  8
SILK_TOP_ART
 10
60.2645
 20
19.00
 30
0.00
 42
0.00
  0
SEQEND
  0
POLYLINE
  8
SILK_TOP_ART
 66
1
 10
0.00
 20
0.00
 30
0.00
 40
0.254
 41
0.254
  0
VERTEX
  8
SILK_TOP_ART
 10
64.7355
 20
19.00
 30
0.00
 42
0.4142136
  0
VERTEX
  8
SILK_TOP_ART
 10
62.50
 20
21.2355
 30
0.00
 42
0.00
  0
SEQEND
  0
POLYLINE
  8
SILK_TOP_ART
 66
1
 10
0.00
 20
0.00
 30
0.00
 40
0.254
 41
0.254
  0
VERTEX
  8
SILK_TOP_ART
 10
68.9999
 20
23.5009
 30
0.00
  0
VERTEX
  8
SILK_TOP_ART
 10
68.9999
 20
24.0013
 30
0.00
  0
VERTEX
  8
SILK_TOP_ART
 10
64.9994
 20
24.0013
 30
0.00
  0
SEQEND
  0
POLYLINE
  8
SILK_TOP_ART
 66
1
 10
0.00
 20
0.00
 30
0.00
 40
0.381
 41
0.381
  0
VERTEX
  8
SILK_TOP_ART
 10
31.00
 20
27.00
 30
0.00
  0
VERTEX
  8
SILK_TOP_ART
 10
51.00
 20
27.00
 30
0.00
  0
VERTEX
  8
SILK_TOP_ART
 10
51.00
 20
2.00
 30
0.00
  0
VERTEX
  8
SILK_TOP_ART
 10
11.00
 20
2.00
 30
0.00
  0
VERTEX
  8
SILK_TOP_ART
 10
11.00
 20
27.00
 30
0.00
  0
VERTEX
  8
SILK_TOP_ART
 10
31.00
 20
27.00
 30
0.00
  0
SEQEND
  0
POLYLINE
  8
MONITORPIPRO_ROU
 66
1
 10
0.00
 20
0.00
 30
0.00
 40
0.075
 41
0.075
  0
VERTEX
  8
MONITORPIPRO_ROU
 10
61.8609
 20
25.3473
 30
0.00
 42
1.00
  0
VERTEX
  8
MONITORPIPRO_ROU
 10
61.8609
 20
24.1525
 30
0.00
 42
0.00
  0
SEQEND
  0
POLYLINE
  8
MONITORPIPRO_ROU
 66
1
 10
0.00
 20
0.00
 30
0.00
 40
0.075
 41
0.075
  0
VERTEX
  8
MONITORPIPRO_ROU
 10
61.8609
 20
24.1525
 30
0.00
  0
VERTEX
  8
MONITORPIPRO_ROU
 10
63.6389
 20
24.1525
 30
0.00
  0
SEQEND
  0
POLYLINE
  8
MONITORPIPRO_ROU
 66
1
 10
0.00
 20
0.00
 30
0.00
 40
0.075
 41
0.075
  0
VERTEX
  8
MONITORPIPRO_ROU
 10
63.6389
 20
24.1525
 30
0.00
 42
1.00
  0
VERTEX
  8
MONITORPIPRO_ROU
 10
63.6389
 20
25.3473
 30
0.00
 42
0.00
  0
SEQEND
  0
POLYLINE
  8
MONITORPIPRO_ROU
 66
1
 10
0.00
 20
0.00
 30
0.00
 40
0.075
 41
0.075
  0
VERTEX
  8
MONITORPIPRO_ROU
 10
63.6389
 20
25.3473
 30
0.00
  0
VERTEX
  8
MONITORPIPRO_ROU
 10
61.8609
 20
25.3473
 30
0.00
  0
SEQEND
  0
POLYLINE
  8
MONITORPIPRO_ROU
 66
1
 10
0.00
 20
0.00
 30
0.00
 40
0.075
 41
0.075
  0
VERTEX
  8
MONITORPIPRO_ROU
 10
61.6109
 20
13.8473
 30
0.00
 42
1.00
  0
VERTEX
  8
MONITORPIPRO_ROU
 10
61.6109
 20
12.6525
 30
0.00
 42
0.00
  0
SEQEND
  0
POLYLINE
  8
MONITORPIPRO_ROU
 66
1
 10
0.00
 20
0.00
 30
0.00
 40
0.075
 41
0.075
  0
VERTEX
  8
MONITORPIPRO_ROU
 10
61.6109
 20
12.6525
 30
0.00
  0
VERTEX
  8
MONITORPIPRO_ROU
 10
63.3889
 20
12.6525
 30
0.00
  0
SEQEND
  0
POLYLINE
  8
MONITORPIPRO_ROU
 66
1
 10
0.00
 20
0.00
 30
0.00
 40
0.075
 41
0.075
  0
VERTEX
  8
MONITORPIPRO_ROU
 10
63.3889
 20
12.6525
 30
0.00
 42
1.00
  0
VERTEX
  8
MONITORPIPRO_ROU
 10
63.3889
 20
13.8473
 30
0.00
 42
0.00
  0
SEQEND
  0
POLYLINE
  8
MONITORPIPRO_ROU
 66
1
 10
0.00
 20
0.00
 30
0.00
 40
0.075
 41
0.075
  0
VERTEX
  8
MONITORPIPRO_ROU
 10
63.3889
 20
13.8473
 30
0.00
  0
VERTEX
  8
MONITORPIPRO_ROU
 10
61.6109
 20
13.8473
 30
0.00
  0
SEQEND
  0
INSERT
  2
ROUND_65
  8
MONITORPIPRO-1-2_DRL
 10
24.50
 20
26.75
 30
0.00
 41
1.00
 42
1.00
 50
0.00
  0
INSERT
  2
ROUND_65
  8
MONITORPIPRO-1-2_DRL
 10
42.00
 20
26.25
 30
0.00
 41
1.00
 42
1.00
 50
0.00
  0
INSERT
  2
ROUND_53
  8
MONITORPIPRO-1-2_DRL
 10
3.50
 20
7.00
 30
0.00
 41
1.00
 42
1.00
 50
0.00
  0
INSERT
  2
ROUND_53
  8
MONITORPIPRO-1-2_DRL
 10
3.50
 20
9.54
 30
0.00
 41
1.00
 42
1.00
 50
0.00
  0
INSERT
  2
ROUND_53
  8
MONITORPIPRO-1-2_DRL
 10
3.50
 20
12.08
 30
0.00
 41
1.00
 42
1.00
 50
0.00
  0
INSERT
  2
ROUND_53
  8
MONITORPIPRO-1-2_DRL
 10
3.50
 20
14.62
 30
0.00
 41
1.00
 42
1.00
 50
0.00
  0
INSERT
  2
ROUND_53
  8
MONITORPIPRO-1-2_DRL
 10
3.50
 20
17.16
 30
0.00
 41
1.00
 42
1.00
 50
0.00
  0
INSERT
  2
ROUND_53
  8
MONITORPIPRO-1-2_DRL
 10
70.00
 20
16.50
 30
0.00
 41
1.00
 42
1.00
 50
0.00
  0
INSERT
  2
ROUND_53
  8
MONITORPIPRO-1-2_DRL
 10
70.00
 20
19.00
 30
0.00
 41
1.00
 42
1.00
 50
0.00
  0
INSERT
  2
ROUND_53
  8
MONITORPIPRO-1-2_DRL
 10
70.00
 20
21.50
 30
0.00
 41
1.00
 42
1.00
 50
0.00
  0
INSERT
  2
ROUND_53
  8
MONITORPIPRO-1-2_DRL
 10
55.50
 20
21.50
 30
0.00
 41
1.00
 42
1.00
 50
0.00
  0
INSERT
  2
ROUND_53
  8
MONITORPIPRO-1-2_DRL
 10
55.50
 20
16.50
 30
0.00
 41
1.00
 42
1.00
 50
0.00
  0
INSERT
  2
ROUND_53
  8
MONITORPIPRO-1-2_DRL
 10
67.50
 20
1.25
 30
0.00
 41
1.00
 42
1.00
 50
0.00
  0
INSERT
  2
ROUND_53
  8
MONITORPIPRO-1-2_DRL
 10
64.96
 20
1.25
 30
0.00
 41
1.00
 42
1.00
 50
0.00
  0
INSERT
  2
ROUND_53
  8
MONITORPIPRO-1-2_DRL
 10
62.42
 20
1.25
 30
0.00
 41
1.00
 42
1.00
 50
0.00
  0
INSERT
  2
ROUND_53
  8
MONITORPIPRO-1-2_DRL
 10
59.88
 20
1.25
 30
0.00
 41
1.00
 42
1.00
 50
0.00
  0
INSERT
  2
ROUND_53
  8
MONITORPIPRO-1-2_DRL
 10
57.34
 20
1.25
 30
0.00
 41
1.00
 42
1.00
 50
0.00
  0
INSERT
  2
ROUND_7
  8
MONITORPIPRO-1-2_DRL
 10
2.00
 20
2.50
 30
0.00
 41
1.00
 42
1.00
 50
0.00
  0
INSERT
  2
ROUND_7
  8
MONITORPIPRO-1-2_DRL
 10
2.00
 20
23.50
 30
0.00
 41
1.00
 42
1.00
 50
0.00
  0
INSERT
  2
ROUND_7
  8
MONITORPIPRO-1-2_DRL
 10
71.00
 20
2.50
 30
0.00
 41
1.00
 42
1.00
 50
0.00
  0
ENDSEC
  0
EOF
